%FSLAX34Y34*%
G04 Gerber Fmt 3.4, Leading zero omitted, Abs format*
G04 (created by PCBNEW (2014-03-19 BZR 4756)-product) date Wed 25 Jun 2014 01:08:57 CDT*
%MOIN*%
G01*
G70*
G90*
G04 APERTURE LIST*
%ADD10C,0.003937*%
%ADD11C,0.003900*%
%ADD12C,0.007874*%
%ADD13C,0.004300*%
%ADD14C,0.005906*%
G04 APERTURE END LIST*
G54D10*
G54D11*
X65200Y-30300D02*
G75*
G03X65200Y-30300I-50J0D01*
G74*
G01*
X64700Y-30300D02*
X65100Y-30300D01*
X65100Y-30300D02*
X65100Y-29700D01*
X65100Y-29700D02*
X64700Y-29700D01*
X64300Y-29700D02*
X63900Y-29700D01*
X63900Y-29700D02*
X63900Y-30300D01*
X63900Y-30300D02*
X64300Y-30300D01*
X60400Y-26700D02*
G75*
G03X60400Y-26700I-50J0D01*
G74*
G01*
X60800Y-26700D02*
X60400Y-26700D01*
X60400Y-26700D02*
X60400Y-27300D01*
X60400Y-27300D02*
X60800Y-27300D01*
X61200Y-27300D02*
X61600Y-27300D01*
X61600Y-27300D02*
X61600Y-26700D01*
X61600Y-26700D02*
X61200Y-26700D01*
X60400Y-25700D02*
G75*
G03X60400Y-25700I-50J0D01*
G74*
G01*
X60800Y-25700D02*
X60400Y-25700D01*
X60400Y-25700D02*
X60400Y-26300D01*
X60400Y-26300D02*
X60800Y-26300D01*
X61200Y-26300D02*
X61600Y-26300D01*
X61600Y-26300D02*
X61600Y-25700D01*
X61600Y-25700D02*
X61200Y-25700D01*
X65400Y-26700D02*
G75*
G03X65400Y-26700I-50J0D01*
G74*
G01*
X65800Y-26700D02*
X65400Y-26700D01*
X65400Y-26700D02*
X65400Y-27300D01*
X65400Y-27300D02*
X65800Y-27300D01*
X66200Y-27300D02*
X66600Y-27300D01*
X66600Y-27300D02*
X66600Y-26700D01*
X66600Y-26700D02*
X66200Y-26700D01*
X65400Y-25700D02*
G75*
G03X65400Y-25700I-50J0D01*
G74*
G01*
X65800Y-25700D02*
X65400Y-25700D01*
X65400Y-25700D02*
X65400Y-26300D01*
X65400Y-26300D02*
X65800Y-26300D01*
X66200Y-26300D02*
X66600Y-26300D01*
X66600Y-26300D02*
X66600Y-25700D01*
X66600Y-25700D02*
X66200Y-25700D01*
G54D12*
X63263Y-29311D02*
X62791Y-29311D01*
X64208Y-29311D02*
X63736Y-29311D01*
X63263Y-29311D02*
G75*
G02X63500Y-29074I236J0D01*
G74*
G01*
X63500Y-29074D02*
G75*
G02X63736Y-29311I0J-236D01*
G74*
G01*
X64208Y-29311D02*
X64208Y-25688D01*
X64208Y-25688D02*
X62791Y-25688D01*
X62791Y-25688D02*
X62791Y-29311D01*
G54D11*
X57200Y-30300D02*
G75*
G03X57200Y-30300I-50J0D01*
G74*
G01*
X56700Y-30300D02*
X57100Y-30300D01*
X57100Y-30300D02*
X57100Y-29700D01*
X57100Y-29700D02*
X56700Y-29700D01*
X56300Y-29700D02*
X55900Y-29700D01*
X55900Y-29700D02*
X55900Y-30300D01*
X55900Y-30300D02*
X56300Y-30300D01*
X52400Y-26700D02*
G75*
G03X52400Y-26700I-50J0D01*
G74*
G01*
X52800Y-26700D02*
X52400Y-26700D01*
X52400Y-26700D02*
X52400Y-27300D01*
X52400Y-27300D02*
X52800Y-27300D01*
X53200Y-27300D02*
X53600Y-27300D01*
X53600Y-27300D02*
X53600Y-26700D01*
X53600Y-26700D02*
X53200Y-26700D01*
X52400Y-25700D02*
G75*
G03X52400Y-25700I-50J0D01*
G74*
G01*
X52800Y-25700D02*
X52400Y-25700D01*
X52400Y-25700D02*
X52400Y-26300D01*
X52400Y-26300D02*
X52800Y-26300D01*
X53200Y-26300D02*
X53600Y-26300D01*
X53600Y-26300D02*
X53600Y-25700D01*
X53600Y-25700D02*
X53200Y-25700D01*
X57400Y-26700D02*
G75*
G03X57400Y-26700I-50J0D01*
G74*
G01*
X57800Y-26700D02*
X57400Y-26700D01*
X57400Y-26700D02*
X57400Y-27300D01*
X57400Y-27300D02*
X57800Y-27300D01*
X58200Y-27300D02*
X58600Y-27300D01*
X58600Y-27300D02*
X58600Y-26700D01*
X58600Y-26700D02*
X58200Y-26700D01*
X57400Y-25700D02*
G75*
G03X57400Y-25700I-50J0D01*
G74*
G01*
X57800Y-25700D02*
X57400Y-25700D01*
X57400Y-25700D02*
X57400Y-26300D01*
X57400Y-26300D02*
X57800Y-26300D01*
X58200Y-26300D02*
X58600Y-26300D01*
X58600Y-26300D02*
X58600Y-25700D01*
X58600Y-25700D02*
X58200Y-25700D01*
G54D12*
X55263Y-29311D02*
X54791Y-29311D01*
X56208Y-29311D02*
X55736Y-29311D01*
X55263Y-29311D02*
G75*
G02X55500Y-29074I236J0D01*
G74*
G01*
X55500Y-29074D02*
G75*
G02X55736Y-29311I0J-236D01*
G74*
G01*
X56208Y-29311D02*
X56208Y-25688D01*
X56208Y-25688D02*
X54791Y-25688D01*
X54791Y-25688D02*
X54791Y-29311D01*
G54D13*
X65532Y-29970D02*
X65542Y-29979D01*
X65570Y-29989D01*
X65589Y-29989D01*
X65617Y-29979D01*
X65636Y-29960D01*
X65645Y-29942D01*
X65654Y-29904D01*
X65654Y-29876D01*
X65645Y-29839D01*
X65636Y-29820D01*
X65617Y-29801D01*
X65589Y-29792D01*
X65570Y-29792D01*
X65542Y-29801D01*
X65532Y-29810D01*
X65457Y-29810D02*
X65448Y-29801D01*
X65429Y-29792D01*
X65382Y-29792D01*
X65363Y-29801D01*
X65354Y-29810D01*
X65345Y-29829D01*
X65345Y-29848D01*
X65354Y-29876D01*
X65467Y-29989D01*
X65345Y-29989D01*
X60132Y-27089D02*
X60198Y-26995D01*
X60245Y-27089D02*
X60245Y-26892D01*
X60170Y-26892D01*
X60151Y-26901D01*
X60142Y-26910D01*
X60132Y-26929D01*
X60132Y-26957D01*
X60142Y-26976D01*
X60151Y-26985D01*
X60170Y-26995D01*
X60245Y-26995D01*
X60067Y-26892D02*
X59945Y-26892D01*
X60010Y-26967D01*
X59982Y-26967D01*
X59963Y-26976D01*
X59954Y-26985D01*
X59945Y-27004D01*
X59945Y-27051D01*
X59954Y-27070D01*
X59963Y-27079D01*
X59982Y-27089D01*
X60039Y-27089D01*
X60057Y-27079D01*
X60067Y-27070D01*
X60132Y-26289D02*
X60198Y-26195D01*
X60245Y-26289D02*
X60245Y-26092D01*
X60170Y-26092D01*
X60151Y-26101D01*
X60142Y-26110D01*
X60132Y-26129D01*
X60132Y-26157D01*
X60142Y-26176D01*
X60151Y-26185D01*
X60170Y-26195D01*
X60245Y-26195D01*
X59963Y-26157D02*
X59963Y-26289D01*
X60010Y-26082D02*
X60057Y-26223D01*
X59935Y-26223D01*
X66932Y-27289D02*
X66998Y-27195D01*
X67045Y-27289D02*
X67045Y-27092D01*
X66970Y-27092D01*
X66951Y-27101D01*
X66942Y-27110D01*
X66932Y-27129D01*
X66932Y-27157D01*
X66942Y-27176D01*
X66951Y-27185D01*
X66970Y-27195D01*
X67045Y-27195D01*
X66839Y-27289D02*
X66801Y-27289D01*
X66782Y-27279D01*
X66773Y-27270D01*
X66754Y-27242D01*
X66745Y-27204D01*
X66745Y-27129D01*
X66754Y-27110D01*
X66763Y-27101D01*
X66782Y-27092D01*
X66820Y-27092D01*
X66839Y-27101D01*
X66848Y-27110D01*
X66857Y-27129D01*
X66857Y-27176D01*
X66848Y-27195D01*
X66839Y-27204D01*
X66820Y-27214D01*
X66782Y-27214D01*
X66763Y-27204D01*
X66754Y-27195D01*
X66745Y-27176D01*
X67126Y-26289D02*
X67192Y-26195D01*
X67239Y-26289D02*
X67239Y-26092D01*
X67164Y-26092D01*
X67145Y-26101D01*
X67136Y-26110D01*
X67126Y-26129D01*
X67126Y-26157D01*
X67136Y-26176D01*
X67145Y-26185D01*
X67164Y-26195D01*
X67239Y-26195D01*
X66939Y-26289D02*
X67051Y-26289D01*
X66995Y-26289D02*
X66995Y-26092D01*
X67014Y-26120D01*
X67032Y-26139D01*
X67051Y-26148D01*
X66817Y-26092D02*
X66798Y-26092D01*
X66779Y-26101D01*
X66770Y-26110D01*
X66760Y-26129D01*
X66751Y-26167D01*
X66751Y-26214D01*
X66760Y-26251D01*
X66770Y-26270D01*
X66779Y-26279D01*
X66798Y-26289D01*
X66817Y-26289D01*
X66835Y-26279D01*
X66845Y-26270D01*
X66854Y-26251D01*
X66863Y-26214D01*
X66863Y-26167D01*
X66854Y-26129D01*
X66845Y-26110D01*
X66835Y-26101D01*
X66817Y-26092D01*
G54D14*
X63799Y-25184D02*
X63799Y-25503D01*
X63781Y-25540D01*
X63762Y-25559D01*
X63724Y-25578D01*
X63649Y-25578D01*
X63612Y-25559D01*
X63593Y-25540D01*
X63574Y-25503D01*
X63574Y-25184D01*
X63406Y-25221D02*
X63387Y-25203D01*
X63350Y-25184D01*
X63256Y-25184D01*
X63218Y-25203D01*
X63200Y-25221D01*
X63181Y-25259D01*
X63181Y-25296D01*
X63200Y-25353D01*
X63425Y-25578D01*
X63181Y-25578D01*
G54D13*
X57432Y-29970D02*
X57442Y-29979D01*
X57470Y-29989D01*
X57489Y-29989D01*
X57517Y-29979D01*
X57536Y-29960D01*
X57545Y-29942D01*
X57554Y-29904D01*
X57554Y-29876D01*
X57545Y-29839D01*
X57536Y-29820D01*
X57517Y-29801D01*
X57489Y-29792D01*
X57470Y-29792D01*
X57442Y-29801D01*
X57432Y-29810D01*
X57320Y-29876D02*
X57339Y-29867D01*
X57348Y-29857D01*
X57357Y-29839D01*
X57357Y-29829D01*
X57348Y-29810D01*
X57339Y-29801D01*
X57320Y-29792D01*
X57282Y-29792D01*
X57263Y-29801D01*
X57254Y-29810D01*
X57245Y-29829D01*
X57245Y-29839D01*
X57254Y-29857D01*
X57263Y-29867D01*
X57282Y-29876D01*
X57320Y-29876D01*
X57339Y-29885D01*
X57348Y-29895D01*
X57357Y-29914D01*
X57357Y-29951D01*
X57348Y-29970D01*
X57339Y-29979D01*
X57320Y-29989D01*
X57282Y-29989D01*
X57263Y-29979D01*
X57254Y-29970D01*
X57245Y-29951D01*
X57245Y-29914D01*
X57254Y-29895D01*
X57263Y-29885D01*
X57282Y-29876D01*
X52126Y-27089D02*
X52192Y-26995D01*
X52239Y-27089D02*
X52239Y-26892D01*
X52164Y-26892D01*
X52145Y-26901D01*
X52136Y-26910D01*
X52126Y-26929D01*
X52126Y-26957D01*
X52136Y-26976D01*
X52145Y-26985D01*
X52164Y-26995D01*
X52239Y-26995D01*
X52051Y-26910D02*
X52042Y-26901D01*
X52023Y-26892D01*
X51976Y-26892D01*
X51957Y-26901D01*
X51948Y-26910D01*
X51939Y-26929D01*
X51939Y-26948D01*
X51948Y-26976D01*
X52060Y-27089D01*
X51939Y-27089D01*
X51760Y-26892D02*
X51854Y-26892D01*
X51863Y-26985D01*
X51854Y-26976D01*
X51835Y-26967D01*
X51788Y-26967D01*
X51770Y-26976D01*
X51760Y-26985D01*
X51751Y-27004D01*
X51751Y-27051D01*
X51760Y-27070D01*
X51770Y-27079D01*
X51788Y-27089D01*
X51835Y-27089D01*
X51854Y-27079D01*
X51863Y-27070D01*
X52126Y-26089D02*
X52192Y-25995D01*
X52239Y-26089D02*
X52239Y-25892D01*
X52164Y-25892D01*
X52145Y-25901D01*
X52136Y-25910D01*
X52126Y-25929D01*
X52126Y-25957D01*
X52136Y-25976D01*
X52145Y-25985D01*
X52164Y-25995D01*
X52239Y-25995D01*
X52051Y-25910D02*
X52042Y-25901D01*
X52023Y-25892D01*
X51976Y-25892D01*
X51957Y-25901D01*
X51948Y-25910D01*
X51939Y-25929D01*
X51939Y-25948D01*
X51948Y-25976D01*
X52060Y-26089D01*
X51939Y-26089D01*
X51770Y-25892D02*
X51807Y-25892D01*
X51826Y-25901D01*
X51835Y-25910D01*
X51854Y-25939D01*
X51863Y-25976D01*
X51863Y-26051D01*
X51854Y-26070D01*
X51845Y-26079D01*
X51826Y-26089D01*
X51788Y-26089D01*
X51770Y-26079D01*
X51760Y-26070D01*
X51751Y-26051D01*
X51751Y-26004D01*
X51760Y-25985D01*
X51770Y-25976D01*
X51788Y-25967D01*
X51826Y-25967D01*
X51845Y-25976D01*
X51854Y-25985D01*
X51863Y-26004D01*
X59126Y-27089D02*
X59192Y-26995D01*
X59239Y-27089D02*
X59239Y-26892D01*
X59164Y-26892D01*
X59145Y-26901D01*
X59136Y-26910D01*
X59126Y-26929D01*
X59126Y-26957D01*
X59136Y-26976D01*
X59145Y-26985D01*
X59164Y-26995D01*
X59239Y-26995D01*
X59051Y-26910D02*
X59042Y-26901D01*
X59023Y-26892D01*
X58976Y-26892D01*
X58957Y-26901D01*
X58948Y-26910D01*
X58939Y-26929D01*
X58939Y-26948D01*
X58948Y-26976D01*
X59060Y-27089D01*
X58939Y-27089D01*
X58873Y-26892D02*
X58742Y-26892D01*
X58826Y-27089D01*
X59126Y-26289D02*
X59192Y-26195D01*
X59239Y-26289D02*
X59239Y-26092D01*
X59164Y-26092D01*
X59145Y-26101D01*
X59136Y-26110D01*
X59126Y-26129D01*
X59126Y-26157D01*
X59136Y-26176D01*
X59145Y-26185D01*
X59164Y-26195D01*
X59239Y-26195D01*
X59051Y-26110D02*
X59042Y-26101D01*
X59023Y-26092D01*
X58976Y-26092D01*
X58957Y-26101D01*
X58948Y-26110D01*
X58939Y-26129D01*
X58939Y-26148D01*
X58948Y-26176D01*
X59060Y-26289D01*
X58939Y-26289D01*
X58826Y-26176D02*
X58845Y-26167D01*
X58854Y-26157D01*
X58863Y-26139D01*
X58863Y-26129D01*
X58854Y-26110D01*
X58845Y-26101D01*
X58826Y-26092D01*
X58788Y-26092D01*
X58770Y-26101D01*
X58760Y-26110D01*
X58751Y-26129D01*
X58751Y-26139D01*
X58760Y-26157D01*
X58770Y-26167D01*
X58788Y-26176D01*
X58826Y-26176D01*
X58845Y-26185D01*
X58854Y-26195D01*
X58863Y-26214D01*
X58863Y-26251D01*
X58854Y-26270D01*
X58845Y-26279D01*
X58826Y-26289D01*
X58788Y-26289D01*
X58770Y-26279D01*
X58760Y-26270D01*
X58751Y-26251D01*
X58751Y-26214D01*
X58760Y-26195D01*
X58770Y-26185D01*
X58788Y-26176D01*
G54D14*
X55799Y-25184D02*
X55799Y-25503D01*
X55781Y-25540D01*
X55762Y-25559D01*
X55724Y-25578D01*
X55649Y-25578D01*
X55612Y-25559D01*
X55593Y-25540D01*
X55574Y-25503D01*
X55574Y-25184D01*
X55218Y-25315D02*
X55218Y-25578D01*
X55312Y-25165D02*
X55406Y-25446D01*
X55162Y-25446D01*
M02*
