M48
;DRILL file {Pcbnew (2013-07-07 BZR 4022)-stable} date 10/02/2014 08:40:53
;FORMAT={-:-/ absolute / inch / decimal}
FMAT,2
INCH,TZ
T1C0.025
T2C0.030
T3C0.032
T4C0.040
%
G90
G05
M72
T1
X3.8453Y-4.0311
X3.8744Y-4.2666
X3.8985Y-4.0845
X3.925Y-4.0096
X3.9425Y-3.869
X3.965Y-5.555
X3.9989Y-4.3055
X4.005Y-3.62
X4.05Y-5.605
X4.06Y-3.52
X4.06Y-5.47
X4.0664Y-3.7208
X4.07Y-4.905
X4.0901Y-4.1431
X4.1824Y-4.1384
X4.19Y-4.905
X4.24Y-3.565
X4.2857Y-3.9593
X4.2935Y-4.1701
X4.32Y-3.485
X4.39Y-5.54
X4.4302Y-4.7556
X4.4439Y-4.2184
X4.45Y-3.855
X4.468Y-4.6535
X4.5273Y-4.1739
X4.5616Y-4.1474
X4.598Y-4.8565
X4.67Y-6.05
X4.67Y-6.13
X4.6845Y-4.5897
X4.715Y-4.5137
X4.7745Y-4.5712
X4.7907Y-4.6472
X4.802Y-4.18
X4.8101Y-4.3559
X4.8326Y-4.2354
X4.865Y-5.475
X4.8719Y-4.3212
X4.8809Y-4.5767
X4.89Y-3.75
X4.89Y-3.97
X4.9034Y-4.3569
X4.9039Y-4.4459
X4.904Y-4.5336
X4.94Y-5.55
X4.9403Y-5.1775
X4.965Y-5.0844
X4.9738Y-4.8708
X4.979Y-4.0966
X5.0803Y-4.7121
X5.0981Y-5.115
X5.145Y-3.875
X5.21Y-4.84
X5.2582Y-4.31
X5.285Y-5.73
X5.292Y-4.8946
X5.375Y-5.665
X5.415Y-3.49
X5.415Y-4.03
X5.4907Y-5.508
X5.65Y-3.93
T2
X4.445Y-3.755
X4.575Y-5.98
X4.645Y-3.755
X4.745Y-5.98
T3
X3.94Y-5.025
X3.94Y-5.225
X3.995Y-5.69
X3.995Y-5.79
X4.115Y-5.69
X4.115Y-5.79
X4.235Y-5.69
X4.235Y-5.79
X4.355Y-5.69
X4.355Y-5.79
X4.44Y-5.025
X4.44Y-5.225
X4.865Y-5.025
X4.865Y-5.225
X5.05Y-3.96
X5.15Y-3.96
X5.25Y-3.96
X5.365Y-5.025
X5.365Y-5.225
T4
X3.6Y-3.42
X3.6Y-3.68
X3.6Y-3.78
X3.6Y-3.88
X3.6Y-3.98
X3.6Y-4.08
X3.6Y-4.18
X3.6Y-4.28
X3.6Y-4.38
X3.6Y-4.48
X3.6Y-4.58
X3.6Y-4.68
X3.6Y-4.78
X3.6Y-4.88
X3.6Y-4.98
X3.6Y-5.08
X3.6Y-5.18
X3.6Y-5.28
X3.6Y-5.38
X3.6Y-5.48
X3.6Y-5.58
X3.6Y-5.68
X3.6Y-5.78
X3.6Y-5.88
X3.6Y-5.98
X3.6Y-6.08
X3.7Y-3.42
X3.7Y-3.68
X3.7Y-3.78
X3.7Y-3.88
X3.7Y-3.98
X3.7Y-4.08
X3.7Y-4.18
X3.7Y-4.28
X3.7Y-4.38
X3.7Y-4.48
X3.7Y-4.58
X3.7Y-4.68
X3.7Y-4.78
X3.7Y-4.88
X3.7Y-4.98
X3.7Y-5.08
X3.7Y-5.18
X3.7Y-5.28
X3.7Y-5.38
X3.7Y-5.48
X3.7Y-5.58
X3.7Y-5.68
X3.7Y-5.78
X3.7Y-5.88
X3.7Y-5.98
X3.7Y-6.08
X3.8Y-3.42
X3.9Y-3.42
X4.Y-3.42
X4.1Y-3.42
X4.55Y-3.42
X4.65Y-3.42
X5.6Y-3.68
X5.6Y-3.78
X5.6Y-3.88
X5.6Y-3.98
X5.6Y-4.08
X5.6Y-4.18
X5.6Y-4.28
X5.6Y-4.38
X5.6Y-4.48
X5.6Y-4.58
X5.6Y-4.68
X5.6Y-4.78
X5.6Y-4.88
X5.6Y-4.98
X5.6Y-5.08
X5.6Y-5.18
X5.6Y-5.28
X5.6Y-5.38
X5.6Y-5.48
X5.6Y-5.58
X5.6Y-5.68
X5.6Y-5.78
X5.6Y-5.88
X5.6Y-5.98
X5.6Y-6.08
X5.7Y-3.68
X5.7Y-3.78
X5.7Y-3.88
X5.7Y-3.98
X5.7Y-4.08
X5.7Y-4.18
X5.7Y-4.28
X5.7Y-4.38
X5.7Y-4.48
X5.7Y-4.58
X5.7Y-4.68
X5.7Y-4.78
X5.7Y-4.88
X5.7Y-4.98
X5.7Y-5.08
X5.7Y-5.18
X5.7Y-5.28
X5.7Y-5.38
X5.7Y-5.48
X5.7Y-5.58
X5.7Y-5.68
X5.7Y-5.78
X5.7Y-5.88
X5.7Y-5.98
X5.7Y-6.08
T0
M30
