G04 (created by PCBNEW (2013-07-07 BZR 4022)-stable) date 22/02/2014 22:22:10*
%MOIN*%
G04 Gerber Fmt 3.4, Leading zero omitted, Abs format*
%FSLAX34Y34*%
G01*
G70*
G90*
G04 APERTURE LIST*
%ADD10C,0.00590551*%
%ADD11C,0.005*%
%ADD12C,0.006*%
%ADD13C,0.003*%
%ADD14C,0.0039*%
%ADD15C,0.0026*%
%ADD16C,0.004*%
%ADD17C,0.002*%
%ADD18C,0.012*%
%ADD19C,0.008*%
%ADD20C,0.0125*%
%ADD21C,0.0043*%
%ADD22C,0.0045*%
%ADD23C,0.0035*%
G04 APERTURE END LIST*
G54D10*
G54D11*
X45388Y-60276D02*
X45388Y-60026D01*
X45471Y-60204D01*
X45554Y-60026D01*
X45554Y-60276D01*
X45673Y-60276D02*
X45673Y-60026D01*
X45792Y-60276D02*
X45792Y-60026D01*
X45935Y-60276D01*
X45935Y-60026D01*
X46054Y-60276D02*
X46054Y-60026D01*
X46173Y-60180D02*
X46364Y-60180D01*
X46483Y-60026D02*
X46483Y-60228D01*
X46495Y-60252D01*
X46507Y-60264D01*
X46530Y-60276D01*
X46578Y-60276D01*
X46602Y-60264D01*
X46614Y-60252D01*
X46626Y-60228D01*
X46626Y-60026D01*
X46733Y-60264D02*
X46769Y-60276D01*
X46828Y-60276D01*
X46852Y-60264D01*
X46864Y-60252D01*
X46876Y-60228D01*
X46876Y-60204D01*
X46864Y-60180D01*
X46852Y-60169D01*
X46828Y-60157D01*
X46780Y-60145D01*
X46757Y-60133D01*
X46745Y-60121D01*
X46733Y-60097D01*
X46733Y-60073D01*
X46745Y-60050D01*
X46757Y-60038D01*
X46780Y-60026D01*
X46840Y-60026D01*
X46876Y-60038D01*
X47066Y-60145D02*
X47102Y-60157D01*
X47114Y-60169D01*
X47126Y-60192D01*
X47126Y-60228D01*
X47114Y-60252D01*
X47102Y-60264D01*
X47078Y-60276D01*
X46983Y-60276D01*
X46983Y-60026D01*
X47066Y-60026D01*
X47090Y-60038D01*
X47102Y-60050D01*
X47114Y-60073D01*
X47114Y-60097D01*
X47102Y-60121D01*
X47090Y-60133D01*
X47066Y-60145D01*
X46983Y-60145D01*
X47233Y-60180D02*
X47423Y-60180D01*
X47661Y-60026D02*
X47542Y-60026D01*
X47530Y-60145D01*
X47542Y-60133D01*
X47566Y-60121D01*
X47626Y-60121D01*
X47649Y-60133D01*
X47661Y-60145D01*
X47673Y-60169D01*
X47673Y-60228D01*
X47661Y-60252D01*
X47649Y-60264D01*
X47626Y-60276D01*
X47566Y-60276D01*
X47542Y-60264D01*
X47530Y-60252D01*
X47780Y-60276D02*
X47780Y-60026D01*
X47876Y-60026D01*
X47899Y-60038D01*
X47911Y-60050D01*
X47923Y-60073D01*
X47923Y-60109D01*
X47911Y-60133D01*
X47899Y-60145D01*
X47876Y-60157D01*
X47780Y-60157D01*
X45477Y-60580D02*
X45667Y-60580D01*
X45763Y-60426D02*
X45917Y-60426D01*
X45834Y-60521D01*
X45870Y-60521D01*
X45894Y-60533D01*
X45905Y-60545D01*
X45917Y-60569D01*
X45917Y-60628D01*
X45905Y-60652D01*
X45894Y-60664D01*
X45870Y-60676D01*
X45798Y-60676D01*
X45774Y-60664D01*
X45763Y-60652D01*
X46132Y-60509D02*
X46132Y-60676D01*
X46072Y-60414D02*
X46013Y-60592D01*
X46167Y-60592D01*
X46310Y-60426D02*
X46334Y-60426D01*
X46358Y-60438D01*
X46370Y-60450D01*
X46382Y-60473D01*
X46394Y-60521D01*
X46394Y-60580D01*
X46382Y-60628D01*
X46370Y-60652D01*
X46358Y-60664D01*
X46334Y-60676D01*
X46310Y-60676D01*
X46286Y-60664D01*
X46275Y-60652D01*
X46263Y-60628D01*
X46251Y-60580D01*
X46251Y-60521D01*
X46263Y-60473D01*
X46275Y-60450D01*
X46286Y-60438D01*
X46310Y-60426D01*
X46548Y-60426D02*
X46572Y-60426D01*
X46596Y-60438D01*
X46608Y-60450D01*
X46620Y-60473D01*
X46632Y-60521D01*
X46632Y-60580D01*
X46620Y-60628D01*
X46608Y-60652D01*
X46596Y-60664D01*
X46572Y-60676D01*
X46548Y-60676D01*
X46525Y-60664D01*
X46513Y-60652D01*
X46501Y-60628D01*
X46489Y-60580D01*
X46489Y-60521D01*
X46501Y-60473D01*
X46513Y-60450D01*
X46525Y-60438D01*
X46548Y-60426D01*
X46786Y-60426D02*
X46810Y-60426D01*
X46834Y-60438D01*
X46846Y-60450D01*
X46858Y-60473D01*
X46870Y-60521D01*
X46870Y-60580D01*
X46858Y-60628D01*
X46846Y-60652D01*
X46834Y-60664D01*
X46810Y-60676D01*
X46786Y-60676D01*
X46763Y-60664D01*
X46751Y-60652D01*
X46739Y-60628D01*
X46727Y-60580D01*
X46727Y-60521D01*
X46739Y-60473D01*
X46751Y-60450D01*
X46763Y-60438D01*
X46786Y-60426D01*
X46965Y-60450D02*
X46977Y-60438D01*
X47001Y-60426D01*
X47060Y-60426D01*
X47084Y-60438D01*
X47096Y-60450D01*
X47108Y-60473D01*
X47108Y-60497D01*
X47096Y-60533D01*
X46953Y-60676D01*
X47108Y-60676D01*
X47263Y-60426D02*
X47286Y-60426D01*
X47310Y-60438D01*
X47322Y-60450D01*
X47334Y-60473D01*
X47346Y-60521D01*
X47346Y-60580D01*
X47334Y-60628D01*
X47322Y-60652D01*
X47310Y-60664D01*
X47286Y-60676D01*
X47263Y-60676D01*
X47239Y-60664D01*
X47227Y-60652D01*
X47215Y-60628D01*
X47203Y-60580D01*
X47203Y-60521D01*
X47215Y-60473D01*
X47227Y-60450D01*
X47239Y-60438D01*
X47263Y-60426D01*
X47453Y-60676D02*
X47453Y-60426D01*
X47548Y-60426D01*
X47572Y-60438D01*
X47584Y-60450D01*
X47596Y-60473D01*
X47596Y-60509D01*
X47584Y-60533D01*
X47572Y-60545D01*
X47548Y-60557D01*
X47453Y-60557D01*
X47834Y-60676D02*
X47691Y-60676D01*
X47763Y-60676D02*
X47763Y-60426D01*
X47739Y-60461D01*
X47715Y-60485D01*
X47691Y-60497D01*
G54D12*
X37688Y-39921D02*
X37688Y-39621D01*
X37802Y-39621D01*
X37831Y-39635D01*
X37845Y-39650D01*
X37860Y-39678D01*
X37860Y-39721D01*
X37845Y-39750D01*
X37831Y-39764D01*
X37802Y-39778D01*
X37688Y-39778D01*
X38160Y-39892D02*
X38145Y-39907D01*
X38102Y-39921D01*
X38074Y-39921D01*
X38031Y-39907D01*
X38002Y-39878D01*
X37988Y-39850D01*
X37974Y-39792D01*
X37974Y-39750D01*
X37988Y-39692D01*
X38002Y-39664D01*
X38031Y-39635D01*
X38074Y-39621D01*
X38102Y-39621D01*
X38145Y-39635D01*
X38160Y-39650D01*
X38345Y-39621D02*
X38374Y-39621D01*
X38402Y-39635D01*
X38417Y-39650D01*
X38431Y-39678D01*
X38445Y-39735D01*
X38445Y-39807D01*
X38431Y-39864D01*
X38417Y-39892D01*
X38402Y-39907D01*
X38374Y-39921D01*
X38345Y-39921D01*
X38317Y-39907D01*
X38302Y-39892D01*
X38288Y-39864D01*
X38274Y-39807D01*
X38274Y-39735D01*
X38288Y-39678D01*
X38302Y-39650D01*
X38317Y-39635D01*
X38345Y-39621D01*
X37688Y-40921D02*
X37688Y-40621D01*
X37802Y-40621D01*
X37831Y-40635D01*
X37845Y-40650D01*
X37860Y-40678D01*
X37860Y-40721D01*
X37845Y-40750D01*
X37831Y-40764D01*
X37802Y-40778D01*
X37688Y-40778D01*
X38160Y-40892D02*
X38145Y-40907D01*
X38102Y-40921D01*
X38074Y-40921D01*
X38031Y-40907D01*
X38002Y-40878D01*
X37988Y-40850D01*
X37974Y-40792D01*
X37974Y-40750D01*
X37988Y-40692D01*
X38002Y-40664D01*
X38031Y-40635D01*
X38074Y-40621D01*
X38102Y-40621D01*
X38145Y-40635D01*
X38160Y-40650D01*
X38274Y-40650D02*
X38288Y-40635D01*
X38317Y-40621D01*
X38388Y-40621D01*
X38417Y-40635D01*
X38431Y-40650D01*
X38445Y-40678D01*
X38445Y-40707D01*
X38431Y-40750D01*
X38260Y-40921D01*
X38445Y-40921D01*
X37650Y-43221D02*
X37650Y-42921D01*
X37764Y-42921D01*
X37792Y-42935D01*
X37807Y-42950D01*
X37821Y-42978D01*
X37821Y-43021D01*
X37807Y-43050D01*
X37792Y-43064D01*
X37764Y-43078D01*
X37650Y-43078D01*
X37935Y-43135D02*
X38078Y-43135D01*
X37907Y-43221D02*
X38007Y-42921D01*
X38107Y-43221D01*
X38192Y-42950D02*
X38207Y-42935D01*
X38235Y-42921D01*
X38307Y-42921D01*
X38335Y-42935D01*
X38350Y-42950D01*
X38364Y-42978D01*
X38364Y-43007D01*
X38350Y-43050D01*
X38178Y-43221D01*
X38364Y-43221D01*
X37628Y-47921D02*
X37628Y-47621D01*
X37742Y-47621D01*
X37771Y-47635D01*
X37785Y-47650D01*
X37800Y-47678D01*
X37800Y-47721D01*
X37785Y-47750D01*
X37771Y-47764D01*
X37742Y-47778D01*
X37628Y-47778D01*
X38028Y-47764D02*
X38071Y-47778D01*
X38085Y-47792D01*
X38100Y-47821D01*
X38100Y-47864D01*
X38085Y-47892D01*
X38071Y-47907D01*
X38042Y-47921D01*
X37928Y-47921D01*
X37928Y-47621D01*
X38028Y-47621D01*
X38057Y-47635D01*
X38071Y-47650D01*
X38085Y-47678D01*
X38085Y-47707D01*
X38071Y-47735D01*
X38057Y-47750D01*
X38028Y-47764D01*
X37928Y-47764D01*
X38214Y-47650D02*
X38228Y-47635D01*
X38257Y-47621D01*
X38328Y-47621D01*
X38357Y-47635D01*
X38371Y-47650D01*
X38385Y-47678D01*
X38385Y-47707D01*
X38371Y-47750D01*
X38200Y-47921D01*
X38385Y-47921D01*
X34628Y-46921D02*
X34628Y-46621D01*
X34742Y-46621D01*
X34771Y-46635D01*
X34785Y-46650D01*
X34800Y-46678D01*
X34800Y-46721D01*
X34785Y-46750D01*
X34771Y-46764D01*
X34742Y-46778D01*
X34628Y-46778D01*
X35028Y-46764D02*
X35071Y-46778D01*
X35085Y-46792D01*
X35100Y-46821D01*
X35100Y-46864D01*
X35085Y-46892D01*
X35071Y-46907D01*
X35042Y-46921D01*
X34928Y-46921D01*
X34928Y-46621D01*
X35028Y-46621D01*
X35057Y-46635D01*
X35071Y-46650D01*
X35085Y-46678D01*
X35085Y-46707D01*
X35071Y-46735D01*
X35057Y-46750D01*
X35028Y-46764D01*
X34928Y-46764D01*
X35385Y-46921D02*
X35214Y-46921D01*
X35300Y-46921D02*
X35300Y-46621D01*
X35271Y-46664D01*
X35242Y-46692D01*
X35214Y-46707D01*
X38614Y-33121D02*
X38614Y-33335D01*
X38600Y-33378D01*
X38571Y-33407D01*
X38528Y-33421D01*
X38500Y-33421D01*
X38714Y-33121D02*
X38885Y-33121D01*
X38800Y-33421D02*
X38800Y-33121D01*
X38985Y-33421D02*
X38985Y-33121D01*
X39085Y-33335D01*
X39185Y-33121D01*
X39185Y-33421D01*
X39314Y-33407D02*
X39357Y-33421D01*
X39428Y-33421D01*
X39457Y-33407D01*
X39471Y-33392D01*
X39485Y-33364D01*
X39485Y-33335D01*
X39471Y-33307D01*
X39457Y-33292D01*
X39428Y-33278D01*
X39371Y-33264D01*
X39342Y-33250D01*
X39328Y-33235D01*
X39314Y-33207D01*
X39314Y-33178D01*
X39328Y-33150D01*
X39342Y-33135D01*
X39371Y-33121D01*
X39442Y-33121D01*
X39485Y-33135D01*
X36628Y-33181D02*
X36628Y-33395D01*
X36614Y-33438D01*
X36585Y-33467D01*
X36542Y-33481D01*
X36514Y-33481D01*
X36728Y-33181D02*
X36900Y-33181D01*
X36814Y-33481D02*
X36814Y-33181D01*
X37171Y-33452D02*
X37157Y-33467D01*
X37114Y-33481D01*
X37085Y-33481D01*
X37042Y-33467D01*
X37014Y-33438D01*
X37000Y-33410D01*
X36985Y-33352D01*
X36985Y-33310D01*
X37000Y-33252D01*
X37014Y-33224D01*
X37042Y-33195D01*
X37085Y-33181D01*
X37114Y-33181D01*
X37157Y-33195D01*
X37171Y-33210D01*
X37300Y-33481D02*
X37300Y-33181D01*
X37471Y-33481D02*
X37342Y-33310D01*
X37471Y-33181D02*
X37300Y-33352D01*
X35600Y-34921D02*
X35700Y-35221D01*
X35800Y-34921D01*
X35900Y-35221D02*
X35900Y-34921D01*
X35971Y-34921D01*
X36014Y-34935D01*
X36042Y-34964D01*
X36057Y-34992D01*
X36071Y-35050D01*
X36071Y-35092D01*
X36057Y-35150D01*
X36042Y-35178D01*
X36014Y-35207D01*
X35971Y-35221D01*
X35900Y-35221D01*
X36200Y-35221D02*
X36200Y-34921D01*
X36271Y-34921D01*
X36314Y-34935D01*
X36342Y-34964D01*
X36357Y-34992D01*
X36371Y-35050D01*
X36371Y-35092D01*
X36357Y-35150D01*
X36342Y-35178D01*
X36314Y-35207D01*
X36271Y-35221D01*
X36200Y-35221D01*
X34492Y-34307D02*
X34535Y-34321D01*
X34607Y-34321D01*
X34635Y-34307D01*
X34650Y-34292D01*
X34664Y-34264D01*
X34664Y-34235D01*
X34650Y-34207D01*
X34635Y-34192D01*
X34607Y-34178D01*
X34550Y-34164D01*
X34521Y-34150D01*
X34507Y-34135D01*
X34492Y-34107D01*
X34492Y-34078D01*
X34507Y-34050D01*
X34521Y-34035D01*
X34550Y-34021D01*
X34621Y-34021D01*
X34664Y-34035D01*
X34764Y-34021D02*
X34835Y-34321D01*
X34892Y-34107D01*
X34950Y-34321D01*
X35021Y-34021D01*
X35135Y-34321D02*
X35135Y-34021D01*
X35207Y-34021D01*
X35250Y-34035D01*
X35278Y-34064D01*
X35292Y-34092D01*
X35307Y-34150D01*
X35307Y-34192D01*
X35292Y-34250D01*
X35278Y-34278D01*
X35250Y-34307D01*
X35207Y-34321D01*
X35135Y-34321D01*
X52100Y-40321D02*
X52200Y-40621D01*
X52300Y-40321D01*
X52400Y-40621D02*
X52400Y-40321D01*
X52471Y-40321D01*
X52514Y-40335D01*
X52542Y-40364D01*
X52557Y-40392D01*
X52571Y-40450D01*
X52571Y-40492D01*
X52557Y-40550D01*
X52542Y-40578D01*
X52514Y-40607D01*
X52471Y-40621D01*
X52400Y-40621D01*
X52700Y-40621D02*
X52700Y-40321D01*
X52771Y-40321D01*
X52814Y-40335D01*
X52842Y-40364D01*
X52857Y-40392D01*
X52871Y-40450D01*
X52871Y-40492D01*
X52857Y-40550D01*
X52842Y-40578D01*
X52814Y-40607D01*
X52771Y-40621D01*
X52700Y-40621D01*
X49278Y-39564D02*
X49321Y-39578D01*
X49335Y-39592D01*
X49350Y-39621D01*
X49350Y-39664D01*
X49335Y-39692D01*
X49321Y-39707D01*
X49292Y-39721D01*
X49178Y-39721D01*
X49178Y-39421D01*
X49278Y-39421D01*
X49307Y-39435D01*
X49321Y-39450D01*
X49335Y-39478D01*
X49335Y-39507D01*
X49321Y-39535D01*
X49307Y-39550D01*
X49278Y-39564D01*
X49178Y-39564D01*
X49464Y-39635D02*
X49607Y-39635D01*
X49435Y-39721D02*
X49535Y-39421D01*
X49635Y-39721D01*
X49692Y-39421D02*
X49864Y-39421D01*
X49778Y-39721D02*
X49778Y-39421D01*
X40585Y-33407D02*
X40628Y-33421D01*
X40700Y-33421D01*
X40728Y-33407D01*
X40742Y-33392D01*
X40757Y-33364D01*
X40757Y-33335D01*
X40742Y-33307D01*
X40728Y-33292D01*
X40700Y-33278D01*
X40642Y-33264D01*
X40614Y-33250D01*
X40600Y-33235D01*
X40585Y-33207D01*
X40585Y-33178D01*
X40600Y-33150D01*
X40614Y-33135D01*
X40642Y-33121D01*
X40714Y-33121D01*
X40757Y-33135D01*
X40857Y-33121D02*
X40928Y-33421D01*
X40985Y-33207D01*
X41042Y-33421D01*
X41114Y-33121D01*
X41285Y-33121D02*
X41342Y-33121D01*
X41371Y-33135D01*
X41400Y-33164D01*
X41414Y-33221D01*
X41414Y-33321D01*
X41400Y-33378D01*
X41371Y-33407D01*
X41342Y-33421D01*
X41285Y-33421D01*
X41257Y-33407D01*
X41228Y-33378D01*
X41214Y-33321D01*
X41214Y-33221D01*
X41228Y-33164D01*
X41257Y-33135D01*
X41285Y-33121D01*
X39507Y-35121D02*
X39507Y-34821D01*
X39678Y-35121D01*
X39678Y-34821D01*
X39992Y-35121D02*
X39892Y-34978D01*
X39821Y-35121D02*
X39821Y-34821D01*
X39935Y-34821D01*
X39964Y-34835D01*
X39978Y-34850D01*
X39992Y-34878D01*
X39992Y-34921D01*
X39978Y-34950D01*
X39964Y-34964D01*
X39935Y-34978D01*
X39821Y-34978D01*
X40107Y-35107D02*
X40150Y-35121D01*
X40221Y-35121D01*
X40250Y-35107D01*
X40264Y-35092D01*
X40278Y-35064D01*
X40278Y-35035D01*
X40264Y-35007D01*
X40250Y-34992D01*
X40221Y-34978D01*
X40164Y-34964D01*
X40135Y-34950D01*
X40121Y-34935D01*
X40107Y-34907D01*
X40107Y-34878D01*
X40121Y-34850D01*
X40135Y-34835D01*
X40164Y-34821D01*
X40235Y-34821D01*
X40278Y-34835D01*
X40364Y-34821D02*
X40535Y-34821D01*
X40450Y-35121D02*
X40450Y-34821D01*
X38614Y-33121D02*
X38614Y-33335D01*
X38600Y-33378D01*
X38571Y-33407D01*
X38528Y-33421D01*
X38500Y-33421D01*
X38714Y-33121D02*
X38885Y-33121D01*
X38800Y-33421D02*
X38800Y-33121D01*
X38985Y-33421D02*
X38985Y-33121D01*
X39085Y-33335D01*
X39185Y-33121D01*
X39185Y-33421D01*
X39314Y-33407D02*
X39357Y-33421D01*
X39428Y-33421D01*
X39457Y-33407D01*
X39471Y-33392D01*
X39485Y-33364D01*
X39485Y-33335D01*
X39471Y-33307D01*
X39457Y-33292D01*
X39428Y-33278D01*
X39371Y-33264D01*
X39342Y-33250D01*
X39328Y-33235D01*
X39314Y-33207D01*
X39314Y-33178D01*
X39328Y-33150D01*
X39342Y-33135D01*
X39371Y-33121D01*
X39442Y-33121D01*
X39485Y-33135D01*
X36628Y-33171D02*
X36628Y-33385D01*
X36614Y-33428D01*
X36585Y-33457D01*
X36542Y-33471D01*
X36514Y-33471D01*
X36728Y-33171D02*
X36900Y-33171D01*
X36814Y-33471D02*
X36814Y-33171D01*
X37171Y-33442D02*
X37157Y-33457D01*
X37114Y-33471D01*
X37085Y-33471D01*
X37042Y-33457D01*
X37014Y-33428D01*
X37000Y-33400D01*
X36985Y-33342D01*
X36985Y-33300D01*
X37000Y-33242D01*
X37014Y-33214D01*
X37042Y-33185D01*
X37085Y-33171D01*
X37114Y-33171D01*
X37157Y-33185D01*
X37171Y-33200D01*
X37300Y-33471D02*
X37300Y-33171D01*
X37471Y-33471D02*
X37342Y-33300D01*
X37471Y-33171D02*
X37300Y-33342D01*
X35600Y-34921D02*
X35700Y-35221D01*
X35800Y-34921D01*
X35900Y-35221D02*
X35900Y-34921D01*
X35971Y-34921D01*
X36014Y-34935D01*
X36042Y-34964D01*
X36057Y-34992D01*
X36071Y-35050D01*
X36071Y-35092D01*
X36057Y-35150D01*
X36042Y-35178D01*
X36014Y-35207D01*
X35971Y-35221D01*
X35900Y-35221D01*
X36200Y-35221D02*
X36200Y-34921D01*
X36271Y-34921D01*
X36314Y-34935D01*
X36342Y-34964D01*
X36357Y-34992D01*
X36371Y-35050D01*
X36371Y-35092D01*
X36357Y-35150D01*
X36342Y-35178D01*
X36314Y-35207D01*
X36271Y-35221D01*
X36200Y-35221D01*
X34492Y-34307D02*
X34535Y-34321D01*
X34607Y-34321D01*
X34635Y-34307D01*
X34650Y-34292D01*
X34664Y-34264D01*
X34664Y-34235D01*
X34650Y-34207D01*
X34635Y-34192D01*
X34607Y-34178D01*
X34550Y-34164D01*
X34521Y-34150D01*
X34507Y-34135D01*
X34492Y-34107D01*
X34492Y-34078D01*
X34507Y-34050D01*
X34521Y-34035D01*
X34550Y-34021D01*
X34621Y-34021D01*
X34664Y-34035D01*
X34764Y-34021D02*
X34835Y-34321D01*
X34892Y-34107D01*
X34950Y-34321D01*
X35021Y-34021D01*
X35135Y-34321D02*
X35135Y-34021D01*
X35207Y-34021D01*
X35250Y-34035D01*
X35278Y-34064D01*
X35292Y-34092D01*
X35307Y-34150D01*
X35307Y-34192D01*
X35292Y-34250D01*
X35278Y-34278D01*
X35250Y-34307D01*
X35207Y-34321D01*
X35135Y-34321D01*
X37771Y-34935D02*
X37742Y-34921D01*
X37700Y-34921D01*
X37657Y-34935D01*
X37628Y-34964D01*
X37614Y-34992D01*
X37600Y-35050D01*
X37600Y-35092D01*
X37614Y-35150D01*
X37628Y-35178D01*
X37657Y-35207D01*
X37700Y-35221D01*
X37728Y-35221D01*
X37771Y-35207D01*
X37785Y-35192D01*
X37785Y-35092D01*
X37728Y-35092D01*
X37914Y-35221D02*
X37914Y-34921D01*
X38085Y-35221D01*
X38085Y-34921D01*
X38228Y-35221D02*
X38228Y-34921D01*
X38300Y-34921D01*
X38342Y-34935D01*
X38371Y-34964D01*
X38385Y-34992D01*
X38400Y-35050D01*
X38400Y-35092D01*
X38385Y-35150D01*
X38371Y-35178D01*
X38342Y-35207D01*
X38300Y-35221D01*
X38228Y-35221D01*
G54D13*
X42976Y-60811D02*
X42985Y-60782D01*
X42995Y-60773D01*
X43014Y-60764D01*
X43042Y-60764D01*
X43060Y-60773D01*
X43070Y-60782D01*
X43079Y-60801D01*
X43079Y-60876D01*
X42882Y-60876D01*
X42882Y-60811D01*
X42892Y-60792D01*
X42901Y-60782D01*
X42920Y-60773D01*
X42939Y-60773D01*
X42957Y-60782D01*
X42967Y-60792D01*
X42976Y-60811D01*
X42976Y-60876D01*
X43079Y-60651D02*
X43070Y-60670D01*
X43051Y-60679D01*
X42882Y-60679D01*
X42948Y-60492D02*
X43079Y-60492D01*
X42948Y-60576D02*
X43051Y-60576D01*
X43070Y-60567D01*
X43079Y-60548D01*
X43079Y-60520D01*
X43070Y-60501D01*
X43060Y-60492D01*
X43070Y-60323D02*
X43079Y-60342D01*
X43079Y-60379D01*
X43070Y-60398D01*
X43051Y-60407D01*
X42976Y-60407D01*
X42957Y-60398D01*
X42948Y-60379D01*
X42948Y-60342D01*
X42957Y-60323D01*
X42976Y-60313D01*
X42995Y-60313D01*
X43014Y-60407D01*
X41879Y-60712D02*
X41785Y-60778D01*
X41879Y-60825D02*
X41682Y-60825D01*
X41682Y-60750D01*
X41692Y-60731D01*
X41701Y-60721D01*
X41720Y-60712D01*
X41748Y-60712D01*
X41767Y-60721D01*
X41776Y-60731D01*
X41785Y-60750D01*
X41785Y-60825D01*
X41870Y-60553D02*
X41879Y-60571D01*
X41879Y-60609D01*
X41870Y-60628D01*
X41851Y-60637D01*
X41776Y-60637D01*
X41757Y-60628D01*
X41748Y-60609D01*
X41748Y-60571D01*
X41757Y-60553D01*
X41776Y-60543D01*
X41795Y-60543D01*
X41814Y-60637D01*
X41879Y-60374D02*
X41682Y-60374D01*
X41870Y-60374D02*
X41879Y-60393D01*
X41879Y-60431D01*
X41870Y-60449D01*
X41860Y-60459D01*
X41842Y-60468D01*
X41785Y-60468D01*
X41767Y-60459D01*
X41757Y-60449D01*
X41748Y-60431D01*
X41748Y-60393D01*
X41757Y-60374D01*
X40482Y-61031D02*
X40482Y-60994D01*
X40492Y-60975D01*
X40510Y-60956D01*
X40548Y-60947D01*
X40614Y-60947D01*
X40651Y-60956D01*
X40670Y-60975D01*
X40679Y-60994D01*
X40679Y-61031D01*
X40670Y-61050D01*
X40651Y-61069D01*
X40614Y-61078D01*
X40548Y-61078D01*
X40510Y-61069D01*
X40492Y-61050D01*
X40482Y-61031D01*
X40679Y-60862D02*
X40548Y-60862D01*
X40585Y-60862D02*
X40567Y-60853D01*
X40557Y-60843D01*
X40548Y-60825D01*
X40548Y-60806D01*
X40679Y-60656D02*
X40576Y-60656D01*
X40557Y-60665D01*
X40548Y-60684D01*
X40548Y-60721D01*
X40557Y-60740D01*
X40670Y-60656D02*
X40679Y-60675D01*
X40679Y-60721D01*
X40670Y-60740D01*
X40651Y-60750D01*
X40632Y-60750D01*
X40614Y-60740D01*
X40604Y-60721D01*
X40604Y-60675D01*
X40595Y-60656D01*
X40548Y-60562D02*
X40679Y-60562D01*
X40567Y-60562D02*
X40557Y-60553D01*
X40548Y-60534D01*
X40548Y-60506D01*
X40557Y-60487D01*
X40576Y-60478D01*
X40679Y-60478D01*
X40548Y-60299D02*
X40707Y-60299D01*
X40726Y-60309D01*
X40736Y-60318D01*
X40745Y-60337D01*
X40745Y-60365D01*
X40736Y-60384D01*
X40670Y-60299D02*
X40679Y-60318D01*
X40679Y-60356D01*
X40670Y-60374D01*
X40660Y-60384D01*
X40642Y-60393D01*
X40585Y-60393D01*
X40567Y-60384D01*
X40557Y-60374D01*
X40548Y-60356D01*
X40548Y-60318D01*
X40557Y-60299D01*
X40670Y-60130D02*
X40679Y-60149D01*
X40679Y-60187D01*
X40670Y-60205D01*
X40651Y-60215D01*
X40576Y-60215D01*
X40557Y-60205D01*
X40548Y-60187D01*
X40548Y-60149D01*
X40557Y-60130D01*
X40576Y-60121D01*
X40595Y-60121D01*
X40614Y-60215D01*
X39292Y-60867D02*
X39282Y-60886D01*
X39282Y-60914D01*
X39292Y-60942D01*
X39310Y-60961D01*
X39329Y-60970D01*
X39367Y-60979D01*
X39395Y-60979D01*
X39432Y-60970D01*
X39451Y-60961D01*
X39470Y-60942D01*
X39479Y-60914D01*
X39479Y-60895D01*
X39470Y-60867D01*
X39460Y-60857D01*
X39395Y-60857D01*
X39395Y-60895D01*
X39479Y-60773D02*
X39348Y-60773D01*
X39385Y-60773D02*
X39367Y-60764D01*
X39357Y-60754D01*
X39348Y-60736D01*
X39348Y-60717D01*
X39470Y-60576D02*
X39479Y-60595D01*
X39479Y-60632D01*
X39470Y-60651D01*
X39451Y-60660D01*
X39376Y-60660D01*
X39357Y-60651D01*
X39348Y-60632D01*
X39348Y-60595D01*
X39357Y-60576D01*
X39376Y-60567D01*
X39395Y-60567D01*
X39414Y-60660D01*
X39470Y-60407D02*
X39479Y-60426D01*
X39479Y-60463D01*
X39470Y-60482D01*
X39451Y-60492D01*
X39376Y-60492D01*
X39357Y-60482D01*
X39348Y-60463D01*
X39348Y-60426D01*
X39357Y-60407D01*
X39376Y-60398D01*
X39395Y-60398D01*
X39414Y-60492D01*
X39348Y-60313D02*
X39479Y-60313D01*
X39367Y-60313D02*
X39357Y-60304D01*
X39348Y-60285D01*
X39348Y-60257D01*
X39357Y-60238D01*
X39376Y-60229D01*
X39479Y-60229D01*
G54D12*
X34578Y-40921D02*
X34578Y-40621D01*
X34692Y-40621D01*
X34721Y-40635D01*
X34735Y-40650D01*
X34750Y-40678D01*
X34750Y-40721D01*
X34735Y-40750D01*
X34721Y-40764D01*
X34692Y-40778D01*
X34578Y-40778D01*
X35050Y-40892D02*
X35035Y-40907D01*
X34992Y-40921D01*
X34964Y-40921D01*
X34921Y-40907D01*
X34892Y-40878D01*
X34878Y-40850D01*
X34864Y-40792D01*
X34864Y-40750D01*
X34878Y-40692D01*
X34892Y-40664D01*
X34921Y-40635D01*
X34964Y-40621D01*
X34992Y-40621D01*
X35035Y-40635D01*
X35050Y-40650D01*
X35150Y-40621D02*
X35335Y-40621D01*
X35235Y-40735D01*
X35278Y-40735D01*
X35307Y-40750D01*
X35321Y-40764D01*
X35335Y-40792D01*
X35335Y-40864D01*
X35321Y-40892D01*
X35307Y-40907D01*
X35278Y-40921D01*
X35192Y-40921D01*
X35164Y-40907D01*
X35150Y-40892D01*
X34721Y-36635D02*
X34692Y-36621D01*
X34650Y-36621D01*
X34607Y-36635D01*
X34578Y-36664D01*
X34564Y-36692D01*
X34550Y-36750D01*
X34550Y-36792D01*
X34564Y-36850D01*
X34578Y-36878D01*
X34607Y-36907D01*
X34650Y-36921D01*
X34678Y-36921D01*
X34721Y-36907D01*
X34735Y-36892D01*
X34735Y-36792D01*
X34678Y-36792D01*
X34864Y-36921D02*
X34864Y-36621D01*
X35035Y-36921D01*
X35035Y-36621D01*
X35178Y-36921D02*
X35178Y-36621D01*
X35250Y-36621D01*
X35292Y-36635D01*
X35321Y-36664D01*
X35335Y-36692D01*
X35350Y-36750D01*
X35350Y-36792D01*
X35335Y-36850D01*
X35321Y-36878D01*
X35292Y-36907D01*
X35250Y-36921D01*
X35178Y-36921D01*
X34628Y-39921D02*
X34628Y-39621D01*
X34742Y-39621D01*
X34771Y-39635D01*
X34785Y-39650D01*
X34800Y-39678D01*
X34800Y-39721D01*
X34785Y-39750D01*
X34771Y-39764D01*
X34742Y-39778D01*
X34628Y-39778D01*
X35100Y-39892D02*
X35085Y-39907D01*
X35042Y-39921D01*
X35014Y-39921D01*
X34971Y-39907D01*
X34942Y-39878D01*
X34928Y-39850D01*
X34914Y-39792D01*
X34914Y-39750D01*
X34928Y-39692D01*
X34942Y-39664D01*
X34971Y-39635D01*
X35014Y-39621D01*
X35042Y-39621D01*
X35085Y-39635D01*
X35100Y-39650D01*
X35385Y-39921D02*
X35214Y-39921D01*
X35300Y-39921D02*
X35300Y-39621D01*
X35271Y-39664D01*
X35242Y-39692D01*
X35214Y-39707D01*
X34650Y-41921D02*
X34650Y-41621D01*
X34764Y-41621D01*
X34792Y-41635D01*
X34807Y-41650D01*
X34821Y-41678D01*
X34821Y-41721D01*
X34807Y-41750D01*
X34792Y-41764D01*
X34764Y-41778D01*
X34650Y-41778D01*
X34935Y-41835D02*
X35078Y-41835D01*
X34907Y-41921D02*
X35007Y-41621D01*
X35107Y-41921D01*
X35364Y-41921D02*
X35192Y-41921D01*
X35278Y-41921D02*
X35278Y-41621D01*
X35250Y-41664D01*
X35221Y-41692D01*
X35192Y-41707D01*
X34650Y-42921D02*
X34650Y-42621D01*
X34764Y-42621D01*
X34792Y-42635D01*
X34807Y-42650D01*
X34821Y-42678D01*
X34821Y-42721D01*
X34807Y-42750D01*
X34792Y-42764D01*
X34764Y-42778D01*
X34650Y-42778D01*
X34935Y-42835D02*
X35078Y-42835D01*
X34907Y-42921D02*
X35007Y-42621D01*
X35107Y-42921D01*
X35178Y-42621D02*
X35364Y-42621D01*
X35264Y-42735D01*
X35307Y-42735D01*
X35335Y-42750D01*
X35350Y-42764D01*
X35364Y-42792D01*
X35364Y-42864D01*
X35350Y-42892D01*
X35335Y-42907D01*
X35307Y-42921D01*
X35221Y-42921D01*
X35192Y-42907D01*
X35178Y-42892D01*
X34650Y-43921D02*
X34650Y-43621D01*
X34764Y-43621D01*
X34792Y-43635D01*
X34807Y-43650D01*
X34821Y-43678D01*
X34821Y-43721D01*
X34807Y-43750D01*
X34792Y-43764D01*
X34764Y-43778D01*
X34650Y-43778D01*
X34935Y-43835D02*
X35078Y-43835D01*
X34907Y-43921D02*
X35007Y-43621D01*
X35107Y-43921D01*
X35350Y-43621D02*
X35207Y-43621D01*
X35192Y-43764D01*
X35207Y-43750D01*
X35235Y-43735D01*
X35307Y-43735D01*
X35335Y-43750D01*
X35350Y-43764D01*
X35364Y-43792D01*
X35364Y-43864D01*
X35350Y-43892D01*
X35335Y-43907D01*
X35307Y-43921D01*
X35235Y-43921D01*
X35207Y-43907D01*
X35192Y-43892D01*
X34650Y-44921D02*
X34650Y-44621D01*
X34764Y-44621D01*
X34792Y-44635D01*
X34807Y-44650D01*
X34821Y-44678D01*
X34821Y-44721D01*
X34807Y-44750D01*
X34792Y-44764D01*
X34764Y-44778D01*
X34650Y-44778D01*
X34935Y-44835D02*
X35078Y-44835D01*
X34907Y-44921D02*
X35007Y-44621D01*
X35107Y-44921D01*
X35178Y-44621D02*
X35378Y-44621D01*
X35250Y-44921D01*
X34628Y-45921D02*
X34628Y-45621D01*
X34742Y-45621D01*
X34771Y-45635D01*
X34785Y-45650D01*
X34800Y-45678D01*
X34800Y-45721D01*
X34785Y-45750D01*
X34771Y-45764D01*
X34742Y-45778D01*
X34628Y-45778D01*
X35100Y-45892D02*
X35085Y-45907D01*
X35042Y-45921D01*
X35014Y-45921D01*
X34971Y-45907D01*
X34942Y-45878D01*
X34928Y-45850D01*
X34914Y-45792D01*
X34914Y-45750D01*
X34928Y-45692D01*
X34942Y-45664D01*
X34971Y-45635D01*
X35014Y-45621D01*
X35042Y-45621D01*
X35085Y-45635D01*
X35100Y-45650D01*
X35371Y-45621D02*
X35228Y-45621D01*
X35214Y-45764D01*
X35228Y-45750D01*
X35257Y-45735D01*
X35328Y-45735D01*
X35357Y-45750D01*
X35371Y-45764D01*
X35385Y-45792D01*
X35385Y-45864D01*
X35371Y-45892D01*
X35357Y-45907D01*
X35328Y-45921D01*
X35257Y-45921D01*
X35228Y-45907D01*
X35214Y-45892D01*
X34771Y-47635D02*
X34742Y-47621D01*
X34700Y-47621D01*
X34657Y-47635D01*
X34628Y-47664D01*
X34614Y-47692D01*
X34600Y-47750D01*
X34600Y-47792D01*
X34614Y-47850D01*
X34628Y-47878D01*
X34657Y-47907D01*
X34700Y-47921D01*
X34728Y-47921D01*
X34771Y-47907D01*
X34785Y-47892D01*
X34785Y-47792D01*
X34728Y-47792D01*
X34914Y-47921D02*
X34914Y-47621D01*
X35085Y-47921D01*
X35085Y-47621D01*
X35228Y-47921D02*
X35228Y-47621D01*
X35300Y-47621D01*
X35342Y-47635D01*
X35371Y-47664D01*
X35385Y-47692D01*
X35400Y-47750D01*
X35400Y-47792D01*
X35385Y-47850D01*
X35371Y-47878D01*
X35342Y-47907D01*
X35300Y-47921D01*
X35228Y-47921D01*
X34642Y-48921D02*
X34642Y-48621D01*
X34757Y-48621D01*
X34785Y-48635D01*
X34800Y-48650D01*
X34814Y-48678D01*
X34814Y-48721D01*
X34800Y-48750D01*
X34785Y-48764D01*
X34757Y-48778D01*
X34642Y-48778D01*
X34942Y-48764D02*
X35042Y-48764D01*
X35085Y-48921D02*
X34942Y-48921D01*
X34942Y-48621D01*
X35085Y-48621D01*
X35185Y-48621D02*
X35385Y-48621D01*
X35257Y-48921D01*
X34642Y-49921D02*
X34642Y-49621D01*
X34757Y-49621D01*
X34785Y-49635D01*
X34800Y-49650D01*
X34814Y-49678D01*
X34814Y-49721D01*
X34800Y-49750D01*
X34785Y-49764D01*
X34757Y-49778D01*
X34642Y-49778D01*
X34942Y-49764D02*
X35042Y-49764D01*
X35085Y-49921D02*
X34942Y-49921D01*
X34942Y-49621D01*
X35085Y-49621D01*
X35228Y-49921D02*
X35285Y-49921D01*
X35314Y-49907D01*
X35328Y-49892D01*
X35357Y-49850D01*
X35371Y-49792D01*
X35371Y-49678D01*
X35357Y-49650D01*
X35342Y-49635D01*
X35314Y-49621D01*
X35257Y-49621D01*
X35228Y-49635D01*
X35214Y-49650D01*
X35200Y-49678D01*
X35200Y-49750D01*
X35214Y-49778D01*
X35228Y-49792D01*
X35257Y-49807D01*
X35314Y-49807D01*
X35342Y-49792D01*
X35357Y-49778D01*
X35371Y-49750D01*
X34400Y-50921D02*
X34400Y-50621D01*
X34514Y-50621D01*
X34542Y-50635D01*
X34557Y-50650D01*
X34571Y-50678D01*
X34571Y-50721D01*
X34557Y-50750D01*
X34542Y-50764D01*
X34514Y-50778D01*
X34400Y-50778D01*
X34700Y-50764D02*
X34800Y-50764D01*
X34842Y-50921D02*
X34700Y-50921D01*
X34700Y-50621D01*
X34842Y-50621D01*
X35128Y-50921D02*
X34957Y-50921D01*
X35042Y-50921D02*
X35042Y-50621D01*
X35014Y-50664D01*
X34985Y-50692D01*
X34957Y-50707D01*
X35414Y-50921D02*
X35242Y-50921D01*
X35328Y-50921D02*
X35328Y-50621D01*
X35300Y-50664D01*
X35271Y-50692D01*
X35242Y-50707D01*
X34350Y-51921D02*
X34350Y-51621D01*
X34464Y-51621D01*
X34492Y-51635D01*
X34507Y-51650D01*
X34521Y-51678D01*
X34521Y-51721D01*
X34507Y-51750D01*
X34492Y-51764D01*
X34464Y-51778D01*
X34350Y-51778D01*
X34650Y-51764D02*
X34750Y-51764D01*
X34792Y-51921D02*
X34650Y-51921D01*
X34650Y-51621D01*
X34792Y-51621D01*
X35078Y-51921D02*
X34907Y-51921D01*
X34992Y-51921D02*
X34992Y-51621D01*
X34964Y-51664D01*
X34935Y-51692D01*
X34907Y-51707D01*
X35178Y-51621D02*
X35364Y-51621D01*
X35264Y-51735D01*
X35307Y-51735D01*
X35335Y-51750D01*
X35350Y-51764D01*
X35364Y-51792D01*
X35364Y-51864D01*
X35350Y-51892D01*
X35335Y-51907D01*
X35307Y-51921D01*
X35221Y-51921D01*
X35192Y-51907D01*
X35178Y-51892D01*
X34350Y-52921D02*
X34350Y-52621D01*
X34464Y-52621D01*
X34492Y-52635D01*
X34507Y-52650D01*
X34521Y-52678D01*
X34521Y-52721D01*
X34507Y-52750D01*
X34492Y-52764D01*
X34464Y-52778D01*
X34350Y-52778D01*
X34650Y-52764D02*
X34750Y-52764D01*
X34792Y-52921D02*
X34650Y-52921D01*
X34650Y-52621D01*
X34792Y-52621D01*
X35078Y-52921D02*
X34907Y-52921D01*
X34992Y-52921D02*
X34992Y-52621D01*
X34964Y-52664D01*
X34935Y-52692D01*
X34907Y-52707D01*
X35350Y-52621D02*
X35207Y-52621D01*
X35192Y-52764D01*
X35207Y-52750D01*
X35235Y-52735D01*
X35307Y-52735D01*
X35335Y-52750D01*
X35350Y-52764D01*
X35364Y-52792D01*
X35364Y-52864D01*
X35350Y-52892D01*
X35335Y-52907D01*
X35307Y-52921D01*
X35235Y-52921D01*
X35207Y-52907D01*
X35192Y-52892D01*
X34335Y-53921D02*
X34335Y-53621D01*
X34450Y-53621D01*
X34478Y-53635D01*
X34492Y-53650D01*
X34507Y-53678D01*
X34507Y-53721D01*
X34492Y-53750D01*
X34478Y-53764D01*
X34450Y-53778D01*
X34335Y-53778D01*
X34735Y-53764D02*
X34778Y-53778D01*
X34792Y-53792D01*
X34807Y-53821D01*
X34807Y-53864D01*
X34792Y-53892D01*
X34778Y-53907D01*
X34750Y-53921D01*
X34635Y-53921D01*
X34635Y-53621D01*
X34735Y-53621D01*
X34764Y-53635D01*
X34778Y-53650D01*
X34792Y-53678D01*
X34792Y-53707D01*
X34778Y-53735D01*
X34764Y-53750D01*
X34735Y-53764D01*
X34635Y-53764D01*
X35092Y-53921D02*
X34921Y-53921D01*
X35007Y-53921D02*
X35007Y-53621D01*
X34978Y-53664D01*
X34950Y-53692D01*
X34921Y-53707D01*
X35378Y-53921D02*
X35207Y-53921D01*
X35292Y-53921D02*
X35292Y-53621D01*
X35264Y-53664D01*
X35235Y-53692D01*
X35207Y-53707D01*
X34335Y-54921D02*
X34335Y-54621D01*
X34450Y-54621D01*
X34478Y-54635D01*
X34492Y-54650D01*
X34507Y-54678D01*
X34507Y-54721D01*
X34492Y-54750D01*
X34478Y-54764D01*
X34450Y-54778D01*
X34335Y-54778D01*
X34735Y-54764D02*
X34778Y-54778D01*
X34792Y-54792D01*
X34807Y-54821D01*
X34807Y-54864D01*
X34792Y-54892D01*
X34778Y-54907D01*
X34750Y-54921D01*
X34635Y-54921D01*
X34635Y-54621D01*
X34735Y-54621D01*
X34764Y-54635D01*
X34778Y-54650D01*
X34792Y-54678D01*
X34792Y-54707D01*
X34778Y-54735D01*
X34764Y-54750D01*
X34735Y-54764D01*
X34635Y-54764D01*
X35092Y-54921D02*
X34921Y-54921D01*
X35007Y-54921D02*
X35007Y-54621D01*
X34978Y-54664D01*
X34950Y-54692D01*
X34921Y-54707D01*
X35192Y-54621D02*
X35378Y-54621D01*
X35278Y-54735D01*
X35321Y-54735D01*
X35350Y-54750D01*
X35364Y-54764D01*
X35378Y-54792D01*
X35378Y-54864D01*
X35364Y-54892D01*
X35350Y-54907D01*
X35321Y-54921D01*
X35235Y-54921D01*
X35207Y-54907D01*
X35192Y-54892D01*
X34335Y-55921D02*
X34335Y-55621D01*
X34450Y-55621D01*
X34478Y-55635D01*
X34492Y-55650D01*
X34507Y-55678D01*
X34507Y-55721D01*
X34492Y-55750D01*
X34478Y-55764D01*
X34450Y-55778D01*
X34335Y-55778D01*
X34735Y-55764D02*
X34778Y-55778D01*
X34792Y-55792D01*
X34807Y-55821D01*
X34807Y-55864D01*
X34792Y-55892D01*
X34778Y-55907D01*
X34750Y-55921D01*
X34635Y-55921D01*
X34635Y-55621D01*
X34735Y-55621D01*
X34764Y-55635D01*
X34778Y-55650D01*
X34792Y-55678D01*
X34792Y-55707D01*
X34778Y-55735D01*
X34764Y-55750D01*
X34735Y-55764D01*
X34635Y-55764D01*
X35092Y-55921D02*
X34921Y-55921D01*
X35007Y-55921D02*
X35007Y-55621D01*
X34978Y-55664D01*
X34950Y-55692D01*
X34921Y-55707D01*
X35364Y-55621D02*
X35221Y-55621D01*
X35207Y-55764D01*
X35221Y-55750D01*
X35250Y-55735D01*
X35321Y-55735D01*
X35350Y-55750D01*
X35364Y-55764D01*
X35378Y-55792D01*
X35378Y-55864D01*
X35364Y-55892D01*
X35350Y-55907D01*
X35321Y-55921D01*
X35250Y-55921D01*
X35221Y-55907D01*
X35207Y-55892D01*
X34628Y-56921D02*
X34628Y-56621D01*
X34742Y-56621D01*
X34771Y-56635D01*
X34785Y-56650D01*
X34800Y-56678D01*
X34800Y-56721D01*
X34785Y-56750D01*
X34771Y-56764D01*
X34742Y-56778D01*
X34628Y-56778D01*
X34928Y-56921D02*
X34928Y-56621D01*
X35000Y-56621D01*
X35042Y-56635D01*
X35071Y-56664D01*
X35085Y-56692D01*
X35100Y-56750D01*
X35100Y-56792D01*
X35085Y-56850D01*
X35071Y-56878D01*
X35042Y-56907D01*
X35000Y-56921D01*
X34928Y-56921D01*
X35242Y-56921D02*
X35300Y-56921D01*
X35328Y-56907D01*
X35342Y-56892D01*
X35371Y-56850D01*
X35385Y-56792D01*
X35385Y-56678D01*
X35371Y-56650D01*
X35357Y-56635D01*
X35328Y-56621D01*
X35271Y-56621D01*
X35242Y-56635D01*
X35228Y-56650D01*
X35214Y-56678D01*
X35214Y-56750D01*
X35228Y-56778D01*
X35242Y-56792D01*
X35271Y-56807D01*
X35328Y-56807D01*
X35357Y-56792D01*
X35371Y-56778D01*
X35385Y-56750D01*
X34335Y-57921D02*
X34335Y-57621D01*
X34450Y-57621D01*
X34478Y-57635D01*
X34492Y-57650D01*
X34507Y-57678D01*
X34507Y-57721D01*
X34492Y-57750D01*
X34478Y-57764D01*
X34450Y-57778D01*
X34335Y-57778D01*
X34635Y-57921D02*
X34635Y-57621D01*
X34707Y-57621D01*
X34750Y-57635D01*
X34778Y-57664D01*
X34792Y-57692D01*
X34807Y-57750D01*
X34807Y-57792D01*
X34792Y-57850D01*
X34778Y-57878D01*
X34750Y-57907D01*
X34707Y-57921D01*
X34635Y-57921D01*
X35092Y-57921D02*
X34921Y-57921D01*
X35007Y-57921D02*
X35007Y-57621D01*
X34978Y-57664D01*
X34950Y-57692D01*
X34921Y-57707D01*
X35378Y-57921D02*
X35207Y-57921D01*
X35292Y-57921D02*
X35292Y-57621D01*
X35264Y-57664D01*
X35235Y-57692D01*
X35207Y-57707D01*
X34335Y-58921D02*
X34335Y-58621D01*
X34450Y-58621D01*
X34478Y-58635D01*
X34492Y-58650D01*
X34507Y-58678D01*
X34507Y-58721D01*
X34492Y-58750D01*
X34478Y-58764D01*
X34450Y-58778D01*
X34335Y-58778D01*
X34635Y-58921D02*
X34635Y-58621D01*
X34707Y-58621D01*
X34750Y-58635D01*
X34778Y-58664D01*
X34792Y-58692D01*
X34807Y-58750D01*
X34807Y-58792D01*
X34792Y-58850D01*
X34778Y-58878D01*
X34750Y-58907D01*
X34707Y-58921D01*
X34635Y-58921D01*
X35092Y-58921D02*
X34921Y-58921D01*
X35007Y-58921D02*
X35007Y-58621D01*
X34978Y-58664D01*
X34950Y-58692D01*
X34921Y-58707D01*
X35192Y-58621D02*
X35378Y-58621D01*
X35278Y-58735D01*
X35321Y-58735D01*
X35350Y-58750D01*
X35364Y-58764D01*
X35378Y-58792D01*
X35378Y-58864D01*
X35364Y-58892D01*
X35350Y-58907D01*
X35321Y-58921D01*
X35235Y-58921D01*
X35207Y-58907D01*
X35192Y-58892D01*
X34335Y-59921D02*
X34335Y-59621D01*
X34450Y-59621D01*
X34478Y-59635D01*
X34492Y-59650D01*
X34507Y-59678D01*
X34507Y-59721D01*
X34492Y-59750D01*
X34478Y-59764D01*
X34450Y-59778D01*
X34335Y-59778D01*
X34635Y-59921D02*
X34635Y-59621D01*
X34707Y-59621D01*
X34750Y-59635D01*
X34778Y-59664D01*
X34792Y-59692D01*
X34807Y-59750D01*
X34807Y-59792D01*
X34792Y-59850D01*
X34778Y-59878D01*
X34750Y-59907D01*
X34707Y-59921D01*
X34635Y-59921D01*
X35092Y-59921D02*
X34921Y-59921D01*
X35007Y-59921D02*
X35007Y-59621D01*
X34978Y-59664D01*
X34950Y-59692D01*
X34921Y-59707D01*
X35364Y-59621D02*
X35221Y-59621D01*
X35207Y-59764D01*
X35221Y-59750D01*
X35250Y-59735D01*
X35321Y-59735D01*
X35350Y-59750D01*
X35364Y-59764D01*
X35378Y-59792D01*
X35378Y-59864D01*
X35364Y-59892D01*
X35350Y-59907D01*
X35321Y-59921D01*
X35250Y-59921D01*
X35221Y-59907D01*
X35207Y-59892D01*
X34671Y-60635D02*
X34642Y-60621D01*
X34600Y-60621D01*
X34557Y-60635D01*
X34528Y-60664D01*
X34514Y-60692D01*
X34500Y-60750D01*
X34500Y-60792D01*
X34514Y-60850D01*
X34528Y-60878D01*
X34557Y-60907D01*
X34600Y-60921D01*
X34628Y-60921D01*
X34671Y-60907D01*
X34685Y-60892D01*
X34685Y-60792D01*
X34628Y-60792D01*
X34814Y-60921D02*
X34814Y-60621D01*
X34985Y-60921D01*
X34985Y-60621D01*
X35128Y-60921D02*
X35128Y-60621D01*
X35200Y-60621D01*
X35242Y-60635D01*
X35271Y-60664D01*
X35285Y-60692D01*
X35300Y-60750D01*
X35300Y-60792D01*
X35285Y-60850D01*
X35271Y-60878D01*
X35242Y-60907D01*
X35200Y-60921D01*
X35128Y-60921D01*
X34600Y-37621D02*
X34700Y-37921D01*
X34800Y-37621D01*
X34900Y-37921D02*
X34900Y-37621D01*
X34971Y-37621D01*
X35014Y-37635D01*
X35042Y-37664D01*
X35057Y-37692D01*
X35071Y-37750D01*
X35071Y-37792D01*
X35057Y-37850D01*
X35042Y-37878D01*
X35014Y-37907D01*
X34971Y-37921D01*
X34900Y-37921D01*
X35200Y-37921D02*
X35200Y-37621D01*
X35271Y-37621D01*
X35314Y-37635D01*
X35342Y-37664D01*
X35357Y-37692D01*
X35371Y-37750D01*
X35371Y-37792D01*
X35357Y-37850D01*
X35342Y-37878D01*
X35314Y-37907D01*
X35271Y-37921D01*
X35200Y-37921D01*
X34721Y-38635D02*
X34692Y-38621D01*
X34650Y-38621D01*
X34607Y-38635D01*
X34578Y-38664D01*
X34564Y-38692D01*
X34550Y-38750D01*
X34550Y-38792D01*
X34564Y-38850D01*
X34578Y-38878D01*
X34607Y-38907D01*
X34650Y-38921D01*
X34678Y-38921D01*
X34721Y-38907D01*
X34735Y-38892D01*
X34735Y-38792D01*
X34678Y-38792D01*
X34864Y-38921D02*
X34864Y-38621D01*
X35035Y-38921D01*
X35035Y-38621D01*
X35178Y-38921D02*
X35178Y-38621D01*
X35250Y-38621D01*
X35292Y-38635D01*
X35321Y-38664D01*
X35335Y-38692D01*
X35350Y-38750D01*
X35350Y-38792D01*
X35335Y-38850D01*
X35321Y-38878D01*
X35292Y-38907D01*
X35250Y-38921D01*
X35178Y-38921D01*
X37821Y-36635D02*
X37792Y-36621D01*
X37750Y-36621D01*
X37707Y-36635D01*
X37678Y-36664D01*
X37664Y-36692D01*
X37650Y-36750D01*
X37650Y-36792D01*
X37664Y-36850D01*
X37678Y-36878D01*
X37707Y-36907D01*
X37750Y-36921D01*
X37778Y-36921D01*
X37821Y-36907D01*
X37835Y-36892D01*
X37835Y-36792D01*
X37778Y-36792D01*
X37964Y-36921D02*
X37964Y-36621D01*
X38135Y-36921D01*
X38135Y-36621D01*
X38278Y-36921D02*
X38278Y-36621D01*
X38350Y-36621D01*
X38392Y-36635D01*
X38421Y-36664D01*
X38435Y-36692D01*
X38450Y-36750D01*
X38450Y-36792D01*
X38435Y-36850D01*
X38421Y-36878D01*
X38392Y-36907D01*
X38350Y-36921D01*
X38278Y-36921D01*
X37650Y-37621D02*
X37750Y-37921D01*
X37850Y-37621D01*
X37950Y-37921D02*
X37950Y-37621D01*
X38021Y-37621D01*
X38064Y-37635D01*
X38092Y-37664D01*
X38107Y-37692D01*
X38121Y-37750D01*
X38121Y-37792D01*
X38107Y-37850D01*
X38092Y-37878D01*
X38064Y-37907D01*
X38021Y-37921D01*
X37950Y-37921D01*
X38250Y-37921D02*
X38250Y-37621D01*
X38321Y-37621D01*
X38364Y-37635D01*
X38392Y-37664D01*
X38407Y-37692D01*
X38421Y-37750D01*
X38421Y-37792D01*
X38407Y-37850D01*
X38392Y-37878D01*
X38364Y-37907D01*
X38321Y-37921D01*
X38250Y-37921D01*
X37657Y-38921D02*
X37657Y-38621D01*
X37828Y-38921D01*
X37828Y-38621D01*
X38142Y-38921D02*
X38042Y-38778D01*
X37971Y-38921D02*
X37971Y-38621D01*
X38085Y-38621D01*
X38114Y-38635D01*
X38128Y-38650D01*
X38142Y-38678D01*
X38142Y-38721D01*
X38128Y-38750D01*
X38114Y-38764D01*
X38085Y-38778D01*
X37971Y-38778D01*
X38257Y-38907D02*
X38300Y-38921D01*
X38371Y-38921D01*
X38400Y-38907D01*
X38414Y-38892D01*
X38428Y-38864D01*
X38428Y-38835D01*
X38414Y-38807D01*
X38400Y-38792D01*
X38371Y-38778D01*
X38314Y-38764D01*
X38285Y-38750D01*
X38271Y-38735D01*
X38257Y-38707D01*
X38257Y-38678D01*
X38271Y-38650D01*
X38285Y-38635D01*
X38314Y-38621D01*
X38385Y-38621D01*
X38428Y-38635D01*
X38514Y-38621D02*
X38685Y-38621D01*
X38600Y-38921D02*
X38600Y-38621D01*
X37650Y-41471D02*
X37650Y-41171D01*
X37764Y-41171D01*
X37792Y-41185D01*
X37807Y-41200D01*
X37821Y-41228D01*
X37821Y-41271D01*
X37807Y-41300D01*
X37792Y-41314D01*
X37764Y-41328D01*
X37650Y-41328D01*
X37935Y-41385D02*
X38078Y-41385D01*
X37907Y-41471D02*
X38007Y-41171D01*
X38107Y-41471D01*
X38264Y-41171D02*
X38292Y-41171D01*
X38321Y-41185D01*
X38335Y-41200D01*
X38350Y-41228D01*
X38364Y-41285D01*
X38364Y-41357D01*
X38350Y-41414D01*
X38335Y-41442D01*
X38321Y-41457D01*
X38292Y-41471D01*
X38264Y-41471D01*
X38235Y-41457D01*
X38221Y-41442D01*
X38207Y-41414D01*
X38192Y-41357D01*
X38192Y-41285D01*
X38207Y-41228D01*
X38221Y-41200D01*
X38235Y-41185D01*
X38264Y-41171D01*
X37650Y-43921D02*
X37650Y-43621D01*
X37764Y-43621D01*
X37792Y-43635D01*
X37807Y-43650D01*
X37821Y-43678D01*
X37821Y-43721D01*
X37807Y-43750D01*
X37792Y-43764D01*
X37764Y-43778D01*
X37650Y-43778D01*
X37935Y-43835D02*
X38078Y-43835D01*
X37907Y-43921D02*
X38007Y-43621D01*
X38107Y-43921D01*
X38335Y-43721D02*
X38335Y-43921D01*
X38264Y-43607D02*
X38192Y-43821D01*
X38378Y-43821D01*
X37650Y-44921D02*
X37650Y-44621D01*
X37764Y-44621D01*
X37792Y-44635D01*
X37807Y-44650D01*
X37821Y-44678D01*
X37821Y-44721D01*
X37807Y-44750D01*
X37792Y-44764D01*
X37764Y-44778D01*
X37650Y-44778D01*
X37935Y-44835D02*
X38078Y-44835D01*
X37907Y-44921D02*
X38007Y-44621D01*
X38107Y-44921D01*
X38335Y-44621D02*
X38278Y-44621D01*
X38250Y-44635D01*
X38235Y-44650D01*
X38207Y-44692D01*
X38192Y-44750D01*
X38192Y-44864D01*
X38207Y-44892D01*
X38221Y-44907D01*
X38250Y-44921D01*
X38307Y-44921D01*
X38335Y-44907D01*
X38350Y-44892D01*
X38364Y-44864D01*
X38364Y-44792D01*
X38350Y-44764D01*
X38335Y-44750D01*
X38307Y-44735D01*
X38250Y-44735D01*
X38221Y-44750D01*
X38207Y-44764D01*
X38192Y-44792D01*
X37628Y-45921D02*
X37628Y-45621D01*
X37742Y-45621D01*
X37771Y-45635D01*
X37785Y-45650D01*
X37800Y-45678D01*
X37800Y-45721D01*
X37785Y-45750D01*
X37771Y-45764D01*
X37742Y-45778D01*
X37628Y-45778D01*
X38100Y-45892D02*
X38085Y-45907D01*
X38042Y-45921D01*
X38014Y-45921D01*
X37971Y-45907D01*
X37942Y-45878D01*
X37928Y-45850D01*
X37914Y-45792D01*
X37914Y-45750D01*
X37928Y-45692D01*
X37942Y-45664D01*
X37971Y-45635D01*
X38014Y-45621D01*
X38042Y-45621D01*
X38085Y-45635D01*
X38100Y-45650D01*
X38357Y-45721D02*
X38357Y-45921D01*
X38285Y-45607D02*
X38214Y-45821D01*
X38400Y-45821D01*
X37628Y-46921D02*
X37628Y-46621D01*
X37742Y-46621D01*
X37771Y-46635D01*
X37785Y-46650D01*
X37800Y-46678D01*
X37800Y-46721D01*
X37785Y-46750D01*
X37771Y-46764D01*
X37742Y-46778D01*
X37628Y-46778D01*
X38028Y-46764D02*
X38071Y-46778D01*
X38085Y-46792D01*
X38100Y-46821D01*
X38100Y-46864D01*
X38085Y-46892D01*
X38071Y-46907D01*
X38042Y-46921D01*
X37928Y-46921D01*
X37928Y-46621D01*
X38028Y-46621D01*
X38057Y-46635D01*
X38071Y-46650D01*
X38085Y-46678D01*
X38085Y-46707D01*
X38071Y-46735D01*
X38057Y-46750D01*
X38028Y-46764D01*
X37928Y-46764D01*
X38285Y-46621D02*
X38314Y-46621D01*
X38342Y-46635D01*
X38357Y-46650D01*
X38371Y-46678D01*
X38385Y-46735D01*
X38385Y-46807D01*
X38371Y-46864D01*
X38357Y-46892D01*
X38342Y-46907D01*
X38314Y-46921D01*
X38285Y-46921D01*
X38257Y-46907D01*
X38242Y-46892D01*
X38228Y-46864D01*
X38214Y-46807D01*
X38214Y-46735D01*
X38228Y-46678D01*
X38242Y-46650D01*
X38257Y-46635D01*
X38285Y-46621D01*
X37642Y-48921D02*
X37642Y-48621D01*
X37757Y-48621D01*
X37785Y-48635D01*
X37800Y-48650D01*
X37814Y-48678D01*
X37814Y-48721D01*
X37800Y-48750D01*
X37785Y-48764D01*
X37757Y-48778D01*
X37642Y-48778D01*
X37942Y-48764D02*
X38042Y-48764D01*
X38085Y-48921D02*
X37942Y-48921D01*
X37942Y-48621D01*
X38085Y-48621D01*
X38257Y-48750D02*
X38228Y-48735D01*
X38214Y-48721D01*
X38200Y-48692D01*
X38200Y-48678D01*
X38214Y-48650D01*
X38228Y-48635D01*
X38257Y-48621D01*
X38314Y-48621D01*
X38342Y-48635D01*
X38357Y-48650D01*
X38371Y-48678D01*
X38371Y-48692D01*
X38357Y-48721D01*
X38342Y-48735D01*
X38314Y-48750D01*
X38257Y-48750D01*
X38228Y-48764D01*
X38214Y-48778D01*
X38200Y-48807D01*
X38200Y-48864D01*
X38214Y-48892D01*
X38228Y-48907D01*
X38257Y-48921D01*
X38314Y-48921D01*
X38342Y-48907D01*
X38357Y-48892D01*
X38371Y-48864D01*
X38371Y-48807D01*
X38357Y-48778D01*
X38342Y-48764D01*
X38314Y-48750D01*
X37650Y-49921D02*
X37650Y-49621D01*
X37764Y-49621D01*
X37792Y-49635D01*
X37807Y-49650D01*
X37821Y-49678D01*
X37821Y-49721D01*
X37807Y-49750D01*
X37792Y-49764D01*
X37764Y-49778D01*
X37650Y-49778D01*
X37950Y-49764D02*
X38050Y-49764D01*
X38092Y-49921D02*
X37950Y-49921D01*
X37950Y-49621D01*
X38092Y-49621D01*
X38378Y-49921D02*
X38207Y-49921D01*
X38292Y-49921D02*
X38292Y-49621D01*
X38264Y-49664D01*
X38235Y-49692D01*
X38207Y-49707D01*
X38564Y-49621D02*
X38592Y-49621D01*
X38621Y-49635D01*
X38635Y-49650D01*
X38650Y-49678D01*
X38664Y-49735D01*
X38664Y-49807D01*
X38650Y-49864D01*
X38635Y-49892D01*
X38621Y-49907D01*
X38592Y-49921D01*
X38564Y-49921D01*
X38535Y-49907D01*
X38521Y-49892D01*
X38507Y-49864D01*
X38492Y-49807D01*
X38492Y-49735D01*
X38507Y-49678D01*
X38521Y-49650D01*
X38535Y-49635D01*
X38564Y-49621D01*
X37650Y-50921D02*
X37650Y-50621D01*
X37764Y-50621D01*
X37792Y-50635D01*
X37807Y-50650D01*
X37821Y-50678D01*
X37821Y-50721D01*
X37807Y-50750D01*
X37792Y-50764D01*
X37764Y-50778D01*
X37650Y-50778D01*
X37950Y-50764D02*
X38050Y-50764D01*
X38092Y-50921D02*
X37950Y-50921D01*
X37950Y-50621D01*
X38092Y-50621D01*
X38378Y-50921D02*
X38207Y-50921D01*
X38292Y-50921D02*
X38292Y-50621D01*
X38264Y-50664D01*
X38235Y-50692D01*
X38207Y-50707D01*
X38492Y-50650D02*
X38507Y-50635D01*
X38535Y-50621D01*
X38607Y-50621D01*
X38635Y-50635D01*
X38650Y-50650D01*
X38664Y-50678D01*
X38664Y-50707D01*
X38650Y-50750D01*
X38478Y-50921D01*
X38664Y-50921D01*
X37650Y-51921D02*
X37650Y-51621D01*
X37764Y-51621D01*
X37792Y-51635D01*
X37807Y-51650D01*
X37821Y-51678D01*
X37821Y-51721D01*
X37807Y-51750D01*
X37792Y-51764D01*
X37764Y-51778D01*
X37650Y-51778D01*
X37950Y-51764D02*
X38050Y-51764D01*
X38092Y-51921D02*
X37950Y-51921D01*
X37950Y-51621D01*
X38092Y-51621D01*
X38378Y-51921D02*
X38207Y-51921D01*
X38292Y-51921D02*
X38292Y-51621D01*
X38264Y-51664D01*
X38235Y-51692D01*
X38207Y-51707D01*
X38635Y-51721D02*
X38635Y-51921D01*
X38564Y-51607D02*
X38492Y-51821D01*
X38678Y-51821D01*
X37635Y-52921D02*
X37635Y-52621D01*
X37750Y-52621D01*
X37778Y-52635D01*
X37792Y-52650D01*
X37807Y-52678D01*
X37807Y-52721D01*
X37792Y-52750D01*
X37778Y-52764D01*
X37750Y-52778D01*
X37635Y-52778D01*
X38035Y-52764D02*
X38078Y-52778D01*
X38092Y-52792D01*
X38107Y-52821D01*
X38107Y-52864D01*
X38092Y-52892D01*
X38078Y-52907D01*
X38050Y-52921D01*
X37935Y-52921D01*
X37935Y-52621D01*
X38035Y-52621D01*
X38064Y-52635D01*
X38078Y-52650D01*
X38092Y-52678D01*
X38092Y-52707D01*
X38078Y-52735D01*
X38064Y-52750D01*
X38035Y-52764D01*
X37935Y-52764D01*
X38392Y-52921D02*
X38221Y-52921D01*
X38307Y-52921D02*
X38307Y-52621D01*
X38278Y-52664D01*
X38250Y-52692D01*
X38221Y-52707D01*
X38578Y-52621D02*
X38607Y-52621D01*
X38635Y-52635D01*
X38650Y-52650D01*
X38664Y-52678D01*
X38678Y-52735D01*
X38678Y-52807D01*
X38664Y-52864D01*
X38650Y-52892D01*
X38635Y-52907D01*
X38607Y-52921D01*
X38578Y-52921D01*
X38550Y-52907D01*
X38535Y-52892D01*
X38521Y-52864D01*
X38507Y-52807D01*
X38507Y-52735D01*
X38521Y-52678D01*
X38535Y-52650D01*
X38550Y-52635D01*
X38578Y-52621D01*
X37635Y-53921D02*
X37635Y-53621D01*
X37750Y-53621D01*
X37778Y-53635D01*
X37792Y-53650D01*
X37807Y-53678D01*
X37807Y-53721D01*
X37792Y-53750D01*
X37778Y-53764D01*
X37750Y-53778D01*
X37635Y-53778D01*
X38035Y-53764D02*
X38078Y-53778D01*
X38092Y-53792D01*
X38107Y-53821D01*
X38107Y-53864D01*
X38092Y-53892D01*
X38078Y-53907D01*
X38050Y-53921D01*
X37935Y-53921D01*
X37935Y-53621D01*
X38035Y-53621D01*
X38064Y-53635D01*
X38078Y-53650D01*
X38092Y-53678D01*
X38092Y-53707D01*
X38078Y-53735D01*
X38064Y-53750D01*
X38035Y-53764D01*
X37935Y-53764D01*
X38392Y-53921D02*
X38221Y-53921D01*
X38307Y-53921D02*
X38307Y-53621D01*
X38278Y-53664D01*
X38250Y-53692D01*
X38221Y-53707D01*
X38507Y-53650D02*
X38521Y-53635D01*
X38550Y-53621D01*
X38621Y-53621D01*
X38650Y-53635D01*
X38664Y-53650D01*
X38678Y-53678D01*
X38678Y-53707D01*
X38664Y-53750D01*
X38492Y-53921D01*
X38678Y-53921D01*
X37635Y-54921D02*
X37635Y-54621D01*
X37750Y-54621D01*
X37778Y-54635D01*
X37792Y-54650D01*
X37807Y-54678D01*
X37807Y-54721D01*
X37792Y-54750D01*
X37778Y-54764D01*
X37750Y-54778D01*
X37635Y-54778D01*
X38035Y-54764D02*
X38078Y-54778D01*
X38092Y-54792D01*
X38107Y-54821D01*
X38107Y-54864D01*
X38092Y-54892D01*
X38078Y-54907D01*
X38050Y-54921D01*
X37935Y-54921D01*
X37935Y-54621D01*
X38035Y-54621D01*
X38064Y-54635D01*
X38078Y-54650D01*
X38092Y-54678D01*
X38092Y-54707D01*
X38078Y-54735D01*
X38064Y-54750D01*
X38035Y-54764D01*
X37935Y-54764D01*
X38392Y-54921D02*
X38221Y-54921D01*
X38307Y-54921D02*
X38307Y-54621D01*
X38278Y-54664D01*
X38250Y-54692D01*
X38221Y-54707D01*
X38650Y-54721D02*
X38650Y-54921D01*
X38578Y-54607D02*
X38507Y-54821D01*
X38692Y-54821D01*
X37628Y-55921D02*
X37628Y-55621D01*
X37742Y-55621D01*
X37771Y-55635D01*
X37785Y-55650D01*
X37800Y-55678D01*
X37800Y-55721D01*
X37785Y-55750D01*
X37771Y-55764D01*
X37742Y-55778D01*
X37628Y-55778D01*
X37928Y-55921D02*
X37928Y-55621D01*
X38000Y-55621D01*
X38042Y-55635D01*
X38071Y-55664D01*
X38085Y-55692D01*
X38100Y-55750D01*
X38100Y-55792D01*
X38085Y-55850D01*
X38071Y-55878D01*
X38042Y-55907D01*
X38000Y-55921D01*
X37928Y-55921D01*
X38271Y-55750D02*
X38242Y-55735D01*
X38228Y-55721D01*
X38214Y-55692D01*
X38214Y-55678D01*
X38228Y-55650D01*
X38242Y-55635D01*
X38271Y-55621D01*
X38328Y-55621D01*
X38357Y-55635D01*
X38371Y-55650D01*
X38385Y-55678D01*
X38385Y-55692D01*
X38371Y-55721D01*
X38357Y-55735D01*
X38328Y-55750D01*
X38271Y-55750D01*
X38242Y-55764D01*
X38228Y-55778D01*
X38214Y-55807D01*
X38214Y-55864D01*
X38228Y-55892D01*
X38242Y-55907D01*
X38271Y-55921D01*
X38328Y-55921D01*
X38357Y-55907D01*
X38371Y-55892D01*
X38385Y-55864D01*
X38385Y-55807D01*
X38371Y-55778D01*
X38357Y-55764D01*
X38328Y-55750D01*
X37585Y-56921D02*
X37585Y-56621D01*
X37700Y-56621D01*
X37728Y-56635D01*
X37742Y-56650D01*
X37757Y-56678D01*
X37757Y-56721D01*
X37742Y-56750D01*
X37728Y-56764D01*
X37700Y-56778D01*
X37585Y-56778D01*
X37885Y-56921D02*
X37885Y-56621D01*
X37957Y-56621D01*
X38000Y-56635D01*
X38028Y-56664D01*
X38042Y-56692D01*
X38057Y-56750D01*
X38057Y-56792D01*
X38042Y-56850D01*
X38028Y-56878D01*
X38000Y-56907D01*
X37957Y-56921D01*
X37885Y-56921D01*
X38342Y-56921D02*
X38171Y-56921D01*
X38257Y-56921D02*
X38257Y-56621D01*
X38228Y-56664D01*
X38200Y-56692D01*
X38171Y-56707D01*
X38528Y-56621D02*
X38557Y-56621D01*
X38585Y-56635D01*
X38600Y-56650D01*
X38614Y-56678D01*
X38628Y-56735D01*
X38628Y-56807D01*
X38614Y-56864D01*
X38600Y-56892D01*
X38585Y-56907D01*
X38557Y-56921D01*
X38528Y-56921D01*
X38500Y-56907D01*
X38485Y-56892D01*
X38471Y-56864D01*
X38457Y-56807D01*
X38457Y-56735D01*
X38471Y-56678D01*
X38485Y-56650D01*
X38500Y-56635D01*
X38528Y-56621D01*
X37535Y-57921D02*
X37535Y-57621D01*
X37650Y-57621D01*
X37678Y-57635D01*
X37692Y-57650D01*
X37707Y-57678D01*
X37707Y-57721D01*
X37692Y-57750D01*
X37678Y-57764D01*
X37650Y-57778D01*
X37535Y-57778D01*
X37835Y-57921D02*
X37835Y-57621D01*
X37907Y-57621D01*
X37950Y-57635D01*
X37978Y-57664D01*
X37992Y-57692D01*
X38007Y-57750D01*
X38007Y-57792D01*
X37992Y-57850D01*
X37978Y-57878D01*
X37950Y-57907D01*
X37907Y-57921D01*
X37835Y-57921D01*
X38292Y-57921D02*
X38121Y-57921D01*
X38207Y-57921D02*
X38207Y-57621D01*
X38178Y-57664D01*
X38150Y-57692D01*
X38121Y-57707D01*
X38407Y-57650D02*
X38421Y-57635D01*
X38450Y-57621D01*
X38521Y-57621D01*
X38550Y-57635D01*
X38564Y-57650D01*
X38578Y-57678D01*
X38578Y-57707D01*
X38564Y-57750D01*
X38392Y-57921D01*
X38578Y-57921D01*
X37585Y-58921D02*
X37585Y-58621D01*
X37700Y-58621D01*
X37728Y-58635D01*
X37742Y-58650D01*
X37757Y-58678D01*
X37757Y-58721D01*
X37742Y-58750D01*
X37728Y-58764D01*
X37700Y-58778D01*
X37585Y-58778D01*
X37885Y-58921D02*
X37885Y-58621D01*
X37957Y-58621D01*
X38000Y-58635D01*
X38028Y-58664D01*
X38042Y-58692D01*
X38057Y-58750D01*
X38057Y-58792D01*
X38042Y-58850D01*
X38028Y-58878D01*
X38000Y-58907D01*
X37957Y-58921D01*
X37885Y-58921D01*
X38342Y-58921D02*
X38171Y-58921D01*
X38257Y-58921D02*
X38257Y-58621D01*
X38228Y-58664D01*
X38200Y-58692D01*
X38171Y-58707D01*
X38600Y-58721D02*
X38600Y-58921D01*
X38528Y-58607D02*
X38457Y-58821D01*
X38642Y-58821D01*
X37614Y-59921D02*
X37614Y-59621D01*
X37785Y-59921D01*
X37785Y-59621D01*
X38100Y-59892D02*
X38085Y-59907D01*
X38042Y-59921D01*
X38014Y-59921D01*
X37971Y-59907D01*
X37942Y-59878D01*
X37928Y-59850D01*
X37914Y-59792D01*
X37914Y-59750D01*
X37928Y-59692D01*
X37942Y-59664D01*
X37971Y-59635D01*
X38014Y-59621D01*
X38042Y-59621D01*
X38085Y-59635D01*
X38100Y-59650D01*
X37821Y-60635D02*
X37792Y-60621D01*
X37750Y-60621D01*
X37707Y-60635D01*
X37678Y-60664D01*
X37664Y-60692D01*
X37650Y-60750D01*
X37650Y-60792D01*
X37664Y-60850D01*
X37678Y-60878D01*
X37707Y-60907D01*
X37750Y-60921D01*
X37778Y-60921D01*
X37821Y-60907D01*
X37835Y-60892D01*
X37835Y-60792D01*
X37778Y-60792D01*
X37964Y-60921D02*
X37964Y-60621D01*
X38135Y-60921D01*
X38135Y-60621D01*
X38278Y-60921D02*
X38278Y-60621D01*
X38350Y-60621D01*
X38392Y-60635D01*
X38421Y-60664D01*
X38435Y-60692D01*
X38450Y-60750D01*
X38450Y-60792D01*
X38435Y-60850D01*
X38421Y-60878D01*
X38392Y-60907D01*
X38350Y-60921D01*
X38278Y-60921D01*
X54921Y-38971D02*
X55107Y-38971D01*
X55007Y-39085D01*
X55050Y-39085D01*
X55078Y-39100D01*
X55092Y-39114D01*
X55107Y-39142D01*
X55107Y-39214D01*
X55092Y-39242D01*
X55078Y-39257D01*
X55050Y-39271D01*
X54964Y-39271D01*
X54935Y-39257D01*
X54921Y-39242D01*
X55192Y-38971D02*
X55292Y-39271D01*
X55392Y-38971D01*
X55092Y-37071D02*
X54950Y-37071D01*
X54935Y-37214D01*
X54950Y-37200D01*
X54978Y-37185D01*
X55050Y-37185D01*
X55078Y-37200D01*
X55092Y-37214D01*
X55107Y-37242D01*
X55107Y-37314D01*
X55092Y-37342D01*
X55078Y-37357D01*
X55050Y-37371D01*
X54978Y-37371D01*
X54950Y-37357D01*
X54935Y-37342D01*
X55192Y-37071D02*
X55292Y-37371D01*
X55392Y-37071D01*
X57771Y-60635D02*
X57742Y-60621D01*
X57700Y-60621D01*
X57657Y-60635D01*
X57628Y-60664D01*
X57614Y-60692D01*
X57600Y-60750D01*
X57600Y-60792D01*
X57614Y-60850D01*
X57628Y-60878D01*
X57657Y-60907D01*
X57700Y-60921D01*
X57728Y-60921D01*
X57771Y-60907D01*
X57785Y-60892D01*
X57785Y-60792D01*
X57728Y-60792D01*
X57914Y-60921D02*
X57914Y-60621D01*
X58085Y-60921D01*
X58085Y-60621D01*
X58228Y-60921D02*
X58228Y-60621D01*
X58300Y-60621D01*
X58342Y-60635D01*
X58371Y-60664D01*
X58385Y-60692D01*
X58400Y-60750D01*
X58400Y-60792D01*
X58385Y-60850D01*
X58371Y-60878D01*
X58342Y-60907D01*
X58300Y-60921D01*
X58228Y-60921D01*
X54721Y-60635D02*
X54692Y-60621D01*
X54650Y-60621D01*
X54607Y-60635D01*
X54578Y-60664D01*
X54564Y-60692D01*
X54550Y-60750D01*
X54550Y-60792D01*
X54564Y-60850D01*
X54578Y-60878D01*
X54607Y-60907D01*
X54650Y-60921D01*
X54678Y-60921D01*
X54721Y-60907D01*
X54735Y-60892D01*
X54735Y-60792D01*
X54678Y-60792D01*
X54864Y-60921D02*
X54864Y-60621D01*
X55035Y-60921D01*
X55035Y-60621D01*
X55178Y-60921D02*
X55178Y-60621D01*
X55250Y-60621D01*
X55292Y-60635D01*
X55321Y-60664D01*
X55335Y-60692D01*
X55350Y-60750D01*
X55350Y-60792D01*
X55335Y-60850D01*
X55321Y-60878D01*
X55292Y-60907D01*
X55250Y-60921D01*
X55178Y-60921D01*
X57628Y-59971D02*
X57628Y-59671D01*
X57742Y-59671D01*
X57771Y-59685D01*
X57785Y-59700D01*
X57800Y-59728D01*
X57800Y-59771D01*
X57785Y-59800D01*
X57771Y-59814D01*
X57742Y-59828D01*
X57628Y-59828D01*
X58100Y-59942D02*
X58085Y-59957D01*
X58042Y-59971D01*
X58014Y-59971D01*
X57971Y-59957D01*
X57942Y-59928D01*
X57928Y-59900D01*
X57914Y-59842D01*
X57914Y-59800D01*
X57928Y-59742D01*
X57942Y-59714D01*
X57971Y-59685D01*
X58014Y-59671D01*
X58042Y-59671D01*
X58085Y-59685D01*
X58100Y-59700D01*
X58200Y-59671D02*
X58400Y-59671D01*
X58271Y-59971D01*
X54628Y-59921D02*
X54628Y-59621D01*
X54742Y-59621D01*
X54771Y-59635D01*
X54785Y-59650D01*
X54800Y-59678D01*
X54800Y-59721D01*
X54785Y-59750D01*
X54771Y-59764D01*
X54742Y-59778D01*
X54628Y-59778D01*
X55100Y-59892D02*
X55085Y-59907D01*
X55042Y-59921D01*
X55014Y-59921D01*
X54971Y-59907D01*
X54942Y-59878D01*
X54928Y-59850D01*
X54914Y-59792D01*
X54914Y-59750D01*
X54928Y-59692D01*
X54942Y-59664D01*
X54971Y-59635D01*
X55014Y-59621D01*
X55042Y-59621D01*
X55085Y-59635D01*
X55100Y-59650D01*
X55357Y-59621D02*
X55300Y-59621D01*
X55271Y-59635D01*
X55257Y-59650D01*
X55228Y-59692D01*
X55214Y-59750D01*
X55214Y-59864D01*
X55228Y-59892D01*
X55242Y-59907D01*
X55271Y-59921D01*
X55328Y-59921D01*
X55357Y-59907D01*
X55371Y-59892D01*
X55385Y-59864D01*
X55385Y-59792D01*
X55371Y-59764D01*
X55357Y-59750D01*
X55328Y-59735D01*
X55271Y-59735D01*
X55242Y-59750D01*
X55228Y-59764D01*
X55214Y-59792D01*
X54578Y-58921D02*
X54578Y-58621D01*
X54692Y-58621D01*
X54721Y-58635D01*
X54735Y-58650D01*
X54750Y-58678D01*
X54750Y-58721D01*
X54735Y-58750D01*
X54721Y-58764D01*
X54692Y-58778D01*
X54578Y-58778D01*
X55050Y-58892D02*
X55035Y-58907D01*
X54992Y-58921D01*
X54964Y-58921D01*
X54921Y-58907D01*
X54892Y-58878D01*
X54878Y-58850D01*
X54864Y-58792D01*
X54864Y-58750D01*
X54878Y-58692D01*
X54892Y-58664D01*
X54921Y-58635D01*
X54964Y-58621D01*
X54992Y-58621D01*
X55035Y-58635D01*
X55050Y-58650D01*
X55221Y-58750D02*
X55192Y-58735D01*
X55178Y-58721D01*
X55164Y-58692D01*
X55164Y-58678D01*
X55178Y-58650D01*
X55192Y-58635D01*
X55221Y-58621D01*
X55278Y-58621D01*
X55307Y-58635D01*
X55321Y-58650D01*
X55335Y-58678D01*
X55335Y-58692D01*
X55321Y-58721D01*
X55307Y-58735D01*
X55278Y-58750D01*
X55221Y-58750D01*
X55192Y-58764D01*
X55178Y-58778D01*
X55164Y-58807D01*
X55164Y-58864D01*
X55178Y-58892D01*
X55192Y-58907D01*
X55221Y-58921D01*
X55278Y-58921D01*
X55307Y-58907D01*
X55321Y-58892D01*
X55335Y-58864D01*
X55335Y-58807D01*
X55321Y-58778D01*
X55307Y-58764D01*
X55278Y-58750D01*
X57628Y-58921D02*
X57628Y-58621D01*
X57742Y-58621D01*
X57771Y-58635D01*
X57785Y-58650D01*
X57800Y-58678D01*
X57800Y-58721D01*
X57785Y-58750D01*
X57771Y-58764D01*
X57742Y-58778D01*
X57628Y-58778D01*
X58100Y-58892D02*
X58085Y-58907D01*
X58042Y-58921D01*
X58014Y-58921D01*
X57971Y-58907D01*
X57942Y-58878D01*
X57928Y-58850D01*
X57914Y-58792D01*
X57914Y-58750D01*
X57928Y-58692D01*
X57942Y-58664D01*
X57971Y-58635D01*
X58014Y-58621D01*
X58042Y-58621D01*
X58085Y-58635D01*
X58100Y-58650D01*
X58242Y-58921D02*
X58300Y-58921D01*
X58328Y-58907D01*
X58342Y-58892D01*
X58371Y-58850D01*
X58385Y-58792D01*
X58385Y-58678D01*
X58371Y-58650D01*
X58357Y-58635D01*
X58328Y-58621D01*
X58271Y-58621D01*
X58242Y-58635D01*
X58228Y-58650D01*
X58214Y-58678D01*
X58214Y-58750D01*
X58228Y-58778D01*
X58242Y-58792D01*
X58271Y-58807D01*
X58328Y-58807D01*
X58357Y-58792D01*
X58371Y-58778D01*
X58385Y-58750D01*
X57650Y-57971D02*
X57650Y-57671D01*
X57764Y-57671D01*
X57792Y-57685D01*
X57807Y-57700D01*
X57821Y-57728D01*
X57821Y-57771D01*
X57807Y-57800D01*
X57792Y-57814D01*
X57764Y-57828D01*
X57650Y-57828D01*
X57935Y-57885D02*
X58078Y-57885D01*
X57907Y-57971D02*
X58007Y-57671D01*
X58107Y-57971D01*
X58221Y-57971D02*
X58278Y-57971D01*
X58307Y-57957D01*
X58321Y-57942D01*
X58350Y-57900D01*
X58364Y-57842D01*
X58364Y-57728D01*
X58350Y-57700D01*
X58335Y-57685D01*
X58307Y-57671D01*
X58250Y-57671D01*
X58221Y-57685D01*
X58207Y-57700D01*
X58192Y-57728D01*
X58192Y-57800D01*
X58207Y-57828D01*
X58221Y-57842D01*
X58250Y-57857D01*
X58307Y-57857D01*
X58335Y-57842D01*
X58350Y-57828D01*
X58364Y-57800D01*
X54650Y-57921D02*
X54650Y-57621D01*
X54764Y-57621D01*
X54792Y-57635D01*
X54807Y-57650D01*
X54821Y-57678D01*
X54821Y-57721D01*
X54807Y-57750D01*
X54792Y-57764D01*
X54764Y-57778D01*
X54650Y-57778D01*
X54935Y-57835D02*
X55078Y-57835D01*
X54907Y-57921D02*
X55007Y-57621D01*
X55107Y-57921D01*
X55250Y-57750D02*
X55221Y-57735D01*
X55207Y-57721D01*
X55192Y-57692D01*
X55192Y-57678D01*
X55207Y-57650D01*
X55221Y-57635D01*
X55250Y-57621D01*
X55307Y-57621D01*
X55335Y-57635D01*
X55350Y-57650D01*
X55364Y-57678D01*
X55364Y-57692D01*
X55350Y-57721D01*
X55335Y-57735D01*
X55307Y-57750D01*
X55250Y-57750D01*
X55221Y-57764D01*
X55207Y-57778D01*
X55192Y-57807D01*
X55192Y-57864D01*
X55207Y-57892D01*
X55221Y-57907D01*
X55250Y-57921D01*
X55307Y-57921D01*
X55335Y-57907D01*
X55350Y-57892D01*
X55364Y-57864D01*
X55364Y-57807D01*
X55350Y-57778D01*
X55335Y-57764D01*
X55307Y-57750D01*
X57657Y-56921D02*
X57657Y-56621D01*
X57771Y-56621D01*
X57800Y-56635D01*
X57814Y-56650D01*
X57828Y-56678D01*
X57828Y-56721D01*
X57814Y-56750D01*
X57800Y-56764D01*
X57771Y-56778D01*
X57657Y-56778D01*
X57942Y-56835D02*
X58085Y-56835D01*
X57914Y-56921D02*
X58014Y-56621D01*
X58114Y-56921D01*
X58371Y-56921D02*
X58200Y-56921D01*
X58285Y-56921D02*
X58285Y-56621D01*
X58257Y-56664D01*
X58228Y-56692D01*
X58200Y-56707D01*
X58471Y-56621D02*
X58657Y-56621D01*
X58557Y-56735D01*
X58600Y-56735D01*
X58628Y-56750D01*
X58642Y-56764D01*
X58657Y-56792D01*
X58657Y-56864D01*
X58642Y-56892D01*
X58628Y-56907D01*
X58600Y-56921D01*
X58514Y-56921D01*
X58485Y-56907D01*
X58471Y-56892D01*
X54357Y-56921D02*
X54357Y-56621D01*
X54471Y-56621D01*
X54500Y-56635D01*
X54514Y-56650D01*
X54528Y-56678D01*
X54528Y-56721D01*
X54514Y-56750D01*
X54500Y-56764D01*
X54471Y-56778D01*
X54357Y-56778D01*
X54642Y-56835D02*
X54785Y-56835D01*
X54614Y-56921D02*
X54714Y-56621D01*
X54814Y-56921D01*
X55071Y-56921D02*
X54900Y-56921D01*
X54985Y-56921D02*
X54985Y-56621D01*
X54957Y-56664D01*
X54928Y-56692D01*
X54900Y-56707D01*
X55257Y-56621D02*
X55285Y-56621D01*
X55314Y-56635D01*
X55328Y-56650D01*
X55342Y-56678D01*
X55357Y-56735D01*
X55357Y-56807D01*
X55342Y-56864D01*
X55328Y-56892D01*
X55314Y-56907D01*
X55285Y-56921D01*
X55257Y-56921D01*
X55228Y-56907D01*
X55214Y-56892D01*
X55200Y-56864D01*
X55185Y-56807D01*
X55185Y-56735D01*
X55200Y-56678D01*
X55214Y-56650D01*
X55228Y-56635D01*
X55257Y-56621D01*
X57657Y-55971D02*
X57657Y-55671D01*
X57771Y-55671D01*
X57800Y-55685D01*
X57814Y-55700D01*
X57828Y-55728D01*
X57828Y-55771D01*
X57814Y-55800D01*
X57800Y-55814D01*
X57771Y-55828D01*
X57657Y-55828D01*
X57942Y-55885D02*
X58085Y-55885D01*
X57914Y-55971D02*
X58014Y-55671D01*
X58114Y-55971D01*
X58371Y-55971D02*
X58200Y-55971D01*
X58285Y-55971D02*
X58285Y-55671D01*
X58257Y-55714D01*
X58228Y-55742D01*
X58200Y-55757D01*
X58642Y-55671D02*
X58500Y-55671D01*
X58485Y-55814D01*
X58500Y-55800D01*
X58528Y-55785D01*
X58600Y-55785D01*
X58628Y-55800D01*
X58642Y-55814D01*
X58657Y-55842D01*
X58657Y-55914D01*
X58642Y-55942D01*
X58628Y-55957D01*
X58600Y-55971D01*
X58528Y-55971D01*
X58500Y-55957D01*
X58485Y-55942D01*
X54357Y-55921D02*
X54357Y-55621D01*
X54471Y-55621D01*
X54500Y-55635D01*
X54514Y-55650D01*
X54528Y-55678D01*
X54528Y-55721D01*
X54514Y-55750D01*
X54500Y-55764D01*
X54471Y-55778D01*
X54357Y-55778D01*
X54642Y-55835D02*
X54785Y-55835D01*
X54614Y-55921D02*
X54714Y-55621D01*
X54814Y-55921D01*
X55071Y-55921D02*
X54900Y-55921D01*
X54985Y-55921D02*
X54985Y-55621D01*
X54957Y-55664D01*
X54928Y-55692D01*
X54900Y-55707D01*
X55328Y-55721D02*
X55328Y-55921D01*
X55257Y-55607D02*
X55185Y-55821D01*
X55371Y-55821D01*
X57635Y-54921D02*
X57635Y-54621D01*
X57750Y-54621D01*
X57778Y-54635D01*
X57792Y-54650D01*
X57807Y-54678D01*
X57807Y-54721D01*
X57792Y-54750D01*
X57778Y-54764D01*
X57750Y-54778D01*
X57635Y-54778D01*
X58107Y-54892D02*
X58092Y-54907D01*
X58050Y-54921D01*
X58021Y-54921D01*
X57978Y-54907D01*
X57950Y-54878D01*
X57935Y-54850D01*
X57921Y-54792D01*
X57921Y-54750D01*
X57935Y-54692D01*
X57950Y-54664D01*
X57978Y-54635D01*
X58021Y-54621D01*
X58050Y-54621D01*
X58092Y-54635D01*
X58107Y-54650D01*
X58392Y-54921D02*
X58221Y-54921D01*
X58307Y-54921D02*
X58307Y-54621D01*
X58278Y-54664D01*
X58250Y-54692D01*
X58221Y-54707D01*
X58678Y-54921D02*
X58507Y-54921D01*
X58592Y-54921D02*
X58592Y-54621D01*
X58564Y-54664D01*
X58535Y-54692D01*
X58507Y-54707D01*
X54335Y-54921D02*
X54335Y-54621D01*
X54450Y-54621D01*
X54478Y-54635D01*
X54492Y-54650D01*
X54507Y-54678D01*
X54507Y-54721D01*
X54492Y-54750D01*
X54478Y-54764D01*
X54450Y-54778D01*
X54335Y-54778D01*
X54807Y-54892D02*
X54792Y-54907D01*
X54750Y-54921D01*
X54721Y-54921D01*
X54678Y-54907D01*
X54650Y-54878D01*
X54635Y-54850D01*
X54621Y-54792D01*
X54621Y-54750D01*
X54635Y-54692D01*
X54650Y-54664D01*
X54678Y-54635D01*
X54721Y-54621D01*
X54750Y-54621D01*
X54792Y-54635D01*
X54807Y-54650D01*
X55092Y-54921D02*
X54921Y-54921D01*
X55007Y-54921D02*
X55007Y-54621D01*
X54978Y-54664D01*
X54950Y-54692D01*
X54921Y-54707D01*
X55278Y-54621D02*
X55307Y-54621D01*
X55335Y-54635D01*
X55350Y-54650D01*
X55364Y-54678D01*
X55378Y-54735D01*
X55378Y-54807D01*
X55364Y-54864D01*
X55350Y-54892D01*
X55335Y-54907D01*
X55307Y-54921D01*
X55278Y-54921D01*
X55250Y-54907D01*
X55235Y-54892D01*
X55221Y-54864D01*
X55207Y-54807D01*
X55207Y-54735D01*
X55221Y-54678D01*
X55235Y-54650D01*
X55250Y-54635D01*
X55278Y-54621D01*
X54335Y-53921D02*
X54335Y-53621D01*
X54450Y-53621D01*
X54478Y-53635D01*
X54492Y-53650D01*
X54507Y-53678D01*
X54507Y-53721D01*
X54492Y-53750D01*
X54478Y-53764D01*
X54450Y-53778D01*
X54335Y-53778D01*
X54807Y-53892D02*
X54792Y-53907D01*
X54750Y-53921D01*
X54721Y-53921D01*
X54678Y-53907D01*
X54650Y-53878D01*
X54635Y-53850D01*
X54621Y-53792D01*
X54621Y-53750D01*
X54635Y-53692D01*
X54650Y-53664D01*
X54678Y-53635D01*
X54721Y-53621D01*
X54750Y-53621D01*
X54792Y-53635D01*
X54807Y-53650D01*
X55092Y-53921D02*
X54921Y-53921D01*
X55007Y-53921D02*
X55007Y-53621D01*
X54978Y-53664D01*
X54950Y-53692D01*
X54921Y-53707D01*
X55207Y-53650D02*
X55221Y-53635D01*
X55250Y-53621D01*
X55321Y-53621D01*
X55350Y-53635D01*
X55364Y-53650D01*
X55378Y-53678D01*
X55378Y-53707D01*
X55364Y-53750D01*
X55192Y-53921D01*
X55378Y-53921D01*
X54628Y-52921D02*
X54628Y-52621D01*
X54742Y-52621D01*
X54771Y-52635D01*
X54785Y-52650D01*
X54800Y-52678D01*
X54800Y-52721D01*
X54785Y-52750D01*
X54771Y-52764D01*
X54742Y-52778D01*
X54628Y-52778D01*
X54928Y-52921D02*
X54928Y-52621D01*
X55000Y-52621D01*
X55042Y-52635D01*
X55071Y-52664D01*
X55085Y-52692D01*
X55100Y-52750D01*
X55100Y-52792D01*
X55085Y-52850D01*
X55071Y-52878D01*
X55042Y-52907D01*
X55000Y-52921D01*
X54928Y-52921D01*
X55385Y-52921D02*
X55214Y-52921D01*
X55300Y-52921D02*
X55300Y-52621D01*
X55271Y-52664D01*
X55242Y-52692D01*
X55214Y-52707D01*
X54628Y-51921D02*
X54628Y-51621D01*
X54742Y-51621D01*
X54771Y-51635D01*
X54785Y-51650D01*
X54800Y-51678D01*
X54800Y-51721D01*
X54785Y-51750D01*
X54771Y-51764D01*
X54742Y-51778D01*
X54628Y-51778D01*
X54928Y-51921D02*
X54928Y-51621D01*
X55000Y-51621D01*
X55042Y-51635D01*
X55071Y-51664D01*
X55085Y-51692D01*
X55100Y-51750D01*
X55100Y-51792D01*
X55085Y-51850D01*
X55071Y-51878D01*
X55042Y-51907D01*
X55000Y-51921D01*
X54928Y-51921D01*
X55200Y-51621D02*
X55385Y-51621D01*
X55285Y-51735D01*
X55328Y-51735D01*
X55357Y-51750D01*
X55371Y-51764D01*
X55385Y-51792D01*
X55385Y-51864D01*
X55371Y-51892D01*
X55357Y-51907D01*
X55328Y-51921D01*
X55242Y-51921D01*
X55214Y-51907D01*
X55200Y-51892D01*
X57628Y-53971D02*
X57628Y-53671D01*
X57742Y-53671D01*
X57771Y-53685D01*
X57785Y-53700D01*
X57800Y-53728D01*
X57800Y-53771D01*
X57785Y-53800D01*
X57771Y-53814D01*
X57742Y-53828D01*
X57628Y-53828D01*
X57928Y-53971D02*
X57928Y-53671D01*
X58000Y-53671D01*
X58042Y-53685D01*
X58071Y-53714D01*
X58085Y-53742D01*
X58100Y-53800D01*
X58100Y-53842D01*
X58085Y-53900D01*
X58071Y-53928D01*
X58042Y-53957D01*
X58000Y-53971D01*
X57928Y-53971D01*
X58285Y-53671D02*
X58314Y-53671D01*
X58342Y-53685D01*
X58357Y-53700D01*
X58371Y-53728D01*
X58385Y-53785D01*
X58385Y-53857D01*
X58371Y-53914D01*
X58357Y-53942D01*
X58342Y-53957D01*
X58314Y-53971D01*
X58285Y-53971D01*
X58257Y-53957D01*
X58242Y-53942D01*
X58228Y-53914D01*
X58214Y-53857D01*
X58214Y-53785D01*
X58228Y-53728D01*
X58242Y-53700D01*
X58257Y-53685D01*
X58285Y-53671D01*
X57628Y-52971D02*
X57628Y-52671D01*
X57742Y-52671D01*
X57771Y-52685D01*
X57785Y-52700D01*
X57800Y-52728D01*
X57800Y-52771D01*
X57785Y-52800D01*
X57771Y-52814D01*
X57742Y-52828D01*
X57628Y-52828D01*
X57928Y-52971D02*
X57928Y-52671D01*
X58000Y-52671D01*
X58042Y-52685D01*
X58071Y-52714D01*
X58085Y-52742D01*
X58100Y-52800D01*
X58100Y-52842D01*
X58085Y-52900D01*
X58071Y-52928D01*
X58042Y-52957D01*
X58000Y-52971D01*
X57928Y-52971D01*
X58214Y-52700D02*
X58228Y-52685D01*
X58257Y-52671D01*
X58328Y-52671D01*
X58357Y-52685D01*
X58371Y-52700D01*
X58385Y-52728D01*
X58385Y-52757D01*
X58371Y-52800D01*
X58200Y-52971D01*
X58385Y-52971D01*
X57628Y-51921D02*
X57628Y-51621D01*
X57742Y-51621D01*
X57771Y-51635D01*
X57785Y-51650D01*
X57800Y-51678D01*
X57800Y-51721D01*
X57785Y-51750D01*
X57771Y-51764D01*
X57742Y-51778D01*
X57628Y-51778D01*
X57928Y-51921D02*
X57928Y-51621D01*
X58000Y-51621D01*
X58042Y-51635D01*
X58071Y-51664D01*
X58085Y-51692D01*
X58100Y-51750D01*
X58100Y-51792D01*
X58085Y-51850D01*
X58071Y-51878D01*
X58042Y-51907D01*
X58000Y-51921D01*
X57928Y-51921D01*
X58357Y-51721D02*
X58357Y-51921D01*
X58285Y-51607D02*
X58214Y-51821D01*
X58400Y-51821D01*
X57628Y-50921D02*
X57628Y-50621D01*
X57742Y-50621D01*
X57771Y-50635D01*
X57785Y-50650D01*
X57800Y-50678D01*
X57800Y-50721D01*
X57785Y-50750D01*
X57771Y-50764D01*
X57742Y-50778D01*
X57628Y-50778D01*
X57928Y-50921D02*
X57928Y-50621D01*
X58000Y-50621D01*
X58042Y-50635D01*
X58071Y-50664D01*
X58085Y-50692D01*
X58100Y-50750D01*
X58100Y-50792D01*
X58085Y-50850D01*
X58071Y-50878D01*
X58042Y-50907D01*
X58000Y-50921D01*
X57928Y-50921D01*
X58357Y-50621D02*
X58300Y-50621D01*
X58271Y-50635D01*
X58257Y-50650D01*
X58228Y-50692D01*
X58214Y-50750D01*
X58214Y-50864D01*
X58228Y-50892D01*
X58242Y-50907D01*
X58271Y-50921D01*
X58328Y-50921D01*
X58357Y-50907D01*
X58371Y-50892D01*
X58385Y-50864D01*
X58385Y-50792D01*
X58371Y-50764D01*
X58357Y-50750D01*
X58328Y-50735D01*
X58271Y-50735D01*
X58242Y-50750D01*
X58228Y-50764D01*
X58214Y-50792D01*
X57628Y-49921D02*
X57628Y-49621D01*
X57742Y-49621D01*
X57771Y-49635D01*
X57785Y-49650D01*
X57800Y-49678D01*
X57800Y-49721D01*
X57785Y-49750D01*
X57771Y-49764D01*
X57742Y-49778D01*
X57628Y-49778D01*
X58028Y-49764D02*
X58071Y-49778D01*
X58085Y-49792D01*
X58100Y-49821D01*
X58100Y-49864D01*
X58085Y-49892D01*
X58071Y-49907D01*
X58042Y-49921D01*
X57928Y-49921D01*
X57928Y-49621D01*
X58028Y-49621D01*
X58057Y-49635D01*
X58071Y-49650D01*
X58085Y-49678D01*
X58085Y-49707D01*
X58071Y-49735D01*
X58057Y-49750D01*
X58028Y-49764D01*
X57928Y-49764D01*
X58200Y-49621D02*
X58385Y-49621D01*
X58285Y-49735D01*
X58328Y-49735D01*
X58357Y-49750D01*
X58371Y-49764D01*
X58385Y-49792D01*
X58385Y-49864D01*
X58371Y-49892D01*
X58357Y-49907D01*
X58328Y-49921D01*
X58242Y-49921D01*
X58214Y-49907D01*
X58200Y-49892D01*
X54628Y-50921D02*
X54628Y-50621D01*
X54742Y-50621D01*
X54771Y-50635D01*
X54785Y-50650D01*
X54800Y-50678D01*
X54800Y-50721D01*
X54785Y-50750D01*
X54771Y-50764D01*
X54742Y-50778D01*
X54628Y-50778D01*
X54928Y-50921D02*
X54928Y-50621D01*
X55000Y-50621D01*
X55042Y-50635D01*
X55071Y-50664D01*
X55085Y-50692D01*
X55100Y-50750D01*
X55100Y-50792D01*
X55085Y-50850D01*
X55071Y-50878D01*
X55042Y-50907D01*
X55000Y-50921D01*
X54928Y-50921D01*
X55371Y-50621D02*
X55228Y-50621D01*
X55214Y-50764D01*
X55228Y-50750D01*
X55257Y-50735D01*
X55328Y-50735D01*
X55357Y-50750D01*
X55371Y-50764D01*
X55385Y-50792D01*
X55385Y-50864D01*
X55371Y-50892D01*
X55357Y-50907D01*
X55328Y-50921D01*
X55257Y-50921D01*
X55228Y-50907D01*
X55214Y-50892D01*
X54628Y-49921D02*
X54628Y-49621D01*
X54742Y-49621D01*
X54771Y-49635D01*
X54785Y-49650D01*
X54800Y-49678D01*
X54800Y-49721D01*
X54785Y-49750D01*
X54771Y-49764D01*
X54742Y-49778D01*
X54628Y-49778D01*
X54928Y-49921D02*
X54928Y-49621D01*
X55000Y-49621D01*
X55042Y-49635D01*
X55071Y-49664D01*
X55085Y-49692D01*
X55100Y-49750D01*
X55100Y-49792D01*
X55085Y-49850D01*
X55071Y-49878D01*
X55042Y-49907D01*
X55000Y-49921D01*
X54928Y-49921D01*
X55200Y-49621D02*
X55400Y-49621D01*
X55271Y-49921D01*
X54628Y-48921D02*
X54628Y-48621D01*
X54742Y-48621D01*
X54771Y-48635D01*
X54785Y-48650D01*
X54800Y-48678D01*
X54800Y-48721D01*
X54785Y-48750D01*
X54771Y-48764D01*
X54742Y-48778D01*
X54628Y-48778D01*
X55028Y-48764D02*
X55071Y-48778D01*
X55085Y-48792D01*
X55100Y-48821D01*
X55100Y-48864D01*
X55085Y-48892D01*
X55071Y-48907D01*
X55042Y-48921D01*
X54928Y-48921D01*
X54928Y-48621D01*
X55028Y-48621D01*
X55057Y-48635D01*
X55071Y-48650D01*
X55085Y-48678D01*
X55085Y-48707D01*
X55071Y-48735D01*
X55057Y-48750D01*
X55028Y-48764D01*
X54928Y-48764D01*
X55357Y-48721D02*
X55357Y-48921D01*
X55285Y-48607D02*
X55214Y-48821D01*
X55400Y-48821D01*
X57628Y-48921D02*
X57628Y-48621D01*
X57742Y-48621D01*
X57771Y-48635D01*
X57785Y-48650D01*
X57800Y-48678D01*
X57800Y-48721D01*
X57785Y-48750D01*
X57771Y-48764D01*
X57742Y-48778D01*
X57628Y-48778D01*
X58028Y-48764D02*
X58071Y-48778D01*
X58085Y-48792D01*
X58100Y-48821D01*
X58100Y-48864D01*
X58085Y-48892D01*
X58071Y-48907D01*
X58042Y-48921D01*
X57928Y-48921D01*
X57928Y-48621D01*
X58028Y-48621D01*
X58057Y-48635D01*
X58071Y-48650D01*
X58085Y-48678D01*
X58085Y-48707D01*
X58071Y-48735D01*
X58057Y-48750D01*
X58028Y-48764D01*
X57928Y-48764D01*
X58371Y-48621D02*
X58228Y-48621D01*
X58214Y-48764D01*
X58228Y-48750D01*
X58257Y-48735D01*
X58328Y-48735D01*
X58357Y-48750D01*
X58371Y-48764D01*
X58385Y-48792D01*
X58385Y-48864D01*
X58371Y-48892D01*
X58357Y-48907D01*
X58328Y-48921D01*
X58257Y-48921D01*
X58228Y-48907D01*
X58214Y-48892D01*
X54628Y-47921D02*
X54628Y-47621D01*
X54742Y-47621D01*
X54771Y-47635D01*
X54785Y-47650D01*
X54800Y-47678D01*
X54800Y-47721D01*
X54785Y-47750D01*
X54771Y-47764D01*
X54742Y-47778D01*
X54628Y-47778D01*
X55028Y-47764D02*
X55071Y-47778D01*
X55085Y-47792D01*
X55100Y-47821D01*
X55100Y-47864D01*
X55085Y-47892D01*
X55071Y-47907D01*
X55042Y-47921D01*
X54928Y-47921D01*
X54928Y-47621D01*
X55028Y-47621D01*
X55057Y-47635D01*
X55071Y-47650D01*
X55085Y-47678D01*
X55085Y-47707D01*
X55071Y-47735D01*
X55057Y-47750D01*
X55028Y-47764D01*
X54928Y-47764D01*
X55357Y-47621D02*
X55300Y-47621D01*
X55271Y-47635D01*
X55257Y-47650D01*
X55228Y-47692D01*
X55214Y-47750D01*
X55214Y-47864D01*
X55228Y-47892D01*
X55242Y-47907D01*
X55271Y-47921D01*
X55328Y-47921D01*
X55357Y-47907D01*
X55371Y-47892D01*
X55385Y-47864D01*
X55385Y-47792D01*
X55371Y-47764D01*
X55357Y-47750D01*
X55328Y-47735D01*
X55271Y-47735D01*
X55242Y-47750D01*
X55228Y-47764D01*
X55214Y-47792D01*
X57628Y-47921D02*
X57628Y-47621D01*
X57742Y-47621D01*
X57771Y-47635D01*
X57785Y-47650D01*
X57800Y-47678D01*
X57800Y-47721D01*
X57785Y-47750D01*
X57771Y-47764D01*
X57742Y-47778D01*
X57628Y-47778D01*
X58028Y-47764D02*
X58071Y-47778D01*
X58085Y-47792D01*
X58100Y-47821D01*
X58100Y-47864D01*
X58085Y-47892D01*
X58071Y-47907D01*
X58042Y-47921D01*
X57928Y-47921D01*
X57928Y-47621D01*
X58028Y-47621D01*
X58057Y-47635D01*
X58071Y-47650D01*
X58085Y-47678D01*
X58085Y-47707D01*
X58071Y-47735D01*
X58057Y-47750D01*
X58028Y-47764D01*
X57928Y-47764D01*
X58200Y-47621D02*
X58400Y-47621D01*
X58271Y-47921D01*
X54150Y-46764D02*
X54192Y-46778D01*
X54207Y-46792D01*
X54221Y-46821D01*
X54221Y-46864D01*
X54207Y-46892D01*
X54192Y-46907D01*
X54164Y-46921D01*
X54050Y-46921D01*
X54050Y-46621D01*
X54150Y-46621D01*
X54178Y-46635D01*
X54192Y-46650D01*
X54207Y-46678D01*
X54207Y-46707D01*
X54192Y-46735D01*
X54178Y-46750D01*
X54150Y-46764D01*
X54050Y-46764D01*
X54407Y-46621D02*
X54464Y-46621D01*
X54492Y-46635D01*
X54521Y-46664D01*
X54535Y-46721D01*
X54535Y-46821D01*
X54521Y-46878D01*
X54492Y-46907D01*
X54464Y-46921D01*
X54407Y-46921D01*
X54378Y-46907D01*
X54350Y-46878D01*
X54335Y-46821D01*
X54335Y-46721D01*
X54350Y-46664D01*
X54378Y-46635D01*
X54407Y-46621D01*
X54721Y-46621D02*
X54778Y-46621D01*
X54807Y-46635D01*
X54835Y-46664D01*
X54850Y-46721D01*
X54850Y-46821D01*
X54835Y-46878D01*
X54807Y-46907D01*
X54778Y-46921D01*
X54721Y-46921D01*
X54692Y-46907D01*
X54664Y-46878D01*
X54650Y-46821D01*
X54650Y-46721D01*
X54664Y-46664D01*
X54692Y-46635D01*
X54721Y-46621D01*
X54935Y-46621D02*
X55107Y-46621D01*
X55021Y-46921D02*
X55021Y-46621D01*
X55264Y-46621D02*
X55292Y-46621D01*
X55321Y-46635D01*
X55335Y-46650D01*
X55350Y-46678D01*
X55364Y-46735D01*
X55364Y-46807D01*
X55350Y-46864D01*
X55335Y-46892D01*
X55321Y-46907D01*
X55292Y-46921D01*
X55264Y-46921D01*
X55235Y-46907D01*
X55221Y-46892D01*
X55207Y-46864D01*
X55192Y-46807D01*
X55192Y-46735D01*
X55207Y-46678D01*
X55221Y-46650D01*
X55235Y-46635D01*
X55264Y-46621D01*
X57650Y-46621D02*
X57750Y-46921D01*
X57850Y-46621D01*
X57950Y-46921D02*
X57950Y-46621D01*
X58021Y-46621D01*
X58064Y-46635D01*
X58092Y-46664D01*
X58107Y-46692D01*
X58121Y-46750D01*
X58121Y-46792D01*
X58107Y-46850D01*
X58092Y-46878D01*
X58064Y-46907D01*
X58021Y-46921D01*
X57950Y-46921D01*
X58250Y-46921D02*
X58250Y-46621D01*
X58321Y-46621D01*
X58364Y-46635D01*
X58392Y-46664D01*
X58407Y-46692D01*
X58421Y-46750D01*
X58421Y-46792D01*
X58407Y-46850D01*
X58392Y-46878D01*
X58364Y-46907D01*
X58321Y-46921D01*
X58250Y-46921D01*
X54628Y-45921D02*
X54628Y-45621D01*
X54742Y-45621D01*
X54771Y-45635D01*
X54785Y-45650D01*
X54800Y-45678D01*
X54800Y-45721D01*
X54785Y-45750D01*
X54771Y-45764D01*
X54742Y-45778D01*
X54628Y-45778D01*
X55028Y-45764D02*
X55071Y-45778D01*
X55085Y-45792D01*
X55100Y-45821D01*
X55100Y-45864D01*
X55085Y-45892D01*
X55071Y-45907D01*
X55042Y-45921D01*
X54928Y-45921D01*
X54928Y-45621D01*
X55028Y-45621D01*
X55057Y-45635D01*
X55071Y-45650D01*
X55085Y-45678D01*
X55085Y-45707D01*
X55071Y-45735D01*
X55057Y-45750D01*
X55028Y-45764D01*
X54928Y-45764D01*
X55271Y-45750D02*
X55242Y-45735D01*
X55228Y-45721D01*
X55214Y-45692D01*
X55214Y-45678D01*
X55228Y-45650D01*
X55242Y-45635D01*
X55271Y-45621D01*
X55328Y-45621D01*
X55357Y-45635D01*
X55371Y-45650D01*
X55385Y-45678D01*
X55385Y-45692D01*
X55371Y-45721D01*
X55357Y-45735D01*
X55328Y-45750D01*
X55271Y-45750D01*
X55242Y-45764D01*
X55228Y-45778D01*
X55214Y-45807D01*
X55214Y-45864D01*
X55228Y-45892D01*
X55242Y-45907D01*
X55271Y-45921D01*
X55328Y-45921D01*
X55357Y-45907D01*
X55371Y-45892D01*
X55385Y-45864D01*
X55385Y-45807D01*
X55371Y-45778D01*
X55357Y-45764D01*
X55328Y-45750D01*
X57678Y-45921D02*
X57678Y-45621D01*
X57792Y-45621D01*
X57821Y-45635D01*
X57835Y-45650D01*
X57850Y-45678D01*
X57850Y-45721D01*
X57835Y-45750D01*
X57821Y-45764D01*
X57792Y-45778D01*
X57678Y-45778D01*
X58078Y-45764D02*
X58121Y-45778D01*
X58135Y-45792D01*
X58150Y-45821D01*
X58150Y-45864D01*
X58135Y-45892D01*
X58121Y-45907D01*
X58092Y-45921D01*
X57978Y-45921D01*
X57978Y-45621D01*
X58078Y-45621D01*
X58107Y-45635D01*
X58121Y-45650D01*
X58135Y-45678D01*
X58135Y-45707D01*
X58121Y-45735D01*
X58107Y-45750D01*
X58078Y-45764D01*
X57978Y-45764D01*
X58292Y-45921D02*
X58350Y-45921D01*
X58378Y-45907D01*
X58392Y-45892D01*
X58421Y-45850D01*
X58435Y-45792D01*
X58435Y-45678D01*
X58421Y-45650D01*
X58407Y-45635D01*
X58378Y-45621D01*
X58321Y-45621D01*
X58292Y-45635D01*
X58278Y-45650D01*
X58264Y-45678D01*
X58264Y-45750D01*
X58278Y-45778D01*
X58292Y-45792D01*
X58321Y-45807D01*
X58378Y-45807D01*
X58407Y-45792D01*
X58421Y-45778D01*
X58435Y-45750D01*
X54642Y-44921D02*
X54642Y-44621D01*
X54757Y-44621D01*
X54785Y-44635D01*
X54800Y-44650D01*
X54814Y-44678D01*
X54814Y-44721D01*
X54800Y-44750D01*
X54785Y-44764D01*
X54757Y-44778D01*
X54642Y-44778D01*
X54942Y-44764D02*
X55042Y-44764D01*
X55085Y-44921D02*
X54942Y-44921D01*
X54942Y-44621D01*
X55085Y-44621D01*
X55271Y-44621D02*
X55300Y-44621D01*
X55328Y-44635D01*
X55342Y-44650D01*
X55357Y-44678D01*
X55371Y-44735D01*
X55371Y-44807D01*
X55357Y-44864D01*
X55342Y-44892D01*
X55328Y-44907D01*
X55300Y-44921D01*
X55271Y-44921D01*
X55242Y-44907D01*
X55228Y-44892D01*
X55214Y-44864D01*
X55200Y-44807D01*
X55200Y-44735D01*
X55214Y-44678D01*
X55228Y-44650D01*
X55242Y-44635D01*
X55271Y-44621D01*
X57692Y-44971D02*
X57692Y-44671D01*
X57807Y-44671D01*
X57835Y-44685D01*
X57850Y-44700D01*
X57864Y-44728D01*
X57864Y-44771D01*
X57850Y-44800D01*
X57835Y-44814D01*
X57807Y-44828D01*
X57692Y-44828D01*
X57992Y-44814D02*
X58092Y-44814D01*
X58135Y-44971D02*
X57992Y-44971D01*
X57992Y-44671D01*
X58135Y-44671D01*
X58421Y-44971D02*
X58250Y-44971D01*
X58335Y-44971D02*
X58335Y-44671D01*
X58307Y-44714D01*
X58278Y-44742D01*
X58250Y-44757D01*
X57692Y-43921D02*
X57692Y-43621D01*
X57807Y-43621D01*
X57835Y-43635D01*
X57850Y-43650D01*
X57864Y-43678D01*
X57864Y-43721D01*
X57850Y-43750D01*
X57835Y-43764D01*
X57807Y-43778D01*
X57692Y-43778D01*
X57992Y-43764D02*
X58092Y-43764D01*
X58135Y-43921D02*
X57992Y-43921D01*
X57992Y-43621D01*
X58135Y-43621D01*
X58235Y-43621D02*
X58421Y-43621D01*
X58321Y-43735D01*
X58364Y-43735D01*
X58392Y-43750D01*
X58407Y-43764D01*
X58421Y-43792D01*
X58421Y-43864D01*
X58407Y-43892D01*
X58392Y-43907D01*
X58364Y-43921D01*
X58278Y-43921D01*
X58250Y-43907D01*
X58235Y-43892D01*
X57692Y-42921D02*
X57692Y-42621D01*
X57807Y-42621D01*
X57835Y-42635D01*
X57850Y-42650D01*
X57864Y-42678D01*
X57864Y-42721D01*
X57850Y-42750D01*
X57835Y-42764D01*
X57807Y-42778D01*
X57692Y-42778D01*
X57992Y-42764D02*
X58092Y-42764D01*
X58135Y-42921D02*
X57992Y-42921D01*
X57992Y-42621D01*
X58135Y-42621D01*
X58407Y-42621D02*
X58264Y-42621D01*
X58250Y-42764D01*
X58264Y-42750D01*
X58292Y-42735D01*
X58364Y-42735D01*
X58392Y-42750D01*
X58407Y-42764D01*
X58421Y-42792D01*
X58421Y-42864D01*
X58407Y-42892D01*
X58392Y-42907D01*
X58364Y-42921D01*
X58292Y-42921D01*
X58264Y-42907D01*
X58250Y-42892D01*
X54642Y-43921D02*
X54642Y-43621D01*
X54757Y-43621D01*
X54785Y-43635D01*
X54800Y-43650D01*
X54814Y-43678D01*
X54814Y-43721D01*
X54800Y-43750D01*
X54785Y-43764D01*
X54757Y-43778D01*
X54642Y-43778D01*
X54942Y-43764D02*
X55042Y-43764D01*
X55085Y-43921D02*
X54942Y-43921D01*
X54942Y-43621D01*
X55085Y-43621D01*
X55200Y-43650D02*
X55214Y-43635D01*
X55242Y-43621D01*
X55314Y-43621D01*
X55342Y-43635D01*
X55357Y-43650D01*
X55371Y-43678D01*
X55371Y-43707D01*
X55357Y-43750D01*
X55185Y-43921D01*
X55371Y-43921D01*
X54642Y-42921D02*
X54642Y-42621D01*
X54757Y-42621D01*
X54785Y-42635D01*
X54800Y-42650D01*
X54814Y-42678D01*
X54814Y-42721D01*
X54800Y-42750D01*
X54785Y-42764D01*
X54757Y-42778D01*
X54642Y-42778D01*
X54942Y-42764D02*
X55042Y-42764D01*
X55085Y-42921D02*
X54942Y-42921D01*
X54942Y-42621D01*
X55085Y-42621D01*
X55342Y-42721D02*
X55342Y-42921D01*
X55271Y-42607D02*
X55200Y-42821D01*
X55385Y-42821D01*
X54642Y-41921D02*
X54642Y-41621D01*
X54757Y-41621D01*
X54785Y-41635D01*
X54800Y-41650D01*
X54814Y-41678D01*
X54814Y-41721D01*
X54800Y-41750D01*
X54785Y-41764D01*
X54757Y-41778D01*
X54642Y-41778D01*
X54942Y-41764D02*
X55042Y-41764D01*
X55085Y-41921D02*
X54942Y-41921D01*
X54942Y-41621D01*
X55085Y-41621D01*
X55342Y-41621D02*
X55285Y-41621D01*
X55257Y-41635D01*
X55242Y-41650D01*
X55214Y-41692D01*
X55200Y-41750D01*
X55200Y-41864D01*
X55214Y-41892D01*
X55228Y-41907D01*
X55257Y-41921D01*
X55314Y-41921D01*
X55342Y-41907D01*
X55357Y-41892D01*
X55371Y-41864D01*
X55371Y-41792D01*
X55357Y-41764D01*
X55342Y-41750D01*
X55314Y-41735D01*
X55257Y-41735D01*
X55228Y-41750D01*
X55214Y-41764D01*
X55200Y-41792D01*
X57610Y-41921D02*
X57610Y-41621D01*
X57725Y-41621D01*
X57753Y-41635D01*
X57767Y-41650D01*
X57782Y-41678D01*
X57782Y-41721D01*
X57767Y-41750D01*
X57753Y-41764D01*
X57725Y-41778D01*
X57610Y-41778D01*
X58082Y-41892D02*
X58067Y-41907D01*
X58025Y-41921D01*
X57996Y-41921D01*
X57953Y-41907D01*
X57925Y-41878D01*
X57910Y-41850D01*
X57896Y-41792D01*
X57896Y-41750D01*
X57910Y-41692D01*
X57925Y-41664D01*
X57953Y-41635D01*
X57996Y-41621D01*
X58025Y-41621D01*
X58067Y-41635D01*
X58082Y-41650D01*
X58367Y-41921D02*
X58196Y-41921D01*
X58282Y-41921D02*
X58282Y-41621D01*
X58253Y-41664D01*
X58225Y-41692D01*
X58196Y-41707D01*
X58467Y-41621D02*
X58653Y-41621D01*
X58553Y-41735D01*
X58596Y-41735D01*
X58625Y-41750D01*
X58639Y-41764D01*
X58653Y-41792D01*
X58653Y-41864D01*
X58639Y-41892D01*
X58625Y-41907D01*
X58596Y-41921D01*
X58510Y-41921D01*
X58482Y-41907D01*
X58467Y-41892D01*
X55214Y-39971D02*
X55214Y-39671D01*
X55385Y-39971D01*
X55385Y-39671D01*
X55700Y-39942D02*
X55685Y-39957D01*
X55642Y-39971D01*
X55614Y-39971D01*
X55571Y-39957D01*
X55542Y-39928D01*
X55528Y-39900D01*
X55514Y-39842D01*
X55514Y-39800D01*
X55528Y-39742D01*
X55542Y-39714D01*
X55571Y-39685D01*
X55614Y-39671D01*
X55642Y-39671D01*
X55685Y-39685D01*
X55700Y-39700D01*
X55771Y-35935D02*
X55742Y-35921D01*
X55700Y-35921D01*
X55657Y-35935D01*
X55628Y-35964D01*
X55614Y-35992D01*
X55600Y-36050D01*
X55600Y-36092D01*
X55614Y-36150D01*
X55628Y-36178D01*
X55657Y-36207D01*
X55700Y-36221D01*
X55728Y-36221D01*
X55771Y-36207D01*
X55785Y-36192D01*
X55785Y-36092D01*
X55728Y-36092D01*
X55914Y-36221D02*
X55914Y-35921D01*
X56085Y-36221D01*
X56085Y-35921D01*
X56228Y-36221D02*
X56228Y-35921D01*
X56300Y-35921D01*
X56342Y-35935D01*
X56371Y-35964D01*
X56385Y-35992D01*
X56400Y-36050D01*
X56400Y-36092D01*
X56385Y-36150D01*
X56371Y-36178D01*
X56342Y-36207D01*
X56300Y-36221D01*
X56228Y-36221D01*
X54864Y-41021D02*
X54864Y-40721D01*
X55035Y-41021D01*
X55035Y-40721D01*
X55350Y-40992D02*
X55335Y-41007D01*
X55292Y-41021D01*
X55264Y-41021D01*
X55221Y-41007D01*
X55192Y-40978D01*
X55178Y-40950D01*
X55164Y-40892D01*
X55164Y-40850D01*
X55178Y-40792D01*
X55192Y-40764D01*
X55221Y-40735D01*
X55264Y-40721D01*
X55292Y-40721D01*
X55335Y-40735D01*
X55350Y-40750D01*
X57664Y-40921D02*
X57664Y-40621D01*
X57835Y-40921D01*
X57835Y-40621D01*
X58150Y-40892D02*
X58135Y-40907D01*
X58092Y-40921D01*
X58064Y-40921D01*
X58021Y-40907D01*
X57992Y-40878D01*
X57978Y-40850D01*
X57964Y-40792D01*
X57964Y-40750D01*
X57978Y-40692D01*
X57992Y-40664D01*
X58021Y-40635D01*
X58064Y-40621D01*
X58092Y-40621D01*
X58135Y-40635D01*
X58150Y-40650D01*
X57664Y-39921D02*
X57664Y-39621D01*
X57835Y-39921D01*
X57835Y-39621D01*
X58150Y-39892D02*
X58135Y-39907D01*
X58092Y-39921D01*
X58064Y-39921D01*
X58021Y-39907D01*
X57992Y-39878D01*
X57978Y-39850D01*
X57964Y-39792D01*
X57964Y-39750D01*
X57978Y-39692D01*
X57992Y-39664D01*
X58021Y-39635D01*
X58064Y-39621D01*
X58092Y-39621D01*
X58135Y-39635D01*
X58150Y-39650D01*
X46442Y-33171D02*
X46300Y-33171D01*
X46285Y-33314D01*
X46300Y-33300D01*
X46328Y-33285D01*
X46400Y-33285D01*
X46428Y-33300D01*
X46442Y-33314D01*
X46457Y-33342D01*
X46457Y-33414D01*
X46442Y-33442D01*
X46428Y-33457D01*
X46400Y-33471D01*
X46328Y-33471D01*
X46300Y-33457D01*
X46285Y-33442D01*
X46542Y-33171D02*
X46642Y-33471D01*
X46742Y-33171D01*
X45271Y-33185D02*
X45242Y-33171D01*
X45200Y-33171D01*
X45157Y-33185D01*
X45128Y-33214D01*
X45114Y-33242D01*
X45100Y-33300D01*
X45100Y-33342D01*
X45114Y-33400D01*
X45128Y-33428D01*
X45157Y-33457D01*
X45200Y-33471D01*
X45228Y-33471D01*
X45271Y-33457D01*
X45285Y-33442D01*
X45285Y-33342D01*
X45228Y-33342D01*
X45414Y-33471D02*
X45414Y-33171D01*
X45585Y-33471D01*
X45585Y-33171D01*
X45728Y-33471D02*
X45728Y-33171D01*
X45800Y-33171D01*
X45842Y-33185D01*
X45871Y-33214D01*
X45885Y-33242D01*
X45900Y-33300D01*
X45900Y-33342D01*
X45885Y-33400D01*
X45871Y-33428D01*
X45842Y-33457D01*
X45800Y-33471D01*
X45728Y-33471D01*
X57621Y-38621D02*
X57807Y-38621D01*
X57707Y-38735D01*
X57750Y-38735D01*
X57778Y-38750D01*
X57792Y-38764D01*
X57807Y-38792D01*
X57807Y-38864D01*
X57792Y-38892D01*
X57778Y-38907D01*
X57750Y-38921D01*
X57664Y-38921D01*
X57635Y-38907D01*
X57621Y-38892D01*
X57892Y-38621D02*
X57992Y-38921D01*
X58092Y-38621D01*
X57792Y-37621D02*
X57650Y-37621D01*
X57635Y-37764D01*
X57650Y-37750D01*
X57678Y-37735D01*
X57750Y-37735D01*
X57778Y-37750D01*
X57792Y-37764D01*
X57807Y-37792D01*
X57807Y-37864D01*
X57792Y-37892D01*
X57778Y-37907D01*
X57750Y-37921D01*
X57678Y-37921D01*
X57650Y-37907D01*
X57635Y-37892D01*
X57892Y-37621D02*
X57992Y-37921D01*
X58092Y-37621D01*
X57771Y-36635D02*
X57742Y-36621D01*
X57700Y-36621D01*
X57657Y-36635D01*
X57628Y-36664D01*
X57614Y-36692D01*
X57600Y-36750D01*
X57600Y-36792D01*
X57614Y-36850D01*
X57628Y-36878D01*
X57657Y-36907D01*
X57700Y-36921D01*
X57728Y-36921D01*
X57771Y-36907D01*
X57785Y-36892D01*
X57785Y-36792D01*
X57728Y-36792D01*
X57914Y-36921D02*
X57914Y-36621D01*
X58085Y-36921D01*
X58085Y-36621D01*
X58228Y-36921D02*
X58228Y-36621D01*
X58300Y-36621D01*
X58342Y-36635D01*
X58371Y-36664D01*
X58385Y-36692D01*
X58400Y-36750D01*
X58400Y-36792D01*
X58385Y-36850D01*
X58371Y-36878D01*
X58342Y-36907D01*
X58300Y-36921D01*
X58228Y-36921D01*
G54D14*
X52450Y-51525D02*
G75*
G03X52450Y-51525I-50J0D01*
G74*
G01*
X52400Y-51075D02*
X52400Y-51475D01*
X52400Y-51475D02*
X51800Y-51475D01*
X51800Y-51475D02*
X51800Y-51075D01*
X51800Y-50675D02*
X51800Y-50275D01*
X51800Y-50275D02*
X52400Y-50275D01*
X52400Y-50275D02*
X52400Y-50675D01*
X46500Y-39350D02*
G75*
G03X46500Y-39350I-50J0D01*
G74*
G01*
X46900Y-39350D02*
X46500Y-39350D01*
X46500Y-39350D02*
X46500Y-38750D01*
X46500Y-38750D02*
X46900Y-38750D01*
X47300Y-38750D02*
X47700Y-38750D01*
X47700Y-38750D02*
X47700Y-39350D01*
X47700Y-39350D02*
X47300Y-39350D01*
X46450Y-38750D02*
G75*
G03X46450Y-38750I-50J0D01*
G74*
G01*
X45950Y-38750D02*
X46350Y-38750D01*
X46350Y-38750D02*
X46350Y-39350D01*
X46350Y-39350D02*
X45950Y-39350D01*
X45550Y-39350D02*
X45150Y-39350D01*
X45150Y-39350D02*
X45150Y-38750D01*
X45150Y-38750D02*
X45550Y-38750D01*
X46525Y-52575D02*
G75*
G03X46525Y-52575I-50J0D01*
G74*
G01*
X46475Y-52125D02*
X46475Y-52525D01*
X46475Y-52525D02*
X45875Y-52525D01*
X45875Y-52525D02*
X45875Y-52125D01*
X45875Y-51725D02*
X45875Y-51325D01*
X45875Y-51325D02*
X46475Y-51325D01*
X46475Y-51325D02*
X46475Y-51725D01*
X39400Y-41150D02*
G75*
G03X39400Y-41150I-50J0D01*
G74*
G01*
X39800Y-41150D02*
X39400Y-41150D01*
X39400Y-41150D02*
X39400Y-40550D01*
X39400Y-40550D02*
X39800Y-40550D01*
X40200Y-40550D02*
X40600Y-40550D01*
X40600Y-40550D02*
X40600Y-41150D01*
X40600Y-41150D02*
X40200Y-41150D01*
X39400Y-41800D02*
G75*
G03X39400Y-41800I-50J0D01*
G74*
G01*
X39800Y-41800D02*
X39400Y-41800D01*
X39400Y-41800D02*
X39400Y-41200D01*
X39400Y-41200D02*
X39800Y-41200D01*
X40200Y-41200D02*
X40600Y-41200D01*
X40600Y-41200D02*
X40600Y-41800D01*
X40600Y-41800D02*
X40200Y-41800D01*
X40700Y-39150D02*
G75*
G03X40700Y-39150I-50J0D01*
G74*
G01*
X40650Y-39600D02*
X40650Y-39200D01*
X40650Y-39200D02*
X41250Y-39200D01*
X41250Y-39200D02*
X41250Y-39600D01*
X41250Y-40000D02*
X41250Y-40400D01*
X41250Y-40400D02*
X40650Y-40400D01*
X40650Y-40400D02*
X40650Y-40000D01*
X41400Y-39150D02*
G75*
G03X41400Y-39150I-50J0D01*
G74*
G01*
X41350Y-39600D02*
X41350Y-39200D01*
X41350Y-39200D02*
X41950Y-39200D01*
X41950Y-39200D02*
X41950Y-39600D01*
X41950Y-40000D02*
X41950Y-40400D01*
X41950Y-40400D02*
X41350Y-40400D01*
X41350Y-40400D02*
X41350Y-40000D01*
X49750Y-37350D02*
G75*
G03X49750Y-37350I-50J0D01*
G74*
G01*
X49700Y-36900D02*
X49700Y-37300D01*
X49700Y-37300D02*
X49100Y-37300D01*
X49100Y-37300D02*
X49100Y-36900D01*
X49100Y-36500D02*
X49100Y-36100D01*
X49100Y-36100D02*
X49700Y-36100D01*
X49700Y-36100D02*
X49700Y-36500D01*
X40550Y-37100D02*
G75*
G03X40550Y-37100I-50J0D01*
G74*
G01*
X40050Y-37100D02*
X40450Y-37100D01*
X40450Y-37100D02*
X40450Y-37700D01*
X40450Y-37700D02*
X40050Y-37700D01*
X39650Y-37700D02*
X39250Y-37700D01*
X39250Y-37700D02*
X39250Y-37100D01*
X39250Y-37100D02*
X39650Y-37100D01*
X45250Y-35800D02*
G75*
G03X45250Y-35800I-50J0D01*
G74*
G01*
X45650Y-35800D02*
X45250Y-35800D01*
X45250Y-35800D02*
X45250Y-35200D01*
X45250Y-35200D02*
X45650Y-35200D01*
X46050Y-35200D02*
X46450Y-35200D01*
X46450Y-35200D02*
X46450Y-35800D01*
X46450Y-35800D02*
X46050Y-35800D01*
X43200Y-48050D02*
G75*
G03X43200Y-48050I-50J0D01*
G74*
G01*
X43150Y-47600D02*
X43150Y-48000D01*
X43150Y-48000D02*
X42550Y-48000D01*
X42550Y-48000D02*
X42550Y-47600D01*
X42550Y-47200D02*
X42550Y-46800D01*
X42550Y-46800D02*
X43150Y-46800D01*
X43150Y-46800D02*
X43150Y-47200D01*
X50600Y-46950D02*
G75*
G03X50600Y-46950I-50J0D01*
G74*
G01*
X50100Y-46950D02*
X50500Y-46950D01*
X50500Y-46950D02*
X50500Y-47550D01*
X50500Y-47550D02*
X50100Y-47550D01*
X49700Y-47550D02*
X49300Y-47550D01*
X49300Y-47550D02*
X49300Y-46950D01*
X49300Y-46950D02*
X49700Y-46950D01*
X52250Y-41300D02*
G75*
G03X52250Y-41300I-50J0D01*
G74*
G01*
X51750Y-41300D02*
X52150Y-41300D01*
X52150Y-41300D02*
X52150Y-41900D01*
X52150Y-41900D02*
X51750Y-41900D01*
X51350Y-41900D02*
X50950Y-41900D01*
X50950Y-41900D02*
X50950Y-41300D01*
X50950Y-41300D02*
X51350Y-41300D01*
X41850Y-47300D02*
G75*
G03X41850Y-47300I-50J0D01*
G74*
G01*
X41800Y-47750D02*
X41800Y-47350D01*
X41800Y-47350D02*
X42400Y-47350D01*
X42400Y-47350D02*
X42400Y-47750D01*
X42400Y-48150D02*
X42400Y-48550D01*
X42400Y-48550D02*
X41800Y-48550D01*
X41800Y-48550D02*
X41800Y-48150D01*
X55200Y-40650D02*
G75*
G03X55200Y-40650I-50J0D01*
G74*
G01*
X55150Y-40200D02*
X55150Y-40600D01*
X55150Y-40600D02*
X54550Y-40600D01*
X54550Y-40600D02*
X54550Y-40200D01*
X54550Y-39800D02*
X54550Y-39400D01*
X54550Y-39400D02*
X55150Y-39400D01*
X55150Y-39400D02*
X55150Y-39800D01*
X49925Y-48575D02*
G75*
G03X49925Y-48575I-50J0D01*
G74*
G01*
X50325Y-48575D02*
X49925Y-48575D01*
X49925Y-48575D02*
X49925Y-47975D01*
X49925Y-47975D02*
X50325Y-47975D01*
X50725Y-47975D02*
X51125Y-47975D01*
X51125Y-47975D02*
X51125Y-48575D01*
X51125Y-48575D02*
X50725Y-48575D01*
X48300Y-36000D02*
G75*
G03X48300Y-36000I-50J0D01*
G74*
G01*
X48700Y-36000D02*
X48300Y-36000D01*
X48300Y-36000D02*
X48300Y-35400D01*
X48300Y-35400D02*
X48700Y-35400D01*
X49100Y-35400D02*
X49500Y-35400D01*
X49500Y-35400D02*
X49500Y-36000D01*
X49500Y-36000D02*
X49100Y-36000D01*
X49600Y-34550D02*
G75*
G03X49600Y-34550I-50J0D01*
G74*
G01*
X49100Y-34550D02*
X49500Y-34550D01*
X49500Y-34550D02*
X49500Y-35150D01*
X49500Y-35150D02*
X49100Y-35150D01*
X48700Y-35150D02*
X48300Y-35150D01*
X48300Y-35150D02*
X48300Y-34550D01*
X48300Y-34550D02*
X48700Y-34550D01*
G54D15*
X39832Y-60796D02*
X39704Y-60796D01*
X39704Y-60796D02*
X39704Y-60993D01*
X39832Y-60993D02*
X39704Y-60993D01*
X39832Y-60796D02*
X39832Y-60993D01*
X40077Y-60796D02*
X40018Y-60796D01*
X40018Y-60796D02*
X40018Y-60895D01*
X40077Y-60895D02*
X40018Y-60895D01*
X40077Y-60796D02*
X40077Y-60895D01*
X39882Y-60796D02*
X39823Y-60796D01*
X39823Y-60796D02*
X39823Y-60895D01*
X39882Y-60895D02*
X39823Y-60895D01*
X39882Y-60796D02*
X39882Y-60895D01*
X40028Y-60796D02*
X39872Y-60796D01*
X39872Y-60796D02*
X39872Y-60865D01*
X40028Y-60865D02*
X39872Y-60865D01*
X40028Y-60796D02*
X40028Y-60865D01*
X39832Y-60207D02*
X39704Y-60207D01*
X39704Y-60207D02*
X39704Y-60404D01*
X39832Y-60404D02*
X39704Y-60404D01*
X39832Y-60207D02*
X39832Y-60404D01*
X40196Y-60207D02*
X40068Y-60207D01*
X40068Y-60207D02*
X40068Y-60404D01*
X40196Y-60404D02*
X40068Y-60404D01*
X40196Y-60207D02*
X40196Y-60404D01*
X39882Y-60305D02*
X39823Y-60305D01*
X39823Y-60305D02*
X39823Y-60404D01*
X39882Y-60404D02*
X39823Y-60404D01*
X39882Y-60305D02*
X39882Y-60404D01*
X40077Y-60305D02*
X40018Y-60305D01*
X40018Y-60305D02*
X40018Y-60404D01*
X40077Y-60404D02*
X40018Y-60404D01*
X40077Y-60305D02*
X40077Y-60404D01*
X40028Y-60335D02*
X39872Y-60335D01*
X39872Y-60335D02*
X39872Y-60404D01*
X40028Y-60404D02*
X39872Y-60404D01*
X40028Y-60335D02*
X40028Y-60404D01*
X39989Y-60600D02*
X39911Y-60600D01*
X39911Y-60600D02*
X39911Y-60678D01*
X39989Y-60678D02*
X39911Y-60678D01*
X39989Y-60600D02*
X39989Y-60678D01*
X40186Y-60796D02*
X40068Y-60796D01*
X40068Y-60796D02*
X40068Y-60914D01*
X40186Y-60914D02*
X40068Y-60914D01*
X40186Y-60796D02*
X40186Y-60914D01*
X40196Y-60964D02*
X40107Y-60964D01*
X40107Y-60964D02*
X40107Y-60993D01*
X40196Y-60993D02*
X40107Y-60993D01*
X40196Y-60964D02*
X40196Y-60993D01*
G54D16*
X39724Y-60806D02*
X39724Y-60394D01*
X40176Y-60404D02*
X40176Y-60964D01*
G54D17*
X40155Y-60934D02*
G75*
G03X40155Y-60934I-28J0D01*
G74*
G01*
G54D16*
X40087Y-60993D02*
G75*
G03X39813Y-60993I-137J0D01*
G74*
G01*
X39813Y-60207D02*
G75*
G03X40087Y-60207I137J0D01*
G74*
G01*
G54D15*
X41032Y-60796D02*
X40904Y-60796D01*
X40904Y-60796D02*
X40904Y-60993D01*
X41032Y-60993D02*
X40904Y-60993D01*
X41032Y-60796D02*
X41032Y-60993D01*
X41277Y-60796D02*
X41218Y-60796D01*
X41218Y-60796D02*
X41218Y-60895D01*
X41277Y-60895D02*
X41218Y-60895D01*
X41277Y-60796D02*
X41277Y-60895D01*
X41082Y-60796D02*
X41023Y-60796D01*
X41023Y-60796D02*
X41023Y-60895D01*
X41082Y-60895D02*
X41023Y-60895D01*
X41082Y-60796D02*
X41082Y-60895D01*
X41228Y-60796D02*
X41072Y-60796D01*
X41072Y-60796D02*
X41072Y-60865D01*
X41228Y-60865D02*
X41072Y-60865D01*
X41228Y-60796D02*
X41228Y-60865D01*
X41032Y-60207D02*
X40904Y-60207D01*
X40904Y-60207D02*
X40904Y-60404D01*
X41032Y-60404D02*
X40904Y-60404D01*
X41032Y-60207D02*
X41032Y-60404D01*
X41396Y-60207D02*
X41268Y-60207D01*
X41268Y-60207D02*
X41268Y-60404D01*
X41396Y-60404D02*
X41268Y-60404D01*
X41396Y-60207D02*
X41396Y-60404D01*
X41082Y-60305D02*
X41023Y-60305D01*
X41023Y-60305D02*
X41023Y-60404D01*
X41082Y-60404D02*
X41023Y-60404D01*
X41082Y-60305D02*
X41082Y-60404D01*
X41277Y-60305D02*
X41218Y-60305D01*
X41218Y-60305D02*
X41218Y-60404D01*
X41277Y-60404D02*
X41218Y-60404D01*
X41277Y-60305D02*
X41277Y-60404D01*
X41228Y-60335D02*
X41072Y-60335D01*
X41072Y-60335D02*
X41072Y-60404D01*
X41228Y-60404D02*
X41072Y-60404D01*
X41228Y-60335D02*
X41228Y-60404D01*
X41189Y-60600D02*
X41111Y-60600D01*
X41111Y-60600D02*
X41111Y-60678D01*
X41189Y-60678D02*
X41111Y-60678D01*
X41189Y-60600D02*
X41189Y-60678D01*
X41386Y-60796D02*
X41268Y-60796D01*
X41268Y-60796D02*
X41268Y-60914D01*
X41386Y-60914D02*
X41268Y-60914D01*
X41386Y-60796D02*
X41386Y-60914D01*
X41396Y-60964D02*
X41307Y-60964D01*
X41307Y-60964D02*
X41307Y-60993D01*
X41396Y-60993D02*
X41307Y-60993D01*
X41396Y-60964D02*
X41396Y-60993D01*
G54D16*
X40924Y-60806D02*
X40924Y-60394D01*
X41376Y-60404D02*
X41376Y-60964D01*
G54D17*
X41355Y-60934D02*
G75*
G03X41355Y-60934I-28J0D01*
G74*
G01*
G54D16*
X41287Y-60993D02*
G75*
G03X41013Y-60993I-137J0D01*
G74*
G01*
X41013Y-60207D02*
G75*
G03X41287Y-60207I137J0D01*
G74*
G01*
G54D15*
X42232Y-60796D02*
X42104Y-60796D01*
X42104Y-60796D02*
X42104Y-60993D01*
X42232Y-60993D02*
X42104Y-60993D01*
X42232Y-60796D02*
X42232Y-60993D01*
X42477Y-60796D02*
X42418Y-60796D01*
X42418Y-60796D02*
X42418Y-60895D01*
X42477Y-60895D02*
X42418Y-60895D01*
X42477Y-60796D02*
X42477Y-60895D01*
X42282Y-60796D02*
X42223Y-60796D01*
X42223Y-60796D02*
X42223Y-60895D01*
X42282Y-60895D02*
X42223Y-60895D01*
X42282Y-60796D02*
X42282Y-60895D01*
X42428Y-60796D02*
X42272Y-60796D01*
X42272Y-60796D02*
X42272Y-60865D01*
X42428Y-60865D02*
X42272Y-60865D01*
X42428Y-60796D02*
X42428Y-60865D01*
X42232Y-60207D02*
X42104Y-60207D01*
X42104Y-60207D02*
X42104Y-60404D01*
X42232Y-60404D02*
X42104Y-60404D01*
X42232Y-60207D02*
X42232Y-60404D01*
X42596Y-60207D02*
X42468Y-60207D01*
X42468Y-60207D02*
X42468Y-60404D01*
X42596Y-60404D02*
X42468Y-60404D01*
X42596Y-60207D02*
X42596Y-60404D01*
X42282Y-60305D02*
X42223Y-60305D01*
X42223Y-60305D02*
X42223Y-60404D01*
X42282Y-60404D02*
X42223Y-60404D01*
X42282Y-60305D02*
X42282Y-60404D01*
X42477Y-60305D02*
X42418Y-60305D01*
X42418Y-60305D02*
X42418Y-60404D01*
X42477Y-60404D02*
X42418Y-60404D01*
X42477Y-60305D02*
X42477Y-60404D01*
X42428Y-60335D02*
X42272Y-60335D01*
X42272Y-60335D02*
X42272Y-60404D01*
X42428Y-60404D02*
X42272Y-60404D01*
X42428Y-60335D02*
X42428Y-60404D01*
X42389Y-60600D02*
X42311Y-60600D01*
X42311Y-60600D02*
X42311Y-60678D01*
X42389Y-60678D02*
X42311Y-60678D01*
X42389Y-60600D02*
X42389Y-60678D01*
X42586Y-60796D02*
X42468Y-60796D01*
X42468Y-60796D02*
X42468Y-60914D01*
X42586Y-60914D02*
X42468Y-60914D01*
X42586Y-60796D02*
X42586Y-60914D01*
X42596Y-60964D02*
X42507Y-60964D01*
X42507Y-60964D02*
X42507Y-60993D01*
X42596Y-60993D02*
X42507Y-60993D01*
X42596Y-60964D02*
X42596Y-60993D01*
G54D16*
X42124Y-60806D02*
X42124Y-60394D01*
X42576Y-60404D02*
X42576Y-60964D01*
G54D17*
X42555Y-60934D02*
G75*
G03X42555Y-60934I-28J0D01*
G74*
G01*
G54D16*
X42487Y-60993D02*
G75*
G03X42213Y-60993I-137J0D01*
G74*
G01*
X42213Y-60207D02*
G75*
G03X42487Y-60207I137J0D01*
G74*
G01*
G54D15*
X43432Y-60796D02*
X43304Y-60796D01*
X43304Y-60796D02*
X43304Y-60993D01*
X43432Y-60993D02*
X43304Y-60993D01*
X43432Y-60796D02*
X43432Y-60993D01*
X43677Y-60796D02*
X43618Y-60796D01*
X43618Y-60796D02*
X43618Y-60895D01*
X43677Y-60895D02*
X43618Y-60895D01*
X43677Y-60796D02*
X43677Y-60895D01*
X43482Y-60796D02*
X43423Y-60796D01*
X43423Y-60796D02*
X43423Y-60895D01*
X43482Y-60895D02*
X43423Y-60895D01*
X43482Y-60796D02*
X43482Y-60895D01*
X43628Y-60796D02*
X43472Y-60796D01*
X43472Y-60796D02*
X43472Y-60865D01*
X43628Y-60865D02*
X43472Y-60865D01*
X43628Y-60796D02*
X43628Y-60865D01*
X43432Y-60207D02*
X43304Y-60207D01*
X43304Y-60207D02*
X43304Y-60404D01*
X43432Y-60404D02*
X43304Y-60404D01*
X43432Y-60207D02*
X43432Y-60404D01*
X43796Y-60207D02*
X43668Y-60207D01*
X43668Y-60207D02*
X43668Y-60404D01*
X43796Y-60404D02*
X43668Y-60404D01*
X43796Y-60207D02*
X43796Y-60404D01*
X43482Y-60305D02*
X43423Y-60305D01*
X43423Y-60305D02*
X43423Y-60404D01*
X43482Y-60404D02*
X43423Y-60404D01*
X43482Y-60305D02*
X43482Y-60404D01*
X43677Y-60305D02*
X43618Y-60305D01*
X43618Y-60305D02*
X43618Y-60404D01*
X43677Y-60404D02*
X43618Y-60404D01*
X43677Y-60305D02*
X43677Y-60404D01*
X43628Y-60335D02*
X43472Y-60335D01*
X43472Y-60335D02*
X43472Y-60404D01*
X43628Y-60404D02*
X43472Y-60404D01*
X43628Y-60335D02*
X43628Y-60404D01*
X43589Y-60600D02*
X43511Y-60600D01*
X43511Y-60600D02*
X43511Y-60678D01*
X43589Y-60678D02*
X43511Y-60678D01*
X43589Y-60600D02*
X43589Y-60678D01*
X43786Y-60796D02*
X43668Y-60796D01*
X43668Y-60796D02*
X43668Y-60914D01*
X43786Y-60914D02*
X43668Y-60914D01*
X43786Y-60796D02*
X43786Y-60914D01*
X43796Y-60964D02*
X43707Y-60964D01*
X43707Y-60964D02*
X43707Y-60993D01*
X43796Y-60993D02*
X43707Y-60993D01*
X43796Y-60964D02*
X43796Y-60993D01*
G54D16*
X43324Y-60806D02*
X43324Y-60394D01*
X43776Y-60404D02*
X43776Y-60964D01*
G54D17*
X43755Y-60934D02*
G75*
G03X43755Y-60934I-28J0D01*
G74*
G01*
G54D16*
X43687Y-60993D02*
G75*
G03X43413Y-60993I-137J0D01*
G74*
G01*
X43413Y-60207D02*
G75*
G03X43687Y-60207I137J0D01*
G74*
G01*
G54D15*
X47496Y-35618D02*
X47496Y-35746D01*
X47496Y-35746D02*
X47693Y-35746D01*
X47693Y-35618D02*
X47693Y-35746D01*
X47496Y-35618D02*
X47693Y-35618D01*
X47496Y-35373D02*
X47496Y-35432D01*
X47496Y-35432D02*
X47595Y-35432D01*
X47595Y-35373D02*
X47595Y-35432D01*
X47496Y-35373D02*
X47595Y-35373D01*
X47496Y-35568D02*
X47496Y-35627D01*
X47496Y-35627D02*
X47595Y-35627D01*
X47595Y-35568D02*
X47595Y-35627D01*
X47496Y-35568D02*
X47595Y-35568D01*
X47496Y-35422D02*
X47496Y-35578D01*
X47496Y-35578D02*
X47565Y-35578D01*
X47565Y-35422D02*
X47565Y-35578D01*
X47496Y-35422D02*
X47565Y-35422D01*
X46907Y-35618D02*
X46907Y-35746D01*
X46907Y-35746D02*
X47104Y-35746D01*
X47104Y-35618D02*
X47104Y-35746D01*
X46907Y-35618D02*
X47104Y-35618D01*
X46907Y-35254D02*
X46907Y-35382D01*
X46907Y-35382D02*
X47104Y-35382D01*
X47104Y-35254D02*
X47104Y-35382D01*
X46907Y-35254D02*
X47104Y-35254D01*
X47005Y-35568D02*
X47005Y-35627D01*
X47005Y-35627D02*
X47104Y-35627D01*
X47104Y-35568D02*
X47104Y-35627D01*
X47005Y-35568D02*
X47104Y-35568D01*
X47005Y-35373D02*
X47005Y-35432D01*
X47005Y-35432D02*
X47104Y-35432D01*
X47104Y-35373D02*
X47104Y-35432D01*
X47005Y-35373D02*
X47104Y-35373D01*
X47035Y-35422D02*
X47035Y-35578D01*
X47035Y-35578D02*
X47104Y-35578D01*
X47104Y-35422D02*
X47104Y-35578D01*
X47035Y-35422D02*
X47104Y-35422D01*
X47300Y-35461D02*
X47300Y-35539D01*
X47300Y-35539D02*
X47378Y-35539D01*
X47378Y-35461D02*
X47378Y-35539D01*
X47300Y-35461D02*
X47378Y-35461D01*
X47496Y-35264D02*
X47496Y-35382D01*
X47496Y-35382D02*
X47614Y-35382D01*
X47614Y-35264D02*
X47614Y-35382D01*
X47496Y-35264D02*
X47614Y-35264D01*
X47664Y-35254D02*
X47664Y-35343D01*
X47664Y-35343D02*
X47693Y-35343D01*
X47693Y-35254D02*
X47693Y-35343D01*
X47664Y-35254D02*
X47693Y-35254D01*
G54D16*
X47506Y-35726D02*
X47094Y-35726D01*
X47104Y-35274D02*
X47664Y-35274D01*
G54D17*
X47662Y-35323D02*
G75*
G03X47662Y-35323I-28J0D01*
G74*
G01*
G54D16*
X47693Y-35363D02*
G75*
G03X47693Y-35637I0J-137D01*
G74*
G01*
X46907Y-35637D02*
G75*
G03X46907Y-35363I0J137D01*
G74*
G01*
G54D15*
X51396Y-60018D02*
X51396Y-60146D01*
X51396Y-60146D02*
X51593Y-60146D01*
X51593Y-60018D02*
X51593Y-60146D01*
X51396Y-60018D02*
X51593Y-60018D01*
X51396Y-59773D02*
X51396Y-59832D01*
X51396Y-59832D02*
X51495Y-59832D01*
X51495Y-59773D02*
X51495Y-59832D01*
X51396Y-59773D02*
X51495Y-59773D01*
X51396Y-59968D02*
X51396Y-60027D01*
X51396Y-60027D02*
X51495Y-60027D01*
X51495Y-59968D02*
X51495Y-60027D01*
X51396Y-59968D02*
X51495Y-59968D01*
X51396Y-59822D02*
X51396Y-59978D01*
X51396Y-59978D02*
X51465Y-59978D01*
X51465Y-59822D02*
X51465Y-59978D01*
X51396Y-59822D02*
X51465Y-59822D01*
X50807Y-60018D02*
X50807Y-60146D01*
X50807Y-60146D02*
X51004Y-60146D01*
X51004Y-60018D02*
X51004Y-60146D01*
X50807Y-60018D02*
X51004Y-60018D01*
X50807Y-59654D02*
X50807Y-59782D01*
X50807Y-59782D02*
X51004Y-59782D01*
X51004Y-59654D02*
X51004Y-59782D01*
X50807Y-59654D02*
X51004Y-59654D01*
X50905Y-59968D02*
X50905Y-60027D01*
X50905Y-60027D02*
X51004Y-60027D01*
X51004Y-59968D02*
X51004Y-60027D01*
X50905Y-59968D02*
X51004Y-59968D01*
X50905Y-59773D02*
X50905Y-59832D01*
X50905Y-59832D02*
X51004Y-59832D01*
X51004Y-59773D02*
X51004Y-59832D01*
X50905Y-59773D02*
X51004Y-59773D01*
X50935Y-59822D02*
X50935Y-59978D01*
X50935Y-59978D02*
X51004Y-59978D01*
X51004Y-59822D02*
X51004Y-59978D01*
X50935Y-59822D02*
X51004Y-59822D01*
X51200Y-59861D02*
X51200Y-59939D01*
X51200Y-59939D02*
X51278Y-59939D01*
X51278Y-59861D02*
X51278Y-59939D01*
X51200Y-59861D02*
X51278Y-59861D01*
X51396Y-59664D02*
X51396Y-59782D01*
X51396Y-59782D02*
X51514Y-59782D01*
X51514Y-59664D02*
X51514Y-59782D01*
X51396Y-59664D02*
X51514Y-59664D01*
X51564Y-59654D02*
X51564Y-59743D01*
X51564Y-59743D02*
X51593Y-59743D01*
X51593Y-59654D02*
X51593Y-59743D01*
X51564Y-59654D02*
X51593Y-59654D01*
G54D16*
X51406Y-60126D02*
X50994Y-60126D01*
X51004Y-59674D02*
X51564Y-59674D01*
G54D17*
X51562Y-59723D02*
G75*
G03X51562Y-59723I-28J0D01*
G74*
G01*
G54D16*
X51593Y-59763D02*
G75*
G03X51593Y-60037I0J-137D01*
G74*
G01*
X50807Y-60037D02*
G75*
G03X50807Y-59763I0J137D01*
G74*
G01*
G54D15*
X55746Y-35768D02*
X55746Y-35896D01*
X55746Y-35896D02*
X55943Y-35896D01*
X55943Y-35768D02*
X55943Y-35896D01*
X55746Y-35768D02*
X55943Y-35768D01*
X55746Y-35523D02*
X55746Y-35582D01*
X55746Y-35582D02*
X55845Y-35582D01*
X55845Y-35523D02*
X55845Y-35582D01*
X55746Y-35523D02*
X55845Y-35523D01*
X55746Y-35718D02*
X55746Y-35777D01*
X55746Y-35777D02*
X55845Y-35777D01*
X55845Y-35718D02*
X55845Y-35777D01*
X55746Y-35718D02*
X55845Y-35718D01*
X55746Y-35572D02*
X55746Y-35728D01*
X55746Y-35728D02*
X55815Y-35728D01*
X55815Y-35572D02*
X55815Y-35728D01*
X55746Y-35572D02*
X55815Y-35572D01*
X55157Y-35768D02*
X55157Y-35896D01*
X55157Y-35896D02*
X55354Y-35896D01*
X55354Y-35768D02*
X55354Y-35896D01*
X55157Y-35768D02*
X55354Y-35768D01*
X55157Y-35404D02*
X55157Y-35532D01*
X55157Y-35532D02*
X55354Y-35532D01*
X55354Y-35404D02*
X55354Y-35532D01*
X55157Y-35404D02*
X55354Y-35404D01*
X55255Y-35718D02*
X55255Y-35777D01*
X55255Y-35777D02*
X55354Y-35777D01*
X55354Y-35718D02*
X55354Y-35777D01*
X55255Y-35718D02*
X55354Y-35718D01*
X55255Y-35523D02*
X55255Y-35582D01*
X55255Y-35582D02*
X55354Y-35582D01*
X55354Y-35523D02*
X55354Y-35582D01*
X55255Y-35523D02*
X55354Y-35523D01*
X55285Y-35572D02*
X55285Y-35728D01*
X55285Y-35728D02*
X55354Y-35728D01*
X55354Y-35572D02*
X55354Y-35728D01*
X55285Y-35572D02*
X55354Y-35572D01*
X55550Y-35611D02*
X55550Y-35689D01*
X55550Y-35689D02*
X55628Y-35689D01*
X55628Y-35611D02*
X55628Y-35689D01*
X55550Y-35611D02*
X55628Y-35611D01*
X55746Y-35414D02*
X55746Y-35532D01*
X55746Y-35532D02*
X55864Y-35532D01*
X55864Y-35414D02*
X55864Y-35532D01*
X55746Y-35414D02*
X55864Y-35414D01*
X55914Y-35404D02*
X55914Y-35493D01*
X55914Y-35493D02*
X55943Y-35493D01*
X55943Y-35404D02*
X55943Y-35493D01*
X55914Y-35404D02*
X55943Y-35404D01*
G54D16*
X55756Y-35876D02*
X55344Y-35876D01*
X55354Y-35424D02*
X55914Y-35424D01*
G54D17*
X55912Y-35473D02*
G75*
G03X55912Y-35473I-28J0D01*
G74*
G01*
G54D16*
X55943Y-35513D02*
G75*
G03X55943Y-35787I0J-137D01*
G74*
G01*
X55157Y-35787D02*
G75*
G03X55157Y-35513I0J137D01*
G74*
G01*
G54D14*
X40500Y-37850D02*
G75*
G03X40500Y-37850I-50J0D01*
G74*
G01*
X40000Y-37850D02*
X40400Y-37850D01*
X40400Y-37850D02*
X40400Y-38450D01*
X40400Y-38450D02*
X40000Y-38450D01*
X39600Y-38450D02*
X39200Y-38450D01*
X39200Y-38450D02*
X39200Y-37850D01*
X39200Y-37850D02*
X39600Y-37850D01*
G54D18*
X39450Y-56400D02*
X40450Y-56400D01*
X40450Y-56400D02*
X40450Y-58400D01*
X40450Y-58400D02*
X39450Y-58400D01*
X39450Y-58400D02*
X39450Y-56400D01*
X40650Y-56400D02*
X41650Y-56400D01*
X41650Y-56400D02*
X41650Y-58400D01*
X41650Y-58400D02*
X40650Y-58400D01*
X40650Y-58400D02*
X40650Y-56400D01*
X41850Y-56400D02*
X42850Y-56400D01*
X42850Y-56400D02*
X42850Y-58400D01*
X42850Y-58400D02*
X41850Y-58400D01*
X41850Y-58400D02*
X41850Y-56400D01*
X43050Y-56400D02*
X44050Y-56400D01*
X44050Y-56400D02*
X44050Y-58400D01*
X44050Y-58400D02*
X43050Y-58400D01*
X43050Y-58400D02*
X43050Y-56400D01*
X53000Y-39100D02*
X53000Y-40100D01*
X53000Y-40100D02*
X50000Y-40100D01*
X50000Y-40100D02*
X50000Y-39100D01*
X50000Y-39100D02*
X53000Y-39100D01*
X52000Y-40100D02*
X52000Y-39100D01*
G54D19*
X35500Y-36300D02*
X35500Y-61300D01*
X37500Y-61300D02*
X37500Y-36300D01*
X37500Y-36300D02*
X35500Y-36300D01*
X35500Y-61300D02*
X37500Y-61300D01*
X55500Y-36300D02*
X55500Y-61300D01*
X57500Y-61300D02*
X57500Y-36300D01*
X57500Y-36300D02*
X55500Y-36300D01*
X55500Y-61300D02*
X57500Y-61300D01*
G54D12*
X47000Y-33700D02*
X47000Y-34700D01*
X47000Y-34700D02*
X45000Y-34700D01*
X45000Y-34700D02*
X45000Y-33700D01*
X45000Y-33700D02*
X47000Y-33700D01*
G54D18*
X35500Y-34700D02*
X35500Y-33700D01*
X35500Y-33700D02*
X41500Y-33700D01*
X41500Y-33700D02*
X41500Y-34700D01*
X41500Y-34700D02*
X35500Y-34700D01*
X36500Y-34700D02*
X36500Y-33700D01*
G54D14*
X46625Y-50375D02*
G75*
G03X46625Y-50375I-50J0D01*
G74*
G01*
X47025Y-50375D02*
X46625Y-50375D01*
X46625Y-50375D02*
X46625Y-49775D01*
X46625Y-49775D02*
X47025Y-49775D01*
X47425Y-49775D02*
X47825Y-49775D01*
X47825Y-49775D02*
X47825Y-50375D01*
X47825Y-50375D02*
X47425Y-50375D01*
X47300Y-51800D02*
G75*
G03X47300Y-51800I-50J0D01*
G74*
G01*
X47250Y-51350D02*
X47250Y-51750D01*
X47250Y-51750D02*
X46650Y-51750D01*
X46650Y-51750D02*
X46650Y-51350D01*
X46650Y-50950D02*
X46650Y-50550D01*
X46650Y-50550D02*
X47250Y-50550D01*
X47250Y-50550D02*
X47250Y-50950D01*
X46700Y-52550D02*
G75*
G03X46700Y-52550I-50J0D01*
G74*
G01*
X47100Y-52550D02*
X46700Y-52550D01*
X46700Y-52550D02*
X46700Y-51950D01*
X46700Y-51950D02*
X47100Y-51950D01*
X47500Y-51950D02*
X47900Y-51950D01*
X47900Y-51950D02*
X47900Y-52550D01*
X47900Y-52550D02*
X47500Y-52550D01*
X53625Y-42800D02*
G75*
G03X53625Y-42800I-50J0D01*
G74*
G01*
X53575Y-43250D02*
X53575Y-42850D01*
X53575Y-42850D02*
X54175Y-42850D01*
X54175Y-42850D02*
X54175Y-43250D01*
X54175Y-43650D02*
X54175Y-44050D01*
X54175Y-44050D02*
X53575Y-44050D01*
X53575Y-44050D02*
X53575Y-43650D01*
X37950Y-41550D02*
G75*
G03X37950Y-41550I-50J0D01*
G74*
G01*
X37900Y-42000D02*
X37900Y-41600D01*
X37900Y-41600D02*
X38500Y-41600D01*
X38500Y-41600D02*
X38500Y-42000D01*
X38500Y-42400D02*
X38500Y-42800D01*
X38500Y-42800D02*
X37900Y-42800D01*
X37900Y-42800D02*
X37900Y-42400D01*
X40300Y-59850D02*
G75*
G03X40300Y-59850I-50J0D01*
G74*
G01*
X40250Y-59400D02*
X40250Y-59800D01*
X40250Y-59800D02*
X39650Y-59800D01*
X39650Y-59800D02*
X39650Y-59400D01*
X39650Y-59000D02*
X39650Y-58600D01*
X39650Y-58600D02*
X40250Y-58600D01*
X40250Y-58600D02*
X40250Y-59000D01*
X41500Y-59850D02*
G75*
G03X41500Y-59850I-50J0D01*
G74*
G01*
X41450Y-59400D02*
X41450Y-59800D01*
X41450Y-59800D02*
X40850Y-59800D01*
X40850Y-59800D02*
X40850Y-59400D01*
X40850Y-59000D02*
X40850Y-58600D01*
X40850Y-58600D02*
X41450Y-58600D01*
X41450Y-58600D02*
X41450Y-59000D01*
X42700Y-59850D02*
G75*
G03X42700Y-59850I-50J0D01*
G74*
G01*
X42650Y-59400D02*
X42650Y-59800D01*
X42650Y-59800D02*
X42050Y-59800D01*
X42050Y-59800D02*
X42050Y-59400D01*
X42050Y-59000D02*
X42050Y-58600D01*
X42050Y-58600D02*
X42650Y-58600D01*
X42650Y-58600D02*
X42650Y-59000D01*
X43900Y-59850D02*
G75*
G03X43900Y-59850I-50J0D01*
G74*
G01*
X43850Y-59400D02*
X43850Y-59800D01*
X43850Y-59800D02*
X43250Y-59800D01*
X43250Y-59800D02*
X43250Y-59400D01*
X43250Y-59000D02*
X43250Y-58600D01*
X43250Y-58600D02*
X43850Y-58600D01*
X43850Y-58600D02*
X43850Y-59000D01*
X42000Y-40550D02*
G75*
G03X42000Y-40550I-50J0D01*
G74*
G01*
X41500Y-40550D02*
X41900Y-40550D01*
X41900Y-40550D02*
X41900Y-41150D01*
X41900Y-41150D02*
X41500Y-41150D01*
X41100Y-41150D02*
X40700Y-41150D01*
X40700Y-41150D02*
X40700Y-40550D01*
X40700Y-40550D02*
X41100Y-40550D01*
X47900Y-34950D02*
G75*
G03X47900Y-34950I-50J0D01*
G74*
G01*
X47850Y-34500D02*
X47850Y-34900D01*
X47850Y-34900D02*
X47250Y-34900D01*
X47250Y-34900D02*
X47250Y-34500D01*
X47250Y-34100D02*
X47250Y-33700D01*
X47250Y-33700D02*
X47850Y-33700D01*
X47850Y-33700D02*
X47850Y-34100D01*
X51200Y-59500D02*
G75*
G03X51200Y-59500I-50J0D01*
G74*
G01*
X51150Y-59050D02*
X51150Y-59450D01*
X51150Y-59450D02*
X50550Y-59450D01*
X50550Y-59450D02*
X50550Y-59050D01*
X50550Y-58650D02*
X50550Y-58250D01*
X50550Y-58250D02*
X51150Y-58250D01*
X51150Y-58250D02*
X51150Y-58650D01*
X55200Y-36200D02*
G75*
G03X55200Y-36200I-50J0D01*
G74*
G01*
X54700Y-36200D02*
X55100Y-36200D01*
X55100Y-36200D02*
X55100Y-36800D01*
X55100Y-36800D02*
X54700Y-36800D01*
X54300Y-36800D02*
X53900Y-36800D01*
X53900Y-36800D02*
X53900Y-36200D01*
X53900Y-36200D02*
X54300Y-36200D01*
G54D19*
X49050Y-41400D02*
G75*
G03X49050Y-41400I-200J0D01*
G74*
G01*
X49200Y-41450D02*
X48950Y-41200D01*
X43700Y-41300D02*
X43800Y-41200D01*
X43700Y-46600D02*
X43800Y-46700D01*
X49100Y-46700D02*
X49200Y-46600D01*
X48950Y-41200D02*
X43800Y-41200D01*
X43700Y-41300D02*
X43700Y-46600D01*
X43800Y-46700D02*
X49100Y-46700D01*
X49200Y-46600D02*
X49200Y-41450D01*
X51150Y-33500D02*
X49950Y-33500D01*
X49950Y-33500D02*
X49950Y-36300D01*
X49950Y-36300D02*
X51150Y-36300D01*
X52350Y-33500D02*
X52650Y-33500D01*
X52650Y-33500D02*
X53550Y-34100D01*
X53550Y-34100D02*
X53550Y-35700D01*
X53550Y-35700D02*
X52650Y-36300D01*
X52650Y-36300D02*
X52350Y-36300D01*
G54D20*
X44200Y-38550D02*
X46700Y-38550D01*
X44200Y-36550D02*
X46700Y-36550D01*
X47700Y-37550D02*
G75*
G03X46700Y-36550I-1000J0D01*
G74*
G01*
X46700Y-38550D02*
G75*
G03X47700Y-37550I0J1000D01*
G74*
G01*
X44200Y-36550D02*
G75*
G03X43200Y-37550I0J-1000D01*
G74*
G01*
X43200Y-37550D02*
G75*
G03X44200Y-38550I1000J0D01*
G74*
G01*
G54D14*
X49100Y-58850D02*
G75*
G03X49100Y-58850I-50J0D01*
G74*
G01*
X49500Y-58850D02*
X49100Y-58850D01*
X49100Y-58850D02*
X49100Y-58250D01*
X49100Y-58250D02*
X49500Y-58250D01*
X49900Y-58250D02*
X50300Y-58250D01*
X50300Y-58250D02*
X50300Y-58850D01*
X50300Y-58850D02*
X49900Y-58850D01*
X49100Y-61250D02*
G75*
G03X49100Y-61250I-50J0D01*
G74*
G01*
X49500Y-61250D02*
X49100Y-61250D01*
X49100Y-61250D02*
X49100Y-60650D01*
X49100Y-60650D02*
X49500Y-60650D01*
X49900Y-60650D02*
X50300Y-60650D01*
X50300Y-60650D02*
X50300Y-61250D01*
X50300Y-61250D02*
X49900Y-61250D01*
X53800Y-40350D02*
G75*
G03X53800Y-40350I-50J0D01*
G74*
G01*
X53750Y-39900D02*
X53750Y-40300D01*
X53750Y-40300D02*
X53150Y-40300D01*
X53150Y-40300D02*
X53150Y-39900D01*
X53150Y-39500D02*
X53150Y-39100D01*
X53150Y-39100D02*
X53750Y-39100D01*
X53750Y-39100D02*
X53750Y-39500D01*
X50300Y-38950D02*
G75*
G03X50300Y-38950I-50J0D01*
G74*
G01*
X50250Y-38500D02*
X50250Y-38900D01*
X50250Y-38900D02*
X49650Y-38900D01*
X49650Y-38900D02*
X49650Y-38500D01*
X49650Y-38100D02*
X49650Y-37700D01*
X49650Y-37700D02*
X50250Y-37700D01*
X50250Y-37700D02*
X50250Y-38100D01*
G54D11*
X48100Y-62150D02*
X48100Y-61571D01*
X45100Y-62150D02*
X45100Y-61571D01*
X47400Y-58550D02*
X47900Y-58550D01*
X48100Y-59445D02*
X48100Y-60390D01*
X45100Y-62150D02*
X48100Y-62150D01*
X45100Y-59445D02*
X45100Y-60390D01*
X45300Y-58550D02*
X45773Y-58550D01*
G54D10*
X49050Y-34350D02*
X49050Y-34575D01*
X48750Y-34350D02*
X48750Y-34600D01*
X48750Y-34600D02*
X49050Y-34475D01*
X49050Y-34475D02*
X48750Y-34350D01*
X49175Y-34475D02*
X48600Y-34475D01*
X49254Y-33684D02*
X49254Y-34215D01*
X48545Y-33684D02*
X48545Y-34215D01*
X48545Y-34215D02*
X49254Y-34215D01*
X48545Y-33684D02*
X49254Y-33684D01*
X52175Y-58950D02*
X52175Y-59175D01*
X51875Y-58950D02*
X51875Y-59200D01*
X51875Y-59200D02*
X52175Y-59075D01*
X52175Y-59075D02*
X51875Y-58950D01*
X52300Y-59075D02*
X51725Y-59075D01*
X52379Y-58284D02*
X52379Y-58815D01*
X51670Y-58284D02*
X51670Y-58815D01*
X51670Y-58815D02*
X52379Y-58815D01*
X51670Y-58284D02*
X52379Y-58284D01*
X54800Y-39050D02*
X54800Y-39275D01*
X54500Y-39050D02*
X54500Y-39300D01*
X54500Y-39300D02*
X54800Y-39175D01*
X54800Y-39175D02*
X54500Y-39050D01*
X54925Y-39175D02*
X54350Y-39175D01*
X55004Y-38384D02*
X55004Y-38915D01*
X54295Y-38384D02*
X54295Y-38915D01*
X54295Y-38915D02*
X55004Y-38915D01*
X54295Y-38384D02*
X55004Y-38384D01*
X54675Y-38200D02*
X54675Y-38425D01*
X54375Y-38200D02*
X54375Y-38450D01*
X54375Y-38450D02*
X54675Y-38325D01*
X54675Y-38325D02*
X54375Y-38200D01*
X54800Y-38325D02*
X54225Y-38325D01*
X54879Y-37534D02*
X54879Y-38065D01*
X54170Y-37534D02*
X54170Y-38065D01*
X54170Y-38065D02*
X54879Y-38065D01*
X54170Y-37534D02*
X54879Y-37534D01*
X48725Y-54775D02*
X48950Y-54975D01*
X48950Y-55325D02*
X47725Y-55325D01*
X47725Y-55325D02*
X47725Y-54775D01*
X47725Y-54775D02*
X48950Y-54775D01*
X48950Y-54775D02*
X48950Y-55325D01*
X48768Y-50168D02*
X48768Y-52531D01*
X51131Y-52531D02*
X48768Y-52531D01*
X51131Y-50168D02*
X51131Y-52531D01*
X48768Y-50168D02*
X51131Y-50168D01*
X50759Y-51350D02*
G75*
G03X50759Y-51350I-809J0D01*
G74*
G01*
X41768Y-50168D02*
X41768Y-52531D01*
X44131Y-52531D02*
X41768Y-52531D01*
X44131Y-50168D02*
X44131Y-52531D01*
X41768Y-50168D02*
X44131Y-50168D01*
X43759Y-51350D02*
G75*
G03X43759Y-51350I-809J0D01*
G74*
G01*
G54D21*
X51933Y-50952D02*
X51921Y-50964D01*
X51885Y-50976D01*
X51861Y-50976D01*
X51826Y-50964D01*
X51802Y-50940D01*
X51790Y-50916D01*
X51778Y-50869D01*
X51778Y-50833D01*
X51790Y-50785D01*
X51802Y-50761D01*
X51826Y-50738D01*
X51861Y-50726D01*
X51885Y-50726D01*
X51921Y-50738D01*
X51933Y-50750D01*
X52171Y-50976D02*
X52028Y-50976D01*
X52100Y-50976D02*
X52100Y-50726D01*
X52076Y-50761D01*
X52052Y-50785D01*
X52028Y-50797D01*
X52151Y-51198D02*
X52142Y-51189D01*
X52132Y-51170D01*
X52132Y-51123D01*
X52142Y-51104D01*
X52151Y-51095D01*
X52170Y-51086D01*
X52189Y-51086D01*
X52217Y-51095D01*
X52329Y-51208D01*
X52329Y-51086D01*
X52132Y-50964D02*
X52132Y-50945D01*
X52142Y-50926D01*
X52151Y-50917D01*
X52170Y-50907D01*
X52207Y-50898D01*
X52254Y-50898D01*
X52292Y-50907D01*
X52310Y-50917D01*
X52320Y-50926D01*
X52329Y-50945D01*
X52329Y-50964D01*
X52320Y-50982D01*
X52310Y-50992D01*
X52292Y-51001D01*
X52254Y-51011D01*
X52207Y-51011D01*
X52170Y-51001D01*
X52151Y-50992D01*
X52142Y-50982D01*
X52132Y-50964D01*
X52198Y-50814D02*
X52329Y-50814D01*
X52217Y-50814D02*
X52207Y-50804D01*
X52198Y-50785D01*
X52198Y-50757D01*
X52207Y-50738D01*
X52226Y-50729D01*
X52329Y-50729D01*
X52226Y-50570D02*
X52226Y-50635D01*
X52329Y-50635D02*
X52132Y-50635D01*
X52132Y-50541D01*
X47058Y-39002D02*
X47046Y-39014D01*
X47010Y-39026D01*
X46986Y-39026D01*
X46951Y-39014D01*
X46927Y-38990D01*
X46915Y-38966D01*
X46903Y-38919D01*
X46903Y-38883D01*
X46915Y-38835D01*
X46927Y-38811D01*
X46951Y-38788D01*
X46986Y-38776D01*
X47010Y-38776D01*
X47046Y-38788D01*
X47058Y-38800D01*
X47153Y-38800D02*
X47165Y-38788D01*
X47189Y-38776D01*
X47248Y-38776D01*
X47272Y-38788D01*
X47284Y-38800D01*
X47296Y-38823D01*
X47296Y-38847D01*
X47284Y-38883D01*
X47141Y-39026D01*
X47296Y-39026D01*
X46888Y-39279D02*
X46776Y-39279D01*
X46832Y-39279D02*
X46832Y-39082D01*
X46813Y-39110D01*
X46795Y-39129D01*
X46776Y-39139D01*
X47001Y-39167D02*
X46982Y-39157D01*
X46973Y-39148D01*
X46963Y-39129D01*
X46963Y-39120D01*
X46973Y-39101D01*
X46982Y-39092D01*
X47001Y-39082D01*
X47039Y-39082D01*
X47057Y-39092D01*
X47067Y-39101D01*
X47076Y-39120D01*
X47076Y-39129D01*
X47067Y-39148D01*
X47057Y-39157D01*
X47039Y-39167D01*
X47001Y-39167D01*
X46982Y-39176D01*
X46973Y-39185D01*
X46963Y-39204D01*
X46963Y-39242D01*
X46973Y-39260D01*
X46982Y-39270D01*
X47001Y-39279D01*
X47039Y-39279D01*
X47057Y-39270D01*
X47067Y-39260D01*
X47076Y-39242D01*
X47076Y-39204D01*
X47067Y-39185D01*
X47057Y-39176D01*
X47039Y-39167D01*
X47160Y-39148D02*
X47160Y-39345D01*
X47160Y-39157D02*
X47179Y-39148D01*
X47217Y-39148D01*
X47236Y-39157D01*
X47245Y-39167D01*
X47254Y-39185D01*
X47254Y-39242D01*
X47245Y-39260D01*
X47236Y-39270D01*
X47217Y-39279D01*
X47179Y-39279D01*
X47160Y-39270D01*
X47404Y-39176D02*
X47339Y-39176D01*
X47339Y-39279D02*
X47339Y-39082D01*
X47433Y-39082D01*
X45708Y-39252D02*
X45696Y-39264D01*
X45660Y-39276D01*
X45636Y-39276D01*
X45601Y-39264D01*
X45577Y-39240D01*
X45565Y-39216D01*
X45553Y-39169D01*
X45553Y-39133D01*
X45565Y-39085D01*
X45577Y-39061D01*
X45601Y-39038D01*
X45636Y-39026D01*
X45660Y-39026D01*
X45696Y-39038D01*
X45708Y-39050D01*
X45791Y-39026D02*
X45946Y-39026D01*
X45863Y-39121D01*
X45898Y-39121D01*
X45922Y-39133D01*
X45934Y-39145D01*
X45946Y-39169D01*
X45946Y-39228D01*
X45934Y-39252D01*
X45922Y-39264D01*
X45898Y-39276D01*
X45827Y-39276D01*
X45803Y-39264D01*
X45791Y-39252D01*
X45538Y-38979D02*
X45426Y-38979D01*
X45482Y-38979D02*
X45482Y-38782D01*
X45463Y-38810D01*
X45445Y-38829D01*
X45426Y-38839D01*
X45651Y-38867D02*
X45632Y-38857D01*
X45623Y-38848D01*
X45613Y-38829D01*
X45613Y-38820D01*
X45623Y-38801D01*
X45632Y-38792D01*
X45651Y-38782D01*
X45689Y-38782D01*
X45707Y-38792D01*
X45717Y-38801D01*
X45726Y-38820D01*
X45726Y-38829D01*
X45717Y-38848D01*
X45707Y-38857D01*
X45689Y-38867D01*
X45651Y-38867D01*
X45632Y-38876D01*
X45623Y-38885D01*
X45613Y-38904D01*
X45613Y-38942D01*
X45623Y-38960D01*
X45632Y-38970D01*
X45651Y-38979D01*
X45689Y-38979D01*
X45707Y-38970D01*
X45717Y-38960D01*
X45726Y-38942D01*
X45726Y-38904D01*
X45717Y-38885D01*
X45707Y-38876D01*
X45689Y-38867D01*
X45810Y-38848D02*
X45810Y-39045D01*
X45810Y-38857D02*
X45829Y-38848D01*
X45867Y-38848D01*
X45886Y-38857D01*
X45895Y-38867D01*
X45904Y-38885D01*
X45904Y-38942D01*
X45895Y-38960D01*
X45886Y-38970D01*
X45867Y-38979D01*
X45829Y-38979D01*
X45810Y-38970D01*
X46054Y-38876D02*
X45989Y-38876D01*
X45989Y-38979D02*
X45989Y-38782D01*
X46083Y-38782D01*
X46008Y-52002D02*
X45996Y-52014D01*
X45960Y-52026D01*
X45936Y-52026D01*
X45901Y-52014D01*
X45877Y-51990D01*
X45865Y-51966D01*
X45853Y-51919D01*
X45853Y-51883D01*
X45865Y-51835D01*
X45877Y-51811D01*
X45901Y-51788D01*
X45936Y-51776D01*
X45960Y-51776D01*
X45996Y-51788D01*
X46008Y-51800D01*
X46222Y-51859D02*
X46222Y-52026D01*
X46163Y-51764D02*
X46103Y-51942D01*
X46258Y-51942D01*
X40077Y-40766D02*
X40089Y-40778D01*
X40101Y-40814D01*
X40101Y-40838D01*
X40089Y-40873D01*
X40065Y-40897D01*
X40041Y-40909D01*
X39994Y-40921D01*
X39958Y-40921D01*
X39910Y-40909D01*
X39886Y-40897D01*
X39863Y-40873D01*
X39851Y-40838D01*
X39851Y-40814D01*
X39863Y-40778D01*
X39875Y-40766D01*
X39851Y-40540D02*
X39851Y-40659D01*
X39970Y-40671D01*
X39958Y-40659D01*
X39946Y-40635D01*
X39946Y-40576D01*
X39958Y-40552D01*
X39970Y-40540D01*
X39994Y-40528D01*
X40053Y-40528D01*
X40077Y-40540D01*
X40089Y-40552D01*
X40101Y-40576D01*
X40101Y-40635D01*
X40089Y-40659D01*
X40077Y-40671D01*
X40077Y-41416D02*
X40089Y-41428D01*
X40101Y-41464D01*
X40101Y-41488D01*
X40089Y-41523D01*
X40065Y-41547D01*
X40041Y-41559D01*
X39994Y-41571D01*
X39958Y-41571D01*
X39910Y-41559D01*
X39886Y-41547D01*
X39863Y-41523D01*
X39851Y-41488D01*
X39851Y-41464D01*
X39863Y-41428D01*
X39875Y-41416D01*
X39851Y-41202D02*
X39851Y-41250D01*
X39863Y-41273D01*
X39875Y-41285D01*
X39910Y-41309D01*
X39958Y-41321D01*
X40053Y-41321D01*
X40077Y-41309D01*
X40089Y-41297D01*
X40101Y-41273D01*
X40101Y-41226D01*
X40089Y-41202D01*
X40077Y-41190D01*
X40053Y-41178D01*
X39994Y-41178D01*
X39970Y-41190D01*
X39958Y-41202D01*
X39946Y-41226D01*
X39946Y-41273D01*
X39958Y-41297D01*
X39970Y-41309D01*
X39994Y-41321D01*
X41152Y-39841D02*
X41164Y-39853D01*
X41176Y-39889D01*
X41176Y-39913D01*
X41164Y-39948D01*
X41140Y-39972D01*
X41116Y-39984D01*
X41069Y-39996D01*
X41033Y-39996D01*
X40985Y-39984D01*
X40961Y-39972D01*
X40938Y-39948D01*
X40926Y-39913D01*
X40926Y-39889D01*
X40938Y-39853D01*
X40950Y-39841D01*
X40926Y-39758D02*
X40926Y-39591D01*
X41176Y-39698D01*
X41852Y-39841D02*
X41864Y-39853D01*
X41876Y-39889D01*
X41876Y-39913D01*
X41864Y-39948D01*
X41840Y-39972D01*
X41816Y-39984D01*
X41769Y-39996D01*
X41733Y-39996D01*
X41685Y-39984D01*
X41661Y-39972D01*
X41638Y-39948D01*
X41626Y-39913D01*
X41626Y-39889D01*
X41638Y-39853D01*
X41650Y-39841D01*
X41733Y-39698D02*
X41721Y-39722D01*
X41709Y-39734D01*
X41685Y-39746D01*
X41673Y-39746D01*
X41650Y-39734D01*
X41638Y-39722D01*
X41626Y-39698D01*
X41626Y-39651D01*
X41638Y-39627D01*
X41650Y-39615D01*
X41673Y-39603D01*
X41685Y-39603D01*
X41709Y-39615D01*
X41721Y-39627D01*
X41733Y-39651D01*
X41733Y-39698D01*
X41745Y-39722D01*
X41757Y-39734D01*
X41780Y-39746D01*
X41828Y-39746D01*
X41852Y-39734D01*
X41864Y-39722D01*
X41876Y-39698D01*
X41876Y-39651D01*
X41864Y-39627D01*
X41852Y-39615D01*
X41828Y-39603D01*
X41780Y-39603D01*
X41757Y-39615D01*
X41745Y-39627D01*
X41733Y-39651D01*
X49233Y-36777D02*
X49221Y-36789D01*
X49185Y-36801D01*
X49161Y-36801D01*
X49126Y-36789D01*
X49102Y-36765D01*
X49090Y-36741D01*
X49078Y-36694D01*
X49078Y-36658D01*
X49090Y-36610D01*
X49102Y-36586D01*
X49126Y-36563D01*
X49161Y-36551D01*
X49185Y-36551D01*
X49221Y-36563D01*
X49233Y-36575D01*
X49352Y-36801D02*
X49400Y-36801D01*
X49423Y-36789D01*
X49435Y-36777D01*
X49459Y-36741D01*
X49471Y-36694D01*
X49471Y-36598D01*
X49459Y-36575D01*
X49447Y-36563D01*
X49423Y-36551D01*
X49376Y-36551D01*
X49352Y-36563D01*
X49340Y-36575D01*
X49328Y-36598D01*
X49328Y-36658D01*
X49340Y-36682D01*
X49352Y-36694D01*
X49376Y-36705D01*
X49423Y-36705D01*
X49447Y-36694D01*
X49459Y-36682D01*
X49471Y-36658D01*
X49629Y-37004D02*
X49629Y-37117D01*
X49629Y-37061D02*
X49432Y-37061D01*
X49460Y-37079D01*
X49479Y-37098D01*
X49489Y-37117D01*
X49432Y-36882D02*
X49432Y-36864D01*
X49442Y-36845D01*
X49451Y-36836D01*
X49470Y-36826D01*
X49507Y-36817D01*
X49554Y-36817D01*
X49592Y-36826D01*
X49610Y-36836D01*
X49620Y-36845D01*
X49629Y-36864D01*
X49629Y-36882D01*
X49620Y-36901D01*
X49610Y-36911D01*
X49592Y-36920D01*
X49554Y-36929D01*
X49507Y-36929D01*
X49470Y-36920D01*
X49451Y-36911D01*
X49442Y-36901D01*
X49432Y-36882D01*
X49432Y-36695D02*
X49432Y-36676D01*
X49442Y-36657D01*
X49451Y-36648D01*
X49470Y-36639D01*
X49507Y-36629D01*
X49554Y-36629D01*
X49592Y-36639D01*
X49610Y-36648D01*
X49620Y-36657D01*
X49629Y-36676D01*
X49629Y-36695D01*
X49620Y-36714D01*
X49610Y-36723D01*
X49592Y-36732D01*
X49554Y-36742D01*
X49507Y-36742D01*
X49470Y-36732D01*
X49451Y-36723D01*
X49442Y-36714D01*
X49432Y-36695D01*
X49498Y-36545D02*
X49629Y-36545D01*
X49517Y-36545D02*
X49507Y-36535D01*
X49498Y-36517D01*
X49498Y-36488D01*
X49507Y-36470D01*
X49526Y-36460D01*
X49629Y-36460D01*
X49526Y-36301D02*
X49526Y-36366D01*
X49629Y-36366D02*
X49432Y-36366D01*
X49432Y-36273D01*
X39927Y-37560D02*
X39939Y-37572D01*
X39951Y-37608D01*
X39951Y-37632D01*
X39939Y-37667D01*
X39915Y-37691D01*
X39891Y-37703D01*
X39844Y-37715D01*
X39808Y-37715D01*
X39760Y-37703D01*
X39736Y-37691D01*
X39713Y-37667D01*
X39701Y-37632D01*
X39701Y-37608D01*
X39713Y-37572D01*
X39725Y-37560D01*
X39951Y-37322D02*
X39951Y-37465D01*
X39951Y-37394D02*
X39701Y-37394D01*
X39736Y-37417D01*
X39760Y-37441D01*
X39772Y-37465D01*
X39701Y-37167D02*
X39701Y-37144D01*
X39713Y-37120D01*
X39725Y-37108D01*
X39748Y-37096D01*
X39796Y-37084D01*
X39855Y-37084D01*
X39903Y-37096D01*
X39927Y-37108D01*
X39939Y-37120D01*
X39951Y-37144D01*
X39951Y-37167D01*
X39939Y-37191D01*
X39927Y-37203D01*
X39903Y-37215D01*
X39855Y-37227D01*
X39796Y-37227D01*
X39748Y-37215D01*
X39725Y-37203D01*
X39713Y-37191D01*
X39701Y-37167D01*
X45927Y-35535D02*
X45939Y-35547D01*
X45951Y-35583D01*
X45951Y-35607D01*
X45939Y-35642D01*
X45915Y-35666D01*
X45891Y-35678D01*
X45844Y-35690D01*
X45808Y-35690D01*
X45760Y-35678D01*
X45736Y-35666D01*
X45713Y-35642D01*
X45701Y-35607D01*
X45701Y-35583D01*
X45713Y-35547D01*
X45725Y-35535D01*
X45951Y-35297D02*
X45951Y-35440D01*
X45951Y-35369D02*
X45701Y-35369D01*
X45736Y-35392D01*
X45760Y-35416D01*
X45772Y-35440D01*
X45951Y-35059D02*
X45951Y-35202D01*
X45951Y-35130D02*
X45701Y-35130D01*
X45736Y-35154D01*
X45760Y-35178D01*
X45772Y-35202D01*
X42679Y-47467D02*
X42667Y-47479D01*
X42631Y-47491D01*
X42607Y-47491D01*
X42572Y-47479D01*
X42548Y-47455D01*
X42536Y-47431D01*
X42524Y-47384D01*
X42524Y-47348D01*
X42536Y-47300D01*
X42548Y-47276D01*
X42572Y-47253D01*
X42607Y-47241D01*
X42631Y-47241D01*
X42667Y-47253D01*
X42679Y-47265D01*
X42917Y-47491D02*
X42774Y-47491D01*
X42845Y-47491D02*
X42845Y-47241D01*
X42822Y-47276D01*
X42798Y-47300D01*
X42774Y-47312D01*
X43012Y-47265D02*
X43024Y-47253D01*
X43048Y-47241D01*
X43107Y-47241D01*
X43131Y-47253D01*
X43143Y-47265D01*
X43155Y-47288D01*
X43155Y-47312D01*
X43143Y-47348D01*
X43000Y-47491D01*
X43155Y-47491D01*
X49977Y-47535D02*
X49989Y-47547D01*
X50001Y-47583D01*
X50001Y-47607D01*
X49989Y-47642D01*
X49965Y-47666D01*
X49941Y-47678D01*
X49894Y-47690D01*
X49858Y-47690D01*
X49810Y-47678D01*
X49786Y-47666D01*
X49763Y-47642D01*
X49751Y-47607D01*
X49751Y-47583D01*
X49763Y-47547D01*
X49775Y-47535D01*
X50001Y-47297D02*
X50001Y-47440D01*
X50001Y-47369D02*
X49751Y-47369D01*
X49786Y-47392D01*
X49810Y-47416D01*
X49822Y-47440D01*
X49751Y-47214D02*
X49751Y-47059D01*
X49846Y-47142D01*
X49846Y-47107D01*
X49858Y-47083D01*
X49870Y-47071D01*
X49894Y-47059D01*
X49953Y-47059D01*
X49977Y-47071D01*
X49989Y-47083D01*
X50001Y-47107D01*
X50001Y-47178D01*
X49989Y-47202D01*
X49977Y-47214D01*
X51627Y-41885D02*
X51639Y-41897D01*
X51651Y-41933D01*
X51651Y-41957D01*
X51639Y-41992D01*
X51615Y-42016D01*
X51591Y-42028D01*
X51544Y-42040D01*
X51508Y-42040D01*
X51460Y-42028D01*
X51436Y-42016D01*
X51413Y-41992D01*
X51401Y-41957D01*
X51401Y-41933D01*
X51413Y-41897D01*
X51425Y-41885D01*
X51651Y-41647D02*
X51651Y-41790D01*
X51651Y-41719D02*
X51401Y-41719D01*
X51436Y-41742D01*
X51460Y-41766D01*
X51472Y-41790D01*
X51484Y-41433D02*
X51651Y-41433D01*
X51389Y-41492D02*
X51567Y-41552D01*
X51567Y-41397D01*
X41939Y-48037D02*
X41927Y-48049D01*
X41891Y-48061D01*
X41867Y-48061D01*
X41832Y-48049D01*
X41808Y-48025D01*
X41796Y-48001D01*
X41784Y-47954D01*
X41784Y-47918D01*
X41796Y-47870D01*
X41808Y-47846D01*
X41832Y-47823D01*
X41867Y-47811D01*
X41891Y-47811D01*
X41927Y-47823D01*
X41939Y-47835D01*
X42177Y-48061D02*
X42034Y-48061D01*
X42105Y-48061D02*
X42105Y-47811D01*
X42082Y-47846D01*
X42058Y-47870D01*
X42034Y-47882D01*
X42403Y-47811D02*
X42284Y-47811D01*
X42272Y-47930D01*
X42284Y-47918D01*
X42308Y-47906D01*
X42367Y-47906D01*
X42391Y-47918D01*
X42403Y-47930D01*
X42415Y-47954D01*
X42415Y-48013D01*
X42403Y-48037D01*
X42391Y-48049D01*
X42367Y-48061D01*
X42308Y-48061D01*
X42284Y-48049D01*
X42272Y-48037D01*
X54564Y-40077D02*
X54552Y-40089D01*
X54516Y-40101D01*
X54492Y-40101D01*
X54457Y-40089D01*
X54433Y-40065D01*
X54421Y-40041D01*
X54409Y-39994D01*
X54409Y-39958D01*
X54421Y-39910D01*
X54433Y-39886D01*
X54457Y-39863D01*
X54492Y-39851D01*
X54516Y-39851D01*
X54552Y-39863D01*
X54564Y-39875D01*
X54802Y-40101D02*
X54659Y-40101D01*
X54730Y-40101D02*
X54730Y-39851D01*
X54707Y-39886D01*
X54683Y-39910D01*
X54659Y-39922D01*
X55016Y-39851D02*
X54969Y-39851D01*
X54945Y-39863D01*
X54933Y-39875D01*
X54909Y-39910D01*
X54897Y-39958D01*
X54897Y-40053D01*
X54909Y-40077D01*
X54921Y-40089D01*
X54945Y-40101D01*
X54992Y-40101D01*
X55016Y-40089D01*
X55028Y-40077D01*
X55040Y-40053D01*
X55040Y-39994D01*
X55028Y-39970D01*
X55016Y-39958D01*
X54992Y-39946D01*
X54945Y-39946D01*
X54921Y-39958D01*
X54909Y-39970D01*
X54897Y-39994D01*
X50602Y-48310D02*
X50614Y-48322D01*
X50626Y-48358D01*
X50626Y-48382D01*
X50614Y-48417D01*
X50590Y-48441D01*
X50566Y-48453D01*
X50519Y-48465D01*
X50483Y-48465D01*
X50435Y-48453D01*
X50411Y-48441D01*
X50388Y-48417D01*
X50376Y-48382D01*
X50376Y-48358D01*
X50388Y-48322D01*
X50400Y-48310D01*
X50626Y-48072D02*
X50626Y-48215D01*
X50626Y-48144D02*
X50376Y-48144D01*
X50411Y-48167D01*
X50435Y-48191D01*
X50447Y-48215D01*
X50376Y-47989D02*
X50376Y-47822D01*
X50626Y-47929D01*
X48977Y-35735D02*
X48989Y-35747D01*
X49001Y-35783D01*
X49001Y-35807D01*
X48989Y-35842D01*
X48965Y-35866D01*
X48941Y-35878D01*
X48894Y-35890D01*
X48858Y-35890D01*
X48810Y-35878D01*
X48786Y-35866D01*
X48763Y-35842D01*
X48751Y-35807D01*
X48751Y-35783D01*
X48763Y-35747D01*
X48775Y-35735D01*
X49001Y-35497D02*
X49001Y-35640D01*
X49001Y-35569D02*
X48751Y-35569D01*
X48786Y-35592D01*
X48810Y-35616D01*
X48822Y-35640D01*
X48858Y-35354D02*
X48846Y-35378D01*
X48834Y-35390D01*
X48810Y-35402D01*
X48798Y-35402D01*
X48775Y-35390D01*
X48763Y-35378D01*
X48751Y-35354D01*
X48751Y-35307D01*
X48763Y-35283D01*
X48775Y-35271D01*
X48798Y-35259D01*
X48810Y-35259D01*
X48834Y-35271D01*
X48846Y-35283D01*
X48858Y-35307D01*
X48858Y-35354D01*
X48870Y-35378D01*
X48882Y-35390D01*
X48905Y-35402D01*
X48953Y-35402D01*
X48977Y-35390D01*
X48989Y-35378D01*
X49001Y-35354D01*
X49001Y-35307D01*
X48989Y-35283D01*
X48977Y-35271D01*
X48953Y-35259D01*
X48905Y-35259D01*
X48882Y-35271D01*
X48870Y-35283D01*
X48858Y-35307D01*
X48977Y-35135D02*
X48989Y-35147D01*
X49001Y-35183D01*
X49001Y-35207D01*
X48989Y-35242D01*
X48965Y-35266D01*
X48941Y-35278D01*
X48894Y-35290D01*
X48858Y-35290D01*
X48810Y-35278D01*
X48786Y-35266D01*
X48763Y-35242D01*
X48751Y-35207D01*
X48751Y-35183D01*
X48763Y-35147D01*
X48775Y-35135D01*
X49001Y-34897D02*
X49001Y-35040D01*
X49001Y-34969D02*
X48751Y-34969D01*
X48786Y-34992D01*
X48810Y-35016D01*
X48822Y-35040D01*
X49001Y-34778D02*
X49001Y-34730D01*
X48989Y-34707D01*
X48977Y-34695D01*
X48941Y-34671D01*
X48894Y-34659D01*
X48798Y-34659D01*
X48775Y-34671D01*
X48763Y-34683D01*
X48751Y-34707D01*
X48751Y-34754D01*
X48763Y-34778D01*
X48775Y-34790D01*
X48798Y-34802D01*
X48858Y-34802D01*
X48882Y-34790D01*
X48894Y-34778D01*
X48905Y-34754D01*
X48905Y-34707D01*
X48894Y-34683D01*
X48882Y-34671D01*
X48858Y-34659D01*
G54D22*
X39804Y-60679D02*
X39804Y-60482D01*
X39851Y-60482D01*
X39879Y-60492D01*
X39898Y-60510D01*
X39907Y-60529D01*
X39917Y-60567D01*
X39917Y-60595D01*
X39907Y-60632D01*
X39898Y-60651D01*
X39879Y-60670D01*
X39851Y-60679D01*
X39804Y-60679D01*
X40104Y-60679D02*
X39992Y-60679D01*
X40048Y-60679D02*
X40048Y-60482D01*
X40029Y-60510D01*
X40010Y-60529D01*
X39992Y-60539D01*
X41004Y-60679D02*
X41004Y-60482D01*
X41051Y-60482D01*
X41079Y-60492D01*
X41098Y-60510D01*
X41107Y-60529D01*
X41117Y-60567D01*
X41117Y-60595D01*
X41107Y-60632D01*
X41098Y-60651D01*
X41079Y-60670D01*
X41051Y-60679D01*
X41004Y-60679D01*
X41192Y-60501D02*
X41201Y-60492D01*
X41220Y-60482D01*
X41267Y-60482D01*
X41286Y-60492D01*
X41295Y-60501D01*
X41304Y-60520D01*
X41304Y-60539D01*
X41295Y-60567D01*
X41182Y-60679D01*
X41304Y-60679D01*
X42204Y-60679D02*
X42204Y-60482D01*
X42251Y-60482D01*
X42279Y-60492D01*
X42298Y-60510D01*
X42307Y-60529D01*
X42317Y-60567D01*
X42317Y-60595D01*
X42307Y-60632D01*
X42298Y-60651D01*
X42279Y-60670D01*
X42251Y-60679D01*
X42204Y-60679D01*
X42382Y-60482D02*
X42504Y-60482D01*
X42439Y-60557D01*
X42467Y-60557D01*
X42486Y-60567D01*
X42495Y-60576D01*
X42504Y-60595D01*
X42504Y-60642D01*
X42495Y-60660D01*
X42486Y-60670D01*
X42467Y-60679D01*
X42410Y-60679D01*
X42392Y-60670D01*
X42382Y-60660D01*
X43404Y-60679D02*
X43404Y-60482D01*
X43451Y-60482D01*
X43479Y-60492D01*
X43498Y-60510D01*
X43507Y-60529D01*
X43517Y-60567D01*
X43517Y-60595D01*
X43507Y-60632D01*
X43498Y-60651D01*
X43479Y-60670D01*
X43451Y-60679D01*
X43404Y-60679D01*
X43686Y-60548D02*
X43686Y-60679D01*
X43639Y-60473D02*
X43592Y-60614D01*
X43714Y-60614D01*
X47379Y-35645D02*
X47182Y-35645D01*
X47182Y-35598D01*
X47192Y-35570D01*
X47210Y-35551D01*
X47229Y-35542D01*
X47267Y-35532D01*
X47295Y-35532D01*
X47332Y-35542D01*
X47351Y-35551D01*
X47370Y-35570D01*
X47379Y-35598D01*
X47379Y-35645D01*
X47182Y-35467D02*
X47182Y-35335D01*
X47379Y-35420D01*
G54D11*
X46421Y-36121D02*
X46278Y-36121D01*
X46278Y-35821D01*
X46521Y-35964D02*
X46621Y-35964D01*
X46664Y-36121D02*
X46521Y-36121D01*
X46521Y-35821D01*
X46664Y-35821D01*
X46792Y-36121D02*
X46792Y-35821D01*
X46864Y-35821D01*
X46907Y-35835D01*
X46935Y-35864D01*
X46950Y-35892D01*
X46964Y-35950D01*
X46964Y-35992D01*
X46950Y-36050D01*
X46935Y-36078D01*
X46907Y-36107D01*
X46864Y-36121D01*
X46792Y-36121D01*
X47021Y-36150D02*
X47250Y-36150D01*
X47378Y-35821D02*
X47407Y-35821D01*
X47435Y-35835D01*
X47450Y-35850D01*
X47464Y-35878D01*
X47478Y-35935D01*
X47478Y-36007D01*
X47464Y-36064D01*
X47450Y-36092D01*
X47435Y-36107D01*
X47407Y-36121D01*
X47378Y-36121D01*
X47350Y-36107D01*
X47335Y-36092D01*
X47321Y-36064D01*
X47307Y-36007D01*
X47307Y-35935D01*
X47321Y-35878D01*
X47335Y-35850D01*
X47350Y-35835D01*
X47378Y-35821D01*
X47650Y-35950D02*
X47621Y-35935D01*
X47607Y-35921D01*
X47592Y-35892D01*
X47592Y-35878D01*
X47607Y-35850D01*
X47621Y-35835D01*
X47650Y-35821D01*
X47707Y-35821D01*
X47735Y-35835D01*
X47750Y-35850D01*
X47764Y-35878D01*
X47764Y-35892D01*
X47750Y-35921D01*
X47735Y-35935D01*
X47707Y-35950D01*
X47650Y-35950D01*
X47621Y-35964D01*
X47607Y-35978D01*
X47592Y-36007D01*
X47592Y-36064D01*
X47607Y-36092D01*
X47621Y-36107D01*
X47650Y-36121D01*
X47707Y-36121D01*
X47735Y-36107D01*
X47750Y-36092D01*
X47764Y-36064D01*
X47764Y-36007D01*
X47750Y-35978D01*
X47735Y-35964D01*
X47707Y-35950D01*
X47950Y-35821D02*
X47978Y-35821D01*
X48007Y-35835D01*
X48021Y-35850D01*
X48035Y-35878D01*
X48050Y-35935D01*
X48050Y-36007D01*
X48035Y-36064D01*
X48021Y-36092D01*
X48007Y-36107D01*
X47978Y-36121D01*
X47950Y-36121D01*
X47921Y-36107D01*
X47907Y-36092D01*
X47892Y-36064D01*
X47878Y-36007D01*
X47878Y-35935D01*
X47892Y-35878D01*
X47907Y-35850D01*
X47921Y-35835D01*
X47950Y-35821D01*
X48321Y-35821D02*
X48178Y-35821D01*
X48164Y-35964D01*
X48178Y-35950D01*
X48207Y-35935D01*
X48278Y-35935D01*
X48307Y-35950D01*
X48321Y-35964D01*
X48335Y-35992D01*
X48335Y-36064D01*
X48321Y-36092D01*
X48307Y-36107D01*
X48278Y-36121D01*
X48207Y-36121D01*
X48178Y-36107D01*
X48164Y-36092D01*
G54D21*
X51301Y-60084D02*
X51051Y-60084D01*
X51051Y-60025D01*
X51063Y-59989D01*
X51086Y-59965D01*
X51110Y-59953D01*
X51158Y-59941D01*
X51194Y-59941D01*
X51241Y-59953D01*
X51265Y-59965D01*
X51289Y-59989D01*
X51301Y-60025D01*
X51301Y-60084D01*
X51158Y-59798D02*
X51146Y-59822D01*
X51134Y-59834D01*
X51110Y-59846D01*
X51098Y-59846D01*
X51075Y-59834D01*
X51063Y-59822D01*
X51051Y-59798D01*
X51051Y-59751D01*
X51063Y-59727D01*
X51075Y-59715D01*
X51098Y-59703D01*
X51110Y-59703D01*
X51134Y-59715D01*
X51146Y-59727D01*
X51158Y-59751D01*
X51158Y-59798D01*
X51170Y-59822D01*
X51182Y-59834D01*
X51205Y-59846D01*
X51253Y-59846D01*
X51277Y-59834D01*
X51289Y-59822D01*
X51301Y-59798D01*
X51301Y-59751D01*
X51289Y-59727D01*
X51277Y-59715D01*
X51253Y-59703D01*
X51205Y-59703D01*
X51182Y-59715D01*
X51170Y-59727D01*
X51158Y-59751D01*
G54D22*
X55629Y-35889D02*
X55432Y-35889D01*
X55432Y-35842D01*
X55442Y-35814D01*
X55460Y-35795D01*
X55479Y-35786D01*
X55517Y-35776D01*
X55545Y-35776D01*
X55582Y-35786D01*
X55601Y-35795D01*
X55620Y-35814D01*
X55629Y-35842D01*
X55629Y-35889D01*
X55629Y-35589D02*
X55629Y-35701D01*
X55629Y-35645D02*
X55432Y-35645D01*
X55460Y-35664D01*
X55479Y-35682D01*
X55489Y-35701D01*
X55629Y-35401D02*
X55629Y-35513D01*
X55629Y-35457D02*
X55432Y-35457D01*
X55460Y-35476D01*
X55479Y-35495D01*
X55489Y-35513D01*
G54D21*
X39770Y-38358D02*
X39770Y-38441D01*
X39901Y-38441D02*
X39651Y-38441D01*
X39651Y-38322D01*
X39770Y-38144D02*
X39782Y-38108D01*
X39794Y-38096D01*
X39817Y-38084D01*
X39853Y-38084D01*
X39877Y-38096D01*
X39889Y-38108D01*
X39901Y-38132D01*
X39901Y-38227D01*
X39651Y-38227D01*
X39651Y-38144D01*
X39663Y-38120D01*
X39675Y-38108D01*
X39698Y-38096D01*
X39722Y-38096D01*
X39746Y-38108D01*
X39758Y-38120D01*
X39770Y-38144D01*
X39770Y-38227D01*
X39901Y-37846D02*
X39901Y-37989D01*
X39901Y-37917D02*
X39651Y-37917D01*
X39686Y-37941D01*
X39710Y-37965D01*
X39722Y-37989D01*
G54D13*
X39750Y-57221D02*
X39750Y-57435D01*
X39735Y-57478D01*
X39707Y-57507D01*
X39664Y-57521D01*
X39635Y-57521D01*
X39892Y-57521D02*
X39892Y-57221D01*
X40007Y-57221D01*
X40035Y-57235D01*
X40050Y-57250D01*
X40064Y-57278D01*
X40064Y-57321D01*
X40050Y-57350D01*
X40035Y-57364D01*
X40007Y-57378D01*
X39892Y-57378D01*
X40350Y-57521D02*
X40178Y-57521D01*
X40264Y-57521D02*
X40264Y-57221D01*
X40235Y-57264D01*
X40207Y-57292D01*
X40178Y-57307D01*
X40900Y-57221D02*
X40900Y-57435D01*
X40885Y-57478D01*
X40857Y-57507D01*
X40814Y-57521D01*
X40785Y-57521D01*
X41042Y-57521D02*
X41042Y-57221D01*
X41157Y-57221D01*
X41185Y-57235D01*
X41200Y-57250D01*
X41214Y-57278D01*
X41214Y-57321D01*
X41200Y-57350D01*
X41185Y-57364D01*
X41157Y-57378D01*
X41042Y-57378D01*
X41328Y-57250D02*
X41342Y-57235D01*
X41371Y-57221D01*
X41442Y-57221D01*
X41471Y-57235D01*
X41485Y-57250D01*
X41500Y-57278D01*
X41500Y-57307D01*
X41485Y-57350D01*
X41314Y-57521D01*
X41500Y-57521D01*
X42100Y-57271D02*
X42100Y-57485D01*
X42085Y-57528D01*
X42057Y-57557D01*
X42014Y-57571D01*
X41985Y-57571D01*
X42242Y-57571D02*
X42242Y-57271D01*
X42357Y-57271D01*
X42385Y-57285D01*
X42400Y-57300D01*
X42414Y-57328D01*
X42414Y-57371D01*
X42400Y-57400D01*
X42385Y-57414D01*
X42357Y-57428D01*
X42242Y-57428D01*
X42514Y-57271D02*
X42700Y-57271D01*
X42600Y-57385D01*
X42642Y-57385D01*
X42671Y-57400D01*
X42685Y-57414D01*
X42700Y-57442D01*
X42700Y-57514D01*
X42685Y-57542D01*
X42671Y-57557D01*
X42642Y-57571D01*
X42557Y-57571D01*
X42528Y-57557D01*
X42514Y-57542D01*
X43300Y-57221D02*
X43300Y-57435D01*
X43285Y-57478D01*
X43257Y-57507D01*
X43214Y-57521D01*
X43185Y-57521D01*
X43442Y-57521D02*
X43442Y-57221D01*
X43557Y-57221D01*
X43585Y-57235D01*
X43600Y-57250D01*
X43614Y-57278D01*
X43614Y-57321D01*
X43600Y-57350D01*
X43585Y-57364D01*
X43557Y-57378D01*
X43442Y-57378D01*
X43871Y-57321D02*
X43871Y-57521D01*
X43800Y-57207D02*
X43728Y-57421D01*
X43914Y-57421D01*
G54D12*
X51300Y-40171D02*
X51300Y-40385D01*
X51285Y-40428D01*
X51257Y-40457D01*
X51214Y-40471D01*
X51185Y-40471D01*
X51442Y-40471D02*
X51442Y-40171D01*
X51557Y-40171D01*
X51585Y-40185D01*
X51600Y-40200D01*
X51614Y-40228D01*
X51614Y-40271D01*
X51600Y-40300D01*
X51585Y-40314D01*
X51557Y-40328D01*
X51442Y-40328D01*
X51885Y-40171D02*
X51742Y-40171D01*
X51728Y-40314D01*
X51742Y-40300D01*
X51771Y-40285D01*
X51842Y-40285D01*
X51871Y-40300D01*
X51885Y-40314D01*
X51900Y-40342D01*
X51900Y-40414D01*
X51885Y-40442D01*
X51871Y-40457D01*
X51842Y-40471D01*
X51771Y-40471D01*
X51742Y-40457D01*
X51728Y-40442D01*
X36378Y-48421D02*
X36378Y-48121D01*
X36492Y-48121D01*
X36521Y-48135D01*
X36535Y-48150D01*
X36550Y-48178D01*
X36550Y-48221D01*
X36535Y-48250D01*
X36521Y-48264D01*
X36492Y-48278D01*
X36378Y-48278D01*
X36835Y-48421D02*
X36664Y-48421D01*
X36750Y-48421D02*
X36750Y-48121D01*
X36721Y-48164D01*
X36692Y-48192D01*
X36664Y-48207D01*
G54D16*
X38123Y-53219D02*
X38142Y-53238D01*
X38161Y-53295D01*
X38161Y-53333D01*
X38142Y-53390D01*
X38104Y-53428D01*
X38066Y-53447D01*
X37990Y-53466D01*
X37933Y-53466D01*
X37857Y-53447D01*
X37819Y-53428D01*
X37780Y-53390D01*
X37761Y-53333D01*
X37761Y-53295D01*
X37780Y-53238D01*
X37800Y-53219D01*
X37761Y-52971D02*
X37761Y-52895D01*
X37780Y-52857D01*
X37819Y-52819D01*
X37895Y-52800D01*
X38028Y-52800D01*
X38104Y-52819D01*
X38142Y-52857D01*
X38161Y-52895D01*
X38161Y-52971D01*
X38142Y-53009D01*
X38104Y-53047D01*
X38028Y-53066D01*
X37895Y-53066D01*
X37819Y-53047D01*
X37780Y-53009D01*
X37761Y-52971D01*
X38161Y-52628D02*
X37761Y-52628D01*
X38161Y-52400D01*
X37761Y-52400D01*
X38161Y-52209D02*
X37761Y-52209D01*
X38161Y-51980D01*
X37761Y-51980D01*
X38200Y-51885D02*
X38200Y-51580D01*
X37800Y-51504D02*
X37780Y-51485D01*
X37761Y-51447D01*
X37761Y-51352D01*
X37780Y-51314D01*
X37800Y-51295D01*
X37838Y-51276D01*
X37876Y-51276D01*
X37933Y-51295D01*
X38161Y-51523D01*
X38161Y-51276D01*
X37761Y-50914D02*
X37761Y-51104D01*
X37952Y-51123D01*
X37933Y-51104D01*
X37914Y-51066D01*
X37914Y-50971D01*
X37933Y-50933D01*
X37952Y-50914D01*
X37990Y-50895D01*
X38085Y-50895D01*
X38123Y-50914D01*
X38142Y-50933D01*
X38161Y-50971D01*
X38161Y-51066D01*
X38142Y-51104D01*
X38123Y-51123D01*
X37761Y-50761D02*
X38161Y-50495D01*
X37761Y-50495D02*
X38161Y-50761D01*
X37800Y-50361D02*
X37780Y-50342D01*
X37761Y-50304D01*
X37761Y-50209D01*
X37780Y-50171D01*
X37800Y-50152D01*
X37838Y-50133D01*
X37876Y-50133D01*
X37933Y-50152D01*
X38161Y-50380D01*
X38161Y-50133D01*
G54D19*
X56254Y-48461D02*
X56254Y-48061D01*
X56407Y-48061D01*
X56445Y-48080D01*
X56464Y-48100D01*
X56483Y-48138D01*
X56483Y-48195D01*
X56464Y-48233D01*
X56445Y-48252D01*
X56407Y-48271D01*
X56254Y-48271D01*
X56635Y-48100D02*
X56654Y-48080D01*
X56692Y-48061D01*
X56788Y-48061D01*
X56826Y-48080D01*
X56845Y-48100D01*
X56864Y-48138D01*
X56864Y-48176D01*
X56845Y-48233D01*
X56616Y-48461D01*
X56864Y-48461D01*
G54D16*
X58123Y-53219D02*
X58142Y-53238D01*
X58161Y-53295D01*
X58161Y-53333D01*
X58142Y-53390D01*
X58104Y-53428D01*
X58066Y-53447D01*
X57990Y-53466D01*
X57933Y-53466D01*
X57857Y-53447D01*
X57819Y-53428D01*
X57780Y-53390D01*
X57761Y-53333D01*
X57761Y-53295D01*
X57780Y-53238D01*
X57800Y-53219D01*
X57761Y-52971D02*
X57761Y-52895D01*
X57780Y-52857D01*
X57819Y-52819D01*
X57895Y-52800D01*
X58028Y-52800D01*
X58104Y-52819D01*
X58142Y-52857D01*
X58161Y-52895D01*
X58161Y-52971D01*
X58142Y-53009D01*
X58104Y-53047D01*
X58028Y-53066D01*
X57895Y-53066D01*
X57819Y-53047D01*
X57780Y-53009D01*
X57761Y-52971D01*
X58161Y-52628D02*
X57761Y-52628D01*
X58161Y-52400D01*
X57761Y-52400D01*
X58161Y-52209D02*
X57761Y-52209D01*
X58161Y-51980D01*
X57761Y-51980D01*
X58200Y-51885D02*
X58200Y-51580D01*
X57800Y-51504D02*
X57780Y-51485D01*
X57761Y-51447D01*
X57761Y-51352D01*
X57780Y-51314D01*
X57800Y-51295D01*
X57838Y-51276D01*
X57876Y-51276D01*
X57933Y-51295D01*
X58161Y-51523D01*
X58161Y-51276D01*
X57761Y-50914D02*
X57761Y-51104D01*
X57952Y-51123D01*
X57933Y-51104D01*
X57914Y-51066D01*
X57914Y-50971D01*
X57933Y-50933D01*
X57952Y-50914D01*
X57990Y-50895D01*
X58085Y-50895D01*
X58123Y-50914D01*
X58142Y-50933D01*
X58161Y-50971D01*
X58161Y-51066D01*
X58142Y-51104D01*
X58123Y-51123D01*
X57761Y-50761D02*
X58161Y-50495D01*
X57761Y-50495D02*
X58161Y-50761D01*
X57800Y-50361D02*
X57780Y-50342D01*
X57761Y-50304D01*
X57761Y-50209D01*
X57780Y-50171D01*
X57800Y-50152D01*
X57838Y-50133D01*
X57876Y-50133D01*
X57933Y-50152D01*
X58161Y-50380D01*
X58161Y-50133D01*
G54D12*
X44428Y-34371D02*
X44428Y-34071D01*
X44542Y-34071D01*
X44571Y-34085D01*
X44585Y-34100D01*
X44600Y-34128D01*
X44600Y-34171D01*
X44585Y-34200D01*
X44571Y-34214D01*
X44542Y-34228D01*
X44428Y-34228D01*
X44700Y-34071D02*
X44885Y-34071D01*
X44785Y-34185D01*
X44828Y-34185D01*
X44857Y-34200D01*
X44871Y-34214D01*
X44885Y-34242D01*
X44885Y-34314D01*
X44871Y-34342D01*
X44857Y-34357D01*
X44828Y-34371D01*
X44742Y-34371D01*
X44714Y-34357D01*
X44700Y-34342D01*
X41728Y-34321D02*
X41728Y-34021D01*
X41842Y-34021D01*
X41871Y-34035D01*
X41885Y-34050D01*
X41900Y-34078D01*
X41900Y-34121D01*
X41885Y-34150D01*
X41871Y-34164D01*
X41842Y-34178D01*
X41728Y-34178D01*
X42157Y-34121D02*
X42157Y-34321D01*
X42085Y-34007D02*
X42014Y-34221D01*
X42200Y-34221D01*
G54D21*
X47326Y-49991D02*
X47207Y-50075D01*
X47326Y-50134D02*
X47076Y-50134D01*
X47076Y-50039D01*
X47088Y-50015D01*
X47100Y-50003D01*
X47123Y-49991D01*
X47159Y-49991D01*
X47183Y-50003D01*
X47195Y-50015D01*
X47207Y-50039D01*
X47207Y-50134D01*
X47326Y-49753D02*
X47326Y-49896D01*
X47326Y-49825D02*
X47076Y-49825D01*
X47111Y-49848D01*
X47135Y-49872D01*
X47147Y-49896D01*
X46783Y-51251D02*
X46700Y-51132D01*
X46640Y-51251D02*
X46640Y-51001D01*
X46735Y-51001D01*
X46759Y-51013D01*
X46771Y-51025D01*
X46783Y-51048D01*
X46783Y-51084D01*
X46771Y-51108D01*
X46759Y-51120D01*
X46735Y-51132D01*
X46640Y-51132D01*
X46878Y-51025D02*
X46890Y-51013D01*
X46914Y-51001D01*
X46973Y-51001D01*
X46997Y-51013D01*
X47009Y-51025D01*
X47021Y-51048D01*
X47021Y-51072D01*
X47009Y-51108D01*
X46866Y-51251D01*
X47021Y-51251D01*
X47258Y-52226D02*
X47175Y-52107D01*
X47115Y-52226D02*
X47115Y-51976D01*
X47210Y-51976D01*
X47234Y-51988D01*
X47246Y-52000D01*
X47258Y-52023D01*
X47258Y-52059D01*
X47246Y-52083D01*
X47234Y-52095D01*
X47210Y-52107D01*
X47115Y-52107D01*
X47341Y-51976D02*
X47496Y-51976D01*
X47413Y-52071D01*
X47448Y-52071D01*
X47472Y-52083D01*
X47484Y-52095D01*
X47496Y-52119D01*
X47496Y-52178D01*
X47484Y-52202D01*
X47472Y-52214D01*
X47448Y-52226D01*
X47377Y-52226D01*
X47353Y-52214D01*
X47341Y-52202D01*
X47182Y-52479D02*
X47070Y-52479D01*
X47126Y-52479D02*
X47126Y-52282D01*
X47107Y-52310D01*
X47088Y-52329D01*
X47070Y-52339D01*
X47304Y-52282D02*
X47323Y-52282D01*
X47342Y-52292D01*
X47351Y-52301D01*
X47360Y-52320D01*
X47370Y-52357D01*
X47370Y-52404D01*
X47360Y-52442D01*
X47351Y-52460D01*
X47342Y-52470D01*
X47323Y-52479D01*
X47304Y-52479D01*
X47285Y-52470D01*
X47276Y-52460D01*
X47267Y-52442D01*
X47257Y-52404D01*
X47257Y-52357D01*
X47267Y-52320D01*
X47276Y-52301D01*
X47285Y-52292D01*
X47304Y-52282D01*
X47454Y-52479D02*
X47454Y-52282D01*
X47473Y-52404D02*
X47529Y-52479D01*
X47529Y-52348D02*
X47454Y-52423D01*
X53958Y-43551D02*
X53875Y-43432D01*
X53815Y-43551D02*
X53815Y-43301D01*
X53910Y-43301D01*
X53934Y-43313D01*
X53946Y-43325D01*
X53958Y-43348D01*
X53958Y-43384D01*
X53946Y-43408D01*
X53934Y-43420D01*
X53910Y-43432D01*
X53815Y-43432D01*
X54172Y-43384D02*
X54172Y-43551D01*
X54113Y-43289D02*
X54053Y-43467D01*
X54208Y-43467D01*
X38283Y-42301D02*
X38200Y-42182D01*
X38140Y-42301D02*
X38140Y-42051D01*
X38235Y-42051D01*
X38259Y-42063D01*
X38271Y-42075D01*
X38283Y-42098D01*
X38283Y-42134D01*
X38271Y-42158D01*
X38259Y-42170D01*
X38235Y-42182D01*
X38140Y-42182D01*
X38509Y-42051D02*
X38390Y-42051D01*
X38378Y-42170D01*
X38390Y-42158D01*
X38414Y-42146D01*
X38473Y-42146D01*
X38497Y-42158D01*
X38509Y-42170D01*
X38521Y-42194D01*
X38521Y-42253D01*
X38509Y-42277D01*
X38497Y-42289D01*
X38473Y-42301D01*
X38414Y-42301D01*
X38390Y-42289D01*
X38378Y-42277D01*
X39783Y-59301D02*
X39700Y-59182D01*
X39640Y-59301D02*
X39640Y-59051D01*
X39735Y-59051D01*
X39759Y-59063D01*
X39771Y-59075D01*
X39783Y-59098D01*
X39783Y-59134D01*
X39771Y-59158D01*
X39759Y-59170D01*
X39735Y-59182D01*
X39640Y-59182D01*
X39997Y-59051D02*
X39950Y-59051D01*
X39926Y-59063D01*
X39914Y-59075D01*
X39890Y-59110D01*
X39878Y-59158D01*
X39878Y-59253D01*
X39890Y-59277D01*
X39902Y-59289D01*
X39926Y-59301D01*
X39973Y-59301D01*
X39997Y-59289D01*
X40009Y-59277D01*
X40021Y-59253D01*
X40021Y-59194D01*
X40009Y-59170D01*
X39997Y-59158D01*
X39973Y-59146D01*
X39926Y-59146D01*
X39902Y-59158D01*
X39890Y-59170D01*
X39878Y-59194D01*
X40983Y-59301D02*
X40900Y-59182D01*
X40840Y-59301D02*
X40840Y-59051D01*
X40935Y-59051D01*
X40959Y-59063D01*
X40971Y-59075D01*
X40983Y-59098D01*
X40983Y-59134D01*
X40971Y-59158D01*
X40959Y-59170D01*
X40935Y-59182D01*
X40840Y-59182D01*
X41066Y-59051D02*
X41233Y-59051D01*
X41126Y-59301D01*
X42183Y-59301D02*
X42100Y-59182D01*
X42040Y-59301D02*
X42040Y-59051D01*
X42135Y-59051D01*
X42159Y-59063D01*
X42171Y-59075D01*
X42183Y-59098D01*
X42183Y-59134D01*
X42171Y-59158D01*
X42159Y-59170D01*
X42135Y-59182D01*
X42040Y-59182D01*
X42326Y-59158D02*
X42302Y-59146D01*
X42290Y-59134D01*
X42278Y-59110D01*
X42278Y-59098D01*
X42290Y-59075D01*
X42302Y-59063D01*
X42326Y-59051D01*
X42373Y-59051D01*
X42397Y-59063D01*
X42409Y-59075D01*
X42421Y-59098D01*
X42421Y-59110D01*
X42409Y-59134D01*
X42397Y-59146D01*
X42373Y-59158D01*
X42326Y-59158D01*
X42302Y-59170D01*
X42290Y-59182D01*
X42278Y-59205D01*
X42278Y-59253D01*
X42290Y-59277D01*
X42302Y-59289D01*
X42326Y-59301D01*
X42373Y-59301D01*
X42397Y-59289D01*
X42409Y-59277D01*
X42421Y-59253D01*
X42421Y-59205D01*
X42409Y-59182D01*
X42397Y-59170D01*
X42373Y-59158D01*
X43383Y-59301D02*
X43300Y-59182D01*
X43240Y-59301D02*
X43240Y-59051D01*
X43335Y-59051D01*
X43359Y-59063D01*
X43371Y-59075D01*
X43383Y-59098D01*
X43383Y-59134D01*
X43371Y-59158D01*
X43359Y-59170D01*
X43335Y-59182D01*
X43240Y-59182D01*
X43502Y-59301D02*
X43550Y-59301D01*
X43573Y-59289D01*
X43585Y-59277D01*
X43609Y-59241D01*
X43621Y-59194D01*
X43621Y-59098D01*
X43609Y-59075D01*
X43597Y-59063D01*
X43573Y-59051D01*
X43526Y-59051D01*
X43502Y-59063D01*
X43490Y-59075D01*
X43478Y-59098D01*
X43478Y-59158D01*
X43490Y-59182D01*
X43502Y-59194D01*
X43526Y-59205D01*
X43573Y-59205D01*
X43597Y-59194D01*
X43609Y-59182D01*
X43621Y-59158D01*
X41248Y-40756D02*
X41379Y-40756D01*
X41173Y-40803D02*
X41314Y-40850D01*
X41314Y-40728D01*
X41182Y-40671D02*
X41182Y-40540D01*
X41379Y-40624D01*
X47264Y-34401D02*
X47180Y-34282D01*
X47121Y-34401D02*
X47121Y-34151D01*
X47216Y-34151D01*
X47240Y-34163D01*
X47252Y-34175D01*
X47264Y-34198D01*
X47264Y-34234D01*
X47252Y-34258D01*
X47240Y-34270D01*
X47216Y-34282D01*
X47121Y-34282D01*
X47502Y-34401D02*
X47359Y-34401D01*
X47430Y-34401D02*
X47430Y-34151D01*
X47407Y-34186D01*
X47383Y-34210D01*
X47359Y-34222D01*
X47740Y-34401D02*
X47597Y-34401D01*
X47669Y-34401D02*
X47669Y-34151D01*
X47645Y-34186D01*
X47621Y-34210D01*
X47597Y-34222D01*
X50564Y-58951D02*
X50480Y-58832D01*
X50421Y-58951D02*
X50421Y-58701D01*
X50516Y-58701D01*
X50540Y-58713D01*
X50552Y-58725D01*
X50564Y-58748D01*
X50564Y-58784D01*
X50552Y-58808D01*
X50540Y-58820D01*
X50516Y-58832D01*
X50421Y-58832D01*
X50802Y-58951D02*
X50659Y-58951D01*
X50730Y-58951D02*
X50730Y-58701D01*
X50707Y-58736D01*
X50683Y-58760D01*
X50659Y-58772D01*
X50897Y-58725D02*
X50909Y-58713D01*
X50933Y-58701D01*
X50992Y-58701D01*
X51016Y-58713D01*
X51028Y-58725D01*
X51040Y-58748D01*
X51040Y-58772D01*
X51028Y-58808D01*
X50885Y-58951D01*
X51040Y-58951D01*
X54601Y-36785D02*
X54482Y-36869D01*
X54601Y-36928D02*
X54351Y-36928D01*
X54351Y-36833D01*
X54363Y-36809D01*
X54375Y-36797D01*
X54398Y-36785D01*
X54434Y-36785D01*
X54458Y-36797D01*
X54470Y-36809D01*
X54482Y-36833D01*
X54482Y-36928D01*
X54601Y-36547D02*
X54601Y-36690D01*
X54601Y-36619D02*
X54351Y-36619D01*
X54386Y-36642D01*
X54410Y-36666D01*
X54422Y-36690D01*
X54351Y-36464D02*
X54351Y-36309D01*
X54446Y-36392D01*
X54446Y-36357D01*
X54458Y-36333D01*
X54470Y-36321D01*
X54494Y-36309D01*
X54553Y-36309D01*
X54577Y-36321D01*
X54589Y-36333D01*
X54601Y-36357D01*
X54601Y-36428D01*
X54589Y-36452D01*
X54577Y-36464D01*
G54D19*
X46145Y-42842D02*
X46145Y-43328D01*
X46164Y-43385D01*
X46183Y-43414D01*
X46221Y-43442D01*
X46297Y-43442D01*
X46335Y-43414D01*
X46354Y-43385D01*
X46373Y-43328D01*
X46373Y-42842D01*
X46773Y-43442D02*
X46545Y-43442D01*
X46659Y-43442D02*
X46659Y-42842D01*
X46621Y-42928D01*
X46583Y-42985D01*
X46545Y-43014D01*
X44459Y-45164D02*
X44516Y-45192D01*
X44611Y-45192D01*
X44650Y-45164D01*
X44669Y-45135D01*
X44688Y-45078D01*
X44688Y-45021D01*
X44669Y-44964D01*
X44650Y-44935D01*
X44611Y-44907D01*
X44535Y-44878D01*
X44497Y-44850D01*
X44478Y-44821D01*
X44459Y-44764D01*
X44459Y-44707D01*
X44478Y-44650D01*
X44497Y-44621D01*
X44535Y-44592D01*
X44630Y-44592D01*
X44688Y-44621D01*
X44802Y-44592D02*
X45030Y-44592D01*
X44916Y-45192D02*
X44916Y-44592D01*
X45164Y-45192D02*
X45164Y-44592D01*
X45297Y-45021D01*
X45430Y-44592D01*
X45430Y-45192D01*
X45583Y-44592D02*
X45830Y-44592D01*
X45697Y-44821D01*
X45754Y-44821D01*
X45792Y-44850D01*
X45811Y-44878D01*
X45830Y-44935D01*
X45830Y-45078D01*
X45811Y-45135D01*
X45792Y-45164D01*
X45754Y-45192D01*
X45640Y-45192D01*
X45602Y-45164D01*
X45583Y-45135D01*
X45983Y-44650D02*
X46002Y-44621D01*
X46040Y-44592D01*
X46135Y-44592D01*
X46173Y-44621D01*
X46192Y-44650D01*
X46211Y-44707D01*
X46211Y-44764D01*
X46192Y-44850D01*
X45964Y-45192D01*
X46211Y-45192D01*
X46516Y-44878D02*
X46383Y-44878D01*
X46383Y-45192D02*
X46383Y-44592D01*
X46573Y-44592D01*
X46897Y-44792D02*
X46897Y-45192D01*
X46802Y-44564D02*
X46707Y-44992D01*
X46954Y-44992D01*
X47183Y-44592D02*
X47221Y-44592D01*
X47259Y-44621D01*
X47278Y-44650D01*
X47297Y-44707D01*
X47316Y-44821D01*
X47316Y-44964D01*
X47297Y-45078D01*
X47278Y-45135D01*
X47259Y-45164D01*
X47221Y-45192D01*
X47183Y-45192D01*
X47145Y-45164D01*
X47126Y-45135D01*
X47107Y-45078D01*
X47088Y-44964D01*
X47088Y-44821D01*
X47107Y-44707D01*
X47126Y-44650D01*
X47145Y-44621D01*
X47183Y-44592D01*
X47450Y-44592D02*
X47716Y-44592D01*
X47545Y-45192D01*
X47811Y-44592D02*
X47945Y-45192D01*
X48078Y-44592D01*
X48421Y-44621D02*
X48383Y-44592D01*
X48326Y-44592D01*
X48269Y-44621D01*
X48230Y-44678D01*
X48211Y-44735D01*
X48192Y-44850D01*
X48192Y-44935D01*
X48211Y-45050D01*
X48230Y-45107D01*
X48269Y-45164D01*
X48326Y-45192D01*
X48364Y-45192D01*
X48421Y-45164D01*
X48440Y-45135D01*
X48440Y-44935D01*
X48364Y-44935D01*
X51745Y-34661D02*
X51745Y-34985D01*
X51764Y-35023D01*
X51783Y-35042D01*
X51821Y-35061D01*
X51897Y-35061D01*
X51935Y-35042D01*
X51954Y-35023D01*
X51973Y-34985D01*
X51973Y-34661D01*
X52126Y-34661D02*
X52373Y-34661D01*
X52240Y-34814D01*
X52297Y-34814D01*
X52335Y-34833D01*
X52354Y-34852D01*
X52373Y-34890D01*
X52373Y-34985D01*
X52354Y-35023D01*
X52335Y-35042D01*
X52297Y-35061D01*
X52183Y-35061D01*
X52145Y-35042D01*
X52126Y-35023D01*
X51611Y-35766D02*
X51611Y-35957D01*
X51211Y-35957D01*
X51611Y-35633D02*
X51211Y-35633D01*
X51497Y-35500D01*
X51211Y-35366D01*
X51611Y-35366D01*
X51250Y-35195D02*
X51230Y-35176D01*
X51211Y-35138D01*
X51211Y-35042D01*
X51230Y-35004D01*
X51250Y-34985D01*
X51288Y-34966D01*
X51326Y-34966D01*
X51383Y-34985D01*
X51611Y-35214D01*
X51611Y-34966D01*
X51611Y-34776D02*
X51611Y-34699D01*
X51592Y-34661D01*
X51573Y-34642D01*
X51516Y-34604D01*
X51440Y-34585D01*
X51288Y-34585D01*
X51250Y-34604D01*
X51230Y-34623D01*
X51211Y-34661D01*
X51211Y-34738D01*
X51230Y-34776D01*
X51250Y-34795D01*
X51288Y-34814D01*
X51383Y-34814D01*
X51421Y-34795D01*
X51440Y-34776D01*
X51459Y-34738D01*
X51459Y-34661D01*
X51440Y-34623D01*
X51421Y-34604D01*
X51383Y-34585D01*
X51211Y-34452D02*
X51211Y-34204D01*
X51364Y-34338D01*
X51364Y-34280D01*
X51383Y-34242D01*
X51402Y-34223D01*
X51440Y-34204D01*
X51535Y-34204D01*
X51573Y-34223D01*
X51592Y-34242D01*
X51611Y-34280D01*
X51611Y-34395D01*
X51592Y-34433D01*
X51573Y-34452D01*
X51211Y-34071D02*
X51211Y-33804D01*
X51611Y-33976D01*
G54D12*
X45307Y-36121D02*
X45507Y-36421D01*
X45507Y-36121D02*
X45307Y-36421D01*
X45778Y-36421D02*
X45607Y-36421D01*
X45692Y-36421D02*
X45692Y-36121D01*
X45664Y-36164D01*
X45635Y-36192D01*
X45607Y-36207D01*
G54D18*
X44114Y-37185D02*
X44085Y-37214D01*
X44000Y-37242D01*
X43942Y-37242D01*
X43857Y-37214D01*
X43800Y-37157D01*
X43771Y-37100D01*
X43742Y-36985D01*
X43742Y-36900D01*
X43771Y-36785D01*
X43800Y-36728D01*
X43857Y-36671D01*
X43942Y-36642D01*
X44000Y-36642D01*
X44085Y-36671D01*
X44114Y-36700D01*
X44714Y-37242D02*
X44514Y-36957D01*
X44371Y-37242D02*
X44371Y-36642D01*
X44600Y-36642D01*
X44657Y-36671D01*
X44685Y-36700D01*
X44714Y-36757D01*
X44714Y-36842D01*
X44685Y-36900D01*
X44657Y-36928D01*
X44600Y-36957D01*
X44371Y-36957D01*
X45085Y-36957D02*
X45085Y-37242D01*
X44885Y-36642D02*
X45085Y-36957D01*
X45285Y-36642D01*
X45457Y-37214D02*
X45542Y-37242D01*
X45685Y-37242D01*
X45742Y-37214D01*
X45771Y-37185D01*
X45800Y-37128D01*
X45800Y-37071D01*
X45771Y-37014D01*
X45742Y-36985D01*
X45685Y-36957D01*
X45571Y-36928D01*
X45514Y-36900D01*
X45485Y-36871D01*
X45457Y-36814D01*
X45457Y-36757D01*
X45485Y-36700D01*
X45514Y-36671D01*
X45571Y-36642D01*
X45714Y-36642D01*
X45800Y-36671D01*
X45971Y-36642D02*
X46314Y-36642D01*
X46142Y-37242D02*
X46142Y-36642D01*
X46485Y-37071D02*
X46771Y-37071D01*
X46428Y-37242D02*
X46628Y-36642D01*
X46828Y-37242D01*
X47314Y-37242D02*
X47028Y-37242D01*
X47028Y-36642D01*
G54D21*
X49777Y-58585D02*
X49789Y-58597D01*
X49801Y-58633D01*
X49801Y-58657D01*
X49789Y-58692D01*
X49765Y-58716D01*
X49741Y-58728D01*
X49694Y-58740D01*
X49658Y-58740D01*
X49610Y-58728D01*
X49586Y-58716D01*
X49563Y-58692D01*
X49551Y-58657D01*
X49551Y-58633D01*
X49563Y-58597D01*
X49575Y-58585D01*
X49575Y-58490D02*
X49563Y-58478D01*
X49551Y-58454D01*
X49551Y-58395D01*
X49563Y-58371D01*
X49575Y-58359D01*
X49598Y-58347D01*
X49622Y-58347D01*
X49658Y-58359D01*
X49801Y-58502D01*
X49801Y-58347D01*
X49551Y-58192D02*
X49551Y-58169D01*
X49563Y-58145D01*
X49575Y-58133D01*
X49598Y-58121D01*
X49646Y-58109D01*
X49705Y-58109D01*
X49753Y-58121D01*
X49777Y-58133D01*
X49789Y-58145D01*
X49801Y-58169D01*
X49801Y-58192D01*
X49789Y-58216D01*
X49777Y-58228D01*
X49753Y-58240D01*
X49705Y-58252D01*
X49646Y-58252D01*
X49598Y-58240D01*
X49575Y-58228D01*
X49563Y-58216D01*
X49551Y-58192D01*
X49801Y-60985D02*
X49682Y-61069D01*
X49801Y-61128D02*
X49551Y-61128D01*
X49551Y-61033D01*
X49563Y-61009D01*
X49575Y-60997D01*
X49598Y-60985D01*
X49634Y-60985D01*
X49658Y-60997D01*
X49670Y-61009D01*
X49682Y-61033D01*
X49682Y-61128D01*
X49801Y-60747D02*
X49801Y-60890D01*
X49801Y-60819D02*
X49551Y-60819D01*
X49586Y-60842D01*
X49610Y-60866D01*
X49622Y-60890D01*
X49634Y-60533D02*
X49801Y-60533D01*
X49539Y-60592D02*
X49717Y-60652D01*
X49717Y-60497D01*
X53164Y-39777D02*
X53152Y-39789D01*
X53116Y-39801D01*
X53092Y-39801D01*
X53057Y-39789D01*
X53033Y-39765D01*
X53021Y-39741D01*
X53009Y-39694D01*
X53009Y-39658D01*
X53021Y-39610D01*
X53033Y-39586D01*
X53057Y-39563D01*
X53092Y-39551D01*
X53116Y-39551D01*
X53152Y-39563D01*
X53164Y-39575D01*
X53259Y-39575D02*
X53271Y-39563D01*
X53295Y-39551D01*
X53354Y-39551D01*
X53378Y-39563D01*
X53390Y-39575D01*
X53402Y-39598D01*
X53402Y-39622D01*
X53390Y-39658D01*
X53247Y-39801D01*
X53402Y-39801D01*
X53640Y-39801D02*
X53497Y-39801D01*
X53569Y-39801D02*
X53569Y-39551D01*
X53545Y-39586D01*
X53521Y-39610D01*
X53497Y-39622D01*
X49664Y-38377D02*
X49652Y-38389D01*
X49616Y-38401D01*
X49592Y-38401D01*
X49557Y-38389D01*
X49533Y-38365D01*
X49521Y-38341D01*
X49509Y-38294D01*
X49509Y-38258D01*
X49521Y-38210D01*
X49533Y-38186D01*
X49557Y-38163D01*
X49592Y-38151D01*
X49616Y-38151D01*
X49652Y-38163D01*
X49664Y-38175D01*
X49759Y-38175D02*
X49771Y-38163D01*
X49795Y-38151D01*
X49854Y-38151D01*
X49878Y-38163D01*
X49890Y-38175D01*
X49902Y-38198D01*
X49902Y-38222D01*
X49890Y-38258D01*
X49747Y-38401D01*
X49902Y-38401D01*
X49997Y-38175D02*
X50009Y-38163D01*
X50033Y-38151D01*
X50092Y-38151D01*
X50116Y-38163D01*
X50128Y-38175D01*
X50140Y-38198D01*
X50140Y-38222D01*
X50128Y-38258D01*
X49985Y-38401D01*
X50140Y-38401D01*
X50179Y-38511D02*
X50179Y-38623D01*
X50179Y-38567D02*
X49982Y-38567D01*
X50010Y-38586D01*
X50029Y-38604D01*
X50039Y-38623D01*
X50067Y-38398D02*
X50057Y-38417D01*
X50048Y-38426D01*
X50029Y-38436D01*
X50020Y-38436D01*
X50001Y-38426D01*
X49992Y-38417D01*
X49982Y-38398D01*
X49982Y-38360D01*
X49992Y-38342D01*
X50001Y-38332D01*
X50020Y-38323D01*
X50029Y-38323D01*
X50048Y-38332D01*
X50057Y-38342D01*
X50067Y-38360D01*
X50067Y-38398D01*
X50076Y-38417D01*
X50085Y-38426D01*
X50104Y-38436D01*
X50142Y-38436D01*
X50160Y-38426D01*
X50170Y-38417D01*
X50179Y-38398D01*
X50179Y-38360D01*
X50170Y-38342D01*
X50160Y-38332D01*
X50142Y-38323D01*
X50104Y-38323D01*
X50085Y-38332D01*
X50076Y-38342D01*
X50067Y-38360D01*
X50048Y-38239D02*
X50245Y-38239D01*
X50057Y-38239D02*
X50048Y-38220D01*
X50048Y-38182D01*
X50057Y-38163D01*
X50067Y-38154D01*
X50085Y-38145D01*
X50142Y-38145D01*
X50160Y-38154D01*
X50170Y-38163D01*
X50179Y-38182D01*
X50179Y-38220D01*
X50170Y-38239D01*
X50076Y-37995D02*
X50076Y-38060D01*
X50179Y-38060D02*
X49982Y-38060D01*
X49982Y-37966D01*
G54D10*
X51481Y-38015D02*
X51743Y-38409D01*
X51743Y-38015D02*
X51481Y-38409D01*
X51874Y-38053D02*
X51893Y-38034D01*
X51931Y-38015D01*
X52024Y-38015D01*
X52062Y-38034D01*
X52081Y-38053D01*
X52099Y-38090D01*
X52099Y-38128D01*
X52081Y-38184D01*
X51856Y-38409D01*
X52099Y-38409D01*
X49644Y-37671D02*
X49625Y-37690D01*
X49569Y-37709D01*
X49531Y-37709D01*
X49475Y-37690D01*
X49437Y-37653D01*
X49419Y-37615D01*
X49400Y-37540D01*
X49400Y-37484D01*
X49419Y-37409D01*
X49437Y-37371D01*
X49475Y-37334D01*
X49531Y-37315D01*
X49569Y-37315D01*
X49625Y-37334D01*
X49644Y-37353D01*
X50037Y-37709D02*
X49906Y-37521D01*
X49812Y-37709D02*
X49812Y-37315D01*
X49962Y-37315D01*
X50000Y-37334D01*
X50018Y-37353D01*
X50037Y-37390D01*
X50037Y-37446D01*
X50018Y-37484D01*
X50000Y-37503D01*
X49962Y-37521D01*
X49812Y-37521D01*
X50281Y-37521D02*
X50281Y-37709D01*
X50150Y-37315D02*
X50281Y-37521D01*
X50412Y-37315D01*
X50525Y-37690D02*
X50581Y-37709D01*
X50675Y-37709D01*
X50712Y-37690D01*
X50731Y-37671D01*
X50750Y-37634D01*
X50750Y-37596D01*
X50731Y-37559D01*
X50712Y-37540D01*
X50675Y-37521D01*
X50600Y-37503D01*
X50562Y-37484D01*
X50543Y-37465D01*
X50525Y-37428D01*
X50525Y-37390D01*
X50543Y-37353D01*
X50562Y-37334D01*
X50600Y-37315D01*
X50693Y-37315D01*
X50750Y-37334D01*
X50862Y-37315D02*
X51087Y-37315D01*
X50975Y-37709D02*
X50975Y-37315D01*
X51200Y-37596D02*
X51387Y-37596D01*
X51162Y-37709D02*
X51293Y-37315D01*
X51425Y-37709D01*
X51743Y-37709D02*
X51556Y-37709D01*
X51556Y-37315D01*
X51987Y-37859D02*
X51968Y-37840D01*
X51931Y-37784D01*
X51912Y-37746D01*
X51893Y-37690D01*
X51874Y-37596D01*
X51874Y-37521D01*
X51893Y-37428D01*
X51912Y-37371D01*
X51931Y-37334D01*
X51968Y-37278D01*
X51987Y-37259D01*
X52137Y-37709D02*
X52137Y-37315D01*
X52268Y-37596D01*
X52399Y-37315D01*
X52399Y-37709D01*
X52812Y-37671D02*
X52793Y-37690D01*
X52737Y-37709D01*
X52699Y-37709D01*
X52643Y-37690D01*
X52606Y-37653D01*
X52587Y-37615D01*
X52568Y-37540D01*
X52568Y-37484D01*
X52587Y-37409D01*
X52606Y-37371D01*
X52643Y-37334D01*
X52699Y-37315D01*
X52737Y-37315D01*
X52793Y-37334D01*
X52812Y-37353D01*
X52943Y-37315D02*
X53187Y-37315D01*
X53056Y-37465D01*
X53112Y-37465D01*
X53149Y-37484D01*
X53168Y-37503D01*
X53187Y-37540D01*
X53187Y-37634D01*
X53168Y-37671D01*
X53149Y-37690D01*
X53112Y-37709D01*
X52999Y-37709D01*
X52962Y-37690D01*
X52943Y-37671D01*
X53431Y-37315D02*
X53468Y-37315D01*
X53506Y-37334D01*
X53524Y-37353D01*
X53543Y-37390D01*
X53562Y-37465D01*
X53562Y-37559D01*
X53543Y-37634D01*
X53524Y-37671D01*
X53506Y-37690D01*
X53468Y-37709D01*
X53431Y-37709D01*
X53393Y-37690D01*
X53374Y-37671D01*
X53356Y-37634D01*
X53337Y-37559D01*
X53337Y-37465D01*
X53356Y-37390D01*
X53374Y-37353D01*
X53393Y-37334D01*
X53431Y-37315D01*
X53899Y-37315D02*
X53824Y-37315D01*
X53787Y-37334D01*
X53768Y-37353D01*
X53731Y-37409D01*
X53712Y-37484D01*
X53712Y-37634D01*
X53731Y-37671D01*
X53749Y-37690D01*
X53787Y-37709D01*
X53862Y-37709D01*
X53899Y-37690D01*
X53918Y-37671D01*
X53937Y-37634D01*
X53937Y-37540D01*
X53918Y-37503D01*
X53899Y-37484D01*
X53862Y-37465D01*
X53787Y-37465D01*
X53749Y-37484D01*
X53731Y-37503D01*
X53712Y-37540D01*
X54068Y-37859D02*
X54087Y-37840D01*
X54124Y-37784D01*
X54143Y-37746D01*
X54162Y-37690D01*
X54180Y-37596D01*
X54180Y-37521D01*
X54162Y-37428D01*
X54143Y-37371D01*
X54124Y-37334D01*
X54087Y-37278D01*
X54068Y-37259D01*
G54D23*
X46516Y-57601D02*
X46516Y-57779D01*
X46504Y-57815D01*
X46480Y-57839D01*
X46445Y-57851D01*
X46421Y-57851D01*
X46766Y-57851D02*
X46623Y-57851D01*
X46695Y-57851D02*
X46695Y-57601D01*
X46671Y-57636D01*
X46647Y-57660D01*
X46623Y-57672D01*
G54D17*
X46204Y-60318D02*
X46204Y-60148D01*
X46260Y-60270D01*
X46317Y-60148D01*
X46317Y-60318D01*
X46398Y-60318D02*
X46398Y-60148D01*
X46479Y-60318D02*
X46479Y-60148D01*
X46576Y-60318D01*
X46576Y-60148D01*
X46657Y-60318D02*
X46657Y-60148D01*
X46738Y-60254D02*
X46867Y-60254D01*
X46948Y-60148D02*
X46948Y-60286D01*
X46956Y-60302D01*
X46965Y-60310D01*
X46981Y-60318D01*
X47013Y-60318D01*
X47029Y-60310D01*
X47037Y-60302D01*
X47045Y-60286D01*
X47045Y-60148D01*
X47118Y-60310D02*
X47143Y-60318D01*
X47183Y-60318D01*
X47199Y-60310D01*
X47207Y-60302D01*
X47215Y-60286D01*
X47215Y-60270D01*
X47207Y-60254D01*
X47199Y-60245D01*
X47183Y-60237D01*
X47151Y-60229D01*
X47135Y-60221D01*
X47126Y-60213D01*
X47118Y-60197D01*
X47118Y-60181D01*
X47126Y-60165D01*
X47135Y-60156D01*
X47151Y-60148D01*
X47191Y-60148D01*
X47215Y-60156D01*
X47345Y-60229D02*
X47369Y-60237D01*
X47377Y-60245D01*
X47385Y-60262D01*
X47385Y-60286D01*
X47377Y-60302D01*
X47369Y-60310D01*
X47353Y-60318D01*
X47288Y-60318D01*
X47288Y-60148D01*
X47345Y-60148D01*
X47361Y-60156D01*
X47369Y-60165D01*
X47377Y-60181D01*
X47377Y-60197D01*
X47369Y-60213D01*
X47361Y-60221D01*
X47345Y-60229D01*
X47288Y-60229D01*
X47458Y-60254D02*
X47588Y-60254D01*
X47750Y-60148D02*
X47669Y-60148D01*
X47661Y-60229D01*
X47669Y-60221D01*
X47685Y-60213D01*
X47725Y-60213D01*
X47742Y-60221D01*
X47750Y-60229D01*
X47758Y-60245D01*
X47758Y-60286D01*
X47750Y-60302D01*
X47742Y-60310D01*
X47725Y-60318D01*
X47685Y-60318D01*
X47669Y-60310D01*
X47661Y-60302D01*
X47831Y-60318D02*
X47831Y-60148D01*
X47895Y-60148D01*
X47912Y-60156D01*
X47920Y-60165D01*
X47928Y-60181D01*
X47928Y-60205D01*
X47920Y-60221D01*
X47912Y-60229D01*
X47895Y-60237D01*
X47831Y-60237D01*
X48001Y-60254D02*
X48130Y-60254D01*
X48195Y-60148D02*
X48300Y-60148D01*
X48244Y-60213D01*
X48268Y-60213D01*
X48284Y-60221D01*
X48292Y-60229D01*
X48300Y-60245D01*
X48300Y-60286D01*
X48292Y-60302D01*
X48284Y-60310D01*
X48268Y-60318D01*
X48219Y-60318D01*
X48203Y-60310D01*
X48195Y-60302D01*
X48446Y-60205D02*
X48446Y-60318D01*
X48405Y-60140D02*
X48365Y-60262D01*
X48470Y-60262D01*
X48567Y-60148D02*
X48584Y-60148D01*
X48600Y-60156D01*
X48608Y-60165D01*
X48616Y-60181D01*
X48624Y-60213D01*
X48624Y-60254D01*
X48616Y-60286D01*
X48608Y-60302D01*
X48600Y-60310D01*
X48584Y-60318D01*
X48567Y-60318D01*
X48551Y-60310D01*
X48543Y-60302D01*
X48535Y-60286D01*
X48527Y-60254D01*
X48527Y-60213D01*
X48535Y-60181D01*
X48543Y-60165D01*
X48551Y-60156D01*
X48567Y-60148D01*
X48729Y-60148D02*
X48745Y-60148D01*
X48762Y-60156D01*
X48770Y-60165D01*
X48778Y-60181D01*
X48786Y-60213D01*
X48786Y-60254D01*
X48778Y-60286D01*
X48770Y-60302D01*
X48762Y-60310D01*
X48745Y-60318D01*
X48729Y-60318D01*
X48713Y-60310D01*
X48705Y-60302D01*
X48697Y-60286D01*
X48689Y-60254D01*
X48689Y-60213D01*
X48697Y-60181D01*
X48705Y-60165D01*
X48713Y-60156D01*
X48729Y-60148D01*
X48891Y-60148D02*
X48907Y-60148D01*
X48924Y-60156D01*
X48932Y-60165D01*
X48940Y-60181D01*
X48948Y-60213D01*
X48948Y-60254D01*
X48940Y-60286D01*
X48932Y-60302D01*
X48924Y-60310D01*
X48907Y-60318D01*
X48891Y-60318D01*
X48875Y-60310D01*
X48867Y-60302D01*
X48859Y-60286D01*
X48851Y-60254D01*
X48851Y-60213D01*
X48859Y-60181D01*
X48867Y-60165D01*
X48875Y-60156D01*
X48891Y-60148D01*
X49013Y-60165D02*
X49021Y-60156D01*
X49037Y-60148D01*
X49077Y-60148D01*
X49094Y-60156D01*
X49102Y-60165D01*
X49110Y-60181D01*
X49110Y-60197D01*
X49102Y-60221D01*
X49005Y-60318D01*
X49110Y-60318D01*
X49215Y-60148D02*
X49231Y-60148D01*
X49247Y-60156D01*
X49255Y-60165D01*
X49264Y-60181D01*
X49272Y-60213D01*
X49272Y-60254D01*
X49264Y-60286D01*
X49255Y-60302D01*
X49247Y-60310D01*
X49231Y-60318D01*
X49215Y-60318D01*
X49199Y-60310D01*
X49191Y-60302D01*
X49183Y-60286D01*
X49175Y-60254D01*
X49175Y-60213D01*
X49183Y-60181D01*
X49191Y-60165D01*
X49199Y-60156D01*
X49215Y-60148D01*
X49345Y-60318D02*
X49345Y-60148D01*
X49409Y-60148D01*
X49425Y-60156D01*
X49434Y-60165D01*
X49442Y-60181D01*
X49442Y-60205D01*
X49434Y-60221D01*
X49425Y-60229D01*
X49409Y-60237D01*
X49345Y-60237D01*
X49604Y-60318D02*
X49506Y-60318D01*
X49555Y-60318D02*
X49555Y-60148D01*
X49539Y-60173D01*
X49523Y-60189D01*
X49506Y-60197D01*
G54D21*
X48715Y-34051D02*
X48715Y-33801D01*
X48775Y-33801D01*
X48810Y-33813D01*
X48834Y-33836D01*
X48846Y-33860D01*
X48858Y-33908D01*
X48858Y-33944D01*
X48846Y-33991D01*
X48834Y-34015D01*
X48810Y-34039D01*
X48775Y-34051D01*
X48715Y-34051D01*
X49084Y-33801D02*
X48965Y-33801D01*
X48953Y-33920D01*
X48965Y-33908D01*
X48989Y-33896D01*
X49048Y-33896D01*
X49072Y-33908D01*
X49084Y-33920D01*
X49096Y-33944D01*
X49096Y-34003D01*
X49084Y-34027D01*
X49072Y-34039D01*
X49048Y-34051D01*
X48989Y-34051D01*
X48965Y-34039D01*
X48953Y-34027D01*
X48215Y-33579D02*
X48215Y-33382D01*
X48262Y-33382D01*
X48290Y-33392D01*
X48309Y-33410D01*
X48318Y-33429D01*
X48327Y-33467D01*
X48327Y-33495D01*
X48318Y-33532D01*
X48309Y-33551D01*
X48290Y-33570D01*
X48262Y-33579D01*
X48215Y-33579D01*
X48412Y-33579D02*
X48412Y-33382D01*
X48543Y-33382D02*
X48581Y-33382D01*
X48599Y-33392D01*
X48618Y-33410D01*
X48627Y-33448D01*
X48627Y-33514D01*
X48618Y-33551D01*
X48599Y-33570D01*
X48581Y-33579D01*
X48543Y-33579D01*
X48524Y-33570D01*
X48506Y-33551D01*
X48496Y-33514D01*
X48496Y-33448D01*
X48506Y-33410D01*
X48524Y-33392D01*
X48543Y-33382D01*
X48712Y-33579D02*
X48712Y-33382D01*
X48759Y-33382D01*
X48787Y-33392D01*
X48806Y-33410D01*
X48815Y-33429D01*
X48824Y-33467D01*
X48824Y-33495D01*
X48815Y-33532D01*
X48806Y-33551D01*
X48787Y-33570D01*
X48759Y-33579D01*
X48712Y-33579D01*
X48909Y-33476D02*
X48975Y-33476D01*
X49003Y-33579D02*
X48909Y-33579D01*
X48909Y-33382D01*
X49003Y-33382D01*
X49078Y-33570D02*
X49106Y-33579D01*
X49153Y-33579D01*
X49172Y-33570D01*
X49181Y-33560D01*
X49190Y-33542D01*
X49190Y-33523D01*
X49181Y-33504D01*
X49172Y-33495D01*
X49153Y-33485D01*
X49115Y-33476D01*
X49097Y-33467D01*
X49087Y-33457D01*
X49078Y-33439D01*
X49078Y-33420D01*
X49087Y-33401D01*
X49097Y-33392D01*
X49115Y-33382D01*
X49162Y-33382D01*
X49190Y-33392D01*
X49387Y-33560D02*
X49378Y-33570D01*
X49350Y-33579D01*
X49331Y-33579D01*
X49303Y-33570D01*
X49284Y-33551D01*
X49275Y-33532D01*
X49265Y-33495D01*
X49265Y-33467D01*
X49275Y-33429D01*
X49284Y-33410D01*
X49303Y-33392D01*
X49331Y-33382D01*
X49350Y-33382D01*
X49378Y-33392D01*
X49387Y-33401D01*
X49472Y-33579D02*
X49472Y-33382D01*
X49472Y-33476D02*
X49584Y-33476D01*
X49584Y-33579D02*
X49584Y-33382D01*
X51840Y-58651D02*
X51840Y-58401D01*
X51900Y-58401D01*
X51935Y-58413D01*
X51959Y-58436D01*
X51971Y-58460D01*
X51983Y-58508D01*
X51983Y-58544D01*
X51971Y-58591D01*
X51959Y-58615D01*
X51935Y-58639D01*
X51900Y-58651D01*
X51840Y-58651D01*
X52197Y-58401D02*
X52150Y-58401D01*
X52126Y-58413D01*
X52114Y-58425D01*
X52090Y-58460D01*
X52078Y-58508D01*
X52078Y-58603D01*
X52090Y-58627D01*
X52102Y-58639D01*
X52126Y-58651D01*
X52173Y-58651D01*
X52197Y-58639D01*
X52209Y-58627D01*
X52221Y-58603D01*
X52221Y-58544D01*
X52209Y-58520D01*
X52197Y-58508D01*
X52173Y-58496D01*
X52126Y-58496D01*
X52102Y-58508D01*
X52090Y-58520D01*
X52078Y-58544D01*
X51340Y-58179D02*
X51340Y-57982D01*
X51387Y-57982D01*
X51415Y-57992D01*
X51434Y-58010D01*
X51443Y-58029D01*
X51452Y-58067D01*
X51452Y-58095D01*
X51443Y-58132D01*
X51434Y-58151D01*
X51415Y-58170D01*
X51387Y-58179D01*
X51340Y-58179D01*
X51537Y-58179D02*
X51537Y-57982D01*
X51668Y-57982D02*
X51706Y-57982D01*
X51724Y-57992D01*
X51743Y-58010D01*
X51752Y-58048D01*
X51752Y-58114D01*
X51743Y-58151D01*
X51724Y-58170D01*
X51706Y-58179D01*
X51668Y-58179D01*
X51649Y-58170D01*
X51631Y-58151D01*
X51621Y-58114D01*
X51621Y-58048D01*
X51631Y-58010D01*
X51649Y-57992D01*
X51668Y-57982D01*
X51837Y-58179D02*
X51837Y-57982D01*
X51884Y-57982D01*
X51912Y-57992D01*
X51931Y-58010D01*
X51940Y-58029D01*
X51949Y-58067D01*
X51949Y-58095D01*
X51940Y-58132D01*
X51931Y-58151D01*
X51912Y-58170D01*
X51884Y-58179D01*
X51837Y-58179D01*
X52034Y-58076D02*
X52100Y-58076D01*
X52128Y-58179D02*
X52034Y-58179D01*
X52034Y-57982D01*
X52128Y-57982D01*
X52203Y-58170D02*
X52231Y-58179D01*
X52278Y-58179D01*
X52297Y-58170D01*
X52306Y-58160D01*
X52315Y-58142D01*
X52315Y-58123D01*
X52306Y-58104D01*
X52297Y-58095D01*
X52278Y-58085D01*
X52240Y-58076D01*
X52222Y-58067D01*
X52212Y-58057D01*
X52203Y-58039D01*
X52203Y-58020D01*
X52212Y-58001D01*
X52222Y-57992D01*
X52240Y-57982D01*
X52287Y-57982D01*
X52315Y-57992D01*
X52512Y-58160D02*
X52503Y-58170D01*
X52475Y-58179D01*
X52456Y-58179D01*
X52428Y-58170D01*
X52409Y-58151D01*
X52400Y-58132D01*
X52390Y-58095D01*
X52390Y-58067D01*
X52400Y-58029D01*
X52409Y-58010D01*
X52428Y-57992D01*
X52456Y-57982D01*
X52475Y-57982D01*
X52503Y-57992D01*
X52512Y-58001D01*
X52597Y-58179D02*
X52597Y-57982D01*
X52597Y-58076D02*
X52709Y-58076D01*
X52709Y-58179D02*
X52709Y-57982D01*
X54465Y-38751D02*
X54465Y-38501D01*
X54525Y-38501D01*
X54560Y-38513D01*
X54584Y-38536D01*
X54596Y-38560D01*
X54608Y-38608D01*
X54608Y-38644D01*
X54596Y-38691D01*
X54584Y-38715D01*
X54560Y-38739D01*
X54525Y-38751D01*
X54465Y-38751D01*
X54727Y-38751D02*
X54775Y-38751D01*
X54798Y-38739D01*
X54810Y-38727D01*
X54834Y-38691D01*
X54846Y-38644D01*
X54846Y-38548D01*
X54834Y-38525D01*
X54822Y-38513D01*
X54798Y-38501D01*
X54751Y-38501D01*
X54727Y-38513D01*
X54715Y-38525D01*
X54703Y-38548D01*
X54703Y-38608D01*
X54715Y-38632D01*
X54727Y-38644D01*
X54751Y-38655D01*
X54798Y-38655D01*
X54822Y-38644D01*
X54834Y-38632D01*
X54846Y-38608D01*
X53965Y-38279D02*
X53965Y-38082D01*
X54012Y-38082D01*
X54040Y-38092D01*
X54059Y-38110D01*
X54068Y-38129D01*
X54077Y-38167D01*
X54077Y-38195D01*
X54068Y-38232D01*
X54059Y-38251D01*
X54040Y-38270D01*
X54012Y-38279D01*
X53965Y-38279D01*
X54162Y-38279D02*
X54162Y-38082D01*
X54293Y-38082D02*
X54331Y-38082D01*
X54349Y-38092D01*
X54368Y-38110D01*
X54377Y-38148D01*
X54377Y-38214D01*
X54368Y-38251D01*
X54349Y-38270D01*
X54331Y-38279D01*
X54293Y-38279D01*
X54274Y-38270D01*
X54256Y-38251D01*
X54246Y-38214D01*
X54246Y-38148D01*
X54256Y-38110D01*
X54274Y-38092D01*
X54293Y-38082D01*
X54462Y-38279D02*
X54462Y-38082D01*
X54509Y-38082D01*
X54537Y-38092D01*
X54556Y-38110D01*
X54565Y-38129D01*
X54574Y-38167D01*
X54574Y-38195D01*
X54565Y-38232D01*
X54556Y-38251D01*
X54537Y-38270D01*
X54509Y-38279D01*
X54462Y-38279D01*
X54659Y-38176D02*
X54725Y-38176D01*
X54753Y-38279D02*
X54659Y-38279D01*
X54659Y-38082D01*
X54753Y-38082D01*
X54828Y-38270D02*
X54856Y-38279D01*
X54903Y-38279D01*
X54922Y-38270D01*
X54931Y-38260D01*
X54940Y-38242D01*
X54940Y-38223D01*
X54931Y-38204D01*
X54922Y-38195D01*
X54903Y-38185D01*
X54865Y-38176D01*
X54847Y-38167D01*
X54837Y-38157D01*
X54828Y-38139D01*
X54828Y-38120D01*
X54837Y-38101D01*
X54847Y-38092D01*
X54865Y-38082D01*
X54912Y-38082D01*
X54940Y-38092D01*
X55137Y-38260D02*
X55128Y-38270D01*
X55100Y-38279D01*
X55081Y-38279D01*
X55053Y-38270D01*
X55034Y-38251D01*
X55025Y-38232D01*
X55015Y-38195D01*
X55015Y-38167D01*
X55025Y-38129D01*
X55034Y-38110D01*
X55053Y-38092D01*
X55081Y-38082D01*
X55100Y-38082D01*
X55128Y-38092D01*
X55137Y-38101D01*
X55222Y-38279D02*
X55222Y-38082D01*
X55222Y-38176D02*
X55334Y-38176D01*
X55334Y-38279D02*
X55334Y-38082D01*
X54221Y-37901D02*
X54221Y-37651D01*
X54280Y-37651D01*
X54316Y-37663D01*
X54340Y-37686D01*
X54352Y-37710D01*
X54364Y-37758D01*
X54364Y-37794D01*
X54352Y-37841D01*
X54340Y-37865D01*
X54316Y-37889D01*
X54280Y-37901D01*
X54221Y-37901D01*
X54602Y-37901D02*
X54459Y-37901D01*
X54530Y-37901D02*
X54530Y-37651D01*
X54507Y-37686D01*
X54483Y-37710D01*
X54459Y-37722D01*
X54757Y-37651D02*
X54780Y-37651D01*
X54804Y-37663D01*
X54816Y-37675D01*
X54828Y-37698D01*
X54840Y-37746D01*
X54840Y-37805D01*
X54828Y-37853D01*
X54816Y-37877D01*
X54804Y-37889D01*
X54780Y-37901D01*
X54757Y-37901D01*
X54733Y-37889D01*
X54721Y-37877D01*
X54709Y-37853D01*
X54697Y-37805D01*
X54697Y-37746D01*
X54709Y-37698D01*
X54721Y-37675D01*
X54733Y-37663D01*
X54757Y-37651D01*
X53840Y-37429D02*
X53840Y-37232D01*
X53887Y-37232D01*
X53915Y-37242D01*
X53934Y-37260D01*
X53943Y-37279D01*
X53952Y-37317D01*
X53952Y-37345D01*
X53943Y-37382D01*
X53934Y-37401D01*
X53915Y-37420D01*
X53887Y-37429D01*
X53840Y-37429D01*
X54037Y-37429D02*
X54037Y-37232D01*
X54168Y-37232D02*
X54206Y-37232D01*
X54224Y-37242D01*
X54243Y-37260D01*
X54252Y-37298D01*
X54252Y-37364D01*
X54243Y-37401D01*
X54224Y-37420D01*
X54206Y-37429D01*
X54168Y-37429D01*
X54149Y-37420D01*
X54131Y-37401D01*
X54121Y-37364D01*
X54121Y-37298D01*
X54131Y-37260D01*
X54149Y-37242D01*
X54168Y-37232D01*
X54337Y-37429D02*
X54337Y-37232D01*
X54384Y-37232D01*
X54412Y-37242D01*
X54431Y-37260D01*
X54440Y-37279D01*
X54449Y-37317D01*
X54449Y-37345D01*
X54440Y-37382D01*
X54431Y-37401D01*
X54412Y-37420D01*
X54384Y-37429D01*
X54337Y-37429D01*
X54534Y-37326D02*
X54600Y-37326D01*
X54628Y-37429D02*
X54534Y-37429D01*
X54534Y-37232D01*
X54628Y-37232D01*
X54703Y-37420D02*
X54731Y-37429D01*
X54778Y-37429D01*
X54797Y-37420D01*
X54806Y-37410D01*
X54815Y-37392D01*
X54815Y-37373D01*
X54806Y-37354D01*
X54797Y-37345D01*
X54778Y-37335D01*
X54740Y-37326D01*
X54722Y-37317D01*
X54712Y-37307D01*
X54703Y-37289D01*
X54703Y-37270D01*
X54712Y-37251D01*
X54722Y-37242D01*
X54740Y-37232D01*
X54787Y-37232D01*
X54815Y-37242D01*
X55012Y-37410D02*
X55003Y-37420D01*
X54975Y-37429D01*
X54956Y-37429D01*
X54928Y-37420D01*
X54909Y-37401D01*
X54900Y-37382D01*
X54890Y-37345D01*
X54890Y-37317D01*
X54900Y-37279D01*
X54909Y-37260D01*
X54928Y-37242D01*
X54956Y-37232D01*
X54975Y-37232D01*
X55003Y-37242D01*
X55012Y-37251D01*
X55097Y-37429D02*
X55097Y-37232D01*
X55097Y-37326D02*
X55209Y-37326D01*
X55209Y-37429D02*
X55209Y-37232D01*
X48134Y-54901D02*
X48134Y-55103D01*
X48146Y-55127D01*
X48158Y-55139D01*
X48182Y-55151D01*
X48229Y-55151D01*
X48253Y-55139D01*
X48265Y-55127D01*
X48277Y-55103D01*
X48277Y-54901D01*
X48384Y-54925D02*
X48396Y-54913D01*
X48420Y-54901D01*
X48479Y-54901D01*
X48503Y-54913D01*
X48515Y-54925D01*
X48527Y-54948D01*
X48527Y-54972D01*
X48515Y-55008D01*
X48372Y-55151D01*
X48527Y-55151D01*
X47325Y-56054D02*
X47325Y-55857D01*
X47438Y-56054D01*
X47438Y-55857D01*
X47532Y-55857D02*
X47532Y-56017D01*
X47541Y-56035D01*
X47551Y-56045D01*
X47569Y-56054D01*
X47607Y-56054D01*
X47626Y-56045D01*
X47635Y-56035D01*
X47644Y-56017D01*
X47644Y-55857D01*
X47804Y-55951D02*
X47738Y-55951D01*
X47738Y-56054D02*
X47738Y-55857D01*
X47832Y-55857D01*
X47898Y-55876D02*
X47907Y-55867D01*
X47926Y-55857D01*
X47973Y-55857D01*
X47991Y-55867D01*
X48001Y-55876D01*
X48010Y-55895D01*
X48010Y-55914D01*
X48001Y-55942D01*
X47888Y-56054D01*
X48010Y-56054D01*
X48198Y-56054D02*
X48085Y-56054D01*
X48142Y-56054D02*
X48142Y-55857D01*
X48123Y-55885D01*
X48104Y-55904D01*
X48085Y-55914D01*
X48320Y-55857D02*
X48339Y-55857D01*
X48357Y-55867D01*
X48367Y-55876D01*
X48376Y-55895D01*
X48385Y-55932D01*
X48385Y-55979D01*
X48376Y-56017D01*
X48367Y-56035D01*
X48357Y-56045D01*
X48339Y-56054D01*
X48320Y-56054D01*
X48301Y-56045D01*
X48292Y-56035D01*
X48282Y-56017D01*
X48273Y-55979D01*
X48273Y-55932D01*
X48282Y-55895D01*
X48292Y-55876D01*
X48301Y-55867D01*
X48320Y-55857D01*
X48573Y-56054D02*
X48461Y-56054D01*
X48517Y-56054D02*
X48517Y-55857D01*
X48498Y-55885D01*
X48479Y-55904D01*
X48461Y-55914D01*
X48658Y-56054D02*
X48658Y-55857D01*
X48723Y-55998D01*
X48789Y-55857D01*
X48789Y-56054D01*
X48855Y-55857D02*
X48967Y-55857D01*
X48911Y-56054D02*
X48911Y-55857D01*
X49136Y-56054D02*
X49023Y-56054D01*
X49080Y-56054D02*
X49080Y-55857D01*
X49061Y-55885D01*
X49042Y-55904D01*
X49023Y-55914D01*
X49324Y-55867D02*
X49305Y-55857D01*
X49277Y-55857D01*
X49249Y-55867D01*
X49230Y-55885D01*
X49220Y-55904D01*
X49211Y-55942D01*
X49211Y-55970D01*
X49220Y-56007D01*
X49230Y-56026D01*
X49249Y-56045D01*
X49277Y-56054D01*
X49295Y-56054D01*
X49324Y-56045D01*
X49333Y-56035D01*
X49333Y-55970D01*
X49295Y-55970D01*
X49550Y-51457D02*
X49592Y-51471D01*
X49664Y-51471D01*
X49692Y-51457D01*
X49707Y-51442D01*
X49721Y-51414D01*
X49721Y-51385D01*
X49707Y-51357D01*
X49692Y-51342D01*
X49664Y-51328D01*
X49607Y-51314D01*
X49578Y-51300D01*
X49564Y-51285D01*
X49550Y-51257D01*
X49550Y-51228D01*
X49564Y-51200D01*
X49578Y-51185D01*
X49607Y-51171D01*
X49678Y-51171D01*
X49721Y-51185D01*
X49821Y-51171D02*
X49892Y-51471D01*
X49950Y-51257D01*
X50007Y-51471D01*
X50078Y-51171D01*
X50350Y-51471D02*
X50178Y-51471D01*
X50264Y-51471D02*
X50264Y-51171D01*
X50235Y-51214D01*
X50207Y-51242D01*
X50178Y-51257D01*
X49307Y-50970D02*
X49335Y-50979D01*
X49382Y-50979D01*
X49401Y-50970D01*
X49410Y-50960D01*
X49419Y-50942D01*
X49419Y-50923D01*
X49410Y-50904D01*
X49401Y-50895D01*
X49382Y-50885D01*
X49344Y-50876D01*
X49326Y-50867D01*
X49316Y-50857D01*
X49307Y-50839D01*
X49307Y-50820D01*
X49316Y-50801D01*
X49326Y-50792D01*
X49344Y-50782D01*
X49391Y-50782D01*
X49419Y-50792D01*
X49485Y-50782D02*
X49532Y-50979D01*
X49570Y-50839D01*
X49607Y-50979D01*
X49654Y-50782D01*
X49682Y-50998D02*
X49832Y-50998D01*
X49879Y-50979D02*
X49879Y-50782D01*
X49954Y-50782D01*
X49973Y-50792D01*
X49982Y-50801D01*
X49992Y-50820D01*
X49992Y-50848D01*
X49982Y-50867D01*
X49973Y-50876D01*
X49954Y-50885D01*
X49879Y-50885D01*
X50076Y-50782D02*
X50076Y-50942D01*
X50086Y-50960D01*
X50095Y-50970D01*
X50114Y-50979D01*
X50151Y-50979D01*
X50170Y-50970D01*
X50179Y-50960D01*
X50189Y-50942D01*
X50189Y-50782D01*
X50273Y-50970D02*
X50301Y-50979D01*
X50348Y-50979D01*
X50367Y-50970D01*
X50376Y-50960D01*
X50386Y-50942D01*
X50386Y-50923D01*
X50376Y-50904D01*
X50367Y-50895D01*
X50348Y-50885D01*
X50311Y-50876D01*
X50292Y-50867D01*
X50283Y-50857D01*
X50273Y-50839D01*
X50273Y-50820D01*
X50283Y-50801D01*
X50292Y-50792D01*
X50311Y-50782D01*
X50358Y-50782D01*
X50386Y-50792D01*
X50470Y-50979D02*
X50470Y-50782D01*
X50470Y-50876D02*
X50583Y-50876D01*
X50583Y-50979D02*
X50583Y-50782D01*
X42550Y-51457D02*
X42592Y-51471D01*
X42664Y-51471D01*
X42692Y-51457D01*
X42707Y-51442D01*
X42721Y-51414D01*
X42721Y-51385D01*
X42707Y-51357D01*
X42692Y-51342D01*
X42664Y-51328D01*
X42607Y-51314D01*
X42578Y-51300D01*
X42564Y-51285D01*
X42550Y-51257D01*
X42550Y-51228D01*
X42564Y-51200D01*
X42578Y-51185D01*
X42607Y-51171D01*
X42678Y-51171D01*
X42721Y-51185D01*
X42821Y-51171D02*
X42892Y-51471D01*
X42950Y-51257D01*
X43007Y-51471D01*
X43078Y-51171D01*
X43178Y-51200D02*
X43192Y-51185D01*
X43221Y-51171D01*
X43292Y-51171D01*
X43321Y-51185D01*
X43335Y-51200D01*
X43350Y-51228D01*
X43350Y-51257D01*
X43335Y-51300D01*
X43164Y-51471D01*
X43350Y-51471D01*
X42307Y-50970D02*
X42335Y-50979D01*
X42382Y-50979D01*
X42401Y-50970D01*
X42410Y-50960D01*
X42419Y-50942D01*
X42419Y-50923D01*
X42410Y-50904D01*
X42401Y-50895D01*
X42382Y-50885D01*
X42344Y-50876D01*
X42326Y-50867D01*
X42316Y-50857D01*
X42307Y-50839D01*
X42307Y-50820D01*
X42316Y-50801D01*
X42326Y-50792D01*
X42344Y-50782D01*
X42391Y-50782D01*
X42419Y-50792D01*
X42485Y-50782D02*
X42532Y-50979D01*
X42570Y-50839D01*
X42607Y-50979D01*
X42654Y-50782D01*
X42682Y-50998D02*
X42832Y-50998D01*
X42879Y-50979D02*
X42879Y-50782D01*
X42954Y-50782D01*
X42973Y-50792D01*
X42982Y-50801D01*
X42992Y-50820D01*
X42992Y-50848D01*
X42982Y-50867D01*
X42973Y-50876D01*
X42954Y-50885D01*
X42879Y-50885D01*
X43076Y-50782D02*
X43076Y-50942D01*
X43086Y-50960D01*
X43095Y-50970D01*
X43114Y-50979D01*
X43151Y-50979D01*
X43170Y-50970D01*
X43179Y-50960D01*
X43189Y-50942D01*
X43189Y-50782D01*
X43273Y-50970D02*
X43301Y-50979D01*
X43348Y-50979D01*
X43367Y-50970D01*
X43376Y-50960D01*
X43386Y-50942D01*
X43386Y-50923D01*
X43376Y-50904D01*
X43367Y-50895D01*
X43348Y-50885D01*
X43311Y-50876D01*
X43292Y-50867D01*
X43283Y-50857D01*
X43273Y-50839D01*
X43273Y-50820D01*
X43283Y-50801D01*
X43292Y-50792D01*
X43311Y-50782D01*
X43358Y-50782D01*
X43386Y-50792D01*
X43470Y-50979D02*
X43470Y-50782D01*
X43470Y-50876D02*
X43583Y-50876D01*
X43583Y-50979D02*
X43583Y-50782D01*
M02*
