G04 (created by PCBNEW (2013-07-07 BZR 4022)-stable) date 22/02/2014 22:22:10*
%MOIN*%
G04 Gerber Fmt 3.4, Leading zero omitted, Abs format*
%FSLAX34Y34*%
G01*
G70*
G90*
G04 APERTURE LIST*
%ADD10C,0.00590551*%
%ADD11R,0.055X0.035*%
%ADD12R,0.035X0.055*%
%ADD13R,0.0472X0.0472*%
%ADD14R,0.04X0.01*%
%ADD15R,0.01X0.04*%
%ADD16R,0.08X0.144*%
%ADD17R,0.08X0.04*%
%ADD18R,0.0511811X0.0748031*%
%ADD19R,0.02X0.1*%
%ADD20R,0.0787402X0.11*%
%ADD21R,0.019685X0.015748*%
%ADD22R,0.0275591X0.0393701*%
G04 APERTURE END LIST*
G54D10*
G54D11*
X52100Y-51250D03*
X52100Y-50500D03*
G54D12*
X46725Y-39050D03*
X47475Y-39050D03*
X46125Y-39050D03*
X45375Y-39050D03*
G54D11*
X46175Y-52300D03*
X46175Y-51550D03*
G54D12*
X39625Y-40850D03*
X40375Y-40850D03*
X39625Y-41500D03*
X40375Y-41500D03*
G54D11*
X40950Y-39425D03*
X40950Y-40175D03*
X41650Y-39425D03*
X41650Y-40175D03*
X49400Y-37075D03*
X49400Y-36325D03*
G54D12*
X40225Y-37400D03*
X39475Y-37400D03*
X45475Y-35500D03*
X46225Y-35500D03*
G54D11*
X42850Y-47775D03*
X42850Y-47025D03*
G54D12*
X50275Y-47250D03*
X49525Y-47250D03*
X51925Y-41600D03*
X51175Y-41600D03*
G54D11*
X42100Y-47575D03*
X42100Y-48325D03*
X54850Y-40375D03*
X54850Y-39625D03*
G54D12*
X50150Y-48275D03*
X50900Y-48275D03*
X48525Y-35700D03*
X49275Y-35700D03*
X49275Y-34850D03*
X48525Y-34850D03*
G54D13*
X39950Y-60187D03*
X39950Y-61013D03*
X41150Y-60187D03*
X41150Y-61013D03*
X42350Y-60187D03*
X42350Y-61013D03*
X43550Y-60187D03*
X43550Y-61013D03*
X46887Y-35500D03*
X47713Y-35500D03*
X50787Y-59900D03*
X51613Y-59900D03*
X55137Y-35650D03*
X55963Y-35650D03*
G54D12*
X40175Y-38150D03*
X39425Y-38150D03*
X46850Y-50075D03*
X47600Y-50075D03*
G54D11*
X46950Y-51525D03*
X46950Y-50775D03*
G54D12*
X46925Y-52250D03*
X47675Y-52250D03*
G54D11*
X53875Y-43075D03*
X53875Y-43825D03*
X38200Y-41825D03*
X38200Y-42575D03*
X39950Y-59575D03*
X39950Y-58825D03*
X41150Y-59575D03*
X41150Y-58825D03*
X42350Y-59575D03*
X42350Y-58825D03*
X43550Y-59575D03*
X43550Y-58825D03*
G54D12*
X41675Y-40850D03*
X40925Y-40850D03*
G54D11*
X47550Y-34675D03*
X47550Y-33925D03*
X50850Y-59225D03*
X50850Y-58475D03*
G54D12*
X54875Y-36500D03*
X54125Y-36500D03*
G54D14*
X49500Y-41590D03*
X49500Y-46310D03*
X49500Y-46110D03*
X49500Y-45920D03*
X49500Y-45720D03*
X49500Y-45520D03*
X49500Y-45330D03*
X49500Y-45130D03*
X49500Y-44930D03*
X49500Y-44740D03*
X49500Y-44540D03*
X49500Y-44340D03*
X49500Y-44140D03*
X49500Y-43950D03*
X49500Y-43750D03*
X49500Y-43550D03*
X49500Y-43360D03*
X49500Y-43160D03*
X49500Y-42960D03*
X49500Y-42770D03*
X49500Y-42570D03*
X49500Y-42370D03*
X49500Y-42180D03*
X49500Y-41980D03*
X49500Y-41780D03*
G54D15*
X48810Y-47000D03*
X44090Y-47000D03*
X44290Y-47000D03*
X44480Y-47000D03*
X44680Y-47000D03*
X44880Y-47000D03*
X45070Y-47000D03*
X45270Y-47000D03*
X45470Y-47000D03*
X45660Y-47000D03*
X45860Y-47000D03*
X46060Y-47000D03*
X46260Y-47000D03*
X46450Y-47000D03*
X46650Y-47000D03*
X46850Y-47000D03*
X47040Y-47000D03*
X47240Y-47000D03*
X47440Y-47000D03*
X47630Y-47000D03*
X47830Y-47000D03*
X48030Y-47000D03*
X48220Y-47000D03*
X48420Y-47000D03*
X48620Y-47000D03*
X48810Y-40900D03*
X48610Y-40900D03*
X48420Y-40900D03*
X48220Y-40900D03*
X48020Y-40900D03*
X47830Y-40900D03*
X47630Y-40900D03*
X47430Y-40900D03*
X47240Y-40900D03*
X47040Y-40900D03*
X46840Y-40900D03*
X46640Y-40900D03*
X46450Y-40900D03*
X46250Y-40900D03*
X46050Y-40900D03*
X45860Y-40900D03*
X45660Y-40900D03*
X45460Y-40900D03*
X45270Y-40900D03*
X45070Y-40900D03*
X44870Y-40900D03*
X44680Y-40900D03*
X44480Y-40900D03*
X44280Y-40900D03*
X44090Y-40900D03*
G54D14*
X43400Y-41590D03*
X43400Y-41790D03*
X43400Y-41980D03*
X43400Y-42180D03*
X43400Y-42380D03*
X43400Y-42570D03*
X43400Y-42770D03*
X43400Y-42970D03*
X43400Y-43160D03*
X43400Y-43360D03*
X43400Y-43560D03*
X43400Y-43760D03*
X43400Y-43950D03*
X43400Y-44150D03*
X43400Y-44350D03*
X43400Y-44540D03*
X43400Y-44740D03*
X43400Y-44940D03*
X43400Y-45130D03*
X43400Y-45330D03*
X43400Y-45530D03*
X43400Y-45720D03*
X43400Y-45920D03*
X43400Y-46120D03*
X43400Y-46310D03*
G54D16*
X53050Y-34900D03*
G54D17*
X50450Y-34900D03*
X50450Y-35800D03*
X50450Y-34000D03*
G54D12*
X49325Y-58550D03*
X50075Y-58550D03*
X49325Y-60950D03*
X50075Y-60950D03*
G54D11*
X53450Y-40075D03*
X53450Y-39325D03*
X49950Y-38675D03*
X49950Y-37925D03*
G54D18*
X50717Y-38179D03*
X52882Y-38179D03*
X52882Y-36920D03*
X50717Y-36920D03*
G54D19*
X45970Y-58700D03*
X46285Y-58700D03*
X46600Y-58700D03*
X46914Y-58700D03*
X47229Y-58700D03*
G54D20*
X44828Y-60981D03*
X48371Y-60981D03*
X44828Y-58815D03*
X48371Y-58815D03*
G54D21*
X48447Y-33950D03*
X49352Y-33950D03*
X51572Y-58550D03*
X52477Y-58550D03*
X54197Y-38650D03*
X55102Y-38650D03*
X54072Y-37800D03*
X54977Y-37800D03*
G54D22*
X48699Y-54577D03*
X48325Y-54577D03*
X47950Y-54577D03*
X47950Y-55522D03*
X48325Y-55522D03*
X48699Y-55522D03*
M02*
