G04 (created by PCBNEW (2013-mar-13)-testing) date Вск 16 Фев 2014 22:18:45*
%MOIN*%
G04 Gerber Fmt 3.4, Leading zero omitted, Abs format*
%FSLAX34Y34*%
G01*
G70*
G90*
G04 APERTURE LIST*
%ADD10C,0.005906*%
%ADD11C,0.004000*%
%ADD12C,0.003900*%
%ADD13C,0.002600*%
%ADD14C,0.002000*%
%ADD15C,0.010000*%
%ADD16C,0.006000*%
%ADD17C,0.005000*%
%ADD18C,0.012000*%
%ADD19C,0.004300*%
G04 APERTURE END LIST*
G54D10*
G54D11*
X60363Y-71589D02*
X60351Y-71601D01*
X60315Y-71613D01*
X60291Y-71613D01*
X60255Y-71601D01*
X60232Y-71577D01*
X60220Y-71553D01*
X60208Y-71505D01*
X60208Y-71470D01*
X60220Y-71422D01*
X60232Y-71398D01*
X60255Y-71375D01*
X60291Y-71363D01*
X60315Y-71363D01*
X60351Y-71375D01*
X60363Y-71386D01*
X60458Y-71541D02*
X60577Y-71541D01*
X60434Y-71613D02*
X60517Y-71363D01*
X60601Y-71613D01*
X60684Y-71613D02*
X60684Y-71363D01*
X60827Y-71613D01*
X60827Y-71363D01*
X61065Y-71613D02*
X60946Y-71613D01*
X60946Y-71363D01*
X61308Y-74014D02*
X61296Y-74026D01*
X61260Y-74038D01*
X61236Y-74038D01*
X61201Y-74026D01*
X61177Y-74002D01*
X61165Y-73978D01*
X61153Y-73930D01*
X61153Y-73895D01*
X61165Y-73847D01*
X61177Y-73823D01*
X61201Y-73800D01*
X61236Y-73788D01*
X61260Y-73788D01*
X61296Y-73800D01*
X61308Y-73811D01*
X61403Y-73966D02*
X61522Y-73966D01*
X61379Y-74038D02*
X61463Y-73788D01*
X61546Y-74038D01*
X61629Y-74038D02*
X61629Y-73788D01*
X61772Y-74038D01*
X61772Y-73788D01*
X61891Y-74038D02*
X61891Y-73788D01*
X61891Y-73907D02*
X62034Y-73907D01*
X62034Y-74038D02*
X62034Y-73788D01*
X54363Y-74095D02*
X54363Y-73952D01*
X54613Y-74023D02*
X54363Y-74023D01*
X54363Y-73892D02*
X54613Y-73726D01*
X54363Y-73726D02*
X54613Y-73892D01*
X54613Y-72916D02*
X54494Y-73000D01*
X54613Y-73059D02*
X54363Y-73059D01*
X54363Y-72964D01*
X54375Y-72940D01*
X54386Y-72928D01*
X54410Y-72916D01*
X54446Y-72916D01*
X54470Y-72928D01*
X54482Y-72940D01*
X54494Y-72964D01*
X54494Y-73059D01*
X54363Y-72833D02*
X54613Y-72666D01*
X54363Y-72666D02*
X54613Y-72833D01*
X54375Y-71869D02*
X54363Y-71892D01*
X54363Y-71928D01*
X54375Y-71964D01*
X54398Y-71988D01*
X54422Y-71999D01*
X54470Y-72011D01*
X54505Y-72011D01*
X54553Y-71999D01*
X54577Y-71988D01*
X54601Y-71964D01*
X54613Y-71928D01*
X54613Y-71904D01*
X54601Y-71869D01*
X54589Y-71857D01*
X54505Y-71857D01*
X54505Y-71904D01*
X54613Y-71749D02*
X54363Y-71749D01*
X54613Y-71607D01*
X54363Y-71607D01*
X54613Y-71488D02*
X54363Y-71488D01*
X54363Y-71428D01*
X54375Y-71392D01*
X54398Y-71369D01*
X54422Y-71357D01*
X54470Y-71345D01*
X54505Y-71345D01*
X54553Y-71357D01*
X54577Y-71369D01*
X54601Y-71392D01*
X54613Y-71428D01*
X54613Y-71488D01*
X54363Y-70880D02*
X54363Y-70726D01*
X54458Y-70809D01*
X54458Y-70773D01*
X54470Y-70749D01*
X54482Y-70738D01*
X54505Y-70726D01*
X54565Y-70726D01*
X54589Y-70738D01*
X54601Y-70749D01*
X54613Y-70773D01*
X54613Y-70845D01*
X54601Y-70869D01*
X54589Y-70880D01*
X54589Y-70619D02*
X54601Y-70607D01*
X54613Y-70619D01*
X54601Y-70630D01*
X54589Y-70619D01*
X54613Y-70619D01*
X54363Y-70523D02*
X54363Y-70369D01*
X54458Y-70452D01*
X54458Y-70416D01*
X54470Y-70392D01*
X54482Y-70380D01*
X54505Y-70369D01*
X54565Y-70369D01*
X54589Y-70380D01*
X54601Y-70392D01*
X54613Y-70416D01*
X54613Y-70488D01*
X54601Y-70511D01*
X54589Y-70523D01*
X54446Y-70285D02*
X54613Y-70226D01*
X54446Y-70166D01*
G54D12*
X57025Y-70250D02*
G75*
G03X57025Y-70250I-50J0D01*
G74*
G01*
X56975Y-70700D02*
X56975Y-70300D01*
X56975Y-70300D02*
X57575Y-70300D01*
X57575Y-70300D02*
X57575Y-70700D01*
X57575Y-71100D02*
X57575Y-71500D01*
X57575Y-71500D02*
X56975Y-71500D01*
X56975Y-71500D02*
X56975Y-71100D01*
X56800Y-71525D02*
G75*
G03X56800Y-71525I-50J0D01*
G74*
G01*
X56750Y-71075D02*
X56750Y-71475D01*
X56750Y-71475D02*
X56150Y-71475D01*
X56150Y-71475D02*
X56150Y-71075D01*
X56150Y-70675D02*
X56150Y-70275D01*
X56150Y-70275D02*
X56750Y-70275D01*
X56750Y-70275D02*
X56750Y-70675D01*
G54D13*
X58254Y-70432D02*
X58254Y-70304D01*
X58254Y-70304D02*
X58057Y-70304D01*
X58057Y-70432D02*
X58057Y-70304D01*
X58254Y-70432D02*
X58057Y-70432D01*
X58254Y-70677D02*
X58254Y-70618D01*
X58254Y-70618D02*
X58155Y-70618D01*
X58155Y-70677D02*
X58155Y-70618D01*
X58254Y-70677D02*
X58155Y-70677D01*
X58254Y-70482D02*
X58254Y-70423D01*
X58254Y-70423D02*
X58155Y-70423D01*
X58155Y-70482D02*
X58155Y-70423D01*
X58254Y-70482D02*
X58155Y-70482D01*
X58254Y-70628D02*
X58254Y-70472D01*
X58254Y-70472D02*
X58185Y-70472D01*
X58185Y-70628D02*
X58185Y-70472D01*
X58254Y-70628D02*
X58185Y-70628D01*
X58843Y-70432D02*
X58843Y-70304D01*
X58843Y-70304D02*
X58646Y-70304D01*
X58646Y-70432D02*
X58646Y-70304D01*
X58843Y-70432D02*
X58646Y-70432D01*
X58843Y-70796D02*
X58843Y-70668D01*
X58843Y-70668D02*
X58646Y-70668D01*
X58646Y-70796D02*
X58646Y-70668D01*
X58843Y-70796D02*
X58646Y-70796D01*
X58745Y-70482D02*
X58745Y-70423D01*
X58745Y-70423D02*
X58646Y-70423D01*
X58646Y-70482D02*
X58646Y-70423D01*
X58745Y-70482D02*
X58646Y-70482D01*
X58745Y-70677D02*
X58745Y-70618D01*
X58745Y-70618D02*
X58646Y-70618D01*
X58646Y-70677D02*
X58646Y-70618D01*
X58745Y-70677D02*
X58646Y-70677D01*
X58715Y-70628D02*
X58715Y-70472D01*
X58715Y-70472D02*
X58646Y-70472D01*
X58646Y-70628D02*
X58646Y-70472D01*
X58715Y-70628D02*
X58646Y-70628D01*
X58450Y-70589D02*
X58450Y-70511D01*
X58450Y-70511D02*
X58372Y-70511D01*
X58372Y-70589D02*
X58372Y-70511D01*
X58450Y-70589D02*
X58372Y-70589D01*
X58254Y-70786D02*
X58254Y-70668D01*
X58254Y-70668D02*
X58136Y-70668D01*
X58136Y-70786D02*
X58136Y-70668D01*
X58254Y-70786D02*
X58136Y-70786D01*
X58086Y-70796D02*
X58086Y-70707D01*
X58086Y-70707D02*
X58057Y-70707D01*
X58057Y-70796D02*
X58057Y-70707D01*
X58086Y-70796D02*
X58057Y-70796D01*
G54D11*
X58244Y-70324D02*
X58656Y-70324D01*
X58646Y-70776D02*
X58086Y-70776D01*
G54D14*
X58144Y-70727D02*
G75*
G03X58144Y-70727I-28J0D01*
G74*
G01*
G54D11*
X58057Y-70687D02*
G75*
G03X58057Y-70413I0J137D01*
G74*
G01*
X58843Y-70413D02*
G75*
G03X58843Y-70687I0J-137D01*
G74*
G01*
G54D12*
X59100Y-71000D02*
G75*
G03X59100Y-71000I-50J0D01*
G74*
G01*
X58600Y-71000D02*
X59000Y-71000D01*
X59000Y-71000D02*
X59000Y-71600D01*
X59000Y-71600D02*
X58600Y-71600D01*
X58200Y-71600D02*
X57800Y-71600D01*
X57800Y-71600D02*
X57800Y-71000D01*
X57800Y-71000D02*
X58200Y-71000D01*
X60025Y-71600D02*
G75*
G03X60025Y-71600I-50J0D01*
G74*
G01*
X59975Y-71150D02*
X59975Y-71550D01*
X59975Y-71550D02*
X59375Y-71550D01*
X59375Y-71550D02*
X59375Y-71150D01*
X59375Y-70750D02*
X59375Y-70350D01*
X59375Y-70350D02*
X59975Y-70350D01*
X59975Y-70350D02*
X59975Y-70750D01*
G54D15*
X53250Y-74175D02*
X53250Y-70175D01*
X54250Y-74175D02*
X54250Y-70175D01*
X54250Y-70175D02*
X53250Y-70175D01*
X53250Y-74175D02*
X54250Y-74175D01*
G54D16*
X61125Y-71350D02*
X62125Y-71350D01*
X62125Y-71350D02*
X62125Y-73350D01*
X62125Y-73350D02*
X61125Y-73350D01*
X61125Y-73350D02*
X61125Y-71350D01*
G54D17*
X56875Y-71850D02*
X56825Y-71850D01*
X56825Y-71850D02*
X56825Y-73950D01*
X58325Y-73950D02*
X58325Y-71850D01*
X58325Y-71850D02*
X56875Y-71850D01*
X57775Y-71850D02*
X57775Y-72050D01*
X57775Y-72050D02*
X57375Y-72050D01*
X57375Y-72050D02*
X57375Y-71850D01*
X58325Y-73950D02*
X56825Y-73950D01*
G54D18*
X60150Y-71175D02*
X60150Y-70175D01*
X60150Y-70175D02*
X62150Y-70175D01*
X62150Y-70175D02*
X62150Y-71175D01*
X62150Y-71175D02*
X60150Y-71175D01*
G54D12*
X60500Y-71650D02*
G75*
G03X60500Y-71650I-50J0D01*
G74*
G01*
X60450Y-72100D02*
X60450Y-71700D01*
X60450Y-71700D02*
X61050Y-71700D01*
X61050Y-71700D02*
X61050Y-72100D01*
X61050Y-72500D02*
X61050Y-72900D01*
X61050Y-72900D02*
X60450Y-72900D01*
X60450Y-72900D02*
X60450Y-72500D01*
G54D16*
X55775Y-71275D02*
X54775Y-71275D01*
X54775Y-70275D02*
X55775Y-70275D01*
X54775Y-71275D02*
X54775Y-70275D01*
X55775Y-70275D02*
X55775Y-71275D01*
X60500Y-74225D02*
X59500Y-74225D01*
X59500Y-73225D02*
X60500Y-73225D01*
X59500Y-74225D02*
X59500Y-73225D01*
X60500Y-73225D02*
X60500Y-74225D01*
G54D18*
X62950Y-74150D02*
X62950Y-70150D01*
X62450Y-74150D02*
X65450Y-74150D01*
X65450Y-74150D02*
X65450Y-70150D01*
X65450Y-70150D02*
X62450Y-70150D01*
X62450Y-70150D02*
X62450Y-74150D01*
G54D11*
X57120Y-70989D02*
X57108Y-71001D01*
X57072Y-71013D01*
X57048Y-71013D01*
X57013Y-71001D01*
X56989Y-70977D01*
X56977Y-70953D01*
X56965Y-70905D01*
X56965Y-70870D01*
X56977Y-70822D01*
X56989Y-70798D01*
X57013Y-70775D01*
X57048Y-70763D01*
X57072Y-70763D01*
X57108Y-70775D01*
X57120Y-70786D01*
X57334Y-70846D02*
X57334Y-71013D01*
X57275Y-70751D02*
X57215Y-70929D01*
X57370Y-70929D01*
X57441Y-70763D02*
X57608Y-70763D01*
X57501Y-71013D01*
X57834Y-71013D02*
X57691Y-71013D01*
X57763Y-71013D02*
X57763Y-70763D01*
X57739Y-70798D01*
X57715Y-70822D01*
X57691Y-70834D01*
X56120Y-70964D02*
X56108Y-70976D01*
X56072Y-70988D01*
X56048Y-70988D01*
X56013Y-70976D01*
X55989Y-70952D01*
X55977Y-70928D01*
X55965Y-70880D01*
X55965Y-70845D01*
X55977Y-70797D01*
X55989Y-70773D01*
X56013Y-70750D01*
X56048Y-70738D01*
X56072Y-70738D01*
X56108Y-70750D01*
X56120Y-70761D01*
X56334Y-70821D02*
X56334Y-70988D01*
X56275Y-70726D02*
X56215Y-70904D01*
X56370Y-70904D01*
X56441Y-70738D02*
X56608Y-70738D01*
X56501Y-70988D01*
X56691Y-70761D02*
X56703Y-70750D01*
X56727Y-70738D01*
X56786Y-70738D01*
X56810Y-70750D01*
X56822Y-70761D01*
X56834Y-70785D01*
X56834Y-70809D01*
X56822Y-70845D01*
X56679Y-70988D01*
X56834Y-70988D01*
X58563Y-70947D02*
X58313Y-70947D01*
X58313Y-70888D01*
X58325Y-70852D01*
X58348Y-70828D01*
X58372Y-70816D01*
X58420Y-70804D01*
X58455Y-70804D01*
X58503Y-70816D01*
X58527Y-70828D01*
X58551Y-70852D01*
X58563Y-70888D01*
X58563Y-70947D01*
X58396Y-70590D02*
X58563Y-70590D01*
X58301Y-70650D02*
X58479Y-70709D01*
X58479Y-70554D01*
X58313Y-70483D02*
X58313Y-70316D01*
X58563Y-70423D01*
X58563Y-70090D02*
X58563Y-70233D01*
X58563Y-70161D02*
X58313Y-70161D01*
X58348Y-70185D01*
X58372Y-70209D01*
X58384Y-70233D01*
X58563Y-71679D02*
X58444Y-71763D01*
X58563Y-71822D02*
X58313Y-71822D01*
X58313Y-71727D01*
X58325Y-71703D01*
X58336Y-71691D01*
X58360Y-71679D01*
X58396Y-71679D01*
X58420Y-71691D01*
X58432Y-71703D01*
X58444Y-71727D01*
X58444Y-71822D01*
X58396Y-71465D02*
X58563Y-71465D01*
X58301Y-71525D02*
X58479Y-71584D01*
X58479Y-71429D01*
X58313Y-71358D02*
X58313Y-71191D01*
X58563Y-71298D01*
X58563Y-70965D02*
X58563Y-71108D01*
X58563Y-71036D02*
X58313Y-71036D01*
X58348Y-71060D01*
X58372Y-71084D01*
X58384Y-71108D01*
X59395Y-71063D02*
X59311Y-70944D01*
X59252Y-71063D02*
X59252Y-70813D01*
X59347Y-70813D01*
X59371Y-70825D01*
X59383Y-70836D01*
X59395Y-70860D01*
X59395Y-70896D01*
X59383Y-70920D01*
X59371Y-70932D01*
X59347Y-70944D01*
X59252Y-70944D01*
X59609Y-70896D02*
X59609Y-71063D01*
X59550Y-70801D02*
X59490Y-70979D01*
X59645Y-70979D01*
X59716Y-70813D02*
X59883Y-70813D01*
X59776Y-71063D01*
X59966Y-70836D02*
X59978Y-70825D01*
X60002Y-70813D01*
X60061Y-70813D01*
X60085Y-70825D01*
X60097Y-70836D01*
X60109Y-70860D01*
X60109Y-70884D01*
X60097Y-70920D01*
X59954Y-71063D01*
X60109Y-71063D01*
X54077Y-72313D02*
X54077Y-72063D01*
X54172Y-72063D01*
X54196Y-72075D01*
X54208Y-72086D01*
X54220Y-72110D01*
X54220Y-72146D01*
X54208Y-72170D01*
X54196Y-72182D01*
X54172Y-72194D01*
X54077Y-72194D01*
X54434Y-72146D02*
X54434Y-72313D01*
X54375Y-72051D02*
X54315Y-72229D01*
X54470Y-72229D01*
X54541Y-72063D02*
X54708Y-72063D01*
X54601Y-72313D01*
X54934Y-72313D02*
X54791Y-72313D01*
X54863Y-72313D02*
X54863Y-72063D01*
X54839Y-72098D01*
X54815Y-72122D01*
X54791Y-72134D01*
X61202Y-73688D02*
X61202Y-73438D01*
X61297Y-73438D01*
X61321Y-73450D01*
X61333Y-73461D01*
X61345Y-73485D01*
X61345Y-73521D01*
X61333Y-73545D01*
X61321Y-73557D01*
X61297Y-73569D01*
X61202Y-73569D01*
X61559Y-73521D02*
X61559Y-73688D01*
X61500Y-73426D02*
X61440Y-73604D01*
X61595Y-73604D01*
X61666Y-73438D02*
X61833Y-73438D01*
X61726Y-73688D01*
X61916Y-73461D02*
X61928Y-73450D01*
X61952Y-73438D01*
X62011Y-73438D01*
X62035Y-73450D01*
X62047Y-73461D01*
X62059Y-73485D01*
X62059Y-73509D01*
X62047Y-73545D01*
X61904Y-73688D01*
X62059Y-73688D01*
X57496Y-72763D02*
X57496Y-72965D01*
X57508Y-72989D01*
X57520Y-73001D01*
X57544Y-73013D01*
X57591Y-73013D01*
X57615Y-73001D01*
X57627Y-72989D01*
X57639Y-72965D01*
X57639Y-72763D01*
X57865Y-72846D02*
X57865Y-73013D01*
X57805Y-72751D02*
X57746Y-72929D01*
X57901Y-72929D01*
X57972Y-72763D02*
X58139Y-72763D01*
X58032Y-73013D01*
X58365Y-73013D02*
X58222Y-73013D01*
X58294Y-73013D02*
X58294Y-72763D01*
X58270Y-72798D01*
X58246Y-72822D01*
X58222Y-72834D01*
X60703Y-69538D02*
X60703Y-69716D01*
X60691Y-69752D01*
X60667Y-69776D01*
X60632Y-69788D01*
X60608Y-69788D01*
X60822Y-69788D02*
X60822Y-69538D01*
X60917Y-69538D01*
X60941Y-69550D01*
X60953Y-69561D01*
X60965Y-69585D01*
X60965Y-69621D01*
X60953Y-69645D01*
X60941Y-69657D01*
X60917Y-69669D01*
X60822Y-69669D01*
X61179Y-69621D02*
X61179Y-69788D01*
X61120Y-69526D02*
X61060Y-69704D01*
X61215Y-69704D01*
X61286Y-69538D02*
X61453Y-69538D01*
X61346Y-69788D01*
X61679Y-69788D02*
X61536Y-69788D01*
X61608Y-69788D02*
X61608Y-69538D01*
X61584Y-69573D01*
X61560Y-69597D01*
X61536Y-69609D01*
G54D19*
X60654Y-72389D02*
X60588Y-72295D01*
X60541Y-72389D02*
X60541Y-72192D01*
X60617Y-72192D01*
X60635Y-72201D01*
X60645Y-72210D01*
X60654Y-72229D01*
X60654Y-72257D01*
X60645Y-72276D01*
X60635Y-72285D01*
X60617Y-72295D01*
X60541Y-72295D01*
X60823Y-72257D02*
X60823Y-72389D01*
X60776Y-72182D02*
X60729Y-72323D01*
X60851Y-72323D01*
X60907Y-72192D02*
X61039Y-72192D01*
X60954Y-72389D01*
X61095Y-72192D02*
X61217Y-72192D01*
X61151Y-72267D01*
X61179Y-72267D01*
X61198Y-72276D01*
X61208Y-72285D01*
X61217Y-72304D01*
X61217Y-72351D01*
X61208Y-72370D01*
X61198Y-72379D01*
X61179Y-72389D01*
X61123Y-72389D01*
X61104Y-72379D01*
X61095Y-72370D01*
G54D18*
X65171Y-72592D02*
X64571Y-72592D01*
X64571Y-72364D01*
X64600Y-72307D01*
X64628Y-72278D01*
X64685Y-72250D01*
X64771Y-72250D01*
X64828Y-72278D01*
X64857Y-72307D01*
X64885Y-72364D01*
X64885Y-72592D01*
X65171Y-71678D02*
X65171Y-72021D01*
X65171Y-71850D02*
X64571Y-71850D01*
X64657Y-71907D01*
X64714Y-71964D01*
X64742Y-72021D01*
M02*
