G04 (created by PCBNEW (2013-07-07 BZR 4022)-stable) date 19/01/2014 00:13:06*
%MOIN*%
G04 Gerber Fmt 3.4, Leading zero omitted, Abs format*
%FSLAX34Y34*%
G01*
G70*
G90*
G04 APERTURE LIST*
%ADD10C,0.00590551*%
%ADD11C,0.004*%
%ADD12C,0.0039*%
%ADD13C,0.0026*%
%ADD14C,0.002*%
%ADD15C,0.01*%
%ADD16C,0.006*%
%ADD17C,0.005*%
%ADD18C,0.012*%
%ADD19C,0.0043*%
G04 APERTURE END LIST*
G54D10*
G54D11*
X77493Y-48335D02*
X77484Y-48345D01*
X77456Y-48354D01*
X77437Y-48354D01*
X77409Y-48345D01*
X77390Y-48326D01*
X77381Y-48307D01*
X77371Y-48270D01*
X77371Y-48242D01*
X77381Y-48204D01*
X77390Y-48185D01*
X77409Y-48167D01*
X77437Y-48157D01*
X77456Y-48157D01*
X77484Y-48167D01*
X77493Y-48176D01*
X77568Y-48298D02*
X77662Y-48298D01*
X77549Y-48354D02*
X77615Y-48157D01*
X77681Y-48354D01*
X77746Y-48354D02*
X77746Y-48157D01*
X77859Y-48354D01*
X77859Y-48157D01*
X78047Y-48354D02*
X77953Y-48354D01*
X77953Y-48157D01*
X77470Y-49910D02*
X77460Y-49920D01*
X77432Y-49929D01*
X77413Y-49929D01*
X77385Y-49920D01*
X77366Y-49901D01*
X77357Y-49882D01*
X77348Y-49845D01*
X77348Y-49817D01*
X77357Y-49779D01*
X77366Y-49760D01*
X77385Y-49742D01*
X77413Y-49732D01*
X77432Y-49732D01*
X77460Y-49742D01*
X77470Y-49751D01*
X77545Y-49873D02*
X77639Y-49873D01*
X77526Y-49929D02*
X77592Y-49732D01*
X77657Y-49929D01*
X77723Y-49929D02*
X77723Y-49732D01*
X77836Y-49929D01*
X77836Y-49732D01*
X77929Y-49929D02*
X77929Y-49732D01*
X77929Y-49826D02*
X78042Y-49826D01*
X78042Y-49929D02*
X78042Y-49732D01*
X71332Y-50702D02*
X71332Y-50590D01*
X71529Y-50646D02*
X71332Y-50646D01*
X71332Y-50543D02*
X71529Y-50411D01*
X71332Y-50411D02*
X71529Y-50543D01*
X71529Y-49623D02*
X71435Y-49689D01*
X71529Y-49736D02*
X71332Y-49736D01*
X71332Y-49661D01*
X71342Y-49642D01*
X71351Y-49633D01*
X71370Y-49623D01*
X71398Y-49623D01*
X71417Y-49633D01*
X71426Y-49642D01*
X71435Y-49661D01*
X71435Y-49736D01*
X71332Y-49558D02*
X71529Y-49426D01*
X71332Y-49426D02*
X71529Y-49558D01*
X71342Y-48648D02*
X71332Y-48667D01*
X71332Y-48695D01*
X71342Y-48723D01*
X71360Y-48742D01*
X71379Y-48751D01*
X71417Y-48760D01*
X71445Y-48760D01*
X71482Y-48751D01*
X71501Y-48742D01*
X71520Y-48723D01*
X71529Y-48695D01*
X71529Y-48676D01*
X71520Y-48648D01*
X71510Y-48638D01*
X71445Y-48638D01*
X71445Y-48676D01*
X71529Y-48554D02*
X71332Y-48554D01*
X71529Y-48441D01*
X71332Y-48441D01*
X71529Y-48348D02*
X71332Y-48348D01*
X71332Y-48301D01*
X71342Y-48273D01*
X71360Y-48254D01*
X71379Y-48244D01*
X71417Y-48235D01*
X71445Y-48235D01*
X71482Y-48244D01*
X71501Y-48254D01*
X71520Y-48273D01*
X71529Y-48301D01*
X71529Y-48348D01*
X71332Y-47719D02*
X71332Y-47597D01*
X71407Y-47663D01*
X71407Y-47635D01*
X71417Y-47616D01*
X71426Y-47606D01*
X71445Y-47597D01*
X71492Y-47597D01*
X71510Y-47606D01*
X71520Y-47616D01*
X71529Y-47635D01*
X71529Y-47691D01*
X71520Y-47710D01*
X71510Y-47719D01*
X71510Y-47513D02*
X71520Y-47503D01*
X71529Y-47513D01*
X71520Y-47522D01*
X71510Y-47513D01*
X71529Y-47513D01*
X71332Y-47438D02*
X71332Y-47316D01*
X71407Y-47381D01*
X71407Y-47353D01*
X71417Y-47334D01*
X71426Y-47325D01*
X71445Y-47316D01*
X71492Y-47316D01*
X71510Y-47325D01*
X71520Y-47334D01*
X71529Y-47353D01*
X71529Y-47409D01*
X71520Y-47428D01*
X71510Y-47438D01*
X71398Y-47250D02*
X71529Y-47203D01*
X71398Y-47156D01*
G54D12*
X74025Y-47050D02*
G75*
G03X74025Y-47050I-50J0D01*
G74*
G01*
X73975Y-47500D02*
X73975Y-47100D01*
X73975Y-47100D02*
X74575Y-47100D01*
X74575Y-47100D02*
X74575Y-47500D01*
X74575Y-47900D02*
X74575Y-48300D01*
X74575Y-48300D02*
X73975Y-48300D01*
X73975Y-48300D02*
X73975Y-47900D01*
X73800Y-48325D02*
G75*
G03X73800Y-48325I-50J0D01*
G74*
G01*
X73750Y-47875D02*
X73750Y-48275D01*
X73750Y-48275D02*
X73150Y-48275D01*
X73150Y-48275D02*
X73150Y-47875D01*
X73150Y-47475D02*
X73150Y-47075D01*
X73150Y-47075D02*
X73750Y-47075D01*
X73750Y-47075D02*
X73750Y-47475D01*
G54D13*
X75254Y-47232D02*
X75254Y-47104D01*
X75254Y-47104D02*
X75057Y-47104D01*
X75057Y-47232D02*
X75057Y-47104D01*
X75254Y-47232D02*
X75057Y-47232D01*
X75254Y-47477D02*
X75254Y-47418D01*
X75254Y-47418D02*
X75155Y-47418D01*
X75155Y-47477D02*
X75155Y-47418D01*
X75254Y-47477D02*
X75155Y-47477D01*
X75254Y-47282D02*
X75254Y-47223D01*
X75254Y-47223D02*
X75155Y-47223D01*
X75155Y-47282D02*
X75155Y-47223D01*
X75254Y-47282D02*
X75155Y-47282D01*
X75254Y-47428D02*
X75254Y-47272D01*
X75254Y-47272D02*
X75185Y-47272D01*
X75185Y-47428D02*
X75185Y-47272D01*
X75254Y-47428D02*
X75185Y-47428D01*
X75843Y-47232D02*
X75843Y-47104D01*
X75843Y-47104D02*
X75646Y-47104D01*
X75646Y-47232D02*
X75646Y-47104D01*
X75843Y-47232D02*
X75646Y-47232D01*
X75843Y-47596D02*
X75843Y-47468D01*
X75843Y-47468D02*
X75646Y-47468D01*
X75646Y-47596D02*
X75646Y-47468D01*
X75843Y-47596D02*
X75646Y-47596D01*
X75745Y-47282D02*
X75745Y-47223D01*
X75745Y-47223D02*
X75646Y-47223D01*
X75646Y-47282D02*
X75646Y-47223D01*
X75745Y-47282D02*
X75646Y-47282D01*
X75745Y-47477D02*
X75745Y-47418D01*
X75745Y-47418D02*
X75646Y-47418D01*
X75646Y-47477D02*
X75646Y-47418D01*
X75745Y-47477D02*
X75646Y-47477D01*
X75715Y-47428D02*
X75715Y-47272D01*
X75715Y-47272D02*
X75646Y-47272D01*
X75646Y-47428D02*
X75646Y-47272D01*
X75715Y-47428D02*
X75646Y-47428D01*
X75450Y-47389D02*
X75450Y-47311D01*
X75450Y-47311D02*
X75372Y-47311D01*
X75372Y-47389D02*
X75372Y-47311D01*
X75450Y-47389D02*
X75372Y-47389D01*
X75254Y-47586D02*
X75254Y-47468D01*
X75254Y-47468D02*
X75136Y-47468D01*
X75136Y-47586D02*
X75136Y-47468D01*
X75254Y-47586D02*
X75136Y-47586D01*
X75086Y-47596D02*
X75086Y-47507D01*
X75086Y-47507D02*
X75057Y-47507D01*
X75057Y-47596D02*
X75057Y-47507D01*
X75086Y-47596D02*
X75057Y-47596D01*
G54D11*
X75244Y-47124D02*
X75656Y-47124D01*
X75646Y-47576D02*
X75086Y-47576D01*
G54D14*
X75144Y-47527D02*
G75*
G03X75144Y-47527I-28J0D01*
G74*
G01*
G54D11*
X75057Y-47487D02*
G75*
G03X75057Y-47213I0J137D01*
G74*
G01*
X75843Y-47213D02*
G75*
G03X75843Y-47487I0J-137D01*
G74*
G01*
G54D12*
X76100Y-47800D02*
G75*
G03X76100Y-47800I-50J0D01*
G74*
G01*
X75600Y-47800D02*
X76000Y-47800D01*
X76000Y-47800D02*
X76000Y-48400D01*
X76000Y-48400D02*
X75600Y-48400D01*
X75200Y-48400D02*
X74800Y-48400D01*
X74800Y-48400D02*
X74800Y-47800D01*
X74800Y-47800D02*
X75200Y-47800D01*
X77025Y-48400D02*
G75*
G03X77025Y-48400I-50J0D01*
G74*
G01*
X76975Y-47950D02*
X76975Y-48350D01*
X76975Y-48350D02*
X76375Y-48350D01*
X76375Y-48350D02*
X76375Y-47950D01*
X76375Y-47550D02*
X76375Y-47150D01*
X76375Y-47150D02*
X76975Y-47150D01*
X76975Y-47150D02*
X76975Y-47550D01*
G54D15*
X70250Y-50975D02*
X70250Y-46975D01*
X71250Y-50975D02*
X71250Y-46975D01*
X71250Y-46975D02*
X70250Y-46975D01*
X70250Y-50975D02*
X71250Y-50975D01*
G54D16*
X78125Y-48150D02*
X79125Y-48150D01*
X79125Y-48150D02*
X79125Y-50150D01*
X79125Y-50150D02*
X78125Y-50150D01*
X78125Y-50150D02*
X78125Y-48150D01*
G54D17*
X73875Y-48650D02*
X73825Y-48650D01*
X73825Y-48650D02*
X73825Y-50750D01*
X75325Y-50750D02*
X75325Y-48650D01*
X75325Y-48650D02*
X73875Y-48650D01*
X74775Y-48650D02*
X74775Y-48850D01*
X74775Y-48850D02*
X74375Y-48850D01*
X74375Y-48850D02*
X74375Y-48650D01*
X75325Y-50750D02*
X73825Y-50750D01*
G54D18*
X77150Y-47975D02*
X77150Y-46975D01*
X77150Y-46975D02*
X79150Y-46975D01*
X79150Y-46975D02*
X79150Y-47975D01*
X79150Y-47975D02*
X77150Y-47975D01*
G54D12*
X77500Y-48450D02*
G75*
G03X77500Y-48450I-50J0D01*
G74*
G01*
X77450Y-48900D02*
X77450Y-48500D01*
X77450Y-48500D02*
X78050Y-48500D01*
X78050Y-48500D02*
X78050Y-48900D01*
X78050Y-49300D02*
X78050Y-49700D01*
X78050Y-49700D02*
X77450Y-49700D01*
X77450Y-49700D02*
X77450Y-49300D01*
G54D11*
X74054Y-47760D02*
X74045Y-47770D01*
X74017Y-47779D01*
X73998Y-47779D01*
X73970Y-47770D01*
X73951Y-47751D01*
X73941Y-47732D01*
X73932Y-47695D01*
X73932Y-47667D01*
X73941Y-47629D01*
X73951Y-47610D01*
X73970Y-47592D01*
X73998Y-47582D01*
X74017Y-47582D01*
X74045Y-47592D01*
X74054Y-47601D01*
X74223Y-47648D02*
X74223Y-47779D01*
X74176Y-47573D02*
X74129Y-47714D01*
X74251Y-47714D01*
X74420Y-47582D02*
X74326Y-47582D01*
X74317Y-47676D01*
X74326Y-47667D01*
X74345Y-47657D01*
X74392Y-47657D01*
X74411Y-47667D01*
X74420Y-47676D01*
X74429Y-47695D01*
X74429Y-47742D01*
X74420Y-47760D01*
X74411Y-47770D01*
X74392Y-47779D01*
X74345Y-47779D01*
X74326Y-47770D01*
X74317Y-47760D01*
X74617Y-47779D02*
X74504Y-47779D01*
X74561Y-47779D02*
X74561Y-47582D01*
X74542Y-47610D01*
X74523Y-47629D01*
X74504Y-47639D01*
X73229Y-47735D02*
X73220Y-47745D01*
X73192Y-47754D01*
X73173Y-47754D01*
X73145Y-47745D01*
X73126Y-47726D01*
X73116Y-47707D01*
X73107Y-47670D01*
X73107Y-47642D01*
X73116Y-47604D01*
X73126Y-47585D01*
X73145Y-47567D01*
X73173Y-47557D01*
X73192Y-47557D01*
X73220Y-47567D01*
X73229Y-47576D01*
X73398Y-47623D02*
X73398Y-47754D01*
X73351Y-47548D02*
X73304Y-47689D01*
X73426Y-47689D01*
X73595Y-47557D02*
X73501Y-47557D01*
X73492Y-47651D01*
X73501Y-47642D01*
X73520Y-47632D01*
X73567Y-47632D01*
X73586Y-47642D01*
X73595Y-47651D01*
X73604Y-47670D01*
X73604Y-47717D01*
X73595Y-47735D01*
X73586Y-47745D01*
X73567Y-47754D01*
X73520Y-47754D01*
X73501Y-47745D01*
X73492Y-47735D01*
X73679Y-47576D02*
X73689Y-47567D01*
X73707Y-47557D01*
X73754Y-47557D01*
X73773Y-47567D01*
X73783Y-47576D01*
X73792Y-47595D01*
X73792Y-47614D01*
X73783Y-47642D01*
X73670Y-47754D01*
X73792Y-47754D01*
X75116Y-47429D02*
X75116Y-47232D01*
X75163Y-47232D01*
X75192Y-47242D01*
X75210Y-47260D01*
X75220Y-47279D01*
X75229Y-47317D01*
X75229Y-47345D01*
X75220Y-47382D01*
X75210Y-47401D01*
X75192Y-47420D01*
X75163Y-47429D01*
X75116Y-47429D01*
X75398Y-47298D02*
X75398Y-47429D01*
X75351Y-47223D02*
X75304Y-47364D01*
X75426Y-47364D01*
X75595Y-47232D02*
X75501Y-47232D01*
X75492Y-47326D01*
X75501Y-47317D01*
X75520Y-47307D01*
X75567Y-47307D01*
X75586Y-47317D01*
X75595Y-47326D01*
X75604Y-47345D01*
X75604Y-47392D01*
X75595Y-47410D01*
X75586Y-47420D01*
X75567Y-47429D01*
X75520Y-47429D01*
X75501Y-47420D01*
X75492Y-47410D01*
X75792Y-47429D02*
X75679Y-47429D01*
X75736Y-47429D02*
X75736Y-47232D01*
X75717Y-47260D01*
X75698Y-47279D01*
X75679Y-47289D01*
X75229Y-48179D02*
X75163Y-48085D01*
X75116Y-48179D02*
X75116Y-47982D01*
X75192Y-47982D01*
X75210Y-47992D01*
X75220Y-48001D01*
X75229Y-48020D01*
X75229Y-48048D01*
X75220Y-48067D01*
X75210Y-48076D01*
X75192Y-48085D01*
X75116Y-48085D01*
X75398Y-48048D02*
X75398Y-48179D01*
X75351Y-47973D02*
X75304Y-48114D01*
X75426Y-48114D01*
X75595Y-47982D02*
X75501Y-47982D01*
X75492Y-48076D01*
X75501Y-48067D01*
X75520Y-48057D01*
X75567Y-48057D01*
X75586Y-48067D01*
X75595Y-48076D01*
X75604Y-48095D01*
X75604Y-48142D01*
X75595Y-48160D01*
X75586Y-48170D01*
X75567Y-48179D01*
X75520Y-48179D01*
X75501Y-48170D01*
X75492Y-48160D01*
X75792Y-48179D02*
X75679Y-48179D01*
X75736Y-48179D02*
X75736Y-47982D01*
X75717Y-48010D01*
X75698Y-48029D01*
X75679Y-48039D01*
X76454Y-47829D02*
X76388Y-47735D01*
X76341Y-47829D02*
X76341Y-47632D01*
X76417Y-47632D01*
X76435Y-47642D01*
X76445Y-47651D01*
X76454Y-47670D01*
X76454Y-47698D01*
X76445Y-47717D01*
X76435Y-47726D01*
X76417Y-47735D01*
X76341Y-47735D01*
X76623Y-47698D02*
X76623Y-47829D01*
X76576Y-47623D02*
X76529Y-47764D01*
X76651Y-47764D01*
X76820Y-47632D02*
X76726Y-47632D01*
X76717Y-47726D01*
X76726Y-47717D01*
X76745Y-47707D01*
X76792Y-47707D01*
X76811Y-47717D01*
X76820Y-47726D01*
X76829Y-47745D01*
X76829Y-47792D01*
X76820Y-47810D01*
X76811Y-47820D01*
X76792Y-47829D01*
X76745Y-47829D01*
X76726Y-47820D01*
X76717Y-47810D01*
X76904Y-47651D02*
X76914Y-47642D01*
X76932Y-47632D01*
X76979Y-47632D01*
X76998Y-47642D01*
X77008Y-47651D01*
X77017Y-47670D01*
X77017Y-47689D01*
X77008Y-47717D01*
X76895Y-47829D01*
X77017Y-47829D01*
X71166Y-49079D02*
X71166Y-48882D01*
X71242Y-48882D01*
X71260Y-48892D01*
X71270Y-48901D01*
X71279Y-48920D01*
X71279Y-48948D01*
X71270Y-48967D01*
X71260Y-48976D01*
X71242Y-48985D01*
X71166Y-48985D01*
X71448Y-48948D02*
X71448Y-49079D01*
X71401Y-48873D02*
X71354Y-49014D01*
X71476Y-49014D01*
X71645Y-48882D02*
X71551Y-48882D01*
X71542Y-48976D01*
X71551Y-48967D01*
X71570Y-48957D01*
X71617Y-48957D01*
X71636Y-48967D01*
X71645Y-48976D01*
X71654Y-48995D01*
X71654Y-49042D01*
X71645Y-49060D01*
X71636Y-49070D01*
X71617Y-49079D01*
X71570Y-49079D01*
X71551Y-49070D01*
X71542Y-49060D01*
X71842Y-49079D02*
X71729Y-49079D01*
X71786Y-49079D02*
X71786Y-48882D01*
X71767Y-48910D01*
X71748Y-48929D01*
X71729Y-48939D01*
X78291Y-50454D02*
X78291Y-50257D01*
X78367Y-50257D01*
X78385Y-50267D01*
X78395Y-50276D01*
X78404Y-50295D01*
X78404Y-50323D01*
X78395Y-50342D01*
X78385Y-50351D01*
X78367Y-50360D01*
X78291Y-50360D01*
X78573Y-50323D02*
X78573Y-50454D01*
X78526Y-50248D02*
X78479Y-50389D01*
X78601Y-50389D01*
X78770Y-50257D02*
X78676Y-50257D01*
X78667Y-50351D01*
X78676Y-50342D01*
X78695Y-50332D01*
X78742Y-50332D01*
X78761Y-50342D01*
X78770Y-50351D01*
X78779Y-50370D01*
X78779Y-50417D01*
X78770Y-50435D01*
X78761Y-50445D01*
X78742Y-50454D01*
X78695Y-50454D01*
X78676Y-50445D01*
X78667Y-50435D01*
X78854Y-50276D02*
X78864Y-50267D01*
X78882Y-50257D01*
X78929Y-50257D01*
X78948Y-50267D01*
X78958Y-50276D01*
X78967Y-50295D01*
X78967Y-50314D01*
X78958Y-50342D01*
X78845Y-50454D01*
X78967Y-50454D01*
X74587Y-49582D02*
X74587Y-49742D01*
X74596Y-49760D01*
X74606Y-49770D01*
X74624Y-49779D01*
X74662Y-49779D01*
X74681Y-49770D01*
X74690Y-49760D01*
X74699Y-49742D01*
X74699Y-49582D01*
X74878Y-49648D02*
X74878Y-49779D01*
X74831Y-49573D02*
X74784Y-49714D01*
X74906Y-49714D01*
X75075Y-49582D02*
X74981Y-49582D01*
X74971Y-49676D01*
X74981Y-49667D01*
X75000Y-49657D01*
X75046Y-49657D01*
X75065Y-49667D01*
X75075Y-49676D01*
X75084Y-49695D01*
X75084Y-49742D01*
X75075Y-49760D01*
X75065Y-49770D01*
X75046Y-49779D01*
X75000Y-49779D01*
X74981Y-49770D01*
X74971Y-49760D01*
X75272Y-49779D02*
X75159Y-49779D01*
X75215Y-49779D02*
X75215Y-49582D01*
X75197Y-49610D01*
X75178Y-49629D01*
X75159Y-49639D01*
X77798Y-46357D02*
X77798Y-46498D01*
X77788Y-46526D01*
X77770Y-46545D01*
X77741Y-46554D01*
X77723Y-46554D01*
X77892Y-46554D02*
X77892Y-46357D01*
X77967Y-46357D01*
X77985Y-46367D01*
X77995Y-46376D01*
X78004Y-46395D01*
X78004Y-46423D01*
X77995Y-46442D01*
X77985Y-46451D01*
X77967Y-46460D01*
X77892Y-46460D01*
X78173Y-46423D02*
X78173Y-46554D01*
X78126Y-46348D02*
X78079Y-46489D01*
X78201Y-46489D01*
X78370Y-46357D02*
X78276Y-46357D01*
X78267Y-46451D01*
X78276Y-46442D01*
X78295Y-46432D01*
X78342Y-46432D01*
X78361Y-46442D01*
X78370Y-46451D01*
X78379Y-46470D01*
X78379Y-46517D01*
X78370Y-46535D01*
X78361Y-46545D01*
X78342Y-46554D01*
X78295Y-46554D01*
X78276Y-46545D01*
X78267Y-46535D01*
X78567Y-46554D02*
X78454Y-46554D01*
X78511Y-46554D02*
X78511Y-46357D01*
X78492Y-46385D01*
X78473Y-46404D01*
X78454Y-46414D01*
G54D19*
X77654Y-49179D02*
X77588Y-49085D01*
X77541Y-49179D02*
X77541Y-48982D01*
X77617Y-48982D01*
X77635Y-48992D01*
X77645Y-49001D01*
X77654Y-49020D01*
X77654Y-49048D01*
X77645Y-49067D01*
X77635Y-49076D01*
X77617Y-49085D01*
X77541Y-49085D01*
X77823Y-49048D02*
X77823Y-49179D01*
X77776Y-48973D02*
X77729Y-49114D01*
X77851Y-49114D01*
X78020Y-48982D02*
X77926Y-48982D01*
X77917Y-49076D01*
X77926Y-49067D01*
X77945Y-49057D01*
X77992Y-49057D01*
X78011Y-49067D01*
X78020Y-49076D01*
X78029Y-49095D01*
X78029Y-49142D01*
X78020Y-49160D01*
X78011Y-49170D01*
X77992Y-49179D01*
X77945Y-49179D01*
X77926Y-49170D01*
X77917Y-49160D01*
X78095Y-48982D02*
X78217Y-48982D01*
X78151Y-49057D01*
X78179Y-49057D01*
X78198Y-49067D01*
X78208Y-49076D01*
X78217Y-49095D01*
X78217Y-49142D01*
X78208Y-49160D01*
X78198Y-49170D01*
X78179Y-49179D01*
X78123Y-49179D01*
X78104Y-49170D01*
X78095Y-49160D01*
M02*
