G04 (created by PCBNEW (2013-mar-13)-testing) date Вск 16 Фев 2014 22:18:45*
%MOIN*%
G04 Gerber Fmt 3.4, Leading zero omitted, Abs format*
%FSLAX34Y34*%
G01*
G70*
G90*
G04 APERTURE LIST*
%ADD10C,0.005906*%
%ADD11C,0.002953*%
%ADD12C,0.000100*%
G04 APERTURE END LIST*
G54D10*
G54D11*
X58895Y-73881D02*
X58895Y-73724D01*
X58895Y-73769D02*
X58884Y-73746D01*
X58872Y-73735D01*
X58850Y-73724D01*
X58827Y-73724D01*
X58647Y-73724D02*
X58647Y-73881D01*
X58749Y-73724D02*
X58749Y-73848D01*
X58737Y-73870D01*
X58715Y-73881D01*
X58681Y-73881D01*
X58659Y-73870D01*
X58647Y-73859D01*
X58546Y-73870D02*
X58524Y-73881D01*
X58479Y-73881D01*
X58456Y-73870D01*
X58445Y-73848D01*
X58445Y-73836D01*
X58456Y-73814D01*
X58479Y-73803D01*
X58512Y-73803D01*
X58535Y-73791D01*
X58546Y-73769D01*
X58546Y-73758D01*
X58535Y-73735D01*
X58512Y-73724D01*
X58479Y-73724D01*
X58456Y-73735D01*
X58254Y-73870D02*
X58276Y-73881D01*
X58321Y-73881D01*
X58344Y-73870D01*
X58355Y-73848D01*
X58355Y-73758D01*
X58344Y-73735D01*
X58321Y-73724D01*
X58276Y-73724D01*
X58254Y-73735D01*
X58242Y-73758D01*
X58242Y-73780D01*
X58355Y-73803D01*
X58175Y-73724D02*
X58085Y-73724D01*
X58141Y-73881D02*
X58141Y-73679D01*
X58130Y-73656D01*
X58108Y-73645D01*
X58085Y-73645D01*
X58006Y-73881D02*
X58006Y-73724D01*
X58006Y-73645D02*
X58018Y-73656D01*
X58006Y-73668D01*
X57995Y-73656D01*
X58006Y-73645D01*
X58006Y-73668D01*
X57894Y-73859D02*
X57883Y-73870D01*
X57894Y-73881D01*
X57905Y-73870D01*
X57894Y-73859D01*
X57894Y-73881D01*
X57680Y-73870D02*
X57703Y-73881D01*
X57748Y-73881D01*
X57770Y-73870D01*
X57781Y-73859D01*
X57793Y-73836D01*
X57793Y-73769D01*
X57781Y-73746D01*
X57770Y-73735D01*
X57748Y-73724D01*
X57703Y-73724D01*
X57680Y-73735D01*
X57545Y-73881D02*
X57568Y-73870D01*
X57579Y-73859D01*
X57590Y-73836D01*
X57590Y-73769D01*
X57579Y-73746D01*
X57568Y-73735D01*
X57545Y-73724D01*
X57511Y-73724D01*
X57489Y-73735D01*
X57478Y-73746D01*
X57466Y-73769D01*
X57466Y-73836D01*
X57478Y-73859D01*
X57489Y-73870D01*
X57511Y-73881D01*
X57545Y-73881D01*
X57365Y-73881D02*
X57365Y-73724D01*
X57365Y-73746D02*
X57354Y-73735D01*
X57331Y-73724D01*
X57298Y-73724D01*
X57275Y-73735D01*
X57264Y-73758D01*
X57264Y-73881D01*
X57264Y-73758D02*
X57253Y-73735D01*
X57230Y-73724D01*
X57196Y-73724D01*
X57174Y-73735D01*
X57163Y-73758D01*
X57163Y-73881D01*
X56735Y-73859D02*
X56746Y-73870D01*
X56780Y-73881D01*
X56803Y-73881D01*
X56836Y-73870D01*
X56859Y-73848D01*
X56870Y-73825D01*
X56881Y-73780D01*
X56881Y-73746D01*
X56870Y-73701D01*
X56859Y-73679D01*
X56836Y-73656D01*
X56803Y-73645D01*
X56780Y-73645D01*
X56746Y-73656D01*
X56735Y-73668D01*
X56645Y-73814D02*
X56533Y-73814D01*
X56668Y-73881D02*
X56589Y-73645D01*
X56510Y-73881D01*
X56431Y-73881D02*
X56431Y-73645D01*
X56296Y-73881D01*
X56296Y-73645D01*
X55959Y-73645D02*
X55937Y-73645D01*
X55914Y-73656D01*
X55903Y-73668D01*
X55892Y-73690D01*
X55880Y-73735D01*
X55880Y-73791D01*
X55892Y-73836D01*
X55903Y-73859D01*
X55914Y-73870D01*
X55937Y-73881D01*
X55959Y-73881D01*
X55982Y-73870D01*
X55993Y-73859D01*
X56004Y-73836D01*
X56015Y-73791D01*
X56015Y-73735D01*
X56004Y-73690D01*
X55993Y-73668D01*
X55982Y-73656D01*
X55959Y-73645D01*
X55779Y-73859D02*
X55768Y-73870D01*
X55779Y-73881D01*
X55790Y-73870D01*
X55779Y-73859D01*
X55779Y-73881D01*
X55543Y-73881D02*
X55678Y-73881D01*
X55610Y-73881D02*
X55610Y-73645D01*
X55633Y-73679D01*
X55655Y-73701D01*
X55678Y-73713D01*
G54D12*
G36*
X58642Y-70908D02*
X58640Y-71075D01*
X58634Y-71194D01*
X58619Y-71283D01*
X58594Y-71360D01*
X58554Y-71445D01*
X58549Y-71455D01*
X58475Y-71571D01*
X58475Y-71392D01*
X58426Y-71360D01*
X58411Y-71358D01*
X58383Y-71325D01*
X58349Y-71227D01*
X58310Y-71063D01*
X58294Y-70983D01*
X58263Y-70828D01*
X58236Y-70693D01*
X58215Y-70594D01*
X58204Y-70550D01*
X58210Y-70501D01*
X58239Y-70492D01*
X58285Y-70466D01*
X58292Y-70442D01*
X58281Y-70419D01*
X58243Y-70405D01*
X58167Y-70396D01*
X58043Y-70392D01*
X57914Y-70392D01*
X57536Y-70392D01*
X57551Y-70492D01*
X57574Y-70562D01*
X57610Y-70591D01*
X57611Y-70592D01*
X57641Y-70568D01*
X57637Y-70541D01*
X57637Y-70513D01*
X57675Y-70498D01*
X57761Y-70492D01*
X57816Y-70492D01*
X58014Y-70492D01*
X58047Y-70675D01*
X58080Y-70858D01*
X57952Y-70858D01*
X57871Y-70850D01*
X57827Y-70831D01*
X57825Y-70825D01*
X57798Y-70795D01*
X57779Y-70792D01*
X57750Y-70810D01*
X57751Y-70875D01*
X57755Y-70897D01*
X57780Y-70965D01*
X57814Y-71013D01*
X57845Y-71027D01*
X57858Y-70995D01*
X57858Y-70994D01*
X57888Y-70971D01*
X57961Y-70959D01*
X57989Y-70958D01*
X58120Y-70958D01*
X58143Y-71143D01*
X58153Y-71247D01*
X58153Y-71323D01*
X58148Y-71346D01*
X58100Y-71358D01*
X58018Y-71352D01*
X57924Y-71334D01*
X57842Y-71309D01*
X57795Y-71281D01*
X57792Y-71272D01*
X57765Y-71230D01*
X57742Y-71225D01*
X57702Y-71255D01*
X57692Y-71325D01*
X57692Y-71425D01*
X58093Y-71425D01*
X58278Y-71422D01*
X58404Y-71415D01*
X58468Y-71402D01*
X58475Y-71392D01*
X58475Y-71571D01*
X58379Y-71723D01*
X58174Y-71935D01*
X57935Y-72090D01*
X57727Y-72171D01*
X57558Y-72204D01*
X57558Y-71392D01*
X57531Y-71362D01*
X57508Y-71358D01*
X57464Y-71352D01*
X57458Y-71346D01*
X57452Y-71311D01*
X57435Y-71223D01*
X57409Y-71095D01*
X57378Y-70941D01*
X57375Y-70925D01*
X57339Y-70748D01*
X57314Y-70627D01*
X57301Y-70551D01*
X57298Y-70510D01*
X57304Y-70493D01*
X57319Y-70490D01*
X57342Y-70492D01*
X57386Y-70465D01*
X57392Y-70442D01*
X57381Y-70419D01*
X57343Y-70405D01*
X57267Y-70396D01*
X57143Y-70392D01*
X57014Y-70392D01*
X56636Y-70392D01*
X56651Y-70492D01*
X56674Y-70562D01*
X56710Y-70591D01*
X56711Y-70592D01*
X56741Y-70568D01*
X56737Y-70542D01*
X56738Y-70512D01*
X56776Y-70497D01*
X56865Y-70492D01*
X56903Y-70492D01*
X57007Y-70496D01*
X57081Y-70508D01*
X57104Y-70518D01*
X57118Y-70565D01*
X57134Y-70653D01*
X57144Y-70718D01*
X57167Y-70892D01*
X57052Y-70892D01*
X56963Y-70881D01*
X56901Y-70854D01*
X56899Y-70852D01*
X56855Y-70825D01*
X56840Y-70858D01*
X56848Y-70933D01*
X56875Y-70992D01*
X56914Y-71025D01*
X56948Y-71023D01*
X56958Y-70992D01*
X56986Y-70967D01*
X57051Y-70958D01*
X57126Y-70965D01*
X57186Y-70986D01*
X57202Y-71004D01*
X57217Y-71063D01*
X57235Y-71159D01*
X57243Y-71204D01*
X57253Y-71299D01*
X57246Y-71345D01*
X57216Y-71358D01*
X57212Y-71358D01*
X57165Y-71375D01*
X57158Y-71392D01*
X57189Y-71409D01*
X57268Y-71421D01*
X57358Y-71425D01*
X57465Y-71420D01*
X57537Y-71407D01*
X57558Y-71392D01*
X57558Y-72204D01*
X57550Y-72206D01*
X57345Y-72220D01*
X57140Y-72213D01*
X56964Y-72185D01*
X56934Y-72176D01*
X56699Y-72072D01*
X56477Y-71918D01*
X56287Y-71727D01*
X56144Y-71514D01*
X56132Y-71489D01*
X56056Y-71283D01*
X56010Y-71052D01*
X56000Y-70830D01*
X56005Y-70769D01*
X56026Y-70635D01*
X56053Y-70527D01*
X56082Y-70457D01*
X56110Y-70438D01*
X56118Y-70446D01*
X56169Y-70488D01*
X56189Y-70497D01*
X56219Y-70538D01*
X56255Y-70644D01*
X56295Y-70810D01*
X56312Y-70893D01*
X56348Y-71076D01*
X56371Y-71203D01*
X56383Y-71285D01*
X56384Y-71331D01*
X56374Y-71352D01*
X56355Y-71358D01*
X56342Y-71358D01*
X56297Y-71376D01*
X56292Y-71392D01*
X56322Y-71409D01*
X56401Y-71421D01*
X56492Y-71425D01*
X56605Y-71419D01*
X56675Y-71403D01*
X56694Y-71381D01*
X56655Y-71357D01*
X56631Y-71350D01*
X56600Y-71328D01*
X56573Y-71274D01*
X56546Y-71176D01*
X56516Y-71024D01*
X56513Y-71005D01*
X56486Y-70853D01*
X56461Y-70718D01*
X56442Y-70617D01*
X56436Y-70583D01*
X56431Y-70515D01*
X56462Y-70492D01*
X56470Y-70491D01*
X56507Y-70471D01*
X56504Y-70441D01*
X56470Y-70411D01*
X56393Y-70395D01*
X56285Y-70391D01*
X56086Y-70392D01*
X56161Y-70267D01*
X56310Y-70066D01*
X56501Y-69883D01*
X56712Y-69739D01*
X56758Y-69715D01*
X56858Y-69667D01*
X56941Y-69637D01*
X57027Y-69619D01*
X57134Y-69611D01*
X57283Y-69609D01*
X57341Y-69609D01*
X57508Y-69611D01*
X57628Y-69617D01*
X57719Y-69632D01*
X57800Y-69659D01*
X57891Y-69700D01*
X57906Y-69707D01*
X58116Y-69840D01*
X58311Y-70018D01*
X58473Y-70221D01*
X58546Y-70347D01*
X58589Y-70440D01*
X58617Y-70521D01*
X58632Y-70610D01*
X58640Y-70726D01*
X58641Y-70888D01*
X58642Y-70908D01*
X58642Y-70908D01*
X58642Y-70908D01*
G37*
M02*
