G04 (created by PCBNEW (2013-07-07 BZR 4022)-stable) date 19/01/2014 00:13:05*
%MOIN*%
G04 Gerber Fmt 3.4, Leading zero omitted, Abs format*
%FSLAX34Y34*%
G01*
G70*
G90*
G04 APERTURE LIST*
%ADD10C,0.00590551*%
%ADD11R,0.06X0.06*%
%ADD12C,0.06*%
%ADD13R,0.055X0.055*%
%ADD14C,0.055*%
%ADD15C,0.035*%
%ADD16C,0.01*%
%ADD17C,0.00984252*%
G04 APERTURE END LIST*
G54D10*
G54D11*
X70750Y-47475D03*
G54D12*
X70750Y-48475D03*
X70750Y-49475D03*
X70750Y-50475D03*
G54D11*
X78625Y-48650D03*
G54D12*
X78625Y-49650D03*
G54D13*
X77650Y-47475D03*
G54D14*
X78650Y-47475D03*
G54D15*
X76700Y-49625D03*
X77550Y-48100D03*
X71900Y-50475D03*
X72900Y-49450D03*
X72250Y-48900D03*
X72825Y-48100D03*
G54D16*
X76700Y-48950D02*
X76700Y-49625D01*
X77550Y-48100D02*
X76700Y-48950D01*
X72250Y-48900D02*
X72250Y-50125D01*
X72250Y-50125D02*
X71900Y-50475D01*
X72350Y-48900D02*
X72250Y-48900D01*
X72900Y-49450D02*
X72350Y-48900D01*
X72250Y-48900D02*
X72925Y-48200D01*
X72925Y-48200D02*
X72825Y-48100D01*
G54D10*
G36*
X79028Y-50928D02*
X78092Y-50928D01*
X78092Y-47716D01*
X78092Y-47166D01*
X78066Y-47105D01*
X78019Y-47058D01*
X77958Y-47032D01*
X77891Y-47032D01*
X77341Y-47032D01*
X77280Y-47058D01*
X77233Y-47105D01*
X77207Y-47166D01*
X77207Y-47233D01*
X77207Y-47783D01*
X77233Y-47844D01*
X77280Y-47891D01*
X77341Y-47917D01*
X77408Y-47917D01*
X77958Y-47917D01*
X78019Y-47891D01*
X78066Y-47844D01*
X78092Y-47783D01*
X78092Y-47716D01*
X78092Y-50928D01*
X77627Y-50928D01*
X77642Y-50913D01*
X77642Y-50912D01*
X77750Y-50751D01*
X77750Y-50750D01*
X77780Y-50679D01*
X77817Y-50488D01*
X77817Y-50488D01*
X77817Y-50488D01*
X77817Y-50488D01*
X77817Y-50450D01*
X77817Y-50411D01*
X77817Y-50411D01*
X77817Y-50411D01*
X77817Y-50411D01*
X77780Y-50220D01*
X77750Y-50149D01*
X77750Y-50148D01*
X77642Y-49987D01*
X77642Y-49986D01*
X77587Y-49932D01*
X77426Y-49824D01*
X77425Y-49824D01*
X77354Y-49794D01*
X77163Y-49756D01*
X77086Y-49756D01*
X77085Y-49757D01*
X76895Y-49794D01*
X76824Y-49824D01*
X76823Y-49824D01*
X76662Y-49932D01*
X76661Y-49932D01*
X76607Y-49987D01*
X76499Y-50148D01*
X76499Y-50149D01*
X76469Y-50220D01*
X76431Y-50411D01*
X76431Y-50450D01*
X76431Y-50488D01*
X76469Y-50679D01*
X76499Y-50750D01*
X76499Y-50751D01*
X76607Y-50912D01*
X76622Y-50928D01*
X71218Y-50928D01*
X71218Y-48390D01*
X71151Y-48217D01*
X71141Y-48202D01*
X71064Y-48174D01*
X71050Y-48188D01*
X71050Y-48160D01*
X71022Y-48083D01*
X70851Y-48009D01*
X70665Y-48006D01*
X70492Y-48073D01*
X70477Y-48083D01*
X70449Y-48160D01*
X70750Y-48461D01*
X71050Y-48160D01*
X71050Y-48188D01*
X70763Y-48475D01*
X71064Y-48775D01*
X71141Y-48747D01*
X71215Y-48576D01*
X71218Y-48390D01*
X71218Y-50928D01*
X70877Y-50928D01*
X71014Y-50871D01*
X71145Y-50740D01*
X71217Y-50568D01*
X71217Y-50382D01*
X71217Y-49382D01*
X71146Y-49210D01*
X71050Y-49114D01*
X71050Y-48789D01*
X70750Y-48488D01*
X70736Y-48502D01*
X70736Y-48475D01*
X70435Y-48174D01*
X70358Y-48202D01*
X70284Y-48373D01*
X70281Y-48559D01*
X70348Y-48732D01*
X70358Y-48747D01*
X70435Y-48775D01*
X70736Y-48475D01*
X70736Y-48502D01*
X70449Y-48789D01*
X70477Y-48866D01*
X70648Y-48940D01*
X70834Y-48943D01*
X71007Y-48876D01*
X71022Y-48866D01*
X71050Y-48789D01*
X71050Y-49114D01*
X71015Y-49079D01*
X70843Y-49007D01*
X70657Y-49007D01*
X70485Y-49078D01*
X70354Y-49209D01*
X70282Y-49381D01*
X70282Y-49567D01*
X70353Y-49739D01*
X70484Y-49870D01*
X70656Y-49942D01*
X70842Y-49942D01*
X71014Y-49871D01*
X71145Y-49740D01*
X71217Y-49568D01*
X71217Y-49382D01*
X71217Y-50382D01*
X71146Y-50210D01*
X71015Y-50079D01*
X70843Y-50007D01*
X70657Y-50007D01*
X70485Y-50078D01*
X70354Y-50209D01*
X70282Y-50381D01*
X70282Y-50567D01*
X70353Y-50739D01*
X70484Y-50870D01*
X70622Y-50928D01*
X70246Y-50928D01*
X70246Y-47021D01*
X70382Y-47021D01*
X70355Y-47033D01*
X70308Y-47080D01*
X70282Y-47141D01*
X70282Y-47208D01*
X70282Y-47808D01*
X70308Y-47869D01*
X70355Y-47916D01*
X70416Y-47942D01*
X70483Y-47942D01*
X71083Y-47942D01*
X71144Y-47916D01*
X71191Y-47869D01*
X71217Y-47808D01*
X71217Y-47741D01*
X71217Y-47141D01*
X71191Y-47080D01*
X71144Y-47033D01*
X71117Y-47021D01*
X71697Y-47021D01*
X71682Y-47037D01*
X71574Y-47198D01*
X71574Y-47199D01*
X71544Y-47270D01*
X71506Y-47461D01*
X71506Y-47500D01*
X71506Y-47538D01*
X71544Y-47729D01*
X71574Y-47800D01*
X71574Y-47801D01*
X71682Y-47962D01*
X71736Y-48017D01*
X71737Y-48017D01*
X71898Y-48125D01*
X71899Y-48125D01*
X71970Y-48155D01*
X72160Y-48192D01*
X72161Y-48193D01*
X72238Y-48193D01*
X72429Y-48155D01*
X72500Y-48125D01*
X72501Y-48125D01*
X72662Y-48017D01*
X72717Y-47963D01*
X72717Y-47962D01*
X72825Y-47801D01*
X72825Y-47800D01*
X72855Y-47729D01*
X72892Y-47538D01*
X72892Y-47538D01*
X72892Y-47538D01*
X72892Y-47538D01*
X72892Y-47500D01*
X72892Y-47461D01*
X72892Y-47461D01*
X72892Y-47461D01*
X72892Y-47461D01*
X72855Y-47270D01*
X72825Y-47199D01*
X72825Y-47198D01*
X72717Y-47037D01*
X72717Y-47036D01*
X72702Y-47021D01*
X79028Y-47021D01*
X79028Y-47231D01*
X79025Y-47224D01*
X78900Y-47100D01*
X78738Y-47032D01*
X78562Y-47032D01*
X78399Y-47099D01*
X78275Y-47224D01*
X78207Y-47386D01*
X78207Y-47562D01*
X78274Y-47725D01*
X78399Y-47849D01*
X78561Y-47917D01*
X78737Y-47917D01*
X78900Y-47850D01*
X79024Y-47725D01*
X79028Y-47717D01*
X79028Y-48216D01*
X79019Y-48208D01*
X78958Y-48182D01*
X78891Y-48182D01*
X78291Y-48182D01*
X78230Y-48208D01*
X78183Y-48255D01*
X78157Y-48316D01*
X78157Y-48383D01*
X78157Y-48983D01*
X78183Y-49044D01*
X78230Y-49091D01*
X78291Y-49117D01*
X78358Y-49117D01*
X78958Y-49117D01*
X79019Y-49091D01*
X79028Y-49083D01*
X79028Y-49401D01*
X79021Y-49385D01*
X78890Y-49254D01*
X78718Y-49182D01*
X78532Y-49182D01*
X78360Y-49253D01*
X78229Y-49384D01*
X78157Y-49556D01*
X78157Y-49742D01*
X78228Y-49914D01*
X78359Y-50045D01*
X78531Y-50117D01*
X78717Y-50117D01*
X78889Y-50046D01*
X79020Y-49915D01*
X79028Y-49897D01*
X79028Y-50928D01*
X79028Y-50928D01*
G37*
G54D17*
X79028Y-50928D02*
X78092Y-50928D01*
X78092Y-47716D01*
X78092Y-47166D01*
X78066Y-47105D01*
X78019Y-47058D01*
X77958Y-47032D01*
X77891Y-47032D01*
X77341Y-47032D01*
X77280Y-47058D01*
X77233Y-47105D01*
X77207Y-47166D01*
X77207Y-47233D01*
X77207Y-47783D01*
X77233Y-47844D01*
X77280Y-47891D01*
X77341Y-47917D01*
X77408Y-47917D01*
X77958Y-47917D01*
X78019Y-47891D01*
X78066Y-47844D01*
X78092Y-47783D01*
X78092Y-47716D01*
X78092Y-50928D01*
X77627Y-50928D01*
X77642Y-50913D01*
X77642Y-50912D01*
X77750Y-50751D01*
X77750Y-50750D01*
X77780Y-50679D01*
X77817Y-50488D01*
X77817Y-50488D01*
X77817Y-50488D01*
X77817Y-50488D01*
X77817Y-50450D01*
X77817Y-50411D01*
X77817Y-50411D01*
X77817Y-50411D01*
X77817Y-50411D01*
X77780Y-50220D01*
X77750Y-50149D01*
X77750Y-50148D01*
X77642Y-49987D01*
X77642Y-49986D01*
X77587Y-49932D01*
X77426Y-49824D01*
X77425Y-49824D01*
X77354Y-49794D01*
X77163Y-49756D01*
X77086Y-49756D01*
X77085Y-49757D01*
X76895Y-49794D01*
X76824Y-49824D01*
X76823Y-49824D01*
X76662Y-49932D01*
X76661Y-49932D01*
X76607Y-49987D01*
X76499Y-50148D01*
X76499Y-50149D01*
X76469Y-50220D01*
X76431Y-50411D01*
X76431Y-50450D01*
X76431Y-50488D01*
X76469Y-50679D01*
X76499Y-50750D01*
X76499Y-50751D01*
X76607Y-50912D01*
X76622Y-50928D01*
X71218Y-50928D01*
X71218Y-48390D01*
X71151Y-48217D01*
X71141Y-48202D01*
X71064Y-48174D01*
X71050Y-48188D01*
X71050Y-48160D01*
X71022Y-48083D01*
X70851Y-48009D01*
X70665Y-48006D01*
X70492Y-48073D01*
X70477Y-48083D01*
X70449Y-48160D01*
X70750Y-48461D01*
X71050Y-48160D01*
X71050Y-48188D01*
X70763Y-48475D01*
X71064Y-48775D01*
X71141Y-48747D01*
X71215Y-48576D01*
X71218Y-48390D01*
X71218Y-50928D01*
X70877Y-50928D01*
X71014Y-50871D01*
X71145Y-50740D01*
X71217Y-50568D01*
X71217Y-50382D01*
X71217Y-49382D01*
X71146Y-49210D01*
X71050Y-49114D01*
X71050Y-48789D01*
X70750Y-48488D01*
X70736Y-48502D01*
X70736Y-48475D01*
X70435Y-48174D01*
X70358Y-48202D01*
X70284Y-48373D01*
X70281Y-48559D01*
X70348Y-48732D01*
X70358Y-48747D01*
X70435Y-48775D01*
X70736Y-48475D01*
X70736Y-48502D01*
X70449Y-48789D01*
X70477Y-48866D01*
X70648Y-48940D01*
X70834Y-48943D01*
X71007Y-48876D01*
X71022Y-48866D01*
X71050Y-48789D01*
X71050Y-49114D01*
X71015Y-49079D01*
X70843Y-49007D01*
X70657Y-49007D01*
X70485Y-49078D01*
X70354Y-49209D01*
X70282Y-49381D01*
X70282Y-49567D01*
X70353Y-49739D01*
X70484Y-49870D01*
X70656Y-49942D01*
X70842Y-49942D01*
X71014Y-49871D01*
X71145Y-49740D01*
X71217Y-49568D01*
X71217Y-49382D01*
X71217Y-50382D01*
X71146Y-50210D01*
X71015Y-50079D01*
X70843Y-50007D01*
X70657Y-50007D01*
X70485Y-50078D01*
X70354Y-50209D01*
X70282Y-50381D01*
X70282Y-50567D01*
X70353Y-50739D01*
X70484Y-50870D01*
X70622Y-50928D01*
X70246Y-50928D01*
X70246Y-47021D01*
X70382Y-47021D01*
X70355Y-47033D01*
X70308Y-47080D01*
X70282Y-47141D01*
X70282Y-47208D01*
X70282Y-47808D01*
X70308Y-47869D01*
X70355Y-47916D01*
X70416Y-47942D01*
X70483Y-47942D01*
X71083Y-47942D01*
X71144Y-47916D01*
X71191Y-47869D01*
X71217Y-47808D01*
X71217Y-47741D01*
X71217Y-47141D01*
X71191Y-47080D01*
X71144Y-47033D01*
X71117Y-47021D01*
X71697Y-47021D01*
X71682Y-47037D01*
X71574Y-47198D01*
X71574Y-47199D01*
X71544Y-47270D01*
X71506Y-47461D01*
X71506Y-47500D01*
X71506Y-47538D01*
X71544Y-47729D01*
X71574Y-47800D01*
X71574Y-47801D01*
X71682Y-47962D01*
X71736Y-48017D01*
X71737Y-48017D01*
X71898Y-48125D01*
X71899Y-48125D01*
X71970Y-48155D01*
X72160Y-48192D01*
X72161Y-48193D01*
X72238Y-48193D01*
X72429Y-48155D01*
X72500Y-48125D01*
X72501Y-48125D01*
X72662Y-48017D01*
X72717Y-47963D01*
X72717Y-47962D01*
X72825Y-47801D01*
X72825Y-47800D01*
X72855Y-47729D01*
X72892Y-47538D01*
X72892Y-47538D01*
X72892Y-47538D01*
X72892Y-47538D01*
X72892Y-47500D01*
X72892Y-47461D01*
X72892Y-47461D01*
X72892Y-47461D01*
X72892Y-47461D01*
X72855Y-47270D01*
X72825Y-47199D01*
X72825Y-47198D01*
X72717Y-47037D01*
X72717Y-47036D01*
X72702Y-47021D01*
X79028Y-47021D01*
X79028Y-47231D01*
X79025Y-47224D01*
X78900Y-47100D01*
X78738Y-47032D01*
X78562Y-47032D01*
X78399Y-47099D01*
X78275Y-47224D01*
X78207Y-47386D01*
X78207Y-47562D01*
X78274Y-47725D01*
X78399Y-47849D01*
X78561Y-47917D01*
X78737Y-47917D01*
X78900Y-47850D01*
X79024Y-47725D01*
X79028Y-47717D01*
X79028Y-48216D01*
X79019Y-48208D01*
X78958Y-48182D01*
X78891Y-48182D01*
X78291Y-48182D01*
X78230Y-48208D01*
X78183Y-48255D01*
X78157Y-48316D01*
X78157Y-48383D01*
X78157Y-48983D01*
X78183Y-49044D01*
X78230Y-49091D01*
X78291Y-49117D01*
X78358Y-49117D01*
X78958Y-49117D01*
X79019Y-49091D01*
X79028Y-49083D01*
X79028Y-49401D01*
X79021Y-49385D01*
X78890Y-49254D01*
X78718Y-49182D01*
X78532Y-49182D01*
X78360Y-49253D01*
X78229Y-49384D01*
X78157Y-49556D01*
X78157Y-49742D01*
X78228Y-49914D01*
X78359Y-50045D01*
X78531Y-50117D01*
X78717Y-50117D01*
X78889Y-50046D01*
X79020Y-49915D01*
X79028Y-49897D01*
X79028Y-50928D01*
M02*
