G04 (created by PCBNEW (2013-07-07 BZR 4022)-stable) date 19/01/2014 00:13:05*
%MOIN*%
G04 Gerber Fmt 3.4, Leading zero omitted, Abs format*
%FSLAX34Y34*%
G01*
G70*
G90*
G04 APERTURE LIST*
%ADD10C,0.00590551*%
%ADD11R,0.055X0.035*%
%ADD12R,0.0472X0.0472*%
%ADD13R,0.035X0.055*%
%ADD14R,0.06X0.06*%
%ADD15C,0.06*%
%ADD16R,0.0551X0.0236*%
%ADD17R,0.055X0.055*%
%ADD18C,0.055*%
%ADD19C,0.035*%
%ADD20C,0.01*%
%ADD21C,0.00984252*%
G04 APERTURE END LIST*
G54D10*
G54D11*
X74275Y-47325D03*
X74275Y-48075D03*
X73450Y-48050D03*
X73450Y-47300D03*
G54D12*
X75863Y-47350D03*
X75037Y-47350D03*
G54D13*
X75775Y-48100D03*
X75025Y-48100D03*
G54D11*
X76675Y-48125D03*
X76675Y-47375D03*
G54D14*
X70750Y-47475D03*
G54D15*
X70750Y-48475D03*
X70750Y-49475D03*
X70750Y-50475D03*
G54D14*
X78625Y-48650D03*
G54D15*
X78625Y-49650D03*
G54D16*
X75625Y-48950D03*
X73525Y-48950D03*
X75625Y-49450D03*
X75625Y-49950D03*
X75625Y-50450D03*
X73525Y-49450D03*
X73525Y-49950D03*
X73525Y-50450D03*
G54D17*
X77650Y-47475D03*
G54D18*
X78650Y-47475D03*
G54D11*
X77750Y-48725D03*
X77750Y-49475D03*
G54D19*
X76700Y-49625D03*
X77550Y-48100D03*
X71900Y-50475D03*
X72900Y-49450D03*
X72250Y-48900D03*
X72825Y-48100D03*
G54D20*
X73525Y-49950D02*
X72900Y-49950D01*
X72775Y-49050D02*
X72775Y-48500D01*
X72575Y-49250D02*
X72775Y-49050D01*
X72575Y-49625D02*
X72575Y-49250D01*
X72900Y-49950D02*
X72575Y-49625D01*
X70750Y-47475D02*
X70750Y-47625D01*
X73000Y-48500D02*
X73450Y-48050D01*
X71625Y-48500D02*
X72775Y-48500D01*
X72775Y-48500D02*
X73000Y-48500D01*
X70750Y-47625D02*
X71625Y-48500D01*
X74275Y-48075D02*
X73475Y-48075D01*
X73475Y-48075D02*
X73450Y-48050D01*
X75025Y-48100D02*
X74300Y-48100D01*
X74300Y-48100D02*
X74275Y-48075D01*
X76325Y-49400D02*
X76330Y-49400D01*
X75100Y-49650D02*
X75100Y-50675D01*
X75100Y-50675D02*
X75225Y-50800D01*
X75225Y-50800D02*
X76025Y-50800D01*
X76025Y-50800D02*
X76150Y-50675D01*
X76150Y-50675D02*
X76150Y-50000D01*
X76150Y-50000D02*
X76325Y-49825D01*
X76325Y-49825D02*
X76325Y-49400D01*
X75300Y-49450D02*
X75100Y-49650D01*
X75625Y-49450D02*
X75300Y-49450D01*
X77530Y-49255D02*
X77750Y-49475D01*
X76475Y-49255D02*
X77530Y-49255D01*
X76330Y-49400D02*
X76475Y-49255D01*
X77750Y-49475D02*
X78450Y-49475D01*
X78450Y-49475D02*
X78625Y-49650D01*
X78625Y-48650D02*
X78200Y-49075D01*
X75925Y-49950D02*
X76125Y-49750D01*
X76125Y-49750D02*
X76125Y-49279D01*
X75925Y-49950D02*
X75625Y-49950D01*
X76329Y-49075D02*
X76125Y-49279D01*
X78200Y-49075D02*
X76329Y-49075D01*
X78650Y-47475D02*
X78650Y-48625D01*
X78650Y-48625D02*
X78625Y-48650D01*
X70750Y-49475D02*
X72125Y-49475D01*
X73100Y-50450D02*
X73525Y-50450D01*
X72125Y-49475D02*
X73100Y-50450D01*
X73525Y-48950D02*
X73900Y-48950D01*
X71525Y-49700D02*
X70750Y-50475D01*
X72025Y-49700D02*
X71525Y-49700D01*
X73125Y-50800D02*
X72025Y-49700D01*
X73975Y-50800D02*
X73125Y-50800D01*
X74125Y-50650D02*
X73975Y-50800D01*
X74125Y-49175D02*
X74125Y-50650D01*
X73900Y-48950D02*
X74125Y-49175D01*
X76675Y-47375D02*
X77050Y-47375D01*
X77350Y-48100D02*
X77550Y-48100D01*
X77175Y-47925D02*
X77350Y-48100D01*
X77175Y-47500D02*
X77175Y-47925D01*
X77050Y-47375D02*
X77175Y-47500D01*
X73525Y-49450D02*
X72900Y-49450D01*
X70750Y-48475D02*
X70925Y-48475D01*
X70925Y-48475D02*
X71350Y-48900D01*
X71350Y-48900D02*
X72250Y-48900D01*
X73525Y-49450D02*
X73325Y-49450D01*
X72250Y-49050D02*
X72250Y-48900D01*
X73475Y-47300D02*
X73450Y-47300D01*
X73075Y-47700D02*
X73475Y-47300D01*
X73025Y-47700D02*
X73075Y-47700D01*
X73025Y-47900D02*
X73025Y-47700D01*
X72825Y-48100D02*
X73025Y-47900D01*
X73450Y-47300D02*
X74225Y-47300D01*
X74225Y-47300D02*
X74275Y-47350D01*
X74275Y-47350D02*
X74275Y-47325D01*
X74275Y-47325D02*
X74275Y-47350D01*
X74275Y-47350D02*
X75037Y-47350D01*
X75775Y-48100D02*
X75775Y-47438D01*
X75775Y-47438D02*
X75863Y-47350D01*
X75625Y-48950D02*
X76200Y-48950D01*
X76875Y-48275D02*
X76875Y-48125D01*
X76200Y-48950D02*
X76875Y-48275D01*
X76675Y-48150D02*
X76650Y-48150D01*
X77650Y-47475D02*
X77675Y-47475D01*
X78025Y-48450D02*
X77750Y-48725D01*
X78025Y-47825D02*
X78025Y-48450D01*
X77675Y-47475D02*
X78025Y-47825D01*
G54D10*
G36*
X72557Y-48959D02*
X72421Y-49096D01*
X72374Y-49166D01*
X72357Y-49250D01*
X72357Y-49400D01*
X72278Y-49321D01*
X72208Y-49274D01*
X72125Y-49257D01*
X71165Y-49257D01*
X71146Y-49210D01*
X71050Y-49114D01*
X71050Y-48789D01*
X70750Y-48488D01*
X70736Y-48502D01*
X70736Y-48475D01*
X70435Y-48174D01*
X70358Y-48202D01*
X70284Y-48373D01*
X70281Y-48559D01*
X70348Y-48732D01*
X70358Y-48747D01*
X70435Y-48775D01*
X70736Y-48475D01*
X70736Y-48502D01*
X70449Y-48789D01*
X70477Y-48866D01*
X70648Y-48940D01*
X70834Y-48943D01*
X71007Y-48876D01*
X71022Y-48866D01*
X71050Y-48789D01*
X71050Y-49114D01*
X71015Y-49079D01*
X70843Y-49007D01*
X70657Y-49007D01*
X70485Y-49078D01*
X70354Y-49209D01*
X70282Y-49381D01*
X70282Y-49567D01*
X70353Y-49739D01*
X70484Y-49870D01*
X70656Y-49942D01*
X70842Y-49942D01*
X71014Y-49871D01*
X71145Y-49740D01*
X71165Y-49692D01*
X71225Y-49692D01*
X70890Y-50027D01*
X70843Y-50007D01*
X70657Y-50007D01*
X70485Y-50078D01*
X70354Y-50209D01*
X70282Y-50381D01*
X70282Y-50567D01*
X70353Y-50739D01*
X70484Y-50870D01*
X70622Y-50928D01*
X70246Y-50928D01*
X70246Y-47021D01*
X70382Y-47021D01*
X70355Y-47033D01*
X70308Y-47080D01*
X70282Y-47141D01*
X70282Y-47208D01*
X70282Y-47808D01*
X70308Y-47869D01*
X70355Y-47916D01*
X70416Y-47942D01*
X70483Y-47942D01*
X70760Y-47942D01*
X70826Y-48009D01*
X70665Y-48006D01*
X70492Y-48073D01*
X70477Y-48083D01*
X70449Y-48160D01*
X70750Y-48461D01*
X70755Y-48455D01*
X70769Y-48469D01*
X70763Y-48475D01*
X71064Y-48775D01*
X71141Y-48747D01*
X71215Y-48576D01*
X71218Y-48401D01*
X71471Y-48653D01*
X71471Y-48653D01*
X71541Y-48700D01*
X71541Y-48700D01*
X71625Y-48717D01*
X72557Y-48717D01*
X72557Y-48959D01*
X72557Y-48959D01*
G37*
G54D21*
X72557Y-48959D02*
X72421Y-49096D01*
X72374Y-49166D01*
X72357Y-49250D01*
X72357Y-49400D01*
X72278Y-49321D01*
X72208Y-49274D01*
X72125Y-49257D01*
X71165Y-49257D01*
X71146Y-49210D01*
X71050Y-49114D01*
X71050Y-48789D01*
X70750Y-48488D01*
X70736Y-48502D01*
X70736Y-48475D01*
X70435Y-48174D01*
X70358Y-48202D01*
X70284Y-48373D01*
X70281Y-48559D01*
X70348Y-48732D01*
X70358Y-48747D01*
X70435Y-48775D01*
X70736Y-48475D01*
X70736Y-48502D01*
X70449Y-48789D01*
X70477Y-48866D01*
X70648Y-48940D01*
X70834Y-48943D01*
X71007Y-48876D01*
X71022Y-48866D01*
X71050Y-48789D01*
X71050Y-49114D01*
X71015Y-49079D01*
X70843Y-49007D01*
X70657Y-49007D01*
X70485Y-49078D01*
X70354Y-49209D01*
X70282Y-49381D01*
X70282Y-49567D01*
X70353Y-49739D01*
X70484Y-49870D01*
X70656Y-49942D01*
X70842Y-49942D01*
X71014Y-49871D01*
X71145Y-49740D01*
X71165Y-49692D01*
X71225Y-49692D01*
X70890Y-50027D01*
X70843Y-50007D01*
X70657Y-50007D01*
X70485Y-50078D01*
X70354Y-50209D01*
X70282Y-50381D01*
X70282Y-50567D01*
X70353Y-50739D01*
X70484Y-50870D01*
X70622Y-50928D01*
X70246Y-50928D01*
X70246Y-47021D01*
X70382Y-47021D01*
X70355Y-47033D01*
X70308Y-47080D01*
X70282Y-47141D01*
X70282Y-47208D01*
X70282Y-47808D01*
X70308Y-47869D01*
X70355Y-47916D01*
X70416Y-47942D01*
X70483Y-47942D01*
X70760Y-47942D01*
X70826Y-48009D01*
X70665Y-48006D01*
X70492Y-48073D01*
X70477Y-48083D01*
X70449Y-48160D01*
X70750Y-48461D01*
X70755Y-48455D01*
X70769Y-48469D01*
X70763Y-48475D01*
X71064Y-48775D01*
X71141Y-48747D01*
X71215Y-48576D01*
X71218Y-48401D01*
X71471Y-48653D01*
X71471Y-48653D01*
X71541Y-48700D01*
X71541Y-48700D01*
X71625Y-48717D01*
X72557Y-48717D01*
X72557Y-48959D01*
G54D10*
G36*
X72945Y-50928D02*
X70877Y-50928D01*
X71014Y-50871D01*
X71145Y-50740D01*
X71217Y-50568D01*
X71217Y-50382D01*
X71197Y-50334D01*
X71615Y-49917D01*
X71934Y-49917D01*
X72945Y-50928D01*
X72945Y-50928D01*
G37*
G54D21*
X72945Y-50928D02*
X70877Y-50928D01*
X71014Y-50871D01*
X71145Y-50740D01*
X71217Y-50568D01*
X71217Y-50382D01*
X71197Y-50334D01*
X71615Y-49917D01*
X71934Y-49917D01*
X72945Y-50928D01*
G54D10*
G36*
X74709Y-47729D02*
X74708Y-47730D01*
X74682Y-47791D01*
X74682Y-47796D01*
X74644Y-47758D01*
X74583Y-47732D01*
X74516Y-47732D01*
X74265Y-47732D01*
X73966Y-47732D01*
X73905Y-47758D01*
X73871Y-47791D01*
X73866Y-47780D01*
X73819Y-47733D01*
X73758Y-47707D01*
X73691Y-47707D01*
X73440Y-47707D01*
X73440Y-47600D01*
X73440Y-47309D01*
X73049Y-47309D01*
X73007Y-47351D01*
X73007Y-47508D01*
X73033Y-47569D01*
X73080Y-47616D01*
X73141Y-47642D01*
X73208Y-47642D01*
X73398Y-47642D01*
X73440Y-47600D01*
X73440Y-47707D01*
X73141Y-47707D01*
X73080Y-47733D01*
X73033Y-47780D01*
X73007Y-47841D01*
X73007Y-47908D01*
X73007Y-48185D01*
X72909Y-48282D01*
X72775Y-48282D01*
X71715Y-48282D01*
X71217Y-47784D01*
X71217Y-47741D01*
X71217Y-47141D01*
X71191Y-47080D01*
X71144Y-47033D01*
X71117Y-47021D01*
X71697Y-47021D01*
X71682Y-47037D01*
X71574Y-47198D01*
X71574Y-47199D01*
X71544Y-47270D01*
X71506Y-47461D01*
X71506Y-47500D01*
X71506Y-47538D01*
X71544Y-47729D01*
X71574Y-47800D01*
X71574Y-47801D01*
X71682Y-47962D01*
X71736Y-48017D01*
X71737Y-48017D01*
X71898Y-48125D01*
X71899Y-48125D01*
X71970Y-48155D01*
X72160Y-48192D01*
X72161Y-48193D01*
X72238Y-48193D01*
X72429Y-48155D01*
X72500Y-48125D01*
X72501Y-48125D01*
X72662Y-48017D01*
X72717Y-47963D01*
X72717Y-47962D01*
X72825Y-47801D01*
X72825Y-47800D01*
X72855Y-47729D01*
X72892Y-47538D01*
X72892Y-47538D01*
X72892Y-47538D01*
X72892Y-47538D01*
X72892Y-47500D01*
X72892Y-47461D01*
X72892Y-47461D01*
X72892Y-47461D01*
X72892Y-47461D01*
X72855Y-47270D01*
X72825Y-47199D01*
X72825Y-47198D01*
X72717Y-47037D01*
X72717Y-47036D01*
X72702Y-47021D01*
X73041Y-47021D01*
X73033Y-47030D01*
X73007Y-47091D01*
X73007Y-47248D01*
X73049Y-47290D01*
X73440Y-47290D01*
X73440Y-47282D01*
X73459Y-47282D01*
X73459Y-47290D01*
X73467Y-47290D01*
X73467Y-47309D01*
X73459Y-47309D01*
X73459Y-47600D01*
X73501Y-47642D01*
X73691Y-47642D01*
X73758Y-47642D01*
X73819Y-47616D01*
X73853Y-47583D01*
X73858Y-47594D01*
X73905Y-47641D01*
X73966Y-47667D01*
X74033Y-47667D01*
X74223Y-47667D01*
X74265Y-47625D01*
X74265Y-47334D01*
X74257Y-47334D01*
X74257Y-47315D01*
X74265Y-47315D01*
X74265Y-47307D01*
X74284Y-47307D01*
X74284Y-47315D01*
X74292Y-47315D01*
X74292Y-47334D01*
X74284Y-47334D01*
X74284Y-47625D01*
X74326Y-47667D01*
X74516Y-47667D01*
X74583Y-47667D01*
X74643Y-47642D01*
X74659Y-47680D01*
X74706Y-47727D01*
X74709Y-47729D01*
X74709Y-47729D01*
G37*
G54D21*
X74709Y-47729D02*
X74708Y-47730D01*
X74682Y-47791D01*
X74682Y-47796D01*
X74644Y-47758D01*
X74583Y-47732D01*
X74516Y-47732D01*
X74265Y-47732D01*
X73966Y-47732D01*
X73905Y-47758D01*
X73871Y-47791D01*
X73866Y-47780D01*
X73819Y-47733D01*
X73758Y-47707D01*
X73691Y-47707D01*
X73440Y-47707D01*
X73440Y-47600D01*
X73440Y-47309D01*
X73049Y-47309D01*
X73007Y-47351D01*
X73007Y-47508D01*
X73033Y-47569D01*
X73080Y-47616D01*
X73141Y-47642D01*
X73208Y-47642D01*
X73398Y-47642D01*
X73440Y-47600D01*
X73440Y-47707D01*
X73141Y-47707D01*
X73080Y-47733D01*
X73033Y-47780D01*
X73007Y-47841D01*
X73007Y-47908D01*
X73007Y-48185D01*
X72909Y-48282D01*
X72775Y-48282D01*
X71715Y-48282D01*
X71217Y-47784D01*
X71217Y-47741D01*
X71217Y-47141D01*
X71191Y-47080D01*
X71144Y-47033D01*
X71117Y-47021D01*
X71697Y-47021D01*
X71682Y-47037D01*
X71574Y-47198D01*
X71574Y-47199D01*
X71544Y-47270D01*
X71506Y-47461D01*
X71506Y-47500D01*
X71506Y-47538D01*
X71544Y-47729D01*
X71574Y-47800D01*
X71574Y-47801D01*
X71682Y-47962D01*
X71736Y-48017D01*
X71737Y-48017D01*
X71898Y-48125D01*
X71899Y-48125D01*
X71970Y-48155D01*
X72160Y-48192D01*
X72161Y-48193D01*
X72238Y-48193D01*
X72429Y-48155D01*
X72500Y-48125D01*
X72501Y-48125D01*
X72662Y-48017D01*
X72717Y-47963D01*
X72717Y-47962D01*
X72825Y-47801D01*
X72825Y-47800D01*
X72855Y-47729D01*
X72892Y-47538D01*
X72892Y-47538D01*
X72892Y-47538D01*
X72892Y-47538D01*
X72892Y-47500D01*
X72892Y-47461D01*
X72892Y-47461D01*
X72892Y-47461D01*
X72892Y-47461D01*
X72855Y-47270D01*
X72825Y-47199D01*
X72825Y-47198D01*
X72717Y-47037D01*
X72717Y-47036D01*
X72702Y-47021D01*
X73041Y-47021D01*
X73033Y-47030D01*
X73007Y-47091D01*
X73007Y-47248D01*
X73049Y-47290D01*
X73440Y-47290D01*
X73440Y-47282D01*
X73459Y-47282D01*
X73459Y-47290D01*
X73467Y-47290D01*
X73467Y-47309D01*
X73459Y-47309D01*
X73459Y-47600D01*
X73501Y-47642D01*
X73691Y-47642D01*
X73758Y-47642D01*
X73819Y-47616D01*
X73853Y-47583D01*
X73858Y-47594D01*
X73905Y-47641D01*
X73966Y-47667D01*
X74033Y-47667D01*
X74223Y-47667D01*
X74265Y-47625D01*
X74265Y-47334D01*
X74257Y-47334D01*
X74257Y-47315D01*
X74265Y-47315D01*
X74265Y-47307D01*
X74284Y-47307D01*
X74284Y-47315D01*
X74292Y-47315D01*
X74292Y-47334D01*
X74284Y-47334D01*
X74284Y-47625D01*
X74326Y-47667D01*
X74516Y-47667D01*
X74583Y-47667D01*
X74643Y-47642D01*
X74659Y-47680D01*
X74706Y-47727D01*
X74709Y-47729D01*
G54D10*
G36*
X79028Y-47231D02*
X79025Y-47224D01*
X78900Y-47100D01*
X78738Y-47032D01*
X78562Y-47032D01*
X78399Y-47099D01*
X78275Y-47224D01*
X78207Y-47386D01*
X78207Y-47562D01*
X78274Y-47725D01*
X78399Y-47849D01*
X78432Y-47863D01*
X78432Y-48182D01*
X78291Y-48182D01*
X78242Y-48203D01*
X78242Y-47825D01*
X78242Y-47824D01*
X78225Y-47741D01*
X78225Y-47741D01*
X78178Y-47671D01*
X78178Y-47671D01*
X78092Y-47585D01*
X78092Y-47166D01*
X78066Y-47105D01*
X78019Y-47058D01*
X77958Y-47032D01*
X77891Y-47032D01*
X77341Y-47032D01*
X77280Y-47058D01*
X77233Y-47105D01*
X77207Y-47166D01*
X77207Y-47233D01*
X77207Y-47783D01*
X77233Y-47844D01*
X77280Y-47891D01*
X77341Y-47917D01*
X77408Y-47917D01*
X77807Y-47917D01*
X77807Y-48359D01*
X77785Y-48382D01*
X77441Y-48382D01*
X77380Y-48408D01*
X77333Y-48455D01*
X77307Y-48516D01*
X77307Y-48583D01*
X77307Y-48857D01*
X76599Y-48857D01*
X76994Y-48462D01*
X77044Y-48441D01*
X77091Y-48394D01*
X77117Y-48333D01*
X77117Y-48266D01*
X77117Y-47916D01*
X77117Y-47583D01*
X77117Y-47166D01*
X77091Y-47105D01*
X77044Y-47058D01*
X76983Y-47032D01*
X76916Y-47032D01*
X76726Y-47032D01*
X76684Y-47074D01*
X76684Y-47365D01*
X77075Y-47365D01*
X77117Y-47323D01*
X77117Y-47166D01*
X77117Y-47583D01*
X77117Y-47426D01*
X77075Y-47384D01*
X76684Y-47384D01*
X76684Y-47675D01*
X76726Y-47717D01*
X76916Y-47717D01*
X76983Y-47717D01*
X77044Y-47691D01*
X77091Y-47644D01*
X77117Y-47583D01*
X77117Y-47916D01*
X77091Y-47855D01*
X77044Y-47808D01*
X76983Y-47782D01*
X76916Y-47782D01*
X76366Y-47782D01*
X76305Y-47808D01*
X76258Y-47855D01*
X76232Y-47916D01*
X76232Y-47983D01*
X76232Y-48333D01*
X76258Y-48394D01*
X76305Y-48441D01*
X76366Y-48467D01*
X76375Y-48467D01*
X76109Y-48732D01*
X76037Y-48732D01*
X75995Y-48690D01*
X75933Y-48664D01*
X75867Y-48664D01*
X75316Y-48664D01*
X75254Y-48690D01*
X75207Y-48737D01*
X75182Y-48798D01*
X75182Y-48865D01*
X75182Y-49101D01*
X75207Y-49162D01*
X75244Y-49200D01*
X75207Y-49237D01*
X75197Y-49262D01*
X75197Y-49262D01*
X75146Y-49296D01*
X74946Y-49496D01*
X74899Y-49566D01*
X74882Y-49650D01*
X74882Y-50675D01*
X74899Y-50758D01*
X74946Y-50828D01*
X75045Y-50928D01*
X74154Y-50928D01*
X74278Y-50803D01*
X74325Y-50733D01*
X74325Y-50733D01*
X74342Y-50650D01*
X74342Y-49175D01*
X74325Y-49091D01*
X74325Y-49091D01*
X74278Y-49021D01*
X74053Y-48796D01*
X73983Y-48749D01*
X73944Y-48741D01*
X73942Y-48737D01*
X73895Y-48690D01*
X73833Y-48664D01*
X73767Y-48664D01*
X73216Y-48664D01*
X73154Y-48690D01*
X73107Y-48737D01*
X73082Y-48798D01*
X73082Y-48865D01*
X73082Y-49101D01*
X73107Y-49162D01*
X73144Y-49200D01*
X73107Y-49237D01*
X73082Y-49298D01*
X73082Y-49398D01*
X73124Y-49440D01*
X73515Y-49440D01*
X73515Y-49432D01*
X73534Y-49432D01*
X73534Y-49440D01*
X73542Y-49440D01*
X73542Y-49459D01*
X73534Y-49459D01*
X73534Y-49467D01*
X73515Y-49467D01*
X73515Y-49459D01*
X73124Y-49459D01*
X73082Y-49501D01*
X73082Y-49601D01*
X73107Y-49662D01*
X73144Y-49700D01*
X73112Y-49732D01*
X72990Y-49732D01*
X72792Y-49534D01*
X72792Y-49340D01*
X72928Y-49203D01*
X72975Y-49133D01*
X72975Y-49133D01*
X72992Y-49050D01*
X72992Y-48717D01*
X73000Y-48717D01*
X73083Y-48700D01*
X73083Y-48700D01*
X73153Y-48653D01*
X73414Y-48392D01*
X73758Y-48392D01*
X73819Y-48366D01*
X73853Y-48333D01*
X73858Y-48344D01*
X73905Y-48391D01*
X73966Y-48417D01*
X74033Y-48417D01*
X74583Y-48417D01*
X74644Y-48391D01*
X74682Y-48354D01*
X74682Y-48408D01*
X74708Y-48469D01*
X74755Y-48516D01*
X74816Y-48542D01*
X74883Y-48542D01*
X75233Y-48542D01*
X75294Y-48516D01*
X75341Y-48469D01*
X75367Y-48408D01*
X75367Y-48341D01*
X75367Y-47791D01*
X75344Y-47737D01*
X75367Y-47727D01*
X75414Y-47680D01*
X75440Y-47619D01*
X75440Y-47552D01*
X75440Y-47401D01*
X75398Y-47359D01*
X75046Y-47359D01*
X75046Y-47367D01*
X75027Y-47367D01*
X75027Y-47359D01*
X75019Y-47359D01*
X75019Y-47340D01*
X75027Y-47340D01*
X75027Y-47332D01*
X75046Y-47332D01*
X75046Y-47340D01*
X75398Y-47340D01*
X75440Y-47298D01*
X75440Y-47147D01*
X75440Y-47080D01*
X75415Y-47021D01*
X75484Y-47021D01*
X75459Y-47080D01*
X75459Y-47147D01*
X75459Y-47619D01*
X75485Y-47680D01*
X75496Y-47692D01*
X75458Y-47730D01*
X75432Y-47791D01*
X75432Y-47858D01*
X75432Y-48408D01*
X75458Y-48469D01*
X75505Y-48516D01*
X75566Y-48542D01*
X75633Y-48542D01*
X75983Y-48542D01*
X76044Y-48516D01*
X76091Y-48469D01*
X76117Y-48408D01*
X76117Y-48341D01*
X76117Y-47791D01*
X76101Y-47753D01*
X76132Y-47753D01*
X76193Y-47727D01*
X76240Y-47680D01*
X76256Y-47641D01*
X76258Y-47644D01*
X76305Y-47691D01*
X76366Y-47717D01*
X76433Y-47717D01*
X76623Y-47717D01*
X76665Y-47675D01*
X76665Y-47384D01*
X76657Y-47384D01*
X76657Y-47365D01*
X76665Y-47365D01*
X76665Y-47074D01*
X76623Y-47032D01*
X76433Y-47032D01*
X76366Y-47032D01*
X76305Y-47058D01*
X76266Y-47097D01*
X76266Y-47080D01*
X76241Y-47021D01*
X79028Y-47021D01*
X79028Y-47231D01*
X79028Y-47231D01*
G37*
G54D21*
X79028Y-47231D02*
X79025Y-47224D01*
X78900Y-47100D01*
X78738Y-47032D01*
X78562Y-47032D01*
X78399Y-47099D01*
X78275Y-47224D01*
X78207Y-47386D01*
X78207Y-47562D01*
X78274Y-47725D01*
X78399Y-47849D01*
X78432Y-47863D01*
X78432Y-48182D01*
X78291Y-48182D01*
X78242Y-48203D01*
X78242Y-47825D01*
X78242Y-47824D01*
X78225Y-47741D01*
X78225Y-47741D01*
X78178Y-47671D01*
X78178Y-47671D01*
X78092Y-47585D01*
X78092Y-47166D01*
X78066Y-47105D01*
X78019Y-47058D01*
X77958Y-47032D01*
X77891Y-47032D01*
X77341Y-47032D01*
X77280Y-47058D01*
X77233Y-47105D01*
X77207Y-47166D01*
X77207Y-47233D01*
X77207Y-47783D01*
X77233Y-47844D01*
X77280Y-47891D01*
X77341Y-47917D01*
X77408Y-47917D01*
X77807Y-47917D01*
X77807Y-48359D01*
X77785Y-48382D01*
X77441Y-48382D01*
X77380Y-48408D01*
X77333Y-48455D01*
X77307Y-48516D01*
X77307Y-48583D01*
X77307Y-48857D01*
X76599Y-48857D01*
X76994Y-48462D01*
X77044Y-48441D01*
X77091Y-48394D01*
X77117Y-48333D01*
X77117Y-48266D01*
X77117Y-47916D01*
X77117Y-47583D01*
X77117Y-47166D01*
X77091Y-47105D01*
X77044Y-47058D01*
X76983Y-47032D01*
X76916Y-47032D01*
X76726Y-47032D01*
X76684Y-47074D01*
X76684Y-47365D01*
X77075Y-47365D01*
X77117Y-47323D01*
X77117Y-47166D01*
X77117Y-47583D01*
X77117Y-47426D01*
X77075Y-47384D01*
X76684Y-47384D01*
X76684Y-47675D01*
X76726Y-47717D01*
X76916Y-47717D01*
X76983Y-47717D01*
X77044Y-47691D01*
X77091Y-47644D01*
X77117Y-47583D01*
X77117Y-47916D01*
X77091Y-47855D01*
X77044Y-47808D01*
X76983Y-47782D01*
X76916Y-47782D01*
X76366Y-47782D01*
X76305Y-47808D01*
X76258Y-47855D01*
X76232Y-47916D01*
X76232Y-47983D01*
X76232Y-48333D01*
X76258Y-48394D01*
X76305Y-48441D01*
X76366Y-48467D01*
X76375Y-48467D01*
X76109Y-48732D01*
X76037Y-48732D01*
X75995Y-48690D01*
X75933Y-48664D01*
X75867Y-48664D01*
X75316Y-48664D01*
X75254Y-48690D01*
X75207Y-48737D01*
X75182Y-48798D01*
X75182Y-48865D01*
X75182Y-49101D01*
X75207Y-49162D01*
X75244Y-49200D01*
X75207Y-49237D01*
X75197Y-49262D01*
X75197Y-49262D01*
X75146Y-49296D01*
X74946Y-49496D01*
X74899Y-49566D01*
X74882Y-49650D01*
X74882Y-50675D01*
X74899Y-50758D01*
X74946Y-50828D01*
X75045Y-50928D01*
X74154Y-50928D01*
X74278Y-50803D01*
X74325Y-50733D01*
X74325Y-50733D01*
X74342Y-50650D01*
X74342Y-49175D01*
X74325Y-49091D01*
X74325Y-49091D01*
X74278Y-49021D01*
X74053Y-48796D01*
X73983Y-48749D01*
X73944Y-48741D01*
X73942Y-48737D01*
X73895Y-48690D01*
X73833Y-48664D01*
X73767Y-48664D01*
X73216Y-48664D01*
X73154Y-48690D01*
X73107Y-48737D01*
X73082Y-48798D01*
X73082Y-48865D01*
X73082Y-49101D01*
X73107Y-49162D01*
X73144Y-49200D01*
X73107Y-49237D01*
X73082Y-49298D01*
X73082Y-49398D01*
X73124Y-49440D01*
X73515Y-49440D01*
X73515Y-49432D01*
X73534Y-49432D01*
X73534Y-49440D01*
X73542Y-49440D01*
X73542Y-49459D01*
X73534Y-49459D01*
X73534Y-49467D01*
X73515Y-49467D01*
X73515Y-49459D01*
X73124Y-49459D01*
X73082Y-49501D01*
X73082Y-49601D01*
X73107Y-49662D01*
X73144Y-49700D01*
X73112Y-49732D01*
X72990Y-49732D01*
X72792Y-49534D01*
X72792Y-49340D01*
X72928Y-49203D01*
X72975Y-49133D01*
X72975Y-49133D01*
X72992Y-49050D01*
X72992Y-48717D01*
X73000Y-48717D01*
X73083Y-48700D01*
X73083Y-48700D01*
X73153Y-48653D01*
X73414Y-48392D01*
X73758Y-48392D01*
X73819Y-48366D01*
X73853Y-48333D01*
X73858Y-48344D01*
X73905Y-48391D01*
X73966Y-48417D01*
X74033Y-48417D01*
X74583Y-48417D01*
X74644Y-48391D01*
X74682Y-48354D01*
X74682Y-48408D01*
X74708Y-48469D01*
X74755Y-48516D01*
X74816Y-48542D01*
X74883Y-48542D01*
X75233Y-48542D01*
X75294Y-48516D01*
X75341Y-48469D01*
X75367Y-48408D01*
X75367Y-48341D01*
X75367Y-47791D01*
X75344Y-47737D01*
X75367Y-47727D01*
X75414Y-47680D01*
X75440Y-47619D01*
X75440Y-47552D01*
X75440Y-47401D01*
X75398Y-47359D01*
X75046Y-47359D01*
X75046Y-47367D01*
X75027Y-47367D01*
X75027Y-47359D01*
X75019Y-47359D01*
X75019Y-47340D01*
X75027Y-47340D01*
X75027Y-47332D01*
X75046Y-47332D01*
X75046Y-47340D01*
X75398Y-47340D01*
X75440Y-47298D01*
X75440Y-47147D01*
X75440Y-47080D01*
X75415Y-47021D01*
X75484Y-47021D01*
X75459Y-47080D01*
X75459Y-47147D01*
X75459Y-47619D01*
X75485Y-47680D01*
X75496Y-47692D01*
X75458Y-47730D01*
X75432Y-47791D01*
X75432Y-47858D01*
X75432Y-48408D01*
X75458Y-48469D01*
X75505Y-48516D01*
X75566Y-48542D01*
X75633Y-48542D01*
X75983Y-48542D01*
X76044Y-48516D01*
X76091Y-48469D01*
X76117Y-48408D01*
X76117Y-48341D01*
X76117Y-47791D01*
X76101Y-47753D01*
X76132Y-47753D01*
X76193Y-47727D01*
X76240Y-47680D01*
X76256Y-47641D01*
X76258Y-47644D01*
X76305Y-47691D01*
X76366Y-47717D01*
X76433Y-47717D01*
X76623Y-47717D01*
X76665Y-47675D01*
X76665Y-47384D01*
X76657Y-47384D01*
X76657Y-47365D01*
X76665Y-47365D01*
X76665Y-47074D01*
X76623Y-47032D01*
X76433Y-47032D01*
X76366Y-47032D01*
X76305Y-47058D01*
X76266Y-47097D01*
X76266Y-47080D01*
X76241Y-47021D01*
X79028Y-47021D01*
X79028Y-47231D01*
G54D10*
G36*
X79028Y-50928D02*
X77627Y-50928D01*
X77642Y-50913D01*
X77642Y-50912D01*
X77750Y-50751D01*
X77750Y-50750D01*
X77780Y-50679D01*
X77817Y-50488D01*
X77817Y-50488D01*
X77817Y-50488D01*
X77817Y-50488D01*
X77817Y-50450D01*
X77817Y-50411D01*
X77817Y-50411D01*
X77817Y-50411D01*
X77817Y-50411D01*
X77780Y-50220D01*
X77750Y-50149D01*
X77750Y-50148D01*
X77642Y-49987D01*
X77642Y-49986D01*
X77587Y-49932D01*
X77426Y-49824D01*
X77425Y-49824D01*
X77354Y-49794D01*
X77163Y-49756D01*
X77086Y-49756D01*
X77085Y-49757D01*
X76895Y-49794D01*
X76824Y-49824D01*
X76823Y-49824D01*
X76662Y-49932D01*
X76661Y-49932D01*
X76607Y-49987D01*
X76499Y-50148D01*
X76499Y-50149D01*
X76469Y-50220D01*
X76431Y-50411D01*
X76431Y-50450D01*
X76431Y-50488D01*
X76469Y-50679D01*
X76499Y-50750D01*
X76499Y-50751D01*
X76607Y-50912D01*
X76622Y-50928D01*
X76204Y-50928D01*
X76303Y-50828D01*
X76303Y-50828D01*
X76303Y-50828D01*
X76350Y-50758D01*
X76350Y-50758D01*
X76364Y-50691D01*
X76367Y-50675D01*
X76367Y-50675D01*
X76367Y-50675D01*
X76367Y-50090D01*
X76478Y-49978D01*
X76478Y-49978D01*
X76478Y-49978D01*
X76525Y-49908D01*
X76525Y-49908D01*
X76542Y-49825D01*
X76542Y-49825D01*
X76542Y-49495D01*
X76565Y-49472D01*
X77307Y-49472D01*
X77307Y-49683D01*
X77333Y-49744D01*
X77380Y-49791D01*
X77441Y-49817D01*
X77508Y-49817D01*
X78058Y-49817D01*
X78119Y-49791D01*
X78160Y-49750D01*
X78228Y-49914D01*
X78359Y-50045D01*
X78531Y-50117D01*
X78717Y-50117D01*
X78889Y-50046D01*
X79020Y-49915D01*
X79028Y-49897D01*
X79028Y-50928D01*
X79028Y-50928D01*
G37*
G54D21*
X79028Y-50928D02*
X77627Y-50928D01*
X77642Y-50913D01*
X77642Y-50912D01*
X77750Y-50751D01*
X77750Y-50750D01*
X77780Y-50679D01*
X77817Y-50488D01*
X77817Y-50488D01*
X77817Y-50488D01*
X77817Y-50488D01*
X77817Y-50450D01*
X77817Y-50411D01*
X77817Y-50411D01*
X77817Y-50411D01*
X77817Y-50411D01*
X77780Y-50220D01*
X77750Y-50149D01*
X77750Y-50148D01*
X77642Y-49987D01*
X77642Y-49986D01*
X77587Y-49932D01*
X77426Y-49824D01*
X77425Y-49824D01*
X77354Y-49794D01*
X77163Y-49756D01*
X77086Y-49756D01*
X77085Y-49757D01*
X76895Y-49794D01*
X76824Y-49824D01*
X76823Y-49824D01*
X76662Y-49932D01*
X76661Y-49932D01*
X76607Y-49987D01*
X76499Y-50148D01*
X76499Y-50149D01*
X76469Y-50220D01*
X76431Y-50411D01*
X76431Y-50450D01*
X76431Y-50488D01*
X76469Y-50679D01*
X76499Y-50750D01*
X76499Y-50751D01*
X76607Y-50912D01*
X76622Y-50928D01*
X76204Y-50928D01*
X76303Y-50828D01*
X76303Y-50828D01*
X76303Y-50828D01*
X76350Y-50758D01*
X76350Y-50758D01*
X76364Y-50691D01*
X76367Y-50675D01*
X76367Y-50675D01*
X76367Y-50675D01*
X76367Y-50090D01*
X76478Y-49978D01*
X76478Y-49978D01*
X76478Y-49978D01*
X76525Y-49908D01*
X76525Y-49908D01*
X76542Y-49825D01*
X76542Y-49825D01*
X76542Y-49495D01*
X76565Y-49472D01*
X77307Y-49472D01*
X77307Y-49683D01*
X77333Y-49744D01*
X77380Y-49791D01*
X77441Y-49817D01*
X77508Y-49817D01*
X78058Y-49817D01*
X78119Y-49791D01*
X78160Y-49750D01*
X78228Y-49914D01*
X78359Y-50045D01*
X78531Y-50117D01*
X78717Y-50117D01*
X78889Y-50046D01*
X79020Y-49915D01*
X79028Y-49897D01*
X79028Y-50928D01*
M02*
