G04 (created by PCBNEW (2013-07-07 BZR 4022)-stable) date 1/6/2014 9:11:52 PM*
%MOIN*%
G04 Gerber Fmt 3.4, Leading zero omitted, Abs format*
%FSLAX34Y34*%
G01*
G70*
G90*
G04 APERTURE LIST*
%ADD10C,0.00590551*%
%ADD11R,0.055X0.035*%
%ADD12R,0.0472X0.0472*%
%ADD13R,0.035X0.055*%
%ADD14R,0.06X0.06*%
%ADD15C,0.06*%
%ADD16R,0.0551X0.0236*%
%ADD17C,0.035*%
%ADD18C,0.01*%
%ADD19C,0.00984252*%
G04 APERTURE END LIST*
G54D10*
G54D11*
X74275Y-47325D03*
X74275Y-48075D03*
X73450Y-48050D03*
X73450Y-47300D03*
G54D12*
X75863Y-47350D03*
X75037Y-47350D03*
G54D13*
X75775Y-48100D03*
X75025Y-48100D03*
G54D11*
X76875Y-48125D03*
X76875Y-47375D03*
G54D14*
X70750Y-47475D03*
G54D15*
X70750Y-48475D03*
X70750Y-49475D03*
X70750Y-50475D03*
G54D14*
X78625Y-48650D03*
G54D15*
X78625Y-49650D03*
G54D16*
X75625Y-48950D03*
X73525Y-48950D03*
X75625Y-49450D03*
X75625Y-49950D03*
X75625Y-50450D03*
X73525Y-49450D03*
X73525Y-49950D03*
X73525Y-50450D03*
G54D17*
X77100Y-49450D03*
X77725Y-47400D03*
X71900Y-50475D03*
X72900Y-49450D03*
X72250Y-48900D03*
X72825Y-48100D03*
G54D18*
X73525Y-49950D02*
X72900Y-49950D01*
X72775Y-49050D02*
X72775Y-48500D01*
X72575Y-49250D02*
X72775Y-49050D01*
X72575Y-49625D02*
X72575Y-49250D01*
X72900Y-49950D02*
X72575Y-49625D01*
X70750Y-47475D02*
X70750Y-47625D01*
X73000Y-48500D02*
X73450Y-48050D01*
X71625Y-48500D02*
X72775Y-48500D01*
X72775Y-48500D02*
X73000Y-48500D01*
X70750Y-47625D02*
X71625Y-48500D01*
X74275Y-48075D02*
X73475Y-48075D01*
X73475Y-48075D02*
X73450Y-48050D01*
X75025Y-48100D02*
X74300Y-48100D01*
X74300Y-48100D02*
X74275Y-48075D01*
X75625Y-49450D02*
X75300Y-49450D01*
X77875Y-48900D02*
X78625Y-49650D01*
X76825Y-48900D02*
X77875Y-48900D01*
X76325Y-49400D02*
X76825Y-48900D01*
X76325Y-49825D02*
X76325Y-49400D01*
X76150Y-50000D02*
X76325Y-49825D01*
X76150Y-50675D02*
X76150Y-50000D01*
X76025Y-50800D02*
X76150Y-50675D01*
X75225Y-50800D02*
X76025Y-50800D01*
X75100Y-50675D02*
X75225Y-50800D01*
X75100Y-49650D02*
X75100Y-50675D01*
X75300Y-49450D02*
X75100Y-49650D01*
X75625Y-49950D02*
X75925Y-49950D01*
X76754Y-48650D02*
X78625Y-48650D01*
X76125Y-49279D02*
X76754Y-48650D01*
X76125Y-49750D02*
X76125Y-49279D01*
X75925Y-49950D02*
X76125Y-49750D01*
X70750Y-49475D02*
X72125Y-49475D01*
X73100Y-50450D02*
X73525Y-50450D01*
X72125Y-49475D02*
X73100Y-50450D01*
X73525Y-48950D02*
X73900Y-48950D01*
X71525Y-49700D02*
X70750Y-50475D01*
X72025Y-49700D02*
X71525Y-49700D01*
X73125Y-50800D02*
X72025Y-49700D01*
X73975Y-50800D02*
X73125Y-50800D01*
X74125Y-50650D02*
X73975Y-50800D01*
X74125Y-49175D02*
X74125Y-50650D01*
X73900Y-48950D02*
X74125Y-49175D01*
X76875Y-47375D02*
X77700Y-47375D01*
X77700Y-47375D02*
X77725Y-47400D01*
X73525Y-49450D02*
X72900Y-49450D01*
X70750Y-48475D02*
X70925Y-48475D01*
X70925Y-48475D02*
X71350Y-48900D01*
X71350Y-48900D02*
X72250Y-48900D01*
X73525Y-49450D02*
X73325Y-49450D01*
X72250Y-49050D02*
X72250Y-48900D01*
X73475Y-47300D02*
X73450Y-47300D01*
X73075Y-47700D02*
X73475Y-47300D01*
X73025Y-47700D02*
X73075Y-47700D01*
X73025Y-47900D02*
X73025Y-47700D01*
X72825Y-48100D02*
X73025Y-47900D01*
X73450Y-47300D02*
X74225Y-47300D01*
X74225Y-47300D02*
X74275Y-47350D01*
X74275Y-47350D02*
X74275Y-47325D01*
X74275Y-47325D02*
X74275Y-47350D01*
X74275Y-47350D02*
X75037Y-47350D01*
X75775Y-48100D02*
X75775Y-47438D01*
X75775Y-47438D02*
X75863Y-47350D01*
X75625Y-48950D02*
X76200Y-48950D01*
X76875Y-48275D02*
X76875Y-48125D01*
X76200Y-48950D02*
X76875Y-48275D01*
X76675Y-48150D02*
X76650Y-48150D01*
G54D10*
G36*
X72557Y-48959D02*
X72421Y-49096D01*
X72374Y-49166D01*
X72357Y-49250D01*
X72357Y-49400D01*
X72278Y-49321D01*
X72208Y-49274D01*
X72125Y-49257D01*
X71165Y-49257D01*
X71146Y-49210D01*
X71050Y-49114D01*
X71050Y-48789D01*
X70750Y-48488D01*
X70736Y-48502D01*
X70736Y-48475D01*
X70435Y-48174D01*
X70358Y-48202D01*
X70284Y-48373D01*
X70281Y-48559D01*
X70348Y-48732D01*
X70358Y-48747D01*
X70435Y-48775D01*
X70736Y-48475D01*
X70736Y-48502D01*
X70449Y-48789D01*
X70477Y-48866D01*
X70648Y-48940D01*
X70834Y-48943D01*
X71007Y-48876D01*
X71022Y-48866D01*
X71050Y-48789D01*
X71050Y-49114D01*
X71015Y-49079D01*
X70843Y-49007D01*
X70657Y-49007D01*
X70485Y-49078D01*
X70354Y-49209D01*
X70282Y-49381D01*
X70282Y-49567D01*
X70353Y-49739D01*
X70484Y-49870D01*
X70656Y-49942D01*
X70842Y-49942D01*
X71014Y-49871D01*
X71145Y-49740D01*
X71165Y-49692D01*
X71225Y-49692D01*
X70890Y-50027D01*
X70843Y-50007D01*
X70657Y-50007D01*
X70485Y-50078D01*
X70354Y-50209D01*
X70282Y-50381D01*
X70282Y-50567D01*
X70353Y-50739D01*
X70484Y-50870D01*
X70622Y-50928D01*
X70246Y-50928D01*
X70246Y-47021D01*
X70382Y-47021D01*
X70355Y-47033D01*
X70308Y-47080D01*
X70282Y-47141D01*
X70282Y-47208D01*
X70282Y-47808D01*
X70308Y-47869D01*
X70355Y-47916D01*
X70416Y-47942D01*
X70483Y-47942D01*
X70759Y-47942D01*
X70826Y-48009D01*
X70665Y-48006D01*
X70492Y-48073D01*
X70477Y-48083D01*
X70449Y-48160D01*
X70750Y-48461D01*
X70755Y-48455D01*
X70769Y-48469D01*
X70763Y-48475D01*
X71064Y-48775D01*
X71141Y-48747D01*
X71215Y-48576D01*
X71218Y-48401D01*
X71471Y-48653D01*
X71541Y-48700D01*
X71541Y-48700D01*
X71625Y-48717D01*
X72557Y-48717D01*
X72557Y-48959D01*
X72557Y-48959D01*
G37*
G54D19*
X72557Y-48959D02*
X72421Y-49096D01*
X72374Y-49166D01*
X72357Y-49250D01*
X72357Y-49400D01*
X72278Y-49321D01*
X72208Y-49274D01*
X72125Y-49257D01*
X71165Y-49257D01*
X71146Y-49210D01*
X71050Y-49114D01*
X71050Y-48789D01*
X70750Y-48488D01*
X70736Y-48502D01*
X70736Y-48475D01*
X70435Y-48174D01*
X70358Y-48202D01*
X70284Y-48373D01*
X70281Y-48559D01*
X70348Y-48732D01*
X70358Y-48747D01*
X70435Y-48775D01*
X70736Y-48475D01*
X70736Y-48502D01*
X70449Y-48789D01*
X70477Y-48866D01*
X70648Y-48940D01*
X70834Y-48943D01*
X71007Y-48876D01*
X71022Y-48866D01*
X71050Y-48789D01*
X71050Y-49114D01*
X71015Y-49079D01*
X70843Y-49007D01*
X70657Y-49007D01*
X70485Y-49078D01*
X70354Y-49209D01*
X70282Y-49381D01*
X70282Y-49567D01*
X70353Y-49739D01*
X70484Y-49870D01*
X70656Y-49942D01*
X70842Y-49942D01*
X71014Y-49871D01*
X71145Y-49740D01*
X71165Y-49692D01*
X71225Y-49692D01*
X70890Y-50027D01*
X70843Y-50007D01*
X70657Y-50007D01*
X70485Y-50078D01*
X70354Y-50209D01*
X70282Y-50381D01*
X70282Y-50567D01*
X70353Y-50739D01*
X70484Y-50870D01*
X70622Y-50928D01*
X70246Y-50928D01*
X70246Y-47021D01*
X70382Y-47021D01*
X70355Y-47033D01*
X70308Y-47080D01*
X70282Y-47141D01*
X70282Y-47208D01*
X70282Y-47808D01*
X70308Y-47869D01*
X70355Y-47916D01*
X70416Y-47942D01*
X70483Y-47942D01*
X70759Y-47942D01*
X70826Y-48009D01*
X70665Y-48006D01*
X70492Y-48073D01*
X70477Y-48083D01*
X70449Y-48160D01*
X70750Y-48461D01*
X70755Y-48455D01*
X70769Y-48469D01*
X70763Y-48475D01*
X71064Y-48775D01*
X71141Y-48747D01*
X71215Y-48576D01*
X71218Y-48401D01*
X71471Y-48653D01*
X71541Y-48700D01*
X71541Y-48700D01*
X71625Y-48717D01*
X72557Y-48717D01*
X72557Y-48959D01*
G54D10*
G36*
X72945Y-50928D02*
X70877Y-50928D01*
X71014Y-50871D01*
X71145Y-50740D01*
X71217Y-50568D01*
X71217Y-50382D01*
X71197Y-50334D01*
X71615Y-49917D01*
X71934Y-49917D01*
X72945Y-50928D01*
X72945Y-50928D01*
G37*
G54D19*
X72945Y-50928D02*
X70877Y-50928D01*
X71014Y-50871D01*
X71145Y-50740D01*
X71217Y-50568D01*
X71217Y-50382D01*
X71197Y-50334D01*
X71615Y-49917D01*
X71934Y-49917D01*
X72945Y-50928D01*
G54D10*
G36*
X74709Y-47729D02*
X74708Y-47730D01*
X74682Y-47791D01*
X74682Y-47796D01*
X74644Y-47758D01*
X74583Y-47732D01*
X74516Y-47732D01*
X74265Y-47732D01*
X73966Y-47732D01*
X73905Y-47758D01*
X73871Y-47791D01*
X73866Y-47780D01*
X73819Y-47733D01*
X73758Y-47707D01*
X73691Y-47707D01*
X73440Y-47707D01*
X73440Y-47600D01*
X73440Y-47309D01*
X73049Y-47309D01*
X73007Y-47351D01*
X73007Y-47508D01*
X73033Y-47569D01*
X73080Y-47616D01*
X73141Y-47642D01*
X73208Y-47642D01*
X73398Y-47642D01*
X73440Y-47600D01*
X73440Y-47707D01*
X73141Y-47707D01*
X73080Y-47733D01*
X73033Y-47780D01*
X73007Y-47841D01*
X73007Y-47908D01*
X73007Y-48184D01*
X72909Y-48282D01*
X72775Y-48282D01*
X71715Y-48282D01*
X71217Y-47784D01*
X71217Y-47741D01*
X71217Y-47141D01*
X71191Y-47080D01*
X71144Y-47033D01*
X71117Y-47021D01*
X71697Y-47021D01*
X71556Y-47233D01*
X71503Y-47500D01*
X71556Y-47766D01*
X71707Y-47992D01*
X71933Y-48143D01*
X72200Y-48196D01*
X72466Y-48143D01*
X72692Y-47992D01*
X72843Y-47766D01*
X72896Y-47500D01*
X72843Y-47233D01*
X72702Y-47021D01*
X73041Y-47021D01*
X73033Y-47030D01*
X73007Y-47091D01*
X73007Y-47248D01*
X73049Y-47290D01*
X73440Y-47290D01*
X73440Y-47282D01*
X73459Y-47282D01*
X73459Y-47290D01*
X73467Y-47290D01*
X73467Y-47309D01*
X73459Y-47309D01*
X73459Y-47600D01*
X73501Y-47642D01*
X73691Y-47642D01*
X73758Y-47642D01*
X73819Y-47616D01*
X73853Y-47583D01*
X73858Y-47594D01*
X73905Y-47641D01*
X73966Y-47667D01*
X74033Y-47667D01*
X74223Y-47667D01*
X74265Y-47625D01*
X74265Y-47334D01*
X74257Y-47334D01*
X74257Y-47315D01*
X74265Y-47315D01*
X74265Y-47307D01*
X74284Y-47307D01*
X74284Y-47315D01*
X74292Y-47315D01*
X74292Y-47334D01*
X74284Y-47334D01*
X74284Y-47625D01*
X74326Y-47667D01*
X74516Y-47667D01*
X74583Y-47667D01*
X74643Y-47642D01*
X74659Y-47680D01*
X74706Y-47727D01*
X74709Y-47729D01*
X74709Y-47729D01*
G37*
G54D19*
X74709Y-47729D02*
X74708Y-47730D01*
X74682Y-47791D01*
X74682Y-47796D01*
X74644Y-47758D01*
X74583Y-47732D01*
X74516Y-47732D01*
X74265Y-47732D01*
X73966Y-47732D01*
X73905Y-47758D01*
X73871Y-47791D01*
X73866Y-47780D01*
X73819Y-47733D01*
X73758Y-47707D01*
X73691Y-47707D01*
X73440Y-47707D01*
X73440Y-47600D01*
X73440Y-47309D01*
X73049Y-47309D01*
X73007Y-47351D01*
X73007Y-47508D01*
X73033Y-47569D01*
X73080Y-47616D01*
X73141Y-47642D01*
X73208Y-47642D01*
X73398Y-47642D01*
X73440Y-47600D01*
X73440Y-47707D01*
X73141Y-47707D01*
X73080Y-47733D01*
X73033Y-47780D01*
X73007Y-47841D01*
X73007Y-47908D01*
X73007Y-48184D01*
X72909Y-48282D01*
X72775Y-48282D01*
X71715Y-48282D01*
X71217Y-47784D01*
X71217Y-47741D01*
X71217Y-47141D01*
X71191Y-47080D01*
X71144Y-47033D01*
X71117Y-47021D01*
X71697Y-47021D01*
X71556Y-47233D01*
X71503Y-47500D01*
X71556Y-47766D01*
X71707Y-47992D01*
X71933Y-48143D01*
X72200Y-48196D01*
X72466Y-48143D01*
X72692Y-47992D01*
X72843Y-47766D01*
X72896Y-47500D01*
X72843Y-47233D01*
X72702Y-47021D01*
X73041Y-47021D01*
X73033Y-47030D01*
X73007Y-47091D01*
X73007Y-47248D01*
X73049Y-47290D01*
X73440Y-47290D01*
X73440Y-47282D01*
X73459Y-47282D01*
X73459Y-47290D01*
X73467Y-47290D01*
X73467Y-47309D01*
X73459Y-47309D01*
X73459Y-47600D01*
X73501Y-47642D01*
X73691Y-47642D01*
X73758Y-47642D01*
X73819Y-47616D01*
X73853Y-47583D01*
X73858Y-47594D01*
X73905Y-47641D01*
X73966Y-47667D01*
X74033Y-47667D01*
X74223Y-47667D01*
X74265Y-47625D01*
X74265Y-47334D01*
X74257Y-47334D01*
X74257Y-47315D01*
X74265Y-47315D01*
X74265Y-47307D01*
X74284Y-47307D01*
X74284Y-47315D01*
X74292Y-47315D01*
X74292Y-47334D01*
X74284Y-47334D01*
X74284Y-47625D01*
X74326Y-47667D01*
X74516Y-47667D01*
X74583Y-47667D01*
X74643Y-47642D01*
X74659Y-47680D01*
X74706Y-47727D01*
X74709Y-47729D01*
G54D10*
G36*
X79028Y-48216D02*
X79019Y-48208D01*
X78958Y-48182D01*
X78891Y-48182D01*
X78291Y-48182D01*
X78230Y-48208D01*
X78183Y-48255D01*
X78157Y-48316D01*
X78157Y-48383D01*
X78157Y-48432D01*
X77253Y-48432D01*
X77291Y-48394D01*
X77317Y-48333D01*
X77317Y-48266D01*
X77317Y-47916D01*
X77317Y-47583D01*
X77317Y-47426D01*
X77317Y-47323D01*
X77317Y-47166D01*
X77291Y-47105D01*
X77244Y-47058D01*
X77183Y-47032D01*
X77116Y-47032D01*
X76926Y-47032D01*
X76884Y-47074D01*
X76884Y-47365D01*
X77275Y-47365D01*
X77317Y-47323D01*
X77317Y-47426D01*
X77275Y-47384D01*
X76884Y-47384D01*
X76884Y-47675D01*
X76926Y-47717D01*
X77116Y-47717D01*
X77183Y-47717D01*
X77244Y-47691D01*
X77291Y-47644D01*
X77317Y-47583D01*
X77317Y-47916D01*
X77291Y-47855D01*
X77244Y-47808D01*
X77183Y-47782D01*
X77116Y-47782D01*
X76865Y-47782D01*
X76865Y-47675D01*
X76865Y-47384D01*
X76865Y-47365D01*
X76865Y-47074D01*
X76823Y-47032D01*
X76633Y-47032D01*
X76566Y-47032D01*
X76505Y-47058D01*
X76458Y-47105D01*
X76432Y-47166D01*
X76432Y-47323D01*
X76474Y-47365D01*
X76865Y-47365D01*
X76865Y-47384D01*
X76474Y-47384D01*
X76432Y-47426D01*
X76432Y-47583D01*
X76458Y-47644D01*
X76505Y-47691D01*
X76566Y-47717D01*
X76633Y-47717D01*
X76823Y-47717D01*
X76865Y-47675D01*
X76865Y-47782D01*
X76566Y-47782D01*
X76505Y-47808D01*
X76458Y-47855D01*
X76432Y-47916D01*
X76432Y-47983D01*
X76432Y-48150D01*
X76432Y-48333D01*
X76455Y-48387D01*
X76109Y-48732D01*
X76037Y-48732D01*
X75995Y-48690D01*
X75933Y-48664D01*
X75867Y-48664D01*
X75316Y-48664D01*
X75254Y-48690D01*
X75207Y-48737D01*
X75182Y-48798D01*
X75182Y-48865D01*
X75182Y-49101D01*
X75207Y-49162D01*
X75244Y-49200D01*
X75207Y-49237D01*
X75197Y-49262D01*
X75197Y-49262D01*
X75146Y-49296D01*
X74946Y-49496D01*
X74899Y-49566D01*
X74882Y-49650D01*
X74882Y-50675D01*
X74899Y-50758D01*
X74946Y-50828D01*
X75045Y-50928D01*
X74154Y-50928D01*
X74278Y-50803D01*
X74325Y-50733D01*
X74325Y-50733D01*
X74342Y-50650D01*
X74342Y-49175D01*
X74325Y-49091D01*
X74325Y-49091D01*
X74278Y-49021D01*
X74053Y-48796D01*
X73983Y-48749D01*
X73944Y-48741D01*
X73942Y-48737D01*
X73895Y-48690D01*
X73833Y-48664D01*
X73767Y-48664D01*
X73216Y-48664D01*
X73154Y-48690D01*
X73107Y-48737D01*
X73082Y-48798D01*
X73082Y-48865D01*
X73082Y-49101D01*
X73107Y-49162D01*
X73144Y-49200D01*
X73107Y-49237D01*
X73082Y-49298D01*
X73082Y-49398D01*
X73124Y-49440D01*
X73515Y-49440D01*
X73515Y-49432D01*
X73534Y-49432D01*
X73534Y-49440D01*
X73542Y-49440D01*
X73542Y-49459D01*
X73534Y-49459D01*
X73534Y-49467D01*
X73515Y-49467D01*
X73515Y-49459D01*
X73124Y-49459D01*
X73082Y-49501D01*
X73082Y-49601D01*
X73107Y-49662D01*
X73144Y-49700D01*
X73112Y-49732D01*
X72990Y-49732D01*
X72792Y-49534D01*
X72792Y-49340D01*
X72928Y-49203D01*
X72975Y-49133D01*
X72975Y-49133D01*
X72992Y-49050D01*
X72992Y-48717D01*
X73000Y-48717D01*
X73083Y-48700D01*
X73083Y-48700D01*
X73153Y-48653D01*
X73415Y-48392D01*
X73758Y-48392D01*
X73819Y-48366D01*
X73853Y-48333D01*
X73858Y-48344D01*
X73905Y-48391D01*
X73966Y-48417D01*
X74033Y-48417D01*
X74583Y-48417D01*
X74644Y-48391D01*
X74682Y-48353D01*
X74682Y-48408D01*
X74708Y-48469D01*
X74755Y-48516D01*
X74816Y-48542D01*
X74883Y-48542D01*
X75233Y-48542D01*
X75294Y-48516D01*
X75341Y-48469D01*
X75367Y-48408D01*
X75367Y-48341D01*
X75367Y-47791D01*
X75344Y-47737D01*
X75367Y-47727D01*
X75414Y-47680D01*
X75440Y-47619D01*
X75440Y-47552D01*
X75440Y-47401D01*
X75398Y-47359D01*
X75046Y-47359D01*
X75046Y-47367D01*
X75027Y-47367D01*
X75027Y-47359D01*
X75019Y-47359D01*
X75019Y-47340D01*
X75027Y-47340D01*
X75027Y-47332D01*
X75046Y-47332D01*
X75046Y-47340D01*
X75398Y-47340D01*
X75440Y-47298D01*
X75440Y-47147D01*
X75440Y-47080D01*
X75415Y-47021D01*
X75484Y-47021D01*
X75459Y-47080D01*
X75459Y-47147D01*
X75459Y-47619D01*
X75485Y-47680D01*
X75496Y-47692D01*
X75458Y-47730D01*
X75432Y-47791D01*
X75432Y-47858D01*
X75432Y-48408D01*
X75458Y-48469D01*
X75505Y-48516D01*
X75566Y-48542D01*
X75633Y-48542D01*
X75983Y-48542D01*
X76044Y-48516D01*
X76091Y-48469D01*
X76117Y-48408D01*
X76117Y-48341D01*
X76117Y-47791D01*
X76101Y-47753D01*
X76132Y-47753D01*
X76193Y-47727D01*
X76240Y-47680D01*
X76266Y-47619D01*
X76266Y-47552D01*
X76266Y-47080D01*
X76241Y-47021D01*
X79028Y-47021D01*
X79028Y-48216D01*
X79028Y-48216D01*
G37*
G54D19*
X79028Y-48216D02*
X79019Y-48208D01*
X78958Y-48182D01*
X78891Y-48182D01*
X78291Y-48182D01*
X78230Y-48208D01*
X78183Y-48255D01*
X78157Y-48316D01*
X78157Y-48383D01*
X78157Y-48432D01*
X77253Y-48432D01*
X77291Y-48394D01*
X77317Y-48333D01*
X77317Y-48266D01*
X77317Y-47916D01*
X77317Y-47583D01*
X77317Y-47426D01*
X77317Y-47323D01*
X77317Y-47166D01*
X77291Y-47105D01*
X77244Y-47058D01*
X77183Y-47032D01*
X77116Y-47032D01*
X76926Y-47032D01*
X76884Y-47074D01*
X76884Y-47365D01*
X77275Y-47365D01*
X77317Y-47323D01*
X77317Y-47426D01*
X77275Y-47384D01*
X76884Y-47384D01*
X76884Y-47675D01*
X76926Y-47717D01*
X77116Y-47717D01*
X77183Y-47717D01*
X77244Y-47691D01*
X77291Y-47644D01*
X77317Y-47583D01*
X77317Y-47916D01*
X77291Y-47855D01*
X77244Y-47808D01*
X77183Y-47782D01*
X77116Y-47782D01*
X76865Y-47782D01*
X76865Y-47675D01*
X76865Y-47384D01*
X76865Y-47365D01*
X76865Y-47074D01*
X76823Y-47032D01*
X76633Y-47032D01*
X76566Y-47032D01*
X76505Y-47058D01*
X76458Y-47105D01*
X76432Y-47166D01*
X76432Y-47323D01*
X76474Y-47365D01*
X76865Y-47365D01*
X76865Y-47384D01*
X76474Y-47384D01*
X76432Y-47426D01*
X76432Y-47583D01*
X76458Y-47644D01*
X76505Y-47691D01*
X76566Y-47717D01*
X76633Y-47717D01*
X76823Y-47717D01*
X76865Y-47675D01*
X76865Y-47782D01*
X76566Y-47782D01*
X76505Y-47808D01*
X76458Y-47855D01*
X76432Y-47916D01*
X76432Y-47983D01*
X76432Y-48150D01*
X76432Y-48333D01*
X76455Y-48387D01*
X76109Y-48732D01*
X76037Y-48732D01*
X75995Y-48690D01*
X75933Y-48664D01*
X75867Y-48664D01*
X75316Y-48664D01*
X75254Y-48690D01*
X75207Y-48737D01*
X75182Y-48798D01*
X75182Y-48865D01*
X75182Y-49101D01*
X75207Y-49162D01*
X75244Y-49200D01*
X75207Y-49237D01*
X75197Y-49262D01*
X75197Y-49262D01*
X75146Y-49296D01*
X74946Y-49496D01*
X74899Y-49566D01*
X74882Y-49650D01*
X74882Y-50675D01*
X74899Y-50758D01*
X74946Y-50828D01*
X75045Y-50928D01*
X74154Y-50928D01*
X74278Y-50803D01*
X74325Y-50733D01*
X74325Y-50733D01*
X74342Y-50650D01*
X74342Y-49175D01*
X74325Y-49091D01*
X74325Y-49091D01*
X74278Y-49021D01*
X74053Y-48796D01*
X73983Y-48749D01*
X73944Y-48741D01*
X73942Y-48737D01*
X73895Y-48690D01*
X73833Y-48664D01*
X73767Y-48664D01*
X73216Y-48664D01*
X73154Y-48690D01*
X73107Y-48737D01*
X73082Y-48798D01*
X73082Y-48865D01*
X73082Y-49101D01*
X73107Y-49162D01*
X73144Y-49200D01*
X73107Y-49237D01*
X73082Y-49298D01*
X73082Y-49398D01*
X73124Y-49440D01*
X73515Y-49440D01*
X73515Y-49432D01*
X73534Y-49432D01*
X73534Y-49440D01*
X73542Y-49440D01*
X73542Y-49459D01*
X73534Y-49459D01*
X73534Y-49467D01*
X73515Y-49467D01*
X73515Y-49459D01*
X73124Y-49459D01*
X73082Y-49501D01*
X73082Y-49601D01*
X73107Y-49662D01*
X73144Y-49700D01*
X73112Y-49732D01*
X72990Y-49732D01*
X72792Y-49534D01*
X72792Y-49340D01*
X72928Y-49203D01*
X72975Y-49133D01*
X72975Y-49133D01*
X72992Y-49050D01*
X72992Y-48717D01*
X73000Y-48717D01*
X73083Y-48700D01*
X73083Y-48700D01*
X73153Y-48653D01*
X73415Y-48392D01*
X73758Y-48392D01*
X73819Y-48366D01*
X73853Y-48333D01*
X73858Y-48344D01*
X73905Y-48391D01*
X73966Y-48417D01*
X74033Y-48417D01*
X74583Y-48417D01*
X74644Y-48391D01*
X74682Y-48353D01*
X74682Y-48408D01*
X74708Y-48469D01*
X74755Y-48516D01*
X74816Y-48542D01*
X74883Y-48542D01*
X75233Y-48542D01*
X75294Y-48516D01*
X75341Y-48469D01*
X75367Y-48408D01*
X75367Y-48341D01*
X75367Y-47791D01*
X75344Y-47737D01*
X75367Y-47727D01*
X75414Y-47680D01*
X75440Y-47619D01*
X75440Y-47552D01*
X75440Y-47401D01*
X75398Y-47359D01*
X75046Y-47359D01*
X75046Y-47367D01*
X75027Y-47367D01*
X75027Y-47359D01*
X75019Y-47359D01*
X75019Y-47340D01*
X75027Y-47340D01*
X75027Y-47332D01*
X75046Y-47332D01*
X75046Y-47340D01*
X75398Y-47340D01*
X75440Y-47298D01*
X75440Y-47147D01*
X75440Y-47080D01*
X75415Y-47021D01*
X75484Y-47021D01*
X75459Y-47080D01*
X75459Y-47147D01*
X75459Y-47619D01*
X75485Y-47680D01*
X75496Y-47692D01*
X75458Y-47730D01*
X75432Y-47791D01*
X75432Y-47858D01*
X75432Y-48408D01*
X75458Y-48469D01*
X75505Y-48516D01*
X75566Y-48542D01*
X75633Y-48542D01*
X75983Y-48542D01*
X76044Y-48516D01*
X76091Y-48469D01*
X76117Y-48408D01*
X76117Y-48341D01*
X76117Y-47791D01*
X76101Y-47753D01*
X76132Y-47753D01*
X76193Y-47727D01*
X76240Y-47680D01*
X76266Y-47619D01*
X76266Y-47552D01*
X76266Y-47080D01*
X76241Y-47021D01*
X79028Y-47021D01*
X79028Y-48216D01*
G54D10*
G36*
X79028Y-50928D02*
X77727Y-50928D01*
X77868Y-50716D01*
X77921Y-50450D01*
X77868Y-50183D01*
X77717Y-49957D01*
X77491Y-49806D01*
X77225Y-49753D01*
X76958Y-49806D01*
X76732Y-49957D01*
X76581Y-50183D01*
X76528Y-50450D01*
X76581Y-50716D01*
X76722Y-50928D01*
X76204Y-50928D01*
X76303Y-50828D01*
X76350Y-50758D01*
X76350Y-50758D01*
X76367Y-50675D01*
X76367Y-50090D01*
X76478Y-49978D01*
X76525Y-49908D01*
X76525Y-49908D01*
X76542Y-49825D01*
X76542Y-49490D01*
X76915Y-49117D01*
X77784Y-49117D01*
X78177Y-49509D01*
X78157Y-49556D01*
X78157Y-49742D01*
X78228Y-49914D01*
X78359Y-50045D01*
X78531Y-50117D01*
X78717Y-50117D01*
X78889Y-50046D01*
X79020Y-49915D01*
X79028Y-49897D01*
X79028Y-50928D01*
X79028Y-50928D01*
G37*
G54D19*
X79028Y-50928D02*
X77727Y-50928D01*
X77868Y-50716D01*
X77921Y-50450D01*
X77868Y-50183D01*
X77717Y-49957D01*
X77491Y-49806D01*
X77225Y-49753D01*
X76958Y-49806D01*
X76732Y-49957D01*
X76581Y-50183D01*
X76528Y-50450D01*
X76581Y-50716D01*
X76722Y-50928D01*
X76204Y-50928D01*
X76303Y-50828D01*
X76350Y-50758D01*
X76350Y-50758D01*
X76367Y-50675D01*
X76367Y-50090D01*
X76478Y-49978D01*
X76525Y-49908D01*
X76525Y-49908D01*
X76542Y-49825D01*
X76542Y-49490D01*
X76915Y-49117D01*
X77784Y-49117D01*
X78177Y-49509D01*
X78157Y-49556D01*
X78157Y-49742D01*
X78228Y-49914D01*
X78359Y-50045D01*
X78531Y-50117D01*
X78717Y-50117D01*
X78889Y-50046D01*
X79020Y-49915D01*
X79028Y-49897D01*
X79028Y-50928D01*
M02*
