G04 (created by PCBNEW (2013-07-07 BZR 4022)-stable) date 02/12/2013 08:18:55*
%MOIN*%
G04 Gerber Fmt 3.4, Leading zero omitted, Abs format*
%FSLAX34Y34*%
G01*
G70*
G90*
G04 APERTURE LIST*
%ADD10C,0.00590551*%
%ADD11C,0.005*%
%ADD12C,0.01*%
%ADD13C,0.0045*%
%ADD14C,0.0039*%
%ADD15C,0.012*%
%ADD16C,0.0026*%
%ADD17C,0.004*%
%ADD18C,0.002*%
%ADD19C,0.006*%
%ADD20C,0.0043*%
G04 APERTURE END LIST*
G54D10*
G54D11*
X37047Y-51874D02*
X37028Y-51859D01*
X37000Y-51859D01*
X36971Y-51874D01*
X36952Y-51905D01*
X36942Y-51935D01*
X36933Y-51996D01*
X36933Y-52042D01*
X36942Y-52103D01*
X36952Y-52133D01*
X36971Y-52164D01*
X37000Y-52179D01*
X37019Y-52179D01*
X37047Y-52164D01*
X37057Y-52149D01*
X37057Y-52042D01*
X37019Y-52042D01*
X37142Y-52179D02*
X37142Y-51859D01*
X37257Y-52179D01*
X37257Y-51859D01*
X37352Y-52179D02*
X37352Y-51859D01*
X37400Y-51859D01*
X37428Y-51874D01*
X37447Y-51905D01*
X37457Y-51935D01*
X37466Y-51996D01*
X37466Y-52042D01*
X37457Y-52103D01*
X37447Y-52133D01*
X37428Y-52164D01*
X37400Y-52179D01*
X37352Y-52179D01*
X37161Y-52855D02*
X37066Y-52855D01*
X37057Y-53007D01*
X37066Y-52992D01*
X37085Y-52977D01*
X37133Y-52977D01*
X37152Y-52992D01*
X37161Y-53007D01*
X37171Y-53038D01*
X37171Y-53114D01*
X37161Y-53145D01*
X37152Y-53160D01*
X37133Y-53175D01*
X37085Y-53175D01*
X37066Y-53160D01*
X37057Y-53145D01*
X37228Y-52855D02*
X37295Y-53175D01*
X37361Y-52855D01*
X37047Y-53851D02*
X37171Y-53851D01*
X37104Y-53973D01*
X37133Y-53973D01*
X37152Y-53988D01*
X37161Y-54003D01*
X37171Y-54034D01*
X37171Y-54110D01*
X37161Y-54141D01*
X37152Y-54156D01*
X37133Y-54171D01*
X37076Y-54171D01*
X37057Y-54156D01*
X37047Y-54141D01*
X37228Y-53851D02*
X37295Y-54171D01*
X37361Y-53851D01*
X36947Y-55167D02*
X36947Y-54847D01*
X37023Y-54847D01*
X37042Y-54862D01*
X37052Y-54878D01*
X37061Y-54908D01*
X37061Y-54954D01*
X37052Y-54984D01*
X37042Y-54999D01*
X37023Y-55015D01*
X36947Y-55015D01*
X37147Y-55167D02*
X37147Y-54847D01*
X37147Y-54999D02*
X37261Y-54999D01*
X37261Y-55167D02*
X37261Y-54847D01*
X37461Y-55167D02*
X37347Y-55167D01*
X37404Y-55167D02*
X37404Y-54847D01*
X37385Y-54893D01*
X37366Y-54923D01*
X37347Y-54938D01*
X36857Y-56163D02*
X36857Y-55843D01*
X36933Y-55843D01*
X36952Y-55858D01*
X36961Y-55874D01*
X36971Y-55904D01*
X36971Y-55950D01*
X36961Y-55980D01*
X36952Y-55995D01*
X36933Y-56011D01*
X36857Y-56011D01*
X37171Y-56133D02*
X37161Y-56148D01*
X37133Y-56163D01*
X37114Y-56163D01*
X37085Y-56148D01*
X37066Y-56117D01*
X37057Y-56087D01*
X37047Y-56026D01*
X37047Y-55980D01*
X37057Y-55919D01*
X37066Y-55889D01*
X37085Y-55858D01*
X37114Y-55843D01*
X37133Y-55843D01*
X37161Y-55858D01*
X37171Y-55874D01*
X37361Y-56163D02*
X37247Y-56163D01*
X37304Y-56163D02*
X37304Y-55843D01*
X37285Y-55889D01*
X37266Y-55919D01*
X37247Y-55934D01*
X37542Y-55843D02*
X37447Y-55843D01*
X37438Y-55995D01*
X37447Y-55980D01*
X37466Y-55965D01*
X37514Y-55965D01*
X37533Y-55980D01*
X37542Y-55995D01*
X37552Y-56026D01*
X37552Y-56102D01*
X37542Y-56133D01*
X37533Y-56148D01*
X37514Y-56163D01*
X37466Y-56163D01*
X37447Y-56148D01*
X37438Y-56133D01*
X36866Y-57159D02*
X36866Y-56839D01*
X36942Y-56839D01*
X36961Y-56854D01*
X36971Y-56870D01*
X36980Y-56900D01*
X36980Y-56946D01*
X36971Y-56976D01*
X36961Y-56991D01*
X36942Y-57007D01*
X36866Y-57007D01*
X37066Y-56991D02*
X37133Y-56991D01*
X37161Y-57159D02*
X37066Y-57159D01*
X37066Y-56839D01*
X37161Y-56839D01*
X37352Y-57159D02*
X37238Y-57159D01*
X37295Y-57159D02*
X37295Y-56839D01*
X37276Y-56885D01*
X37257Y-56915D01*
X37238Y-56930D01*
X37419Y-56839D02*
X37542Y-56839D01*
X37476Y-56961D01*
X37504Y-56961D01*
X37523Y-56976D01*
X37533Y-56991D01*
X37542Y-57022D01*
X37542Y-57098D01*
X37533Y-57129D01*
X37523Y-57144D01*
X37504Y-57159D01*
X37447Y-57159D01*
X37428Y-57144D01*
X37419Y-57129D01*
X36961Y-58155D02*
X36961Y-57835D01*
X37038Y-57835D01*
X37057Y-57850D01*
X37066Y-57866D01*
X37076Y-57896D01*
X37076Y-57942D01*
X37066Y-57972D01*
X37057Y-57987D01*
X37038Y-58003D01*
X36961Y-58003D01*
X37161Y-57987D02*
X37228Y-57987D01*
X37257Y-58155D02*
X37161Y-58155D01*
X37161Y-57835D01*
X37257Y-57835D01*
X37438Y-57835D02*
X37342Y-57835D01*
X37333Y-57987D01*
X37342Y-57972D01*
X37361Y-57957D01*
X37409Y-57957D01*
X37428Y-57972D01*
X37438Y-57987D01*
X37447Y-58018D01*
X37447Y-58094D01*
X37438Y-58125D01*
X37428Y-58140D01*
X37409Y-58155D01*
X37361Y-58155D01*
X37342Y-58140D01*
X37333Y-58125D01*
X36961Y-59151D02*
X36961Y-58831D01*
X37038Y-58831D01*
X37057Y-58846D01*
X37066Y-58862D01*
X37076Y-58892D01*
X37076Y-58938D01*
X37066Y-58968D01*
X37057Y-58983D01*
X37038Y-58999D01*
X36961Y-58999D01*
X37161Y-58983D02*
X37228Y-58983D01*
X37257Y-59151D02*
X37161Y-59151D01*
X37161Y-58831D01*
X37257Y-58831D01*
X37323Y-58831D02*
X37447Y-58831D01*
X37380Y-58953D01*
X37409Y-58953D01*
X37428Y-58968D01*
X37438Y-58983D01*
X37447Y-59014D01*
X37447Y-59090D01*
X37438Y-59121D01*
X37428Y-59136D01*
X37409Y-59151D01*
X37352Y-59151D01*
X37333Y-59136D01*
X37323Y-59121D01*
X36961Y-60147D02*
X36961Y-59827D01*
X37038Y-59827D01*
X37057Y-59842D01*
X37066Y-59858D01*
X37076Y-59888D01*
X37076Y-59934D01*
X37066Y-59964D01*
X37057Y-59979D01*
X37038Y-59995D01*
X36961Y-59995D01*
X37161Y-59979D02*
X37228Y-59979D01*
X37257Y-60147D02*
X37161Y-60147D01*
X37161Y-59827D01*
X37257Y-59827D01*
X37447Y-60147D02*
X37333Y-60147D01*
X37390Y-60147D02*
X37390Y-59827D01*
X37371Y-59873D01*
X37352Y-59903D01*
X37333Y-59918D01*
X36952Y-61143D02*
X36952Y-60823D01*
X37028Y-60823D01*
X37047Y-60838D01*
X37057Y-60854D01*
X37066Y-60884D01*
X37066Y-60930D01*
X37057Y-60960D01*
X37047Y-60975D01*
X37028Y-60991D01*
X36952Y-60991D01*
X37219Y-60975D02*
X37247Y-60991D01*
X37257Y-61006D01*
X37266Y-61036D01*
X37266Y-61082D01*
X37257Y-61113D01*
X37247Y-61128D01*
X37228Y-61143D01*
X37152Y-61143D01*
X37152Y-60823D01*
X37219Y-60823D01*
X37238Y-60838D01*
X37247Y-60854D01*
X37257Y-60884D01*
X37257Y-60914D01*
X37247Y-60945D01*
X37238Y-60960D01*
X37219Y-60975D01*
X37152Y-60975D01*
X37361Y-61143D02*
X37400Y-61143D01*
X37419Y-61128D01*
X37428Y-61113D01*
X37447Y-61067D01*
X37457Y-61006D01*
X37457Y-60884D01*
X37447Y-60854D01*
X37438Y-60838D01*
X37419Y-60823D01*
X37380Y-60823D01*
X37361Y-60838D01*
X37352Y-60854D01*
X37342Y-60884D01*
X37342Y-60960D01*
X37352Y-60991D01*
X37361Y-61006D01*
X37380Y-61021D01*
X37419Y-61021D01*
X37438Y-61006D01*
X37447Y-60991D01*
X37457Y-60960D01*
X33906Y-51874D02*
X33875Y-51859D01*
X33830Y-51859D01*
X33784Y-51874D01*
X33753Y-51905D01*
X33738Y-51935D01*
X33723Y-51996D01*
X33723Y-52042D01*
X33738Y-52103D01*
X33753Y-52133D01*
X33784Y-52164D01*
X33830Y-52179D01*
X33860Y-52179D01*
X33906Y-52164D01*
X33921Y-52149D01*
X33921Y-52042D01*
X33860Y-52042D01*
X34058Y-52179D02*
X34058Y-51859D01*
X34241Y-52179D01*
X34241Y-51859D01*
X34393Y-52179D02*
X34393Y-51859D01*
X34470Y-51859D01*
X34515Y-51874D01*
X34546Y-51905D01*
X34561Y-51935D01*
X34576Y-51996D01*
X34576Y-52042D01*
X34561Y-52103D01*
X34546Y-52133D01*
X34515Y-52164D01*
X34470Y-52179D01*
X34393Y-52179D01*
X34089Y-52855D02*
X33936Y-52855D01*
X33921Y-53007D01*
X33936Y-52992D01*
X33967Y-52977D01*
X34043Y-52977D01*
X34073Y-52992D01*
X34089Y-53007D01*
X34104Y-53038D01*
X34104Y-53114D01*
X34089Y-53145D01*
X34073Y-53160D01*
X34043Y-53175D01*
X33967Y-53175D01*
X33936Y-53160D01*
X33921Y-53145D01*
X34195Y-52855D02*
X34302Y-53175D01*
X34409Y-52855D01*
X33906Y-53851D02*
X34104Y-53851D01*
X33997Y-53973D01*
X34043Y-53973D01*
X34073Y-53988D01*
X34089Y-54003D01*
X34104Y-54034D01*
X34104Y-54110D01*
X34089Y-54141D01*
X34073Y-54156D01*
X34043Y-54171D01*
X33951Y-54171D01*
X33921Y-54156D01*
X33906Y-54141D01*
X34195Y-53851D02*
X34302Y-54171D01*
X34409Y-53851D01*
X33746Y-55167D02*
X33746Y-54847D01*
X33868Y-54847D01*
X33898Y-54862D01*
X33913Y-54878D01*
X33929Y-54908D01*
X33929Y-54954D01*
X33913Y-54984D01*
X33898Y-54999D01*
X33868Y-55015D01*
X33746Y-55015D01*
X34066Y-55167D02*
X34066Y-54847D01*
X34066Y-54999D02*
X34249Y-54999D01*
X34249Y-55167D02*
X34249Y-54847D01*
X34462Y-54847D02*
X34492Y-54847D01*
X34523Y-54862D01*
X34538Y-54878D01*
X34553Y-54908D01*
X34569Y-54969D01*
X34569Y-55045D01*
X34553Y-55106D01*
X34538Y-55137D01*
X34523Y-55152D01*
X34492Y-55167D01*
X34462Y-55167D01*
X34431Y-55152D01*
X34416Y-55137D01*
X34401Y-55106D01*
X34386Y-55045D01*
X34386Y-54969D01*
X34401Y-54908D01*
X34416Y-54878D01*
X34431Y-54862D01*
X34462Y-54847D01*
X33601Y-56163D02*
X33601Y-55843D01*
X33723Y-55843D01*
X33753Y-55858D01*
X33769Y-55874D01*
X33784Y-55904D01*
X33784Y-55950D01*
X33769Y-55980D01*
X33753Y-55995D01*
X33723Y-56011D01*
X33601Y-56011D01*
X34104Y-56133D02*
X34089Y-56148D01*
X34043Y-56163D01*
X34012Y-56163D01*
X33967Y-56148D01*
X33936Y-56117D01*
X33921Y-56087D01*
X33906Y-56026D01*
X33906Y-55980D01*
X33921Y-55919D01*
X33936Y-55889D01*
X33967Y-55858D01*
X34012Y-55843D01*
X34043Y-55843D01*
X34089Y-55858D01*
X34104Y-55874D01*
X34409Y-56163D02*
X34226Y-56163D01*
X34317Y-56163D02*
X34317Y-55843D01*
X34287Y-55889D01*
X34256Y-55919D01*
X34226Y-55934D01*
X34683Y-55950D02*
X34683Y-56163D01*
X34607Y-55828D02*
X34530Y-56056D01*
X34729Y-56056D01*
X33769Y-57159D02*
X33769Y-56839D01*
X33890Y-56839D01*
X33921Y-56854D01*
X33936Y-56870D01*
X33951Y-56900D01*
X33951Y-56946D01*
X33936Y-56976D01*
X33921Y-56991D01*
X33890Y-57007D01*
X33769Y-57007D01*
X34089Y-56991D02*
X34195Y-56991D01*
X34241Y-57159D02*
X34089Y-57159D01*
X34089Y-56839D01*
X34241Y-56839D01*
X34515Y-56839D02*
X34454Y-56839D01*
X34424Y-56854D01*
X34409Y-56870D01*
X34378Y-56915D01*
X34363Y-56976D01*
X34363Y-57098D01*
X34378Y-57129D01*
X34393Y-57144D01*
X34424Y-57159D01*
X34485Y-57159D01*
X34515Y-57144D01*
X34530Y-57129D01*
X34546Y-57098D01*
X34546Y-57022D01*
X34530Y-56991D01*
X34515Y-56976D01*
X34485Y-56961D01*
X34424Y-56961D01*
X34393Y-56976D01*
X34378Y-56991D01*
X34363Y-57022D01*
X33769Y-58155D02*
X33769Y-57835D01*
X33890Y-57835D01*
X33921Y-57850D01*
X33936Y-57866D01*
X33951Y-57896D01*
X33951Y-57942D01*
X33936Y-57972D01*
X33921Y-57987D01*
X33890Y-58003D01*
X33769Y-58003D01*
X34089Y-57987D02*
X34195Y-57987D01*
X34241Y-58155D02*
X34089Y-58155D01*
X34089Y-57835D01*
X34241Y-57835D01*
X34515Y-57942D02*
X34515Y-58155D01*
X34439Y-57820D02*
X34363Y-58048D01*
X34561Y-58048D01*
X33769Y-59151D02*
X33769Y-58831D01*
X33890Y-58831D01*
X33921Y-58846D01*
X33936Y-58862D01*
X33951Y-58892D01*
X33951Y-58938D01*
X33936Y-58968D01*
X33921Y-58983D01*
X33890Y-58999D01*
X33769Y-58999D01*
X34089Y-58983D02*
X34195Y-58983D01*
X34241Y-59151D02*
X34089Y-59151D01*
X34089Y-58831D01*
X34241Y-58831D01*
X34363Y-58862D02*
X34378Y-58846D01*
X34409Y-58831D01*
X34485Y-58831D01*
X34515Y-58846D01*
X34530Y-58862D01*
X34546Y-58892D01*
X34546Y-58922D01*
X34530Y-58968D01*
X34348Y-59151D01*
X34546Y-59151D01*
X33769Y-60147D02*
X33769Y-59827D01*
X33890Y-59827D01*
X33921Y-59842D01*
X33936Y-59858D01*
X33951Y-59888D01*
X33951Y-59934D01*
X33936Y-59964D01*
X33921Y-59979D01*
X33890Y-59995D01*
X33769Y-59995D01*
X34089Y-59979D02*
X34195Y-59979D01*
X34241Y-60147D02*
X34089Y-60147D01*
X34089Y-59827D01*
X34241Y-59827D01*
X34439Y-59827D02*
X34470Y-59827D01*
X34500Y-59842D01*
X34515Y-59858D01*
X34530Y-59888D01*
X34546Y-59949D01*
X34546Y-60025D01*
X34530Y-60086D01*
X34515Y-60117D01*
X34500Y-60132D01*
X34470Y-60147D01*
X34439Y-60147D01*
X34409Y-60132D01*
X34393Y-60117D01*
X34378Y-60086D01*
X34363Y-60025D01*
X34363Y-59949D01*
X34378Y-59888D01*
X34393Y-59858D01*
X34409Y-59842D01*
X34439Y-59827D01*
X33753Y-61143D02*
X33753Y-60823D01*
X33875Y-60823D01*
X33906Y-60838D01*
X33921Y-60854D01*
X33936Y-60884D01*
X33936Y-60930D01*
X33921Y-60960D01*
X33906Y-60975D01*
X33875Y-60991D01*
X33753Y-60991D01*
X34180Y-60975D02*
X34226Y-60991D01*
X34241Y-61006D01*
X34256Y-61036D01*
X34256Y-61082D01*
X34241Y-61113D01*
X34226Y-61128D01*
X34195Y-61143D01*
X34073Y-61143D01*
X34073Y-60823D01*
X34180Y-60823D01*
X34210Y-60838D01*
X34226Y-60854D01*
X34241Y-60884D01*
X34241Y-60914D01*
X34226Y-60945D01*
X34210Y-60960D01*
X34180Y-60975D01*
X34073Y-60975D01*
X34439Y-60960D02*
X34409Y-60945D01*
X34393Y-60930D01*
X34378Y-60899D01*
X34378Y-60884D01*
X34393Y-60854D01*
X34409Y-60838D01*
X34439Y-60823D01*
X34500Y-60823D01*
X34530Y-60838D01*
X34546Y-60854D01*
X34561Y-60884D01*
X34561Y-60899D01*
X34546Y-60930D01*
X34530Y-60945D01*
X34500Y-60960D01*
X34439Y-60960D01*
X34409Y-60975D01*
X34393Y-60991D01*
X34378Y-61021D01*
X34378Y-61082D01*
X34393Y-61113D01*
X34409Y-61128D01*
X34439Y-61143D01*
X34500Y-61143D01*
X34530Y-61128D01*
X34546Y-61113D01*
X34561Y-61082D01*
X34561Y-61021D01*
X34546Y-60991D01*
X34530Y-60975D01*
X34500Y-60960D01*
G54D12*
X44725Y-60625D02*
G75*
G03X44725Y-60625I-1100J0D01*
G74*
G01*
X44725Y-48125D02*
G75*
G03X44725Y-48125I-1100J0D01*
G74*
G01*
X32975Y-48125D02*
G75*
G03X32975Y-48125I-1100J0D01*
G74*
G01*
G54D13*
X48342Y-60128D02*
X48342Y-60428D01*
X48199Y-60128D02*
X48199Y-60428D01*
X48028Y-60128D01*
X48028Y-60428D01*
X47799Y-60428D02*
X47799Y-60214D01*
X47814Y-60171D01*
X47842Y-60142D01*
X47885Y-60128D01*
X47914Y-60128D01*
X47657Y-60242D02*
X47428Y-60242D01*
X47228Y-60428D02*
X47199Y-60428D01*
X47171Y-60414D01*
X47157Y-60400D01*
X47142Y-60371D01*
X47128Y-60314D01*
X47128Y-60242D01*
X47142Y-60185D01*
X47157Y-60157D01*
X47171Y-60142D01*
X47199Y-60128D01*
X47228Y-60128D01*
X47257Y-60142D01*
X47271Y-60157D01*
X47285Y-60185D01*
X47299Y-60242D01*
X47299Y-60314D01*
X47285Y-60371D01*
X47271Y-60400D01*
X47257Y-60414D01*
X47228Y-60428D01*
X46842Y-60128D02*
X47014Y-60128D01*
X46928Y-60128D02*
X46928Y-60428D01*
X46957Y-60385D01*
X46985Y-60357D01*
X47014Y-60342D01*
X48292Y-58128D02*
X48292Y-58428D01*
X48149Y-58128D02*
X48149Y-58428D01*
X47978Y-58128D01*
X47978Y-58428D01*
X47749Y-58428D02*
X47749Y-58214D01*
X47764Y-58171D01*
X47792Y-58142D01*
X47835Y-58128D01*
X47864Y-58128D01*
X47607Y-58242D02*
X47378Y-58242D01*
X47178Y-58428D02*
X47149Y-58428D01*
X47121Y-58414D01*
X47107Y-58400D01*
X47092Y-58371D01*
X47078Y-58314D01*
X47078Y-58242D01*
X47092Y-58185D01*
X47107Y-58157D01*
X47121Y-58142D01*
X47149Y-58128D01*
X47178Y-58128D01*
X47207Y-58142D01*
X47221Y-58157D01*
X47235Y-58185D01*
X47249Y-58242D01*
X47249Y-58314D01*
X47235Y-58371D01*
X47221Y-58400D01*
X47207Y-58414D01*
X47178Y-58428D01*
X46964Y-58400D02*
X46949Y-58414D01*
X46921Y-58428D01*
X46849Y-58428D01*
X46821Y-58414D01*
X46807Y-58400D01*
X46792Y-58371D01*
X46792Y-58342D01*
X46807Y-58300D01*
X46978Y-58128D01*
X46792Y-58128D01*
X48292Y-56078D02*
X48292Y-56378D01*
X48149Y-56078D02*
X48149Y-56378D01*
X47978Y-56078D01*
X47978Y-56378D01*
X47749Y-56378D02*
X47749Y-56164D01*
X47764Y-56121D01*
X47792Y-56092D01*
X47835Y-56078D01*
X47864Y-56078D01*
X47607Y-56192D02*
X47378Y-56192D01*
X47178Y-56378D02*
X47149Y-56378D01*
X47121Y-56364D01*
X47107Y-56350D01*
X47092Y-56321D01*
X47078Y-56264D01*
X47078Y-56192D01*
X47092Y-56135D01*
X47107Y-56107D01*
X47121Y-56092D01*
X47149Y-56078D01*
X47178Y-56078D01*
X47207Y-56092D01*
X47221Y-56107D01*
X47235Y-56135D01*
X47249Y-56192D01*
X47249Y-56264D01*
X47235Y-56321D01*
X47221Y-56350D01*
X47207Y-56364D01*
X47178Y-56378D01*
X46978Y-56378D02*
X46792Y-56378D01*
X46892Y-56264D01*
X46849Y-56264D01*
X46821Y-56250D01*
X46807Y-56235D01*
X46792Y-56207D01*
X46792Y-56135D01*
X46807Y-56107D01*
X46821Y-56092D01*
X46849Y-56078D01*
X46935Y-56078D01*
X46964Y-56092D01*
X46978Y-56107D01*
X48292Y-48728D02*
X48292Y-49028D01*
X48149Y-48728D02*
X48149Y-49028D01*
X47978Y-48728D01*
X47978Y-49028D01*
X47749Y-49028D02*
X47749Y-48814D01*
X47764Y-48771D01*
X47792Y-48742D01*
X47835Y-48728D01*
X47864Y-48728D01*
X47607Y-48842D02*
X47378Y-48842D01*
X47178Y-49028D02*
X47149Y-49028D01*
X47121Y-49014D01*
X47107Y-49000D01*
X47092Y-48971D01*
X47078Y-48914D01*
X47078Y-48842D01*
X47092Y-48785D01*
X47107Y-48757D01*
X47121Y-48742D01*
X47149Y-48728D01*
X47178Y-48728D01*
X47207Y-48742D01*
X47221Y-48757D01*
X47235Y-48785D01*
X47249Y-48842D01*
X47249Y-48914D01*
X47235Y-48971D01*
X47221Y-49000D01*
X47207Y-49014D01*
X47178Y-49028D01*
X46821Y-49028D02*
X46878Y-49028D01*
X46907Y-49014D01*
X46921Y-49000D01*
X46949Y-48957D01*
X46964Y-48900D01*
X46964Y-48785D01*
X46949Y-48757D01*
X46935Y-48742D01*
X46907Y-48728D01*
X46849Y-48728D01*
X46821Y-48742D01*
X46807Y-48757D01*
X46792Y-48785D01*
X46792Y-48857D01*
X46807Y-48885D01*
X46821Y-48900D01*
X46849Y-48914D01*
X46907Y-48914D01*
X46935Y-48900D01*
X46949Y-48885D01*
X46964Y-48857D01*
X48292Y-50528D02*
X48292Y-50828D01*
X48149Y-50528D02*
X48149Y-50828D01*
X47978Y-50528D01*
X47978Y-50828D01*
X47749Y-50828D02*
X47749Y-50614D01*
X47764Y-50571D01*
X47792Y-50542D01*
X47835Y-50528D01*
X47864Y-50528D01*
X47607Y-50642D02*
X47378Y-50642D01*
X47178Y-50828D02*
X47149Y-50828D01*
X47121Y-50814D01*
X47107Y-50800D01*
X47092Y-50771D01*
X47078Y-50714D01*
X47078Y-50642D01*
X47092Y-50585D01*
X47107Y-50557D01*
X47121Y-50542D01*
X47149Y-50528D01*
X47178Y-50528D01*
X47207Y-50542D01*
X47221Y-50557D01*
X47235Y-50585D01*
X47249Y-50642D01*
X47249Y-50714D01*
X47235Y-50771D01*
X47221Y-50800D01*
X47207Y-50814D01*
X47178Y-50828D01*
X46807Y-50828D02*
X46949Y-50828D01*
X46964Y-50685D01*
X46949Y-50700D01*
X46921Y-50714D01*
X46849Y-50714D01*
X46821Y-50700D01*
X46807Y-50685D01*
X46792Y-50657D01*
X46792Y-50585D01*
X46807Y-50557D01*
X46821Y-50542D01*
X46849Y-50528D01*
X46921Y-50528D01*
X46949Y-50542D01*
X46964Y-50557D01*
X48342Y-52728D02*
X48342Y-53028D01*
X48199Y-52728D02*
X48199Y-53028D01*
X48028Y-52728D01*
X48028Y-53028D01*
X47799Y-53028D02*
X47799Y-52814D01*
X47814Y-52771D01*
X47842Y-52742D01*
X47885Y-52728D01*
X47914Y-52728D01*
X47657Y-52842D02*
X47428Y-52842D01*
X47228Y-53028D02*
X47199Y-53028D01*
X47171Y-53014D01*
X47157Y-53000D01*
X47142Y-52971D01*
X47128Y-52914D01*
X47128Y-52842D01*
X47142Y-52785D01*
X47157Y-52757D01*
X47171Y-52742D01*
X47199Y-52728D01*
X47228Y-52728D01*
X47257Y-52742D01*
X47271Y-52757D01*
X47285Y-52785D01*
X47299Y-52842D01*
X47299Y-52914D01*
X47285Y-52971D01*
X47271Y-53000D01*
X47257Y-53014D01*
X47228Y-53028D01*
X46871Y-52928D02*
X46871Y-52728D01*
X46942Y-53042D02*
X47014Y-52828D01*
X46828Y-52828D01*
X48299Y-54128D02*
X48299Y-54328D01*
X48299Y-54428D02*
X48314Y-54414D01*
X48299Y-54400D01*
X48285Y-54414D01*
X48299Y-54428D01*
X48299Y-54400D01*
X48000Y-54414D02*
X48028Y-54428D01*
X48071Y-54428D01*
X48114Y-54414D01*
X48142Y-54385D01*
X48157Y-54357D01*
X48171Y-54300D01*
X48171Y-54257D01*
X48157Y-54200D01*
X48142Y-54171D01*
X48114Y-54142D01*
X48071Y-54128D01*
X48042Y-54128D01*
X48000Y-54142D01*
X47985Y-54157D01*
X47985Y-54257D01*
X48042Y-54257D01*
X47857Y-54128D02*
X47857Y-54428D01*
X47685Y-54128D01*
X47685Y-54428D01*
X47542Y-54128D02*
X47542Y-54428D01*
X47471Y-54428D01*
X47428Y-54414D01*
X47399Y-54385D01*
X47385Y-54357D01*
X47371Y-54300D01*
X47371Y-54257D01*
X47385Y-54200D01*
X47399Y-54171D01*
X47428Y-54142D01*
X47471Y-54128D01*
X47542Y-54128D01*
X47085Y-54128D02*
X47257Y-54128D01*
X47171Y-54128D02*
X47171Y-54428D01*
X47199Y-54385D01*
X47228Y-54357D01*
X47257Y-54342D01*
G54D11*
X41975Y-52725D02*
X41975Y-52675D01*
X41975Y-52675D02*
X39875Y-52675D01*
X39875Y-54175D02*
X41975Y-54175D01*
X41975Y-54175D02*
X41975Y-52725D01*
X41975Y-53625D02*
X41775Y-53625D01*
X41775Y-53625D02*
X41775Y-53225D01*
X41775Y-53225D02*
X41975Y-53225D01*
X39875Y-54175D02*
X39875Y-52675D01*
X44475Y-56725D02*
X44475Y-56675D01*
X44475Y-56675D02*
X42375Y-56675D01*
X42375Y-58175D02*
X44475Y-58175D01*
X44475Y-58175D02*
X44475Y-56725D01*
X44475Y-57625D02*
X44275Y-57625D01*
X44275Y-57625D02*
X44275Y-57225D01*
X44275Y-57225D02*
X44475Y-57225D01*
X42375Y-58175D02*
X42375Y-56675D01*
X41975Y-55725D02*
X41975Y-55675D01*
X41975Y-55675D02*
X39875Y-55675D01*
X39875Y-57175D02*
X41975Y-57175D01*
X41975Y-57175D02*
X41975Y-55725D01*
X41975Y-56625D02*
X41775Y-56625D01*
X41775Y-56625D02*
X41775Y-56225D01*
X41775Y-56225D02*
X41975Y-56225D01*
X39875Y-57175D02*
X39875Y-55675D01*
X44475Y-53725D02*
X44475Y-53675D01*
X44475Y-53675D02*
X42375Y-53675D01*
X42375Y-55175D02*
X44475Y-55175D01*
X44475Y-55175D02*
X44475Y-53725D01*
X44475Y-54625D02*
X44275Y-54625D01*
X44275Y-54625D02*
X44275Y-54225D01*
X44275Y-54225D02*
X44475Y-54225D01*
X42375Y-55175D02*
X42375Y-53675D01*
X41975Y-49725D02*
X41975Y-49675D01*
X41975Y-49675D02*
X39875Y-49675D01*
X39875Y-51175D02*
X41975Y-51175D01*
X41975Y-51175D02*
X41975Y-49725D01*
X41975Y-50625D02*
X41775Y-50625D01*
X41775Y-50625D02*
X41775Y-50225D01*
X41775Y-50225D02*
X41975Y-50225D01*
X39875Y-51175D02*
X39875Y-49675D01*
X44475Y-50725D02*
X44475Y-50675D01*
X44475Y-50675D02*
X42375Y-50675D01*
X42375Y-52175D02*
X44475Y-52175D01*
X44475Y-52175D02*
X44475Y-50725D01*
X44475Y-51625D02*
X44275Y-51625D01*
X44275Y-51625D02*
X44275Y-51225D01*
X44275Y-51225D02*
X44475Y-51225D01*
X42375Y-52175D02*
X42375Y-50675D01*
X39775Y-58575D02*
G75*
G03X39775Y-58575I-50J0D01*
G74*
G01*
X39725Y-58125D02*
X39725Y-58525D01*
X39725Y-58525D02*
X39125Y-58525D01*
X39125Y-58525D02*
X39125Y-58125D01*
X39125Y-57725D02*
X39125Y-57325D01*
X39125Y-57325D02*
X39725Y-57325D01*
X39725Y-57325D02*
X39725Y-57725D01*
X39775Y-57075D02*
G75*
G03X39775Y-57075I-50J0D01*
G74*
G01*
X39725Y-56625D02*
X39725Y-57025D01*
X39725Y-57025D02*
X39125Y-57025D01*
X39125Y-57025D02*
X39125Y-56625D01*
X39125Y-56225D02*
X39125Y-55825D01*
X39125Y-55825D02*
X39725Y-55825D01*
X39725Y-55825D02*
X39725Y-56225D01*
X39775Y-53825D02*
G75*
G03X39775Y-53825I-50J0D01*
G74*
G01*
X39725Y-53375D02*
X39725Y-53775D01*
X39725Y-53775D02*
X39125Y-53775D01*
X39125Y-53775D02*
X39125Y-53375D01*
X39125Y-52975D02*
X39125Y-52575D01*
X39125Y-52575D02*
X39725Y-52575D01*
X39725Y-52575D02*
X39725Y-52975D01*
X39775Y-55575D02*
G75*
G03X39775Y-55575I-50J0D01*
G74*
G01*
X39725Y-55125D02*
X39725Y-55525D01*
X39725Y-55525D02*
X39125Y-55525D01*
X39125Y-55525D02*
X39125Y-55125D01*
X39125Y-54725D02*
X39125Y-54325D01*
X39125Y-54325D02*
X39725Y-54325D01*
X39725Y-54325D02*
X39725Y-54725D01*
X39825Y-50625D02*
G75*
G03X39825Y-50625I-50J0D01*
G74*
G01*
X39775Y-50175D02*
X39775Y-50575D01*
X39775Y-50575D02*
X39175Y-50575D01*
X39175Y-50575D02*
X39175Y-50175D01*
X39175Y-49775D02*
X39175Y-49375D01*
X39175Y-49375D02*
X39775Y-49375D01*
X39775Y-49375D02*
X39775Y-49775D01*
X39775Y-52075D02*
G75*
G03X39775Y-52075I-50J0D01*
G74*
G01*
X39725Y-51625D02*
X39725Y-52025D01*
X39725Y-52025D02*
X39125Y-52025D01*
X39125Y-52025D02*
X39125Y-51625D01*
X39125Y-51225D02*
X39125Y-50825D01*
X39125Y-50825D02*
X39725Y-50825D01*
X39725Y-50825D02*
X39725Y-51225D01*
G54D14*
X30966Y-61471D02*
X32934Y-61471D01*
X32934Y-61471D02*
X32934Y-51530D01*
X32934Y-51530D02*
X30966Y-51530D01*
X30966Y-51530D02*
X30966Y-61471D01*
G54D15*
X50500Y-57500D02*
X47500Y-57500D01*
X50500Y-51500D02*
X47500Y-51500D01*
X50000Y-57500D02*
X50000Y-51500D01*
X47500Y-57500D02*
X47500Y-51500D01*
X50500Y-57500D02*
X50500Y-51500D01*
X50000Y-57500D02*
X50000Y-61500D01*
X50500Y-57500D02*
X47500Y-57500D01*
X47500Y-57500D02*
X47500Y-61500D01*
X47500Y-61500D02*
X50500Y-61500D01*
X50500Y-61500D02*
X50500Y-57500D01*
X50000Y-47500D02*
X50000Y-51500D01*
X50500Y-47500D02*
X47500Y-47500D01*
X47500Y-47500D02*
X47500Y-51500D01*
X47500Y-51500D02*
X50500Y-51500D01*
X50500Y-51500D02*
X50500Y-47500D01*
G54D14*
X34816Y-61471D02*
X36784Y-61471D01*
X36784Y-61471D02*
X36784Y-51530D01*
X36784Y-51530D02*
X34816Y-51530D01*
X34816Y-51530D02*
X34816Y-61471D01*
G54D15*
X39000Y-47250D02*
X39000Y-50250D01*
X33000Y-47250D02*
X33000Y-50250D01*
X39000Y-47750D02*
X33000Y-47750D01*
X39000Y-50250D02*
X33000Y-50250D01*
X39000Y-47250D02*
X33000Y-47250D01*
G54D11*
X41460Y-58330D02*
X42020Y-58330D01*
X41390Y-59600D02*
X41390Y-58790D01*
X42110Y-58790D02*
X42110Y-59600D01*
X41460Y-60060D02*
X42020Y-60060D01*
X42020Y-59630D02*
X42020Y-60050D01*
X41460Y-60050D02*
X41460Y-59620D01*
X41460Y-58770D02*
X41460Y-58330D01*
X42020Y-58340D02*
X42020Y-58770D01*
X41390Y-59610D02*
X42110Y-59610D01*
X41390Y-58950D02*
X42110Y-58950D01*
X42110Y-58790D02*
X41390Y-58790D01*
G54D14*
X38650Y-60800D02*
G75*
G03X38650Y-60800I-50J0D01*
G74*
G01*
X39050Y-60800D02*
X38650Y-60800D01*
X38650Y-60800D02*
X38650Y-60200D01*
X38650Y-60200D02*
X39050Y-60200D01*
X39450Y-60200D02*
X39850Y-60200D01*
X39850Y-60200D02*
X39850Y-60800D01*
X39850Y-60800D02*
X39450Y-60800D01*
G54D16*
X40868Y-60154D02*
X40996Y-60154D01*
X40996Y-60154D02*
X40996Y-59957D01*
X40868Y-59957D02*
X40996Y-59957D01*
X40868Y-60154D02*
X40868Y-59957D01*
X40623Y-60154D02*
X40682Y-60154D01*
X40682Y-60154D02*
X40682Y-60055D01*
X40623Y-60055D02*
X40682Y-60055D01*
X40623Y-60154D02*
X40623Y-60055D01*
X40818Y-60154D02*
X40877Y-60154D01*
X40877Y-60154D02*
X40877Y-60055D01*
X40818Y-60055D02*
X40877Y-60055D01*
X40818Y-60154D02*
X40818Y-60055D01*
X40672Y-60154D02*
X40828Y-60154D01*
X40828Y-60154D02*
X40828Y-60085D01*
X40672Y-60085D02*
X40828Y-60085D01*
X40672Y-60154D02*
X40672Y-60085D01*
X40868Y-60743D02*
X40996Y-60743D01*
X40996Y-60743D02*
X40996Y-60546D01*
X40868Y-60546D02*
X40996Y-60546D01*
X40868Y-60743D02*
X40868Y-60546D01*
X40504Y-60743D02*
X40632Y-60743D01*
X40632Y-60743D02*
X40632Y-60546D01*
X40504Y-60546D02*
X40632Y-60546D01*
X40504Y-60743D02*
X40504Y-60546D01*
X40818Y-60645D02*
X40877Y-60645D01*
X40877Y-60645D02*
X40877Y-60546D01*
X40818Y-60546D02*
X40877Y-60546D01*
X40818Y-60645D02*
X40818Y-60546D01*
X40623Y-60645D02*
X40682Y-60645D01*
X40682Y-60645D02*
X40682Y-60546D01*
X40623Y-60546D02*
X40682Y-60546D01*
X40623Y-60645D02*
X40623Y-60546D01*
X40672Y-60615D02*
X40828Y-60615D01*
X40828Y-60615D02*
X40828Y-60546D01*
X40672Y-60546D02*
X40828Y-60546D01*
X40672Y-60615D02*
X40672Y-60546D01*
X40711Y-60350D02*
X40789Y-60350D01*
X40789Y-60350D02*
X40789Y-60272D01*
X40711Y-60272D02*
X40789Y-60272D01*
X40711Y-60350D02*
X40711Y-60272D01*
X40514Y-60154D02*
X40632Y-60154D01*
X40632Y-60154D02*
X40632Y-60036D01*
X40514Y-60036D02*
X40632Y-60036D01*
X40514Y-60154D02*
X40514Y-60036D01*
X40504Y-59986D02*
X40593Y-59986D01*
X40593Y-59986D02*
X40593Y-59957D01*
X40504Y-59957D02*
X40593Y-59957D01*
X40504Y-59986D02*
X40504Y-59957D01*
G54D17*
X40976Y-60144D02*
X40976Y-60556D01*
X40524Y-60546D02*
X40524Y-59986D01*
G54D18*
X40601Y-60016D02*
G75*
G03X40601Y-60016I-28J0D01*
G74*
G01*
G54D17*
X40613Y-59957D02*
G75*
G03X40887Y-59957I137J0D01*
G74*
G01*
X40887Y-60743D02*
G75*
G03X40613Y-60743I-137J0D01*
G74*
G01*
G54D14*
X37800Y-52000D02*
G75*
G03X37800Y-52000I-50J0D01*
G74*
G01*
X37750Y-52450D02*
X37750Y-52050D01*
X37750Y-52050D02*
X38350Y-52050D01*
X38350Y-52050D02*
X38350Y-52450D01*
X38350Y-52850D02*
X38350Y-53250D01*
X38350Y-53250D02*
X37750Y-53250D01*
X37750Y-53250D02*
X37750Y-52850D01*
X37900Y-53550D02*
G75*
G03X37900Y-53550I-50J0D01*
G74*
G01*
X37850Y-54000D02*
X37850Y-53600D01*
X37850Y-53600D02*
X38450Y-53600D01*
X38450Y-53600D02*
X38450Y-54000D01*
X38450Y-54400D02*
X38450Y-54800D01*
X38450Y-54800D02*
X37850Y-54800D01*
X37850Y-54800D02*
X37850Y-54400D01*
X38100Y-54850D02*
G75*
G03X38100Y-54850I-50J0D01*
G74*
G01*
X38050Y-55300D02*
X38050Y-54900D01*
X38050Y-54900D02*
X38650Y-54900D01*
X38650Y-54900D02*
X38650Y-55300D01*
X38650Y-55700D02*
X38650Y-56100D01*
X38650Y-56100D02*
X38050Y-56100D01*
X38050Y-56100D02*
X38050Y-55700D01*
X38250Y-56150D02*
G75*
G03X38250Y-56150I-50J0D01*
G74*
G01*
X38200Y-56600D02*
X38200Y-56200D01*
X38200Y-56200D02*
X38800Y-56200D01*
X38800Y-56200D02*
X38800Y-56600D01*
X38800Y-57000D02*
X38800Y-57400D01*
X38800Y-57400D02*
X38200Y-57400D01*
X38200Y-57400D02*
X38200Y-57000D01*
X38300Y-57500D02*
G75*
G03X38300Y-57500I-50J0D01*
G74*
G01*
X38250Y-57950D02*
X38250Y-57550D01*
X38250Y-57550D02*
X38850Y-57550D01*
X38850Y-57550D02*
X38850Y-57950D01*
X38850Y-58350D02*
X38850Y-58750D01*
X38850Y-58750D02*
X38250Y-58750D01*
X38250Y-58750D02*
X38250Y-58350D01*
X38550Y-58800D02*
G75*
G03X38550Y-58800I-50J0D01*
G74*
G01*
X38500Y-59250D02*
X38500Y-58850D01*
X38500Y-58850D02*
X39100Y-58850D01*
X39100Y-58850D02*
X39100Y-59250D01*
X39100Y-59650D02*
X39100Y-60050D01*
X39100Y-60050D02*
X38500Y-60050D01*
X38500Y-60050D02*
X38500Y-59650D01*
G54D19*
X40957Y-53225D02*
X40914Y-53203D01*
X40871Y-53160D01*
X40807Y-53096D01*
X40764Y-53075D01*
X40721Y-53075D01*
X40742Y-53182D02*
X40700Y-53160D01*
X40657Y-53117D01*
X40635Y-53032D01*
X40635Y-52882D01*
X40657Y-52796D01*
X40700Y-52753D01*
X40742Y-52732D01*
X40828Y-52732D01*
X40871Y-52753D01*
X40914Y-52796D01*
X40935Y-52882D01*
X40935Y-53032D01*
X40914Y-53117D01*
X40871Y-53160D01*
X40828Y-53182D01*
X40742Y-53182D01*
X41321Y-52882D02*
X41321Y-53182D01*
X41214Y-52710D02*
X41107Y-53032D01*
X41385Y-53032D01*
X43382Y-58000D02*
X43339Y-57978D01*
X43296Y-57935D01*
X43232Y-57871D01*
X43189Y-57850D01*
X43146Y-57850D01*
X43167Y-57957D02*
X43125Y-57935D01*
X43082Y-57892D01*
X43060Y-57807D01*
X43060Y-57657D01*
X43082Y-57571D01*
X43125Y-57528D01*
X43167Y-57507D01*
X43253Y-57507D01*
X43296Y-57528D01*
X43339Y-57571D01*
X43360Y-57657D01*
X43360Y-57807D01*
X43339Y-57892D01*
X43296Y-57935D01*
X43253Y-57957D01*
X43167Y-57957D01*
X43789Y-57957D02*
X43532Y-57957D01*
X43660Y-57957D02*
X43660Y-57507D01*
X43617Y-57571D01*
X43575Y-57614D01*
X43532Y-57635D01*
X40957Y-56225D02*
X40914Y-56203D01*
X40871Y-56160D01*
X40807Y-56096D01*
X40764Y-56075D01*
X40721Y-56075D01*
X40742Y-56182D02*
X40700Y-56160D01*
X40657Y-56117D01*
X40635Y-56032D01*
X40635Y-55882D01*
X40657Y-55796D01*
X40700Y-55753D01*
X40742Y-55732D01*
X40828Y-55732D01*
X40871Y-55753D01*
X40914Y-55796D01*
X40935Y-55882D01*
X40935Y-56032D01*
X40914Y-56117D01*
X40871Y-56160D01*
X40828Y-56182D01*
X40742Y-56182D01*
X41107Y-55775D02*
X41128Y-55753D01*
X41171Y-55732D01*
X41278Y-55732D01*
X41321Y-55753D01*
X41342Y-55775D01*
X41364Y-55817D01*
X41364Y-55860D01*
X41342Y-55925D01*
X41085Y-56182D01*
X41364Y-56182D01*
X43382Y-55000D02*
X43339Y-54978D01*
X43296Y-54935D01*
X43232Y-54871D01*
X43189Y-54850D01*
X43146Y-54850D01*
X43167Y-54957D02*
X43125Y-54935D01*
X43082Y-54892D01*
X43060Y-54807D01*
X43060Y-54657D01*
X43082Y-54571D01*
X43125Y-54528D01*
X43167Y-54507D01*
X43253Y-54507D01*
X43296Y-54528D01*
X43339Y-54571D01*
X43360Y-54657D01*
X43360Y-54807D01*
X43339Y-54892D01*
X43296Y-54935D01*
X43253Y-54957D01*
X43167Y-54957D01*
X43510Y-54507D02*
X43789Y-54507D01*
X43639Y-54678D01*
X43703Y-54678D01*
X43746Y-54700D01*
X43767Y-54721D01*
X43789Y-54764D01*
X43789Y-54871D01*
X43767Y-54914D01*
X43746Y-54935D01*
X43703Y-54957D01*
X43575Y-54957D01*
X43532Y-54935D01*
X43510Y-54914D01*
X41207Y-50225D02*
X41164Y-50203D01*
X41121Y-50160D01*
X41057Y-50096D01*
X41014Y-50075D01*
X40971Y-50075D01*
X40992Y-50182D02*
X40950Y-50160D01*
X40907Y-50117D01*
X40885Y-50032D01*
X40885Y-49882D01*
X40907Y-49796D01*
X40950Y-49753D01*
X40992Y-49732D01*
X41078Y-49732D01*
X41121Y-49753D01*
X41164Y-49796D01*
X41185Y-49882D01*
X41185Y-50032D01*
X41164Y-50117D01*
X41121Y-50160D01*
X41078Y-50182D01*
X40992Y-50182D01*
X41571Y-49732D02*
X41485Y-49732D01*
X41442Y-49753D01*
X41421Y-49775D01*
X41378Y-49839D01*
X41357Y-49925D01*
X41357Y-50096D01*
X41378Y-50139D01*
X41400Y-50160D01*
X41442Y-50182D01*
X41528Y-50182D01*
X41571Y-50160D01*
X41592Y-50139D01*
X41614Y-50096D01*
X41614Y-49989D01*
X41592Y-49946D01*
X41571Y-49925D01*
X41528Y-49903D01*
X41442Y-49903D01*
X41400Y-49925D01*
X41378Y-49946D01*
X41357Y-49989D01*
X43382Y-52000D02*
X43339Y-51978D01*
X43296Y-51935D01*
X43232Y-51871D01*
X43189Y-51850D01*
X43146Y-51850D01*
X43167Y-51957D02*
X43125Y-51935D01*
X43082Y-51892D01*
X43060Y-51807D01*
X43060Y-51657D01*
X43082Y-51571D01*
X43125Y-51528D01*
X43167Y-51507D01*
X43253Y-51507D01*
X43296Y-51528D01*
X43339Y-51571D01*
X43360Y-51657D01*
X43360Y-51807D01*
X43339Y-51892D01*
X43296Y-51935D01*
X43253Y-51957D01*
X43167Y-51957D01*
X43767Y-51507D02*
X43553Y-51507D01*
X43532Y-51721D01*
X43553Y-51700D01*
X43596Y-51678D01*
X43703Y-51678D01*
X43746Y-51700D01*
X43767Y-51721D01*
X43789Y-51764D01*
X43789Y-51871D01*
X43767Y-51914D01*
X43746Y-51935D01*
X43703Y-51957D01*
X43596Y-51957D01*
X43553Y-51935D01*
X43532Y-51914D01*
G54D11*
X39296Y-58005D02*
X39229Y-57910D01*
X39182Y-58005D02*
X39182Y-57805D01*
X39258Y-57805D01*
X39277Y-57815D01*
X39286Y-57825D01*
X39296Y-57844D01*
X39296Y-57872D01*
X39286Y-57891D01*
X39277Y-57901D01*
X39258Y-57910D01*
X39182Y-57910D01*
X39486Y-58005D02*
X39372Y-58005D01*
X39429Y-58005D02*
X39429Y-57805D01*
X39410Y-57834D01*
X39391Y-57853D01*
X39372Y-57863D01*
X39553Y-57805D02*
X39677Y-57805D01*
X39610Y-57882D01*
X39639Y-57882D01*
X39658Y-57891D01*
X39667Y-57901D01*
X39677Y-57920D01*
X39677Y-57967D01*
X39667Y-57986D01*
X39658Y-57996D01*
X39639Y-58005D01*
X39582Y-58005D01*
X39563Y-57996D01*
X39553Y-57986D01*
X39296Y-56505D02*
X39229Y-56410D01*
X39182Y-56505D02*
X39182Y-56305D01*
X39258Y-56305D01*
X39277Y-56315D01*
X39286Y-56325D01*
X39296Y-56344D01*
X39296Y-56372D01*
X39286Y-56391D01*
X39277Y-56401D01*
X39258Y-56410D01*
X39182Y-56410D01*
X39486Y-56505D02*
X39372Y-56505D01*
X39429Y-56505D02*
X39429Y-56305D01*
X39410Y-56334D01*
X39391Y-56353D01*
X39372Y-56363D01*
X39658Y-56372D02*
X39658Y-56505D01*
X39610Y-56296D02*
X39563Y-56439D01*
X39686Y-56439D01*
X39296Y-53255D02*
X39229Y-53160D01*
X39182Y-53255D02*
X39182Y-53055D01*
X39258Y-53055D01*
X39277Y-53065D01*
X39286Y-53075D01*
X39296Y-53094D01*
X39296Y-53122D01*
X39286Y-53141D01*
X39277Y-53151D01*
X39258Y-53160D01*
X39182Y-53160D01*
X39486Y-53255D02*
X39372Y-53255D01*
X39429Y-53255D02*
X39429Y-53055D01*
X39410Y-53084D01*
X39391Y-53103D01*
X39372Y-53113D01*
X39658Y-53055D02*
X39620Y-53055D01*
X39601Y-53065D01*
X39591Y-53075D01*
X39572Y-53103D01*
X39563Y-53141D01*
X39563Y-53217D01*
X39572Y-53236D01*
X39582Y-53246D01*
X39601Y-53255D01*
X39639Y-53255D01*
X39658Y-53246D01*
X39667Y-53236D01*
X39677Y-53217D01*
X39677Y-53170D01*
X39667Y-53151D01*
X39658Y-53141D01*
X39639Y-53132D01*
X39601Y-53132D01*
X39582Y-53141D01*
X39572Y-53151D01*
X39563Y-53170D01*
X39296Y-55005D02*
X39229Y-54910D01*
X39182Y-55005D02*
X39182Y-54805D01*
X39258Y-54805D01*
X39277Y-54815D01*
X39286Y-54825D01*
X39296Y-54844D01*
X39296Y-54872D01*
X39286Y-54891D01*
X39277Y-54901D01*
X39258Y-54910D01*
X39182Y-54910D01*
X39486Y-55005D02*
X39372Y-55005D01*
X39429Y-55005D02*
X39429Y-54805D01*
X39410Y-54834D01*
X39391Y-54853D01*
X39372Y-54863D01*
X39667Y-54805D02*
X39572Y-54805D01*
X39563Y-54901D01*
X39572Y-54891D01*
X39591Y-54882D01*
X39639Y-54882D01*
X39658Y-54891D01*
X39667Y-54901D01*
X39677Y-54920D01*
X39677Y-54967D01*
X39667Y-54986D01*
X39658Y-54996D01*
X39639Y-55005D01*
X39591Y-55005D01*
X39572Y-54996D01*
X39563Y-54986D01*
X39346Y-50055D02*
X39279Y-49960D01*
X39232Y-50055D02*
X39232Y-49855D01*
X39308Y-49855D01*
X39327Y-49865D01*
X39336Y-49875D01*
X39346Y-49894D01*
X39346Y-49922D01*
X39336Y-49941D01*
X39327Y-49951D01*
X39308Y-49960D01*
X39232Y-49960D01*
X39536Y-50055D02*
X39422Y-50055D01*
X39479Y-50055D02*
X39479Y-49855D01*
X39460Y-49884D01*
X39441Y-49903D01*
X39422Y-49913D01*
X39651Y-49941D02*
X39632Y-49932D01*
X39622Y-49922D01*
X39613Y-49903D01*
X39613Y-49894D01*
X39622Y-49875D01*
X39632Y-49865D01*
X39651Y-49855D01*
X39689Y-49855D01*
X39708Y-49865D01*
X39717Y-49875D01*
X39727Y-49894D01*
X39727Y-49903D01*
X39717Y-49922D01*
X39708Y-49932D01*
X39689Y-49941D01*
X39651Y-49941D01*
X39632Y-49951D01*
X39622Y-49960D01*
X39613Y-49979D01*
X39613Y-50017D01*
X39622Y-50036D01*
X39632Y-50046D01*
X39651Y-50055D01*
X39689Y-50055D01*
X39708Y-50046D01*
X39717Y-50036D01*
X39727Y-50017D01*
X39727Y-49979D01*
X39717Y-49960D01*
X39708Y-49951D01*
X39689Y-49941D01*
X39296Y-51505D02*
X39229Y-51410D01*
X39182Y-51505D02*
X39182Y-51305D01*
X39258Y-51305D01*
X39277Y-51315D01*
X39286Y-51325D01*
X39296Y-51344D01*
X39296Y-51372D01*
X39286Y-51391D01*
X39277Y-51401D01*
X39258Y-51410D01*
X39182Y-51410D01*
X39486Y-51505D02*
X39372Y-51505D01*
X39429Y-51505D02*
X39429Y-51305D01*
X39410Y-51334D01*
X39391Y-51353D01*
X39372Y-51363D01*
X39553Y-51305D02*
X39686Y-51305D01*
X39601Y-51505D01*
G54D12*
X32661Y-51295D02*
X32261Y-51295D01*
X32261Y-51142D01*
X32280Y-51104D01*
X32300Y-51085D01*
X32338Y-51066D01*
X32395Y-51066D01*
X32433Y-51085D01*
X32452Y-51104D01*
X32471Y-51142D01*
X32471Y-51295D01*
X32661Y-50685D02*
X32661Y-50914D01*
X32661Y-50799D02*
X32261Y-50799D01*
X32319Y-50838D01*
X32357Y-50876D01*
X32376Y-50914D01*
X47704Y-52161D02*
X47704Y-51761D01*
X47857Y-51761D01*
X47895Y-51780D01*
X47914Y-51800D01*
X47933Y-51838D01*
X47933Y-51895D01*
X47914Y-51933D01*
X47895Y-51952D01*
X47857Y-51971D01*
X47704Y-51971D01*
X48066Y-51761D02*
X48314Y-51761D01*
X48180Y-51914D01*
X48238Y-51914D01*
X48276Y-51933D01*
X48295Y-51952D01*
X48314Y-51990D01*
X48314Y-52085D01*
X48295Y-52123D01*
X48276Y-52142D01*
X48238Y-52161D01*
X48123Y-52161D01*
X48085Y-52142D01*
X48066Y-52123D01*
X47654Y-59911D02*
X47654Y-59511D01*
X47807Y-59511D01*
X47845Y-59530D01*
X47864Y-59550D01*
X47883Y-59588D01*
X47883Y-59645D01*
X47864Y-59683D01*
X47845Y-59702D01*
X47807Y-59721D01*
X47654Y-59721D01*
X48035Y-59550D02*
X48054Y-59530D01*
X48092Y-59511D01*
X48188Y-59511D01*
X48226Y-59530D01*
X48245Y-59550D01*
X48264Y-59588D01*
X48264Y-59626D01*
X48245Y-59683D01*
X48016Y-59911D01*
X48264Y-59911D01*
X47704Y-49711D02*
X47704Y-49311D01*
X47857Y-49311D01*
X47895Y-49330D01*
X47914Y-49350D01*
X47933Y-49388D01*
X47933Y-49445D01*
X47914Y-49483D01*
X47895Y-49502D01*
X47857Y-49521D01*
X47704Y-49521D01*
X48276Y-49445D02*
X48276Y-49711D01*
X48180Y-49292D02*
X48085Y-49578D01*
X48333Y-49578D01*
X35161Y-51295D02*
X34761Y-51295D01*
X34761Y-51142D01*
X34780Y-51104D01*
X34800Y-51085D01*
X34838Y-51066D01*
X34895Y-51066D01*
X34933Y-51085D01*
X34952Y-51104D01*
X34971Y-51142D01*
X34971Y-51295D01*
X34761Y-50933D02*
X34761Y-50666D01*
X35161Y-50838D01*
X32204Y-50011D02*
X32204Y-49611D01*
X32357Y-49611D01*
X32395Y-49630D01*
X32414Y-49650D01*
X32433Y-49688D01*
X32433Y-49745D01*
X32414Y-49783D01*
X32395Y-49802D01*
X32357Y-49821D01*
X32204Y-49821D01*
X32795Y-49611D02*
X32604Y-49611D01*
X32585Y-49802D01*
X32604Y-49783D01*
X32642Y-49764D01*
X32738Y-49764D01*
X32776Y-49783D01*
X32795Y-49802D01*
X32814Y-49840D01*
X32814Y-49935D01*
X32795Y-49973D01*
X32776Y-49992D01*
X32738Y-50011D01*
X32642Y-50011D01*
X32604Y-49992D01*
X32585Y-49973D01*
G54D11*
X41670Y-59367D02*
X41470Y-59367D01*
X41470Y-59320D01*
X41480Y-59291D01*
X41499Y-59272D01*
X41518Y-59262D01*
X41556Y-59253D01*
X41585Y-59253D01*
X41623Y-59262D01*
X41642Y-59272D01*
X41661Y-59291D01*
X41670Y-59320D01*
X41670Y-59367D01*
X41490Y-59177D02*
X41480Y-59167D01*
X41470Y-59148D01*
X41470Y-59100D01*
X41480Y-59081D01*
X41490Y-59072D01*
X41509Y-59062D01*
X41528Y-59062D01*
X41556Y-59072D01*
X41670Y-59186D01*
X41670Y-59062D01*
X39330Y-61083D02*
X39235Y-61150D01*
X39330Y-61197D02*
X39130Y-61197D01*
X39130Y-61121D01*
X39140Y-61102D01*
X39150Y-61092D01*
X39169Y-61083D01*
X39197Y-61083D01*
X39216Y-61092D01*
X39226Y-61102D01*
X39235Y-61121D01*
X39235Y-61197D01*
X39330Y-60892D02*
X39330Y-61007D01*
X39330Y-60950D02*
X39130Y-60950D01*
X39159Y-60969D01*
X39178Y-60988D01*
X39188Y-61007D01*
X40380Y-59797D02*
X40180Y-59797D01*
X40180Y-59750D01*
X40190Y-59721D01*
X40209Y-59702D01*
X40228Y-59692D01*
X40266Y-59683D01*
X40295Y-59683D01*
X40333Y-59692D01*
X40352Y-59702D01*
X40371Y-59721D01*
X40380Y-59750D01*
X40380Y-59797D01*
X40380Y-59492D02*
X40380Y-59607D01*
X40380Y-59550D02*
X40180Y-59550D01*
X40209Y-59569D01*
X40228Y-59588D01*
X40238Y-59607D01*
X41330Y-60478D02*
X41330Y-60573D01*
X41130Y-60573D01*
X41226Y-60411D02*
X41226Y-60345D01*
X41330Y-60316D02*
X41330Y-60411D01*
X41130Y-60411D01*
X41130Y-60316D01*
X41330Y-60230D02*
X41130Y-60230D01*
X41130Y-60183D01*
X41140Y-60154D01*
X41159Y-60135D01*
X41178Y-60126D01*
X41216Y-60116D01*
X41245Y-60116D01*
X41283Y-60126D01*
X41302Y-60135D01*
X41321Y-60154D01*
X41330Y-60183D01*
X41330Y-60230D01*
G54D20*
X38142Y-52729D02*
X38076Y-52635D01*
X38029Y-52729D02*
X38029Y-52532D01*
X38104Y-52532D01*
X38123Y-52542D01*
X38132Y-52551D01*
X38142Y-52570D01*
X38142Y-52598D01*
X38132Y-52617D01*
X38123Y-52626D01*
X38104Y-52635D01*
X38029Y-52635D01*
X38311Y-52598D02*
X38311Y-52729D01*
X38264Y-52523D02*
X38217Y-52664D01*
X38339Y-52664D01*
X38242Y-54279D02*
X38176Y-54185D01*
X38129Y-54279D02*
X38129Y-54082D01*
X38204Y-54082D01*
X38223Y-54092D01*
X38232Y-54101D01*
X38242Y-54120D01*
X38242Y-54148D01*
X38232Y-54167D01*
X38223Y-54176D01*
X38204Y-54185D01*
X38129Y-54185D01*
X38307Y-54082D02*
X38439Y-54082D01*
X38354Y-54279D01*
X38442Y-55579D02*
X38376Y-55485D01*
X38329Y-55579D02*
X38329Y-55382D01*
X38404Y-55382D01*
X38423Y-55392D01*
X38432Y-55401D01*
X38442Y-55420D01*
X38442Y-55448D01*
X38432Y-55467D01*
X38423Y-55476D01*
X38404Y-55485D01*
X38329Y-55485D01*
X38620Y-55382D02*
X38526Y-55382D01*
X38517Y-55476D01*
X38526Y-55467D01*
X38545Y-55457D01*
X38592Y-55457D01*
X38611Y-55467D01*
X38620Y-55476D01*
X38629Y-55495D01*
X38629Y-55542D01*
X38620Y-55560D01*
X38611Y-55570D01*
X38592Y-55579D01*
X38545Y-55579D01*
X38526Y-55570D01*
X38517Y-55560D01*
X38592Y-56879D02*
X38526Y-56785D01*
X38479Y-56879D02*
X38479Y-56682D01*
X38554Y-56682D01*
X38573Y-56692D01*
X38582Y-56701D01*
X38592Y-56720D01*
X38592Y-56748D01*
X38582Y-56767D01*
X38573Y-56776D01*
X38554Y-56785D01*
X38479Y-56785D01*
X38704Y-56767D02*
X38685Y-56757D01*
X38676Y-56748D01*
X38667Y-56729D01*
X38667Y-56720D01*
X38676Y-56701D01*
X38685Y-56692D01*
X38704Y-56682D01*
X38742Y-56682D01*
X38761Y-56692D01*
X38770Y-56701D01*
X38779Y-56720D01*
X38779Y-56729D01*
X38770Y-56748D01*
X38761Y-56757D01*
X38742Y-56767D01*
X38704Y-56767D01*
X38685Y-56776D01*
X38676Y-56785D01*
X38667Y-56804D01*
X38667Y-56842D01*
X38676Y-56860D01*
X38685Y-56870D01*
X38704Y-56879D01*
X38742Y-56879D01*
X38761Y-56870D01*
X38770Y-56860D01*
X38779Y-56842D01*
X38779Y-56804D01*
X38770Y-56785D01*
X38761Y-56776D01*
X38742Y-56767D01*
X38642Y-58229D02*
X38576Y-58135D01*
X38529Y-58229D02*
X38529Y-58032D01*
X38604Y-58032D01*
X38623Y-58042D01*
X38632Y-58051D01*
X38642Y-58070D01*
X38642Y-58098D01*
X38632Y-58117D01*
X38623Y-58126D01*
X38604Y-58135D01*
X38529Y-58135D01*
X38811Y-58032D02*
X38773Y-58032D01*
X38754Y-58042D01*
X38745Y-58051D01*
X38726Y-58079D01*
X38717Y-58117D01*
X38717Y-58192D01*
X38726Y-58210D01*
X38735Y-58220D01*
X38754Y-58229D01*
X38792Y-58229D01*
X38811Y-58220D01*
X38820Y-58210D01*
X38829Y-58192D01*
X38829Y-58145D01*
X38820Y-58126D01*
X38811Y-58117D01*
X38792Y-58107D01*
X38754Y-58107D01*
X38735Y-58117D01*
X38726Y-58126D01*
X38717Y-58145D01*
X38892Y-59529D02*
X38826Y-59435D01*
X38779Y-59529D02*
X38779Y-59332D01*
X38854Y-59332D01*
X38873Y-59342D01*
X38882Y-59351D01*
X38892Y-59370D01*
X38892Y-59398D01*
X38882Y-59417D01*
X38873Y-59426D01*
X38854Y-59435D01*
X38779Y-59435D01*
X38985Y-59529D02*
X39023Y-59529D01*
X39042Y-59520D01*
X39051Y-59510D01*
X39070Y-59482D01*
X39079Y-59445D01*
X39079Y-59370D01*
X39070Y-59351D01*
X39061Y-59342D01*
X39042Y-59332D01*
X39004Y-59332D01*
X38985Y-59342D01*
X38976Y-59351D01*
X38967Y-59370D01*
X38967Y-59417D01*
X38976Y-59435D01*
X38985Y-59445D01*
X39004Y-59454D01*
X39042Y-59454D01*
X39061Y-59445D01*
X39070Y-59435D01*
X39079Y-59417D01*
M02*
