G04 (created by PCBNEW (2013-07-07 BZR 4022)-stable) date 28/01/2014 16:49:45*
%MOIN*%
G04 Gerber Fmt 3.4, Leading zero omitted, Abs format*
%FSLAX34Y34*%
G01*
G70*
G90*
G04 APERTURE LIST*
%ADD10C,0.00590551*%
%ADD11C,0.005*%
%ADD12C,0.00984252*%
%ADD13C,0.015*%
%ADD14C,0.00295276*%
%ADD15C,0.0045*%
%ADD16C,0.01*%
%ADD17C,0.008*%
%ADD18C,0.0001*%
%ADD19C,0.012*%
G04 APERTURE END LIST*
G54D10*
G54D11*
X49367Y-67905D02*
X49367Y-67705D01*
X49291Y-67705D01*
X49272Y-67715D01*
X49263Y-67725D01*
X49253Y-67744D01*
X49253Y-67772D01*
X49263Y-67791D01*
X49272Y-67801D01*
X49291Y-67810D01*
X49367Y-67810D01*
X49101Y-67801D02*
X49072Y-67810D01*
X49063Y-67820D01*
X49053Y-67839D01*
X49053Y-67867D01*
X49063Y-67886D01*
X49072Y-67896D01*
X49091Y-67905D01*
X49167Y-67905D01*
X49167Y-67705D01*
X49101Y-67705D01*
X49082Y-67715D01*
X49072Y-67725D01*
X49063Y-67744D01*
X49063Y-67763D01*
X49072Y-67782D01*
X49082Y-67791D01*
X49101Y-67801D01*
X49167Y-67801D01*
X48863Y-67905D02*
X48977Y-67905D01*
X48920Y-67905D02*
X48920Y-67705D01*
X48939Y-67734D01*
X48958Y-67753D01*
X48977Y-67763D01*
X48796Y-67705D02*
X48672Y-67705D01*
X48739Y-67782D01*
X48710Y-67782D01*
X48691Y-67791D01*
X48682Y-67801D01*
X48672Y-67820D01*
X48672Y-67867D01*
X48682Y-67886D01*
X48691Y-67896D01*
X48710Y-67905D01*
X48767Y-67905D01*
X48786Y-67896D01*
X48796Y-67886D01*
X49367Y-68855D02*
X49367Y-68655D01*
X49291Y-68655D01*
X49272Y-68665D01*
X49263Y-68675D01*
X49253Y-68694D01*
X49253Y-68722D01*
X49263Y-68741D01*
X49272Y-68751D01*
X49291Y-68760D01*
X49367Y-68760D01*
X49101Y-68751D02*
X49072Y-68760D01*
X49063Y-68770D01*
X49053Y-68789D01*
X49053Y-68817D01*
X49063Y-68836D01*
X49072Y-68846D01*
X49091Y-68855D01*
X49167Y-68855D01*
X49167Y-68655D01*
X49101Y-68655D01*
X49082Y-68665D01*
X49072Y-68675D01*
X49063Y-68694D01*
X49063Y-68713D01*
X49072Y-68732D01*
X49082Y-68741D01*
X49101Y-68751D01*
X49167Y-68751D01*
X48863Y-68855D02*
X48977Y-68855D01*
X48920Y-68855D02*
X48920Y-68655D01*
X48939Y-68684D01*
X48958Y-68703D01*
X48977Y-68713D01*
X48682Y-68655D02*
X48777Y-68655D01*
X48786Y-68751D01*
X48777Y-68741D01*
X48758Y-68732D01*
X48710Y-68732D01*
X48691Y-68741D01*
X48682Y-68751D01*
X48672Y-68770D01*
X48672Y-68817D01*
X48682Y-68836D01*
X48691Y-68846D01*
X48710Y-68855D01*
X48758Y-68855D01*
X48777Y-68846D01*
X48786Y-68836D01*
X49297Y-69930D02*
X49297Y-69730D01*
X49221Y-69730D01*
X49202Y-69740D01*
X49192Y-69750D01*
X49183Y-69769D01*
X49183Y-69797D01*
X49192Y-69816D01*
X49202Y-69826D01*
X49221Y-69835D01*
X49297Y-69835D01*
X49097Y-69930D02*
X49097Y-69730D01*
X49050Y-69730D01*
X49021Y-69740D01*
X49002Y-69759D01*
X48992Y-69778D01*
X48983Y-69816D01*
X48983Y-69845D01*
X48992Y-69883D01*
X49002Y-69902D01*
X49021Y-69921D01*
X49050Y-69930D01*
X49097Y-69930D01*
X48888Y-69930D02*
X48850Y-69930D01*
X48830Y-69921D01*
X48821Y-69911D01*
X48802Y-69883D01*
X48792Y-69845D01*
X48792Y-69769D01*
X48802Y-69750D01*
X48811Y-69740D01*
X48830Y-69730D01*
X48869Y-69730D01*
X48888Y-69740D01*
X48897Y-69750D01*
X48907Y-69769D01*
X48907Y-69816D01*
X48897Y-69835D01*
X48888Y-69845D01*
X48869Y-69854D01*
X48830Y-69854D01*
X48811Y-69845D01*
X48802Y-69835D01*
X48792Y-69816D01*
X49342Y-70905D02*
X49342Y-70705D01*
X49266Y-70705D01*
X49247Y-70715D01*
X49238Y-70725D01*
X49228Y-70744D01*
X49228Y-70772D01*
X49238Y-70791D01*
X49247Y-70801D01*
X49266Y-70810D01*
X49342Y-70810D01*
X49142Y-70905D02*
X49142Y-70705D01*
X49095Y-70705D01*
X49066Y-70715D01*
X49047Y-70734D01*
X49038Y-70753D01*
X49028Y-70791D01*
X49028Y-70820D01*
X49038Y-70858D01*
X49047Y-70877D01*
X49066Y-70896D01*
X49095Y-70905D01*
X49142Y-70905D01*
X48838Y-70905D02*
X48952Y-70905D01*
X48895Y-70905D02*
X48895Y-70705D01*
X48914Y-70734D01*
X48933Y-70753D01*
X48952Y-70763D01*
X48647Y-70905D02*
X48761Y-70905D01*
X48704Y-70905D02*
X48704Y-70705D01*
X48723Y-70734D01*
X48742Y-70753D01*
X48761Y-70763D01*
X49222Y-72005D02*
X49222Y-71805D01*
X49146Y-71805D01*
X49127Y-71815D01*
X49117Y-71825D01*
X49108Y-71844D01*
X49108Y-71872D01*
X49117Y-71891D01*
X49127Y-71901D01*
X49146Y-71910D01*
X49222Y-71910D01*
X49022Y-72005D02*
X49022Y-71805D01*
X48975Y-71805D01*
X48946Y-71815D01*
X48927Y-71834D01*
X48917Y-71853D01*
X48908Y-71891D01*
X48908Y-71920D01*
X48917Y-71958D01*
X48927Y-71977D01*
X48946Y-71996D01*
X48975Y-72005D01*
X49022Y-72005D01*
X48794Y-71891D02*
X48813Y-71882D01*
X48822Y-71872D01*
X48832Y-71853D01*
X48832Y-71844D01*
X48822Y-71825D01*
X48813Y-71815D01*
X48794Y-71805D01*
X48755Y-71805D01*
X48736Y-71815D01*
X48727Y-71825D01*
X48717Y-71844D01*
X48717Y-71853D01*
X48727Y-71872D01*
X48736Y-71882D01*
X48755Y-71891D01*
X48794Y-71891D01*
X48813Y-71901D01*
X48822Y-71910D01*
X48832Y-71929D01*
X48832Y-71967D01*
X48822Y-71986D01*
X48813Y-71996D01*
X48794Y-72005D01*
X48755Y-72005D01*
X48736Y-71996D01*
X48727Y-71986D01*
X48717Y-71967D01*
X48717Y-71929D01*
X48727Y-71910D01*
X48736Y-71901D01*
X48755Y-71891D01*
X53867Y-74155D02*
X53867Y-73955D01*
X53791Y-73955D01*
X53772Y-73965D01*
X53763Y-73975D01*
X53753Y-73994D01*
X53753Y-74022D01*
X53763Y-74041D01*
X53772Y-74051D01*
X53791Y-74060D01*
X53867Y-74060D01*
X53601Y-74051D02*
X53572Y-74060D01*
X53563Y-74070D01*
X53553Y-74089D01*
X53553Y-74117D01*
X53563Y-74136D01*
X53572Y-74146D01*
X53591Y-74155D01*
X53667Y-74155D01*
X53667Y-73955D01*
X53601Y-73955D01*
X53582Y-73965D01*
X53572Y-73975D01*
X53563Y-73994D01*
X53563Y-74013D01*
X53572Y-74032D01*
X53582Y-74041D01*
X53601Y-74051D01*
X53667Y-74051D01*
X53363Y-74155D02*
X53477Y-74155D01*
X53420Y-74155D02*
X53420Y-73955D01*
X53439Y-73984D01*
X53458Y-74003D01*
X53477Y-74013D01*
X53239Y-73955D02*
X53220Y-73955D01*
X53201Y-73965D01*
X53191Y-73975D01*
X53182Y-73994D01*
X53172Y-74032D01*
X53172Y-74079D01*
X53182Y-74117D01*
X53191Y-74136D01*
X53201Y-74146D01*
X53220Y-74155D01*
X53239Y-74155D01*
X53258Y-74146D01*
X53267Y-74136D01*
X53277Y-74117D01*
X53286Y-74079D01*
X53286Y-74032D01*
X53277Y-73994D01*
X53267Y-73975D01*
X53258Y-73965D01*
X53239Y-73955D01*
X52817Y-74130D02*
X52817Y-73930D01*
X52741Y-73930D01*
X52722Y-73940D01*
X52713Y-73950D01*
X52703Y-73969D01*
X52703Y-73997D01*
X52713Y-74016D01*
X52722Y-74026D01*
X52741Y-74035D01*
X52817Y-74035D01*
X52551Y-74026D02*
X52522Y-74035D01*
X52513Y-74045D01*
X52503Y-74064D01*
X52503Y-74092D01*
X52513Y-74111D01*
X52522Y-74121D01*
X52541Y-74130D01*
X52617Y-74130D01*
X52617Y-73930D01*
X52551Y-73930D01*
X52532Y-73940D01*
X52522Y-73950D01*
X52513Y-73969D01*
X52513Y-73988D01*
X52522Y-74007D01*
X52532Y-74016D01*
X52551Y-74026D01*
X52617Y-74026D01*
X52313Y-74130D02*
X52427Y-74130D01*
X52370Y-74130D02*
X52370Y-73930D01*
X52389Y-73959D01*
X52408Y-73978D01*
X52427Y-73988D01*
X52141Y-73997D02*
X52141Y-74130D01*
X52189Y-73921D02*
X52236Y-74064D01*
X52113Y-74064D01*
X51127Y-74565D02*
X51146Y-74555D01*
X51175Y-74555D01*
X51203Y-74565D01*
X51222Y-74584D01*
X51232Y-74603D01*
X51241Y-74641D01*
X51241Y-74670D01*
X51232Y-74708D01*
X51222Y-74727D01*
X51203Y-74746D01*
X51175Y-74755D01*
X51155Y-74755D01*
X51127Y-74746D01*
X51117Y-74736D01*
X51117Y-74670D01*
X51155Y-74670D01*
X51032Y-74755D02*
X51032Y-74555D01*
X50917Y-74755D01*
X50917Y-74555D01*
X50822Y-74755D02*
X50822Y-74555D01*
X50775Y-74555D01*
X50746Y-74565D01*
X50727Y-74584D01*
X50717Y-74603D01*
X50708Y-74641D01*
X50708Y-74670D01*
X50717Y-74708D01*
X50727Y-74727D01*
X50746Y-74746D01*
X50775Y-74755D01*
X50822Y-74755D01*
X50077Y-74565D02*
X50096Y-74555D01*
X50125Y-74555D01*
X50153Y-74565D01*
X50172Y-74584D01*
X50182Y-74603D01*
X50191Y-74641D01*
X50191Y-74670D01*
X50182Y-74708D01*
X50172Y-74727D01*
X50153Y-74746D01*
X50125Y-74755D01*
X50105Y-74755D01*
X50077Y-74746D01*
X50067Y-74736D01*
X50067Y-74670D01*
X50105Y-74670D01*
X49982Y-74755D02*
X49982Y-74555D01*
X49867Y-74755D01*
X49867Y-74555D01*
X49772Y-74755D02*
X49772Y-74555D01*
X49725Y-74555D01*
X49696Y-74565D01*
X49677Y-74584D01*
X49667Y-74603D01*
X49658Y-74641D01*
X49658Y-74670D01*
X49667Y-74708D01*
X49677Y-74727D01*
X49696Y-74746D01*
X49725Y-74755D01*
X49772Y-74755D01*
X49392Y-73080D02*
X49392Y-72880D01*
X49316Y-72880D01*
X49297Y-72890D01*
X49288Y-72900D01*
X49278Y-72919D01*
X49278Y-72947D01*
X49288Y-72966D01*
X49297Y-72976D01*
X49316Y-72985D01*
X49392Y-72985D01*
X49192Y-73080D02*
X49192Y-72880D01*
X49145Y-72880D01*
X49116Y-72890D01*
X49097Y-72909D01*
X49088Y-72928D01*
X49078Y-72966D01*
X49078Y-72995D01*
X49088Y-73033D01*
X49097Y-73052D01*
X49116Y-73071D01*
X49145Y-73080D01*
X49192Y-73080D01*
X48888Y-73080D02*
X49002Y-73080D01*
X48945Y-73080D02*
X48945Y-72880D01*
X48964Y-72909D01*
X48983Y-72928D01*
X49002Y-72938D01*
X48764Y-72880D02*
X48745Y-72880D01*
X48726Y-72890D01*
X48716Y-72900D01*
X48707Y-72919D01*
X48697Y-72957D01*
X48697Y-73004D01*
X48707Y-73042D01*
X48716Y-73061D01*
X48726Y-73071D01*
X48745Y-73080D01*
X48764Y-73080D01*
X48783Y-73071D01*
X48792Y-73061D01*
X48802Y-73042D01*
X48811Y-73004D01*
X48811Y-72957D01*
X48802Y-72919D01*
X48792Y-72900D01*
X48783Y-72890D01*
X48764Y-72880D01*
X49077Y-73840D02*
X49096Y-73830D01*
X49125Y-73830D01*
X49153Y-73840D01*
X49172Y-73859D01*
X49182Y-73878D01*
X49191Y-73916D01*
X49191Y-73945D01*
X49182Y-73983D01*
X49172Y-74002D01*
X49153Y-74021D01*
X49125Y-74030D01*
X49105Y-74030D01*
X49077Y-74021D01*
X49067Y-74011D01*
X49067Y-73945D01*
X49105Y-73945D01*
X48982Y-74030D02*
X48982Y-73830D01*
X48867Y-74030D01*
X48867Y-73830D01*
X48772Y-74030D02*
X48772Y-73830D01*
X48725Y-73830D01*
X48696Y-73840D01*
X48677Y-73859D01*
X48667Y-73878D01*
X48658Y-73916D01*
X48658Y-73945D01*
X48667Y-73983D01*
X48677Y-74002D01*
X48696Y-74021D01*
X48725Y-74030D01*
X48772Y-74030D01*
X48102Y-74590D02*
X48121Y-74580D01*
X48150Y-74580D01*
X48178Y-74590D01*
X48197Y-74609D01*
X48207Y-74628D01*
X48216Y-74666D01*
X48216Y-74695D01*
X48207Y-74733D01*
X48197Y-74752D01*
X48178Y-74771D01*
X48150Y-74780D01*
X48130Y-74780D01*
X48102Y-74771D01*
X48092Y-74761D01*
X48092Y-74695D01*
X48130Y-74695D01*
X48007Y-74780D02*
X48007Y-74580D01*
X47892Y-74780D01*
X47892Y-74580D01*
X47797Y-74780D02*
X47797Y-74580D01*
X47750Y-74580D01*
X47721Y-74590D01*
X47702Y-74609D01*
X47692Y-74628D01*
X47683Y-74666D01*
X47683Y-74695D01*
X47692Y-74733D01*
X47702Y-74752D01*
X47721Y-74771D01*
X47750Y-74780D01*
X47797Y-74780D01*
X49342Y-66880D02*
X49342Y-66680D01*
X49266Y-66680D01*
X49247Y-66690D01*
X49238Y-66700D01*
X49228Y-66719D01*
X49228Y-66747D01*
X49238Y-66766D01*
X49247Y-66776D01*
X49266Y-66785D01*
X49342Y-66785D01*
X49076Y-66776D02*
X49047Y-66785D01*
X49038Y-66795D01*
X49028Y-66814D01*
X49028Y-66842D01*
X49038Y-66861D01*
X49047Y-66871D01*
X49066Y-66880D01*
X49142Y-66880D01*
X49142Y-66680D01*
X49076Y-66680D01*
X49057Y-66690D01*
X49047Y-66700D01*
X49038Y-66719D01*
X49038Y-66738D01*
X49047Y-66757D01*
X49057Y-66766D01*
X49076Y-66776D01*
X49142Y-66776D01*
X48838Y-66880D02*
X48952Y-66880D01*
X48895Y-66880D02*
X48895Y-66680D01*
X48914Y-66709D01*
X48933Y-66728D01*
X48952Y-66738D01*
X48647Y-66880D02*
X48761Y-66880D01*
X48704Y-66880D02*
X48704Y-66680D01*
X48723Y-66709D01*
X48742Y-66728D01*
X48761Y-66738D01*
X49383Y-65880D02*
X49383Y-65680D01*
X49307Y-65680D01*
X49288Y-65690D01*
X49278Y-65700D01*
X49269Y-65719D01*
X49269Y-65747D01*
X49278Y-65766D01*
X49288Y-65776D01*
X49307Y-65785D01*
X49383Y-65785D01*
X49183Y-65776D02*
X49116Y-65776D01*
X49088Y-65880D02*
X49183Y-65880D01*
X49183Y-65680D01*
X49088Y-65680D01*
X48897Y-65880D02*
X49011Y-65880D01*
X48954Y-65880D02*
X48954Y-65680D01*
X48973Y-65709D01*
X48992Y-65728D01*
X49011Y-65738D01*
X48716Y-65680D02*
X48811Y-65680D01*
X48821Y-65776D01*
X48811Y-65766D01*
X48792Y-65757D01*
X48745Y-65757D01*
X48726Y-65766D01*
X48716Y-65776D01*
X48707Y-65795D01*
X48707Y-65842D01*
X48716Y-65861D01*
X48726Y-65871D01*
X48745Y-65880D01*
X48792Y-65880D01*
X48811Y-65871D01*
X48821Y-65861D01*
X49358Y-64880D02*
X49358Y-64680D01*
X49282Y-64680D01*
X49263Y-64690D01*
X49253Y-64700D01*
X49244Y-64719D01*
X49244Y-64747D01*
X49253Y-64766D01*
X49263Y-64776D01*
X49282Y-64785D01*
X49358Y-64785D01*
X49158Y-64776D02*
X49091Y-64776D01*
X49063Y-64880D02*
X49158Y-64880D01*
X49158Y-64680D01*
X49063Y-64680D01*
X48872Y-64880D02*
X48986Y-64880D01*
X48929Y-64880D02*
X48929Y-64680D01*
X48948Y-64709D01*
X48967Y-64728D01*
X48986Y-64738D01*
X48805Y-64680D02*
X48682Y-64680D01*
X48748Y-64757D01*
X48720Y-64757D01*
X48701Y-64766D01*
X48691Y-64776D01*
X48682Y-64795D01*
X48682Y-64842D01*
X48691Y-64861D01*
X48701Y-64871D01*
X48720Y-64880D01*
X48777Y-64880D01*
X48796Y-64871D01*
X48805Y-64861D01*
X49333Y-63905D02*
X49333Y-63705D01*
X49257Y-63705D01*
X49238Y-63715D01*
X49228Y-63725D01*
X49219Y-63744D01*
X49219Y-63772D01*
X49228Y-63791D01*
X49238Y-63801D01*
X49257Y-63810D01*
X49333Y-63810D01*
X49133Y-63801D02*
X49066Y-63801D01*
X49038Y-63905D02*
X49133Y-63905D01*
X49133Y-63705D01*
X49038Y-63705D01*
X48847Y-63905D02*
X48961Y-63905D01*
X48904Y-63905D02*
X48904Y-63705D01*
X48923Y-63734D01*
X48942Y-63753D01*
X48961Y-63763D01*
X48657Y-63905D02*
X48771Y-63905D01*
X48714Y-63905D02*
X48714Y-63705D01*
X48733Y-63734D01*
X48752Y-63753D01*
X48771Y-63763D01*
X49263Y-62905D02*
X49263Y-62705D01*
X49186Y-62705D01*
X49167Y-62715D01*
X49158Y-62725D01*
X49148Y-62744D01*
X49148Y-62772D01*
X49158Y-62791D01*
X49167Y-62801D01*
X49186Y-62810D01*
X49263Y-62810D01*
X49063Y-62801D02*
X48996Y-62801D01*
X48967Y-62905D02*
X49063Y-62905D01*
X49063Y-62705D01*
X48967Y-62705D01*
X48872Y-62905D02*
X48834Y-62905D01*
X48815Y-62896D01*
X48805Y-62886D01*
X48786Y-62858D01*
X48777Y-62820D01*
X48777Y-62744D01*
X48786Y-62725D01*
X48796Y-62715D01*
X48815Y-62705D01*
X48853Y-62705D01*
X48872Y-62715D01*
X48882Y-62725D01*
X48891Y-62744D01*
X48891Y-62791D01*
X48882Y-62810D01*
X48872Y-62820D01*
X48853Y-62829D01*
X48815Y-62829D01*
X48796Y-62820D01*
X48786Y-62810D01*
X48777Y-62791D01*
X48061Y-42230D02*
X48061Y-42030D01*
X47976Y-42173D02*
X47880Y-42173D01*
X47995Y-42230D02*
X47928Y-42030D01*
X47861Y-42230D01*
X47823Y-42030D02*
X47709Y-42030D01*
X47766Y-42230D02*
X47766Y-42030D01*
X61078Y-36930D02*
X61173Y-36930D01*
X61183Y-37026D01*
X61173Y-37016D01*
X61154Y-37007D01*
X61107Y-37007D01*
X61088Y-37016D01*
X61078Y-37026D01*
X61069Y-37045D01*
X61069Y-37092D01*
X61078Y-37111D01*
X61088Y-37121D01*
X61107Y-37130D01*
X61154Y-37130D01*
X61173Y-37121D01*
X61183Y-37111D01*
X61002Y-36997D02*
X60954Y-37130D01*
X60907Y-36997D01*
X60128Y-36930D02*
X60223Y-36930D01*
X60233Y-37026D01*
X60223Y-37016D01*
X60204Y-37007D01*
X60157Y-37007D01*
X60138Y-37016D01*
X60128Y-37026D01*
X60119Y-37045D01*
X60119Y-37092D01*
X60128Y-37111D01*
X60138Y-37121D01*
X60157Y-37130D01*
X60204Y-37130D01*
X60223Y-37121D01*
X60233Y-37111D01*
X60052Y-36997D02*
X60004Y-37130D01*
X59957Y-36997D01*
X59128Y-36930D02*
X59223Y-36930D01*
X59233Y-37026D01*
X59223Y-37016D01*
X59204Y-37007D01*
X59157Y-37007D01*
X59138Y-37016D01*
X59128Y-37026D01*
X59119Y-37045D01*
X59119Y-37092D01*
X59128Y-37111D01*
X59138Y-37121D01*
X59157Y-37130D01*
X59204Y-37130D01*
X59223Y-37121D01*
X59233Y-37111D01*
X59052Y-36997D02*
X59004Y-37130D01*
X58957Y-36997D01*
X48020Y-41286D02*
X48029Y-41296D01*
X48058Y-41305D01*
X48077Y-41305D01*
X48105Y-41296D01*
X48125Y-41277D01*
X48134Y-41258D01*
X48144Y-41220D01*
X48144Y-41191D01*
X48134Y-41153D01*
X48125Y-41134D01*
X48105Y-41115D01*
X48077Y-41105D01*
X48058Y-41105D01*
X48029Y-41115D01*
X48020Y-41125D01*
X47839Y-41305D02*
X47934Y-41305D01*
X47934Y-41105D01*
X47801Y-41105D02*
X47686Y-41105D01*
X47744Y-41305D02*
X47744Y-41105D01*
X48177Y-44130D02*
X48063Y-44130D01*
X48120Y-44330D02*
X48120Y-44130D01*
X47996Y-44330D02*
X47996Y-44130D01*
X47920Y-44130D01*
X47901Y-44140D01*
X47891Y-44150D01*
X47882Y-44169D01*
X47882Y-44197D01*
X47891Y-44216D01*
X47901Y-44226D01*
X47920Y-44235D01*
X47996Y-44235D01*
X47805Y-44321D02*
X47777Y-44330D01*
X47729Y-44330D01*
X47710Y-44321D01*
X47701Y-44311D01*
X47691Y-44292D01*
X47691Y-44273D01*
X47701Y-44254D01*
X47710Y-44245D01*
X47729Y-44235D01*
X47767Y-44226D01*
X47786Y-44216D01*
X47796Y-44207D01*
X47805Y-44188D01*
X47805Y-44169D01*
X47796Y-44150D01*
X47786Y-44140D01*
X47767Y-44130D01*
X47720Y-44130D01*
X47691Y-44140D01*
X48552Y-48140D02*
X48571Y-48130D01*
X48600Y-48130D01*
X48628Y-48140D01*
X48647Y-48159D01*
X48657Y-48178D01*
X48666Y-48216D01*
X48666Y-48245D01*
X48657Y-48283D01*
X48647Y-48302D01*
X48628Y-48321D01*
X48600Y-48330D01*
X48580Y-48330D01*
X48552Y-48321D01*
X48542Y-48311D01*
X48542Y-48245D01*
X48580Y-48245D01*
X48457Y-48330D02*
X48457Y-48130D01*
X48342Y-48330D01*
X48342Y-48130D01*
X48247Y-48330D02*
X48247Y-48130D01*
X48200Y-48130D01*
X48171Y-48140D01*
X48152Y-48159D01*
X48142Y-48178D01*
X48133Y-48216D01*
X48133Y-48245D01*
X48142Y-48283D01*
X48152Y-48302D01*
X48171Y-48321D01*
X48200Y-48330D01*
X48247Y-48330D01*
X51202Y-49140D02*
X51221Y-49130D01*
X51250Y-49130D01*
X51278Y-49140D01*
X51297Y-49159D01*
X51307Y-49178D01*
X51316Y-49216D01*
X51316Y-49245D01*
X51307Y-49283D01*
X51297Y-49302D01*
X51278Y-49321D01*
X51250Y-49330D01*
X51230Y-49330D01*
X51202Y-49321D01*
X51192Y-49311D01*
X51192Y-49245D01*
X51230Y-49245D01*
X51107Y-49330D02*
X51107Y-49130D01*
X50992Y-49330D01*
X50992Y-49130D01*
X50897Y-49330D02*
X50897Y-49130D01*
X50850Y-49130D01*
X50821Y-49140D01*
X50802Y-49159D01*
X50792Y-49178D01*
X50783Y-49216D01*
X50783Y-49245D01*
X50792Y-49283D01*
X50802Y-49302D01*
X50821Y-49321D01*
X50850Y-49330D01*
X50897Y-49330D01*
X50152Y-49140D02*
X50171Y-49130D01*
X50200Y-49130D01*
X50228Y-49140D01*
X50247Y-49159D01*
X50257Y-49178D01*
X50266Y-49216D01*
X50266Y-49245D01*
X50257Y-49283D01*
X50247Y-49302D01*
X50228Y-49321D01*
X50200Y-49330D01*
X50180Y-49330D01*
X50152Y-49321D01*
X50142Y-49311D01*
X50142Y-49245D01*
X50180Y-49245D01*
X50057Y-49330D02*
X50057Y-49130D01*
X49942Y-49330D01*
X49942Y-49130D01*
X49847Y-49330D02*
X49847Y-49130D01*
X49800Y-49130D01*
X49771Y-49140D01*
X49752Y-49159D01*
X49742Y-49178D01*
X49733Y-49216D01*
X49733Y-49245D01*
X49742Y-49283D01*
X49752Y-49302D01*
X49771Y-49321D01*
X49800Y-49330D01*
X49847Y-49330D01*
X48697Y-53330D02*
X48697Y-53130D01*
X48621Y-53130D01*
X48602Y-53140D01*
X48592Y-53150D01*
X48583Y-53169D01*
X48583Y-53197D01*
X48592Y-53216D01*
X48602Y-53226D01*
X48621Y-53235D01*
X48697Y-53235D01*
X48383Y-53311D02*
X48392Y-53321D01*
X48421Y-53330D01*
X48440Y-53330D01*
X48469Y-53321D01*
X48488Y-53302D01*
X48497Y-53283D01*
X48507Y-53245D01*
X48507Y-53216D01*
X48497Y-53178D01*
X48488Y-53159D01*
X48469Y-53140D01*
X48440Y-53130D01*
X48421Y-53130D01*
X48392Y-53140D01*
X48383Y-53150D01*
X48259Y-53130D02*
X48240Y-53130D01*
X48221Y-53140D01*
X48211Y-53150D01*
X48202Y-53169D01*
X48192Y-53207D01*
X48192Y-53254D01*
X48202Y-53292D01*
X48211Y-53311D01*
X48221Y-53321D01*
X48240Y-53330D01*
X48259Y-53330D01*
X48278Y-53321D01*
X48288Y-53311D01*
X48297Y-53292D01*
X48307Y-53254D01*
X48307Y-53207D01*
X48297Y-53169D01*
X48288Y-53150D01*
X48278Y-53140D01*
X48259Y-53130D01*
X48602Y-50715D02*
X48621Y-50705D01*
X48650Y-50705D01*
X48678Y-50715D01*
X48697Y-50734D01*
X48707Y-50753D01*
X48716Y-50791D01*
X48716Y-50820D01*
X48707Y-50858D01*
X48697Y-50877D01*
X48678Y-50896D01*
X48650Y-50905D01*
X48630Y-50905D01*
X48602Y-50896D01*
X48592Y-50886D01*
X48592Y-50820D01*
X48630Y-50820D01*
X48507Y-50905D02*
X48507Y-50705D01*
X48392Y-50905D01*
X48392Y-50705D01*
X48297Y-50905D02*
X48297Y-50705D01*
X48250Y-50705D01*
X48221Y-50715D01*
X48202Y-50734D01*
X48192Y-50753D01*
X48183Y-50791D01*
X48183Y-50820D01*
X48192Y-50858D01*
X48202Y-50877D01*
X48221Y-50896D01*
X48250Y-50905D01*
X48297Y-50905D01*
X84792Y-67389D02*
X84850Y-67389D01*
X84878Y-67403D01*
X84892Y-67418D01*
X84921Y-67460D01*
X84935Y-67518D01*
X84935Y-67632D01*
X84921Y-67660D01*
X84907Y-67675D01*
X84878Y-67689D01*
X84821Y-67689D01*
X84792Y-67675D01*
X84778Y-67660D01*
X84764Y-67632D01*
X84764Y-67560D01*
X84778Y-67532D01*
X84792Y-67518D01*
X84821Y-67503D01*
X84878Y-67503D01*
X84907Y-67518D01*
X84921Y-67532D01*
X84935Y-67560D01*
X72814Y-68789D02*
X72985Y-68789D01*
X72900Y-68789D02*
X72900Y-68489D01*
X72928Y-68532D01*
X72957Y-68560D01*
X72985Y-68575D01*
X79521Y-67760D02*
X79535Y-67775D01*
X79578Y-67789D01*
X79607Y-67789D01*
X79649Y-67775D01*
X79678Y-67746D01*
X79692Y-67718D01*
X79707Y-67660D01*
X79707Y-67618D01*
X79692Y-67560D01*
X79678Y-67532D01*
X79649Y-67503D01*
X79607Y-67489D01*
X79578Y-67489D01*
X79535Y-67503D01*
X79521Y-67518D01*
X79249Y-67789D02*
X79392Y-67789D01*
X79392Y-67489D01*
X79149Y-67789D02*
X79149Y-67489D01*
X78978Y-67789D02*
X79107Y-67618D01*
X78978Y-67489D02*
X79149Y-67660D01*
X78621Y-67789D02*
X78621Y-67489D01*
X78521Y-67703D01*
X78421Y-67489D01*
X78421Y-67789D01*
X78278Y-67789D02*
X78278Y-67489D01*
X78149Y-67775D02*
X78107Y-67789D01*
X78035Y-67789D01*
X78007Y-67775D01*
X77992Y-67760D01*
X77978Y-67732D01*
X77978Y-67703D01*
X77992Y-67675D01*
X78007Y-67660D01*
X78035Y-67646D01*
X78092Y-67632D01*
X78121Y-67618D01*
X78135Y-67603D01*
X78149Y-67575D01*
X78149Y-67546D01*
X78135Y-67518D01*
X78121Y-67503D01*
X78092Y-67489D01*
X78021Y-67489D01*
X77978Y-67503D01*
X77792Y-67489D02*
X77735Y-67489D01*
X77707Y-67503D01*
X77678Y-67532D01*
X77664Y-67589D01*
X77664Y-67689D01*
X77678Y-67746D01*
X77707Y-67775D01*
X77735Y-67789D01*
X77792Y-67789D01*
X77821Y-67775D01*
X77849Y-67746D01*
X77864Y-67689D01*
X77864Y-67589D01*
X77849Y-67532D01*
X77821Y-67503D01*
X77792Y-67489D01*
X77135Y-67760D02*
X77150Y-67775D01*
X77192Y-67789D01*
X77221Y-67789D01*
X77264Y-67775D01*
X77292Y-67746D01*
X77307Y-67718D01*
X77321Y-67660D01*
X77321Y-67618D01*
X77307Y-67560D01*
X77292Y-67532D01*
X77264Y-67503D01*
X77221Y-67489D01*
X77192Y-67489D01*
X77150Y-67503D01*
X77135Y-67518D01*
X77021Y-67775D02*
X76978Y-67789D01*
X76907Y-67789D01*
X76878Y-67775D01*
X76864Y-67760D01*
X76850Y-67732D01*
X76850Y-67703D01*
X76864Y-67675D01*
X76878Y-67660D01*
X76907Y-67646D01*
X76964Y-67632D01*
X76992Y-67618D01*
X77007Y-67603D01*
X77021Y-67575D01*
X77021Y-67546D01*
X77007Y-67518D01*
X76992Y-67503D01*
X76964Y-67489D01*
X76892Y-67489D01*
X76850Y-67503D01*
X76735Y-67518D02*
X76721Y-67503D01*
X76692Y-67489D01*
X76621Y-67489D01*
X76592Y-67503D01*
X76578Y-67518D01*
X76564Y-67546D01*
X76564Y-67575D01*
X76578Y-67618D01*
X76750Y-67789D01*
X76564Y-67789D01*
X76064Y-67489D02*
X76207Y-67489D01*
X76221Y-67632D01*
X76207Y-67618D01*
X76178Y-67603D01*
X76107Y-67603D01*
X76078Y-67618D01*
X76064Y-67632D01*
X76050Y-67660D01*
X76050Y-67732D01*
X76064Y-67760D01*
X76078Y-67775D01*
X76107Y-67789D01*
X76178Y-67789D01*
X76207Y-67775D01*
X76221Y-67760D01*
X75964Y-67489D02*
X75864Y-67789D01*
X75764Y-67489D01*
X75464Y-67489D02*
X75278Y-67489D01*
X75378Y-67603D01*
X75335Y-67603D01*
X75307Y-67618D01*
X75292Y-67632D01*
X75278Y-67660D01*
X75278Y-67732D01*
X75292Y-67760D01*
X75307Y-67775D01*
X75335Y-67789D01*
X75421Y-67789D01*
X75450Y-67775D01*
X75464Y-67760D01*
X75150Y-67760D02*
X75135Y-67775D01*
X75150Y-67789D01*
X75164Y-67775D01*
X75150Y-67760D01*
X75150Y-67789D01*
X75035Y-67489D02*
X74850Y-67489D01*
X74950Y-67603D01*
X74907Y-67603D01*
X74878Y-67618D01*
X74864Y-67632D01*
X74850Y-67660D01*
X74850Y-67732D01*
X74864Y-67760D01*
X74878Y-67775D01*
X74907Y-67789D01*
X74992Y-67789D01*
X75021Y-67775D01*
X75035Y-67760D01*
X74764Y-67489D02*
X74664Y-67789D01*
X74564Y-67489D01*
X79721Y-65410D02*
X79735Y-65425D01*
X79778Y-65439D01*
X79807Y-65439D01*
X79849Y-65425D01*
X79878Y-65396D01*
X79892Y-65368D01*
X79907Y-65310D01*
X79907Y-65268D01*
X79892Y-65210D01*
X79878Y-65182D01*
X79849Y-65153D01*
X79807Y-65139D01*
X79778Y-65139D01*
X79735Y-65153D01*
X79721Y-65168D01*
X79607Y-65425D02*
X79564Y-65439D01*
X79492Y-65439D01*
X79464Y-65425D01*
X79449Y-65410D01*
X79435Y-65382D01*
X79435Y-65353D01*
X79449Y-65325D01*
X79464Y-65310D01*
X79492Y-65296D01*
X79549Y-65282D01*
X79578Y-65268D01*
X79592Y-65253D01*
X79607Y-65225D01*
X79607Y-65196D01*
X79592Y-65168D01*
X79578Y-65153D01*
X79549Y-65139D01*
X79478Y-65139D01*
X79435Y-65153D01*
X79178Y-65239D02*
X79178Y-65439D01*
X79249Y-65125D02*
X79321Y-65339D01*
X79135Y-65339D01*
X78792Y-65439D02*
X78792Y-65139D01*
X78692Y-65353D01*
X78592Y-65139D01*
X78592Y-65439D01*
X78392Y-65139D02*
X78335Y-65139D01*
X78307Y-65153D01*
X78278Y-65182D01*
X78264Y-65239D01*
X78264Y-65339D01*
X78278Y-65396D01*
X78307Y-65425D01*
X78335Y-65439D01*
X78392Y-65439D01*
X78421Y-65425D01*
X78449Y-65396D01*
X78464Y-65339D01*
X78464Y-65239D01*
X78449Y-65182D01*
X78421Y-65153D01*
X78392Y-65139D01*
X78149Y-65425D02*
X78107Y-65439D01*
X78035Y-65439D01*
X78007Y-65425D01*
X77992Y-65410D01*
X77978Y-65382D01*
X77978Y-65353D01*
X77992Y-65325D01*
X78007Y-65310D01*
X78035Y-65296D01*
X78092Y-65282D01*
X78121Y-65268D01*
X78135Y-65253D01*
X78149Y-65225D01*
X78149Y-65196D01*
X78135Y-65168D01*
X78121Y-65153D01*
X78092Y-65139D01*
X78021Y-65139D01*
X77978Y-65153D01*
X77849Y-65439D02*
X77849Y-65139D01*
X77307Y-65410D02*
X77321Y-65425D01*
X77364Y-65439D01*
X77392Y-65439D01*
X77435Y-65425D01*
X77464Y-65396D01*
X77478Y-65368D01*
X77492Y-65310D01*
X77492Y-65268D01*
X77478Y-65210D01*
X77464Y-65182D01*
X77435Y-65153D01*
X77392Y-65139D01*
X77364Y-65139D01*
X77321Y-65153D01*
X77307Y-65168D01*
X77192Y-65425D02*
X77150Y-65439D01*
X77078Y-65439D01*
X77050Y-65425D01*
X77035Y-65410D01*
X77021Y-65382D01*
X77021Y-65353D01*
X77035Y-65325D01*
X77050Y-65310D01*
X77078Y-65296D01*
X77135Y-65282D01*
X77164Y-65268D01*
X77178Y-65253D01*
X77192Y-65225D01*
X77192Y-65196D01*
X77178Y-65168D01*
X77164Y-65153D01*
X77135Y-65139D01*
X77064Y-65139D01*
X77021Y-65153D01*
X76921Y-65139D02*
X76735Y-65139D01*
X76835Y-65253D01*
X76792Y-65253D01*
X76764Y-65268D01*
X76750Y-65282D01*
X76735Y-65310D01*
X76735Y-65382D01*
X76750Y-65410D01*
X76764Y-65425D01*
X76792Y-65439D01*
X76878Y-65439D01*
X76907Y-65425D01*
X76921Y-65410D01*
X76207Y-65410D02*
X76221Y-65425D01*
X76264Y-65439D01*
X76292Y-65439D01*
X76335Y-65425D01*
X76364Y-65396D01*
X76378Y-65368D01*
X76392Y-65310D01*
X76392Y-65268D01*
X76378Y-65210D01*
X76364Y-65182D01*
X76335Y-65153D01*
X76292Y-65139D01*
X76264Y-65139D01*
X76221Y-65153D01*
X76207Y-65168D01*
X76092Y-65425D02*
X76050Y-65439D01*
X75978Y-65439D01*
X75950Y-65425D01*
X75935Y-65410D01*
X75921Y-65382D01*
X75921Y-65353D01*
X75935Y-65325D01*
X75950Y-65310D01*
X75978Y-65296D01*
X76035Y-65282D01*
X76064Y-65268D01*
X76078Y-65253D01*
X76092Y-65225D01*
X76092Y-65196D01*
X76078Y-65168D01*
X76064Y-65153D01*
X76035Y-65139D01*
X75964Y-65139D01*
X75921Y-65153D01*
X75635Y-65439D02*
X75807Y-65439D01*
X75721Y-65439D02*
X75721Y-65139D01*
X75750Y-65182D01*
X75778Y-65210D01*
X75807Y-65225D01*
X75121Y-65153D02*
X75150Y-65139D01*
X75192Y-65139D01*
X75235Y-65153D01*
X75264Y-65182D01*
X75278Y-65210D01*
X75292Y-65268D01*
X75292Y-65310D01*
X75278Y-65368D01*
X75264Y-65396D01*
X75235Y-65425D01*
X75192Y-65439D01*
X75164Y-65439D01*
X75121Y-65425D01*
X75107Y-65410D01*
X75107Y-65310D01*
X75164Y-65310D01*
X74978Y-65439D02*
X74978Y-65139D01*
X74807Y-65439D01*
X74807Y-65139D01*
X74664Y-65439D02*
X74664Y-65139D01*
X74592Y-65139D01*
X74550Y-65153D01*
X74521Y-65182D01*
X74507Y-65210D01*
X74492Y-65268D01*
X74492Y-65310D01*
X74507Y-65368D01*
X74521Y-65396D01*
X74550Y-65425D01*
X74592Y-65439D01*
X74664Y-65439D01*
X81242Y-74510D02*
X81257Y-74525D01*
X81299Y-74539D01*
X81328Y-74539D01*
X81371Y-74525D01*
X81399Y-74496D01*
X81414Y-74468D01*
X81428Y-74410D01*
X81428Y-74368D01*
X81414Y-74310D01*
X81399Y-74282D01*
X81371Y-74253D01*
X81328Y-74239D01*
X81299Y-74239D01*
X81257Y-74253D01*
X81242Y-74268D01*
X81128Y-74525D02*
X81085Y-74539D01*
X81014Y-74539D01*
X80985Y-74525D01*
X80971Y-74510D01*
X80957Y-74482D01*
X80957Y-74453D01*
X80971Y-74425D01*
X80985Y-74410D01*
X81014Y-74396D01*
X81071Y-74382D01*
X81099Y-74368D01*
X81114Y-74353D01*
X81128Y-74325D01*
X81128Y-74296D01*
X81114Y-74268D01*
X81099Y-74253D01*
X81071Y-74239D01*
X80999Y-74239D01*
X80957Y-74253D01*
X80842Y-74268D02*
X80828Y-74253D01*
X80799Y-74239D01*
X80728Y-74239D01*
X80699Y-74253D01*
X80685Y-74268D01*
X80671Y-74296D01*
X80671Y-74325D01*
X80685Y-74368D01*
X80857Y-74539D01*
X80671Y-74539D01*
X79942Y-74239D02*
X80085Y-74239D01*
X80100Y-74382D01*
X80085Y-74368D01*
X80057Y-74353D01*
X79985Y-74353D01*
X79957Y-74368D01*
X79942Y-74382D01*
X79928Y-74410D01*
X79928Y-74482D01*
X79942Y-74510D01*
X79957Y-74525D01*
X79985Y-74539D01*
X80057Y-74539D01*
X80085Y-74525D01*
X80100Y-74510D01*
X79842Y-74239D02*
X79742Y-74539D01*
X79642Y-74239D01*
X79342Y-74239D02*
X79157Y-74239D01*
X79257Y-74353D01*
X79214Y-74353D01*
X79185Y-74368D01*
X79171Y-74382D01*
X79157Y-74410D01*
X79157Y-74482D01*
X79171Y-74510D01*
X79185Y-74525D01*
X79214Y-74539D01*
X79300Y-74539D01*
X79328Y-74525D01*
X79342Y-74510D01*
X79028Y-74510D02*
X79014Y-74525D01*
X79028Y-74539D01*
X79042Y-74525D01*
X79028Y-74510D01*
X79028Y-74539D01*
X78914Y-74239D02*
X78728Y-74239D01*
X78828Y-74353D01*
X78785Y-74353D01*
X78757Y-74368D01*
X78742Y-74382D01*
X78728Y-74410D01*
X78728Y-74482D01*
X78742Y-74510D01*
X78757Y-74525D01*
X78785Y-74539D01*
X78871Y-74539D01*
X78900Y-74525D01*
X78914Y-74510D01*
X78642Y-74239D02*
X78542Y-74539D01*
X78442Y-74239D01*
X72471Y-67239D02*
X72471Y-66939D01*
X72371Y-67153D01*
X72271Y-66939D01*
X72271Y-67239D01*
X72071Y-66939D02*
X72014Y-66939D01*
X71985Y-66953D01*
X71957Y-66982D01*
X71942Y-67039D01*
X71942Y-67139D01*
X71957Y-67196D01*
X71985Y-67225D01*
X72014Y-67239D01*
X72071Y-67239D01*
X72100Y-67225D01*
X72128Y-67196D01*
X72142Y-67139D01*
X72142Y-67039D01*
X72128Y-66982D01*
X72100Y-66953D01*
X72071Y-66939D01*
X71828Y-67225D02*
X71785Y-67239D01*
X71714Y-67239D01*
X71685Y-67225D01*
X71671Y-67210D01*
X71657Y-67182D01*
X71657Y-67153D01*
X71671Y-67125D01*
X71685Y-67110D01*
X71714Y-67096D01*
X71771Y-67082D01*
X71800Y-67068D01*
X71814Y-67053D01*
X71828Y-67025D01*
X71828Y-66996D01*
X71814Y-66968D01*
X71800Y-66953D01*
X71771Y-66939D01*
X71700Y-66939D01*
X71657Y-66953D01*
X71528Y-67239D02*
X71528Y-66939D01*
X73285Y-72939D02*
X73285Y-73182D01*
X73271Y-73210D01*
X73257Y-73225D01*
X73228Y-73239D01*
X73171Y-73239D01*
X73142Y-73225D01*
X73128Y-73210D01*
X73114Y-73182D01*
X73114Y-72939D01*
X72985Y-73153D02*
X72842Y-73153D01*
X73014Y-73239D02*
X72914Y-72939D01*
X72814Y-73239D01*
X72542Y-73239D02*
X72642Y-73096D01*
X72714Y-73239D02*
X72714Y-72939D01*
X72599Y-72939D01*
X72571Y-72953D01*
X72557Y-72968D01*
X72542Y-72996D01*
X72542Y-73039D01*
X72557Y-73068D01*
X72571Y-73082D01*
X72599Y-73096D01*
X72714Y-73096D01*
X72457Y-72939D02*
X72285Y-72939D01*
X72371Y-73239D02*
X72371Y-72939D01*
X72257Y-73268D02*
X72028Y-73268D01*
X71785Y-73239D02*
X71885Y-73096D01*
X71957Y-73239D02*
X71957Y-72939D01*
X71842Y-72939D01*
X71814Y-72953D01*
X71800Y-72968D01*
X71785Y-72996D01*
X71785Y-73039D01*
X71800Y-73068D01*
X71814Y-73082D01*
X71842Y-73096D01*
X71957Y-73096D01*
X71685Y-72939D02*
X71485Y-73239D01*
X71485Y-72939D02*
X71685Y-73239D01*
X72557Y-70210D02*
X72571Y-70225D01*
X72614Y-70239D01*
X72642Y-70239D01*
X72685Y-70225D01*
X72714Y-70196D01*
X72728Y-70168D01*
X72742Y-70110D01*
X72742Y-70068D01*
X72728Y-70010D01*
X72714Y-69982D01*
X72685Y-69953D01*
X72642Y-69939D01*
X72614Y-69939D01*
X72571Y-69953D01*
X72557Y-69968D01*
X72442Y-70225D02*
X72399Y-70239D01*
X72328Y-70239D01*
X72299Y-70225D01*
X72285Y-70210D01*
X72271Y-70182D01*
X72271Y-70153D01*
X72285Y-70125D01*
X72299Y-70110D01*
X72328Y-70096D01*
X72385Y-70082D01*
X72414Y-70068D01*
X72428Y-70053D01*
X72442Y-70025D01*
X72442Y-69996D01*
X72428Y-69968D01*
X72414Y-69953D01*
X72385Y-69939D01*
X72314Y-69939D01*
X72271Y-69953D01*
X72214Y-70268D02*
X71985Y-70268D01*
X71928Y-70225D02*
X71885Y-70239D01*
X71814Y-70239D01*
X71785Y-70225D01*
X71771Y-70210D01*
X71757Y-70182D01*
X71757Y-70153D01*
X71771Y-70125D01*
X71785Y-70110D01*
X71814Y-70096D01*
X71871Y-70082D01*
X71900Y-70068D01*
X71914Y-70053D01*
X71928Y-70025D01*
X71928Y-69996D01*
X71914Y-69968D01*
X71900Y-69953D01*
X71871Y-69939D01*
X71800Y-69939D01*
X71757Y-69953D01*
X71628Y-70239D02*
X71628Y-69939D01*
X71557Y-69939D01*
X71514Y-69953D01*
X71485Y-69982D01*
X71471Y-70010D01*
X71457Y-70068D01*
X71457Y-70110D01*
X71471Y-70168D01*
X71485Y-70196D01*
X71514Y-70225D01*
X71557Y-70239D01*
X71628Y-70239D01*
X72507Y-68175D02*
X72464Y-68189D01*
X72392Y-68189D01*
X72364Y-68175D01*
X72349Y-68160D01*
X72335Y-68132D01*
X72335Y-68103D01*
X72349Y-68075D01*
X72364Y-68060D01*
X72392Y-68046D01*
X72449Y-68032D01*
X72478Y-68018D01*
X72492Y-68003D01*
X72507Y-67975D01*
X72507Y-67946D01*
X72492Y-67918D01*
X72478Y-67903D01*
X72449Y-67889D01*
X72378Y-67889D01*
X72335Y-67903D01*
X72035Y-68160D02*
X72050Y-68175D01*
X72092Y-68189D01*
X72121Y-68189D01*
X72164Y-68175D01*
X72192Y-68146D01*
X72207Y-68118D01*
X72221Y-68060D01*
X72221Y-68018D01*
X72207Y-67960D01*
X72192Y-67932D01*
X72164Y-67903D01*
X72121Y-67889D01*
X72092Y-67889D01*
X72050Y-67903D01*
X72035Y-67918D01*
X71764Y-68189D02*
X71907Y-68189D01*
X71907Y-67889D01*
X71664Y-68189D02*
X71664Y-67889D01*
X71492Y-68189D02*
X71621Y-68018D01*
X71492Y-67889D02*
X71664Y-68060D01*
X85978Y-74903D02*
X86007Y-74889D01*
X86050Y-74889D01*
X86092Y-74903D01*
X86121Y-74932D01*
X86135Y-74960D01*
X86150Y-75018D01*
X86150Y-75060D01*
X86135Y-75118D01*
X86121Y-75146D01*
X86092Y-75175D01*
X86050Y-75189D01*
X86021Y-75189D01*
X85978Y-75175D01*
X85964Y-75160D01*
X85964Y-75060D01*
X86021Y-75060D01*
X85835Y-75189D02*
X85835Y-74889D01*
X85664Y-75189D01*
X85664Y-74889D01*
X85521Y-75189D02*
X85521Y-74889D01*
X85450Y-74889D01*
X85407Y-74903D01*
X85378Y-74932D01*
X85364Y-74960D01*
X85350Y-75018D01*
X85350Y-75060D01*
X85364Y-75118D01*
X85378Y-75146D01*
X85407Y-75175D01*
X85450Y-75189D01*
X85521Y-75189D01*
X86007Y-72210D02*
X86021Y-72225D01*
X86064Y-72239D01*
X86092Y-72239D01*
X86135Y-72225D01*
X86164Y-72196D01*
X86178Y-72168D01*
X86192Y-72110D01*
X86192Y-72068D01*
X86178Y-72010D01*
X86164Y-71982D01*
X86135Y-71953D01*
X86092Y-71939D01*
X86064Y-71939D01*
X86021Y-71953D01*
X86007Y-71968D01*
X85892Y-72225D02*
X85849Y-72239D01*
X85778Y-72239D01*
X85749Y-72225D01*
X85735Y-72210D01*
X85721Y-72182D01*
X85721Y-72153D01*
X85735Y-72125D01*
X85749Y-72110D01*
X85778Y-72096D01*
X85835Y-72082D01*
X85864Y-72068D01*
X85878Y-72053D01*
X85892Y-72025D01*
X85892Y-71996D01*
X85878Y-71968D01*
X85864Y-71953D01*
X85835Y-71939D01*
X85764Y-71939D01*
X85721Y-71953D01*
X85664Y-72268D02*
X85435Y-72268D01*
X85378Y-72225D02*
X85335Y-72239D01*
X85264Y-72239D01*
X85235Y-72225D01*
X85221Y-72210D01*
X85207Y-72182D01*
X85207Y-72153D01*
X85221Y-72125D01*
X85235Y-72110D01*
X85264Y-72096D01*
X85321Y-72082D01*
X85350Y-72068D01*
X85364Y-72053D01*
X85378Y-72025D01*
X85378Y-71996D01*
X85364Y-71968D01*
X85350Y-71953D01*
X85321Y-71939D01*
X85250Y-71939D01*
X85207Y-71953D01*
X85078Y-72239D02*
X85078Y-71939D01*
X85007Y-71939D01*
X84964Y-71953D01*
X84935Y-71982D01*
X84921Y-72010D01*
X84907Y-72068D01*
X84907Y-72110D01*
X84921Y-72168D01*
X84935Y-72196D01*
X84964Y-72225D01*
X85007Y-72239D01*
X85078Y-72239D01*
X86135Y-70939D02*
X86135Y-71182D01*
X86121Y-71210D01*
X86107Y-71225D01*
X86078Y-71239D01*
X86021Y-71239D01*
X85992Y-71225D01*
X85978Y-71210D01*
X85964Y-71182D01*
X85964Y-70939D01*
X85835Y-71153D02*
X85692Y-71153D01*
X85864Y-71239D02*
X85764Y-70939D01*
X85664Y-71239D01*
X85392Y-71239D02*
X85492Y-71096D01*
X85564Y-71239D02*
X85564Y-70939D01*
X85449Y-70939D01*
X85421Y-70953D01*
X85407Y-70968D01*
X85392Y-70996D01*
X85392Y-71039D01*
X85407Y-71068D01*
X85421Y-71082D01*
X85449Y-71096D01*
X85564Y-71096D01*
X85307Y-70939D02*
X85135Y-70939D01*
X85221Y-71239D02*
X85221Y-70939D01*
X85107Y-71268D02*
X84878Y-71268D01*
X84635Y-71239D02*
X84735Y-71096D01*
X84807Y-71239D02*
X84807Y-70939D01*
X84692Y-70939D01*
X84664Y-70953D01*
X84650Y-70968D01*
X84635Y-70996D01*
X84635Y-71039D01*
X84650Y-71068D01*
X84664Y-71082D01*
X84692Y-71096D01*
X84807Y-71096D01*
X84535Y-70939D02*
X84335Y-71239D01*
X84335Y-70939D02*
X84535Y-71239D01*
X72092Y-66210D02*
X72107Y-66225D01*
X72150Y-66239D01*
X72178Y-66239D01*
X72221Y-66225D01*
X72250Y-66196D01*
X72264Y-66168D01*
X72278Y-66110D01*
X72278Y-66068D01*
X72264Y-66010D01*
X72250Y-65982D01*
X72221Y-65953D01*
X72178Y-65939D01*
X72150Y-65939D01*
X72107Y-65953D01*
X72092Y-65968D01*
X71978Y-66225D02*
X71935Y-66239D01*
X71864Y-66239D01*
X71835Y-66225D01*
X71821Y-66210D01*
X71807Y-66182D01*
X71807Y-66153D01*
X71821Y-66125D01*
X71835Y-66110D01*
X71864Y-66096D01*
X71921Y-66082D01*
X71950Y-66068D01*
X71964Y-66053D01*
X71978Y-66025D01*
X71978Y-65996D01*
X71964Y-65968D01*
X71950Y-65953D01*
X71921Y-65939D01*
X71850Y-65939D01*
X71807Y-65953D01*
X71692Y-65968D02*
X71678Y-65953D01*
X71650Y-65939D01*
X71578Y-65939D01*
X71550Y-65953D01*
X71535Y-65968D01*
X71521Y-65996D01*
X71521Y-66025D01*
X71535Y-66068D01*
X71707Y-66239D01*
X71521Y-66239D01*
X86221Y-70389D02*
X86221Y-70089D01*
X86121Y-70303D01*
X86021Y-70089D01*
X86021Y-70389D01*
X85821Y-70089D02*
X85764Y-70089D01*
X85735Y-70103D01*
X85707Y-70132D01*
X85692Y-70189D01*
X85692Y-70289D01*
X85707Y-70346D01*
X85735Y-70375D01*
X85764Y-70389D01*
X85821Y-70389D01*
X85850Y-70375D01*
X85878Y-70346D01*
X85892Y-70289D01*
X85892Y-70189D01*
X85878Y-70132D01*
X85850Y-70103D01*
X85821Y-70089D01*
X85578Y-70375D02*
X85535Y-70389D01*
X85464Y-70389D01*
X85435Y-70375D01*
X85421Y-70360D01*
X85407Y-70332D01*
X85407Y-70303D01*
X85421Y-70275D01*
X85435Y-70260D01*
X85464Y-70246D01*
X85521Y-70232D01*
X85550Y-70218D01*
X85564Y-70203D01*
X85578Y-70175D01*
X85578Y-70146D01*
X85564Y-70118D01*
X85550Y-70103D01*
X85521Y-70089D01*
X85450Y-70089D01*
X85407Y-70103D01*
X85278Y-70389D02*
X85278Y-70089D01*
X86157Y-69275D02*
X86114Y-69289D01*
X86042Y-69289D01*
X86014Y-69275D01*
X85999Y-69260D01*
X85985Y-69232D01*
X85985Y-69203D01*
X85999Y-69175D01*
X86014Y-69160D01*
X86042Y-69146D01*
X86099Y-69132D01*
X86128Y-69118D01*
X86142Y-69103D01*
X86157Y-69075D01*
X86157Y-69046D01*
X86142Y-69018D01*
X86128Y-69003D01*
X86099Y-68989D01*
X86028Y-68989D01*
X85985Y-69003D01*
X85685Y-69260D02*
X85700Y-69275D01*
X85742Y-69289D01*
X85771Y-69289D01*
X85814Y-69275D01*
X85842Y-69246D01*
X85857Y-69218D01*
X85871Y-69160D01*
X85871Y-69118D01*
X85857Y-69060D01*
X85842Y-69032D01*
X85814Y-69003D01*
X85771Y-68989D01*
X85742Y-68989D01*
X85700Y-69003D01*
X85685Y-69018D01*
X85414Y-69289D02*
X85557Y-69289D01*
X85557Y-68989D01*
X85314Y-69289D02*
X85314Y-68989D01*
X85142Y-69289D02*
X85271Y-69118D01*
X85142Y-68989D02*
X85314Y-69160D01*
X86042Y-66960D02*
X86057Y-66975D01*
X86100Y-66989D01*
X86128Y-66989D01*
X86171Y-66975D01*
X86200Y-66946D01*
X86214Y-66918D01*
X86228Y-66860D01*
X86228Y-66818D01*
X86214Y-66760D01*
X86200Y-66732D01*
X86171Y-66703D01*
X86128Y-66689D01*
X86100Y-66689D01*
X86057Y-66703D01*
X86042Y-66718D01*
X85928Y-66975D02*
X85885Y-66989D01*
X85814Y-66989D01*
X85785Y-66975D01*
X85771Y-66960D01*
X85757Y-66932D01*
X85757Y-66903D01*
X85771Y-66875D01*
X85785Y-66860D01*
X85814Y-66846D01*
X85871Y-66832D01*
X85900Y-66818D01*
X85914Y-66803D01*
X85928Y-66775D01*
X85928Y-66746D01*
X85914Y-66718D01*
X85900Y-66703D01*
X85871Y-66689D01*
X85800Y-66689D01*
X85757Y-66703D01*
X85657Y-66689D02*
X85471Y-66689D01*
X85571Y-66803D01*
X85528Y-66803D01*
X85500Y-66818D01*
X85485Y-66832D01*
X85471Y-66860D01*
X85471Y-66932D01*
X85485Y-66960D01*
X85500Y-66975D01*
X85528Y-66989D01*
X85614Y-66989D01*
X85642Y-66975D01*
X85657Y-66960D01*
X87692Y-65460D02*
X87707Y-65475D01*
X87749Y-65489D01*
X87778Y-65489D01*
X87821Y-65475D01*
X87849Y-65446D01*
X87864Y-65418D01*
X87878Y-65360D01*
X87878Y-65318D01*
X87864Y-65260D01*
X87849Y-65232D01*
X87821Y-65203D01*
X87778Y-65189D01*
X87749Y-65189D01*
X87707Y-65203D01*
X87692Y-65218D01*
X87578Y-65475D02*
X87535Y-65489D01*
X87464Y-65489D01*
X87435Y-65475D01*
X87421Y-65460D01*
X87407Y-65432D01*
X87407Y-65403D01*
X87421Y-65375D01*
X87435Y-65360D01*
X87464Y-65346D01*
X87521Y-65332D01*
X87549Y-65318D01*
X87564Y-65303D01*
X87578Y-65275D01*
X87578Y-65246D01*
X87564Y-65218D01*
X87549Y-65203D01*
X87521Y-65189D01*
X87449Y-65189D01*
X87407Y-65203D01*
X87121Y-65489D02*
X87292Y-65489D01*
X87207Y-65489D02*
X87207Y-65189D01*
X87235Y-65232D01*
X87264Y-65260D01*
X87292Y-65275D01*
X86592Y-65460D02*
X86607Y-65475D01*
X86650Y-65489D01*
X86678Y-65489D01*
X86721Y-65475D01*
X86750Y-65446D01*
X86764Y-65418D01*
X86778Y-65360D01*
X86778Y-65318D01*
X86764Y-65260D01*
X86750Y-65232D01*
X86721Y-65203D01*
X86678Y-65189D01*
X86650Y-65189D01*
X86607Y-65203D01*
X86592Y-65218D01*
X86478Y-65475D02*
X86435Y-65489D01*
X86364Y-65489D01*
X86335Y-65475D01*
X86321Y-65460D01*
X86307Y-65432D01*
X86307Y-65403D01*
X86321Y-65375D01*
X86335Y-65360D01*
X86364Y-65346D01*
X86421Y-65332D01*
X86450Y-65318D01*
X86464Y-65303D01*
X86478Y-65275D01*
X86478Y-65246D01*
X86464Y-65218D01*
X86450Y-65203D01*
X86421Y-65189D01*
X86350Y-65189D01*
X86307Y-65203D01*
X86192Y-65218D02*
X86178Y-65203D01*
X86150Y-65189D01*
X86078Y-65189D01*
X86050Y-65203D01*
X86035Y-65218D01*
X86021Y-65246D01*
X86021Y-65275D01*
X86035Y-65318D01*
X86207Y-65489D01*
X86021Y-65489D01*
G54D12*
X82230Y-68427D02*
X82230Y-68164D01*
X82230Y-68239D02*
X82211Y-68202D01*
X82193Y-68183D01*
X82155Y-68164D01*
X82118Y-68164D01*
X81818Y-68164D02*
X81818Y-68427D01*
X81987Y-68164D02*
X81987Y-68371D01*
X81968Y-68408D01*
X81930Y-68427D01*
X81874Y-68427D01*
X81837Y-68408D01*
X81818Y-68389D01*
X81649Y-68408D02*
X81612Y-68427D01*
X81537Y-68427D01*
X81499Y-68408D01*
X81480Y-68371D01*
X81480Y-68352D01*
X81499Y-68314D01*
X81537Y-68296D01*
X81593Y-68296D01*
X81630Y-68277D01*
X81649Y-68239D01*
X81649Y-68221D01*
X81630Y-68183D01*
X81593Y-68164D01*
X81537Y-68164D01*
X81499Y-68183D01*
X81312Y-68221D02*
X81180Y-68221D01*
X81124Y-68427D02*
X81312Y-68427D01*
X81312Y-68033D01*
X81124Y-68033D01*
X81012Y-68164D02*
X80862Y-68164D01*
X80955Y-68427D02*
X80955Y-68090D01*
X80937Y-68052D01*
X80899Y-68033D01*
X80862Y-68033D01*
X80730Y-68427D02*
X80730Y-68164D01*
X80730Y-68033D02*
X80749Y-68052D01*
X80730Y-68071D01*
X80712Y-68052D01*
X80730Y-68033D01*
X80730Y-68071D01*
X80543Y-68389D02*
X80524Y-68408D01*
X80543Y-68427D01*
X80562Y-68408D01*
X80543Y-68389D01*
X80543Y-68427D01*
X80187Y-68408D02*
X80224Y-68427D01*
X80299Y-68427D01*
X80337Y-68408D01*
X80355Y-68389D01*
X80374Y-68352D01*
X80374Y-68239D01*
X80355Y-68202D01*
X80337Y-68183D01*
X80299Y-68164D01*
X80224Y-68164D01*
X80187Y-68183D01*
X79962Y-68427D02*
X79999Y-68408D01*
X80018Y-68389D01*
X80037Y-68352D01*
X80037Y-68239D01*
X80018Y-68202D01*
X79999Y-68183D01*
X79962Y-68164D01*
X79906Y-68164D01*
X79868Y-68183D01*
X79849Y-68202D01*
X79831Y-68239D01*
X79831Y-68352D01*
X79849Y-68389D01*
X79868Y-68408D01*
X79906Y-68427D01*
X79962Y-68427D01*
X79662Y-68427D02*
X79662Y-68164D01*
X79662Y-68202D02*
X79643Y-68183D01*
X79606Y-68164D01*
X79549Y-68164D01*
X79512Y-68183D01*
X79493Y-68221D01*
X79493Y-68427D01*
X79493Y-68221D02*
X79474Y-68183D01*
X79437Y-68164D01*
X79381Y-68164D01*
X79343Y-68183D01*
X79324Y-68221D01*
X79324Y-68427D01*
X78837Y-68033D02*
X78837Y-68352D01*
X78818Y-68389D01*
X78799Y-68408D01*
X78762Y-68427D01*
X78687Y-68427D01*
X78649Y-68408D01*
X78631Y-68389D01*
X78612Y-68352D01*
X78612Y-68033D01*
X78443Y-68408D02*
X78387Y-68427D01*
X78293Y-68427D01*
X78256Y-68408D01*
X78237Y-68389D01*
X78218Y-68352D01*
X78218Y-68314D01*
X78237Y-68277D01*
X78256Y-68258D01*
X78293Y-68239D01*
X78368Y-68221D01*
X78406Y-68202D01*
X78424Y-68183D01*
X78443Y-68146D01*
X78443Y-68108D01*
X78424Y-68071D01*
X78406Y-68052D01*
X78368Y-68033D01*
X78274Y-68033D01*
X78218Y-68052D01*
X77918Y-68221D02*
X77862Y-68239D01*
X77843Y-68258D01*
X77825Y-68296D01*
X77825Y-68352D01*
X77843Y-68389D01*
X77862Y-68408D01*
X77900Y-68427D01*
X78050Y-68427D01*
X78050Y-68033D01*
X77918Y-68033D01*
X77881Y-68052D01*
X77862Y-68071D01*
X77843Y-68108D01*
X77843Y-68146D01*
X77862Y-68183D01*
X77881Y-68202D01*
X77918Y-68221D01*
X78050Y-68221D01*
X77656Y-68277D02*
X77356Y-68277D01*
X77506Y-68427D02*
X77506Y-68127D01*
X77187Y-68408D02*
X77131Y-68427D01*
X77037Y-68427D01*
X77000Y-68408D01*
X76981Y-68389D01*
X76962Y-68352D01*
X76962Y-68314D01*
X76981Y-68277D01*
X77000Y-68258D01*
X77037Y-68239D01*
X77112Y-68221D01*
X77150Y-68202D01*
X77168Y-68183D01*
X77187Y-68146D01*
X77187Y-68108D01*
X77168Y-68071D01*
X77150Y-68052D01*
X77112Y-68033D01*
X77018Y-68033D01*
X76962Y-68052D01*
X76793Y-68427D02*
X76793Y-68033D01*
X76700Y-68033D01*
X76643Y-68052D01*
X76606Y-68090D01*
X76587Y-68127D01*
X76568Y-68202D01*
X76568Y-68258D01*
X76587Y-68333D01*
X76606Y-68371D01*
X76643Y-68408D01*
X76700Y-68427D01*
X76793Y-68427D01*
X76137Y-68164D02*
X76044Y-68427D01*
X75950Y-68164D01*
X75650Y-68408D02*
X75687Y-68427D01*
X75762Y-68427D01*
X75800Y-68408D01*
X75819Y-68371D01*
X75819Y-68221D01*
X75800Y-68183D01*
X75762Y-68164D01*
X75687Y-68164D01*
X75650Y-68183D01*
X75631Y-68221D01*
X75631Y-68258D01*
X75819Y-68296D01*
X75462Y-68427D02*
X75462Y-68164D01*
X75462Y-68239D02*
X75444Y-68202D01*
X75425Y-68183D01*
X75387Y-68164D01*
X75350Y-68164D01*
X74844Y-68033D02*
X74806Y-68033D01*
X74769Y-68052D01*
X74750Y-68071D01*
X74731Y-68108D01*
X74712Y-68183D01*
X74712Y-68277D01*
X74731Y-68352D01*
X74750Y-68389D01*
X74769Y-68408D01*
X74806Y-68427D01*
X74844Y-68427D01*
X74881Y-68408D01*
X74900Y-68389D01*
X74919Y-68352D01*
X74937Y-68277D01*
X74937Y-68183D01*
X74919Y-68108D01*
X74900Y-68071D01*
X74881Y-68052D01*
X74844Y-68033D01*
X74544Y-68389D02*
X74525Y-68408D01*
X74544Y-68427D01*
X74562Y-68408D01*
X74544Y-68389D01*
X74544Y-68427D01*
X74375Y-68071D02*
X74356Y-68052D01*
X74319Y-68033D01*
X74225Y-68033D01*
X74188Y-68052D01*
X74169Y-68071D01*
X74150Y-68108D01*
X74150Y-68146D01*
X74169Y-68202D01*
X74394Y-68427D01*
X74150Y-68427D01*
G54D13*
X55388Y-68920D02*
X55388Y-69454D01*
X55388Y-69301D02*
X55417Y-69377D01*
X55446Y-69416D01*
X55503Y-69454D01*
X55560Y-69454D01*
X56017Y-69454D02*
X56017Y-68920D01*
X55760Y-69454D02*
X55760Y-69035D01*
X55788Y-68958D01*
X55846Y-68920D01*
X55931Y-68920D01*
X55988Y-68958D01*
X56017Y-68996D01*
X56274Y-68958D02*
X56331Y-68920D01*
X56446Y-68920D01*
X56503Y-68958D01*
X56531Y-69035D01*
X56531Y-69073D01*
X56503Y-69149D01*
X56446Y-69187D01*
X56360Y-69187D01*
X56303Y-69225D01*
X56274Y-69301D01*
X56274Y-69339D01*
X56303Y-69416D01*
X56360Y-69454D01*
X56446Y-69454D01*
X56503Y-69416D01*
X56788Y-69339D02*
X56988Y-69339D01*
X57074Y-68920D02*
X56788Y-68920D01*
X56788Y-69720D01*
X57074Y-69720D01*
X57246Y-69454D02*
X57474Y-69454D01*
X57331Y-68920D02*
X57331Y-69606D01*
X57360Y-69682D01*
X57417Y-69720D01*
X57474Y-69720D01*
X57674Y-68920D02*
X57674Y-69454D01*
X57674Y-69720D02*
X57646Y-69682D01*
X57674Y-69644D01*
X57703Y-69682D01*
X57674Y-69720D01*
X57674Y-69644D01*
X57960Y-68996D02*
X57988Y-68958D01*
X57960Y-68920D01*
X57931Y-68958D01*
X57960Y-68996D01*
X57960Y-68920D01*
X58503Y-68958D02*
X58446Y-68920D01*
X58331Y-68920D01*
X58274Y-68958D01*
X58246Y-68996D01*
X58217Y-69073D01*
X58217Y-69301D01*
X58246Y-69377D01*
X58274Y-69416D01*
X58331Y-69454D01*
X58446Y-69454D01*
X58503Y-69416D01*
X58846Y-68920D02*
X58788Y-68958D01*
X58760Y-68996D01*
X58731Y-69073D01*
X58731Y-69301D01*
X58760Y-69377D01*
X58788Y-69416D01*
X58846Y-69454D01*
X58931Y-69454D01*
X58988Y-69416D01*
X59017Y-69377D01*
X59046Y-69301D01*
X59046Y-69073D01*
X59017Y-68996D01*
X58988Y-68958D01*
X58931Y-68920D01*
X58846Y-68920D01*
X59303Y-68920D02*
X59303Y-69454D01*
X59303Y-69377D02*
X59331Y-69416D01*
X59388Y-69454D01*
X59474Y-69454D01*
X59531Y-69416D01*
X59560Y-69339D01*
X59560Y-68920D01*
X59560Y-69339D02*
X59588Y-69416D01*
X59646Y-69454D01*
X59731Y-69454D01*
X59788Y-69416D01*
X59817Y-69339D01*
X59817Y-68920D01*
X60474Y-69720D02*
X60674Y-68920D01*
X60874Y-69720D01*
X61417Y-68920D02*
X61217Y-69301D01*
X61074Y-68920D02*
X61074Y-69720D01*
X61303Y-69720D01*
X61360Y-69682D01*
X61388Y-69644D01*
X61417Y-69568D01*
X61417Y-69454D01*
X61388Y-69377D01*
X61360Y-69339D01*
X61303Y-69301D01*
X61074Y-69301D01*
X61674Y-69225D02*
X62131Y-69225D01*
X61903Y-68920D02*
X61903Y-69530D01*
X62417Y-68920D02*
X62417Y-69720D01*
X62560Y-69720D01*
X62646Y-69682D01*
X62703Y-69606D01*
X62731Y-69530D01*
X62760Y-69377D01*
X62760Y-69263D01*
X62731Y-69111D01*
X62703Y-69035D01*
X62646Y-68958D01*
X62560Y-68920D01*
X62417Y-68920D01*
X63017Y-68920D02*
X63017Y-69720D01*
X63160Y-69720D01*
X63246Y-69682D01*
X63303Y-69606D01*
X63331Y-69530D01*
X63360Y-69377D01*
X63360Y-69263D01*
X63331Y-69111D01*
X63303Y-69035D01*
X63246Y-68958D01*
X63160Y-68920D01*
X63017Y-68920D01*
X57831Y-68184D02*
X57974Y-67650D01*
X58117Y-68184D01*
X58574Y-67688D02*
X58517Y-67650D01*
X58403Y-67650D01*
X58346Y-67688D01*
X58317Y-67765D01*
X58317Y-68069D01*
X58346Y-68146D01*
X58403Y-68184D01*
X58517Y-68184D01*
X58574Y-68146D01*
X58603Y-68069D01*
X58603Y-67993D01*
X58317Y-67917D01*
X58860Y-67650D02*
X58860Y-68184D01*
X58860Y-68031D02*
X58888Y-68107D01*
X58917Y-68146D01*
X58974Y-68184D01*
X59031Y-68184D01*
X59803Y-68450D02*
X59860Y-68450D01*
X59917Y-68412D01*
X59946Y-68374D01*
X59974Y-68298D01*
X60003Y-68146D01*
X60003Y-67955D01*
X59974Y-67803D01*
X59946Y-67726D01*
X59917Y-67688D01*
X59860Y-67650D01*
X59803Y-67650D01*
X59746Y-67688D01*
X59717Y-67726D01*
X59688Y-67803D01*
X59660Y-67955D01*
X59660Y-68146D01*
X59688Y-68298D01*
X59717Y-68374D01*
X59746Y-68412D01*
X59803Y-68450D01*
X60260Y-67726D02*
X60288Y-67688D01*
X60260Y-67650D01*
X60231Y-67688D01*
X60260Y-67726D01*
X60260Y-67650D01*
X60860Y-67650D02*
X60517Y-67650D01*
X60688Y-67650D02*
X60688Y-68450D01*
X60631Y-68336D01*
X60574Y-68260D01*
X60517Y-68222D01*
G54D14*
X56139Y-73083D02*
X56139Y-72925D01*
X56139Y-72970D02*
X56128Y-72948D01*
X56117Y-72936D01*
X56094Y-72925D01*
X56072Y-72925D01*
X55892Y-72925D02*
X55892Y-73083D01*
X55993Y-72925D02*
X55993Y-73049D01*
X55982Y-73071D01*
X55959Y-73083D01*
X55925Y-73083D01*
X55903Y-73071D01*
X55892Y-73060D01*
X55790Y-73071D02*
X55768Y-73083D01*
X55723Y-73083D01*
X55700Y-73071D01*
X55689Y-73049D01*
X55689Y-73038D01*
X55700Y-73015D01*
X55723Y-73004D01*
X55757Y-73004D01*
X55779Y-72993D01*
X55790Y-72970D01*
X55790Y-72959D01*
X55779Y-72936D01*
X55757Y-72925D01*
X55723Y-72925D01*
X55700Y-72936D01*
X55498Y-73071D02*
X55520Y-73083D01*
X55565Y-73083D01*
X55588Y-73071D01*
X55599Y-73049D01*
X55599Y-72959D01*
X55588Y-72936D01*
X55565Y-72925D01*
X55520Y-72925D01*
X55498Y-72936D01*
X55487Y-72959D01*
X55487Y-72981D01*
X55599Y-73004D01*
X55419Y-72925D02*
X55329Y-72925D01*
X55385Y-73083D02*
X55385Y-72880D01*
X55374Y-72858D01*
X55352Y-72846D01*
X55329Y-72846D01*
X55250Y-73083D02*
X55250Y-72925D01*
X55250Y-72846D02*
X55262Y-72858D01*
X55250Y-72869D01*
X55239Y-72858D01*
X55250Y-72846D01*
X55250Y-72869D01*
X55138Y-73060D02*
X55127Y-73071D01*
X55138Y-73083D01*
X55149Y-73071D01*
X55138Y-73060D01*
X55138Y-73083D01*
X54924Y-73071D02*
X54947Y-73083D01*
X54992Y-73083D01*
X55014Y-73071D01*
X55025Y-73060D01*
X55037Y-73038D01*
X55037Y-72970D01*
X55025Y-72948D01*
X55014Y-72936D01*
X54992Y-72925D01*
X54947Y-72925D01*
X54924Y-72936D01*
X54789Y-73083D02*
X54812Y-73071D01*
X54823Y-73060D01*
X54834Y-73038D01*
X54834Y-72970D01*
X54823Y-72948D01*
X54812Y-72936D01*
X54789Y-72925D01*
X54755Y-72925D01*
X54733Y-72936D01*
X54722Y-72948D01*
X54710Y-72970D01*
X54710Y-73038D01*
X54722Y-73060D01*
X54733Y-73071D01*
X54755Y-73083D01*
X54789Y-73083D01*
X54609Y-73083D02*
X54609Y-72925D01*
X54609Y-72948D02*
X54598Y-72936D01*
X54575Y-72925D01*
X54542Y-72925D01*
X54519Y-72936D01*
X54508Y-72959D01*
X54508Y-73083D01*
X54508Y-72959D02*
X54497Y-72936D01*
X54474Y-72925D01*
X54440Y-72925D01*
X54418Y-72936D01*
X54407Y-72959D01*
X54407Y-73083D01*
X53979Y-73060D02*
X53991Y-73071D01*
X54024Y-73083D01*
X54047Y-73083D01*
X54081Y-73071D01*
X54103Y-73049D01*
X54114Y-73026D01*
X54126Y-72981D01*
X54126Y-72948D01*
X54114Y-72903D01*
X54103Y-72880D01*
X54081Y-72858D01*
X54047Y-72846D01*
X54024Y-72846D01*
X53991Y-72858D01*
X53979Y-72869D01*
X53889Y-73015D02*
X53777Y-73015D01*
X53912Y-73083D02*
X53833Y-72846D01*
X53754Y-73083D01*
X53676Y-73083D02*
X53676Y-72846D01*
X53541Y-73083D01*
X53541Y-72846D01*
X53203Y-72846D02*
X53181Y-72846D01*
X53158Y-72858D01*
X53147Y-72869D01*
X53136Y-72891D01*
X53124Y-72936D01*
X53124Y-72993D01*
X53136Y-73038D01*
X53147Y-73060D01*
X53158Y-73071D01*
X53181Y-73083D01*
X53203Y-73083D01*
X53226Y-73071D01*
X53237Y-73060D01*
X53248Y-73038D01*
X53259Y-72993D01*
X53259Y-72936D01*
X53248Y-72891D01*
X53237Y-72869D01*
X53226Y-72858D01*
X53203Y-72846D01*
X53023Y-73060D02*
X53012Y-73071D01*
X53023Y-73083D01*
X53034Y-73071D01*
X53023Y-73060D01*
X53023Y-73083D01*
X52787Y-73083D02*
X52922Y-73083D01*
X52854Y-73083D02*
X52854Y-72846D01*
X52877Y-72880D01*
X52899Y-72903D01*
X52922Y-72914D01*
G54D15*
X83705Y-50272D02*
X83705Y-50572D01*
X83848Y-50272D02*
X83848Y-50572D01*
X84020Y-50272D01*
X84020Y-50572D01*
X84248Y-50572D02*
X84248Y-50357D01*
X84234Y-50315D01*
X84205Y-50286D01*
X84163Y-50272D01*
X84134Y-50272D01*
X84391Y-50386D02*
X84620Y-50386D01*
X84820Y-50572D02*
X84848Y-50572D01*
X84877Y-50557D01*
X84891Y-50543D01*
X84905Y-50515D01*
X84920Y-50457D01*
X84920Y-50386D01*
X84905Y-50329D01*
X84891Y-50300D01*
X84877Y-50286D01*
X84848Y-50272D01*
X84820Y-50272D01*
X84791Y-50286D01*
X84777Y-50300D01*
X84763Y-50329D01*
X84748Y-50386D01*
X84748Y-50457D01*
X84763Y-50515D01*
X84777Y-50543D01*
X84791Y-50557D01*
X84820Y-50572D01*
X85091Y-50443D02*
X85063Y-50457D01*
X85048Y-50472D01*
X85034Y-50500D01*
X85034Y-50515D01*
X85048Y-50543D01*
X85063Y-50557D01*
X85091Y-50572D01*
X85148Y-50572D01*
X85177Y-50557D01*
X85191Y-50543D01*
X85205Y-50515D01*
X85205Y-50500D01*
X85191Y-50472D01*
X85177Y-50457D01*
X85148Y-50443D01*
X85091Y-50443D01*
X85063Y-50429D01*
X85048Y-50415D01*
X85034Y-50386D01*
X85034Y-50329D01*
X85048Y-50300D01*
X85063Y-50286D01*
X85091Y-50272D01*
X85148Y-50272D01*
X85177Y-50286D01*
X85191Y-50300D01*
X85205Y-50329D01*
X85205Y-50386D01*
X85191Y-50415D01*
X85177Y-50429D01*
X85148Y-50443D01*
X84045Y-37673D02*
X84045Y-37873D01*
X84045Y-37973D02*
X84031Y-37959D01*
X84045Y-37945D01*
X84059Y-37959D01*
X84045Y-37973D01*
X84045Y-37945D01*
X84345Y-37959D02*
X84317Y-37973D01*
X84274Y-37973D01*
X84231Y-37959D01*
X84202Y-37930D01*
X84188Y-37902D01*
X84174Y-37845D01*
X84174Y-37802D01*
X84188Y-37745D01*
X84202Y-37716D01*
X84231Y-37688D01*
X84274Y-37673D01*
X84302Y-37673D01*
X84345Y-37688D01*
X84359Y-37702D01*
X84359Y-37802D01*
X84302Y-37802D01*
X84488Y-37673D02*
X84488Y-37973D01*
X84659Y-37673D01*
X84659Y-37973D01*
X84802Y-37673D02*
X84802Y-37973D01*
X84874Y-37973D01*
X84917Y-37959D01*
X84945Y-37930D01*
X84959Y-37902D01*
X84974Y-37845D01*
X84974Y-37802D01*
X84959Y-37745D01*
X84945Y-37716D01*
X84917Y-37688D01*
X84874Y-37673D01*
X84802Y-37673D01*
X85259Y-37673D02*
X85088Y-37673D01*
X85174Y-37673D02*
X85174Y-37973D01*
X85145Y-37930D01*
X85117Y-37902D01*
X85088Y-37888D01*
X83705Y-39445D02*
X83705Y-39745D01*
X83848Y-39445D02*
X83848Y-39745D01*
X84020Y-39445D01*
X84020Y-39745D01*
X84248Y-39745D02*
X84248Y-39531D01*
X84234Y-39488D01*
X84205Y-39459D01*
X84163Y-39445D01*
X84134Y-39445D01*
X84391Y-39559D02*
X84620Y-39559D01*
X84820Y-39745D02*
X84848Y-39745D01*
X84877Y-39731D01*
X84891Y-39716D01*
X84905Y-39688D01*
X84920Y-39631D01*
X84920Y-39559D01*
X84905Y-39502D01*
X84891Y-39474D01*
X84877Y-39459D01*
X84848Y-39445D01*
X84820Y-39445D01*
X84791Y-39459D01*
X84777Y-39474D01*
X84763Y-39502D01*
X84748Y-39559D01*
X84748Y-39631D01*
X84763Y-39688D01*
X84777Y-39716D01*
X84791Y-39731D01*
X84820Y-39745D01*
X85205Y-39445D02*
X85034Y-39445D01*
X85120Y-39445D02*
X85120Y-39745D01*
X85091Y-39702D01*
X85063Y-39674D01*
X85034Y-39659D01*
X83705Y-40626D02*
X83705Y-40926D01*
X83848Y-40626D02*
X83848Y-40926D01*
X84020Y-40626D01*
X84020Y-40926D01*
X84248Y-40926D02*
X84248Y-40712D01*
X84234Y-40669D01*
X84205Y-40640D01*
X84163Y-40626D01*
X84134Y-40626D01*
X84391Y-40740D02*
X84620Y-40740D01*
X84820Y-40926D02*
X84848Y-40926D01*
X84877Y-40912D01*
X84891Y-40898D01*
X84905Y-40869D01*
X84920Y-40812D01*
X84920Y-40740D01*
X84905Y-40683D01*
X84891Y-40655D01*
X84877Y-40640D01*
X84848Y-40626D01*
X84820Y-40626D01*
X84791Y-40640D01*
X84777Y-40655D01*
X84763Y-40683D01*
X84748Y-40740D01*
X84748Y-40812D01*
X84763Y-40869D01*
X84777Y-40898D01*
X84791Y-40912D01*
X84820Y-40926D01*
X85034Y-40898D02*
X85048Y-40912D01*
X85077Y-40926D01*
X85148Y-40926D01*
X85177Y-40912D01*
X85191Y-40898D01*
X85205Y-40869D01*
X85205Y-40840D01*
X85191Y-40798D01*
X85020Y-40626D01*
X85205Y-40626D01*
X83705Y-42004D02*
X83705Y-42304D01*
X83848Y-42004D02*
X83848Y-42304D01*
X84020Y-42004D01*
X84020Y-42304D01*
X84248Y-42304D02*
X84248Y-42090D01*
X84234Y-42047D01*
X84205Y-42018D01*
X84163Y-42004D01*
X84134Y-42004D01*
X84391Y-42118D02*
X84620Y-42118D01*
X84820Y-42304D02*
X84848Y-42304D01*
X84877Y-42290D01*
X84891Y-42275D01*
X84905Y-42247D01*
X84920Y-42190D01*
X84920Y-42118D01*
X84905Y-42061D01*
X84891Y-42033D01*
X84877Y-42018D01*
X84848Y-42004D01*
X84820Y-42004D01*
X84791Y-42018D01*
X84777Y-42033D01*
X84763Y-42061D01*
X84748Y-42118D01*
X84748Y-42190D01*
X84763Y-42247D01*
X84777Y-42275D01*
X84791Y-42290D01*
X84820Y-42304D01*
X85020Y-42304D02*
X85205Y-42304D01*
X85105Y-42190D01*
X85148Y-42190D01*
X85177Y-42175D01*
X85191Y-42161D01*
X85205Y-42133D01*
X85205Y-42061D01*
X85191Y-42033D01*
X85177Y-42018D01*
X85148Y-42004D01*
X85063Y-42004D01*
X85034Y-42018D01*
X85020Y-42033D01*
X84045Y-44563D02*
X84045Y-44763D01*
X84045Y-44863D02*
X84031Y-44849D01*
X84045Y-44835D01*
X84059Y-44849D01*
X84045Y-44863D01*
X84045Y-44835D01*
X84345Y-44849D02*
X84317Y-44863D01*
X84274Y-44863D01*
X84231Y-44849D01*
X84202Y-44820D01*
X84188Y-44792D01*
X84174Y-44735D01*
X84174Y-44692D01*
X84188Y-44635D01*
X84202Y-44606D01*
X84231Y-44577D01*
X84274Y-44563D01*
X84302Y-44563D01*
X84345Y-44577D01*
X84359Y-44592D01*
X84359Y-44692D01*
X84302Y-44692D01*
X84488Y-44563D02*
X84488Y-44863D01*
X84659Y-44563D01*
X84659Y-44863D01*
X84802Y-44563D02*
X84802Y-44863D01*
X84874Y-44863D01*
X84917Y-44849D01*
X84945Y-44820D01*
X84959Y-44792D01*
X84974Y-44735D01*
X84974Y-44692D01*
X84959Y-44635D01*
X84945Y-44606D01*
X84917Y-44577D01*
X84874Y-44563D01*
X84802Y-44563D01*
X85259Y-44563D02*
X85088Y-44563D01*
X85174Y-44563D02*
X85174Y-44863D01*
X85145Y-44820D01*
X85117Y-44792D01*
X85088Y-44777D01*
X83705Y-43382D02*
X83705Y-43682D01*
X83848Y-43382D02*
X83848Y-43682D01*
X84020Y-43382D01*
X84020Y-43682D01*
X84248Y-43682D02*
X84248Y-43468D01*
X84234Y-43425D01*
X84205Y-43396D01*
X84163Y-43382D01*
X84134Y-43382D01*
X84391Y-43496D02*
X84620Y-43496D01*
X84820Y-43682D02*
X84848Y-43682D01*
X84877Y-43668D01*
X84891Y-43653D01*
X84905Y-43625D01*
X84920Y-43568D01*
X84920Y-43496D01*
X84905Y-43439D01*
X84891Y-43411D01*
X84877Y-43396D01*
X84848Y-43382D01*
X84820Y-43382D01*
X84791Y-43396D01*
X84777Y-43411D01*
X84763Y-43439D01*
X84748Y-43496D01*
X84748Y-43568D01*
X84763Y-43625D01*
X84777Y-43653D01*
X84791Y-43668D01*
X84820Y-43682D01*
X85177Y-43582D02*
X85177Y-43382D01*
X85105Y-43696D02*
X85034Y-43482D01*
X85220Y-43482D01*
X83705Y-46138D02*
X83705Y-46438D01*
X83848Y-46138D02*
X83848Y-46438D01*
X84020Y-46138D01*
X84020Y-46438D01*
X84248Y-46438D02*
X84248Y-46224D01*
X84234Y-46181D01*
X84205Y-46152D01*
X84163Y-46138D01*
X84134Y-46138D01*
X84391Y-46252D02*
X84620Y-46252D01*
X84820Y-46438D02*
X84848Y-46438D01*
X84877Y-46424D01*
X84891Y-46409D01*
X84905Y-46381D01*
X84920Y-46324D01*
X84920Y-46252D01*
X84905Y-46195D01*
X84891Y-46166D01*
X84877Y-46152D01*
X84848Y-46138D01*
X84820Y-46138D01*
X84791Y-46152D01*
X84777Y-46166D01*
X84763Y-46195D01*
X84748Y-46252D01*
X84748Y-46324D01*
X84763Y-46381D01*
X84777Y-46409D01*
X84791Y-46424D01*
X84820Y-46438D01*
X85191Y-46438D02*
X85048Y-46438D01*
X85034Y-46295D01*
X85048Y-46309D01*
X85077Y-46324D01*
X85148Y-46324D01*
X85177Y-46309D01*
X85191Y-46295D01*
X85205Y-46266D01*
X85205Y-46195D01*
X85191Y-46166D01*
X85177Y-46152D01*
X85148Y-46138D01*
X85077Y-46138D01*
X85048Y-46152D01*
X85034Y-46166D01*
X83705Y-47516D02*
X83705Y-47816D01*
X83848Y-47516D02*
X83848Y-47816D01*
X84020Y-47516D01*
X84020Y-47816D01*
X84248Y-47816D02*
X84248Y-47602D01*
X84234Y-47559D01*
X84205Y-47530D01*
X84163Y-47516D01*
X84134Y-47516D01*
X84391Y-47630D02*
X84620Y-47630D01*
X84820Y-47816D02*
X84848Y-47816D01*
X84877Y-47802D01*
X84891Y-47787D01*
X84905Y-47759D01*
X84920Y-47702D01*
X84920Y-47630D01*
X84905Y-47573D01*
X84891Y-47544D01*
X84877Y-47530D01*
X84848Y-47516D01*
X84820Y-47516D01*
X84791Y-47530D01*
X84777Y-47544D01*
X84763Y-47573D01*
X84748Y-47630D01*
X84748Y-47702D01*
X84763Y-47759D01*
X84777Y-47787D01*
X84791Y-47802D01*
X84820Y-47816D01*
X85177Y-47816D02*
X85120Y-47816D01*
X85091Y-47802D01*
X85077Y-47787D01*
X85048Y-47744D01*
X85034Y-47687D01*
X85034Y-47573D01*
X85048Y-47544D01*
X85063Y-47530D01*
X85091Y-47516D01*
X85148Y-47516D01*
X85177Y-47530D01*
X85191Y-47544D01*
X85205Y-47573D01*
X85205Y-47644D01*
X85191Y-47673D01*
X85177Y-47687D01*
X85148Y-47702D01*
X85091Y-47702D01*
X85063Y-47687D01*
X85048Y-47673D01*
X85034Y-47644D01*
X83705Y-48894D02*
X83705Y-49194D01*
X83848Y-48894D02*
X83848Y-49194D01*
X84020Y-48894D01*
X84020Y-49194D01*
X84248Y-49194D02*
X84248Y-48980D01*
X84234Y-48937D01*
X84205Y-48908D01*
X84163Y-48894D01*
X84134Y-48894D01*
X84391Y-49008D02*
X84620Y-49008D01*
X84820Y-49194D02*
X84848Y-49194D01*
X84877Y-49180D01*
X84891Y-49165D01*
X84905Y-49137D01*
X84920Y-49080D01*
X84920Y-49008D01*
X84905Y-48951D01*
X84891Y-48922D01*
X84877Y-48908D01*
X84848Y-48894D01*
X84820Y-48894D01*
X84791Y-48908D01*
X84777Y-48922D01*
X84763Y-48951D01*
X84748Y-49008D01*
X84748Y-49080D01*
X84763Y-49137D01*
X84777Y-49165D01*
X84791Y-49180D01*
X84820Y-49194D01*
X85020Y-49194D02*
X85220Y-49194D01*
X85091Y-48894D01*
X84045Y-51453D02*
X84045Y-51653D01*
X84045Y-51753D02*
X84031Y-51739D01*
X84045Y-51724D01*
X84059Y-51739D01*
X84045Y-51753D01*
X84045Y-51724D01*
X84345Y-51739D02*
X84317Y-51753D01*
X84274Y-51753D01*
X84231Y-51739D01*
X84202Y-51710D01*
X84188Y-51681D01*
X84174Y-51624D01*
X84174Y-51581D01*
X84188Y-51524D01*
X84202Y-51496D01*
X84231Y-51467D01*
X84274Y-51453D01*
X84302Y-51453D01*
X84345Y-51467D01*
X84359Y-51481D01*
X84359Y-51581D01*
X84302Y-51581D01*
X84488Y-51453D02*
X84488Y-51753D01*
X84659Y-51453D01*
X84659Y-51753D01*
X84802Y-51453D02*
X84802Y-51753D01*
X84874Y-51753D01*
X84917Y-51739D01*
X84945Y-51710D01*
X84959Y-51681D01*
X84974Y-51624D01*
X84974Y-51581D01*
X84959Y-51524D01*
X84945Y-51496D01*
X84917Y-51467D01*
X84874Y-51453D01*
X84802Y-51453D01*
X85259Y-51453D02*
X85088Y-51453D01*
X85174Y-51453D02*
X85174Y-51753D01*
X85145Y-51710D01*
X85117Y-51681D01*
X85088Y-51667D01*
X83705Y-54012D02*
X83705Y-54312D01*
X83848Y-54012D02*
X83848Y-54312D01*
X84020Y-54012D01*
X84020Y-54312D01*
X84248Y-54312D02*
X84248Y-54098D01*
X84234Y-54055D01*
X84205Y-54026D01*
X84163Y-54012D01*
X84134Y-54012D01*
X84391Y-54126D02*
X84620Y-54126D01*
X84920Y-54012D02*
X84748Y-54012D01*
X84834Y-54012D02*
X84834Y-54312D01*
X84805Y-54269D01*
X84777Y-54241D01*
X84748Y-54226D01*
X85105Y-54312D02*
X85134Y-54312D01*
X85163Y-54298D01*
X85177Y-54283D01*
X85191Y-54255D01*
X85205Y-54198D01*
X85205Y-54126D01*
X85191Y-54069D01*
X85177Y-54041D01*
X85163Y-54026D01*
X85134Y-54012D01*
X85105Y-54012D01*
X85077Y-54026D01*
X85063Y-54041D01*
X85048Y-54069D01*
X85034Y-54126D01*
X85034Y-54198D01*
X85048Y-54255D01*
X85063Y-54283D01*
X85077Y-54298D01*
X85105Y-54312D01*
X83705Y-53028D02*
X83705Y-53328D01*
X83848Y-53028D02*
X83848Y-53328D01*
X84020Y-53028D01*
X84020Y-53328D01*
X84248Y-53328D02*
X84248Y-53113D01*
X84234Y-53071D01*
X84205Y-53042D01*
X84163Y-53028D01*
X84134Y-53028D01*
X84391Y-53142D02*
X84620Y-53142D01*
X84820Y-53328D02*
X84848Y-53328D01*
X84877Y-53313D01*
X84891Y-53299D01*
X84905Y-53271D01*
X84920Y-53213D01*
X84920Y-53142D01*
X84905Y-53085D01*
X84891Y-53056D01*
X84877Y-53042D01*
X84848Y-53028D01*
X84820Y-53028D01*
X84791Y-53042D01*
X84777Y-53056D01*
X84763Y-53085D01*
X84748Y-53142D01*
X84748Y-53213D01*
X84763Y-53271D01*
X84777Y-53299D01*
X84791Y-53313D01*
X84820Y-53328D01*
X85063Y-53028D02*
X85120Y-53028D01*
X85148Y-53042D01*
X85163Y-53056D01*
X85191Y-53099D01*
X85205Y-53156D01*
X85205Y-53271D01*
X85191Y-53299D01*
X85177Y-53313D01*
X85148Y-53328D01*
X85091Y-53328D01*
X85063Y-53313D01*
X85048Y-53299D01*
X85034Y-53271D01*
X85034Y-53199D01*
X85048Y-53171D01*
X85063Y-53156D01*
X85091Y-53142D01*
X85148Y-53142D01*
X85177Y-53156D01*
X85191Y-53171D01*
X85205Y-53199D01*
X83705Y-56965D02*
X83705Y-57265D01*
X83848Y-56965D02*
X83848Y-57265D01*
X84020Y-56965D01*
X84020Y-57265D01*
X84248Y-57265D02*
X84248Y-57050D01*
X84234Y-57008D01*
X84205Y-56979D01*
X84163Y-56965D01*
X84134Y-56965D01*
X84391Y-57079D02*
X84620Y-57079D01*
X84920Y-56965D02*
X84748Y-56965D01*
X84834Y-56965D02*
X84834Y-57265D01*
X84805Y-57222D01*
X84777Y-57193D01*
X84748Y-57179D01*
X85034Y-57236D02*
X85048Y-57250D01*
X85077Y-57265D01*
X85148Y-57265D01*
X85177Y-57250D01*
X85191Y-57236D01*
X85205Y-57208D01*
X85205Y-57179D01*
X85191Y-57136D01*
X85020Y-56965D01*
X85205Y-56965D01*
X83902Y-55193D02*
X83902Y-55493D01*
X84045Y-55193D02*
X84045Y-55493D01*
X84217Y-55193D01*
X84217Y-55493D01*
X84445Y-55493D02*
X84445Y-55279D01*
X84431Y-55236D01*
X84402Y-55207D01*
X84359Y-55193D01*
X84331Y-55193D01*
X84588Y-55307D02*
X84817Y-55307D01*
X85117Y-55193D02*
X84945Y-55193D01*
X85031Y-55193D02*
X85031Y-55493D01*
X85002Y-55450D01*
X84974Y-55422D01*
X84945Y-55407D01*
X85402Y-55193D02*
X85231Y-55193D01*
X85317Y-55193D02*
X85317Y-55493D01*
X85288Y-55450D01*
X85259Y-55422D01*
X85231Y-55407D01*
X84045Y-57949D02*
X84045Y-58149D01*
X84045Y-58249D02*
X84031Y-58235D01*
X84045Y-58220D01*
X84059Y-58235D01*
X84045Y-58249D01*
X84045Y-58220D01*
X84345Y-58235D02*
X84317Y-58249D01*
X84274Y-58249D01*
X84231Y-58235D01*
X84202Y-58206D01*
X84188Y-58178D01*
X84174Y-58120D01*
X84174Y-58078D01*
X84188Y-58020D01*
X84202Y-57992D01*
X84231Y-57963D01*
X84274Y-57949D01*
X84302Y-57949D01*
X84345Y-57963D01*
X84359Y-57978D01*
X84359Y-58078D01*
X84302Y-58078D01*
X84488Y-57949D02*
X84488Y-58249D01*
X84659Y-57949D01*
X84659Y-58249D01*
X84802Y-57949D02*
X84802Y-58249D01*
X84874Y-58249D01*
X84917Y-58235D01*
X84945Y-58206D01*
X84959Y-58178D01*
X84974Y-58120D01*
X84974Y-58078D01*
X84959Y-58020D01*
X84945Y-57992D01*
X84917Y-57963D01*
X84874Y-57949D01*
X84802Y-57949D01*
X85259Y-57949D02*
X85088Y-57949D01*
X85174Y-57949D02*
X85174Y-58249D01*
X85145Y-58206D01*
X85117Y-58178D01*
X85088Y-58163D01*
G54D16*
X73823Y-36921D02*
X73023Y-36921D01*
X73823Y-37178D02*
X73404Y-37178D01*
X73328Y-37150D01*
X73290Y-37092D01*
X73290Y-37007D01*
X73328Y-36950D01*
X73366Y-36921D01*
X73290Y-37378D02*
X73290Y-37607D01*
X73023Y-37464D02*
X73709Y-37464D01*
X73785Y-37492D01*
X73823Y-37550D01*
X73823Y-37607D01*
X73290Y-37721D02*
X73290Y-37950D01*
X73023Y-37807D02*
X73709Y-37807D01*
X73785Y-37835D01*
X73823Y-37892D01*
X73823Y-37950D01*
X73290Y-38150D02*
X74090Y-38150D01*
X73328Y-38150D02*
X73290Y-38207D01*
X73290Y-38321D01*
X73328Y-38378D01*
X73366Y-38407D01*
X73442Y-38435D01*
X73671Y-38435D01*
X73747Y-38407D01*
X73785Y-38378D01*
X73823Y-38321D01*
X73823Y-38207D01*
X73785Y-38150D01*
X73747Y-38692D02*
X73785Y-38721D01*
X73823Y-38692D01*
X73785Y-38664D01*
X73747Y-38692D01*
X73823Y-38692D01*
X73328Y-38692D02*
X73366Y-38721D01*
X73404Y-38692D01*
X73366Y-38664D01*
X73328Y-38692D01*
X73404Y-38692D01*
X72985Y-39407D02*
X74014Y-38892D01*
X72985Y-40035D02*
X74014Y-39521D01*
X73785Y-40492D02*
X73823Y-40435D01*
X73823Y-40321D01*
X73785Y-40264D01*
X73747Y-40235D01*
X73671Y-40207D01*
X73442Y-40207D01*
X73366Y-40235D01*
X73328Y-40264D01*
X73290Y-40321D01*
X73290Y-40435D01*
X73328Y-40492D01*
X73823Y-40835D02*
X73785Y-40778D01*
X73747Y-40750D01*
X73671Y-40721D01*
X73442Y-40721D01*
X73366Y-40750D01*
X73328Y-40778D01*
X73290Y-40835D01*
X73290Y-40921D01*
X73328Y-40978D01*
X73366Y-41007D01*
X73442Y-41035D01*
X73671Y-41035D01*
X73747Y-41007D01*
X73785Y-40978D01*
X73823Y-40921D01*
X73823Y-40835D01*
X73823Y-41550D02*
X73023Y-41550D01*
X73785Y-41550D02*
X73823Y-41492D01*
X73823Y-41378D01*
X73785Y-41321D01*
X73747Y-41292D01*
X73671Y-41264D01*
X73442Y-41264D01*
X73366Y-41292D01*
X73328Y-41321D01*
X73290Y-41378D01*
X73290Y-41492D01*
X73328Y-41550D01*
X73785Y-42064D02*
X73823Y-42007D01*
X73823Y-41892D01*
X73785Y-41835D01*
X73709Y-41807D01*
X73404Y-41807D01*
X73328Y-41835D01*
X73290Y-41892D01*
X73290Y-42007D01*
X73328Y-42064D01*
X73404Y-42092D01*
X73480Y-42092D01*
X73557Y-41807D01*
X73747Y-42350D02*
X73785Y-42378D01*
X73823Y-42350D01*
X73785Y-42321D01*
X73747Y-42350D01*
X73823Y-42350D01*
X73290Y-42892D02*
X73938Y-42892D01*
X74014Y-42864D01*
X74052Y-42835D01*
X74090Y-42778D01*
X74090Y-42692D01*
X74052Y-42635D01*
X73785Y-42892D02*
X73823Y-42835D01*
X73823Y-42721D01*
X73785Y-42664D01*
X73747Y-42635D01*
X73671Y-42607D01*
X73442Y-42607D01*
X73366Y-42635D01*
X73328Y-42664D01*
X73290Y-42721D01*
X73290Y-42835D01*
X73328Y-42892D01*
X73823Y-43264D02*
X73785Y-43207D01*
X73747Y-43178D01*
X73671Y-43150D01*
X73442Y-43150D01*
X73366Y-43178D01*
X73328Y-43207D01*
X73290Y-43264D01*
X73290Y-43350D01*
X73328Y-43407D01*
X73366Y-43435D01*
X73442Y-43464D01*
X73671Y-43464D01*
X73747Y-43435D01*
X73785Y-43407D01*
X73823Y-43350D01*
X73823Y-43264D01*
X73823Y-43807D02*
X73785Y-43750D01*
X73747Y-43721D01*
X73671Y-43692D01*
X73442Y-43692D01*
X73366Y-43721D01*
X73328Y-43750D01*
X73290Y-43807D01*
X73290Y-43892D01*
X73328Y-43950D01*
X73366Y-43978D01*
X73442Y-44007D01*
X73671Y-44007D01*
X73747Y-43978D01*
X73785Y-43950D01*
X73823Y-43892D01*
X73823Y-43807D01*
X73290Y-44521D02*
X73938Y-44521D01*
X74014Y-44492D01*
X74052Y-44464D01*
X74090Y-44407D01*
X74090Y-44321D01*
X74052Y-44264D01*
X73785Y-44521D02*
X73823Y-44464D01*
X73823Y-44349D01*
X73785Y-44292D01*
X73747Y-44264D01*
X73671Y-44235D01*
X73442Y-44235D01*
X73366Y-44264D01*
X73328Y-44292D01*
X73290Y-44349D01*
X73290Y-44464D01*
X73328Y-44521D01*
X73823Y-44892D02*
X73785Y-44835D01*
X73709Y-44807D01*
X73023Y-44807D01*
X73785Y-45350D02*
X73823Y-45292D01*
X73823Y-45178D01*
X73785Y-45121D01*
X73709Y-45092D01*
X73404Y-45092D01*
X73328Y-45121D01*
X73290Y-45178D01*
X73290Y-45292D01*
X73328Y-45350D01*
X73404Y-45378D01*
X73480Y-45378D01*
X73557Y-45092D01*
X73747Y-45635D02*
X73785Y-45664D01*
X73823Y-45635D01*
X73785Y-45607D01*
X73747Y-45635D01*
X73823Y-45635D01*
X73785Y-46178D02*
X73823Y-46121D01*
X73823Y-46007D01*
X73785Y-45950D01*
X73747Y-45921D01*
X73671Y-45892D01*
X73442Y-45892D01*
X73366Y-45921D01*
X73328Y-45950D01*
X73290Y-46007D01*
X73290Y-46121D01*
X73328Y-46178D01*
X73823Y-46521D02*
X73785Y-46464D01*
X73747Y-46435D01*
X73671Y-46407D01*
X73442Y-46407D01*
X73366Y-46435D01*
X73328Y-46464D01*
X73290Y-46521D01*
X73290Y-46607D01*
X73328Y-46664D01*
X73366Y-46692D01*
X73442Y-46721D01*
X73671Y-46721D01*
X73747Y-46692D01*
X73785Y-46664D01*
X73823Y-46607D01*
X73823Y-46521D01*
X73823Y-46978D02*
X73290Y-46978D01*
X73366Y-46978D02*
X73328Y-47007D01*
X73290Y-47064D01*
X73290Y-47150D01*
X73328Y-47207D01*
X73404Y-47235D01*
X73823Y-47235D01*
X73404Y-47235D02*
X73328Y-47264D01*
X73290Y-47321D01*
X73290Y-47407D01*
X73328Y-47464D01*
X73404Y-47492D01*
X73823Y-47492D01*
X72985Y-48207D02*
X74014Y-47692D01*
X73290Y-48407D02*
X74090Y-48407D01*
X73328Y-48407D02*
X73290Y-48464D01*
X73290Y-48578D01*
X73328Y-48635D01*
X73366Y-48664D01*
X73442Y-48692D01*
X73671Y-48692D01*
X73747Y-48664D01*
X73785Y-48635D01*
X73823Y-48578D01*
X73823Y-48464D01*
X73785Y-48407D01*
X72985Y-49378D02*
X74014Y-48864D01*
X73823Y-49835D02*
X73023Y-49835D01*
X73785Y-49835D02*
X73823Y-49778D01*
X73823Y-49664D01*
X73785Y-49607D01*
X73747Y-49578D01*
X73671Y-49549D01*
X73442Y-49549D01*
X73366Y-49578D01*
X73328Y-49607D01*
X73290Y-49664D01*
X73290Y-49778D01*
X73328Y-49835D01*
X73823Y-50378D02*
X73404Y-50378D01*
X73328Y-50349D01*
X73290Y-50292D01*
X73290Y-50178D01*
X73328Y-50121D01*
X73785Y-50378D02*
X73823Y-50321D01*
X73823Y-50178D01*
X73785Y-50121D01*
X73709Y-50092D01*
X73633Y-50092D01*
X73557Y-50121D01*
X73519Y-50178D01*
X73519Y-50321D01*
X73480Y-50378D01*
X73785Y-50892D02*
X73823Y-50835D01*
X73823Y-50721D01*
X73785Y-50664D01*
X73709Y-50635D01*
X73404Y-50635D01*
X73328Y-50664D01*
X73290Y-50721D01*
X73290Y-50835D01*
X73328Y-50892D01*
X73404Y-50921D01*
X73480Y-50921D01*
X73557Y-50635D01*
X73785Y-51435D02*
X73823Y-51378D01*
X73823Y-51264D01*
X73785Y-51207D01*
X73747Y-51178D01*
X73671Y-51149D01*
X73442Y-51149D01*
X73366Y-51178D01*
X73328Y-51207D01*
X73290Y-51264D01*
X73290Y-51378D01*
X73328Y-51435D01*
X73290Y-51949D02*
X73823Y-51949D01*
X73290Y-51692D02*
X73709Y-51692D01*
X73785Y-51721D01*
X73823Y-51778D01*
X73823Y-51864D01*
X73785Y-51921D01*
X73747Y-51949D01*
X72985Y-52664D02*
X74014Y-52149D01*
G54D11*
X75138Y-39190D02*
X75336Y-39190D01*
X75229Y-39068D01*
X75275Y-39068D01*
X75305Y-39053D01*
X75320Y-39038D01*
X75336Y-39007D01*
X75336Y-38931D01*
X75320Y-38900D01*
X75305Y-38885D01*
X75275Y-38870D01*
X75183Y-38870D01*
X75153Y-38885D01*
X75138Y-38900D01*
X75427Y-39190D02*
X75534Y-38870D01*
X75640Y-39190D01*
X77119Y-39190D02*
X76966Y-39190D01*
X76951Y-39038D01*
X76966Y-39053D01*
X76997Y-39068D01*
X77073Y-39068D01*
X77103Y-39053D01*
X77119Y-39038D01*
X77134Y-39007D01*
X77134Y-38931D01*
X77119Y-38900D01*
X77103Y-38885D01*
X77073Y-38870D01*
X76997Y-38870D01*
X76966Y-38885D01*
X76951Y-38900D01*
X77225Y-39190D02*
X77332Y-38870D01*
X77439Y-39190D01*
X79176Y-39175D02*
X79145Y-39190D01*
X79099Y-39190D01*
X79054Y-39175D01*
X79023Y-39144D01*
X79008Y-39114D01*
X78993Y-39053D01*
X78993Y-39007D01*
X79008Y-38946D01*
X79023Y-38916D01*
X79054Y-38885D01*
X79099Y-38870D01*
X79130Y-38870D01*
X79176Y-38885D01*
X79191Y-38900D01*
X79191Y-39007D01*
X79130Y-39007D01*
X79328Y-38870D02*
X79328Y-39190D01*
X79511Y-38870D01*
X79511Y-39190D01*
X79663Y-38870D02*
X79663Y-39190D01*
X79740Y-39190D01*
X79785Y-39175D01*
X79816Y-39144D01*
X79831Y-39114D01*
X79846Y-39053D01*
X79846Y-39007D01*
X79831Y-38946D01*
X79816Y-38916D01*
X79785Y-38885D01*
X79740Y-38870D01*
X79663Y-38870D01*
X68631Y-58870D02*
X68631Y-59190D01*
X68753Y-59190D01*
X68783Y-59175D01*
X68799Y-59160D01*
X68814Y-59129D01*
X68814Y-59083D01*
X68799Y-59053D01*
X68783Y-59038D01*
X68753Y-59022D01*
X68631Y-59022D01*
X69058Y-59038D02*
X69103Y-59022D01*
X69119Y-59007D01*
X69134Y-58977D01*
X69134Y-58931D01*
X69119Y-58900D01*
X69103Y-58885D01*
X69073Y-58870D01*
X68951Y-58870D01*
X68951Y-59190D01*
X69058Y-59190D01*
X69088Y-59175D01*
X69103Y-59160D01*
X69119Y-59129D01*
X69119Y-59099D01*
X69103Y-59068D01*
X69088Y-59053D01*
X69058Y-59038D01*
X68951Y-59038D01*
X69317Y-59053D02*
X69286Y-59068D01*
X69271Y-59083D01*
X69256Y-59114D01*
X69256Y-59129D01*
X69271Y-59160D01*
X69286Y-59175D01*
X69317Y-59190D01*
X69378Y-59190D01*
X69408Y-59175D01*
X69423Y-59160D01*
X69439Y-59129D01*
X69439Y-59114D01*
X69423Y-59083D01*
X69408Y-59068D01*
X69378Y-59053D01*
X69317Y-59053D01*
X69286Y-59038D01*
X69271Y-59022D01*
X69256Y-58992D01*
X69256Y-58931D01*
X69271Y-58900D01*
X69286Y-58885D01*
X69317Y-58870D01*
X69378Y-58870D01*
X69408Y-58885D01*
X69423Y-58900D01*
X69439Y-58931D01*
X69439Y-58992D01*
X69423Y-59022D01*
X69408Y-59038D01*
X69378Y-59053D01*
X68661Y-57874D02*
X68661Y-58194D01*
X68783Y-58194D01*
X68814Y-58179D01*
X68829Y-58164D01*
X68844Y-58133D01*
X68844Y-58087D01*
X68829Y-58057D01*
X68814Y-58042D01*
X68783Y-58026D01*
X68661Y-58026D01*
X68981Y-58042D02*
X69088Y-58042D01*
X69134Y-57874D02*
X68981Y-57874D01*
X68981Y-58194D01*
X69134Y-58194D01*
X69332Y-58194D02*
X69362Y-58194D01*
X69393Y-58179D01*
X69408Y-58164D01*
X69423Y-58133D01*
X69439Y-58072D01*
X69439Y-57996D01*
X69423Y-57935D01*
X69408Y-57904D01*
X69393Y-57889D01*
X69362Y-57874D01*
X69332Y-57874D01*
X69301Y-57889D01*
X69286Y-57904D01*
X69271Y-57935D01*
X69256Y-57996D01*
X69256Y-58072D01*
X69271Y-58133D01*
X69286Y-58164D01*
X69301Y-58179D01*
X69332Y-58194D01*
X68661Y-56878D02*
X68661Y-57198D01*
X68783Y-57198D01*
X68814Y-57183D01*
X68829Y-57168D01*
X68844Y-57137D01*
X68844Y-57091D01*
X68829Y-57061D01*
X68814Y-57046D01*
X68783Y-57030D01*
X68661Y-57030D01*
X68981Y-57046D02*
X69088Y-57046D01*
X69134Y-56878D02*
X68981Y-56878D01*
X68981Y-57198D01*
X69134Y-57198D01*
X69256Y-57168D02*
X69271Y-57183D01*
X69301Y-57198D01*
X69378Y-57198D01*
X69408Y-57183D01*
X69423Y-57168D01*
X69439Y-57137D01*
X69439Y-57107D01*
X69423Y-57061D01*
X69240Y-56878D01*
X69439Y-56878D01*
X68661Y-55882D02*
X68661Y-56202D01*
X68783Y-56202D01*
X68814Y-56187D01*
X68829Y-56172D01*
X68844Y-56141D01*
X68844Y-56095D01*
X68829Y-56065D01*
X68814Y-56050D01*
X68783Y-56034D01*
X68661Y-56034D01*
X68981Y-56050D02*
X69088Y-56050D01*
X69134Y-55882D02*
X68981Y-55882D01*
X68981Y-56202D01*
X69134Y-56202D01*
X69408Y-56095D02*
X69408Y-55882D01*
X69332Y-56217D02*
X69256Y-55989D01*
X69454Y-55989D01*
X68661Y-54886D02*
X68661Y-55206D01*
X68783Y-55206D01*
X68814Y-55191D01*
X68829Y-55176D01*
X68844Y-55145D01*
X68844Y-55099D01*
X68829Y-55069D01*
X68814Y-55054D01*
X68783Y-55038D01*
X68661Y-55038D01*
X68981Y-55054D02*
X69088Y-55054D01*
X69134Y-54886D02*
X68981Y-54886D01*
X68981Y-55206D01*
X69134Y-55206D01*
X69408Y-55206D02*
X69347Y-55206D01*
X69317Y-55191D01*
X69301Y-55176D01*
X69271Y-55130D01*
X69256Y-55069D01*
X69256Y-54947D01*
X69271Y-54916D01*
X69286Y-54901D01*
X69317Y-54886D01*
X69378Y-54886D01*
X69408Y-54901D01*
X69423Y-54916D01*
X69439Y-54947D01*
X69439Y-55023D01*
X69423Y-55054D01*
X69408Y-55069D01*
X69378Y-55084D01*
X69317Y-55084D01*
X69286Y-55069D01*
X69271Y-55054D01*
X69256Y-55023D01*
X68326Y-53890D02*
X68326Y-54210D01*
X68448Y-54210D01*
X68479Y-54195D01*
X68494Y-54180D01*
X68509Y-54149D01*
X68509Y-54103D01*
X68494Y-54073D01*
X68479Y-54058D01*
X68448Y-54042D01*
X68326Y-54042D01*
X68829Y-53920D02*
X68814Y-53905D01*
X68768Y-53890D01*
X68738Y-53890D01*
X68692Y-53905D01*
X68661Y-53936D01*
X68646Y-53966D01*
X68631Y-54027D01*
X68631Y-54073D01*
X68646Y-54134D01*
X68661Y-54164D01*
X68692Y-54195D01*
X68738Y-54210D01*
X68768Y-54210D01*
X68814Y-54195D01*
X68829Y-54180D01*
X69134Y-53890D02*
X68951Y-53890D01*
X69042Y-53890D02*
X69042Y-54210D01*
X69012Y-54164D01*
X68981Y-54134D01*
X68951Y-54119D01*
X69408Y-54103D02*
X69408Y-53890D01*
X69332Y-54225D02*
X69256Y-53997D01*
X69454Y-53997D01*
X68616Y-52894D02*
X68616Y-53214D01*
X68738Y-53214D01*
X68768Y-53199D01*
X68783Y-53184D01*
X68799Y-53153D01*
X68799Y-53107D01*
X68783Y-53077D01*
X68768Y-53062D01*
X68738Y-53046D01*
X68616Y-53046D01*
X68936Y-52894D02*
X68936Y-53214D01*
X68936Y-53062D02*
X69119Y-53062D01*
X69119Y-52894D02*
X69119Y-53214D01*
X69332Y-53214D02*
X69362Y-53214D01*
X69393Y-53199D01*
X69408Y-53184D01*
X69423Y-53153D01*
X69439Y-53092D01*
X69439Y-53016D01*
X69423Y-52955D01*
X69408Y-52924D01*
X69393Y-52909D01*
X69362Y-52894D01*
X69332Y-52894D01*
X69301Y-52909D01*
X69286Y-52924D01*
X69271Y-52955D01*
X69256Y-53016D01*
X69256Y-53092D01*
X69271Y-53153D01*
X69286Y-53184D01*
X69301Y-53199D01*
X69332Y-53214D01*
X68966Y-52218D02*
X69164Y-52218D01*
X69058Y-52096D01*
X69103Y-52096D01*
X69134Y-52081D01*
X69149Y-52066D01*
X69164Y-52035D01*
X69164Y-51959D01*
X69149Y-51928D01*
X69134Y-51913D01*
X69103Y-51898D01*
X69012Y-51898D01*
X68981Y-51913D01*
X68966Y-51928D01*
X69256Y-52218D02*
X69362Y-51898D01*
X69469Y-52218D01*
X69149Y-51222D02*
X68997Y-51222D01*
X68981Y-51070D01*
X68997Y-51085D01*
X69027Y-51100D01*
X69103Y-51100D01*
X69134Y-51085D01*
X69149Y-51070D01*
X69164Y-51039D01*
X69164Y-50963D01*
X69149Y-50932D01*
X69134Y-50917D01*
X69103Y-50902D01*
X69027Y-50902D01*
X68997Y-50917D01*
X68981Y-50932D01*
X69256Y-51222D02*
X69362Y-50902D01*
X69469Y-51222D01*
X68768Y-50211D02*
X68738Y-50226D01*
X68692Y-50226D01*
X68646Y-50211D01*
X68616Y-50180D01*
X68600Y-50150D01*
X68585Y-50089D01*
X68585Y-50043D01*
X68600Y-49982D01*
X68616Y-49952D01*
X68646Y-49921D01*
X68692Y-49906D01*
X68722Y-49906D01*
X68768Y-49921D01*
X68783Y-49936D01*
X68783Y-50043D01*
X68722Y-50043D01*
X68920Y-49906D02*
X68920Y-50226D01*
X69103Y-49906D01*
X69103Y-50226D01*
X69256Y-49906D02*
X69256Y-50226D01*
X69332Y-50226D01*
X69378Y-50211D01*
X69408Y-50180D01*
X69423Y-50150D01*
X69439Y-50089D01*
X69439Y-50043D01*
X69423Y-49982D01*
X69408Y-49952D01*
X69378Y-49921D01*
X69332Y-49906D01*
X69256Y-49906D01*
X71576Y-58870D02*
X71576Y-59190D01*
X71698Y-59190D01*
X71728Y-59175D01*
X71743Y-59160D01*
X71759Y-59129D01*
X71759Y-59083D01*
X71743Y-59053D01*
X71728Y-59038D01*
X71698Y-59022D01*
X71576Y-59022D01*
X72002Y-59038D02*
X72048Y-59022D01*
X72063Y-59007D01*
X72079Y-58977D01*
X72079Y-58931D01*
X72063Y-58900D01*
X72048Y-58885D01*
X72018Y-58870D01*
X71896Y-58870D01*
X71896Y-59190D01*
X72002Y-59190D01*
X72033Y-59175D01*
X72048Y-59160D01*
X72063Y-59129D01*
X72063Y-59099D01*
X72048Y-59068D01*
X72033Y-59053D01*
X72002Y-59038D01*
X71896Y-59038D01*
X72231Y-58870D02*
X72292Y-58870D01*
X72322Y-58885D01*
X72338Y-58900D01*
X72368Y-58946D01*
X72383Y-59007D01*
X72383Y-59129D01*
X72368Y-59160D01*
X72353Y-59175D01*
X72322Y-59190D01*
X72261Y-59190D01*
X72231Y-59175D01*
X72216Y-59160D01*
X72200Y-59129D01*
X72200Y-59053D01*
X72216Y-59022D01*
X72231Y-59007D01*
X72261Y-58992D01*
X72322Y-58992D01*
X72353Y-59007D01*
X72368Y-59022D01*
X72383Y-59053D01*
X71576Y-57874D02*
X71576Y-58194D01*
X71698Y-58194D01*
X71728Y-58179D01*
X71743Y-58164D01*
X71759Y-58133D01*
X71759Y-58087D01*
X71743Y-58057D01*
X71728Y-58042D01*
X71698Y-58026D01*
X71576Y-58026D01*
X71896Y-58042D02*
X72002Y-58042D01*
X72048Y-57874D02*
X71896Y-57874D01*
X71896Y-58194D01*
X72048Y-58194D01*
X72353Y-57874D02*
X72170Y-57874D01*
X72261Y-57874D02*
X72261Y-58194D01*
X72231Y-58148D01*
X72200Y-58118D01*
X72170Y-58103D01*
X71576Y-56878D02*
X71576Y-57198D01*
X71698Y-57198D01*
X71728Y-57183D01*
X71743Y-57168D01*
X71759Y-57137D01*
X71759Y-57091D01*
X71743Y-57061D01*
X71728Y-57046D01*
X71698Y-57030D01*
X71576Y-57030D01*
X71896Y-57046D02*
X72002Y-57046D01*
X72048Y-56878D02*
X71896Y-56878D01*
X71896Y-57198D01*
X72048Y-57198D01*
X72155Y-57198D02*
X72353Y-57198D01*
X72246Y-57076D01*
X72292Y-57076D01*
X72322Y-57061D01*
X72338Y-57046D01*
X72353Y-57015D01*
X72353Y-56939D01*
X72338Y-56908D01*
X72322Y-56893D01*
X72292Y-56878D01*
X72200Y-56878D01*
X72170Y-56893D01*
X72155Y-56908D01*
X71576Y-55882D02*
X71576Y-56202D01*
X71698Y-56202D01*
X71728Y-56187D01*
X71743Y-56172D01*
X71759Y-56141D01*
X71759Y-56095D01*
X71743Y-56065D01*
X71728Y-56050D01*
X71698Y-56034D01*
X71576Y-56034D01*
X71896Y-56050D02*
X72002Y-56050D01*
X72048Y-55882D02*
X71896Y-55882D01*
X71896Y-56202D01*
X72048Y-56202D01*
X72338Y-56202D02*
X72185Y-56202D01*
X72170Y-56050D01*
X72185Y-56065D01*
X72216Y-56080D01*
X72292Y-56080D01*
X72322Y-56065D01*
X72338Y-56050D01*
X72353Y-56019D01*
X72353Y-55943D01*
X72338Y-55912D01*
X72322Y-55897D01*
X72292Y-55882D01*
X72216Y-55882D01*
X72185Y-55897D01*
X72170Y-55912D01*
X71576Y-54886D02*
X71576Y-55206D01*
X71698Y-55206D01*
X71728Y-55191D01*
X71743Y-55176D01*
X71759Y-55145D01*
X71759Y-55099D01*
X71743Y-55069D01*
X71728Y-55054D01*
X71698Y-55038D01*
X71576Y-55038D01*
X71896Y-55054D02*
X72002Y-55054D01*
X72048Y-54886D02*
X71896Y-54886D01*
X71896Y-55206D01*
X72048Y-55206D01*
X72353Y-54886D02*
X72170Y-54886D01*
X72261Y-54886D02*
X72261Y-55206D01*
X72231Y-55160D01*
X72200Y-55130D01*
X72170Y-55115D01*
X72459Y-55206D02*
X72658Y-55206D01*
X72551Y-55084D01*
X72597Y-55084D01*
X72627Y-55069D01*
X72642Y-55054D01*
X72658Y-55023D01*
X72658Y-54947D01*
X72642Y-54916D01*
X72627Y-54901D01*
X72597Y-54886D01*
X72505Y-54886D01*
X72475Y-54901D01*
X72459Y-54916D01*
X71576Y-53890D02*
X71576Y-54210D01*
X71698Y-54210D01*
X71728Y-54195D01*
X71743Y-54180D01*
X71759Y-54149D01*
X71759Y-54103D01*
X71743Y-54073D01*
X71728Y-54058D01*
X71698Y-54042D01*
X71576Y-54042D01*
X72079Y-53920D02*
X72063Y-53905D01*
X72018Y-53890D01*
X71987Y-53890D01*
X71941Y-53905D01*
X71911Y-53936D01*
X71896Y-53966D01*
X71880Y-54027D01*
X71880Y-54073D01*
X71896Y-54134D01*
X71911Y-54164D01*
X71941Y-54195D01*
X71987Y-54210D01*
X72018Y-54210D01*
X72063Y-54195D01*
X72079Y-54180D01*
X72383Y-53890D02*
X72200Y-53890D01*
X72292Y-53890D02*
X72292Y-54210D01*
X72261Y-54164D01*
X72231Y-54134D01*
X72200Y-54119D01*
X72673Y-54210D02*
X72520Y-54210D01*
X72505Y-54058D01*
X72520Y-54073D01*
X72551Y-54088D01*
X72627Y-54088D01*
X72658Y-54073D01*
X72673Y-54058D01*
X72688Y-54027D01*
X72688Y-53951D01*
X72673Y-53920D01*
X72658Y-53905D01*
X72627Y-53890D01*
X72551Y-53890D01*
X72520Y-53905D01*
X72505Y-53920D01*
X71576Y-52894D02*
X71576Y-53214D01*
X71698Y-53214D01*
X71728Y-53199D01*
X71743Y-53184D01*
X71759Y-53153D01*
X71759Y-53107D01*
X71743Y-53077D01*
X71728Y-53062D01*
X71698Y-53046D01*
X71576Y-53046D01*
X71896Y-52894D02*
X71896Y-53214D01*
X71896Y-53062D02*
X72079Y-53062D01*
X72079Y-52894D02*
X72079Y-53214D01*
X72399Y-52894D02*
X72216Y-52894D01*
X72307Y-52894D02*
X72307Y-53214D01*
X72277Y-53168D01*
X72246Y-53138D01*
X72216Y-53123D01*
X71545Y-52218D02*
X71743Y-52218D01*
X71637Y-52096D01*
X71682Y-52096D01*
X71713Y-52081D01*
X71728Y-52066D01*
X71743Y-52035D01*
X71743Y-51959D01*
X71728Y-51928D01*
X71713Y-51913D01*
X71682Y-51898D01*
X71591Y-51898D01*
X71560Y-51913D01*
X71545Y-51928D01*
X71835Y-52218D02*
X71941Y-51898D01*
X72048Y-52218D01*
X71728Y-51222D02*
X71576Y-51222D01*
X71560Y-51070D01*
X71576Y-51085D01*
X71606Y-51100D01*
X71682Y-51100D01*
X71713Y-51085D01*
X71728Y-51070D01*
X71743Y-51039D01*
X71743Y-50963D01*
X71728Y-50932D01*
X71713Y-50917D01*
X71682Y-50902D01*
X71606Y-50902D01*
X71576Y-50917D01*
X71560Y-50932D01*
X71835Y-51222D02*
X71941Y-50902D01*
X72048Y-51222D01*
X71743Y-50211D02*
X71713Y-50226D01*
X71667Y-50226D01*
X71621Y-50211D01*
X71591Y-50180D01*
X71576Y-50150D01*
X71560Y-50089D01*
X71560Y-50043D01*
X71576Y-49982D01*
X71591Y-49952D01*
X71621Y-49921D01*
X71667Y-49906D01*
X71698Y-49906D01*
X71743Y-49921D01*
X71759Y-49936D01*
X71759Y-50043D01*
X71698Y-50043D01*
X71896Y-49906D02*
X71896Y-50226D01*
X72079Y-49906D01*
X72079Y-50226D01*
X72231Y-49906D02*
X72231Y-50226D01*
X72307Y-50226D01*
X72353Y-50211D01*
X72383Y-50180D01*
X72399Y-50150D01*
X72414Y-50089D01*
X72414Y-50043D01*
X72399Y-49982D01*
X72383Y-49952D01*
X72353Y-49921D01*
X72307Y-49906D01*
X72231Y-49906D01*
X71333Y-37452D02*
X71333Y-36952D01*
X71214Y-36952D01*
X71142Y-36976D01*
X71095Y-37023D01*
X71071Y-37071D01*
X71047Y-37166D01*
X71047Y-37238D01*
X71071Y-37333D01*
X71095Y-37380D01*
X71142Y-37428D01*
X71214Y-37452D01*
X71333Y-37452D01*
X70857Y-37309D02*
X70619Y-37309D01*
X70904Y-37452D02*
X70738Y-36952D01*
X70571Y-37452D01*
X70404Y-37190D02*
X70238Y-37190D01*
X70166Y-37452D02*
X70404Y-37452D01*
X70404Y-36952D01*
X70166Y-36952D01*
X69666Y-37404D02*
X69690Y-37428D01*
X69761Y-37452D01*
X69809Y-37452D01*
X69880Y-37428D01*
X69928Y-37380D01*
X69952Y-37333D01*
X69976Y-37238D01*
X69976Y-37166D01*
X69952Y-37071D01*
X69928Y-37023D01*
X69880Y-36976D01*
X69809Y-36952D01*
X69761Y-36952D01*
X69690Y-36976D01*
X69666Y-37000D01*
X69452Y-36952D02*
X69452Y-37357D01*
X69428Y-37404D01*
X69404Y-37428D01*
X69357Y-37452D01*
X69261Y-37452D01*
X69214Y-37428D01*
X69190Y-37404D01*
X69166Y-37357D01*
X69166Y-36952D01*
X71690Y-38202D02*
X71690Y-37869D01*
X71690Y-37964D02*
X71666Y-37916D01*
X71642Y-37892D01*
X71595Y-37869D01*
X71547Y-37869D01*
X71190Y-38178D02*
X71238Y-38202D01*
X71333Y-38202D01*
X71380Y-38178D01*
X71404Y-38130D01*
X71404Y-37940D01*
X71380Y-37892D01*
X71333Y-37869D01*
X71238Y-37869D01*
X71190Y-37892D01*
X71166Y-37940D01*
X71166Y-37988D01*
X71404Y-38035D01*
X71000Y-37869D02*
X70880Y-38202D01*
X70761Y-37869D01*
X70214Y-38059D02*
X69976Y-38059D01*
X70261Y-38202D02*
X70095Y-37702D01*
X69928Y-38202D01*
X69761Y-38154D02*
X69738Y-38178D01*
X69761Y-38202D01*
X69785Y-38178D01*
X69761Y-38154D01*
X69761Y-38202D01*
X69428Y-37702D02*
X69380Y-37702D01*
X69333Y-37726D01*
X69309Y-37750D01*
X69285Y-37797D01*
X69261Y-37892D01*
X69261Y-38011D01*
X69285Y-38107D01*
X69309Y-38154D01*
X69333Y-38178D01*
X69380Y-38202D01*
X69428Y-38202D01*
X69476Y-38178D01*
X69500Y-38154D01*
X69523Y-38107D01*
X69547Y-38011D01*
X69547Y-37892D01*
X69523Y-37797D01*
X69500Y-37750D01*
X69476Y-37726D01*
X69428Y-37702D01*
X68785Y-38202D02*
X69071Y-38202D01*
X68928Y-38202D02*
X68928Y-37702D01*
X68976Y-37773D01*
X69023Y-37821D01*
X69071Y-37845D01*
X72645Y-43654D02*
X72645Y-43807D01*
X72911Y-43711D02*
X72569Y-43711D01*
X72530Y-43730D01*
X72511Y-43769D01*
X72511Y-43807D01*
X72911Y-43997D02*
X72892Y-43959D01*
X72873Y-43940D01*
X72835Y-43921D01*
X72721Y-43921D01*
X72683Y-43940D01*
X72664Y-43959D01*
X72645Y-43997D01*
X72645Y-44054D01*
X72664Y-44092D01*
X72683Y-44111D01*
X72721Y-44130D01*
X72835Y-44130D01*
X72873Y-44111D01*
X72892Y-44092D01*
X72911Y-44054D01*
X72911Y-43997D01*
X72911Y-44302D02*
X72645Y-44302D01*
X72721Y-44302D02*
X72683Y-44321D01*
X72664Y-44340D01*
X72645Y-44378D01*
X72645Y-44416D01*
X72911Y-44854D02*
X72645Y-44854D01*
X72721Y-44854D02*
X72683Y-44873D01*
X72664Y-44892D01*
X72645Y-44930D01*
X72645Y-44969D01*
X72645Y-45273D02*
X72911Y-45273D01*
X72645Y-45102D02*
X72854Y-45102D01*
X72892Y-45121D01*
X72911Y-45159D01*
X72911Y-45216D01*
X72892Y-45254D01*
X72873Y-45273D01*
X72892Y-45445D02*
X72911Y-45483D01*
X72911Y-45559D01*
X72892Y-45597D01*
X72854Y-45616D01*
X72835Y-45616D01*
X72797Y-45597D01*
X72778Y-45559D01*
X72778Y-45502D01*
X72759Y-45464D01*
X72721Y-45445D01*
X72702Y-45445D01*
X72664Y-45464D01*
X72645Y-45502D01*
X72645Y-45559D01*
X72664Y-45597D01*
X72892Y-45940D02*
X72911Y-45902D01*
X72911Y-45826D01*
X72892Y-45788D01*
X72854Y-45769D01*
X72702Y-45769D01*
X72664Y-45788D01*
X72645Y-45826D01*
X72645Y-45902D01*
X72664Y-45940D01*
X72702Y-45959D01*
X72740Y-45959D01*
X72778Y-45769D01*
X72645Y-46073D02*
X72645Y-46226D01*
X72911Y-46130D02*
X72569Y-46130D01*
X72530Y-46149D01*
X72511Y-46188D01*
X72511Y-46226D01*
X72911Y-46359D02*
X72645Y-46359D01*
X72511Y-46359D02*
X72530Y-46340D01*
X72550Y-46359D01*
X72530Y-46378D01*
X72511Y-46359D01*
X72550Y-46359D01*
X72873Y-46549D02*
X72892Y-46569D01*
X72911Y-46549D01*
X72892Y-46530D01*
X72873Y-46549D01*
X72911Y-46549D01*
X72892Y-46911D02*
X72911Y-46873D01*
X72911Y-46797D01*
X72892Y-46759D01*
X72873Y-46740D01*
X72835Y-46721D01*
X72721Y-46721D01*
X72683Y-46740D01*
X72664Y-46759D01*
X72645Y-46797D01*
X72645Y-46873D01*
X72664Y-46911D01*
X72911Y-47140D02*
X72892Y-47102D01*
X72873Y-47083D01*
X72835Y-47064D01*
X72721Y-47064D01*
X72683Y-47083D01*
X72664Y-47102D01*
X72645Y-47140D01*
X72645Y-47197D01*
X72664Y-47235D01*
X72683Y-47254D01*
X72721Y-47273D01*
X72835Y-47273D01*
X72873Y-47254D01*
X72892Y-47235D01*
X72911Y-47197D01*
X72911Y-47140D01*
X72911Y-47445D02*
X72645Y-47445D01*
X72683Y-47445D02*
X72664Y-47464D01*
X72645Y-47502D01*
X72645Y-47559D01*
X72664Y-47597D01*
X72702Y-47616D01*
X72911Y-47616D01*
X72702Y-47616D02*
X72664Y-47635D01*
X72645Y-47673D01*
X72645Y-47730D01*
X72664Y-47769D01*
X72702Y-47788D01*
X72911Y-47788D01*
G54D17*
X83545Y-63045D02*
X83392Y-63045D01*
X83488Y-63311D02*
X83488Y-62969D01*
X83469Y-62930D01*
X83430Y-62911D01*
X83392Y-62911D01*
X83202Y-63311D02*
X83240Y-63292D01*
X83259Y-63273D01*
X83278Y-63235D01*
X83278Y-63121D01*
X83259Y-63083D01*
X83240Y-63064D01*
X83202Y-63045D01*
X83145Y-63045D01*
X83107Y-63064D01*
X83088Y-63083D01*
X83069Y-63121D01*
X83069Y-63235D01*
X83088Y-63273D01*
X83107Y-63292D01*
X83145Y-63311D01*
X83202Y-63311D01*
X82897Y-63311D02*
X82897Y-63045D01*
X82897Y-63121D02*
X82878Y-63083D01*
X82859Y-63064D01*
X82821Y-63045D01*
X82783Y-63045D01*
X82116Y-63311D02*
X82250Y-63121D01*
X82345Y-63311D02*
X82345Y-62911D01*
X82192Y-62911D01*
X82154Y-62930D01*
X82135Y-62950D01*
X82116Y-62988D01*
X82116Y-63045D01*
X82135Y-63083D01*
X82154Y-63102D01*
X82192Y-63121D01*
X82345Y-63121D01*
X81945Y-62911D02*
X81945Y-63235D01*
X81926Y-63273D01*
X81907Y-63292D01*
X81869Y-63311D01*
X81792Y-63311D01*
X81754Y-63292D01*
X81735Y-63273D01*
X81716Y-63235D01*
X81716Y-62911D01*
X81545Y-63292D02*
X81488Y-63311D01*
X81392Y-63311D01*
X81354Y-63292D01*
X81335Y-63273D01*
X81316Y-63235D01*
X81316Y-63197D01*
X81335Y-63159D01*
X81354Y-63140D01*
X81392Y-63121D01*
X81469Y-63102D01*
X81507Y-63083D01*
X81526Y-63064D01*
X81545Y-63026D01*
X81545Y-62988D01*
X81526Y-62950D01*
X81507Y-62930D01*
X81469Y-62911D01*
X81373Y-62911D01*
X81316Y-62930D01*
X81145Y-63102D02*
X81011Y-63102D01*
X80954Y-63311D02*
X81145Y-63311D01*
X81145Y-62911D01*
X80954Y-62911D01*
X80650Y-63102D02*
X80783Y-63102D01*
X80783Y-63311D02*
X80783Y-62911D01*
X80592Y-62911D01*
X80440Y-63311D02*
X80440Y-62911D01*
X80250Y-63273D02*
X80230Y-63292D01*
X80250Y-63311D01*
X80269Y-63292D01*
X80250Y-63273D01*
X80250Y-63311D01*
X79888Y-63292D02*
X79926Y-63311D01*
X80002Y-63311D01*
X80040Y-63292D01*
X80059Y-63273D01*
X80078Y-63235D01*
X80078Y-63121D01*
X80059Y-63083D01*
X80040Y-63064D01*
X80002Y-63045D01*
X79926Y-63045D01*
X79888Y-63064D01*
X79659Y-63311D02*
X79697Y-63292D01*
X79716Y-63273D01*
X79735Y-63235D01*
X79735Y-63121D01*
X79716Y-63083D01*
X79697Y-63064D01*
X79659Y-63045D01*
X79602Y-63045D01*
X79564Y-63064D01*
X79545Y-63083D01*
X79526Y-63121D01*
X79526Y-63235D01*
X79545Y-63273D01*
X79564Y-63292D01*
X79602Y-63311D01*
X79659Y-63311D01*
X79354Y-63311D02*
X79354Y-63045D01*
X79354Y-63083D02*
X79335Y-63064D01*
X79297Y-63045D01*
X79240Y-63045D01*
X79202Y-63064D01*
X79183Y-63102D01*
X79183Y-63311D01*
X79183Y-63102D02*
X79164Y-63064D01*
X79126Y-63045D01*
X79069Y-63045D01*
X79030Y-63064D01*
X79011Y-63102D01*
X79011Y-63311D01*
X84080Y-64161D02*
X84080Y-63761D01*
X83909Y-64161D02*
X83909Y-63952D01*
X83928Y-63914D01*
X83966Y-63895D01*
X84023Y-63895D01*
X84061Y-63914D01*
X84080Y-63933D01*
X83776Y-63895D02*
X83623Y-63895D01*
X83719Y-63761D02*
X83719Y-64104D01*
X83699Y-64142D01*
X83661Y-64161D01*
X83623Y-64161D01*
X83547Y-63895D02*
X83395Y-63895D01*
X83490Y-63761D02*
X83490Y-64104D01*
X83471Y-64142D01*
X83433Y-64161D01*
X83395Y-64161D01*
X83261Y-63895D02*
X83261Y-64295D01*
X83261Y-63914D02*
X83223Y-63895D01*
X83147Y-63895D01*
X83109Y-63914D01*
X83090Y-63933D01*
X83071Y-63971D01*
X83071Y-64085D01*
X83090Y-64123D01*
X83109Y-64142D01*
X83147Y-64161D01*
X83223Y-64161D01*
X83261Y-64142D01*
X82919Y-64142D02*
X82880Y-64161D01*
X82804Y-64161D01*
X82766Y-64142D01*
X82747Y-64104D01*
X82747Y-64085D01*
X82766Y-64047D01*
X82804Y-64028D01*
X82861Y-64028D01*
X82900Y-64009D01*
X82919Y-63971D01*
X82919Y-63952D01*
X82900Y-63914D01*
X82861Y-63895D01*
X82804Y-63895D01*
X82766Y-63914D01*
X82576Y-64123D02*
X82557Y-64142D01*
X82576Y-64161D01*
X82595Y-64142D01*
X82576Y-64123D01*
X82576Y-64161D01*
X82576Y-63914D02*
X82557Y-63933D01*
X82576Y-63952D01*
X82595Y-63933D01*
X82576Y-63914D01*
X82576Y-63952D01*
X82100Y-63742D02*
X82442Y-64257D01*
X81680Y-63742D02*
X82023Y-64257D01*
X81376Y-64142D02*
X81414Y-64161D01*
X81490Y-64161D01*
X81528Y-64142D01*
X81547Y-64123D01*
X81566Y-64085D01*
X81566Y-63971D01*
X81547Y-63933D01*
X81528Y-63914D01*
X81490Y-63895D01*
X81414Y-63895D01*
X81376Y-63914D01*
X81147Y-64161D02*
X81185Y-64142D01*
X81204Y-64123D01*
X81223Y-64085D01*
X81223Y-63971D01*
X81204Y-63933D01*
X81185Y-63914D01*
X81147Y-63895D01*
X81090Y-63895D01*
X81052Y-63914D01*
X81033Y-63933D01*
X81014Y-63971D01*
X81014Y-64085D01*
X81033Y-64123D01*
X81052Y-64142D01*
X81090Y-64161D01*
X81147Y-64161D01*
X80671Y-64161D02*
X80671Y-63761D01*
X80671Y-64142D02*
X80709Y-64161D01*
X80785Y-64161D01*
X80823Y-64142D01*
X80842Y-64123D01*
X80861Y-64085D01*
X80861Y-63971D01*
X80842Y-63933D01*
X80823Y-63914D01*
X80785Y-63895D01*
X80709Y-63895D01*
X80671Y-63914D01*
X80328Y-64142D02*
X80366Y-64161D01*
X80442Y-64161D01*
X80480Y-64142D01*
X80500Y-64104D01*
X80500Y-63952D01*
X80480Y-63914D01*
X80442Y-63895D01*
X80366Y-63895D01*
X80328Y-63914D01*
X80309Y-63952D01*
X80309Y-63990D01*
X80500Y-64028D01*
X80138Y-64123D02*
X80119Y-64142D01*
X80138Y-64161D01*
X80157Y-64142D01*
X80138Y-64123D01*
X80138Y-64161D01*
X79776Y-63895D02*
X79776Y-64219D01*
X79795Y-64257D01*
X79814Y-64276D01*
X79852Y-64295D01*
X79909Y-64295D01*
X79947Y-64276D01*
X79776Y-64142D02*
X79814Y-64161D01*
X79890Y-64161D01*
X79928Y-64142D01*
X79947Y-64123D01*
X79966Y-64085D01*
X79966Y-63971D01*
X79947Y-63933D01*
X79928Y-63914D01*
X79890Y-63895D01*
X79814Y-63895D01*
X79776Y-63914D01*
X79528Y-64161D02*
X79566Y-64142D01*
X79585Y-64123D01*
X79604Y-64085D01*
X79604Y-63971D01*
X79585Y-63933D01*
X79566Y-63914D01*
X79528Y-63895D01*
X79471Y-63895D01*
X79433Y-63914D01*
X79414Y-63933D01*
X79395Y-63971D01*
X79395Y-64085D01*
X79414Y-64123D01*
X79433Y-64142D01*
X79471Y-64161D01*
X79528Y-64161D01*
X79166Y-64161D02*
X79204Y-64142D01*
X79223Y-64123D01*
X79242Y-64085D01*
X79242Y-63971D01*
X79223Y-63933D01*
X79204Y-63914D01*
X79166Y-63895D01*
X79109Y-63895D01*
X79071Y-63914D01*
X79052Y-63933D01*
X79033Y-63971D01*
X79033Y-64085D01*
X79052Y-64123D01*
X79071Y-64142D01*
X79109Y-64161D01*
X79166Y-64161D01*
X78690Y-63895D02*
X78690Y-64219D01*
X78709Y-64257D01*
X78728Y-64276D01*
X78766Y-64295D01*
X78823Y-64295D01*
X78861Y-64276D01*
X78690Y-64142D02*
X78728Y-64161D01*
X78804Y-64161D01*
X78842Y-64142D01*
X78861Y-64123D01*
X78880Y-64085D01*
X78880Y-63971D01*
X78861Y-63933D01*
X78842Y-63914D01*
X78804Y-63895D01*
X78728Y-63895D01*
X78690Y-63914D01*
X78442Y-64161D02*
X78480Y-64142D01*
X78500Y-64104D01*
X78500Y-63761D01*
X78138Y-64142D02*
X78176Y-64161D01*
X78252Y-64161D01*
X78290Y-64142D01*
X78309Y-64104D01*
X78309Y-63952D01*
X78290Y-63914D01*
X78252Y-63895D01*
X78176Y-63895D01*
X78138Y-63914D01*
X78119Y-63952D01*
X78119Y-63990D01*
X78309Y-64028D01*
X77947Y-64123D02*
X77928Y-64142D01*
X77947Y-64161D01*
X77966Y-64142D01*
X77947Y-64123D01*
X77947Y-64161D01*
X77585Y-64142D02*
X77623Y-64161D01*
X77700Y-64161D01*
X77738Y-64142D01*
X77757Y-64123D01*
X77776Y-64085D01*
X77776Y-63971D01*
X77757Y-63933D01*
X77738Y-63914D01*
X77700Y-63895D01*
X77623Y-63895D01*
X77585Y-63914D01*
X77357Y-64161D02*
X77395Y-64142D01*
X77414Y-64123D01*
X77433Y-64085D01*
X77433Y-63971D01*
X77414Y-63933D01*
X77395Y-63914D01*
X77357Y-63895D01*
X77300Y-63895D01*
X77261Y-63914D01*
X77242Y-63933D01*
X77223Y-63971D01*
X77223Y-64085D01*
X77242Y-64123D01*
X77261Y-64142D01*
X77300Y-64161D01*
X77357Y-64161D01*
X77052Y-64161D02*
X77052Y-63895D01*
X77052Y-63933D02*
X77033Y-63914D01*
X76995Y-63895D01*
X76938Y-63895D01*
X76900Y-63914D01*
X76880Y-63952D01*
X76880Y-64161D01*
X76880Y-63952D02*
X76861Y-63914D01*
X76823Y-63895D01*
X76766Y-63895D01*
X76728Y-63914D01*
X76709Y-63952D01*
X76709Y-64161D01*
X76233Y-63742D02*
X76576Y-64257D01*
X76100Y-63895D02*
X76100Y-64295D01*
X76100Y-63914D02*
X76061Y-63895D01*
X75985Y-63895D01*
X75947Y-63914D01*
X75928Y-63933D01*
X75909Y-63971D01*
X75909Y-64085D01*
X75928Y-64123D01*
X75947Y-64142D01*
X75985Y-64161D01*
X76061Y-64161D01*
X76100Y-64142D01*
X75452Y-63742D02*
X75795Y-64257D01*
X75147Y-64161D02*
X75147Y-63761D01*
X75147Y-64142D02*
X75185Y-64161D01*
X75261Y-64161D01*
X75300Y-64142D01*
X75319Y-64123D01*
X75338Y-64085D01*
X75338Y-63971D01*
X75319Y-63933D01*
X75300Y-63914D01*
X75261Y-63895D01*
X75185Y-63895D01*
X75147Y-63914D01*
X74785Y-64161D02*
X74785Y-63952D01*
X74804Y-63914D01*
X74842Y-63895D01*
X74919Y-63895D01*
X74957Y-63914D01*
X74785Y-64142D02*
X74823Y-64161D01*
X74919Y-64161D01*
X74957Y-64142D01*
X74976Y-64104D01*
X74976Y-64066D01*
X74957Y-64028D01*
X74919Y-64009D01*
X74823Y-64009D01*
X74785Y-63990D01*
X74442Y-64142D02*
X74480Y-64161D01*
X74557Y-64161D01*
X74595Y-64142D01*
X74614Y-64104D01*
X74614Y-63952D01*
X74595Y-63914D01*
X74557Y-63895D01*
X74480Y-63895D01*
X74442Y-63914D01*
X74423Y-63952D01*
X74423Y-63990D01*
X74614Y-64028D01*
X74080Y-64142D02*
X74119Y-64161D01*
X74195Y-64161D01*
X74233Y-64142D01*
X74252Y-64123D01*
X74271Y-64085D01*
X74271Y-63971D01*
X74252Y-63933D01*
X74233Y-63914D01*
X74195Y-63895D01*
X74119Y-63895D01*
X74080Y-63914D01*
X73738Y-63895D02*
X73738Y-64161D01*
X73909Y-63895D02*
X73909Y-64104D01*
X73890Y-64142D01*
X73852Y-64161D01*
X73795Y-64161D01*
X73757Y-64142D01*
X73738Y-64123D01*
X73261Y-63742D02*
X73604Y-64257D01*
X79052Y-64801D02*
X79185Y-64611D01*
X79280Y-64801D02*
X79280Y-64401D01*
X79128Y-64401D01*
X79090Y-64420D01*
X79071Y-64440D01*
X79052Y-64478D01*
X79052Y-64535D01*
X79071Y-64573D01*
X79090Y-64592D01*
X79128Y-64611D01*
X79280Y-64611D01*
X78880Y-64763D02*
X78861Y-64782D01*
X78880Y-64801D01*
X78900Y-64782D01*
X78880Y-64763D01*
X78880Y-64801D01*
X78614Y-64401D02*
X78576Y-64401D01*
X78538Y-64420D01*
X78519Y-64440D01*
X78500Y-64478D01*
X78480Y-64554D01*
X78480Y-64649D01*
X78500Y-64725D01*
X78519Y-64763D01*
X78538Y-64782D01*
X78576Y-64801D01*
X78614Y-64801D01*
X78652Y-64782D01*
X78671Y-64763D01*
X78690Y-64725D01*
X78709Y-64649D01*
X78709Y-64554D01*
X78690Y-64478D01*
X78671Y-64440D01*
X78652Y-64420D01*
X78614Y-64401D01*
X78100Y-64801D02*
X78328Y-64801D01*
X78214Y-64801D02*
X78214Y-64401D01*
X78252Y-64459D01*
X78290Y-64497D01*
X78328Y-64516D01*
G54D11*
X85259Y-61080D02*
X85259Y-60880D01*
X85259Y-60976D02*
X85145Y-60976D01*
X85145Y-61080D02*
X85145Y-60880D01*
X85050Y-61080D02*
X85050Y-60880D01*
X84954Y-61004D02*
X84802Y-61004D01*
X84611Y-61080D02*
X84707Y-61080D01*
X84707Y-60880D01*
X84507Y-60880D02*
X84469Y-60880D01*
X84450Y-60890D01*
X84430Y-60909D01*
X84421Y-60947D01*
X84421Y-61014D01*
X84430Y-61052D01*
X84450Y-61071D01*
X84469Y-61080D01*
X84507Y-61080D01*
X84526Y-61071D01*
X84545Y-61052D01*
X84554Y-61014D01*
X84554Y-60947D01*
X84545Y-60909D01*
X84526Y-60890D01*
X84507Y-60880D01*
X84345Y-60900D02*
X84335Y-60890D01*
X84316Y-60880D01*
X84269Y-60880D01*
X84250Y-60890D01*
X84240Y-60900D01*
X84230Y-60919D01*
X84230Y-60938D01*
X84240Y-60966D01*
X84354Y-61080D01*
X84230Y-61080D01*
X85259Y-60080D02*
X85259Y-59880D01*
X85259Y-59976D02*
X85145Y-59976D01*
X85145Y-60080D02*
X85145Y-59880D01*
X85050Y-60080D02*
X85050Y-59880D01*
X84954Y-60004D02*
X84802Y-60004D01*
X84611Y-60080D02*
X84707Y-60080D01*
X84707Y-59880D01*
X84507Y-59880D02*
X84469Y-59880D01*
X84450Y-59890D01*
X84430Y-59909D01*
X84421Y-59947D01*
X84421Y-60014D01*
X84430Y-60052D01*
X84450Y-60071D01*
X84469Y-60080D01*
X84507Y-60080D01*
X84526Y-60071D01*
X84545Y-60052D01*
X84554Y-60014D01*
X84554Y-59947D01*
X84545Y-59909D01*
X84526Y-59890D01*
X84507Y-59880D01*
X84230Y-60080D02*
X84345Y-60080D01*
X84288Y-60080D02*
X84288Y-59880D01*
X84307Y-59909D01*
X84326Y-59928D01*
X84345Y-59938D01*
X85259Y-62080D02*
X85259Y-61880D01*
X85259Y-61976D02*
X85145Y-61976D01*
X85145Y-62080D02*
X85145Y-61880D01*
X85050Y-62080D02*
X85050Y-61880D01*
X84954Y-62004D02*
X84802Y-62004D01*
X84611Y-62080D02*
X84707Y-62080D01*
X84707Y-61880D01*
X84507Y-61880D02*
X84469Y-61880D01*
X84450Y-61890D01*
X84430Y-61909D01*
X84421Y-61947D01*
X84421Y-62014D01*
X84430Y-62052D01*
X84450Y-62071D01*
X84469Y-62080D01*
X84507Y-62080D01*
X84526Y-62071D01*
X84545Y-62052D01*
X84554Y-62014D01*
X84554Y-61947D01*
X84545Y-61909D01*
X84526Y-61890D01*
X84507Y-61880D01*
X84354Y-61880D02*
X84230Y-61880D01*
X84297Y-61957D01*
X84269Y-61957D01*
X84250Y-61966D01*
X84240Y-61976D01*
X84230Y-61995D01*
X84230Y-62042D01*
X84240Y-62061D01*
X84250Y-62071D01*
X84269Y-62080D01*
X84326Y-62080D01*
X84345Y-62071D01*
X84354Y-62061D01*
X85259Y-63080D02*
X85259Y-62880D01*
X85259Y-62976D02*
X85145Y-62976D01*
X85145Y-63080D02*
X85145Y-62880D01*
X85050Y-63080D02*
X85050Y-62880D01*
X84954Y-63004D02*
X84802Y-63004D01*
X84611Y-63080D02*
X84707Y-63080D01*
X84707Y-62880D01*
X84507Y-62880D02*
X84469Y-62880D01*
X84450Y-62890D01*
X84430Y-62909D01*
X84421Y-62947D01*
X84421Y-63014D01*
X84430Y-63052D01*
X84450Y-63071D01*
X84469Y-63080D01*
X84507Y-63080D01*
X84526Y-63071D01*
X84545Y-63052D01*
X84554Y-63014D01*
X84554Y-62947D01*
X84545Y-62909D01*
X84526Y-62890D01*
X84507Y-62880D01*
X84250Y-62947D02*
X84250Y-63080D01*
X84297Y-62871D02*
X84345Y-63014D01*
X84221Y-63014D01*
X76152Y-60890D02*
X76171Y-60880D01*
X76200Y-60880D01*
X76228Y-60890D01*
X76247Y-60909D01*
X76257Y-60928D01*
X76266Y-60966D01*
X76266Y-60995D01*
X76257Y-61033D01*
X76247Y-61052D01*
X76228Y-61071D01*
X76200Y-61080D01*
X76180Y-61080D01*
X76152Y-61071D01*
X76142Y-61061D01*
X76142Y-60995D01*
X76180Y-60995D01*
X76057Y-61080D02*
X76057Y-60880D01*
X75942Y-61080D01*
X75942Y-60880D01*
X75847Y-61080D02*
X75847Y-60880D01*
X75800Y-60880D01*
X75771Y-60890D01*
X75752Y-60909D01*
X75742Y-60928D01*
X75733Y-60966D01*
X75733Y-60995D01*
X75742Y-61033D01*
X75752Y-61052D01*
X75771Y-61071D01*
X75800Y-61080D01*
X75847Y-61080D01*
X75166Y-60880D02*
X75100Y-61080D01*
X75033Y-60880D01*
X74966Y-61080D02*
X74966Y-60880D01*
X74890Y-60880D01*
X74871Y-60890D01*
X74861Y-60900D01*
X74852Y-60919D01*
X74852Y-60947D01*
X74861Y-60966D01*
X74871Y-60976D01*
X74890Y-60985D01*
X74966Y-60985D01*
X85259Y-65080D02*
X85259Y-64880D01*
X85259Y-64976D02*
X85145Y-64976D01*
X85145Y-65080D02*
X85145Y-64880D01*
X85050Y-65080D02*
X85050Y-64880D01*
X84954Y-65004D02*
X84802Y-65004D01*
X84611Y-65080D02*
X84707Y-65080D01*
X84707Y-64880D01*
X84507Y-64880D02*
X84469Y-64880D01*
X84450Y-64890D01*
X84430Y-64909D01*
X84421Y-64947D01*
X84421Y-65014D01*
X84430Y-65052D01*
X84450Y-65071D01*
X84469Y-65080D01*
X84507Y-65080D01*
X84526Y-65071D01*
X84545Y-65052D01*
X84554Y-65014D01*
X84554Y-64947D01*
X84545Y-64909D01*
X84526Y-64890D01*
X84507Y-64880D01*
X84250Y-64880D02*
X84288Y-64880D01*
X84307Y-64890D01*
X84316Y-64900D01*
X84335Y-64928D01*
X84345Y-64966D01*
X84345Y-65042D01*
X84335Y-65061D01*
X84326Y-65071D01*
X84307Y-65080D01*
X84269Y-65080D01*
X84250Y-65071D01*
X84240Y-65061D01*
X84230Y-65042D01*
X84230Y-64995D01*
X84240Y-64976D01*
X84250Y-64966D01*
X84269Y-64957D01*
X84307Y-64957D01*
X84326Y-64966D01*
X84335Y-64976D01*
X84345Y-64995D01*
X85259Y-64080D02*
X85259Y-63880D01*
X85259Y-63976D02*
X85145Y-63976D01*
X85145Y-64080D02*
X85145Y-63880D01*
X85050Y-64080D02*
X85050Y-63880D01*
X84954Y-64004D02*
X84802Y-64004D01*
X84611Y-64080D02*
X84707Y-64080D01*
X84707Y-63880D01*
X84507Y-63880D02*
X84469Y-63880D01*
X84450Y-63890D01*
X84430Y-63909D01*
X84421Y-63947D01*
X84421Y-64014D01*
X84430Y-64052D01*
X84450Y-64071D01*
X84469Y-64080D01*
X84507Y-64080D01*
X84526Y-64071D01*
X84545Y-64052D01*
X84554Y-64014D01*
X84554Y-63947D01*
X84545Y-63909D01*
X84526Y-63890D01*
X84507Y-63880D01*
X84240Y-63880D02*
X84335Y-63880D01*
X84345Y-63976D01*
X84335Y-63966D01*
X84316Y-63957D01*
X84269Y-63957D01*
X84250Y-63966D01*
X84240Y-63976D01*
X84230Y-63995D01*
X84230Y-64042D01*
X84240Y-64061D01*
X84250Y-64071D01*
X84269Y-64080D01*
X84316Y-64080D01*
X84335Y-64071D01*
X84345Y-64061D01*
G54D18*
G36*
X57667Y-54783D02*
X57665Y-54950D01*
X57659Y-55069D01*
X57644Y-55158D01*
X57619Y-55235D01*
X57579Y-55320D01*
X57574Y-55330D01*
X57500Y-55446D01*
X57500Y-55267D01*
X57451Y-55235D01*
X57436Y-55233D01*
X57408Y-55200D01*
X57374Y-55102D01*
X57335Y-54938D01*
X57319Y-54858D01*
X57288Y-54703D01*
X57261Y-54568D01*
X57240Y-54469D01*
X57229Y-54425D01*
X57235Y-54376D01*
X57264Y-54367D01*
X57310Y-54341D01*
X57317Y-54317D01*
X57306Y-54294D01*
X57268Y-54280D01*
X57192Y-54271D01*
X57068Y-54267D01*
X56939Y-54267D01*
X56561Y-54267D01*
X56576Y-54367D01*
X56599Y-54437D01*
X56635Y-54466D01*
X56636Y-54467D01*
X56666Y-54443D01*
X56662Y-54416D01*
X56662Y-54388D01*
X56700Y-54373D01*
X56786Y-54367D01*
X56841Y-54367D01*
X57039Y-54367D01*
X57072Y-54550D01*
X57105Y-54733D01*
X56977Y-54733D01*
X56896Y-54725D01*
X56852Y-54706D01*
X56850Y-54700D01*
X56823Y-54670D01*
X56804Y-54667D01*
X56775Y-54685D01*
X56776Y-54750D01*
X56780Y-54772D01*
X56805Y-54840D01*
X56839Y-54888D01*
X56870Y-54902D01*
X56883Y-54870D01*
X56883Y-54869D01*
X56913Y-54846D01*
X56986Y-54834D01*
X57014Y-54833D01*
X57145Y-54833D01*
X57168Y-55018D01*
X57178Y-55122D01*
X57178Y-55198D01*
X57173Y-55221D01*
X57125Y-55233D01*
X57043Y-55227D01*
X56949Y-55209D01*
X56867Y-55184D01*
X56820Y-55156D01*
X56817Y-55147D01*
X56790Y-55105D01*
X56767Y-55100D01*
X56727Y-55130D01*
X56717Y-55200D01*
X56717Y-55300D01*
X57118Y-55300D01*
X57303Y-55297D01*
X57429Y-55290D01*
X57493Y-55277D01*
X57500Y-55267D01*
X57500Y-55446D01*
X57404Y-55598D01*
X57199Y-55810D01*
X56960Y-55965D01*
X56752Y-56046D01*
X56583Y-56079D01*
X56583Y-55267D01*
X56556Y-55237D01*
X56533Y-55233D01*
X56489Y-55227D01*
X56483Y-55221D01*
X56477Y-55186D01*
X56460Y-55098D01*
X56434Y-54970D01*
X56403Y-54816D01*
X56400Y-54800D01*
X56364Y-54623D01*
X56339Y-54502D01*
X56326Y-54426D01*
X56323Y-54385D01*
X56329Y-54368D01*
X56344Y-54365D01*
X56367Y-54367D01*
X56411Y-54340D01*
X56417Y-54317D01*
X56406Y-54294D01*
X56368Y-54280D01*
X56292Y-54271D01*
X56168Y-54267D01*
X56039Y-54267D01*
X55661Y-54267D01*
X55676Y-54367D01*
X55699Y-54437D01*
X55735Y-54466D01*
X55736Y-54467D01*
X55766Y-54443D01*
X55762Y-54417D01*
X55763Y-54387D01*
X55801Y-54372D01*
X55890Y-54367D01*
X55928Y-54367D01*
X56032Y-54371D01*
X56106Y-54383D01*
X56129Y-54393D01*
X56143Y-54440D01*
X56159Y-54528D01*
X56169Y-54593D01*
X56192Y-54767D01*
X56077Y-54767D01*
X55988Y-54756D01*
X55926Y-54729D01*
X55924Y-54727D01*
X55880Y-54700D01*
X55865Y-54733D01*
X55873Y-54808D01*
X55900Y-54867D01*
X55939Y-54900D01*
X55973Y-54898D01*
X55983Y-54867D01*
X56011Y-54842D01*
X56076Y-54833D01*
X56151Y-54840D01*
X56211Y-54861D01*
X56227Y-54879D01*
X56242Y-54938D01*
X56260Y-55034D01*
X56268Y-55079D01*
X56278Y-55174D01*
X56271Y-55220D01*
X56241Y-55233D01*
X56237Y-55233D01*
X56190Y-55250D01*
X56183Y-55267D01*
X56214Y-55284D01*
X56293Y-55296D01*
X56383Y-55300D01*
X56490Y-55295D01*
X56562Y-55282D01*
X56583Y-55267D01*
X56583Y-56079D01*
X56575Y-56081D01*
X56370Y-56095D01*
X56165Y-56088D01*
X55989Y-56060D01*
X55959Y-56051D01*
X55724Y-55947D01*
X55502Y-55793D01*
X55312Y-55602D01*
X55169Y-55389D01*
X55157Y-55364D01*
X55081Y-55158D01*
X55035Y-54927D01*
X55025Y-54705D01*
X55030Y-54644D01*
X55051Y-54510D01*
X55078Y-54402D01*
X55107Y-54332D01*
X55135Y-54313D01*
X55143Y-54321D01*
X55194Y-54363D01*
X55214Y-54372D01*
X55244Y-54413D01*
X55280Y-54519D01*
X55320Y-54685D01*
X55337Y-54768D01*
X55373Y-54951D01*
X55396Y-55078D01*
X55408Y-55160D01*
X55409Y-55206D01*
X55399Y-55227D01*
X55380Y-55233D01*
X55367Y-55233D01*
X55322Y-55251D01*
X55317Y-55267D01*
X55347Y-55284D01*
X55426Y-55296D01*
X55517Y-55300D01*
X55630Y-55294D01*
X55700Y-55278D01*
X55719Y-55256D01*
X55680Y-55232D01*
X55656Y-55225D01*
X55625Y-55203D01*
X55598Y-55149D01*
X55571Y-55051D01*
X55541Y-54899D01*
X55538Y-54880D01*
X55511Y-54728D01*
X55486Y-54593D01*
X55467Y-54492D01*
X55461Y-54458D01*
X55456Y-54390D01*
X55487Y-54367D01*
X55495Y-54366D01*
X55532Y-54346D01*
X55529Y-54316D01*
X55495Y-54286D01*
X55418Y-54270D01*
X55310Y-54266D01*
X55111Y-54267D01*
X55186Y-54142D01*
X55335Y-53941D01*
X55526Y-53758D01*
X55737Y-53614D01*
X55783Y-53590D01*
X55883Y-53542D01*
X55966Y-53512D01*
X56052Y-53494D01*
X56159Y-53486D01*
X56308Y-53484D01*
X56366Y-53484D01*
X56533Y-53486D01*
X56653Y-53492D01*
X56744Y-53507D01*
X56825Y-53534D01*
X56916Y-53575D01*
X56931Y-53582D01*
X57141Y-53715D01*
X57336Y-53893D01*
X57498Y-54096D01*
X57571Y-54222D01*
X57614Y-54315D01*
X57642Y-54396D01*
X57657Y-54485D01*
X57665Y-54601D01*
X57666Y-54763D01*
X57667Y-54783D01*
X57667Y-54783D01*
X57667Y-54783D01*
G37*
G36*
X69067Y-44733D02*
X69065Y-44900D01*
X69059Y-45019D01*
X69044Y-45108D01*
X69019Y-45185D01*
X68979Y-45270D01*
X68974Y-45280D01*
X68900Y-45396D01*
X68900Y-45217D01*
X68851Y-45185D01*
X68836Y-45183D01*
X68808Y-45150D01*
X68774Y-45052D01*
X68735Y-44888D01*
X68719Y-44808D01*
X68688Y-44653D01*
X68661Y-44518D01*
X68640Y-44419D01*
X68629Y-44375D01*
X68635Y-44326D01*
X68664Y-44317D01*
X68710Y-44291D01*
X68717Y-44267D01*
X68706Y-44244D01*
X68668Y-44230D01*
X68592Y-44221D01*
X68468Y-44217D01*
X68339Y-44217D01*
X67961Y-44217D01*
X67976Y-44317D01*
X67999Y-44387D01*
X68035Y-44416D01*
X68036Y-44417D01*
X68066Y-44393D01*
X68062Y-44366D01*
X68062Y-44338D01*
X68100Y-44323D01*
X68186Y-44317D01*
X68241Y-44317D01*
X68439Y-44317D01*
X68472Y-44500D01*
X68505Y-44683D01*
X68377Y-44683D01*
X68296Y-44675D01*
X68252Y-44656D01*
X68250Y-44650D01*
X68223Y-44620D01*
X68204Y-44617D01*
X68175Y-44635D01*
X68176Y-44700D01*
X68180Y-44722D01*
X68205Y-44790D01*
X68239Y-44838D01*
X68270Y-44852D01*
X68283Y-44820D01*
X68283Y-44819D01*
X68313Y-44796D01*
X68386Y-44784D01*
X68414Y-44783D01*
X68545Y-44783D01*
X68568Y-44968D01*
X68578Y-45072D01*
X68578Y-45148D01*
X68573Y-45171D01*
X68525Y-45183D01*
X68443Y-45177D01*
X68349Y-45159D01*
X68267Y-45134D01*
X68220Y-45106D01*
X68217Y-45097D01*
X68190Y-45055D01*
X68167Y-45050D01*
X68127Y-45080D01*
X68117Y-45150D01*
X68117Y-45250D01*
X68518Y-45250D01*
X68703Y-45247D01*
X68829Y-45240D01*
X68893Y-45227D01*
X68900Y-45217D01*
X68900Y-45396D01*
X68804Y-45548D01*
X68599Y-45760D01*
X68360Y-45915D01*
X68152Y-45996D01*
X67983Y-46029D01*
X67983Y-45217D01*
X67956Y-45187D01*
X67933Y-45183D01*
X67889Y-45177D01*
X67883Y-45171D01*
X67877Y-45136D01*
X67860Y-45048D01*
X67834Y-44920D01*
X67803Y-44766D01*
X67800Y-44750D01*
X67764Y-44573D01*
X67739Y-44452D01*
X67726Y-44376D01*
X67723Y-44335D01*
X67729Y-44318D01*
X67744Y-44315D01*
X67767Y-44317D01*
X67811Y-44290D01*
X67817Y-44267D01*
X67806Y-44244D01*
X67768Y-44230D01*
X67692Y-44221D01*
X67568Y-44217D01*
X67439Y-44217D01*
X67061Y-44217D01*
X67076Y-44317D01*
X67099Y-44387D01*
X67135Y-44416D01*
X67136Y-44417D01*
X67166Y-44393D01*
X67162Y-44367D01*
X67163Y-44337D01*
X67201Y-44322D01*
X67290Y-44317D01*
X67328Y-44317D01*
X67432Y-44321D01*
X67506Y-44333D01*
X67529Y-44343D01*
X67543Y-44390D01*
X67559Y-44478D01*
X67569Y-44543D01*
X67592Y-44717D01*
X67477Y-44717D01*
X67388Y-44706D01*
X67326Y-44679D01*
X67324Y-44677D01*
X67280Y-44650D01*
X67265Y-44683D01*
X67273Y-44758D01*
X67300Y-44817D01*
X67339Y-44850D01*
X67373Y-44848D01*
X67383Y-44817D01*
X67411Y-44792D01*
X67476Y-44783D01*
X67551Y-44790D01*
X67611Y-44811D01*
X67627Y-44829D01*
X67642Y-44888D01*
X67660Y-44984D01*
X67668Y-45029D01*
X67678Y-45124D01*
X67671Y-45170D01*
X67641Y-45183D01*
X67637Y-45183D01*
X67590Y-45200D01*
X67583Y-45217D01*
X67614Y-45234D01*
X67693Y-45246D01*
X67783Y-45250D01*
X67890Y-45245D01*
X67962Y-45232D01*
X67983Y-45217D01*
X67983Y-46029D01*
X67975Y-46031D01*
X67770Y-46045D01*
X67565Y-46038D01*
X67389Y-46010D01*
X67359Y-46001D01*
X67124Y-45897D01*
X66902Y-45743D01*
X66712Y-45552D01*
X66569Y-45339D01*
X66557Y-45314D01*
X66481Y-45108D01*
X66435Y-44877D01*
X66425Y-44655D01*
X66430Y-44594D01*
X66451Y-44460D01*
X66478Y-44352D01*
X66507Y-44282D01*
X66535Y-44263D01*
X66543Y-44271D01*
X66594Y-44313D01*
X66614Y-44322D01*
X66644Y-44363D01*
X66680Y-44469D01*
X66720Y-44635D01*
X66737Y-44718D01*
X66773Y-44901D01*
X66796Y-45028D01*
X66808Y-45110D01*
X66809Y-45156D01*
X66799Y-45177D01*
X66780Y-45183D01*
X66767Y-45183D01*
X66722Y-45201D01*
X66717Y-45217D01*
X66747Y-45234D01*
X66826Y-45246D01*
X66917Y-45250D01*
X67030Y-45244D01*
X67100Y-45228D01*
X67119Y-45206D01*
X67080Y-45182D01*
X67056Y-45175D01*
X67025Y-45153D01*
X66998Y-45099D01*
X66971Y-45001D01*
X66941Y-44849D01*
X66938Y-44830D01*
X66911Y-44678D01*
X66886Y-44543D01*
X66867Y-44442D01*
X66861Y-44408D01*
X66856Y-44340D01*
X66887Y-44317D01*
X66895Y-44316D01*
X66932Y-44296D01*
X66929Y-44266D01*
X66895Y-44236D01*
X66818Y-44220D01*
X66710Y-44216D01*
X66511Y-44217D01*
X66586Y-44092D01*
X66735Y-43891D01*
X66926Y-43708D01*
X67137Y-43564D01*
X67183Y-43540D01*
X67283Y-43492D01*
X67366Y-43462D01*
X67452Y-43444D01*
X67559Y-43436D01*
X67708Y-43434D01*
X67766Y-43434D01*
X67933Y-43436D01*
X68053Y-43442D01*
X68144Y-43457D01*
X68225Y-43484D01*
X68316Y-43525D01*
X68331Y-43532D01*
X68541Y-43665D01*
X68736Y-43843D01*
X68898Y-44046D01*
X68971Y-44172D01*
X69014Y-44265D01*
X69042Y-44346D01*
X69057Y-44435D01*
X69065Y-44551D01*
X69066Y-44713D01*
X69067Y-44733D01*
X69067Y-44733D01*
X69067Y-44733D01*
G37*
G36*
X80667Y-70301D02*
X80665Y-70468D01*
X80659Y-70587D01*
X80644Y-70676D01*
X80619Y-70753D01*
X80579Y-70838D01*
X80574Y-70848D01*
X80500Y-70964D01*
X80500Y-70785D01*
X80451Y-70753D01*
X80436Y-70751D01*
X80408Y-70718D01*
X80374Y-70620D01*
X80335Y-70456D01*
X80319Y-70376D01*
X80288Y-70221D01*
X80261Y-70086D01*
X80240Y-69987D01*
X80229Y-69943D01*
X80235Y-69894D01*
X80264Y-69885D01*
X80310Y-69859D01*
X80317Y-69835D01*
X80306Y-69812D01*
X80268Y-69798D01*
X80192Y-69789D01*
X80068Y-69785D01*
X79939Y-69785D01*
X79561Y-69785D01*
X79576Y-69885D01*
X79599Y-69955D01*
X79635Y-69984D01*
X79636Y-69985D01*
X79666Y-69961D01*
X79662Y-69934D01*
X79662Y-69906D01*
X79700Y-69891D01*
X79786Y-69885D01*
X79841Y-69885D01*
X80039Y-69885D01*
X80072Y-70068D01*
X80105Y-70251D01*
X79977Y-70251D01*
X79896Y-70243D01*
X79852Y-70224D01*
X79850Y-70218D01*
X79823Y-70188D01*
X79804Y-70185D01*
X79775Y-70203D01*
X79776Y-70268D01*
X79780Y-70290D01*
X79805Y-70358D01*
X79839Y-70406D01*
X79870Y-70420D01*
X79883Y-70388D01*
X79883Y-70387D01*
X79913Y-70364D01*
X79986Y-70352D01*
X80014Y-70351D01*
X80145Y-70351D01*
X80168Y-70536D01*
X80178Y-70640D01*
X80178Y-70716D01*
X80173Y-70739D01*
X80125Y-70751D01*
X80043Y-70745D01*
X79949Y-70727D01*
X79867Y-70702D01*
X79820Y-70674D01*
X79817Y-70665D01*
X79790Y-70623D01*
X79767Y-70618D01*
X79727Y-70648D01*
X79717Y-70718D01*
X79717Y-70818D01*
X80118Y-70818D01*
X80303Y-70815D01*
X80429Y-70808D01*
X80493Y-70795D01*
X80500Y-70785D01*
X80500Y-70964D01*
X80404Y-71116D01*
X80199Y-71328D01*
X79960Y-71483D01*
X79752Y-71564D01*
X79583Y-71597D01*
X79583Y-70785D01*
X79556Y-70755D01*
X79533Y-70751D01*
X79489Y-70745D01*
X79483Y-70739D01*
X79477Y-70704D01*
X79460Y-70616D01*
X79434Y-70488D01*
X79403Y-70334D01*
X79400Y-70318D01*
X79364Y-70141D01*
X79339Y-70020D01*
X79326Y-69944D01*
X79323Y-69903D01*
X79329Y-69886D01*
X79344Y-69883D01*
X79367Y-69885D01*
X79411Y-69858D01*
X79417Y-69835D01*
X79406Y-69812D01*
X79368Y-69798D01*
X79292Y-69789D01*
X79168Y-69785D01*
X79039Y-69785D01*
X78661Y-69785D01*
X78676Y-69885D01*
X78699Y-69955D01*
X78735Y-69984D01*
X78736Y-69985D01*
X78766Y-69961D01*
X78762Y-69935D01*
X78763Y-69905D01*
X78801Y-69890D01*
X78890Y-69885D01*
X78928Y-69885D01*
X79032Y-69889D01*
X79106Y-69901D01*
X79129Y-69911D01*
X79143Y-69958D01*
X79159Y-70046D01*
X79169Y-70111D01*
X79192Y-70285D01*
X79077Y-70285D01*
X78988Y-70274D01*
X78926Y-70247D01*
X78924Y-70245D01*
X78880Y-70218D01*
X78865Y-70251D01*
X78873Y-70326D01*
X78900Y-70385D01*
X78939Y-70418D01*
X78973Y-70416D01*
X78983Y-70385D01*
X79011Y-70360D01*
X79076Y-70351D01*
X79151Y-70358D01*
X79211Y-70379D01*
X79227Y-70397D01*
X79242Y-70456D01*
X79260Y-70552D01*
X79268Y-70597D01*
X79278Y-70692D01*
X79271Y-70738D01*
X79241Y-70751D01*
X79237Y-70751D01*
X79190Y-70768D01*
X79183Y-70785D01*
X79214Y-70802D01*
X79293Y-70814D01*
X79383Y-70818D01*
X79490Y-70813D01*
X79562Y-70800D01*
X79583Y-70785D01*
X79583Y-71597D01*
X79575Y-71599D01*
X79370Y-71613D01*
X79165Y-71606D01*
X78989Y-71578D01*
X78959Y-71569D01*
X78724Y-71465D01*
X78502Y-71311D01*
X78312Y-71120D01*
X78169Y-70907D01*
X78157Y-70882D01*
X78081Y-70676D01*
X78035Y-70445D01*
X78025Y-70223D01*
X78030Y-70162D01*
X78051Y-70028D01*
X78078Y-69920D01*
X78107Y-69850D01*
X78135Y-69831D01*
X78143Y-69839D01*
X78194Y-69881D01*
X78214Y-69890D01*
X78244Y-69931D01*
X78280Y-70037D01*
X78320Y-70203D01*
X78337Y-70286D01*
X78373Y-70469D01*
X78396Y-70596D01*
X78408Y-70678D01*
X78409Y-70724D01*
X78399Y-70745D01*
X78380Y-70751D01*
X78367Y-70751D01*
X78322Y-70769D01*
X78317Y-70785D01*
X78347Y-70802D01*
X78426Y-70814D01*
X78517Y-70818D01*
X78630Y-70812D01*
X78700Y-70796D01*
X78719Y-70774D01*
X78680Y-70750D01*
X78656Y-70743D01*
X78625Y-70721D01*
X78598Y-70667D01*
X78571Y-70569D01*
X78541Y-70417D01*
X78538Y-70398D01*
X78511Y-70246D01*
X78486Y-70111D01*
X78467Y-70010D01*
X78461Y-69976D01*
X78456Y-69908D01*
X78487Y-69885D01*
X78495Y-69884D01*
X78532Y-69864D01*
X78529Y-69834D01*
X78495Y-69804D01*
X78418Y-69788D01*
X78310Y-69784D01*
X78111Y-69785D01*
X78186Y-69660D01*
X78335Y-69459D01*
X78526Y-69276D01*
X78737Y-69132D01*
X78783Y-69108D01*
X78883Y-69060D01*
X78966Y-69030D01*
X79052Y-69012D01*
X79159Y-69004D01*
X79308Y-69002D01*
X79366Y-69002D01*
X79533Y-69004D01*
X79653Y-69010D01*
X79744Y-69025D01*
X79825Y-69052D01*
X79916Y-69093D01*
X79931Y-69100D01*
X80141Y-69233D01*
X80336Y-69411D01*
X80498Y-69614D01*
X80571Y-69740D01*
X80614Y-69833D01*
X80642Y-69914D01*
X80657Y-70003D01*
X80665Y-70119D01*
X80666Y-70281D01*
X80667Y-70301D01*
X80667Y-70301D01*
X80667Y-70301D01*
G37*
G36*
X61043Y-65261D02*
X61045Y-65094D01*
X61051Y-64975D01*
X61066Y-64886D01*
X61091Y-64809D01*
X61131Y-64724D01*
X61136Y-64714D01*
X61210Y-64598D01*
X61210Y-64777D01*
X61259Y-64809D01*
X61274Y-64811D01*
X61302Y-64844D01*
X61336Y-64942D01*
X61375Y-65106D01*
X61391Y-65186D01*
X61422Y-65341D01*
X61449Y-65476D01*
X61470Y-65575D01*
X61481Y-65619D01*
X61475Y-65668D01*
X61446Y-65677D01*
X61400Y-65703D01*
X61393Y-65727D01*
X61404Y-65750D01*
X61442Y-65764D01*
X61518Y-65773D01*
X61642Y-65777D01*
X61771Y-65777D01*
X62149Y-65777D01*
X62134Y-65677D01*
X62111Y-65607D01*
X62075Y-65578D01*
X62074Y-65577D01*
X62044Y-65601D01*
X62048Y-65628D01*
X62048Y-65656D01*
X62010Y-65671D01*
X61924Y-65677D01*
X61869Y-65677D01*
X61671Y-65677D01*
X61638Y-65494D01*
X61605Y-65311D01*
X61733Y-65311D01*
X61814Y-65319D01*
X61858Y-65338D01*
X61860Y-65344D01*
X61887Y-65374D01*
X61906Y-65377D01*
X61935Y-65359D01*
X61934Y-65294D01*
X61930Y-65272D01*
X61905Y-65204D01*
X61871Y-65156D01*
X61840Y-65142D01*
X61827Y-65174D01*
X61827Y-65175D01*
X61797Y-65198D01*
X61724Y-65210D01*
X61696Y-65211D01*
X61565Y-65211D01*
X61542Y-65026D01*
X61532Y-64922D01*
X61532Y-64846D01*
X61537Y-64823D01*
X61585Y-64811D01*
X61667Y-64817D01*
X61761Y-64835D01*
X61843Y-64860D01*
X61890Y-64888D01*
X61893Y-64897D01*
X61920Y-64939D01*
X61943Y-64944D01*
X61983Y-64914D01*
X61993Y-64844D01*
X61993Y-64744D01*
X61592Y-64744D01*
X61407Y-64747D01*
X61281Y-64754D01*
X61217Y-64767D01*
X61210Y-64777D01*
X61210Y-64598D01*
X61306Y-64446D01*
X61511Y-64234D01*
X61750Y-64079D01*
X61958Y-63998D01*
X62127Y-63965D01*
X62127Y-64777D01*
X62154Y-64807D01*
X62177Y-64811D01*
X62221Y-64817D01*
X62227Y-64823D01*
X62233Y-64858D01*
X62250Y-64946D01*
X62276Y-65074D01*
X62307Y-65228D01*
X62310Y-65244D01*
X62346Y-65421D01*
X62371Y-65542D01*
X62384Y-65618D01*
X62387Y-65659D01*
X62381Y-65676D01*
X62366Y-65679D01*
X62343Y-65677D01*
X62299Y-65704D01*
X62293Y-65727D01*
X62304Y-65750D01*
X62342Y-65764D01*
X62418Y-65773D01*
X62542Y-65777D01*
X62671Y-65777D01*
X63049Y-65777D01*
X63034Y-65677D01*
X63011Y-65607D01*
X62975Y-65578D01*
X62974Y-65577D01*
X62944Y-65601D01*
X62948Y-65627D01*
X62947Y-65657D01*
X62909Y-65672D01*
X62820Y-65677D01*
X62782Y-65677D01*
X62678Y-65673D01*
X62604Y-65661D01*
X62581Y-65651D01*
X62567Y-65604D01*
X62551Y-65516D01*
X62541Y-65451D01*
X62518Y-65277D01*
X62633Y-65277D01*
X62722Y-65288D01*
X62784Y-65315D01*
X62786Y-65317D01*
X62830Y-65344D01*
X62845Y-65311D01*
X62837Y-65236D01*
X62810Y-65177D01*
X62771Y-65144D01*
X62737Y-65146D01*
X62727Y-65177D01*
X62699Y-65202D01*
X62634Y-65211D01*
X62559Y-65204D01*
X62499Y-65183D01*
X62483Y-65165D01*
X62468Y-65106D01*
X62450Y-65010D01*
X62442Y-64965D01*
X62432Y-64870D01*
X62439Y-64824D01*
X62469Y-64811D01*
X62473Y-64811D01*
X62520Y-64794D01*
X62527Y-64777D01*
X62496Y-64760D01*
X62417Y-64748D01*
X62327Y-64744D01*
X62220Y-64749D01*
X62148Y-64762D01*
X62127Y-64777D01*
X62127Y-63965D01*
X62135Y-63963D01*
X62340Y-63949D01*
X62545Y-63956D01*
X62721Y-63984D01*
X62751Y-63993D01*
X62986Y-64097D01*
X63208Y-64251D01*
X63398Y-64442D01*
X63541Y-64655D01*
X63553Y-64680D01*
X63629Y-64886D01*
X63675Y-65117D01*
X63685Y-65339D01*
X63680Y-65400D01*
X63659Y-65534D01*
X63632Y-65642D01*
X63603Y-65712D01*
X63575Y-65731D01*
X63567Y-65723D01*
X63516Y-65681D01*
X63496Y-65672D01*
X63466Y-65631D01*
X63430Y-65525D01*
X63390Y-65359D01*
X63373Y-65276D01*
X63337Y-65093D01*
X63314Y-64966D01*
X63302Y-64884D01*
X63301Y-64838D01*
X63311Y-64817D01*
X63330Y-64811D01*
X63343Y-64811D01*
X63388Y-64793D01*
X63393Y-64777D01*
X63363Y-64760D01*
X63284Y-64748D01*
X63193Y-64744D01*
X63080Y-64750D01*
X63010Y-64766D01*
X62991Y-64788D01*
X63030Y-64812D01*
X63054Y-64819D01*
X63085Y-64841D01*
X63112Y-64895D01*
X63139Y-64993D01*
X63169Y-65145D01*
X63172Y-65164D01*
X63199Y-65316D01*
X63224Y-65451D01*
X63243Y-65552D01*
X63249Y-65586D01*
X63254Y-65654D01*
X63223Y-65677D01*
X63215Y-65678D01*
X63178Y-65698D01*
X63181Y-65728D01*
X63215Y-65758D01*
X63292Y-65774D01*
X63400Y-65778D01*
X63599Y-65777D01*
X63524Y-65902D01*
X63375Y-66103D01*
X63184Y-66286D01*
X62973Y-66430D01*
X62927Y-66454D01*
X62827Y-66502D01*
X62744Y-66532D01*
X62658Y-66550D01*
X62551Y-66558D01*
X62402Y-66560D01*
X62344Y-66560D01*
X62177Y-66558D01*
X62057Y-66552D01*
X61966Y-66537D01*
X61885Y-66510D01*
X61794Y-66469D01*
X61779Y-66462D01*
X61569Y-66329D01*
X61374Y-66151D01*
X61212Y-65948D01*
X61139Y-65822D01*
X61096Y-65729D01*
X61068Y-65648D01*
X61053Y-65559D01*
X61045Y-65443D01*
X61044Y-65281D01*
X61043Y-65261D01*
X61043Y-65261D01*
X61043Y-65261D01*
G37*
G36*
X55961Y-71445D02*
X55959Y-71612D01*
X55953Y-71731D01*
X55938Y-71820D01*
X55913Y-71897D01*
X55873Y-71982D01*
X55868Y-71992D01*
X55794Y-72108D01*
X55794Y-71929D01*
X55745Y-71897D01*
X55730Y-71895D01*
X55702Y-71862D01*
X55668Y-71764D01*
X55629Y-71600D01*
X55613Y-71520D01*
X55582Y-71365D01*
X55555Y-71230D01*
X55534Y-71131D01*
X55523Y-71087D01*
X55529Y-71038D01*
X55558Y-71029D01*
X55604Y-71003D01*
X55611Y-70979D01*
X55600Y-70956D01*
X55562Y-70942D01*
X55486Y-70933D01*
X55362Y-70929D01*
X55233Y-70929D01*
X54855Y-70929D01*
X54870Y-71029D01*
X54893Y-71099D01*
X54929Y-71128D01*
X54930Y-71129D01*
X54960Y-71105D01*
X54956Y-71078D01*
X54956Y-71050D01*
X54994Y-71035D01*
X55080Y-71029D01*
X55135Y-71029D01*
X55333Y-71029D01*
X55366Y-71212D01*
X55399Y-71395D01*
X55271Y-71395D01*
X55190Y-71387D01*
X55146Y-71368D01*
X55144Y-71362D01*
X55117Y-71332D01*
X55098Y-71329D01*
X55069Y-71347D01*
X55070Y-71412D01*
X55074Y-71434D01*
X55099Y-71502D01*
X55133Y-71550D01*
X55164Y-71564D01*
X55177Y-71532D01*
X55177Y-71531D01*
X55207Y-71508D01*
X55280Y-71496D01*
X55308Y-71495D01*
X55439Y-71495D01*
X55462Y-71680D01*
X55472Y-71784D01*
X55472Y-71860D01*
X55467Y-71883D01*
X55419Y-71895D01*
X55337Y-71889D01*
X55243Y-71871D01*
X55161Y-71846D01*
X55114Y-71818D01*
X55111Y-71809D01*
X55084Y-71767D01*
X55061Y-71762D01*
X55021Y-71792D01*
X55011Y-71862D01*
X55011Y-71962D01*
X55412Y-71962D01*
X55597Y-71959D01*
X55723Y-71952D01*
X55787Y-71939D01*
X55794Y-71929D01*
X55794Y-72108D01*
X55698Y-72260D01*
X55493Y-72472D01*
X55254Y-72627D01*
X55046Y-72708D01*
X54877Y-72741D01*
X54877Y-71929D01*
X54850Y-71899D01*
X54827Y-71895D01*
X54783Y-71889D01*
X54777Y-71883D01*
X54771Y-71848D01*
X54754Y-71760D01*
X54728Y-71632D01*
X54697Y-71478D01*
X54694Y-71462D01*
X54658Y-71285D01*
X54633Y-71164D01*
X54620Y-71088D01*
X54617Y-71047D01*
X54623Y-71030D01*
X54638Y-71027D01*
X54661Y-71029D01*
X54705Y-71002D01*
X54711Y-70979D01*
X54700Y-70956D01*
X54662Y-70942D01*
X54586Y-70933D01*
X54462Y-70929D01*
X54333Y-70929D01*
X53955Y-70929D01*
X53970Y-71029D01*
X53993Y-71099D01*
X54029Y-71128D01*
X54030Y-71129D01*
X54060Y-71105D01*
X54056Y-71079D01*
X54057Y-71049D01*
X54095Y-71034D01*
X54184Y-71029D01*
X54222Y-71029D01*
X54326Y-71033D01*
X54400Y-71045D01*
X54423Y-71055D01*
X54437Y-71102D01*
X54453Y-71190D01*
X54463Y-71255D01*
X54486Y-71429D01*
X54371Y-71429D01*
X54282Y-71418D01*
X54220Y-71391D01*
X54218Y-71389D01*
X54174Y-71362D01*
X54159Y-71395D01*
X54167Y-71470D01*
X54194Y-71529D01*
X54233Y-71562D01*
X54267Y-71560D01*
X54277Y-71529D01*
X54305Y-71504D01*
X54370Y-71495D01*
X54445Y-71502D01*
X54505Y-71523D01*
X54521Y-71541D01*
X54536Y-71600D01*
X54554Y-71696D01*
X54562Y-71741D01*
X54572Y-71836D01*
X54565Y-71882D01*
X54535Y-71895D01*
X54531Y-71895D01*
X54484Y-71912D01*
X54477Y-71929D01*
X54508Y-71946D01*
X54587Y-71958D01*
X54677Y-71962D01*
X54784Y-71957D01*
X54856Y-71944D01*
X54877Y-71929D01*
X54877Y-72741D01*
X54869Y-72743D01*
X54664Y-72757D01*
X54459Y-72750D01*
X54283Y-72722D01*
X54253Y-72713D01*
X54018Y-72609D01*
X53796Y-72455D01*
X53606Y-72264D01*
X53463Y-72051D01*
X53451Y-72026D01*
X53375Y-71820D01*
X53329Y-71589D01*
X53319Y-71367D01*
X53324Y-71306D01*
X53345Y-71172D01*
X53372Y-71064D01*
X53401Y-70994D01*
X53429Y-70975D01*
X53437Y-70983D01*
X53488Y-71025D01*
X53508Y-71034D01*
X53538Y-71075D01*
X53574Y-71181D01*
X53614Y-71347D01*
X53631Y-71430D01*
X53667Y-71613D01*
X53690Y-71740D01*
X53702Y-71822D01*
X53703Y-71868D01*
X53693Y-71889D01*
X53674Y-71895D01*
X53661Y-71895D01*
X53616Y-71913D01*
X53611Y-71929D01*
X53641Y-71946D01*
X53720Y-71958D01*
X53811Y-71962D01*
X53924Y-71956D01*
X53994Y-71940D01*
X54013Y-71918D01*
X53974Y-71894D01*
X53950Y-71887D01*
X53919Y-71865D01*
X53892Y-71811D01*
X53865Y-71713D01*
X53835Y-71561D01*
X53832Y-71542D01*
X53805Y-71390D01*
X53780Y-71255D01*
X53761Y-71154D01*
X53755Y-71120D01*
X53750Y-71052D01*
X53781Y-71029D01*
X53789Y-71028D01*
X53826Y-71008D01*
X53823Y-70978D01*
X53789Y-70948D01*
X53712Y-70932D01*
X53604Y-70928D01*
X53405Y-70929D01*
X53480Y-70804D01*
X53629Y-70603D01*
X53820Y-70420D01*
X54031Y-70276D01*
X54077Y-70252D01*
X54177Y-70204D01*
X54260Y-70174D01*
X54346Y-70156D01*
X54453Y-70148D01*
X54602Y-70146D01*
X54660Y-70146D01*
X54827Y-70148D01*
X54947Y-70154D01*
X55038Y-70169D01*
X55119Y-70196D01*
X55210Y-70237D01*
X55225Y-70244D01*
X55435Y-70377D01*
X55630Y-70555D01*
X55792Y-70758D01*
X55865Y-70884D01*
X55908Y-70977D01*
X55936Y-71058D01*
X55951Y-71147D01*
X55959Y-71263D01*
X55960Y-71425D01*
X55961Y-71445D01*
X55961Y-71445D01*
X55961Y-71445D01*
G37*
G54D19*
X81975Y-52600D02*
X80975Y-52600D01*
X80975Y-52600D02*
X80975Y-54600D01*
X80975Y-54600D02*
X81975Y-54600D01*
X81975Y-54600D02*
X81975Y-52600D01*
X81975Y-43600D02*
X80975Y-43600D01*
X80975Y-43600D02*
X80975Y-45600D01*
X80975Y-45600D02*
X81975Y-45600D01*
X81975Y-45600D02*
X81975Y-43600D01*
X81975Y-53350D02*
X82975Y-53350D01*
X82975Y-53350D02*
X82975Y-51350D01*
X82975Y-51350D02*
X81975Y-51350D01*
X81975Y-51350D02*
X81975Y-53350D01*
X81975Y-44350D02*
X82975Y-44350D01*
X82975Y-44350D02*
X82975Y-42350D01*
X82975Y-42350D02*
X81975Y-42350D01*
X81975Y-42350D02*
X81975Y-44350D01*
X82025Y-49550D02*
X81025Y-49550D01*
X81025Y-49550D02*
X81025Y-51550D01*
X81025Y-51550D02*
X82025Y-51550D01*
X82025Y-51550D02*
X82025Y-49550D01*
X82975Y-39350D02*
X81975Y-39350D01*
X81975Y-39350D02*
X81975Y-41350D01*
X81975Y-41350D02*
X82975Y-41350D01*
X82975Y-41350D02*
X82975Y-39350D01*
X81975Y-47350D02*
X82975Y-47350D01*
X82975Y-47350D02*
X82975Y-45350D01*
X82975Y-45350D02*
X81975Y-45350D01*
X81975Y-45350D02*
X81975Y-47350D01*
X81975Y-56350D02*
X82975Y-56350D01*
X82975Y-56350D02*
X82975Y-54350D01*
X82975Y-54350D02*
X81975Y-54350D01*
X81975Y-54350D02*
X81975Y-56350D01*
X82025Y-46550D02*
X81025Y-46550D01*
X81025Y-46550D02*
X81025Y-48550D01*
X81025Y-48550D02*
X82025Y-48550D01*
X82025Y-48550D02*
X82025Y-46550D01*
X81975Y-55600D02*
X80975Y-55600D01*
X80975Y-55600D02*
X80975Y-57600D01*
X80975Y-57600D02*
X81975Y-57600D01*
X81975Y-57600D02*
X81975Y-55600D01*
X81975Y-50350D02*
X82975Y-50350D01*
X82975Y-50350D02*
X82975Y-48350D01*
X82975Y-48350D02*
X81975Y-48350D01*
X81975Y-48350D02*
X81975Y-50350D01*
X81975Y-59350D02*
X82975Y-59350D01*
X82975Y-59350D02*
X82975Y-57350D01*
X82975Y-57350D02*
X81975Y-57350D01*
X81975Y-57350D02*
X81975Y-59350D01*
X81000Y-40250D02*
X82000Y-40250D01*
X82000Y-40250D02*
X82000Y-38250D01*
X82000Y-38250D02*
X81000Y-38250D01*
X81000Y-38250D02*
X81000Y-40250D01*
X82975Y-42350D02*
X82975Y-41350D01*
X82975Y-41350D02*
X80975Y-41350D01*
X80975Y-41350D02*
X80975Y-42350D01*
X80975Y-42350D02*
X82975Y-42350D01*
G54D11*
X69816Y-53500D02*
G75*
G03X69816Y-53500I-316J0D01*
G74*
G01*
X71816Y-52500D02*
G75*
G03X71816Y-52500I-316J0D01*
G74*
G01*
G54D18*
G36*
X73867Y-62533D02*
X73865Y-62700D01*
X73859Y-62819D01*
X73844Y-62908D01*
X73819Y-62985D01*
X73779Y-63070D01*
X73774Y-63080D01*
X73700Y-63196D01*
X73700Y-63017D01*
X73651Y-62985D01*
X73636Y-62983D01*
X73608Y-62950D01*
X73574Y-62852D01*
X73535Y-62688D01*
X73519Y-62608D01*
X73488Y-62453D01*
X73461Y-62318D01*
X73440Y-62219D01*
X73429Y-62175D01*
X73435Y-62126D01*
X73464Y-62117D01*
X73510Y-62091D01*
X73517Y-62067D01*
X73506Y-62044D01*
X73468Y-62030D01*
X73392Y-62021D01*
X73268Y-62017D01*
X73139Y-62017D01*
X72761Y-62017D01*
X72776Y-62117D01*
X72799Y-62187D01*
X72835Y-62216D01*
X72836Y-62217D01*
X72866Y-62193D01*
X72862Y-62166D01*
X72862Y-62138D01*
X72900Y-62123D01*
X72986Y-62117D01*
X73041Y-62117D01*
X73239Y-62117D01*
X73272Y-62300D01*
X73305Y-62483D01*
X73177Y-62483D01*
X73096Y-62475D01*
X73052Y-62456D01*
X73050Y-62450D01*
X73023Y-62420D01*
X73004Y-62417D01*
X72975Y-62435D01*
X72976Y-62500D01*
X72980Y-62522D01*
X73005Y-62590D01*
X73039Y-62638D01*
X73070Y-62652D01*
X73083Y-62620D01*
X73083Y-62619D01*
X73113Y-62596D01*
X73186Y-62584D01*
X73214Y-62583D01*
X73345Y-62583D01*
X73368Y-62768D01*
X73378Y-62872D01*
X73378Y-62948D01*
X73373Y-62971D01*
X73325Y-62983D01*
X73243Y-62977D01*
X73149Y-62959D01*
X73067Y-62934D01*
X73020Y-62906D01*
X73017Y-62897D01*
X72990Y-62855D01*
X72967Y-62850D01*
X72927Y-62880D01*
X72917Y-62950D01*
X72917Y-63050D01*
X73318Y-63050D01*
X73503Y-63047D01*
X73629Y-63040D01*
X73693Y-63027D01*
X73700Y-63017D01*
X73700Y-63196D01*
X73604Y-63348D01*
X73399Y-63560D01*
X73160Y-63715D01*
X72952Y-63796D01*
X72783Y-63829D01*
X72783Y-63017D01*
X72756Y-62987D01*
X72733Y-62983D01*
X72689Y-62977D01*
X72683Y-62971D01*
X72677Y-62936D01*
X72660Y-62848D01*
X72634Y-62720D01*
X72603Y-62566D01*
X72600Y-62550D01*
X72564Y-62373D01*
X72539Y-62252D01*
X72526Y-62176D01*
X72523Y-62135D01*
X72529Y-62118D01*
X72544Y-62115D01*
X72567Y-62117D01*
X72611Y-62090D01*
X72617Y-62067D01*
X72606Y-62044D01*
X72568Y-62030D01*
X72492Y-62021D01*
X72368Y-62017D01*
X72239Y-62017D01*
X71861Y-62017D01*
X71876Y-62117D01*
X71899Y-62187D01*
X71935Y-62216D01*
X71936Y-62217D01*
X71966Y-62193D01*
X71962Y-62167D01*
X71963Y-62137D01*
X72001Y-62122D01*
X72090Y-62117D01*
X72128Y-62117D01*
X72232Y-62121D01*
X72306Y-62133D01*
X72329Y-62143D01*
X72343Y-62190D01*
X72359Y-62278D01*
X72369Y-62343D01*
X72392Y-62517D01*
X72277Y-62517D01*
X72188Y-62506D01*
X72126Y-62479D01*
X72124Y-62477D01*
X72080Y-62450D01*
X72065Y-62483D01*
X72073Y-62558D01*
X72100Y-62617D01*
X72139Y-62650D01*
X72173Y-62648D01*
X72183Y-62617D01*
X72211Y-62592D01*
X72276Y-62583D01*
X72351Y-62590D01*
X72411Y-62611D01*
X72427Y-62629D01*
X72442Y-62688D01*
X72460Y-62784D01*
X72468Y-62829D01*
X72478Y-62924D01*
X72471Y-62970D01*
X72441Y-62983D01*
X72437Y-62983D01*
X72390Y-63000D01*
X72383Y-63017D01*
X72414Y-63034D01*
X72493Y-63046D01*
X72583Y-63050D01*
X72690Y-63045D01*
X72762Y-63032D01*
X72783Y-63017D01*
X72783Y-63829D01*
X72775Y-63831D01*
X72570Y-63845D01*
X72365Y-63838D01*
X72189Y-63810D01*
X72159Y-63801D01*
X71924Y-63697D01*
X71702Y-63543D01*
X71512Y-63352D01*
X71369Y-63139D01*
X71357Y-63114D01*
X71281Y-62908D01*
X71235Y-62677D01*
X71225Y-62455D01*
X71230Y-62394D01*
X71251Y-62260D01*
X71278Y-62152D01*
X71307Y-62082D01*
X71335Y-62063D01*
X71343Y-62071D01*
X71394Y-62113D01*
X71414Y-62122D01*
X71444Y-62163D01*
X71480Y-62269D01*
X71520Y-62435D01*
X71537Y-62518D01*
X71573Y-62701D01*
X71596Y-62828D01*
X71608Y-62910D01*
X71609Y-62956D01*
X71599Y-62977D01*
X71580Y-62983D01*
X71567Y-62983D01*
X71522Y-63001D01*
X71517Y-63017D01*
X71547Y-63034D01*
X71626Y-63046D01*
X71717Y-63050D01*
X71830Y-63044D01*
X71900Y-63028D01*
X71919Y-63006D01*
X71880Y-62982D01*
X71856Y-62975D01*
X71825Y-62953D01*
X71798Y-62899D01*
X71771Y-62801D01*
X71741Y-62649D01*
X71738Y-62630D01*
X71711Y-62478D01*
X71686Y-62343D01*
X71667Y-62242D01*
X71661Y-62208D01*
X71656Y-62140D01*
X71687Y-62117D01*
X71695Y-62116D01*
X71732Y-62096D01*
X71729Y-62066D01*
X71695Y-62036D01*
X71618Y-62020D01*
X71510Y-62016D01*
X71311Y-62017D01*
X71386Y-61892D01*
X71535Y-61691D01*
X71726Y-61508D01*
X71937Y-61364D01*
X71983Y-61340D01*
X72083Y-61292D01*
X72166Y-61262D01*
X72252Y-61244D01*
X72359Y-61236D01*
X72508Y-61234D01*
X72566Y-61234D01*
X72733Y-61236D01*
X72853Y-61242D01*
X72944Y-61257D01*
X73025Y-61284D01*
X73116Y-61325D01*
X73131Y-61332D01*
X73341Y-61465D01*
X73536Y-61643D01*
X73698Y-61846D01*
X73771Y-61972D01*
X73814Y-62065D01*
X73842Y-62146D01*
X73857Y-62235D01*
X73865Y-62351D01*
X73866Y-62513D01*
X73867Y-62533D01*
X73867Y-62533D01*
X73867Y-62533D01*
G37*
G54D11*
X80621Y-52242D02*
X80321Y-52242D01*
X80321Y-52314D01*
X80335Y-52357D01*
X80364Y-52385D01*
X80392Y-52400D01*
X80450Y-52414D01*
X80492Y-52414D01*
X80550Y-52400D01*
X80578Y-52385D01*
X80607Y-52357D01*
X80621Y-52314D01*
X80621Y-52242D01*
X80421Y-52671D02*
X80621Y-52671D01*
X80307Y-52600D02*
X80521Y-52528D01*
X80521Y-52714D01*
X80321Y-52885D02*
X80321Y-52914D01*
X80335Y-52942D01*
X80350Y-52957D01*
X80378Y-52971D01*
X80435Y-52985D01*
X80507Y-52985D01*
X80564Y-52971D01*
X80592Y-52957D01*
X80607Y-52942D01*
X80621Y-52914D01*
X80621Y-52885D01*
X80607Y-52857D01*
X80592Y-52842D01*
X80564Y-52828D01*
X80507Y-52814D01*
X80435Y-52814D01*
X80378Y-52828D01*
X80350Y-52842D01*
X80335Y-52857D01*
X80321Y-52885D01*
X80621Y-53128D02*
X80621Y-53185D01*
X80607Y-53214D01*
X80592Y-53228D01*
X80550Y-53257D01*
X80492Y-53271D01*
X80378Y-53271D01*
X80350Y-53257D01*
X80335Y-53242D01*
X80321Y-53214D01*
X80321Y-53157D01*
X80335Y-53128D01*
X80350Y-53114D01*
X80378Y-53100D01*
X80450Y-53100D01*
X80478Y-53114D01*
X80492Y-53128D01*
X80507Y-53157D01*
X80507Y-53214D01*
X80492Y-53242D01*
X80478Y-53257D01*
X80450Y-53271D01*
X80621Y-43492D02*
X80321Y-43492D01*
X80321Y-43564D01*
X80335Y-43607D01*
X80364Y-43635D01*
X80392Y-43650D01*
X80450Y-43664D01*
X80492Y-43664D01*
X80550Y-43650D01*
X80578Y-43635D01*
X80607Y-43607D01*
X80621Y-43564D01*
X80621Y-43492D01*
X80421Y-43921D02*
X80621Y-43921D01*
X80307Y-43850D02*
X80521Y-43778D01*
X80521Y-43964D01*
X80321Y-44135D02*
X80321Y-44164D01*
X80335Y-44192D01*
X80350Y-44207D01*
X80378Y-44221D01*
X80435Y-44235D01*
X80507Y-44235D01*
X80564Y-44221D01*
X80592Y-44207D01*
X80607Y-44192D01*
X80621Y-44164D01*
X80621Y-44135D01*
X80607Y-44107D01*
X80592Y-44092D01*
X80564Y-44078D01*
X80507Y-44064D01*
X80435Y-44064D01*
X80378Y-44078D01*
X80350Y-44092D01*
X80335Y-44107D01*
X80321Y-44135D01*
X80321Y-44335D02*
X80321Y-44521D01*
X80435Y-44421D01*
X80435Y-44464D01*
X80450Y-44492D01*
X80464Y-44507D01*
X80492Y-44521D01*
X80564Y-44521D01*
X80592Y-44507D01*
X80607Y-44492D01*
X80621Y-44464D01*
X80621Y-44378D01*
X80607Y-44350D01*
X80592Y-44335D01*
X83621Y-51242D02*
X83321Y-51242D01*
X83321Y-51314D01*
X83335Y-51357D01*
X83364Y-51385D01*
X83392Y-51400D01*
X83450Y-51414D01*
X83492Y-51414D01*
X83550Y-51400D01*
X83578Y-51385D01*
X83607Y-51357D01*
X83621Y-51314D01*
X83621Y-51242D01*
X83421Y-51671D02*
X83621Y-51671D01*
X83307Y-51600D02*
X83521Y-51528D01*
X83521Y-51714D01*
X83321Y-51885D02*
X83321Y-51914D01*
X83335Y-51942D01*
X83350Y-51957D01*
X83378Y-51971D01*
X83435Y-51985D01*
X83507Y-51985D01*
X83564Y-51971D01*
X83592Y-51957D01*
X83607Y-51942D01*
X83621Y-51914D01*
X83621Y-51885D01*
X83607Y-51857D01*
X83592Y-51842D01*
X83564Y-51828D01*
X83507Y-51814D01*
X83435Y-51814D01*
X83378Y-51828D01*
X83350Y-51842D01*
X83335Y-51857D01*
X83321Y-51885D01*
X83450Y-52157D02*
X83435Y-52128D01*
X83421Y-52114D01*
X83392Y-52100D01*
X83378Y-52100D01*
X83350Y-52114D01*
X83335Y-52128D01*
X83321Y-52157D01*
X83321Y-52214D01*
X83335Y-52242D01*
X83350Y-52257D01*
X83378Y-52271D01*
X83392Y-52271D01*
X83421Y-52257D01*
X83435Y-52242D01*
X83450Y-52214D01*
X83450Y-52157D01*
X83464Y-52128D01*
X83478Y-52114D01*
X83507Y-52100D01*
X83564Y-52100D01*
X83592Y-52114D01*
X83607Y-52128D01*
X83621Y-52157D01*
X83621Y-52214D01*
X83607Y-52242D01*
X83592Y-52257D01*
X83564Y-52271D01*
X83507Y-52271D01*
X83478Y-52257D01*
X83464Y-52242D01*
X83450Y-52214D01*
X83621Y-42492D02*
X83321Y-42492D01*
X83321Y-42564D01*
X83335Y-42607D01*
X83364Y-42635D01*
X83392Y-42650D01*
X83450Y-42664D01*
X83492Y-42664D01*
X83550Y-42650D01*
X83578Y-42635D01*
X83607Y-42607D01*
X83621Y-42564D01*
X83621Y-42492D01*
X83421Y-42921D02*
X83621Y-42921D01*
X83307Y-42850D02*
X83521Y-42778D01*
X83521Y-42964D01*
X83321Y-43135D02*
X83321Y-43164D01*
X83335Y-43192D01*
X83350Y-43207D01*
X83378Y-43221D01*
X83435Y-43235D01*
X83507Y-43235D01*
X83564Y-43221D01*
X83592Y-43207D01*
X83607Y-43192D01*
X83621Y-43164D01*
X83621Y-43135D01*
X83607Y-43107D01*
X83592Y-43092D01*
X83564Y-43078D01*
X83507Y-43064D01*
X83435Y-43064D01*
X83378Y-43078D01*
X83350Y-43092D01*
X83335Y-43107D01*
X83321Y-43135D01*
X83350Y-43350D02*
X83335Y-43364D01*
X83321Y-43392D01*
X83321Y-43464D01*
X83335Y-43492D01*
X83350Y-43507D01*
X83378Y-43521D01*
X83407Y-43521D01*
X83450Y-43507D01*
X83621Y-43335D01*
X83621Y-43521D01*
X80621Y-49242D02*
X80321Y-49242D01*
X80321Y-49314D01*
X80335Y-49357D01*
X80364Y-49385D01*
X80392Y-49400D01*
X80450Y-49414D01*
X80492Y-49414D01*
X80550Y-49400D01*
X80578Y-49385D01*
X80607Y-49357D01*
X80621Y-49314D01*
X80621Y-49242D01*
X80421Y-49671D02*
X80621Y-49671D01*
X80307Y-49600D02*
X80521Y-49528D01*
X80521Y-49714D01*
X80321Y-49885D02*
X80321Y-49914D01*
X80335Y-49942D01*
X80350Y-49957D01*
X80378Y-49971D01*
X80435Y-49985D01*
X80507Y-49985D01*
X80564Y-49971D01*
X80592Y-49957D01*
X80607Y-49942D01*
X80621Y-49914D01*
X80621Y-49885D01*
X80607Y-49857D01*
X80592Y-49842D01*
X80564Y-49828D01*
X80507Y-49814D01*
X80435Y-49814D01*
X80378Y-49828D01*
X80350Y-49842D01*
X80335Y-49857D01*
X80321Y-49885D01*
X80321Y-50085D02*
X80321Y-50285D01*
X80621Y-50157D01*
X83346Y-39842D02*
X83046Y-39842D01*
X83046Y-39914D01*
X83060Y-39957D01*
X83089Y-39985D01*
X83117Y-40000D01*
X83175Y-40014D01*
X83217Y-40014D01*
X83275Y-40000D01*
X83303Y-39985D01*
X83332Y-39957D01*
X83346Y-39914D01*
X83346Y-39842D01*
X83146Y-40271D02*
X83346Y-40271D01*
X83032Y-40200D02*
X83246Y-40128D01*
X83246Y-40314D01*
X83046Y-40485D02*
X83046Y-40514D01*
X83060Y-40542D01*
X83075Y-40557D01*
X83103Y-40571D01*
X83160Y-40585D01*
X83232Y-40585D01*
X83289Y-40571D01*
X83317Y-40557D01*
X83332Y-40542D01*
X83346Y-40514D01*
X83346Y-40485D01*
X83332Y-40457D01*
X83317Y-40442D01*
X83289Y-40428D01*
X83232Y-40414D01*
X83160Y-40414D01*
X83103Y-40428D01*
X83075Y-40442D01*
X83060Y-40457D01*
X83046Y-40485D01*
X83346Y-40871D02*
X83346Y-40700D01*
X83346Y-40785D02*
X83046Y-40785D01*
X83089Y-40757D01*
X83117Y-40728D01*
X83132Y-40700D01*
X83621Y-45492D02*
X83321Y-45492D01*
X83321Y-45564D01*
X83335Y-45607D01*
X83364Y-45635D01*
X83392Y-45650D01*
X83450Y-45664D01*
X83492Y-45664D01*
X83550Y-45650D01*
X83578Y-45635D01*
X83607Y-45607D01*
X83621Y-45564D01*
X83621Y-45492D01*
X83421Y-45921D02*
X83621Y-45921D01*
X83307Y-45850D02*
X83521Y-45778D01*
X83521Y-45964D01*
X83321Y-46135D02*
X83321Y-46164D01*
X83335Y-46192D01*
X83350Y-46207D01*
X83378Y-46221D01*
X83435Y-46235D01*
X83507Y-46235D01*
X83564Y-46221D01*
X83592Y-46207D01*
X83607Y-46192D01*
X83621Y-46164D01*
X83621Y-46135D01*
X83607Y-46107D01*
X83592Y-46092D01*
X83564Y-46078D01*
X83507Y-46064D01*
X83435Y-46064D01*
X83378Y-46078D01*
X83350Y-46092D01*
X83335Y-46107D01*
X83321Y-46135D01*
X83421Y-46492D02*
X83621Y-46492D01*
X83307Y-46421D02*
X83521Y-46350D01*
X83521Y-46535D01*
X83871Y-54992D02*
X83571Y-54992D01*
X83571Y-55064D01*
X83585Y-55107D01*
X83614Y-55135D01*
X83642Y-55150D01*
X83700Y-55164D01*
X83742Y-55164D01*
X83800Y-55150D01*
X83828Y-55135D01*
X83857Y-55107D01*
X83871Y-55064D01*
X83871Y-54992D01*
X83671Y-55421D02*
X83871Y-55421D01*
X83557Y-55350D02*
X83771Y-55278D01*
X83771Y-55464D01*
X83871Y-55735D02*
X83871Y-55564D01*
X83871Y-55650D02*
X83571Y-55650D01*
X83614Y-55621D01*
X83642Y-55592D01*
X83657Y-55564D01*
X83571Y-55921D02*
X83571Y-55950D01*
X83585Y-55978D01*
X83600Y-55992D01*
X83628Y-56007D01*
X83685Y-56021D01*
X83757Y-56021D01*
X83814Y-56007D01*
X83842Y-55992D01*
X83857Y-55978D01*
X83871Y-55950D01*
X83871Y-55921D01*
X83857Y-55892D01*
X83842Y-55878D01*
X83814Y-55864D01*
X83757Y-55850D01*
X83685Y-55850D01*
X83628Y-55864D01*
X83600Y-55878D01*
X83585Y-55892D01*
X83571Y-55921D01*
X80621Y-46242D02*
X80321Y-46242D01*
X80321Y-46314D01*
X80335Y-46357D01*
X80364Y-46385D01*
X80392Y-46400D01*
X80450Y-46414D01*
X80492Y-46414D01*
X80550Y-46400D01*
X80578Y-46385D01*
X80607Y-46357D01*
X80621Y-46314D01*
X80621Y-46242D01*
X80421Y-46671D02*
X80621Y-46671D01*
X80307Y-46600D02*
X80521Y-46528D01*
X80521Y-46714D01*
X80321Y-46885D02*
X80321Y-46914D01*
X80335Y-46942D01*
X80350Y-46957D01*
X80378Y-46971D01*
X80435Y-46985D01*
X80507Y-46985D01*
X80564Y-46971D01*
X80592Y-46957D01*
X80607Y-46942D01*
X80621Y-46914D01*
X80621Y-46885D01*
X80607Y-46857D01*
X80592Y-46842D01*
X80564Y-46828D01*
X80507Y-46814D01*
X80435Y-46814D01*
X80378Y-46828D01*
X80350Y-46842D01*
X80335Y-46857D01*
X80321Y-46885D01*
X80321Y-47257D02*
X80321Y-47114D01*
X80464Y-47100D01*
X80450Y-47114D01*
X80435Y-47142D01*
X80435Y-47214D01*
X80450Y-47242D01*
X80464Y-47257D01*
X80492Y-47271D01*
X80564Y-47271D01*
X80592Y-47257D01*
X80607Y-47242D01*
X80621Y-47214D01*
X80621Y-47142D01*
X80607Y-47114D01*
X80592Y-47100D01*
X80621Y-55492D02*
X80321Y-55492D01*
X80321Y-55564D01*
X80335Y-55607D01*
X80364Y-55635D01*
X80392Y-55650D01*
X80450Y-55664D01*
X80492Y-55664D01*
X80550Y-55650D01*
X80578Y-55635D01*
X80607Y-55607D01*
X80621Y-55564D01*
X80621Y-55492D01*
X80421Y-55921D02*
X80621Y-55921D01*
X80307Y-55850D02*
X80521Y-55778D01*
X80521Y-55964D01*
X80621Y-56235D02*
X80621Y-56064D01*
X80621Y-56150D02*
X80321Y-56150D01*
X80364Y-56121D01*
X80392Y-56092D01*
X80407Y-56064D01*
X80621Y-56521D02*
X80621Y-56350D01*
X80621Y-56435D02*
X80321Y-56435D01*
X80364Y-56407D01*
X80392Y-56378D01*
X80407Y-56350D01*
X83621Y-48492D02*
X83321Y-48492D01*
X83321Y-48564D01*
X83335Y-48607D01*
X83364Y-48635D01*
X83392Y-48650D01*
X83450Y-48664D01*
X83492Y-48664D01*
X83550Y-48650D01*
X83578Y-48635D01*
X83607Y-48607D01*
X83621Y-48564D01*
X83621Y-48492D01*
X83421Y-48921D02*
X83621Y-48921D01*
X83307Y-48850D02*
X83521Y-48778D01*
X83521Y-48964D01*
X83321Y-49135D02*
X83321Y-49164D01*
X83335Y-49192D01*
X83350Y-49207D01*
X83378Y-49221D01*
X83435Y-49235D01*
X83507Y-49235D01*
X83564Y-49221D01*
X83592Y-49207D01*
X83607Y-49192D01*
X83621Y-49164D01*
X83621Y-49135D01*
X83607Y-49107D01*
X83592Y-49092D01*
X83564Y-49078D01*
X83507Y-49064D01*
X83435Y-49064D01*
X83378Y-49078D01*
X83350Y-49092D01*
X83335Y-49107D01*
X83321Y-49135D01*
X83321Y-49492D02*
X83321Y-49435D01*
X83335Y-49407D01*
X83350Y-49392D01*
X83392Y-49364D01*
X83450Y-49350D01*
X83564Y-49350D01*
X83592Y-49364D01*
X83607Y-49378D01*
X83621Y-49407D01*
X83621Y-49464D01*
X83607Y-49492D01*
X83592Y-49507D01*
X83564Y-49521D01*
X83492Y-49521D01*
X83464Y-49507D01*
X83450Y-49492D01*
X83435Y-49464D01*
X83435Y-49407D01*
X83450Y-49378D01*
X83464Y-49364D01*
X83492Y-49350D01*
X83621Y-57242D02*
X83321Y-57242D01*
X83321Y-57314D01*
X83335Y-57357D01*
X83364Y-57385D01*
X83392Y-57400D01*
X83450Y-57414D01*
X83492Y-57414D01*
X83550Y-57400D01*
X83578Y-57385D01*
X83607Y-57357D01*
X83621Y-57314D01*
X83621Y-57242D01*
X83421Y-57671D02*
X83621Y-57671D01*
X83307Y-57600D02*
X83521Y-57528D01*
X83521Y-57714D01*
X83621Y-57985D02*
X83621Y-57814D01*
X83621Y-57900D02*
X83321Y-57900D01*
X83364Y-57871D01*
X83392Y-57842D01*
X83407Y-57814D01*
X83350Y-58100D02*
X83335Y-58114D01*
X83321Y-58142D01*
X83321Y-58214D01*
X83335Y-58242D01*
X83350Y-58257D01*
X83378Y-58271D01*
X83407Y-58271D01*
X83450Y-58257D01*
X83621Y-58085D01*
X83621Y-58271D01*
X80871Y-39164D02*
X80728Y-39064D01*
X80871Y-38992D02*
X80571Y-38992D01*
X80571Y-39107D01*
X80585Y-39135D01*
X80600Y-39150D01*
X80628Y-39164D01*
X80671Y-39164D01*
X80700Y-39150D01*
X80714Y-39135D01*
X80728Y-39107D01*
X80728Y-38992D01*
X80671Y-39421D02*
X80871Y-39421D01*
X80557Y-39350D02*
X80771Y-39278D01*
X80771Y-39464D01*
X80571Y-39635D02*
X80571Y-39664D01*
X80585Y-39692D01*
X80600Y-39707D01*
X80628Y-39721D01*
X80685Y-39735D01*
X80757Y-39735D01*
X80814Y-39721D01*
X80842Y-39707D01*
X80857Y-39692D01*
X80871Y-39664D01*
X80871Y-39635D01*
X80857Y-39607D01*
X80842Y-39592D01*
X80814Y-39578D01*
X80757Y-39564D01*
X80685Y-39564D01*
X80628Y-39578D01*
X80600Y-39592D01*
X80585Y-39607D01*
X80571Y-39635D01*
X80871Y-40021D02*
X80871Y-39850D01*
X80871Y-39935D02*
X80571Y-39935D01*
X80614Y-39907D01*
X80642Y-39878D01*
X80657Y-39850D01*
X83810Y-41971D02*
X83910Y-41828D01*
X83982Y-41971D02*
X83982Y-41671D01*
X83867Y-41671D01*
X83839Y-41685D01*
X83825Y-41700D01*
X83810Y-41728D01*
X83810Y-41771D01*
X83825Y-41800D01*
X83839Y-41814D01*
X83867Y-41828D01*
X83982Y-41828D01*
X83553Y-41771D02*
X83553Y-41971D01*
X83625Y-41657D02*
X83696Y-41871D01*
X83510Y-41871D01*
X83339Y-41671D02*
X83310Y-41671D01*
X83282Y-41685D01*
X83267Y-41700D01*
X83253Y-41728D01*
X83239Y-41785D01*
X83239Y-41857D01*
X83253Y-41914D01*
X83267Y-41942D01*
X83282Y-41957D01*
X83310Y-41971D01*
X83339Y-41971D01*
X83367Y-41957D01*
X83382Y-41942D01*
X83396Y-41914D01*
X83410Y-41857D01*
X83410Y-41785D01*
X83396Y-41728D01*
X83382Y-41700D01*
X83367Y-41685D01*
X83339Y-41671D01*
X83125Y-41700D02*
X83110Y-41685D01*
X83082Y-41671D01*
X83010Y-41671D01*
X82982Y-41685D01*
X82967Y-41700D01*
X82953Y-41728D01*
X82953Y-41757D01*
X82967Y-41800D01*
X83139Y-41971D01*
X82953Y-41971D01*
X69088Y-53580D02*
X69088Y-53380D01*
X69011Y-53380D01*
X68992Y-53390D01*
X68983Y-53400D01*
X68973Y-53419D01*
X68973Y-53447D01*
X68983Y-53466D01*
X68992Y-53476D01*
X69011Y-53485D01*
X69088Y-53485D01*
X68802Y-53447D02*
X68802Y-53580D01*
X68850Y-53371D02*
X68897Y-53514D01*
X68773Y-53514D01*
X68659Y-53380D02*
X68640Y-53380D01*
X68621Y-53390D01*
X68611Y-53400D01*
X68602Y-53419D01*
X68592Y-53457D01*
X68592Y-53504D01*
X68602Y-53542D01*
X68611Y-53561D01*
X68621Y-53571D01*
X68640Y-53580D01*
X68659Y-53580D01*
X68678Y-53571D01*
X68688Y-53561D01*
X68697Y-53542D01*
X68707Y-53504D01*
X68707Y-53457D01*
X68697Y-53419D01*
X68688Y-53400D01*
X68678Y-53390D01*
X68659Y-53380D01*
X68421Y-53447D02*
X68421Y-53580D01*
X68469Y-53371D02*
X68516Y-53514D01*
X68392Y-53514D01*
X72588Y-52580D02*
X72588Y-52380D01*
X72511Y-52380D01*
X72492Y-52390D01*
X72483Y-52400D01*
X72473Y-52419D01*
X72473Y-52447D01*
X72483Y-52466D01*
X72492Y-52476D01*
X72511Y-52485D01*
X72588Y-52485D01*
X72302Y-52447D02*
X72302Y-52580D01*
X72350Y-52371D02*
X72397Y-52514D01*
X72273Y-52514D01*
X72159Y-52380D02*
X72140Y-52380D01*
X72121Y-52390D01*
X72111Y-52400D01*
X72102Y-52419D01*
X72092Y-52457D01*
X72092Y-52504D01*
X72102Y-52542D01*
X72111Y-52561D01*
X72121Y-52571D01*
X72140Y-52580D01*
X72159Y-52580D01*
X72178Y-52571D01*
X72188Y-52561D01*
X72197Y-52542D01*
X72207Y-52504D01*
X72207Y-52457D01*
X72197Y-52419D01*
X72188Y-52400D01*
X72178Y-52390D01*
X72159Y-52380D01*
X71911Y-52380D02*
X72007Y-52380D01*
X72016Y-52476D01*
X72007Y-52466D01*
X71988Y-52457D01*
X71940Y-52457D01*
X71921Y-52466D01*
X71911Y-52476D01*
X71902Y-52495D01*
X71902Y-52542D01*
X71911Y-52561D01*
X71921Y-52571D01*
X71940Y-52580D01*
X71988Y-52580D01*
X72007Y-52571D01*
X72016Y-52561D01*
M02*
