M48
;DRILL file {Pcbnew (2013-07-07 BZR 4022)-stable} date 2/1/2014 4:13:09 PM
;FORMAT={-:-/ absolute / inch / decimal}
FMAT,2
INCH,TZ
T1C0.025
T2C0.030
T3C0.032
T4C0.040
T5C0.051
T6C0.060
T7C0.118
%
G90
G05
M72
T1
X4.95Y-6.07
X5.01Y-4.315
X5.14Y-4.31
X5.15Y-6.03
X5.16Y-4.52
X5.16Y-6.135
X5.165Y-5.985
X5.17Y-5.575
X5.18Y-5.52
X5.18Y-5.705
X5.1972Y-4.7476
X5.2Y-5.77
X5.28Y-5.11
X5.3Y-4.785
X5.315Y-5.36
X5.325Y-6.
X5.34Y-4.6
X5.3496Y-5.1016
X5.355Y-4.91
X5.385Y-5.79
X5.3965Y-5.422
X5.4069Y-6.9713
X5.4294Y-7.1887
X5.4358Y-5.5965
X5.4634Y-5.3413
X5.485Y-4.93
X5.545Y-4.295
X5.545Y-5.295
X5.6697Y-4.4031
X5.69Y-5.91
X5.6944Y-7.2038
X5.725Y-5.13
X5.739Y-4.2634
X5.7794Y-7.0513
X5.79Y-5.375
X5.815Y-5.095
X5.82Y-4.92
X5.86Y-4.6
X5.87Y-4.285
X5.895Y-3.9475
X5.91Y-5.595
X5.915Y-4.27
X5.92Y-5.11
X5.955Y-5.995
X5.96Y-4.735
X5.961Y-5.8256
X5.97Y-4.925
X5.995Y-5.375
X6.01Y-4.09
X6.03Y-5.305
X6.04Y-6.185
X6.05Y-4.285
X6.061Y-6.6494
X6.065Y-5.815
X6.07Y-5.53
X6.085Y-4.385
X6.086Y-6.4494
X6.11Y-4.08
X6.125Y-6.095
X6.145Y-4.55
X6.165Y-6.515
X6.185Y-5.17
X6.191Y-6.579
X6.2Y-6.14
X6.211Y-6.6244
X6.2384Y-4.6725
X6.24Y-6.52
X6.245Y-4.94
X6.265Y-6.58
X6.315Y-6.565
X6.325Y-4.08
X6.3378Y-4.6173
X6.34Y-4.445
X6.37Y-4.48
X6.37Y-5.995
X6.38Y-4.905
X6.38Y-6.0625
X6.405Y-5.3
X6.4075Y-5.8625
X6.43Y-4.585
X6.44Y-5.595
X6.45Y-3.91
X6.475Y-5.995
X6.5Y-4.27
X6.5Y-4.465
X6.5Y-5.805
X6.56Y-3.925
X6.56Y-4.64
X6.565Y-5.325
X6.5931Y-7.0637
X6.61Y-5.625
X6.62Y-5.755
X6.635Y-5.
X6.7728Y-5.9282
X6.925Y-5.85
X6.95Y-5.35
X7.1489Y-6.0356
X7.15Y-5.25
X7.1679Y-6.4339
X7.1744Y-6.9688
X7.18Y-7.4618
X7.185Y-7.0668
X7.2125Y-6.1
X7.215Y-6.
X7.2231Y-6.4567
X7.24Y-7.4118
X7.24Y-7.4618
X7.245Y-6.6418
X7.2497Y-6.925
X7.25Y-3.925
X7.25Y-6.15
X7.25Y-6.5668
X7.285Y-6.24
X7.305Y-6.37
X7.35Y-4.025
X7.375Y-5.85
X7.395Y-6.46
X7.41Y-7.0618
X7.425Y-3.95
X7.425Y-6.9068
X7.4675Y-6.8093
X7.475Y-3.95
X7.475Y-5.9
X7.495Y-7.0618
X7.5Y-5.825
X7.525Y-3.95
X7.525Y-5.9
X7.55Y-4.
X7.55Y-5.85
X7.575Y-3.95
X7.575Y-4.125
X7.575Y-4.425
X7.575Y-4.725
X7.575Y-5.025
X7.575Y-5.325
X7.575Y-5.625
X7.575Y-5.9
X7.5828Y-6.4332
X7.6Y-4.
X7.6Y-4.175
X7.6Y-4.475
X7.6Y-4.775
X7.6Y-5.075
X7.6Y-5.375
X7.6Y-5.675
X7.6Y-5.85
X7.615Y-6.8093
X7.625Y-3.95
X7.625Y-4.125
X7.625Y-4.425
X7.625Y-4.725
X7.625Y-5.025
X7.625Y-5.325
X7.625Y-5.625
X7.625Y-5.9
X7.63Y-6.43
X7.65Y-4.
X7.65Y-4.175
X7.65Y-4.475
X7.65Y-4.775
X7.65Y-5.075
X7.65Y-5.375
X7.65Y-5.675
X7.65Y-5.85
X7.675Y-3.95
X7.675Y-4.125
X7.675Y-4.425
X7.675Y-4.725
X7.675Y-5.025
X7.675Y-5.325
X7.675Y-5.625
X7.675Y-5.9
X7.6788Y-6.516
X7.7Y-4.
X7.7Y-4.175
X7.7Y-4.475
X7.7Y-4.775
X7.7Y-5.075
X7.7Y-5.375
X7.7Y-5.675
X7.7Y-5.85
X7.71Y-7.3318
X7.725Y-3.95
X7.725Y-4.125
X7.725Y-4.425
X7.725Y-4.725
X7.725Y-5.025
X7.725Y-5.325
X7.725Y-5.625
X7.725Y-5.9
X7.73Y-7.0168
X7.75Y-4.
X7.75Y-4.175
X7.75Y-4.475
X7.75Y-4.775
X7.75Y-5.075
X7.75Y-5.375
X7.75Y-5.675
X7.76Y-7.3618
X7.76Y-7.4118
X7.76Y-7.4618
X7.77Y-6.8018
X7.77Y-7.0568
X7.7739Y-6.4136
X7.775Y-4.075
X7.775Y-4.125
X7.775Y-4.425
X7.775Y-4.725
X7.775Y-5.025
X7.775Y-5.325
X7.775Y-5.625
X7.775Y-5.9
X7.775Y-6.15
X7.775Y-6.3
X7.8041Y-5.9574
X7.825Y-3.675
X7.825Y-4.05
X7.825Y-4.1
X7.825Y-4.225
X7.825Y-4.525
X7.825Y-4.825
X7.825Y-5.125
X7.825Y-5.425
X7.825Y-5.725
X7.83Y-7.4618
X7.84Y-7.2718
X7.85Y-3.75
X7.85Y-3.825
X7.875Y-4.25
X7.875Y-4.55
X7.875Y-4.85
X7.875Y-5.15
X7.875Y-5.45
X7.875Y-5.75
X7.885Y-6.09
X7.885Y-6.385
X7.89Y-6.875
X7.9Y-3.675
X7.9Y-3.875
X7.925Y-4.225
X7.925Y-4.525
X7.925Y-4.825
X7.925Y-5.125
X7.925Y-5.425
X7.925Y-5.725
X7.93Y-6.09
X7.975Y-3.675
X7.975Y-3.875
X7.975Y-4.25
X7.975Y-4.55
X7.975Y-4.85
X7.975Y-5.15
X7.975Y-5.45
X7.975Y-5.75
X7.99Y-6.8568
X8.025Y-4.05
X8.025Y-4.1
X8.025Y-4.15
X8.025Y-4.2
X8.025Y-4.475
X8.025Y-4.525
X8.025Y-4.775
X8.025Y-4.825
X8.025Y-5.075
X8.025Y-5.125
X8.025Y-5.375
X8.025Y-5.425
X8.025Y-5.675
X8.025Y-5.725
X8.045Y-6.9018
X8.05Y-3.7
X8.05Y-3.8
X8.05Y-3.875
X8.055Y-6.6418
X8.075Y-4.075
X8.075Y-4.175
X8.075Y-4.45
X8.075Y-4.5
X8.075Y-4.75
X8.075Y-4.8
X8.075Y-5.05
X8.075Y-5.1
X8.075Y-5.35
X8.075Y-5.4
X8.075Y-5.65
X8.075Y-5.7
X8.075Y-5.75
X8.1Y-3.75
X8.15Y-3.7
X8.15Y-3.8
X8.25Y-3.9
X8.25Y-6.9018
X8.26Y-7.2568
X8.26Y-7.4718
X8.27Y-6.6218
X8.3Y-4.74
X8.3Y-5.04
X8.32Y-4.36
X8.32Y-5.64
X8.32Y-5.86
X8.325Y-3.9
X8.325Y-3.975
X8.325Y-4.075
X8.34Y-4.7
X8.34Y-5.32
X8.34Y-5.58
X8.3525Y-7.1318
X8.36Y-4.96
X8.36Y-5.02
X8.36Y-5.26
X8.36Y-5.9
X8.375Y-3.925
X8.375Y-4.025
X8.38Y-4.66
X8.38Y-5.64
X8.3875Y-7.3668
X8.4Y-5.34
X8.4Y-5.58
X8.4Y-5.86
X8.42Y-4.62
X8.42Y-4.96
X8.42Y-5.28
X8.425Y-3.875
X8.425Y-3.975
X8.4383Y-6.6218
X8.44Y-5.9
X8.4425Y-7.0368
X8.45Y-3.675
X8.46Y-4.58
X8.46Y-5.24
X8.46Y-5.34
X8.46Y-5.58
X8.47Y-6.45
X8.475Y-3.75
X8.475Y-3.825
X8.475Y-3.925
X8.475Y-6.025
X8.475Y-6.15
X8.475Y-6.325
X8.48Y-5.86
X8.495Y-6.6818
X8.5Y-4.54
X8.5Y-5.28
X8.52Y-5.22
X8.52Y-5.9
X8.52Y-7.2568
X8.52Y-7.4718
X8.525Y-3.7
X8.525Y-3.875
X8.57Y-6.8718
X8.57Y-7.16
X8.6Y-3.675
X8.62Y-5.22
X8.62Y-5.8
X8.62Y-5.9
T2
X7.3076Y-7.4309
X7.6226Y-7.4309
X8.305Y-7.3568
X8.475Y-7.3568
T3
X4.84Y-4.9
X4.84Y-5.
X5.Y-4.9984
X5.Y-6.4984
X5.7894Y-6.9887
X5.8894Y-6.9887
X6.28Y-3.8
X6.38Y-3.8
X6.54Y-3.8
X6.64Y-3.8
X7.Y-4.9984
X7.Y-6.0984
X8.1475Y-4.185
X8.1475Y-4.41
X8.1475Y-4.51
X8.1475Y-5.31
X8.1475Y-5.41
X8.1475Y-5.61
X8.1475Y-5.71
X8.15Y-3.875
X8.1525Y-3.975
X8.1525Y-4.705
X8.1525Y-4.805
X8.1525Y-5.005
X8.1525Y-5.105
X8.2475Y-3.985
X8.2475Y-4.085
X8.2475Y-4.185
X8.2475Y-4.285
X8.2475Y-4.385
X8.2475Y-4.585
X8.2475Y-4.685
X8.2475Y-4.885
X8.2475Y-4.985
X8.2475Y-5.185
X8.2475Y-5.285
X8.2475Y-5.485
X8.2475Y-5.585
X8.2475Y-5.785
X8.2475Y-5.885
T4
X4.8Y-6.3
X4.8Y-6.4
X4.8Y-6.5
X4.8Y-6.6
X4.8Y-6.7
X4.8Y-6.8
X4.8Y-6.895
X4.8Y-7.
X4.8Y-7.095
X4.8Y-7.195
X4.8Y-7.295
X4.8Y-7.395
X4.8225Y-5.7
X4.845Y-5.25
X4.8825Y-3.915
X4.8825Y-4.015
X4.8825Y-4.115
X4.8825Y-4.215
X4.8825Y-4.315
X4.8825Y-4.415
X5.Y-5.0984
X5.Y-5.1984
X5.Y-5.2984
X5.Y-5.3984
X5.Y-5.4984
X5.Y-5.5984
X5.Y-5.6984
X5.Y-5.7984
X5.Y-5.8984
X5.Y-6.
X5.Y-6.1
X5.Y-6.2
X5.Y-6.3
X5.Y-6.4
X5.Y-6.5984
X5.Y-6.6984
X5.Y-6.7984
X5.Y-6.8984
X5.Y-6.9984
X5.Y-7.0984
X5.Y-7.1984
X5.Y-7.2984
X5.Y-7.3984
X5.1Y-4.9984
X5.1Y-5.0984
X5.1Y-5.1984
X5.1Y-5.2984
X5.1Y-5.3984
X5.1Y-5.4984
X5.1Y-5.5984
X5.1Y-5.6984
X5.1Y-5.7984
X5.1Y-5.8984
X5.1Y-6.
X5.1Y-6.1
X5.1Y-6.2
X5.1Y-6.3
X5.1Y-6.4
X5.1Y-6.4984
X5.1Y-6.5984
X5.1Y-6.6984
X5.1Y-6.7984
X5.1Y-6.8984
X5.1Y-6.9984
X5.1Y-7.0984
X5.1Y-7.1984
X5.1Y-7.2984
X5.1Y-7.3984
X5.2275Y-6.7
X5.235Y-3.795
X5.2525Y-7.485
X5.3275Y-6.7
X5.335Y-3.795
X5.3525Y-7.485
X5.435Y-3.795
X5.4525Y-7.485
X5.535Y-3.795
X5.5525Y-7.485
X5.635Y-3.795
X5.6525Y-7.485
X5.735Y-3.795
X5.7525Y-7.485
X5.8869Y-7.1063
X5.8869Y-7.2063
X5.91Y-3.79
X6.01Y-3.79
X6.11Y-3.79
X6.111Y-7.0494
X6.211Y-7.0494
X6.311Y-7.0494
X6.411Y-7.0494
X6.6Y-7.5025
X6.7Y-7.5025
X6.77Y-7.3
X6.7725Y-7.1
X6.7969Y-6.0344
X6.8Y-7.5025
X6.87Y-7.3
X6.8725Y-7.1
X6.9Y-7.5
X7.Y-5.0984
X7.Y-5.1984
X7.Y-5.2984
X7.Y-5.3984
X7.Y-5.4984
X7.Y-5.5984
X7.Y-5.6984
X7.Y-5.7984
X7.Y-5.8984
X7.Y-6.
X7.Y-6.1984
X7.Y-6.2984
X7.Y-6.3984
X7.Y-6.4984
X7.Y-6.5984
X7.Y-6.6984
X7.Y-6.7984
X7.Y-6.8984
X7.Y-6.9984
X7.Y-7.1
X7.Y-7.2
X7.Y-7.3
X7.Y-7.4
X7.Y-7.5025
X7.1Y-4.9984
X7.1Y-5.0984
X7.1Y-5.1984
X7.1Y-5.2984
X7.1Y-5.3984
X7.1Y-5.4984
X7.1Y-5.5984
X7.1Y-5.6984
X7.1Y-5.7984
X7.1Y-5.8984
X7.1Y-6.
X7.1Y-6.0984
X7.1Y-6.1984
X7.1Y-6.2984
X7.1Y-6.3984
X7.1Y-6.4984
X7.1Y-6.5984
X7.1Y-6.6984
X7.1Y-6.7984
X7.1Y-6.8984
X7.1Y-6.9984
X7.1Y-7.1
X7.1Y-7.2
X7.1Y-7.3
X7.1Y-7.4
X7.1Y-7.5025
X7.505Y-6.5918
X7.505Y-6.6918
X7.605Y-6.5918
X7.605Y-6.6918
X7.705Y-6.5918
X7.705Y-6.6918
X7.805Y-6.5918
X7.805Y-6.6918
X7.905Y-6.5918
X7.905Y-6.6918
X8.6Y-6.6
T5
X8.575Y-3.7915
X8.575Y-3.9293
X8.575Y-4.0671
X8.575Y-4.2049
X8.575Y-4.3427
X8.575Y-4.4805
X8.575Y-4.6183
X8.575Y-4.7561
X8.575Y-4.8939
X8.575Y-5.0317
X8.575Y-5.1695
X8.575Y-5.3073
X8.575Y-5.4451
X8.575Y-5.5829
X8.575Y-5.7207
X8.575Y-5.8585
X8.6Y-6.
X8.6Y-6.1
X8.6Y-6.2
X8.6Y-6.3
X8.6Y-6.4
X8.6Y-6.5
T6
X7.5425Y-3.7775
X7.7425Y-3.7775
X7.9425Y-3.7775
T7
X5.05Y-3.975
X5.2519Y-6.9987
X5.7244Y-7.2938
X6.7106Y-6.4419
X6.76Y-5.4
X8.05Y-7.3493
X8.4975Y-6.5568
T0
M30
