G04 (created by PCBNEW (2013-07-07 BZR 4022)-stable) date 28/01/2014 16:49:45*
%MOIN*%
G04 Gerber Fmt 3.4, Leading zero omitted, Abs format*
%FSLAX34Y34*%
G01*
G70*
G90*
G04 APERTURE LIST*
%ADD10C,0.00590551*%
%ADD11R,0.06X0.06*%
%ADD12C,0.06*%
%ADD13C,0.11811*%
%ADD14R,0.055X0.055*%
%ADD15C,0.055*%
%ADD16C,0.04*%
%ADD17C,0.035*%
%ADD18C,0.0708661*%
%ADD19R,0.0708661X0.0708661*%
%ADD20R,0.1X0.1*%
%ADD21C,0.1*%
%ADD22C,0.045*%
%ADD23C,0.01*%
G04 APERTURE END LIST*
G54D10*
G54D11*
X70000Y-71000D03*
G54D12*
X71000Y-71000D03*
X70000Y-72000D03*
X71000Y-72000D03*
X70000Y-73000D03*
X71000Y-73000D03*
X70000Y-74000D03*
X71000Y-74000D03*
G54D11*
X50000Y-60000D03*
G54D12*
X51000Y-60000D03*
X50000Y-61000D03*
X51000Y-61000D03*
X50000Y-62000D03*
X51000Y-62000D03*
X50000Y-63000D03*
X51000Y-63000D03*
X50000Y-64000D03*
X51000Y-64000D03*
G54D11*
X70000Y-60000D03*
G54D12*
X71000Y-60000D03*
G54D11*
X50000Y-64984D03*
G54D12*
X51000Y-64984D03*
X50000Y-65984D03*
X51000Y-65984D03*
X50000Y-66984D03*
X51000Y-66984D03*
X50000Y-67984D03*
X51000Y-67984D03*
X50000Y-68984D03*
X51000Y-68984D03*
X50000Y-69984D03*
X51000Y-69984D03*
X50000Y-70984D03*
X51000Y-70984D03*
X50000Y-71984D03*
X51000Y-71984D03*
X50000Y-72984D03*
X51000Y-72984D03*
X50000Y-73984D03*
X51000Y-73984D03*
G54D11*
X48000Y-73950D03*
G54D12*
X48000Y-72950D03*
X48000Y-71950D03*
X48000Y-70950D03*
X48000Y-70000D03*
X48000Y-68950D03*
G54D11*
X48000Y-68000D03*
G54D12*
X48000Y-67000D03*
X48000Y-66000D03*
X48000Y-65000D03*
X48000Y-64000D03*
X48000Y-63000D03*
G54D11*
X57525Y-74850D03*
G54D12*
X56525Y-74850D03*
X55525Y-74850D03*
X54525Y-74850D03*
X53525Y-74850D03*
X52525Y-74850D03*
G54D11*
X67725Y-71000D03*
G54D12*
X68725Y-71000D03*
G54D11*
X67700Y-73000D03*
G54D12*
X68700Y-73000D03*
G54D11*
X52275Y-67000D03*
G54D12*
X53275Y-67000D03*
G54D11*
X71000Y-75025D03*
G54D12*
X70000Y-75025D03*
X69000Y-75000D03*
X68000Y-75025D03*
X67000Y-75025D03*
X66000Y-75025D03*
G54D11*
X86000Y-66000D03*
G54D13*
X67600Y-54000D03*
X50500Y-39750D03*
X60825Y-62650D03*
G54D11*
X59100Y-37900D03*
G54D12*
X60100Y-37900D03*
X61100Y-37900D03*
G54D11*
X57350Y-37950D03*
G54D12*
X56350Y-37950D03*
X55350Y-37950D03*
X54350Y-37950D03*
X53350Y-37950D03*
X52350Y-37950D03*
G54D11*
X48225Y-57000D03*
X48450Y-52500D03*
X48825Y-39150D03*
G54D12*
X48825Y-40150D03*
X48825Y-41150D03*
X48825Y-42150D03*
X48825Y-43150D03*
X48825Y-44150D03*
G54D14*
X48400Y-49000D03*
G54D15*
X48400Y-50000D03*
G54D14*
X62800Y-38000D03*
G54D15*
X63800Y-38000D03*
G54D14*
X65400Y-38000D03*
G54D15*
X66400Y-38000D03*
G54D11*
X50000Y-49984D03*
G54D12*
X51000Y-49984D03*
X50000Y-50984D03*
X51000Y-50984D03*
X50000Y-51984D03*
X51000Y-51984D03*
X50000Y-52984D03*
X51000Y-52984D03*
X50000Y-53984D03*
X51000Y-53984D03*
X50000Y-54984D03*
X51000Y-54984D03*
X50000Y-55984D03*
X51000Y-55984D03*
X50000Y-56984D03*
X51000Y-56984D03*
X50000Y-57984D03*
X51000Y-57984D03*
X50000Y-58984D03*
X51000Y-58984D03*
G54D11*
X70000Y-60984D03*
G54D12*
X71000Y-60984D03*
X70000Y-61984D03*
X71000Y-61984D03*
X70000Y-62984D03*
X71000Y-62984D03*
X70000Y-63984D03*
X71000Y-63984D03*
X70000Y-64984D03*
X71000Y-64984D03*
X70000Y-65984D03*
X71000Y-65984D03*
X70000Y-66984D03*
X71000Y-66984D03*
X70000Y-67984D03*
X71000Y-67984D03*
X70000Y-68984D03*
X71000Y-68984D03*
X70000Y-69984D03*
X71000Y-69984D03*
G54D11*
X75050Y-66918D03*
G54D12*
X75050Y-65918D03*
X76050Y-66918D03*
X76050Y-65918D03*
X77050Y-66918D03*
X77050Y-65918D03*
X78050Y-66918D03*
X78050Y-65918D03*
X79050Y-66918D03*
X79050Y-65918D03*
G54D11*
X72300Y-68218D03*
G54D16*
X83050Y-73568D03*
X84750Y-73568D03*
G54D17*
X73076Y-74309D03*
X76225Y-74309D03*
G54D13*
X80500Y-73493D03*
X84975Y-65568D03*
G54D11*
X61110Y-70494D03*
G54D12*
X62110Y-70494D03*
X63110Y-70494D03*
X64110Y-70494D03*
G54D11*
X58869Y-71062D03*
G54D12*
X58869Y-72062D03*
G54D14*
X57894Y-69887D03*
G54D15*
X58894Y-69887D03*
G54D13*
X52519Y-69987D03*
X57244Y-72937D03*
G54D18*
X85750Y-58584D03*
X85750Y-57206D03*
G54D19*
X85750Y-37915D03*
G54D18*
X85750Y-39293D03*
X85750Y-40671D03*
X85750Y-42049D03*
X85750Y-43427D03*
X85750Y-44805D03*
X85750Y-46183D03*
X85750Y-47561D03*
X85750Y-48938D03*
X85750Y-50316D03*
X85750Y-51694D03*
X85750Y-53072D03*
X85750Y-54450D03*
X85750Y-55828D03*
G54D11*
X70000Y-49984D03*
G54D12*
X71000Y-49984D03*
X70000Y-50984D03*
X71000Y-50984D03*
X70000Y-51984D03*
X71000Y-51984D03*
X70000Y-52984D03*
X71000Y-52984D03*
X70000Y-53984D03*
X71000Y-53984D03*
X70000Y-54984D03*
X71000Y-54984D03*
X70000Y-55984D03*
X71000Y-55984D03*
X70000Y-56984D03*
X71000Y-56984D03*
X70000Y-57984D03*
X71000Y-57984D03*
X70000Y-58984D03*
X71000Y-58984D03*
G54D14*
X81475Y-53100D03*
G54D15*
X81475Y-54100D03*
G54D14*
X81475Y-44100D03*
G54D15*
X81475Y-45100D03*
G54D14*
X82475Y-52850D03*
G54D15*
X82475Y-51850D03*
G54D14*
X82475Y-43850D03*
G54D15*
X82475Y-42850D03*
G54D14*
X81525Y-50050D03*
G54D15*
X81525Y-51050D03*
G54D14*
X82475Y-39850D03*
G54D15*
X82475Y-40850D03*
G54D20*
X79425Y-37775D03*
G54D21*
X77425Y-37775D03*
X75425Y-37775D03*
G54D14*
X82475Y-46850D03*
G54D15*
X82475Y-45850D03*
G54D14*
X82475Y-55850D03*
G54D15*
X82475Y-54850D03*
G54D14*
X81525Y-47050D03*
G54D15*
X81525Y-48050D03*
G54D14*
X81475Y-56100D03*
G54D15*
X81475Y-57100D03*
G54D14*
X82475Y-49850D03*
G54D15*
X82475Y-48850D03*
G54D14*
X82475Y-58850D03*
G54D15*
X82475Y-57850D03*
G54D14*
X81525Y-39750D03*
G54D15*
X81500Y-38750D03*
G54D14*
X82475Y-41850D03*
G54D15*
X81475Y-41850D03*
G54D22*
X69500Y-53500D03*
X71500Y-52500D03*
G54D14*
X76000Y-60250D03*
G54D15*
X75000Y-60250D03*
G54D19*
X86000Y-60000D03*
G54D18*
X86000Y-61000D03*
X86000Y-62000D03*
X86000Y-63000D03*
X86000Y-64000D03*
X86000Y-65000D03*
G54D17*
X59972Y-63532D03*
X55860Y-69994D03*
X58360Y-68994D03*
X60360Y-67244D03*
X62450Y-49400D03*
X61100Y-40800D03*
X51972Y-47476D03*
X64400Y-55950D03*
X54358Y-55964D03*
X59100Y-55950D03*
X51600Y-45200D03*
X56696Y-44031D03*
X55450Y-42950D03*
X73200Y-69368D03*
X80550Y-66418D03*
X85700Y-68718D03*
X86000Y-69868D03*
X76900Y-72068D03*
X65000Y-42700D03*
X65000Y-44650D03*
X65600Y-39250D03*
X65600Y-46400D03*
X64300Y-45850D03*
X64500Y-39100D03*
X50100Y-43150D03*
X53000Y-47850D03*
X59150Y-42700D03*
X57389Y-42633D03*
X58700Y-42850D03*
X60500Y-42850D03*
X60100Y-40900D03*
X60850Y-43850D03*
X58950Y-39475D03*
X51800Y-55200D03*
X61250Y-60950D03*
X49500Y-60700D03*
X51600Y-61350D03*
X56900Y-59100D03*
X59610Y-58255D03*
X62000Y-61400D03*
X51700Y-55750D03*
X74250Y-69068D03*
X77700Y-68018D03*
X74950Y-70618D03*
X74100Y-70618D03*
X79900Y-68568D03*
X74700Y-71768D03*
X84425Y-70368D03*
X84950Y-66818D03*
X82700Y-66218D03*
X76050Y-71418D03*
X77450Y-71468D03*
X73950Y-64600D03*
X73050Y-63700D03*
X76650Y-59750D03*
X51500Y-60300D03*
X52000Y-57700D03*
X51650Y-59850D03*
X51800Y-57050D03*
X61850Y-51700D03*
X63377Y-46173D03*
X61450Y-45500D03*
X63400Y-44450D03*
X59600Y-47350D03*
X59200Y-51100D03*
X66200Y-57550D03*
X64750Y-59950D03*
X66350Y-50000D03*
X66100Y-56250D03*
X57250Y-51300D03*
X58600Y-46000D03*
X65000Y-58050D03*
X63700Y-59950D03*
X53496Y-51015D03*
X54633Y-53413D03*
X53964Y-54220D03*
X54850Y-49300D03*
X60700Y-55300D03*
X59700Y-49250D03*
X58150Y-50950D03*
X59950Y-53750D03*
X59550Y-59950D03*
X60650Y-58150D03*
X85200Y-75268D03*
X85200Y-74718D03*
X81700Y-74168D03*
X82500Y-74168D03*
X82600Y-74718D03*
X82600Y-75268D03*
X82600Y-72568D03*
X85200Y-72568D03*
X85250Y-73218D03*
X85950Y-74168D03*
X85300Y-74168D03*
X85950Y-73218D03*
X82550Y-73168D03*
X81650Y-73168D03*
X64075Y-58625D03*
X62384Y-46725D03*
X63700Y-44800D03*
X51400Y-43100D03*
X53400Y-46000D03*
X53550Y-49100D03*
X52800Y-51100D03*
X58200Y-49200D03*
X53250Y-60000D03*
X63250Y-40800D03*
X64050Y-53000D03*
X63800Y-49050D03*
X65650Y-53250D03*
X60300Y-53050D03*
X57900Y-53750D03*
X53150Y-53600D03*
X55450Y-52950D03*
X53850Y-57900D03*
X72400Y-74618D03*
X77600Y-74618D03*
X77600Y-73618D03*
X71850Y-70668D03*
X77300Y-70168D03*
X77700Y-70568D03*
X71800Y-74618D03*
X72400Y-74118D03*
X77600Y-74118D03*
X78300Y-74618D03*
X83875Y-73668D03*
X77100Y-73318D03*
X78400Y-72718D03*
X73150Y-67818D03*
X72500Y-65668D03*
X72450Y-66418D03*
X76150Y-68093D03*
X80450Y-69018D03*
X82700Y-69018D03*
X60610Y-66494D03*
X60860Y-64494D03*
X63110Y-65494D03*
X62110Y-66244D03*
X54069Y-69712D03*
X56944Y-72037D03*
X57794Y-70512D03*
X54294Y-71887D03*
G54D16*
X79000Y-38750D03*
X79750Y-38750D03*
X80500Y-38750D03*
X78500Y-38250D03*
X78500Y-37500D03*
X78250Y-36750D03*
X79000Y-36750D03*
X79750Y-36750D03*
X81500Y-37000D03*
X80500Y-37000D03*
X80500Y-38000D03*
X81000Y-37500D03*
X81500Y-38000D03*
X82500Y-39000D03*
X83250Y-39000D03*
X86000Y-36750D03*
X84500Y-36750D03*
X85250Y-37000D03*
X84750Y-37500D03*
X84750Y-38250D03*
X84250Y-38750D03*
X85250Y-38750D03*
X84750Y-39250D03*
X83750Y-39250D03*
X84250Y-39750D03*
X83250Y-39750D03*
X83750Y-40250D03*
X83250Y-40750D03*
X83200Y-43600D03*
X83000Y-47400D03*
X83400Y-47000D03*
X83800Y-46600D03*
X84200Y-46200D03*
X84600Y-45800D03*
X85000Y-45400D03*
X83600Y-50200D03*
X83600Y-49600D03*
X84200Y-49600D03*
X83000Y-50400D03*
X84600Y-55800D03*
X84000Y-55800D03*
X83400Y-55800D03*
X83800Y-56400D03*
X83200Y-56400D03*
X83200Y-58600D03*
X83600Y-59000D03*
X84000Y-58600D03*
X84400Y-59000D03*
X84800Y-58600D03*
X85200Y-59000D03*
X86200Y-59000D03*
X86200Y-58000D03*
X84600Y-53400D03*
X84000Y-53400D03*
X83400Y-53200D03*
X83600Y-52600D03*
X84200Y-52800D03*
X84600Y-52400D03*
X85000Y-52800D03*
X85200Y-52200D03*
X86200Y-52200D03*
X75500Y-58500D03*
X76000Y-58500D03*
X76500Y-58500D03*
X77000Y-58500D03*
X77750Y-59000D03*
X77250Y-59000D03*
X76750Y-59000D03*
X76250Y-59000D03*
X75750Y-59000D03*
X75250Y-59000D03*
X74750Y-59000D03*
X69250Y-58500D03*
X75000Y-58250D03*
X73750Y-58500D03*
X73500Y-40250D03*
X74250Y-39500D03*
X74750Y-39500D03*
X72500Y-39250D03*
X76750Y-44250D03*
X77250Y-44250D03*
X77500Y-44750D03*
X77000Y-44750D03*
X77750Y-44250D03*
X77750Y-47250D03*
X77500Y-47750D03*
X77250Y-47250D03*
X77250Y-50250D03*
X77500Y-50750D03*
X77750Y-50250D03*
X77250Y-53250D03*
X77500Y-53750D03*
X77750Y-53250D03*
X77750Y-56250D03*
X77500Y-56750D03*
X77250Y-56250D03*
X78250Y-57250D03*
X78750Y-57500D03*
X78250Y-54250D03*
X78750Y-54500D03*
X78250Y-51250D03*
X78750Y-51500D03*
X78250Y-48250D03*
X78750Y-48500D03*
X78250Y-45250D03*
X78750Y-45500D03*
X78250Y-42250D03*
X78750Y-42500D03*
X80750Y-56500D03*
X80250Y-56750D03*
X80750Y-57000D03*
X80750Y-57500D03*
X80250Y-57250D03*
X79250Y-57250D03*
X79750Y-57500D03*
X75750Y-56250D03*
X76000Y-56750D03*
X76250Y-56250D03*
X76500Y-56750D03*
X76750Y-56250D03*
X77000Y-56750D03*
X80750Y-53500D03*
X79250Y-54250D03*
X79750Y-54500D03*
X80250Y-54250D03*
X80750Y-54000D03*
X80250Y-53750D03*
X77000Y-53750D03*
X76750Y-53250D03*
X76250Y-53250D03*
X76500Y-53750D03*
X75750Y-53250D03*
X76000Y-53750D03*
X80750Y-50500D03*
X79250Y-51250D03*
X79750Y-51500D03*
X80250Y-51250D03*
X80750Y-51000D03*
X80250Y-50750D03*
X77000Y-50750D03*
X76750Y-50250D03*
X76250Y-50250D03*
X76500Y-50750D03*
X75750Y-50250D03*
X76000Y-50750D03*
X80750Y-47500D03*
X80250Y-47750D03*
X80750Y-48000D03*
X80250Y-48250D03*
X79250Y-48250D03*
X79750Y-48500D03*
X77000Y-47750D03*
X76750Y-47250D03*
X76250Y-47250D03*
X76500Y-47750D03*
X75750Y-47250D03*
X76000Y-47750D03*
X80750Y-44500D03*
X80250Y-44750D03*
X80750Y-45000D03*
X80250Y-45250D03*
X79250Y-45250D03*
X79750Y-45500D03*
X76250Y-44250D03*
X76500Y-44750D03*
X75750Y-44250D03*
X76000Y-44750D03*
X80250Y-41000D03*
X80250Y-40500D03*
X80750Y-40750D03*
X80250Y-41500D03*
X80750Y-41750D03*
X80250Y-42000D03*
X79250Y-42250D03*
X79750Y-42500D03*
X75500Y-40000D03*
X75250Y-39500D03*
X75750Y-39500D03*
X76250Y-39500D03*
X76750Y-39500D03*
X77250Y-39500D03*
X77500Y-40000D03*
X77000Y-40000D03*
X76500Y-40000D03*
X76000Y-40000D03*
X78250Y-41000D03*
X78250Y-40500D03*
X77750Y-40750D03*
X77750Y-41250D03*
X76750Y-41250D03*
X77250Y-41250D03*
X77500Y-41750D03*
X76000Y-41750D03*
X76500Y-41750D03*
X77000Y-41750D03*
X76250Y-41250D03*
X75750Y-41250D03*
G54D17*
X72500Y-61500D03*
X77750Y-63000D03*
X77750Y-61500D03*
X84750Y-63250D03*
X84750Y-60250D03*
X84700Y-64500D03*
X84750Y-61500D03*
X78850Y-60900D03*
X78850Y-63850D03*
X72850Y-62400D03*
X76300Y-64300D03*
G54D23*
X61300Y-50550D02*
X61300Y-55950D01*
X62450Y-49400D02*
X61300Y-50550D01*
X60218Y-44031D02*
X60531Y-44031D01*
X61100Y-40800D02*
X61100Y-43150D01*
X60218Y-44031D02*
X56696Y-44031D01*
X61250Y-43300D02*
X61100Y-43150D01*
X61250Y-44000D02*
X61250Y-43300D01*
X61050Y-44200D02*
X61250Y-44000D01*
X60700Y-44200D02*
X61050Y-44200D01*
X60531Y-44031D02*
X60700Y-44200D01*
X51600Y-45200D02*
X51600Y-47103D01*
X51600Y-47103D02*
X51972Y-47476D01*
X59100Y-55950D02*
X61300Y-55950D01*
X61300Y-55950D02*
X64400Y-55950D01*
X54358Y-55964D02*
X59085Y-55964D01*
X59085Y-55964D02*
X59100Y-55950D01*
X59350Y-37900D02*
X59100Y-37900D01*
X59400Y-37900D02*
X59350Y-37900D01*
X60100Y-37900D02*
X59400Y-37900D01*
X61100Y-37900D02*
X61100Y-40800D01*
X61100Y-37900D02*
X60100Y-37900D01*
X55450Y-42950D02*
X51600Y-45200D01*
X56696Y-44031D02*
X55450Y-42950D01*
X76050Y-65918D02*
X75850Y-65918D01*
X77550Y-65768D02*
X77550Y-65668D01*
X77550Y-65668D02*
X77800Y-65418D01*
X77050Y-66918D02*
X77050Y-66868D01*
X77550Y-66368D02*
X77550Y-65768D01*
X77550Y-65768D02*
X77550Y-65748D01*
X77050Y-66868D02*
X77550Y-66368D01*
X75500Y-67518D02*
X74650Y-67518D01*
X76950Y-65918D02*
X76450Y-66418D01*
X76450Y-66418D02*
X75800Y-66418D01*
X75800Y-66418D02*
X75500Y-66718D01*
X75500Y-66718D02*
X75500Y-67518D01*
X76950Y-65918D02*
X77050Y-65918D01*
X73200Y-68968D02*
X73200Y-69368D01*
X74650Y-67518D02*
X73200Y-68968D01*
X81065Y-66753D02*
X83784Y-66753D01*
X83784Y-66753D02*
X85000Y-68118D01*
X80550Y-66418D02*
X80430Y-66418D01*
X80730Y-66568D02*
X81065Y-66753D01*
X80580Y-66568D02*
X80730Y-66568D01*
X80430Y-66418D02*
X80580Y-66568D01*
X81065Y-66753D02*
X81080Y-66768D01*
X79050Y-65918D02*
X79800Y-65918D01*
X83650Y-67018D02*
X80975Y-67018D01*
X83650Y-67018D02*
X85300Y-68718D01*
X85300Y-68718D02*
X85700Y-68718D01*
X80975Y-67018D02*
X80675Y-66768D01*
X80350Y-66768D02*
X80675Y-66768D01*
X80100Y-66518D02*
X80350Y-66768D01*
X80100Y-66218D02*
X80100Y-66518D01*
X79800Y-65918D02*
X80100Y-66218D01*
X85200Y-69818D02*
X85950Y-69818D01*
X82850Y-68168D02*
X84645Y-69818D01*
X84645Y-69818D02*
X85200Y-69818D01*
X75300Y-70668D02*
X75300Y-70518D01*
X78180Y-68168D02*
X81100Y-68168D01*
X77880Y-68368D02*
X78180Y-68168D01*
X77450Y-68368D02*
X77880Y-68368D01*
X75300Y-70518D02*
X77450Y-68368D01*
X81100Y-68168D02*
X82850Y-68168D01*
X85950Y-69818D02*
X86000Y-69868D01*
X75300Y-70668D02*
X75300Y-70651D01*
X65000Y-44650D02*
X65000Y-42700D01*
X65600Y-39250D02*
X65600Y-46400D01*
X64300Y-45850D02*
X64300Y-39300D01*
X64300Y-39300D02*
X64500Y-39100D01*
X50100Y-43150D02*
X48825Y-43150D01*
X51850Y-47850D02*
X51250Y-47250D01*
X51250Y-47250D02*
X51250Y-43800D01*
X48825Y-41150D02*
X51250Y-43800D01*
X53000Y-47850D02*
X51850Y-47850D01*
X48825Y-40150D02*
X48925Y-40150D01*
X56533Y-42633D02*
X57389Y-42633D01*
X50675Y-41275D02*
X55350Y-41450D01*
X55350Y-41450D02*
X56533Y-42633D01*
X50400Y-40775D02*
X50675Y-41300D01*
X48925Y-40150D02*
X50400Y-40775D01*
X59150Y-42700D02*
X59100Y-42700D01*
X57523Y-42500D02*
X57389Y-42633D01*
X58900Y-42500D02*
X57523Y-42500D01*
X59100Y-42700D02*
X58900Y-42500D01*
X50250Y-41700D02*
X49825Y-40925D01*
X57750Y-42850D02*
X57600Y-43000D01*
X57600Y-43000D02*
X56600Y-43000D01*
X56600Y-43000D02*
X55300Y-41700D01*
X55300Y-41700D02*
X50250Y-41700D01*
X58700Y-42850D02*
X57750Y-42850D01*
X48325Y-39650D02*
X48825Y-39150D01*
X48325Y-40500D02*
X48325Y-39650D01*
X48450Y-40625D02*
X48325Y-40500D01*
X49100Y-40625D02*
X48450Y-40625D01*
X49400Y-40925D02*
X49100Y-40625D01*
X49825Y-40925D02*
X49400Y-40925D01*
X60500Y-41300D02*
X60500Y-42850D01*
X60100Y-40900D02*
X60500Y-41300D01*
X58950Y-39475D02*
X58950Y-42150D01*
X58950Y-42150D02*
X59150Y-42350D01*
X59150Y-42350D02*
X59350Y-42350D01*
X60850Y-43850D02*
X59350Y-42350D01*
X52100Y-55500D02*
X51800Y-55200D01*
X52100Y-55700D02*
X52100Y-55500D01*
X53450Y-57050D02*
X52100Y-55700D01*
X54250Y-57050D02*
X53450Y-57050D01*
X55672Y-58472D02*
X54250Y-57050D01*
X57272Y-58472D02*
X55672Y-58472D01*
X59950Y-61150D02*
X57272Y-58472D01*
X61050Y-61150D02*
X59950Y-61150D01*
X61250Y-60950D02*
X61050Y-61150D01*
X62500Y-38600D02*
X63100Y-38600D01*
X65400Y-37650D02*
X65400Y-38000D01*
X65250Y-37500D02*
X65400Y-37650D01*
X63600Y-37500D02*
X65250Y-37500D01*
X63300Y-37800D02*
X63600Y-37500D01*
X63300Y-38400D02*
X63300Y-37800D01*
X63100Y-38600D02*
X63300Y-38400D01*
X51600Y-54000D02*
X51000Y-54000D01*
X52000Y-53600D02*
X51600Y-54000D01*
X52000Y-50030D02*
X52000Y-53600D01*
X57380Y-44650D02*
X52000Y-50030D01*
X61300Y-44650D02*
X57380Y-44650D01*
X61700Y-44250D02*
X61300Y-44650D01*
X61700Y-39400D02*
X61700Y-44250D01*
X62500Y-38600D02*
X61700Y-39400D01*
X61500Y-39950D02*
X61500Y-39300D01*
X50100Y-53000D02*
X50600Y-52500D01*
X50600Y-52500D02*
X51200Y-52500D01*
X51200Y-52500D02*
X51800Y-51900D01*
X51800Y-51900D02*
X51800Y-49950D01*
X51800Y-49950D02*
X57300Y-44450D01*
X57300Y-44450D02*
X61200Y-44450D01*
X61200Y-44450D02*
X61500Y-44150D01*
X61500Y-44150D02*
X61500Y-39950D01*
X50000Y-53000D02*
X50100Y-53000D01*
X61500Y-39300D02*
X62800Y-38000D01*
X50000Y-53000D02*
X50000Y-52850D01*
X49500Y-60700D02*
X49500Y-61500D01*
X49500Y-61500D02*
X51300Y-61500D01*
X51300Y-61500D02*
X51600Y-61350D01*
X51647Y-61352D02*
X51602Y-61352D01*
X51602Y-61352D02*
X51600Y-61350D01*
X51000Y-56000D02*
X51000Y-56100D01*
X55500Y-59100D02*
X56900Y-59100D01*
X53950Y-57550D02*
X55500Y-59100D01*
X53200Y-57550D02*
X53950Y-57550D01*
X52350Y-56700D02*
X53200Y-57550D01*
X51600Y-56700D02*
X52350Y-56700D01*
X51000Y-56100D02*
X51600Y-56700D01*
X50000Y-55000D02*
X50150Y-55000D01*
X55755Y-58255D02*
X59610Y-58255D01*
X54350Y-56850D02*
X55755Y-58255D01*
X53600Y-56850D02*
X54350Y-56850D01*
X52350Y-55600D02*
X53600Y-56850D01*
X52350Y-55150D02*
X52350Y-55600D01*
X51700Y-54500D02*
X52350Y-55150D01*
X50650Y-54500D02*
X51700Y-54500D01*
X50150Y-55000D02*
X50650Y-54500D01*
X59900Y-61400D02*
X62000Y-61400D01*
X57200Y-58700D02*
X59900Y-61400D01*
X55600Y-58700D02*
X57200Y-58700D01*
X54150Y-57250D02*
X55600Y-58700D01*
X53300Y-57250D02*
X54150Y-57250D01*
X52450Y-56400D02*
X53300Y-57250D01*
X52350Y-56400D02*
X52450Y-56400D01*
X51700Y-55750D02*
X52350Y-56400D01*
X50000Y-57000D02*
X49350Y-57000D01*
X49350Y-57000D02*
X48225Y-57000D01*
X51000Y-69984D02*
X50966Y-69984D01*
X48875Y-72075D02*
X48000Y-72950D01*
X48875Y-70750D02*
X48875Y-72075D01*
X49100Y-70525D02*
X48875Y-70750D01*
X50425Y-70525D02*
X49100Y-70525D01*
X50966Y-69984D02*
X50425Y-70525D01*
X51000Y-68984D02*
X50941Y-68984D01*
X48500Y-71450D02*
X47950Y-72000D01*
X48500Y-69450D02*
X48500Y-71450D01*
X48525Y-69425D02*
X48500Y-69450D01*
X50500Y-69425D02*
X48525Y-69425D01*
X50941Y-68984D02*
X50500Y-69425D01*
X78050Y-66918D02*
X78150Y-66918D01*
X78050Y-66918D02*
X78050Y-67118D01*
X75800Y-69068D02*
X74250Y-69068D01*
X77500Y-67368D02*
X75800Y-69068D01*
X77800Y-67368D02*
X77500Y-67368D01*
X78050Y-67118D02*
X77800Y-67368D01*
X74950Y-70618D02*
X74950Y-70568D01*
X77500Y-68018D02*
X77700Y-68018D01*
X74950Y-70568D02*
X77500Y-68018D01*
X77850Y-67868D02*
X77700Y-68018D01*
X74650Y-70618D02*
X74250Y-71018D01*
X74250Y-71018D02*
X73750Y-71018D01*
X73750Y-71018D02*
X72850Y-70118D01*
X72850Y-70118D02*
X71800Y-70118D01*
X74950Y-70618D02*
X74650Y-70618D01*
X74950Y-70618D02*
X75000Y-70618D01*
X79050Y-67428D02*
X79050Y-67468D01*
X74100Y-70618D02*
X74250Y-70618D01*
X79050Y-67468D02*
X79050Y-66918D01*
X78900Y-67618D02*
X79050Y-67468D01*
X77600Y-67618D02*
X78900Y-67618D01*
X74950Y-70268D02*
X77600Y-67618D01*
X74600Y-70268D02*
X74950Y-70268D01*
X74250Y-70618D02*
X74600Y-70268D01*
X79050Y-66918D02*
X79045Y-66918D01*
X73650Y-70618D02*
X74100Y-70618D01*
X72950Y-69918D02*
X73650Y-70618D01*
X74700Y-71768D02*
X74700Y-71718D01*
X78550Y-68568D02*
X79900Y-68568D01*
X77550Y-68568D02*
X78550Y-68568D01*
X75600Y-70518D02*
X77550Y-68568D01*
X75600Y-70818D02*
X75600Y-70518D01*
X74700Y-71718D02*
X75600Y-70818D01*
X80250Y-68568D02*
X82650Y-68568D01*
X79900Y-68568D02*
X79900Y-68548D01*
X79900Y-68548D02*
X80250Y-68568D01*
X82650Y-68568D02*
X83570Y-69097D01*
X84425Y-70368D02*
X84425Y-71868D01*
X82700Y-66218D02*
X83900Y-66218D01*
X84400Y-66818D02*
X84950Y-66818D01*
X84150Y-66568D02*
X84400Y-66818D01*
X84150Y-66468D02*
X84150Y-66568D01*
X83900Y-66218D02*
X84150Y-66468D01*
X78200Y-71868D02*
X77850Y-71868D01*
X77850Y-71868D02*
X77450Y-71468D01*
X84425Y-71868D02*
X78200Y-71868D01*
X73050Y-63700D02*
X73950Y-64600D01*
X75050Y-60250D02*
X75000Y-60250D01*
X75550Y-59750D02*
X75050Y-60250D01*
X76650Y-59750D02*
X75550Y-59750D01*
X51995Y-60254D02*
X51500Y-60300D01*
X52000Y-57700D02*
X51995Y-60254D01*
X51650Y-59850D02*
X51650Y-57450D01*
X51650Y-57450D02*
X51800Y-57050D01*
X63377Y-50185D02*
X61850Y-51700D01*
X63377Y-46173D02*
X63377Y-50185D01*
X63200Y-44650D02*
X61450Y-45500D01*
X63400Y-44450D02*
X63200Y-44650D01*
X59200Y-47750D02*
X59200Y-51100D01*
X59600Y-47350D02*
X59200Y-47750D01*
X66200Y-58500D02*
X66200Y-57550D01*
X64750Y-59950D02*
X66200Y-58500D01*
X66350Y-56000D02*
X66350Y-50000D01*
X66100Y-56250D02*
X66350Y-56000D01*
X58600Y-49950D02*
X57250Y-51300D01*
X58600Y-46000D02*
X58600Y-49950D01*
X63800Y-38000D02*
X63800Y-39300D01*
X65000Y-47200D02*
X65000Y-58050D01*
X63950Y-46150D02*
X65000Y-47200D01*
X63950Y-45550D02*
X63950Y-46150D01*
X64100Y-45400D02*
X63950Y-45550D01*
X64100Y-39600D02*
X64100Y-45400D01*
X63800Y-39300D02*
X64100Y-39600D01*
X66400Y-38000D02*
X66400Y-39100D01*
X64150Y-59950D02*
X63700Y-59950D01*
X64700Y-59400D02*
X64150Y-59950D01*
X64850Y-59400D02*
X64700Y-59400D01*
X65550Y-58700D02*
X64850Y-59400D01*
X65550Y-56250D02*
X65550Y-58700D01*
X66100Y-55700D02*
X65550Y-56250D01*
X66100Y-50750D02*
X66100Y-55700D01*
X65850Y-50500D02*
X66100Y-50750D01*
X65850Y-49250D02*
X65850Y-50500D01*
X66100Y-49000D02*
X65850Y-49250D01*
X66100Y-46300D02*
X66100Y-49000D01*
X65850Y-46050D02*
X66100Y-46300D01*
X65850Y-39650D02*
X65850Y-46050D01*
X66400Y-39100D02*
X65850Y-39650D01*
X54633Y-53413D02*
X53863Y-53413D01*
X53496Y-51015D02*
X53496Y-52275D01*
X53500Y-52279D02*
X53496Y-52275D01*
X53500Y-53050D02*
X53500Y-52279D01*
X53863Y-53413D02*
X53500Y-53050D01*
X54850Y-52550D02*
X54850Y-52850D01*
X55000Y-53250D02*
X55000Y-53750D01*
X55000Y-53750D02*
X54529Y-54220D01*
X54529Y-54220D02*
X53964Y-54220D01*
X54850Y-52550D02*
X54850Y-49300D01*
X55000Y-53000D02*
X55000Y-53250D01*
X54850Y-52850D02*
X55000Y-53000D01*
X60700Y-55300D02*
X60300Y-54900D01*
X60300Y-54900D02*
X60300Y-53600D01*
X60300Y-53600D02*
X59700Y-53000D01*
X59700Y-53000D02*
X59700Y-49250D01*
X58150Y-51950D02*
X58150Y-50950D01*
X59950Y-53750D02*
X58150Y-51950D01*
X59550Y-59250D02*
X59550Y-59950D01*
X60650Y-58150D02*
X59550Y-59250D01*
X62400Y-46700D02*
X62400Y-46709D01*
X62400Y-46709D02*
X62384Y-46725D01*
X50250Y-50000D02*
X50000Y-50000D01*
X50300Y-50000D02*
X50250Y-50000D01*
X51000Y-50000D02*
X50300Y-50000D01*
X49750Y-49870D02*
X50000Y-50000D01*
X48400Y-50025D02*
X50000Y-50025D01*
X48400Y-49225D02*
X48400Y-49000D01*
X48400Y-49275D02*
X48400Y-49225D01*
X48400Y-50000D02*
X48400Y-49275D01*
X77800Y-73318D02*
X77100Y-73318D01*
X78400Y-72718D02*
X77800Y-73318D01*
X73150Y-67818D02*
X73150Y-68493D01*
X72500Y-66368D02*
X72500Y-65668D01*
X72450Y-66418D02*
X72500Y-66368D01*
X74675Y-68093D02*
X76150Y-68093D01*
X73775Y-68993D02*
X74675Y-68093D01*
X73775Y-69418D02*
X73775Y-68993D01*
X73475Y-69718D02*
X73775Y-69418D01*
X73000Y-69718D02*
X73475Y-69718D01*
X72825Y-69543D02*
X73000Y-69718D01*
X72825Y-68818D02*
X72825Y-69543D01*
X73150Y-68493D02*
X72825Y-68818D01*
X80450Y-69018D02*
X82700Y-69018D01*
X56944Y-71362D02*
X56944Y-72037D01*
X57794Y-70512D02*
X56944Y-71362D01*
X80500Y-38750D02*
X79750Y-38750D01*
X78500Y-37500D02*
X78500Y-38250D01*
X79000Y-36750D02*
X78250Y-36750D01*
X81250Y-36750D02*
X79750Y-36750D01*
X81500Y-37000D02*
X81250Y-36750D01*
X80500Y-38000D02*
X80500Y-37000D01*
X81500Y-38000D02*
X81000Y-37500D01*
X83250Y-39000D02*
X82500Y-39000D01*
X82475Y-39850D02*
X82600Y-39850D01*
X84500Y-36750D02*
X86000Y-36750D01*
X84750Y-37500D02*
X85250Y-37000D01*
X84250Y-38750D02*
X84750Y-38250D01*
X84750Y-39250D02*
X85250Y-38750D01*
X84250Y-39750D02*
X83750Y-39250D01*
X83750Y-40250D02*
X83250Y-39750D01*
X83250Y-40500D02*
X83250Y-40750D01*
X82600Y-39850D02*
X83250Y-40500D01*
X82475Y-46850D02*
X82475Y-46875D01*
X82475Y-46875D02*
X83000Y-47400D01*
X83400Y-47000D02*
X83800Y-46600D01*
X84200Y-46200D02*
X84600Y-45800D01*
X82475Y-49850D02*
X82475Y-49875D01*
X84200Y-49600D02*
X83600Y-49600D01*
X82475Y-49875D02*
X83000Y-50400D01*
X82475Y-55850D02*
X82650Y-55850D01*
X84000Y-55800D02*
X84600Y-55800D01*
X83400Y-56000D02*
X83400Y-55800D01*
X83800Y-56400D02*
X83400Y-56000D01*
X82650Y-55850D02*
X83200Y-56400D01*
X84000Y-58600D02*
X83600Y-59000D01*
X84800Y-58600D02*
X84400Y-59000D01*
X86200Y-59000D02*
X85200Y-59000D01*
X85750Y-58584D02*
X85750Y-58450D01*
X85750Y-58450D02*
X86200Y-58000D01*
X83600Y-53400D02*
X84000Y-53400D01*
X83400Y-53200D02*
X83600Y-53400D01*
X84000Y-52600D02*
X83600Y-52600D01*
X84200Y-52800D02*
X84000Y-52600D01*
X85000Y-52800D02*
X84600Y-52400D01*
X86200Y-52200D02*
X85200Y-52200D01*
X75000Y-58250D02*
X74750Y-58500D01*
X76000Y-58500D02*
X75500Y-58500D01*
X77000Y-58500D02*
X76500Y-58500D01*
X77250Y-59000D02*
X77750Y-59000D01*
X76250Y-59000D02*
X76750Y-59000D01*
X75250Y-59000D02*
X75750Y-59000D01*
X74750Y-58500D02*
X74750Y-59000D01*
X75000Y-58250D02*
X72750Y-58250D01*
X72500Y-58500D02*
X69250Y-58500D01*
X72750Y-58250D02*
X72500Y-58500D01*
X75000Y-58250D02*
X74000Y-58250D01*
X74000Y-58250D02*
X73750Y-58500D01*
X74750Y-39500D02*
X74250Y-39500D01*
X75250Y-39500D02*
X72750Y-39500D01*
X72750Y-39500D02*
X72500Y-39250D01*
X76750Y-44250D02*
X77250Y-44250D01*
X77000Y-44750D02*
X77500Y-44750D01*
X77500Y-47500D02*
X77500Y-47750D01*
X77500Y-47500D02*
X77250Y-47250D01*
X77500Y-50500D02*
X77250Y-50250D01*
X77500Y-50500D02*
X77500Y-50750D01*
X77500Y-53500D02*
X77250Y-53250D01*
X77500Y-53500D02*
X77500Y-53750D01*
X77500Y-56500D02*
X77500Y-56750D01*
X77500Y-56500D02*
X77250Y-56250D01*
X78500Y-57250D02*
X78250Y-57250D01*
X78750Y-57500D02*
X78500Y-57250D01*
X78500Y-54250D02*
X78250Y-54250D01*
X78750Y-54500D02*
X78500Y-54250D01*
X78500Y-51250D02*
X78250Y-51250D01*
X78750Y-51500D02*
X78500Y-51250D01*
X78500Y-48250D02*
X78250Y-48250D01*
X78750Y-48500D02*
X78500Y-48250D01*
X78500Y-45250D02*
X78250Y-45250D01*
X78750Y-45500D02*
X78500Y-45250D01*
X78500Y-42250D02*
X78250Y-42250D01*
X78750Y-42500D02*
X78500Y-42250D01*
X80500Y-56750D02*
X80250Y-56750D01*
X80750Y-57000D02*
X80500Y-56750D01*
X80500Y-57500D02*
X80750Y-57500D01*
X80250Y-57250D02*
X80500Y-57500D01*
X79500Y-57500D02*
X79750Y-57500D01*
X79250Y-57250D02*
X79500Y-57500D01*
X75750Y-56250D02*
X76000Y-56500D01*
X76000Y-56500D02*
X76000Y-56750D01*
X76250Y-56250D02*
X76500Y-56500D01*
X76500Y-56500D02*
X76500Y-56750D01*
X76750Y-56250D02*
X77000Y-56500D01*
X77000Y-56500D02*
X77000Y-56750D01*
X79250Y-54250D02*
X79500Y-54500D01*
X79500Y-54500D02*
X79750Y-54500D01*
X80250Y-54250D02*
X80500Y-54000D01*
X80500Y-54000D02*
X80750Y-54000D01*
X80250Y-53750D02*
X80500Y-53500D01*
X80500Y-53500D02*
X80750Y-53500D01*
X77000Y-53500D02*
X77000Y-53750D01*
X76750Y-53250D02*
X77000Y-53500D01*
X76250Y-53250D02*
X76500Y-53500D01*
X76500Y-53500D02*
X76500Y-53750D01*
X75750Y-53250D02*
X76000Y-53500D01*
X76000Y-53500D02*
X76000Y-53750D01*
X79250Y-51250D02*
X79500Y-51500D01*
X79500Y-51500D02*
X79750Y-51500D01*
X80250Y-51250D02*
X80500Y-51000D01*
X80500Y-51000D02*
X80750Y-51000D01*
X80250Y-50750D02*
X80500Y-50500D01*
X80500Y-50500D02*
X80750Y-50500D01*
X77000Y-50500D02*
X77000Y-50750D01*
X76750Y-50250D02*
X77000Y-50500D01*
X76250Y-50250D02*
X76500Y-50500D01*
X76500Y-50500D02*
X76500Y-50750D01*
X75750Y-50250D02*
X76000Y-50500D01*
X76000Y-50500D02*
X76000Y-50750D01*
X80500Y-47500D02*
X80750Y-47500D01*
X80250Y-47750D02*
X80500Y-47500D01*
X80500Y-48000D02*
X80750Y-48000D01*
X80250Y-48250D02*
X80500Y-48000D01*
X79500Y-48500D02*
X79750Y-48500D01*
X79250Y-48250D02*
X79500Y-48500D01*
X77000Y-47500D02*
X77000Y-47750D01*
X76750Y-47250D02*
X77000Y-47500D01*
X76250Y-47250D02*
X76500Y-47500D01*
X76500Y-47500D02*
X76500Y-47750D01*
X75750Y-47250D02*
X76000Y-47500D01*
X76000Y-47500D02*
X76000Y-47750D01*
X80500Y-44500D02*
X80750Y-44500D01*
X80250Y-44750D02*
X80500Y-44500D01*
X80500Y-45000D02*
X80750Y-45000D01*
X80250Y-45250D02*
X80500Y-45000D01*
X79500Y-45500D02*
X79750Y-45500D01*
X79250Y-45250D02*
X79500Y-45500D01*
X76250Y-44250D02*
X76500Y-44500D01*
X76500Y-44500D02*
X76500Y-44750D01*
X75750Y-44250D02*
X76000Y-44500D01*
X76000Y-44500D02*
X76000Y-44750D01*
X80250Y-41000D02*
X80250Y-41500D01*
X80500Y-40500D02*
X80250Y-40500D01*
X80750Y-40750D02*
X80500Y-40500D01*
X80500Y-41750D02*
X80750Y-41750D01*
X80250Y-42000D02*
X80500Y-41750D01*
X79500Y-42500D02*
X79750Y-42500D01*
X79250Y-42250D02*
X79500Y-42500D01*
X75500Y-39750D02*
X75500Y-40000D01*
X75250Y-39500D02*
X75500Y-39750D01*
X76250Y-39500D02*
X75750Y-39500D01*
X77250Y-39500D02*
X76750Y-39500D01*
X77000Y-40000D02*
X77500Y-40000D01*
X76000Y-40000D02*
X76500Y-40000D01*
X78250Y-40500D02*
X78250Y-41000D01*
X77750Y-41250D02*
X77750Y-40750D01*
X76750Y-41250D02*
X77250Y-41250D01*
X76000Y-41750D02*
X77500Y-41750D01*
X77000Y-41750D02*
X76500Y-41750D01*
X75750Y-41250D02*
X76250Y-41250D01*
G54D10*
G36*
X86444Y-75430D02*
X81075Y-75430D01*
X81075Y-71860D01*
X81006Y-71695D01*
X80880Y-71568D01*
X80714Y-71500D01*
X80535Y-71499D01*
X80370Y-71568D01*
X80243Y-71694D01*
X80175Y-71860D01*
X80174Y-72039D01*
X80243Y-72204D01*
X80369Y-72331D01*
X80535Y-72399D01*
X80714Y-72400D01*
X80879Y-72331D01*
X81006Y-72205D01*
X81074Y-72039D01*
X81075Y-71860D01*
X81075Y-75430D01*
X80075Y-75430D01*
X80075Y-72220D01*
X80075Y-71620D01*
X80052Y-71565D01*
X80010Y-71522D01*
X79954Y-71500D01*
X79895Y-71499D01*
X79295Y-71499D01*
X79240Y-71522D01*
X79197Y-71564D01*
X79175Y-71620D01*
X79174Y-71679D01*
X79174Y-72279D01*
X79197Y-72334D01*
X79239Y-72377D01*
X79295Y-72399D01*
X79354Y-72400D01*
X79954Y-72400D01*
X80009Y-72377D01*
X80052Y-72335D01*
X80074Y-72279D01*
X80075Y-72220D01*
X80075Y-75430D01*
X71455Y-75430D01*
X71455Y-74057D01*
X71450Y-73985D01*
X71450Y-72910D01*
X71450Y-71910D01*
X71450Y-70910D01*
X71450Y-59910D01*
X71381Y-59745D01*
X71255Y-59618D01*
X71089Y-59550D01*
X70910Y-59549D01*
X70745Y-59618D01*
X70618Y-59744D01*
X70550Y-59910D01*
X70549Y-60089D01*
X70618Y-60254D01*
X70744Y-60381D01*
X70910Y-60449D01*
X71089Y-60450D01*
X71254Y-60381D01*
X71381Y-60255D01*
X71449Y-60089D01*
X71450Y-59910D01*
X71450Y-70910D01*
X71381Y-70745D01*
X71255Y-70618D01*
X71089Y-70550D01*
X70910Y-70549D01*
X70745Y-70618D01*
X70618Y-70744D01*
X70550Y-70910D01*
X70549Y-71089D01*
X70618Y-71254D01*
X70744Y-71381D01*
X70910Y-71449D01*
X71089Y-71450D01*
X71254Y-71381D01*
X71381Y-71255D01*
X71449Y-71089D01*
X71450Y-70910D01*
X71450Y-71910D01*
X71381Y-71745D01*
X71255Y-71618D01*
X71089Y-71550D01*
X70910Y-71549D01*
X70745Y-71618D01*
X70618Y-71744D01*
X70550Y-71910D01*
X70549Y-72089D01*
X70618Y-72254D01*
X70744Y-72381D01*
X70910Y-72449D01*
X71089Y-72450D01*
X71254Y-72381D01*
X71381Y-72255D01*
X71449Y-72089D01*
X71450Y-71910D01*
X71450Y-72910D01*
X71381Y-72745D01*
X71255Y-72618D01*
X71089Y-72550D01*
X70910Y-72549D01*
X70745Y-72618D01*
X70618Y-72744D01*
X70550Y-72910D01*
X70549Y-73089D01*
X70618Y-73254D01*
X70744Y-73381D01*
X70910Y-73449D01*
X71089Y-73450D01*
X71254Y-73381D01*
X71381Y-73255D01*
X71449Y-73089D01*
X71450Y-72910D01*
X71450Y-73985D01*
X71442Y-73879D01*
X71398Y-73772D01*
X71331Y-73739D01*
X71260Y-73810D01*
X71260Y-73668D01*
X71227Y-73601D01*
X71057Y-73544D01*
X70879Y-73557D01*
X70772Y-73601D01*
X70739Y-73668D01*
X71000Y-73929D01*
X71260Y-73668D01*
X71260Y-73810D01*
X71070Y-74000D01*
X71331Y-74260D01*
X71398Y-74227D01*
X71455Y-74057D01*
X71455Y-75430D01*
X71260Y-75430D01*
X71260Y-74331D01*
X71000Y-74070D01*
X70929Y-74141D01*
X70929Y-74000D01*
X70668Y-73739D01*
X70601Y-73772D01*
X70544Y-73942D01*
X70557Y-74120D01*
X70601Y-74227D01*
X70668Y-74260D01*
X70929Y-74000D01*
X70929Y-74141D01*
X70739Y-74331D01*
X70772Y-74398D01*
X70942Y-74455D01*
X71120Y-74442D01*
X71227Y-74398D01*
X71260Y-74331D01*
X71260Y-75430D01*
X70455Y-75430D01*
X70455Y-74057D01*
X70450Y-73985D01*
X70450Y-72910D01*
X70450Y-71910D01*
X70450Y-71910D01*
X70450Y-71270D01*
X70450Y-70670D01*
X70450Y-60270D01*
X70450Y-59670D01*
X70427Y-59615D01*
X70385Y-59572D01*
X70329Y-59550D01*
X70270Y-59549D01*
X69670Y-59549D01*
X69615Y-59572D01*
X69572Y-59614D01*
X69550Y-59670D01*
X69549Y-59729D01*
X69549Y-60329D01*
X69572Y-60384D01*
X69614Y-60427D01*
X69670Y-60449D01*
X69729Y-60450D01*
X70329Y-60450D01*
X70384Y-60427D01*
X70427Y-60385D01*
X70449Y-60329D01*
X70450Y-60270D01*
X70450Y-70670D01*
X70427Y-70615D01*
X70385Y-70572D01*
X70329Y-70550D01*
X70270Y-70549D01*
X69670Y-70549D01*
X69615Y-70572D01*
X69572Y-70614D01*
X69550Y-70670D01*
X69549Y-70729D01*
X69549Y-71329D01*
X69572Y-71384D01*
X69614Y-71427D01*
X69670Y-71449D01*
X69729Y-71450D01*
X70329Y-71450D01*
X70384Y-71427D01*
X70427Y-71385D01*
X70449Y-71329D01*
X70450Y-71270D01*
X70450Y-71910D01*
X70381Y-71745D01*
X70255Y-71618D01*
X70089Y-71550D01*
X69910Y-71549D01*
X69745Y-71618D01*
X69618Y-71744D01*
X69550Y-71910D01*
X69549Y-72089D01*
X69618Y-72254D01*
X69744Y-72381D01*
X69910Y-72449D01*
X70089Y-72450D01*
X70254Y-72381D01*
X70381Y-72255D01*
X70449Y-72089D01*
X70450Y-71910D01*
X70450Y-72910D01*
X70381Y-72745D01*
X70255Y-72618D01*
X70089Y-72550D01*
X69910Y-72549D01*
X69745Y-72618D01*
X69618Y-72744D01*
X69550Y-72910D01*
X69549Y-73089D01*
X69618Y-73254D01*
X69744Y-73381D01*
X69910Y-73449D01*
X70089Y-73450D01*
X70254Y-73381D01*
X70381Y-73255D01*
X70449Y-73089D01*
X70450Y-72910D01*
X70450Y-73985D01*
X70442Y-73879D01*
X70398Y-73772D01*
X70331Y-73739D01*
X70260Y-73810D01*
X70260Y-73668D01*
X70227Y-73601D01*
X70057Y-73544D01*
X69879Y-73557D01*
X69772Y-73601D01*
X69739Y-73668D01*
X70000Y-73929D01*
X70260Y-73668D01*
X70260Y-73810D01*
X70070Y-74000D01*
X70331Y-74260D01*
X70398Y-74227D01*
X70455Y-74057D01*
X70455Y-75430D01*
X70260Y-75430D01*
X70260Y-74331D01*
X70000Y-74070D01*
X69929Y-74141D01*
X69929Y-74000D01*
X69668Y-73739D01*
X69601Y-73772D01*
X69544Y-73942D01*
X69557Y-74120D01*
X69601Y-74227D01*
X69668Y-74260D01*
X69929Y-74000D01*
X69929Y-74141D01*
X69739Y-74331D01*
X69772Y-74398D01*
X69942Y-74455D01*
X70120Y-74442D01*
X70227Y-74398D01*
X70260Y-74331D01*
X70260Y-75430D01*
X69275Y-75430D01*
X69275Y-73245D01*
X69275Y-72695D01*
X69275Y-71245D01*
X69275Y-70695D01*
X69252Y-70640D01*
X69210Y-70597D01*
X69154Y-70575D01*
X69095Y-70574D01*
X68545Y-70574D01*
X68490Y-70597D01*
X68447Y-70639D01*
X68425Y-70695D01*
X68424Y-70754D01*
X68424Y-71304D01*
X68447Y-71359D01*
X68489Y-71402D01*
X68545Y-71424D01*
X68604Y-71425D01*
X69154Y-71425D01*
X69209Y-71402D01*
X69252Y-71360D01*
X69274Y-71304D01*
X69275Y-71245D01*
X69275Y-72695D01*
X69252Y-72640D01*
X69210Y-72597D01*
X69154Y-72575D01*
X69095Y-72574D01*
X68545Y-72574D01*
X68490Y-72597D01*
X68447Y-72639D01*
X68425Y-72695D01*
X68424Y-72754D01*
X68424Y-73304D01*
X68447Y-73359D01*
X68489Y-73402D01*
X68545Y-73424D01*
X68604Y-73425D01*
X69154Y-73425D01*
X69209Y-73402D01*
X69252Y-73360D01*
X69274Y-73304D01*
X69275Y-73245D01*
X69275Y-75430D01*
X68275Y-75430D01*
X68275Y-72915D01*
X68275Y-70915D01*
X68210Y-70759D01*
X68091Y-70639D01*
X67934Y-70575D01*
X67765Y-70574D01*
X67609Y-70639D01*
X67489Y-70758D01*
X67425Y-70915D01*
X67424Y-71084D01*
X67489Y-71240D01*
X67608Y-71360D01*
X67765Y-71424D01*
X67934Y-71425D01*
X68090Y-71360D01*
X68210Y-71241D01*
X68274Y-71084D01*
X68275Y-70915D01*
X68275Y-72915D01*
X68210Y-72759D01*
X68091Y-72639D01*
X67934Y-72575D01*
X67765Y-72574D01*
X67609Y-72639D01*
X67489Y-72758D01*
X67425Y-72915D01*
X67424Y-73084D01*
X67489Y-73240D01*
X67608Y-73360D01*
X67765Y-73424D01*
X67934Y-73425D01*
X68090Y-73360D01*
X68210Y-73241D01*
X68274Y-73084D01*
X68275Y-72915D01*
X68275Y-75430D01*
X53550Y-75430D01*
X53550Y-67220D01*
X53550Y-66670D01*
X53527Y-66615D01*
X53485Y-66572D01*
X53429Y-66550D01*
X53370Y-66549D01*
X52820Y-66549D01*
X52765Y-66572D01*
X52722Y-66614D01*
X52700Y-66670D01*
X52699Y-66729D01*
X52699Y-67279D01*
X52722Y-67334D01*
X52764Y-67377D01*
X52820Y-67399D01*
X52879Y-67400D01*
X53429Y-67400D01*
X53484Y-67377D01*
X53527Y-67335D01*
X53549Y-67279D01*
X53550Y-67220D01*
X53550Y-75430D01*
X52550Y-75430D01*
X52550Y-66890D01*
X52485Y-66734D01*
X52366Y-66614D01*
X52209Y-66550D01*
X52040Y-66549D01*
X51884Y-66614D01*
X51764Y-66733D01*
X51700Y-66890D01*
X51699Y-67059D01*
X51764Y-67215D01*
X51883Y-67335D01*
X52040Y-67399D01*
X52209Y-67400D01*
X52365Y-67335D01*
X52485Y-67216D01*
X52549Y-67059D01*
X52550Y-66890D01*
X52550Y-75430D01*
X51455Y-75430D01*
X51455Y-74041D01*
X51450Y-73969D01*
X51450Y-72894D01*
X51450Y-71894D01*
X51450Y-70894D01*
X51450Y-69894D01*
X51450Y-68894D01*
X51450Y-67894D01*
X51450Y-66894D01*
X51450Y-65894D01*
X51450Y-64894D01*
X51450Y-62910D01*
X51450Y-61910D01*
X51450Y-60910D01*
X51450Y-59910D01*
X51381Y-59745D01*
X51255Y-59618D01*
X51089Y-59550D01*
X50910Y-59549D01*
X50745Y-59618D01*
X50618Y-59744D01*
X50550Y-59910D01*
X50549Y-60089D01*
X50618Y-60254D01*
X50744Y-60381D01*
X50910Y-60449D01*
X51089Y-60450D01*
X51254Y-60381D01*
X51381Y-60255D01*
X51449Y-60089D01*
X51450Y-59910D01*
X51450Y-60910D01*
X51381Y-60745D01*
X51255Y-60618D01*
X51089Y-60550D01*
X50910Y-60549D01*
X50745Y-60618D01*
X50618Y-60744D01*
X50550Y-60910D01*
X50549Y-61089D01*
X50618Y-61254D01*
X50744Y-61381D01*
X50910Y-61449D01*
X51089Y-61450D01*
X51254Y-61381D01*
X51381Y-61255D01*
X51449Y-61089D01*
X51450Y-60910D01*
X51450Y-61910D01*
X51381Y-61745D01*
X51255Y-61618D01*
X51089Y-61550D01*
X50910Y-61549D01*
X50745Y-61618D01*
X50618Y-61744D01*
X50550Y-61910D01*
X50549Y-62089D01*
X50618Y-62254D01*
X50744Y-62381D01*
X50910Y-62449D01*
X51089Y-62450D01*
X51254Y-62381D01*
X51381Y-62255D01*
X51449Y-62089D01*
X51450Y-61910D01*
X51450Y-62910D01*
X51381Y-62745D01*
X51255Y-62618D01*
X51089Y-62550D01*
X50910Y-62549D01*
X50745Y-62618D01*
X50618Y-62744D01*
X50550Y-62910D01*
X50549Y-63089D01*
X50618Y-63254D01*
X50744Y-63381D01*
X50910Y-63449D01*
X51089Y-63450D01*
X51254Y-63381D01*
X51381Y-63255D01*
X51449Y-63089D01*
X51450Y-62910D01*
X51450Y-64894D01*
X51450Y-64894D01*
X51450Y-64270D01*
X51450Y-63670D01*
X51427Y-63615D01*
X51385Y-63572D01*
X51329Y-63550D01*
X51270Y-63549D01*
X50670Y-63549D01*
X50615Y-63572D01*
X50572Y-63614D01*
X50550Y-63670D01*
X50549Y-63729D01*
X50549Y-64329D01*
X50572Y-64384D01*
X50614Y-64427D01*
X50670Y-64449D01*
X50729Y-64450D01*
X51329Y-64450D01*
X51384Y-64427D01*
X51427Y-64385D01*
X51449Y-64329D01*
X51450Y-64270D01*
X51450Y-64894D01*
X51381Y-64729D01*
X51255Y-64602D01*
X51089Y-64534D01*
X50910Y-64533D01*
X50745Y-64602D01*
X50618Y-64728D01*
X50550Y-64894D01*
X50549Y-65073D01*
X50618Y-65238D01*
X50744Y-65365D01*
X50910Y-65433D01*
X51089Y-65434D01*
X51254Y-65365D01*
X51381Y-65239D01*
X51449Y-65073D01*
X51450Y-64894D01*
X51450Y-65894D01*
X51381Y-65729D01*
X51255Y-65602D01*
X51089Y-65534D01*
X50910Y-65533D01*
X50745Y-65602D01*
X50618Y-65728D01*
X50550Y-65894D01*
X50549Y-66073D01*
X50618Y-66238D01*
X50744Y-66365D01*
X50910Y-66433D01*
X51089Y-66434D01*
X51254Y-66365D01*
X51381Y-66239D01*
X51449Y-66073D01*
X51450Y-65894D01*
X51450Y-66894D01*
X51381Y-66729D01*
X51255Y-66602D01*
X51089Y-66534D01*
X50910Y-66533D01*
X50745Y-66602D01*
X50618Y-66728D01*
X50550Y-66894D01*
X50549Y-67073D01*
X50618Y-67238D01*
X50744Y-67365D01*
X50910Y-67433D01*
X51089Y-67434D01*
X51254Y-67365D01*
X51381Y-67239D01*
X51449Y-67073D01*
X51450Y-66894D01*
X51450Y-67894D01*
X51381Y-67729D01*
X51255Y-67602D01*
X51089Y-67534D01*
X50910Y-67533D01*
X50745Y-67602D01*
X50618Y-67728D01*
X50550Y-67894D01*
X50549Y-68073D01*
X50618Y-68238D01*
X50744Y-68365D01*
X50910Y-68433D01*
X51089Y-68434D01*
X51254Y-68365D01*
X51381Y-68239D01*
X51449Y-68073D01*
X51450Y-67894D01*
X51450Y-68894D01*
X51381Y-68729D01*
X51255Y-68602D01*
X51089Y-68534D01*
X50910Y-68533D01*
X50745Y-68602D01*
X50618Y-68728D01*
X50550Y-68894D01*
X50549Y-69073D01*
X50618Y-69238D01*
X50744Y-69365D01*
X50910Y-69433D01*
X51089Y-69434D01*
X51254Y-69365D01*
X51381Y-69239D01*
X51449Y-69073D01*
X51450Y-68894D01*
X51450Y-69894D01*
X51381Y-69729D01*
X51255Y-69602D01*
X51089Y-69534D01*
X50910Y-69533D01*
X50745Y-69602D01*
X50618Y-69728D01*
X50550Y-69894D01*
X50549Y-70073D01*
X50618Y-70238D01*
X50744Y-70365D01*
X50910Y-70433D01*
X51089Y-70434D01*
X51254Y-70365D01*
X51381Y-70239D01*
X51449Y-70073D01*
X51450Y-69894D01*
X51450Y-70894D01*
X51381Y-70729D01*
X51255Y-70602D01*
X51089Y-70534D01*
X50910Y-70533D01*
X50745Y-70602D01*
X50618Y-70728D01*
X50550Y-70894D01*
X50549Y-71073D01*
X50618Y-71238D01*
X50744Y-71365D01*
X50910Y-71433D01*
X51089Y-71434D01*
X51254Y-71365D01*
X51381Y-71239D01*
X51449Y-71073D01*
X51450Y-70894D01*
X51450Y-71894D01*
X51381Y-71729D01*
X51255Y-71602D01*
X51089Y-71534D01*
X50910Y-71533D01*
X50745Y-71602D01*
X50618Y-71728D01*
X50550Y-71894D01*
X50549Y-72073D01*
X50618Y-72238D01*
X50744Y-72365D01*
X50910Y-72433D01*
X51089Y-72434D01*
X51254Y-72365D01*
X51381Y-72239D01*
X51449Y-72073D01*
X51450Y-71894D01*
X51450Y-72894D01*
X51381Y-72729D01*
X51255Y-72602D01*
X51089Y-72534D01*
X50910Y-72533D01*
X50745Y-72602D01*
X50618Y-72728D01*
X50550Y-72894D01*
X50549Y-73073D01*
X50618Y-73238D01*
X50744Y-73365D01*
X50910Y-73433D01*
X51089Y-73434D01*
X51254Y-73365D01*
X51381Y-73239D01*
X51449Y-73073D01*
X51450Y-72894D01*
X51450Y-73969D01*
X51442Y-73863D01*
X51398Y-73756D01*
X51331Y-73723D01*
X51260Y-73794D01*
X51260Y-73652D01*
X51227Y-73585D01*
X51057Y-73528D01*
X50879Y-73541D01*
X50772Y-73585D01*
X50739Y-73652D01*
X51000Y-73913D01*
X51260Y-73652D01*
X51260Y-73794D01*
X51070Y-73984D01*
X51331Y-74244D01*
X51398Y-74211D01*
X51455Y-74041D01*
X51455Y-75430D01*
X51260Y-75430D01*
X51260Y-74315D01*
X51000Y-74054D01*
X50929Y-74125D01*
X50929Y-73984D01*
X50668Y-73723D01*
X50601Y-73756D01*
X50544Y-73926D01*
X50557Y-74104D01*
X50601Y-74211D01*
X50668Y-74244D01*
X50929Y-73984D01*
X50929Y-74125D01*
X50739Y-74315D01*
X50772Y-74382D01*
X50942Y-74439D01*
X51120Y-74426D01*
X51227Y-74382D01*
X51260Y-74315D01*
X51260Y-75430D01*
X50455Y-75430D01*
X50455Y-74041D01*
X50450Y-73969D01*
X50450Y-72894D01*
X50450Y-71894D01*
X50450Y-70894D01*
X50450Y-69894D01*
X50450Y-68894D01*
X50450Y-67894D01*
X50450Y-66894D01*
X50450Y-65894D01*
X50450Y-63910D01*
X50450Y-62910D01*
X50450Y-61910D01*
X50450Y-60910D01*
X50450Y-59910D01*
X50381Y-59745D01*
X50255Y-59618D01*
X50089Y-59550D01*
X49910Y-59549D01*
X49745Y-59618D01*
X49618Y-59744D01*
X49550Y-59910D01*
X49549Y-60089D01*
X49618Y-60254D01*
X49744Y-60381D01*
X49910Y-60449D01*
X50089Y-60450D01*
X50254Y-60381D01*
X50381Y-60255D01*
X50449Y-60089D01*
X50450Y-59910D01*
X50450Y-60910D01*
X50381Y-60745D01*
X50255Y-60618D01*
X50089Y-60550D01*
X49910Y-60549D01*
X49745Y-60618D01*
X49618Y-60744D01*
X49550Y-60910D01*
X49549Y-61089D01*
X49618Y-61254D01*
X49744Y-61381D01*
X49910Y-61449D01*
X50089Y-61450D01*
X50254Y-61381D01*
X50381Y-61255D01*
X50449Y-61089D01*
X50450Y-60910D01*
X50450Y-61910D01*
X50381Y-61745D01*
X50255Y-61618D01*
X50089Y-61550D01*
X49910Y-61549D01*
X49745Y-61618D01*
X49618Y-61744D01*
X49550Y-61910D01*
X49549Y-62089D01*
X49618Y-62254D01*
X49744Y-62381D01*
X49910Y-62449D01*
X50089Y-62450D01*
X50254Y-62381D01*
X50381Y-62255D01*
X50449Y-62089D01*
X50450Y-61910D01*
X50450Y-62910D01*
X50381Y-62745D01*
X50255Y-62618D01*
X50089Y-62550D01*
X49910Y-62549D01*
X49745Y-62618D01*
X49618Y-62744D01*
X49550Y-62910D01*
X49549Y-63089D01*
X49618Y-63254D01*
X49744Y-63381D01*
X49910Y-63449D01*
X50089Y-63450D01*
X50254Y-63381D01*
X50381Y-63255D01*
X50449Y-63089D01*
X50450Y-62910D01*
X50450Y-63910D01*
X50381Y-63745D01*
X50255Y-63618D01*
X50089Y-63550D01*
X49910Y-63549D01*
X49745Y-63618D01*
X49618Y-63744D01*
X49550Y-63910D01*
X49549Y-64089D01*
X49618Y-64254D01*
X49744Y-64381D01*
X49910Y-64449D01*
X50089Y-64450D01*
X50254Y-64381D01*
X50381Y-64255D01*
X50449Y-64089D01*
X50450Y-63910D01*
X50450Y-65894D01*
X50450Y-65894D01*
X50450Y-65254D01*
X50450Y-64654D01*
X50427Y-64599D01*
X50385Y-64556D01*
X50329Y-64534D01*
X50270Y-64533D01*
X49670Y-64533D01*
X49615Y-64556D01*
X49572Y-64598D01*
X49550Y-64654D01*
X49549Y-64713D01*
X49549Y-65313D01*
X49572Y-65368D01*
X49614Y-65411D01*
X49670Y-65433D01*
X49729Y-65434D01*
X50329Y-65434D01*
X50384Y-65411D01*
X50427Y-65369D01*
X50449Y-65313D01*
X50450Y-65254D01*
X50450Y-65894D01*
X50381Y-65729D01*
X50255Y-65602D01*
X50089Y-65534D01*
X49910Y-65533D01*
X49745Y-65602D01*
X49618Y-65728D01*
X49550Y-65894D01*
X49549Y-66073D01*
X49618Y-66238D01*
X49744Y-66365D01*
X49910Y-66433D01*
X50089Y-66434D01*
X50254Y-66365D01*
X50381Y-66239D01*
X50449Y-66073D01*
X50450Y-65894D01*
X50450Y-66894D01*
X50381Y-66729D01*
X50255Y-66602D01*
X50089Y-66534D01*
X49910Y-66533D01*
X49745Y-66602D01*
X49618Y-66728D01*
X49550Y-66894D01*
X49549Y-67073D01*
X49618Y-67238D01*
X49744Y-67365D01*
X49910Y-67433D01*
X50089Y-67434D01*
X50254Y-67365D01*
X50381Y-67239D01*
X50449Y-67073D01*
X50450Y-66894D01*
X50450Y-67894D01*
X50381Y-67729D01*
X50255Y-67602D01*
X50089Y-67534D01*
X49910Y-67533D01*
X49745Y-67602D01*
X49618Y-67728D01*
X49550Y-67894D01*
X49549Y-68073D01*
X49618Y-68238D01*
X49744Y-68365D01*
X49910Y-68433D01*
X50089Y-68434D01*
X50254Y-68365D01*
X50381Y-68239D01*
X50449Y-68073D01*
X50450Y-67894D01*
X50450Y-68894D01*
X50381Y-68729D01*
X50255Y-68602D01*
X50089Y-68534D01*
X49910Y-68533D01*
X49745Y-68602D01*
X49618Y-68728D01*
X49550Y-68894D01*
X49549Y-69073D01*
X49618Y-69238D01*
X49744Y-69365D01*
X49910Y-69433D01*
X50089Y-69434D01*
X50254Y-69365D01*
X50381Y-69239D01*
X50449Y-69073D01*
X50450Y-68894D01*
X50450Y-69894D01*
X50381Y-69729D01*
X50255Y-69602D01*
X50089Y-69534D01*
X49910Y-69533D01*
X49745Y-69602D01*
X49618Y-69728D01*
X49550Y-69894D01*
X49549Y-70073D01*
X49618Y-70238D01*
X49744Y-70365D01*
X49910Y-70433D01*
X50089Y-70434D01*
X50254Y-70365D01*
X50381Y-70239D01*
X50449Y-70073D01*
X50450Y-69894D01*
X50450Y-70894D01*
X50381Y-70729D01*
X50255Y-70602D01*
X50089Y-70534D01*
X49910Y-70533D01*
X49745Y-70602D01*
X49618Y-70728D01*
X49550Y-70894D01*
X49549Y-71073D01*
X49618Y-71238D01*
X49744Y-71365D01*
X49910Y-71433D01*
X50089Y-71434D01*
X50254Y-71365D01*
X50381Y-71239D01*
X50449Y-71073D01*
X50450Y-70894D01*
X50450Y-71894D01*
X50381Y-71729D01*
X50255Y-71602D01*
X50089Y-71534D01*
X49910Y-71533D01*
X49745Y-71602D01*
X49618Y-71728D01*
X49550Y-71894D01*
X49549Y-72073D01*
X49618Y-72238D01*
X49744Y-72365D01*
X49910Y-72433D01*
X50089Y-72434D01*
X50254Y-72365D01*
X50381Y-72239D01*
X50449Y-72073D01*
X50450Y-71894D01*
X50450Y-72894D01*
X50381Y-72729D01*
X50255Y-72602D01*
X50089Y-72534D01*
X49910Y-72533D01*
X49745Y-72602D01*
X49618Y-72728D01*
X49550Y-72894D01*
X49549Y-73073D01*
X49618Y-73238D01*
X49744Y-73365D01*
X49910Y-73433D01*
X50089Y-73434D01*
X50254Y-73365D01*
X50381Y-73239D01*
X50449Y-73073D01*
X50450Y-72894D01*
X50450Y-73969D01*
X50442Y-73863D01*
X50398Y-73756D01*
X50331Y-73723D01*
X50260Y-73794D01*
X50260Y-73652D01*
X50227Y-73585D01*
X50057Y-73528D01*
X49879Y-73541D01*
X49772Y-73585D01*
X49739Y-73652D01*
X50000Y-73913D01*
X50260Y-73652D01*
X50260Y-73794D01*
X50070Y-73984D01*
X50331Y-74244D01*
X50398Y-74211D01*
X50455Y-74041D01*
X50455Y-75430D01*
X50260Y-75430D01*
X50260Y-74315D01*
X50000Y-74054D01*
X49929Y-74125D01*
X49929Y-73984D01*
X49668Y-73723D01*
X49601Y-73756D01*
X49544Y-73926D01*
X49557Y-74104D01*
X49601Y-74211D01*
X49668Y-74244D01*
X49929Y-73984D01*
X49929Y-74125D01*
X49739Y-74315D01*
X49772Y-74382D01*
X49942Y-74439D01*
X50120Y-74426D01*
X50227Y-74382D01*
X50260Y-74315D01*
X50260Y-75430D01*
X48450Y-75430D01*
X48450Y-72860D01*
X48450Y-71860D01*
X48450Y-70860D01*
X48450Y-69910D01*
X48450Y-68860D01*
X48450Y-66910D01*
X48450Y-65910D01*
X48450Y-64910D01*
X48450Y-63910D01*
X48450Y-62910D01*
X48381Y-62745D01*
X48255Y-62618D01*
X48089Y-62550D01*
X47910Y-62549D01*
X47745Y-62618D01*
X47618Y-62744D01*
X47550Y-62910D01*
X47549Y-63089D01*
X47618Y-63254D01*
X47744Y-63381D01*
X47910Y-63449D01*
X48089Y-63450D01*
X48254Y-63381D01*
X48381Y-63255D01*
X48449Y-63089D01*
X48450Y-62910D01*
X48450Y-63910D01*
X48381Y-63745D01*
X48255Y-63618D01*
X48089Y-63550D01*
X47910Y-63549D01*
X47745Y-63618D01*
X47618Y-63744D01*
X47550Y-63910D01*
X47549Y-64089D01*
X47618Y-64254D01*
X47744Y-64381D01*
X47910Y-64449D01*
X48089Y-64450D01*
X48254Y-64381D01*
X48381Y-64255D01*
X48449Y-64089D01*
X48450Y-63910D01*
X48450Y-64910D01*
X48381Y-64745D01*
X48255Y-64618D01*
X48089Y-64550D01*
X47910Y-64549D01*
X47745Y-64618D01*
X47618Y-64744D01*
X47550Y-64910D01*
X47549Y-65089D01*
X47618Y-65254D01*
X47744Y-65381D01*
X47910Y-65449D01*
X48089Y-65450D01*
X48254Y-65381D01*
X48381Y-65255D01*
X48449Y-65089D01*
X48450Y-64910D01*
X48450Y-65910D01*
X48381Y-65745D01*
X48255Y-65618D01*
X48089Y-65550D01*
X47910Y-65549D01*
X47745Y-65618D01*
X47618Y-65744D01*
X47550Y-65910D01*
X47549Y-66089D01*
X47618Y-66254D01*
X47744Y-66381D01*
X47910Y-66449D01*
X48089Y-66450D01*
X48254Y-66381D01*
X48381Y-66255D01*
X48449Y-66089D01*
X48450Y-65910D01*
X48450Y-66910D01*
X48381Y-66745D01*
X48255Y-66618D01*
X48089Y-66550D01*
X47910Y-66549D01*
X47745Y-66618D01*
X47618Y-66744D01*
X47550Y-66910D01*
X47549Y-67089D01*
X47618Y-67254D01*
X47744Y-67381D01*
X47910Y-67449D01*
X48089Y-67450D01*
X48254Y-67381D01*
X48381Y-67255D01*
X48449Y-67089D01*
X48450Y-66910D01*
X48450Y-68860D01*
X48450Y-68860D01*
X48450Y-68270D01*
X48450Y-67670D01*
X48427Y-67615D01*
X48385Y-67572D01*
X48329Y-67550D01*
X48270Y-67549D01*
X47670Y-67549D01*
X47615Y-67572D01*
X47572Y-67614D01*
X47550Y-67670D01*
X47549Y-67729D01*
X47549Y-68329D01*
X47572Y-68384D01*
X47614Y-68427D01*
X47670Y-68449D01*
X47729Y-68450D01*
X48329Y-68450D01*
X48384Y-68427D01*
X48427Y-68385D01*
X48449Y-68329D01*
X48450Y-68270D01*
X48450Y-68860D01*
X48381Y-68695D01*
X48255Y-68568D01*
X48089Y-68500D01*
X47910Y-68499D01*
X47745Y-68568D01*
X47618Y-68694D01*
X47550Y-68860D01*
X47549Y-69039D01*
X47618Y-69204D01*
X47744Y-69331D01*
X47910Y-69399D01*
X48089Y-69400D01*
X48254Y-69331D01*
X48381Y-69205D01*
X48449Y-69039D01*
X48450Y-68860D01*
X48450Y-69910D01*
X48381Y-69745D01*
X48255Y-69618D01*
X48089Y-69550D01*
X47910Y-69549D01*
X47745Y-69618D01*
X47618Y-69744D01*
X47550Y-69910D01*
X47549Y-70089D01*
X47618Y-70254D01*
X47744Y-70381D01*
X47910Y-70449D01*
X48089Y-70450D01*
X48254Y-70381D01*
X48381Y-70255D01*
X48449Y-70089D01*
X48450Y-69910D01*
X48450Y-70860D01*
X48381Y-70695D01*
X48255Y-70568D01*
X48089Y-70500D01*
X47910Y-70499D01*
X47745Y-70568D01*
X47618Y-70694D01*
X47550Y-70860D01*
X47549Y-71039D01*
X47618Y-71204D01*
X47744Y-71331D01*
X47910Y-71399D01*
X48089Y-71400D01*
X48254Y-71331D01*
X48381Y-71205D01*
X48449Y-71039D01*
X48450Y-70860D01*
X48450Y-71860D01*
X48381Y-71695D01*
X48255Y-71568D01*
X48089Y-71500D01*
X47910Y-71499D01*
X47745Y-71568D01*
X47618Y-71694D01*
X47550Y-71860D01*
X47549Y-72039D01*
X47618Y-72204D01*
X47744Y-72331D01*
X47910Y-72399D01*
X48089Y-72400D01*
X48254Y-72331D01*
X48381Y-72205D01*
X48449Y-72039D01*
X48450Y-71860D01*
X48450Y-72860D01*
X48381Y-72695D01*
X48255Y-72568D01*
X48089Y-72500D01*
X47910Y-72499D01*
X47745Y-72568D01*
X47618Y-72694D01*
X47550Y-72860D01*
X47549Y-73039D01*
X47618Y-73204D01*
X47744Y-73331D01*
X47910Y-73399D01*
X48089Y-73400D01*
X48254Y-73331D01*
X48381Y-73205D01*
X48449Y-73039D01*
X48450Y-72860D01*
X48450Y-75430D01*
X48450Y-75430D01*
X48450Y-74279D01*
X48450Y-73620D01*
X48427Y-73565D01*
X48385Y-73522D01*
X48329Y-73500D01*
X48270Y-73499D01*
X48087Y-73500D01*
X48050Y-73537D01*
X48050Y-73900D01*
X48412Y-73900D01*
X48450Y-73862D01*
X48450Y-73620D01*
X48450Y-74279D01*
X48450Y-74037D01*
X48412Y-74000D01*
X48050Y-74000D01*
X48050Y-74362D01*
X48087Y-74400D01*
X48270Y-74400D01*
X48329Y-74399D01*
X48385Y-74377D01*
X48427Y-74334D01*
X48450Y-74279D01*
X48450Y-75430D01*
X47950Y-75430D01*
X47950Y-74362D01*
X47950Y-74000D01*
X47950Y-73900D01*
X47950Y-73537D01*
X47912Y-73500D01*
X47729Y-73499D01*
X47670Y-73500D01*
X47614Y-73522D01*
X47572Y-73565D01*
X47549Y-73620D01*
X47550Y-73862D01*
X47587Y-73900D01*
X47950Y-73900D01*
X47950Y-74000D01*
X47587Y-74000D01*
X47550Y-74037D01*
X47549Y-74279D01*
X47572Y-74334D01*
X47614Y-74377D01*
X47670Y-74399D01*
X47729Y-74400D01*
X47912Y-74400D01*
X47950Y-74362D01*
X47950Y-75430D01*
X47413Y-75430D01*
X47413Y-36419D01*
X86444Y-36419D01*
X86444Y-75430D01*
X86444Y-75430D01*
G37*
G54D23*
X86444Y-75430D02*
X81075Y-75430D01*
X81075Y-71860D01*
X81006Y-71695D01*
X80880Y-71568D01*
X80714Y-71500D01*
X80535Y-71499D01*
X80370Y-71568D01*
X80243Y-71694D01*
X80175Y-71860D01*
X80174Y-72039D01*
X80243Y-72204D01*
X80369Y-72331D01*
X80535Y-72399D01*
X80714Y-72400D01*
X80879Y-72331D01*
X81006Y-72205D01*
X81074Y-72039D01*
X81075Y-71860D01*
X81075Y-75430D01*
X80075Y-75430D01*
X80075Y-72220D01*
X80075Y-71620D01*
X80052Y-71565D01*
X80010Y-71522D01*
X79954Y-71500D01*
X79895Y-71499D01*
X79295Y-71499D01*
X79240Y-71522D01*
X79197Y-71564D01*
X79175Y-71620D01*
X79174Y-71679D01*
X79174Y-72279D01*
X79197Y-72334D01*
X79239Y-72377D01*
X79295Y-72399D01*
X79354Y-72400D01*
X79954Y-72400D01*
X80009Y-72377D01*
X80052Y-72335D01*
X80074Y-72279D01*
X80075Y-72220D01*
X80075Y-75430D01*
X71455Y-75430D01*
X71455Y-74057D01*
X71450Y-73985D01*
X71450Y-72910D01*
X71450Y-71910D01*
X71450Y-70910D01*
X71450Y-59910D01*
X71381Y-59745D01*
X71255Y-59618D01*
X71089Y-59550D01*
X70910Y-59549D01*
X70745Y-59618D01*
X70618Y-59744D01*
X70550Y-59910D01*
X70549Y-60089D01*
X70618Y-60254D01*
X70744Y-60381D01*
X70910Y-60449D01*
X71089Y-60450D01*
X71254Y-60381D01*
X71381Y-60255D01*
X71449Y-60089D01*
X71450Y-59910D01*
X71450Y-70910D01*
X71381Y-70745D01*
X71255Y-70618D01*
X71089Y-70550D01*
X70910Y-70549D01*
X70745Y-70618D01*
X70618Y-70744D01*
X70550Y-70910D01*
X70549Y-71089D01*
X70618Y-71254D01*
X70744Y-71381D01*
X70910Y-71449D01*
X71089Y-71450D01*
X71254Y-71381D01*
X71381Y-71255D01*
X71449Y-71089D01*
X71450Y-70910D01*
X71450Y-71910D01*
X71381Y-71745D01*
X71255Y-71618D01*
X71089Y-71550D01*
X70910Y-71549D01*
X70745Y-71618D01*
X70618Y-71744D01*
X70550Y-71910D01*
X70549Y-72089D01*
X70618Y-72254D01*
X70744Y-72381D01*
X70910Y-72449D01*
X71089Y-72450D01*
X71254Y-72381D01*
X71381Y-72255D01*
X71449Y-72089D01*
X71450Y-71910D01*
X71450Y-72910D01*
X71381Y-72745D01*
X71255Y-72618D01*
X71089Y-72550D01*
X70910Y-72549D01*
X70745Y-72618D01*
X70618Y-72744D01*
X70550Y-72910D01*
X70549Y-73089D01*
X70618Y-73254D01*
X70744Y-73381D01*
X70910Y-73449D01*
X71089Y-73450D01*
X71254Y-73381D01*
X71381Y-73255D01*
X71449Y-73089D01*
X71450Y-72910D01*
X71450Y-73985D01*
X71442Y-73879D01*
X71398Y-73772D01*
X71331Y-73739D01*
X71260Y-73810D01*
X71260Y-73668D01*
X71227Y-73601D01*
X71057Y-73544D01*
X70879Y-73557D01*
X70772Y-73601D01*
X70739Y-73668D01*
X71000Y-73929D01*
X71260Y-73668D01*
X71260Y-73810D01*
X71070Y-74000D01*
X71331Y-74260D01*
X71398Y-74227D01*
X71455Y-74057D01*
X71455Y-75430D01*
X71260Y-75430D01*
X71260Y-74331D01*
X71000Y-74070D01*
X70929Y-74141D01*
X70929Y-74000D01*
X70668Y-73739D01*
X70601Y-73772D01*
X70544Y-73942D01*
X70557Y-74120D01*
X70601Y-74227D01*
X70668Y-74260D01*
X70929Y-74000D01*
X70929Y-74141D01*
X70739Y-74331D01*
X70772Y-74398D01*
X70942Y-74455D01*
X71120Y-74442D01*
X71227Y-74398D01*
X71260Y-74331D01*
X71260Y-75430D01*
X70455Y-75430D01*
X70455Y-74057D01*
X70450Y-73985D01*
X70450Y-72910D01*
X70450Y-71910D01*
X70450Y-71910D01*
X70450Y-71270D01*
X70450Y-70670D01*
X70450Y-60270D01*
X70450Y-59670D01*
X70427Y-59615D01*
X70385Y-59572D01*
X70329Y-59550D01*
X70270Y-59549D01*
X69670Y-59549D01*
X69615Y-59572D01*
X69572Y-59614D01*
X69550Y-59670D01*
X69549Y-59729D01*
X69549Y-60329D01*
X69572Y-60384D01*
X69614Y-60427D01*
X69670Y-60449D01*
X69729Y-60450D01*
X70329Y-60450D01*
X70384Y-60427D01*
X70427Y-60385D01*
X70449Y-60329D01*
X70450Y-60270D01*
X70450Y-70670D01*
X70427Y-70615D01*
X70385Y-70572D01*
X70329Y-70550D01*
X70270Y-70549D01*
X69670Y-70549D01*
X69615Y-70572D01*
X69572Y-70614D01*
X69550Y-70670D01*
X69549Y-70729D01*
X69549Y-71329D01*
X69572Y-71384D01*
X69614Y-71427D01*
X69670Y-71449D01*
X69729Y-71450D01*
X70329Y-71450D01*
X70384Y-71427D01*
X70427Y-71385D01*
X70449Y-71329D01*
X70450Y-71270D01*
X70450Y-71910D01*
X70381Y-71745D01*
X70255Y-71618D01*
X70089Y-71550D01*
X69910Y-71549D01*
X69745Y-71618D01*
X69618Y-71744D01*
X69550Y-71910D01*
X69549Y-72089D01*
X69618Y-72254D01*
X69744Y-72381D01*
X69910Y-72449D01*
X70089Y-72450D01*
X70254Y-72381D01*
X70381Y-72255D01*
X70449Y-72089D01*
X70450Y-71910D01*
X70450Y-72910D01*
X70381Y-72745D01*
X70255Y-72618D01*
X70089Y-72550D01*
X69910Y-72549D01*
X69745Y-72618D01*
X69618Y-72744D01*
X69550Y-72910D01*
X69549Y-73089D01*
X69618Y-73254D01*
X69744Y-73381D01*
X69910Y-73449D01*
X70089Y-73450D01*
X70254Y-73381D01*
X70381Y-73255D01*
X70449Y-73089D01*
X70450Y-72910D01*
X70450Y-73985D01*
X70442Y-73879D01*
X70398Y-73772D01*
X70331Y-73739D01*
X70260Y-73810D01*
X70260Y-73668D01*
X70227Y-73601D01*
X70057Y-73544D01*
X69879Y-73557D01*
X69772Y-73601D01*
X69739Y-73668D01*
X70000Y-73929D01*
X70260Y-73668D01*
X70260Y-73810D01*
X70070Y-74000D01*
X70331Y-74260D01*
X70398Y-74227D01*
X70455Y-74057D01*
X70455Y-75430D01*
X70260Y-75430D01*
X70260Y-74331D01*
X70000Y-74070D01*
X69929Y-74141D01*
X69929Y-74000D01*
X69668Y-73739D01*
X69601Y-73772D01*
X69544Y-73942D01*
X69557Y-74120D01*
X69601Y-74227D01*
X69668Y-74260D01*
X69929Y-74000D01*
X69929Y-74141D01*
X69739Y-74331D01*
X69772Y-74398D01*
X69942Y-74455D01*
X70120Y-74442D01*
X70227Y-74398D01*
X70260Y-74331D01*
X70260Y-75430D01*
X69275Y-75430D01*
X69275Y-73245D01*
X69275Y-72695D01*
X69275Y-71245D01*
X69275Y-70695D01*
X69252Y-70640D01*
X69210Y-70597D01*
X69154Y-70575D01*
X69095Y-70574D01*
X68545Y-70574D01*
X68490Y-70597D01*
X68447Y-70639D01*
X68425Y-70695D01*
X68424Y-70754D01*
X68424Y-71304D01*
X68447Y-71359D01*
X68489Y-71402D01*
X68545Y-71424D01*
X68604Y-71425D01*
X69154Y-71425D01*
X69209Y-71402D01*
X69252Y-71360D01*
X69274Y-71304D01*
X69275Y-71245D01*
X69275Y-72695D01*
X69252Y-72640D01*
X69210Y-72597D01*
X69154Y-72575D01*
X69095Y-72574D01*
X68545Y-72574D01*
X68490Y-72597D01*
X68447Y-72639D01*
X68425Y-72695D01*
X68424Y-72754D01*
X68424Y-73304D01*
X68447Y-73359D01*
X68489Y-73402D01*
X68545Y-73424D01*
X68604Y-73425D01*
X69154Y-73425D01*
X69209Y-73402D01*
X69252Y-73360D01*
X69274Y-73304D01*
X69275Y-73245D01*
X69275Y-75430D01*
X68275Y-75430D01*
X68275Y-72915D01*
X68275Y-70915D01*
X68210Y-70759D01*
X68091Y-70639D01*
X67934Y-70575D01*
X67765Y-70574D01*
X67609Y-70639D01*
X67489Y-70758D01*
X67425Y-70915D01*
X67424Y-71084D01*
X67489Y-71240D01*
X67608Y-71360D01*
X67765Y-71424D01*
X67934Y-71425D01*
X68090Y-71360D01*
X68210Y-71241D01*
X68274Y-71084D01*
X68275Y-70915D01*
X68275Y-72915D01*
X68210Y-72759D01*
X68091Y-72639D01*
X67934Y-72575D01*
X67765Y-72574D01*
X67609Y-72639D01*
X67489Y-72758D01*
X67425Y-72915D01*
X67424Y-73084D01*
X67489Y-73240D01*
X67608Y-73360D01*
X67765Y-73424D01*
X67934Y-73425D01*
X68090Y-73360D01*
X68210Y-73241D01*
X68274Y-73084D01*
X68275Y-72915D01*
X68275Y-75430D01*
X53550Y-75430D01*
X53550Y-67220D01*
X53550Y-66670D01*
X53527Y-66615D01*
X53485Y-66572D01*
X53429Y-66550D01*
X53370Y-66549D01*
X52820Y-66549D01*
X52765Y-66572D01*
X52722Y-66614D01*
X52700Y-66670D01*
X52699Y-66729D01*
X52699Y-67279D01*
X52722Y-67334D01*
X52764Y-67377D01*
X52820Y-67399D01*
X52879Y-67400D01*
X53429Y-67400D01*
X53484Y-67377D01*
X53527Y-67335D01*
X53549Y-67279D01*
X53550Y-67220D01*
X53550Y-75430D01*
X52550Y-75430D01*
X52550Y-66890D01*
X52485Y-66734D01*
X52366Y-66614D01*
X52209Y-66550D01*
X52040Y-66549D01*
X51884Y-66614D01*
X51764Y-66733D01*
X51700Y-66890D01*
X51699Y-67059D01*
X51764Y-67215D01*
X51883Y-67335D01*
X52040Y-67399D01*
X52209Y-67400D01*
X52365Y-67335D01*
X52485Y-67216D01*
X52549Y-67059D01*
X52550Y-66890D01*
X52550Y-75430D01*
X51455Y-75430D01*
X51455Y-74041D01*
X51450Y-73969D01*
X51450Y-72894D01*
X51450Y-71894D01*
X51450Y-70894D01*
X51450Y-69894D01*
X51450Y-68894D01*
X51450Y-67894D01*
X51450Y-66894D01*
X51450Y-65894D01*
X51450Y-64894D01*
X51450Y-62910D01*
X51450Y-61910D01*
X51450Y-60910D01*
X51450Y-59910D01*
X51381Y-59745D01*
X51255Y-59618D01*
X51089Y-59550D01*
X50910Y-59549D01*
X50745Y-59618D01*
X50618Y-59744D01*
X50550Y-59910D01*
X50549Y-60089D01*
X50618Y-60254D01*
X50744Y-60381D01*
X50910Y-60449D01*
X51089Y-60450D01*
X51254Y-60381D01*
X51381Y-60255D01*
X51449Y-60089D01*
X51450Y-59910D01*
X51450Y-60910D01*
X51381Y-60745D01*
X51255Y-60618D01*
X51089Y-60550D01*
X50910Y-60549D01*
X50745Y-60618D01*
X50618Y-60744D01*
X50550Y-60910D01*
X50549Y-61089D01*
X50618Y-61254D01*
X50744Y-61381D01*
X50910Y-61449D01*
X51089Y-61450D01*
X51254Y-61381D01*
X51381Y-61255D01*
X51449Y-61089D01*
X51450Y-60910D01*
X51450Y-61910D01*
X51381Y-61745D01*
X51255Y-61618D01*
X51089Y-61550D01*
X50910Y-61549D01*
X50745Y-61618D01*
X50618Y-61744D01*
X50550Y-61910D01*
X50549Y-62089D01*
X50618Y-62254D01*
X50744Y-62381D01*
X50910Y-62449D01*
X51089Y-62450D01*
X51254Y-62381D01*
X51381Y-62255D01*
X51449Y-62089D01*
X51450Y-61910D01*
X51450Y-62910D01*
X51381Y-62745D01*
X51255Y-62618D01*
X51089Y-62550D01*
X50910Y-62549D01*
X50745Y-62618D01*
X50618Y-62744D01*
X50550Y-62910D01*
X50549Y-63089D01*
X50618Y-63254D01*
X50744Y-63381D01*
X50910Y-63449D01*
X51089Y-63450D01*
X51254Y-63381D01*
X51381Y-63255D01*
X51449Y-63089D01*
X51450Y-62910D01*
X51450Y-64894D01*
X51450Y-64894D01*
X51450Y-64270D01*
X51450Y-63670D01*
X51427Y-63615D01*
X51385Y-63572D01*
X51329Y-63550D01*
X51270Y-63549D01*
X50670Y-63549D01*
X50615Y-63572D01*
X50572Y-63614D01*
X50550Y-63670D01*
X50549Y-63729D01*
X50549Y-64329D01*
X50572Y-64384D01*
X50614Y-64427D01*
X50670Y-64449D01*
X50729Y-64450D01*
X51329Y-64450D01*
X51384Y-64427D01*
X51427Y-64385D01*
X51449Y-64329D01*
X51450Y-64270D01*
X51450Y-64894D01*
X51381Y-64729D01*
X51255Y-64602D01*
X51089Y-64534D01*
X50910Y-64533D01*
X50745Y-64602D01*
X50618Y-64728D01*
X50550Y-64894D01*
X50549Y-65073D01*
X50618Y-65238D01*
X50744Y-65365D01*
X50910Y-65433D01*
X51089Y-65434D01*
X51254Y-65365D01*
X51381Y-65239D01*
X51449Y-65073D01*
X51450Y-64894D01*
X51450Y-65894D01*
X51381Y-65729D01*
X51255Y-65602D01*
X51089Y-65534D01*
X50910Y-65533D01*
X50745Y-65602D01*
X50618Y-65728D01*
X50550Y-65894D01*
X50549Y-66073D01*
X50618Y-66238D01*
X50744Y-66365D01*
X50910Y-66433D01*
X51089Y-66434D01*
X51254Y-66365D01*
X51381Y-66239D01*
X51449Y-66073D01*
X51450Y-65894D01*
X51450Y-66894D01*
X51381Y-66729D01*
X51255Y-66602D01*
X51089Y-66534D01*
X50910Y-66533D01*
X50745Y-66602D01*
X50618Y-66728D01*
X50550Y-66894D01*
X50549Y-67073D01*
X50618Y-67238D01*
X50744Y-67365D01*
X50910Y-67433D01*
X51089Y-67434D01*
X51254Y-67365D01*
X51381Y-67239D01*
X51449Y-67073D01*
X51450Y-66894D01*
X51450Y-67894D01*
X51381Y-67729D01*
X51255Y-67602D01*
X51089Y-67534D01*
X50910Y-67533D01*
X50745Y-67602D01*
X50618Y-67728D01*
X50550Y-67894D01*
X50549Y-68073D01*
X50618Y-68238D01*
X50744Y-68365D01*
X50910Y-68433D01*
X51089Y-68434D01*
X51254Y-68365D01*
X51381Y-68239D01*
X51449Y-68073D01*
X51450Y-67894D01*
X51450Y-68894D01*
X51381Y-68729D01*
X51255Y-68602D01*
X51089Y-68534D01*
X50910Y-68533D01*
X50745Y-68602D01*
X50618Y-68728D01*
X50550Y-68894D01*
X50549Y-69073D01*
X50618Y-69238D01*
X50744Y-69365D01*
X50910Y-69433D01*
X51089Y-69434D01*
X51254Y-69365D01*
X51381Y-69239D01*
X51449Y-69073D01*
X51450Y-68894D01*
X51450Y-69894D01*
X51381Y-69729D01*
X51255Y-69602D01*
X51089Y-69534D01*
X50910Y-69533D01*
X50745Y-69602D01*
X50618Y-69728D01*
X50550Y-69894D01*
X50549Y-70073D01*
X50618Y-70238D01*
X50744Y-70365D01*
X50910Y-70433D01*
X51089Y-70434D01*
X51254Y-70365D01*
X51381Y-70239D01*
X51449Y-70073D01*
X51450Y-69894D01*
X51450Y-70894D01*
X51381Y-70729D01*
X51255Y-70602D01*
X51089Y-70534D01*
X50910Y-70533D01*
X50745Y-70602D01*
X50618Y-70728D01*
X50550Y-70894D01*
X50549Y-71073D01*
X50618Y-71238D01*
X50744Y-71365D01*
X50910Y-71433D01*
X51089Y-71434D01*
X51254Y-71365D01*
X51381Y-71239D01*
X51449Y-71073D01*
X51450Y-70894D01*
X51450Y-71894D01*
X51381Y-71729D01*
X51255Y-71602D01*
X51089Y-71534D01*
X50910Y-71533D01*
X50745Y-71602D01*
X50618Y-71728D01*
X50550Y-71894D01*
X50549Y-72073D01*
X50618Y-72238D01*
X50744Y-72365D01*
X50910Y-72433D01*
X51089Y-72434D01*
X51254Y-72365D01*
X51381Y-72239D01*
X51449Y-72073D01*
X51450Y-71894D01*
X51450Y-72894D01*
X51381Y-72729D01*
X51255Y-72602D01*
X51089Y-72534D01*
X50910Y-72533D01*
X50745Y-72602D01*
X50618Y-72728D01*
X50550Y-72894D01*
X50549Y-73073D01*
X50618Y-73238D01*
X50744Y-73365D01*
X50910Y-73433D01*
X51089Y-73434D01*
X51254Y-73365D01*
X51381Y-73239D01*
X51449Y-73073D01*
X51450Y-72894D01*
X51450Y-73969D01*
X51442Y-73863D01*
X51398Y-73756D01*
X51331Y-73723D01*
X51260Y-73794D01*
X51260Y-73652D01*
X51227Y-73585D01*
X51057Y-73528D01*
X50879Y-73541D01*
X50772Y-73585D01*
X50739Y-73652D01*
X51000Y-73913D01*
X51260Y-73652D01*
X51260Y-73794D01*
X51070Y-73984D01*
X51331Y-74244D01*
X51398Y-74211D01*
X51455Y-74041D01*
X51455Y-75430D01*
X51260Y-75430D01*
X51260Y-74315D01*
X51000Y-74054D01*
X50929Y-74125D01*
X50929Y-73984D01*
X50668Y-73723D01*
X50601Y-73756D01*
X50544Y-73926D01*
X50557Y-74104D01*
X50601Y-74211D01*
X50668Y-74244D01*
X50929Y-73984D01*
X50929Y-74125D01*
X50739Y-74315D01*
X50772Y-74382D01*
X50942Y-74439D01*
X51120Y-74426D01*
X51227Y-74382D01*
X51260Y-74315D01*
X51260Y-75430D01*
X50455Y-75430D01*
X50455Y-74041D01*
X50450Y-73969D01*
X50450Y-72894D01*
X50450Y-71894D01*
X50450Y-70894D01*
X50450Y-69894D01*
X50450Y-68894D01*
X50450Y-67894D01*
X50450Y-66894D01*
X50450Y-65894D01*
X50450Y-63910D01*
X50450Y-62910D01*
X50450Y-61910D01*
X50450Y-60910D01*
X50450Y-59910D01*
X50381Y-59745D01*
X50255Y-59618D01*
X50089Y-59550D01*
X49910Y-59549D01*
X49745Y-59618D01*
X49618Y-59744D01*
X49550Y-59910D01*
X49549Y-60089D01*
X49618Y-60254D01*
X49744Y-60381D01*
X49910Y-60449D01*
X50089Y-60450D01*
X50254Y-60381D01*
X50381Y-60255D01*
X50449Y-60089D01*
X50450Y-59910D01*
X50450Y-60910D01*
X50381Y-60745D01*
X50255Y-60618D01*
X50089Y-60550D01*
X49910Y-60549D01*
X49745Y-60618D01*
X49618Y-60744D01*
X49550Y-60910D01*
X49549Y-61089D01*
X49618Y-61254D01*
X49744Y-61381D01*
X49910Y-61449D01*
X50089Y-61450D01*
X50254Y-61381D01*
X50381Y-61255D01*
X50449Y-61089D01*
X50450Y-60910D01*
X50450Y-61910D01*
X50381Y-61745D01*
X50255Y-61618D01*
X50089Y-61550D01*
X49910Y-61549D01*
X49745Y-61618D01*
X49618Y-61744D01*
X49550Y-61910D01*
X49549Y-62089D01*
X49618Y-62254D01*
X49744Y-62381D01*
X49910Y-62449D01*
X50089Y-62450D01*
X50254Y-62381D01*
X50381Y-62255D01*
X50449Y-62089D01*
X50450Y-61910D01*
X50450Y-62910D01*
X50381Y-62745D01*
X50255Y-62618D01*
X50089Y-62550D01*
X49910Y-62549D01*
X49745Y-62618D01*
X49618Y-62744D01*
X49550Y-62910D01*
X49549Y-63089D01*
X49618Y-63254D01*
X49744Y-63381D01*
X49910Y-63449D01*
X50089Y-63450D01*
X50254Y-63381D01*
X50381Y-63255D01*
X50449Y-63089D01*
X50450Y-62910D01*
X50450Y-63910D01*
X50381Y-63745D01*
X50255Y-63618D01*
X50089Y-63550D01*
X49910Y-63549D01*
X49745Y-63618D01*
X49618Y-63744D01*
X49550Y-63910D01*
X49549Y-64089D01*
X49618Y-64254D01*
X49744Y-64381D01*
X49910Y-64449D01*
X50089Y-64450D01*
X50254Y-64381D01*
X50381Y-64255D01*
X50449Y-64089D01*
X50450Y-63910D01*
X50450Y-65894D01*
X50450Y-65894D01*
X50450Y-65254D01*
X50450Y-64654D01*
X50427Y-64599D01*
X50385Y-64556D01*
X50329Y-64534D01*
X50270Y-64533D01*
X49670Y-64533D01*
X49615Y-64556D01*
X49572Y-64598D01*
X49550Y-64654D01*
X49549Y-64713D01*
X49549Y-65313D01*
X49572Y-65368D01*
X49614Y-65411D01*
X49670Y-65433D01*
X49729Y-65434D01*
X50329Y-65434D01*
X50384Y-65411D01*
X50427Y-65369D01*
X50449Y-65313D01*
X50450Y-65254D01*
X50450Y-65894D01*
X50381Y-65729D01*
X50255Y-65602D01*
X50089Y-65534D01*
X49910Y-65533D01*
X49745Y-65602D01*
X49618Y-65728D01*
X49550Y-65894D01*
X49549Y-66073D01*
X49618Y-66238D01*
X49744Y-66365D01*
X49910Y-66433D01*
X50089Y-66434D01*
X50254Y-66365D01*
X50381Y-66239D01*
X50449Y-66073D01*
X50450Y-65894D01*
X50450Y-66894D01*
X50381Y-66729D01*
X50255Y-66602D01*
X50089Y-66534D01*
X49910Y-66533D01*
X49745Y-66602D01*
X49618Y-66728D01*
X49550Y-66894D01*
X49549Y-67073D01*
X49618Y-67238D01*
X49744Y-67365D01*
X49910Y-67433D01*
X50089Y-67434D01*
X50254Y-67365D01*
X50381Y-67239D01*
X50449Y-67073D01*
X50450Y-66894D01*
X50450Y-67894D01*
X50381Y-67729D01*
X50255Y-67602D01*
X50089Y-67534D01*
X49910Y-67533D01*
X49745Y-67602D01*
X49618Y-67728D01*
X49550Y-67894D01*
X49549Y-68073D01*
X49618Y-68238D01*
X49744Y-68365D01*
X49910Y-68433D01*
X50089Y-68434D01*
X50254Y-68365D01*
X50381Y-68239D01*
X50449Y-68073D01*
X50450Y-67894D01*
X50450Y-68894D01*
X50381Y-68729D01*
X50255Y-68602D01*
X50089Y-68534D01*
X49910Y-68533D01*
X49745Y-68602D01*
X49618Y-68728D01*
X49550Y-68894D01*
X49549Y-69073D01*
X49618Y-69238D01*
X49744Y-69365D01*
X49910Y-69433D01*
X50089Y-69434D01*
X50254Y-69365D01*
X50381Y-69239D01*
X50449Y-69073D01*
X50450Y-68894D01*
X50450Y-69894D01*
X50381Y-69729D01*
X50255Y-69602D01*
X50089Y-69534D01*
X49910Y-69533D01*
X49745Y-69602D01*
X49618Y-69728D01*
X49550Y-69894D01*
X49549Y-70073D01*
X49618Y-70238D01*
X49744Y-70365D01*
X49910Y-70433D01*
X50089Y-70434D01*
X50254Y-70365D01*
X50381Y-70239D01*
X50449Y-70073D01*
X50450Y-69894D01*
X50450Y-70894D01*
X50381Y-70729D01*
X50255Y-70602D01*
X50089Y-70534D01*
X49910Y-70533D01*
X49745Y-70602D01*
X49618Y-70728D01*
X49550Y-70894D01*
X49549Y-71073D01*
X49618Y-71238D01*
X49744Y-71365D01*
X49910Y-71433D01*
X50089Y-71434D01*
X50254Y-71365D01*
X50381Y-71239D01*
X50449Y-71073D01*
X50450Y-70894D01*
X50450Y-71894D01*
X50381Y-71729D01*
X50255Y-71602D01*
X50089Y-71534D01*
X49910Y-71533D01*
X49745Y-71602D01*
X49618Y-71728D01*
X49550Y-71894D01*
X49549Y-72073D01*
X49618Y-72238D01*
X49744Y-72365D01*
X49910Y-72433D01*
X50089Y-72434D01*
X50254Y-72365D01*
X50381Y-72239D01*
X50449Y-72073D01*
X50450Y-71894D01*
X50450Y-72894D01*
X50381Y-72729D01*
X50255Y-72602D01*
X50089Y-72534D01*
X49910Y-72533D01*
X49745Y-72602D01*
X49618Y-72728D01*
X49550Y-72894D01*
X49549Y-73073D01*
X49618Y-73238D01*
X49744Y-73365D01*
X49910Y-73433D01*
X50089Y-73434D01*
X50254Y-73365D01*
X50381Y-73239D01*
X50449Y-73073D01*
X50450Y-72894D01*
X50450Y-73969D01*
X50442Y-73863D01*
X50398Y-73756D01*
X50331Y-73723D01*
X50260Y-73794D01*
X50260Y-73652D01*
X50227Y-73585D01*
X50057Y-73528D01*
X49879Y-73541D01*
X49772Y-73585D01*
X49739Y-73652D01*
X50000Y-73913D01*
X50260Y-73652D01*
X50260Y-73794D01*
X50070Y-73984D01*
X50331Y-74244D01*
X50398Y-74211D01*
X50455Y-74041D01*
X50455Y-75430D01*
X50260Y-75430D01*
X50260Y-74315D01*
X50000Y-74054D01*
X49929Y-74125D01*
X49929Y-73984D01*
X49668Y-73723D01*
X49601Y-73756D01*
X49544Y-73926D01*
X49557Y-74104D01*
X49601Y-74211D01*
X49668Y-74244D01*
X49929Y-73984D01*
X49929Y-74125D01*
X49739Y-74315D01*
X49772Y-74382D01*
X49942Y-74439D01*
X50120Y-74426D01*
X50227Y-74382D01*
X50260Y-74315D01*
X50260Y-75430D01*
X48450Y-75430D01*
X48450Y-72860D01*
X48450Y-71860D01*
X48450Y-70860D01*
X48450Y-69910D01*
X48450Y-68860D01*
X48450Y-66910D01*
X48450Y-65910D01*
X48450Y-64910D01*
X48450Y-63910D01*
X48450Y-62910D01*
X48381Y-62745D01*
X48255Y-62618D01*
X48089Y-62550D01*
X47910Y-62549D01*
X47745Y-62618D01*
X47618Y-62744D01*
X47550Y-62910D01*
X47549Y-63089D01*
X47618Y-63254D01*
X47744Y-63381D01*
X47910Y-63449D01*
X48089Y-63450D01*
X48254Y-63381D01*
X48381Y-63255D01*
X48449Y-63089D01*
X48450Y-62910D01*
X48450Y-63910D01*
X48381Y-63745D01*
X48255Y-63618D01*
X48089Y-63550D01*
X47910Y-63549D01*
X47745Y-63618D01*
X47618Y-63744D01*
X47550Y-63910D01*
X47549Y-64089D01*
X47618Y-64254D01*
X47744Y-64381D01*
X47910Y-64449D01*
X48089Y-64450D01*
X48254Y-64381D01*
X48381Y-64255D01*
X48449Y-64089D01*
X48450Y-63910D01*
X48450Y-64910D01*
X48381Y-64745D01*
X48255Y-64618D01*
X48089Y-64550D01*
X47910Y-64549D01*
X47745Y-64618D01*
X47618Y-64744D01*
X47550Y-64910D01*
X47549Y-65089D01*
X47618Y-65254D01*
X47744Y-65381D01*
X47910Y-65449D01*
X48089Y-65450D01*
X48254Y-65381D01*
X48381Y-65255D01*
X48449Y-65089D01*
X48450Y-64910D01*
X48450Y-65910D01*
X48381Y-65745D01*
X48255Y-65618D01*
X48089Y-65550D01*
X47910Y-65549D01*
X47745Y-65618D01*
X47618Y-65744D01*
X47550Y-65910D01*
X47549Y-66089D01*
X47618Y-66254D01*
X47744Y-66381D01*
X47910Y-66449D01*
X48089Y-66450D01*
X48254Y-66381D01*
X48381Y-66255D01*
X48449Y-66089D01*
X48450Y-65910D01*
X48450Y-66910D01*
X48381Y-66745D01*
X48255Y-66618D01*
X48089Y-66550D01*
X47910Y-66549D01*
X47745Y-66618D01*
X47618Y-66744D01*
X47550Y-66910D01*
X47549Y-67089D01*
X47618Y-67254D01*
X47744Y-67381D01*
X47910Y-67449D01*
X48089Y-67450D01*
X48254Y-67381D01*
X48381Y-67255D01*
X48449Y-67089D01*
X48450Y-66910D01*
X48450Y-68860D01*
X48450Y-68860D01*
X48450Y-68270D01*
X48450Y-67670D01*
X48427Y-67615D01*
X48385Y-67572D01*
X48329Y-67550D01*
X48270Y-67549D01*
X47670Y-67549D01*
X47615Y-67572D01*
X47572Y-67614D01*
X47550Y-67670D01*
X47549Y-67729D01*
X47549Y-68329D01*
X47572Y-68384D01*
X47614Y-68427D01*
X47670Y-68449D01*
X47729Y-68450D01*
X48329Y-68450D01*
X48384Y-68427D01*
X48427Y-68385D01*
X48449Y-68329D01*
X48450Y-68270D01*
X48450Y-68860D01*
X48381Y-68695D01*
X48255Y-68568D01*
X48089Y-68500D01*
X47910Y-68499D01*
X47745Y-68568D01*
X47618Y-68694D01*
X47550Y-68860D01*
X47549Y-69039D01*
X47618Y-69204D01*
X47744Y-69331D01*
X47910Y-69399D01*
X48089Y-69400D01*
X48254Y-69331D01*
X48381Y-69205D01*
X48449Y-69039D01*
X48450Y-68860D01*
X48450Y-69910D01*
X48381Y-69745D01*
X48255Y-69618D01*
X48089Y-69550D01*
X47910Y-69549D01*
X47745Y-69618D01*
X47618Y-69744D01*
X47550Y-69910D01*
X47549Y-70089D01*
X47618Y-70254D01*
X47744Y-70381D01*
X47910Y-70449D01*
X48089Y-70450D01*
X48254Y-70381D01*
X48381Y-70255D01*
X48449Y-70089D01*
X48450Y-69910D01*
X48450Y-70860D01*
X48381Y-70695D01*
X48255Y-70568D01*
X48089Y-70500D01*
X47910Y-70499D01*
X47745Y-70568D01*
X47618Y-70694D01*
X47550Y-70860D01*
X47549Y-71039D01*
X47618Y-71204D01*
X47744Y-71331D01*
X47910Y-71399D01*
X48089Y-71400D01*
X48254Y-71331D01*
X48381Y-71205D01*
X48449Y-71039D01*
X48450Y-70860D01*
X48450Y-71860D01*
X48381Y-71695D01*
X48255Y-71568D01*
X48089Y-71500D01*
X47910Y-71499D01*
X47745Y-71568D01*
X47618Y-71694D01*
X47550Y-71860D01*
X47549Y-72039D01*
X47618Y-72204D01*
X47744Y-72331D01*
X47910Y-72399D01*
X48089Y-72400D01*
X48254Y-72331D01*
X48381Y-72205D01*
X48449Y-72039D01*
X48450Y-71860D01*
X48450Y-72860D01*
X48381Y-72695D01*
X48255Y-72568D01*
X48089Y-72500D01*
X47910Y-72499D01*
X47745Y-72568D01*
X47618Y-72694D01*
X47550Y-72860D01*
X47549Y-73039D01*
X47618Y-73204D01*
X47744Y-73331D01*
X47910Y-73399D01*
X48089Y-73400D01*
X48254Y-73331D01*
X48381Y-73205D01*
X48449Y-73039D01*
X48450Y-72860D01*
X48450Y-75430D01*
X48450Y-75430D01*
X48450Y-74279D01*
X48450Y-73620D01*
X48427Y-73565D01*
X48385Y-73522D01*
X48329Y-73500D01*
X48270Y-73499D01*
X48087Y-73500D01*
X48050Y-73537D01*
X48050Y-73900D01*
X48412Y-73900D01*
X48450Y-73862D01*
X48450Y-73620D01*
X48450Y-74279D01*
X48450Y-74037D01*
X48412Y-74000D01*
X48050Y-74000D01*
X48050Y-74362D01*
X48087Y-74400D01*
X48270Y-74400D01*
X48329Y-74399D01*
X48385Y-74377D01*
X48427Y-74334D01*
X48450Y-74279D01*
X48450Y-75430D01*
X47950Y-75430D01*
X47950Y-74362D01*
X47950Y-74000D01*
X47950Y-73900D01*
X47950Y-73537D01*
X47912Y-73500D01*
X47729Y-73499D01*
X47670Y-73500D01*
X47614Y-73522D01*
X47572Y-73565D01*
X47549Y-73620D01*
X47550Y-73862D01*
X47587Y-73900D01*
X47950Y-73900D01*
X47950Y-74000D01*
X47587Y-74000D01*
X47550Y-74037D01*
X47549Y-74279D01*
X47572Y-74334D01*
X47614Y-74377D01*
X47670Y-74399D01*
X47729Y-74400D01*
X47912Y-74400D01*
X47950Y-74362D01*
X47950Y-75430D01*
X47413Y-75430D01*
X47413Y-36419D01*
X86444Y-36419D01*
X86444Y-75430D01*
M02*
