G04 (created by PCBNEW (2013-07-07 BZR 4022)-stable) date 2/1/2014 4:13:07 PM*
%MOIN*%
G04 Gerber Fmt 3.4, Leading zero omitted, Abs format*
%FSLAX34Y34*%
G01*
G70*
G90*
G04 APERTURE LIST*
%ADD10C,0.00590551*%
%ADD11R,0.0394X0.0236*%
%ADD12R,0.05X0.025*%
%ADD13R,0.035X0.055*%
%ADD14R,0.055X0.035*%
%ADD15R,0.0472X0.0472*%
%ADD16R,0.065X0.016*%
%ADD17R,0.02X0.1*%
%ADD18R,0.0787402X0.11*%
%ADD19R,0.03X0.06*%
%ADD20R,0.04X0.06*%
%ADD21R,0.06X0.08*%
%ADD22R,0.06X0.06*%
%ADD23R,0.0177X0.059*%
%ADD24R,0.0551X0.0236*%
%ADD25R,0.02X0.045*%
%ADD26R,0.038X0.05*%
%ADD27R,0.08X0.06*%
%ADD28R,0.0402X0.0161*%
G04 APERTURE END LIST*
G54D10*
G54D11*
X52084Y-46325D03*
X52916Y-46700D03*
X52084Y-47075D03*
X62484Y-45125D03*
X63316Y-45500D03*
X62484Y-45875D03*
X62484Y-43525D03*
X63316Y-43900D03*
X62484Y-44275D03*
X52084Y-44825D03*
X52916Y-45200D03*
X52084Y-45575D03*
X52084Y-47925D03*
X52916Y-48300D03*
X52084Y-48675D03*
X52084Y-43325D03*
X52916Y-43700D03*
X52084Y-44075D03*
X57184Y-44825D03*
X58016Y-45200D03*
X57184Y-45575D03*
X57184Y-43225D03*
X58016Y-43600D03*
X57184Y-43975D03*
X57184Y-47925D03*
X58016Y-48300D03*
X57184Y-48675D03*
X57184Y-46425D03*
X58016Y-46800D03*
X57184Y-47175D03*
G54D12*
X54900Y-57650D03*
X54900Y-57150D03*
X54900Y-56650D03*
X54900Y-56150D03*
X54900Y-55650D03*
X54900Y-55150D03*
X54900Y-54650D03*
X52700Y-54650D03*
X52700Y-55150D03*
X52700Y-55650D03*
X52700Y-56150D03*
X52700Y-56650D03*
X52700Y-57150D03*
X52700Y-57650D03*
X60100Y-57500D03*
X60100Y-57000D03*
X60100Y-56500D03*
X60100Y-56000D03*
X60100Y-55500D03*
X60100Y-55000D03*
X60100Y-54500D03*
X57900Y-54500D03*
X57900Y-55000D03*
X57900Y-55500D03*
X57900Y-56000D03*
X57900Y-56500D03*
X57900Y-57000D03*
X57900Y-57500D03*
X65400Y-57500D03*
X65400Y-57000D03*
X65400Y-56500D03*
X65400Y-56000D03*
X65400Y-55500D03*
X65400Y-55000D03*
X65400Y-54500D03*
X63200Y-54500D03*
X63200Y-55000D03*
X63200Y-55500D03*
X63200Y-56000D03*
X63200Y-56500D03*
X63200Y-57000D03*
X63200Y-57500D03*
G54D11*
X62384Y-46725D03*
X63216Y-47100D03*
X62384Y-47475D03*
X62484Y-48125D03*
X63316Y-48500D03*
X62484Y-48875D03*
G54D13*
X54175Y-53600D03*
X53425Y-53600D03*
X63925Y-53700D03*
X64675Y-53700D03*
X59375Y-53700D03*
X58625Y-53700D03*
G54D14*
X53250Y-61325D03*
X53250Y-60575D03*
X52200Y-60575D03*
X52200Y-61325D03*
X52300Y-42225D03*
X52300Y-41475D03*
X55350Y-60625D03*
X55350Y-61375D03*
X54250Y-61325D03*
X54250Y-60575D03*
X53350Y-42275D03*
X53350Y-41525D03*
X53250Y-59175D03*
X53250Y-58425D03*
X52200Y-58425D03*
X52200Y-59175D03*
X52200Y-39675D03*
X52200Y-40425D03*
X53350Y-39675D03*
X53350Y-40425D03*
X54300Y-59175D03*
X54300Y-58425D03*
X55350Y-58475D03*
X55350Y-59225D03*
X54400Y-52425D03*
X54400Y-51675D03*
X55450Y-42275D03*
X55450Y-41525D03*
X53400Y-51675D03*
X53400Y-52425D03*
X55450Y-52425D03*
X55450Y-51675D03*
X52400Y-51675D03*
X52400Y-52425D03*
X54400Y-42275D03*
X54400Y-41525D03*
X54350Y-50525D03*
X54350Y-49775D03*
X55450Y-39725D03*
X55450Y-40475D03*
X52350Y-49775D03*
X52350Y-50525D03*
X54400Y-39725D03*
X54400Y-40475D03*
X58550Y-61325D03*
X58550Y-60575D03*
X59450Y-42175D03*
X59450Y-41425D03*
X57200Y-51775D03*
X57200Y-52525D03*
X60550Y-42225D03*
X60550Y-41475D03*
X59150Y-52525D03*
X59150Y-51775D03*
G54D13*
X55375Y-45200D03*
X54625Y-45200D03*
X55375Y-43700D03*
X54625Y-43700D03*
G54D14*
X57200Y-42175D03*
X57200Y-41425D03*
X57450Y-60625D03*
X57450Y-61375D03*
X63800Y-61375D03*
X63800Y-60625D03*
X62700Y-60625D03*
X62700Y-61375D03*
X62700Y-42075D03*
X62700Y-41325D03*
X63900Y-42075D03*
X63900Y-41325D03*
X64800Y-61475D03*
X64800Y-60725D03*
X65850Y-60725D03*
X65850Y-61475D03*
X64650Y-52625D03*
X64650Y-51875D03*
X65700Y-52575D03*
X65700Y-51825D03*
X66150Y-42075D03*
X66150Y-41325D03*
X62550Y-51875D03*
X62550Y-52625D03*
X63550Y-51875D03*
X63550Y-52625D03*
X65000Y-42075D03*
X65000Y-41325D03*
X55350Y-50525D03*
X55350Y-49775D03*
X53350Y-49775D03*
X53350Y-50525D03*
X60150Y-52525D03*
X60150Y-51775D03*
X58150Y-51775D03*
X58150Y-52525D03*
X58300Y-42175D03*
X58300Y-41425D03*
X58150Y-49725D03*
X58150Y-50475D03*
X60250Y-50475D03*
X60250Y-49725D03*
X57450Y-58725D03*
X57450Y-59475D03*
X58550Y-59525D03*
X58550Y-58775D03*
X59550Y-39475D03*
X59550Y-40225D03*
X57200Y-49725D03*
X57200Y-50475D03*
X60600Y-39525D03*
X60600Y-40275D03*
X59200Y-50475D03*
X59200Y-49725D03*
X60600Y-58725D03*
X60600Y-59475D03*
X59550Y-59475D03*
X59550Y-58725D03*
X58350Y-39475D03*
X58350Y-40225D03*
X57200Y-39425D03*
X57200Y-40175D03*
G54D13*
X55375Y-46700D03*
X54625Y-46700D03*
X55275Y-48400D03*
X54525Y-48400D03*
X59975Y-43600D03*
X59225Y-43600D03*
X59975Y-45200D03*
X59225Y-45200D03*
X65575Y-45500D03*
X64825Y-45500D03*
X65575Y-43900D03*
X64825Y-43900D03*
X59875Y-48300D03*
X59125Y-48300D03*
X59975Y-46800D03*
X59225Y-46800D03*
G54D14*
X59550Y-61375D03*
X59550Y-60625D03*
X60600Y-60625D03*
X60600Y-61375D03*
X63700Y-59375D03*
X63700Y-58625D03*
X62700Y-58625D03*
X62700Y-59375D03*
X62700Y-39625D03*
X62700Y-40375D03*
X63900Y-39625D03*
X63900Y-40375D03*
X64774Y-59349D03*
X64774Y-58599D03*
X65800Y-58625D03*
X65800Y-59375D03*
X64600Y-50775D03*
X64600Y-50025D03*
X65650Y-50725D03*
X65650Y-49975D03*
X66200Y-39625D03*
X66200Y-40375D03*
X62500Y-50025D03*
X62500Y-50775D03*
X63500Y-50025D03*
X63500Y-50775D03*
X65000Y-39625D03*
X65000Y-40375D03*
G54D13*
X65375Y-48500D03*
X64625Y-48500D03*
X65475Y-47100D03*
X64725Y-47100D03*
X81275Y-71518D03*
X82025Y-71518D03*
G54D14*
X82750Y-71393D03*
X82750Y-70643D03*
G54D13*
X83525Y-71318D03*
X84275Y-71318D03*
X80475Y-70418D03*
X79725Y-70418D03*
X79699Y-69592D03*
X80449Y-69592D03*
X81275Y-70718D03*
X82025Y-70718D03*
G54D15*
X85750Y-70705D03*
X85750Y-71531D03*
G54D13*
X81225Y-72318D03*
X80475Y-72318D03*
G54D14*
X85000Y-71393D03*
X85000Y-70643D03*
G54D16*
X81433Y-68090D03*
X81433Y-68346D03*
X81433Y-68602D03*
X81433Y-68858D03*
X84267Y-67322D03*
X81433Y-67322D03*
X81433Y-67578D03*
X81433Y-67834D03*
X84267Y-69114D03*
X84267Y-68858D03*
X84267Y-68602D03*
X84267Y-68346D03*
X84267Y-68090D03*
X84267Y-67834D03*
X81433Y-69114D03*
X84267Y-67578D03*
X84267Y-67066D03*
X84267Y-66811D03*
X84267Y-66555D03*
X81433Y-66555D03*
X81433Y-66811D03*
X81433Y-67066D03*
X81433Y-69370D03*
X81433Y-69625D03*
X81433Y-69881D03*
X84267Y-69881D03*
X84267Y-69625D03*
X84267Y-69370D03*
G54D13*
X79100Y-72092D03*
X78350Y-72092D03*
G54D14*
X78125Y-69543D03*
X78125Y-68793D03*
G54D17*
X83270Y-72468D03*
X83585Y-72468D03*
X83900Y-72468D03*
X84214Y-72468D03*
X84529Y-72468D03*
G54D18*
X82128Y-74749D03*
X85671Y-74749D03*
X82128Y-72583D03*
X85671Y-72583D03*
G54D19*
X75832Y-70018D03*
X75399Y-70018D03*
X74966Y-70018D03*
X74533Y-70018D03*
X74100Y-70018D03*
X73666Y-70018D03*
X73233Y-70018D03*
X72800Y-70018D03*
X72367Y-70018D03*
G54D20*
X71837Y-70254D03*
G54D21*
X71974Y-74101D03*
X78037Y-74101D03*
G54D22*
X77714Y-70172D03*
G54D13*
X63635Y-65994D03*
X64385Y-65994D03*
X61435Y-68394D03*
X62185Y-68394D03*
G54D14*
X60810Y-65769D03*
X60810Y-65019D03*
X65110Y-70169D03*
X65110Y-69419D03*
X64060Y-69619D03*
X64060Y-68869D03*
G54D13*
X62085Y-69169D03*
X62835Y-69169D03*
G54D14*
X60110Y-70069D03*
X60110Y-69319D03*
X65110Y-68819D03*
X65110Y-68069D03*
X64060Y-68219D03*
X64060Y-67469D03*
X63060Y-68494D03*
X63060Y-67744D03*
X60810Y-69269D03*
X60810Y-68519D03*
G54D13*
X64385Y-66744D03*
X63635Y-66744D03*
X61435Y-67694D03*
X62185Y-67694D03*
G54D14*
X58372Y-64556D03*
X58372Y-63806D03*
X60110Y-65169D03*
X60110Y-65919D03*
G54D23*
X63085Y-64585D03*
X62835Y-64585D03*
X62585Y-64585D03*
X62335Y-64585D03*
X62085Y-64585D03*
X61835Y-64585D03*
X61585Y-64585D03*
X61335Y-64585D03*
X61335Y-66703D03*
X61585Y-66703D03*
X61835Y-66703D03*
X62085Y-66703D03*
X62335Y-66703D03*
X62585Y-66703D03*
X62835Y-66703D03*
X63085Y-66703D03*
G54D13*
X60135Y-66544D03*
X59385Y-66544D03*
G54D14*
X54518Y-69737D03*
X54518Y-70487D03*
X53694Y-70462D03*
X53694Y-69712D03*
X56918Y-70537D03*
X56918Y-69787D03*
G54D24*
X55868Y-71362D03*
X53768Y-71362D03*
X55868Y-71862D03*
X55868Y-72362D03*
X55868Y-72862D03*
X53768Y-71862D03*
X53768Y-72362D03*
X53768Y-72862D03*
G54D14*
X57994Y-71137D03*
X57994Y-71887D03*
X74225Y-40475D03*
X74225Y-41225D03*
X74225Y-42075D03*
X74225Y-42825D03*
X74225Y-43475D03*
X74225Y-44225D03*
X74225Y-45075D03*
X74225Y-45825D03*
X74225Y-46475D03*
X74225Y-47225D03*
X74225Y-48075D03*
X74225Y-48825D03*
X75025Y-47225D03*
X75025Y-46475D03*
X75025Y-48825D03*
X75025Y-48075D03*
X75025Y-44225D03*
X75025Y-43475D03*
X75025Y-45825D03*
X75025Y-45075D03*
X75025Y-42825D03*
X75025Y-42075D03*
X75025Y-41225D03*
X75025Y-40475D03*
G54D25*
X77275Y-48750D03*
X77275Y-46650D03*
X76775Y-48750D03*
X76275Y-48750D03*
X75775Y-48750D03*
X76775Y-46650D03*
X76275Y-46650D03*
X75775Y-46650D03*
X79775Y-49750D03*
X79775Y-47650D03*
X79275Y-49750D03*
X78775Y-49750D03*
X78275Y-49750D03*
X79275Y-47650D03*
X78775Y-47650D03*
X78275Y-47650D03*
X77275Y-45750D03*
X77275Y-43650D03*
X76775Y-45750D03*
X76275Y-45750D03*
X75775Y-45750D03*
X76775Y-43650D03*
X76275Y-43650D03*
X75775Y-43650D03*
X79775Y-43750D03*
X79775Y-41650D03*
X79275Y-43750D03*
X78775Y-43750D03*
X78275Y-43750D03*
X79275Y-41650D03*
X78775Y-41650D03*
X78275Y-41650D03*
X77275Y-42750D03*
X77275Y-40650D03*
X76775Y-42750D03*
X76275Y-42750D03*
X75775Y-42750D03*
X76775Y-40650D03*
X76275Y-40650D03*
X75775Y-40650D03*
X79775Y-46750D03*
X79775Y-44650D03*
X79275Y-46750D03*
X78775Y-46750D03*
X78275Y-46750D03*
X79275Y-44650D03*
X78775Y-44650D03*
X78275Y-44650D03*
X77275Y-54750D03*
X77275Y-52650D03*
X76775Y-54750D03*
X76275Y-54750D03*
X75775Y-54750D03*
X76775Y-52650D03*
X76275Y-52650D03*
X75775Y-52650D03*
X79775Y-58750D03*
X79775Y-56650D03*
X79275Y-58750D03*
X78775Y-58750D03*
X78275Y-58750D03*
X79275Y-56650D03*
X78775Y-56650D03*
X78275Y-56650D03*
X77275Y-57750D03*
X77275Y-55650D03*
X76775Y-57750D03*
X76275Y-57750D03*
X75775Y-57750D03*
X76775Y-55650D03*
X76275Y-55650D03*
X75775Y-55650D03*
X79775Y-55750D03*
X79775Y-53650D03*
X79275Y-55750D03*
X78775Y-55750D03*
X78275Y-55750D03*
X79275Y-53650D03*
X78775Y-53650D03*
X78275Y-53650D03*
X77275Y-51750D03*
X77275Y-49650D03*
X76775Y-51750D03*
X76275Y-51750D03*
X75775Y-51750D03*
X76775Y-49650D03*
X76275Y-49650D03*
X75775Y-49650D03*
X79775Y-52750D03*
X79775Y-50650D03*
X79275Y-52750D03*
X78775Y-52750D03*
X78275Y-52750D03*
X79275Y-50650D03*
X78775Y-50650D03*
X78275Y-50650D03*
G54D14*
X75025Y-57825D03*
X75025Y-57075D03*
X75025Y-56225D03*
X75025Y-55475D03*
X75025Y-53225D03*
X75025Y-52475D03*
X75025Y-54825D03*
X75025Y-54075D03*
X75025Y-50225D03*
X75025Y-49475D03*
X75025Y-51825D03*
X75025Y-51075D03*
G54D26*
X79610Y-39740D03*
X80900Y-39740D03*
G54D13*
X78125Y-39750D03*
X78875Y-39750D03*
G54D15*
X78837Y-40500D03*
X79663Y-40500D03*
G54D14*
X74225Y-49475D03*
X74225Y-50225D03*
X74225Y-51075D03*
X74225Y-51825D03*
X74225Y-52475D03*
X74225Y-53225D03*
X74225Y-54075D03*
X74225Y-54825D03*
X74225Y-55475D03*
X74225Y-56225D03*
X74225Y-57075D03*
X74225Y-57825D03*
G54D27*
X77000Y-62850D03*
X77000Y-64150D03*
G54D21*
X82850Y-63000D03*
X84150Y-63000D03*
X82850Y-61500D03*
X84150Y-61500D03*
X82850Y-60000D03*
X84150Y-60000D03*
X82850Y-64500D03*
X84150Y-64500D03*
G54D27*
X77000Y-61650D03*
X77000Y-60350D03*
G54D13*
X74375Y-63500D03*
X73625Y-63500D03*
X75875Y-62750D03*
X75125Y-62750D03*
X80375Y-62750D03*
X79625Y-62750D03*
X80375Y-61750D03*
X79625Y-61750D03*
X81875Y-61500D03*
X81125Y-61500D03*
X78125Y-62750D03*
X78875Y-62750D03*
X81875Y-60500D03*
X81125Y-60500D03*
X80375Y-59750D03*
X79625Y-59750D03*
X75875Y-61750D03*
X75125Y-61750D03*
X74375Y-61000D03*
X73625Y-61000D03*
X78125Y-61750D03*
X78875Y-61750D03*
X81875Y-63250D03*
X81125Y-63250D03*
X72125Y-61000D03*
X72875Y-61000D03*
X81875Y-64250D03*
X81125Y-64250D03*
X80625Y-64750D03*
X79875Y-64750D03*
G54D28*
X78344Y-63366D03*
X78344Y-63622D03*
X78344Y-63878D03*
X78344Y-64134D03*
X80156Y-64134D03*
X80156Y-63878D03*
X80156Y-63622D03*
X80156Y-63366D03*
X72344Y-61866D03*
X72344Y-62122D03*
X72344Y-62378D03*
X72344Y-62634D03*
X74156Y-62634D03*
X74156Y-62378D03*
X74156Y-62122D03*
X74156Y-61866D03*
X78344Y-60366D03*
X78344Y-60622D03*
X78344Y-60878D03*
X78344Y-61134D03*
X80156Y-61134D03*
X80156Y-60878D03*
X80156Y-60622D03*
X80156Y-60366D03*
M02*
