G04 (created by PCBNEW (2013-07-07 BZR 4022)-stable) date 10/02/2014 08:40:50*
%MOIN*%
G04 Gerber Fmt 3.4, Leading zero omitted, Abs format*
%FSLAX34Y34*%
G01*
G70*
G90*
G04 APERTURE LIST*
%ADD10C,0.00590551*%
%ADD11C,0.006*%
%ADD12C,0.015*%
%ADD13C,0.0079*%
%ADD14C,0.012*%
G04 APERTURE END LIST*
G54D10*
G54D11*
X55349Y-57921D02*
X55349Y-57621D01*
X55235Y-57621D01*
X55207Y-57635D01*
X55192Y-57650D01*
X55178Y-57678D01*
X55178Y-57721D01*
X55192Y-57750D01*
X55207Y-57764D01*
X55235Y-57778D01*
X55349Y-57778D01*
X55064Y-57835D02*
X54921Y-57835D01*
X55092Y-57921D02*
X54992Y-57621D01*
X54892Y-57921D01*
X54749Y-57750D02*
X54778Y-57735D01*
X54792Y-57721D01*
X54807Y-57692D01*
X54807Y-57678D01*
X54792Y-57650D01*
X54778Y-57635D01*
X54749Y-57621D01*
X54692Y-57621D01*
X54664Y-57635D01*
X54649Y-57650D01*
X54635Y-57678D01*
X54635Y-57692D01*
X54649Y-57721D01*
X54664Y-57735D01*
X54692Y-57750D01*
X54749Y-57750D01*
X54778Y-57764D01*
X54792Y-57778D01*
X54807Y-57807D01*
X54807Y-57864D01*
X54792Y-57892D01*
X54778Y-57907D01*
X54749Y-57921D01*
X54692Y-57921D01*
X54664Y-57907D01*
X54649Y-57892D01*
X54635Y-57864D01*
X54635Y-57807D01*
X54649Y-57778D01*
X54664Y-57764D01*
X54692Y-57750D01*
X55331Y-58921D02*
X55331Y-58621D01*
X55217Y-58621D01*
X55188Y-58635D01*
X55174Y-58650D01*
X55160Y-58678D01*
X55160Y-58721D01*
X55174Y-58750D01*
X55188Y-58764D01*
X55217Y-58778D01*
X55331Y-58778D01*
X54860Y-58892D02*
X54874Y-58907D01*
X54917Y-58921D01*
X54945Y-58921D01*
X54988Y-58907D01*
X55017Y-58878D01*
X55031Y-58850D01*
X55045Y-58792D01*
X55045Y-58750D01*
X55031Y-58692D01*
X55017Y-58664D01*
X54988Y-58635D01*
X54945Y-58621D01*
X54917Y-58621D01*
X54874Y-58635D01*
X54860Y-58650D01*
X54688Y-58750D02*
X54717Y-58735D01*
X54731Y-58721D01*
X54745Y-58692D01*
X54745Y-58678D01*
X54731Y-58650D01*
X54717Y-58635D01*
X54688Y-58621D01*
X54631Y-58621D01*
X54602Y-58635D01*
X54588Y-58650D01*
X54574Y-58678D01*
X54574Y-58692D01*
X54588Y-58721D01*
X54602Y-58735D01*
X54631Y-58750D01*
X54688Y-58750D01*
X54717Y-58764D01*
X54731Y-58778D01*
X54745Y-58807D01*
X54745Y-58864D01*
X54731Y-58892D01*
X54717Y-58907D01*
X54688Y-58921D01*
X54631Y-58921D01*
X54602Y-58907D01*
X54588Y-58892D01*
X54574Y-58864D01*
X54574Y-58807D01*
X54588Y-58778D01*
X54602Y-58764D01*
X54631Y-58750D01*
X55371Y-59921D02*
X55371Y-59621D01*
X55257Y-59621D01*
X55228Y-59635D01*
X55214Y-59650D01*
X55200Y-59678D01*
X55200Y-59721D01*
X55214Y-59750D01*
X55228Y-59764D01*
X55257Y-59778D01*
X55371Y-59778D01*
X54900Y-59892D02*
X54914Y-59907D01*
X54957Y-59921D01*
X54985Y-59921D01*
X55028Y-59907D01*
X55057Y-59878D01*
X55071Y-59850D01*
X55085Y-59792D01*
X55085Y-59750D01*
X55071Y-59692D01*
X55057Y-59664D01*
X55028Y-59635D01*
X54985Y-59621D01*
X54957Y-59621D01*
X54914Y-59635D01*
X54900Y-59650D01*
X54642Y-59621D02*
X54700Y-59621D01*
X54728Y-59635D01*
X54742Y-59650D01*
X54771Y-59692D01*
X54785Y-59750D01*
X54785Y-59864D01*
X54771Y-59892D01*
X54757Y-59907D01*
X54728Y-59921D01*
X54671Y-59921D01*
X54642Y-59907D01*
X54628Y-59892D01*
X54614Y-59864D01*
X54614Y-59792D01*
X54628Y-59764D01*
X54642Y-59750D01*
X54671Y-59735D01*
X54728Y-59735D01*
X54757Y-59750D01*
X54771Y-59764D01*
X54785Y-59792D01*
X55188Y-60635D02*
X55217Y-60621D01*
X55260Y-60621D01*
X55302Y-60635D01*
X55331Y-60664D01*
X55345Y-60692D01*
X55360Y-60750D01*
X55360Y-60792D01*
X55345Y-60850D01*
X55331Y-60878D01*
X55302Y-60907D01*
X55260Y-60921D01*
X55231Y-60921D01*
X55188Y-60907D01*
X55174Y-60892D01*
X55174Y-60792D01*
X55231Y-60792D01*
X55045Y-60921D02*
X55045Y-60621D01*
X54874Y-60921D01*
X54874Y-60621D01*
X54731Y-60921D02*
X54731Y-60621D01*
X54660Y-60621D01*
X54617Y-60635D01*
X54588Y-60664D01*
X54574Y-60692D01*
X54560Y-60750D01*
X54560Y-60792D01*
X54574Y-60850D01*
X54588Y-60878D01*
X54617Y-60907D01*
X54660Y-60921D01*
X54731Y-60921D01*
X58349Y-57981D02*
X58349Y-57681D01*
X58235Y-57681D01*
X58207Y-57695D01*
X58192Y-57710D01*
X58178Y-57738D01*
X58178Y-57781D01*
X58192Y-57810D01*
X58207Y-57824D01*
X58235Y-57838D01*
X58349Y-57838D01*
X58064Y-57895D02*
X57921Y-57895D01*
X58092Y-57981D02*
X57992Y-57681D01*
X57892Y-57981D01*
X57778Y-57981D02*
X57721Y-57981D01*
X57692Y-57967D01*
X57678Y-57952D01*
X57649Y-57910D01*
X57635Y-57852D01*
X57635Y-57738D01*
X57649Y-57710D01*
X57664Y-57695D01*
X57692Y-57681D01*
X57749Y-57681D01*
X57778Y-57695D01*
X57792Y-57710D01*
X57807Y-57738D01*
X57807Y-57810D01*
X57792Y-57838D01*
X57778Y-57852D01*
X57749Y-57867D01*
X57692Y-57867D01*
X57664Y-57852D01*
X57649Y-57838D01*
X57635Y-57810D01*
X58371Y-58921D02*
X58371Y-58621D01*
X58257Y-58621D01*
X58228Y-58635D01*
X58214Y-58650D01*
X58200Y-58678D01*
X58200Y-58721D01*
X58214Y-58750D01*
X58228Y-58764D01*
X58257Y-58778D01*
X58371Y-58778D01*
X57900Y-58892D02*
X57914Y-58907D01*
X57957Y-58921D01*
X57985Y-58921D01*
X58028Y-58907D01*
X58057Y-58878D01*
X58071Y-58850D01*
X58085Y-58792D01*
X58085Y-58750D01*
X58071Y-58692D01*
X58057Y-58664D01*
X58028Y-58635D01*
X57985Y-58621D01*
X57957Y-58621D01*
X57914Y-58635D01*
X57900Y-58650D01*
X57757Y-58921D02*
X57700Y-58921D01*
X57671Y-58907D01*
X57657Y-58892D01*
X57628Y-58850D01*
X57614Y-58792D01*
X57614Y-58678D01*
X57628Y-58650D01*
X57642Y-58635D01*
X57671Y-58621D01*
X57728Y-58621D01*
X57757Y-58635D01*
X57771Y-58650D01*
X57785Y-58678D01*
X57785Y-58750D01*
X57771Y-58778D01*
X57757Y-58792D01*
X57728Y-58807D01*
X57671Y-58807D01*
X57642Y-58792D01*
X57628Y-58778D01*
X57614Y-58750D01*
X58371Y-59981D02*
X58371Y-59681D01*
X58257Y-59681D01*
X58228Y-59695D01*
X58214Y-59710D01*
X58200Y-59738D01*
X58200Y-59781D01*
X58214Y-59810D01*
X58228Y-59824D01*
X58257Y-59838D01*
X58371Y-59838D01*
X57900Y-59952D02*
X57914Y-59967D01*
X57957Y-59981D01*
X57985Y-59981D01*
X58028Y-59967D01*
X58057Y-59938D01*
X58071Y-59910D01*
X58085Y-59852D01*
X58085Y-59810D01*
X58071Y-59752D01*
X58057Y-59724D01*
X58028Y-59695D01*
X57985Y-59681D01*
X57957Y-59681D01*
X57914Y-59695D01*
X57900Y-59710D01*
X57800Y-59681D02*
X57600Y-59681D01*
X57728Y-59981D01*
X58228Y-60635D02*
X58257Y-60621D01*
X58300Y-60621D01*
X58342Y-60635D01*
X58371Y-60664D01*
X58385Y-60692D01*
X58400Y-60750D01*
X58400Y-60792D01*
X58385Y-60850D01*
X58371Y-60878D01*
X58342Y-60907D01*
X58300Y-60921D01*
X58271Y-60921D01*
X58228Y-60907D01*
X58214Y-60892D01*
X58214Y-60792D01*
X58271Y-60792D01*
X58085Y-60921D02*
X58085Y-60621D01*
X57914Y-60921D01*
X57914Y-60621D01*
X57771Y-60921D02*
X57771Y-60621D01*
X57700Y-60621D01*
X57657Y-60635D01*
X57628Y-60664D01*
X57614Y-60692D01*
X57600Y-60750D01*
X57600Y-60792D01*
X57614Y-60850D01*
X57628Y-60878D01*
X57657Y-60907D01*
X57700Y-60921D01*
X57771Y-60921D01*
X38652Y-38921D02*
X38652Y-38621D01*
X38481Y-38921D01*
X38481Y-38621D01*
X38167Y-38921D02*
X38267Y-38778D01*
X38338Y-38921D02*
X38338Y-38621D01*
X38224Y-38621D01*
X38195Y-38635D01*
X38181Y-38650D01*
X38167Y-38678D01*
X38167Y-38721D01*
X38181Y-38750D01*
X38195Y-38764D01*
X38224Y-38778D01*
X38338Y-38778D01*
X38052Y-38907D02*
X38009Y-38921D01*
X37938Y-38921D01*
X37909Y-38907D01*
X37895Y-38892D01*
X37881Y-38864D01*
X37881Y-38835D01*
X37895Y-38807D01*
X37909Y-38792D01*
X37938Y-38778D01*
X37995Y-38764D01*
X38024Y-38750D01*
X38038Y-38735D01*
X38052Y-38707D01*
X38052Y-38678D01*
X38038Y-38650D01*
X38024Y-38635D01*
X37995Y-38621D01*
X37924Y-38621D01*
X37881Y-38635D01*
X37795Y-38621D02*
X37624Y-38621D01*
X37709Y-38921D02*
X37709Y-38621D01*
X38349Y-41481D02*
X38349Y-41181D01*
X38235Y-41181D01*
X38207Y-41195D01*
X38192Y-41210D01*
X38178Y-41238D01*
X38178Y-41281D01*
X38192Y-41310D01*
X38207Y-41324D01*
X38235Y-41338D01*
X38349Y-41338D01*
X38064Y-41395D02*
X37921Y-41395D01*
X38092Y-41481D02*
X37992Y-41181D01*
X37892Y-41481D01*
X37735Y-41181D02*
X37707Y-41181D01*
X37678Y-41195D01*
X37664Y-41210D01*
X37649Y-41238D01*
X37635Y-41295D01*
X37635Y-41367D01*
X37649Y-41424D01*
X37664Y-41452D01*
X37678Y-41467D01*
X37707Y-41481D01*
X37735Y-41481D01*
X37764Y-41467D01*
X37778Y-41452D01*
X37792Y-41424D01*
X37807Y-41367D01*
X37807Y-41295D01*
X37792Y-41238D01*
X37778Y-41210D01*
X37764Y-41195D01*
X37735Y-41181D01*
X38371Y-46921D02*
X38371Y-46621D01*
X38257Y-46621D01*
X38228Y-46635D01*
X38214Y-46650D01*
X38200Y-46678D01*
X38200Y-46721D01*
X38214Y-46750D01*
X38228Y-46764D01*
X38257Y-46778D01*
X38371Y-46778D01*
X37971Y-46764D02*
X37928Y-46778D01*
X37914Y-46792D01*
X37900Y-46821D01*
X37900Y-46864D01*
X37914Y-46892D01*
X37928Y-46907D01*
X37957Y-46921D01*
X38071Y-46921D01*
X38071Y-46621D01*
X37971Y-46621D01*
X37942Y-46635D01*
X37928Y-46650D01*
X37914Y-46678D01*
X37914Y-46707D01*
X37928Y-46735D01*
X37942Y-46750D01*
X37971Y-46764D01*
X38071Y-46764D01*
X37714Y-46621D02*
X37685Y-46621D01*
X37657Y-46635D01*
X37642Y-46650D01*
X37628Y-46678D01*
X37614Y-46735D01*
X37614Y-46807D01*
X37628Y-46864D01*
X37642Y-46892D01*
X37657Y-46907D01*
X37685Y-46921D01*
X37714Y-46921D01*
X37742Y-46907D01*
X37757Y-46892D01*
X37771Y-46864D01*
X37785Y-46807D01*
X37785Y-46735D01*
X37771Y-46678D01*
X37757Y-46650D01*
X37742Y-46635D01*
X37714Y-46621D01*
X38371Y-45921D02*
X38371Y-45621D01*
X38257Y-45621D01*
X38228Y-45635D01*
X38214Y-45650D01*
X38200Y-45678D01*
X38200Y-45721D01*
X38214Y-45750D01*
X38228Y-45764D01*
X38257Y-45778D01*
X38371Y-45778D01*
X37900Y-45892D02*
X37914Y-45907D01*
X37957Y-45921D01*
X37985Y-45921D01*
X38028Y-45907D01*
X38057Y-45878D01*
X38071Y-45850D01*
X38085Y-45792D01*
X38085Y-45750D01*
X38071Y-45692D01*
X38057Y-45664D01*
X38028Y-45635D01*
X37985Y-45621D01*
X37957Y-45621D01*
X37914Y-45635D01*
X37900Y-45650D01*
X37642Y-45721D02*
X37642Y-45921D01*
X37714Y-45607D02*
X37785Y-45821D01*
X37600Y-45821D01*
X38349Y-44921D02*
X38349Y-44621D01*
X38235Y-44621D01*
X38207Y-44635D01*
X38192Y-44650D01*
X38178Y-44678D01*
X38178Y-44721D01*
X38192Y-44750D01*
X38207Y-44764D01*
X38235Y-44778D01*
X38349Y-44778D01*
X38064Y-44835D02*
X37921Y-44835D01*
X38092Y-44921D02*
X37992Y-44621D01*
X37892Y-44921D01*
X37664Y-44621D02*
X37721Y-44621D01*
X37749Y-44635D01*
X37764Y-44650D01*
X37792Y-44692D01*
X37807Y-44750D01*
X37807Y-44864D01*
X37792Y-44892D01*
X37778Y-44907D01*
X37749Y-44921D01*
X37692Y-44921D01*
X37664Y-44907D01*
X37649Y-44892D01*
X37635Y-44864D01*
X37635Y-44792D01*
X37649Y-44764D01*
X37664Y-44750D01*
X37692Y-44735D01*
X37749Y-44735D01*
X37778Y-44750D01*
X37792Y-44764D01*
X37807Y-44792D01*
X38349Y-43921D02*
X38349Y-43621D01*
X38235Y-43621D01*
X38207Y-43635D01*
X38192Y-43650D01*
X38178Y-43678D01*
X38178Y-43721D01*
X38192Y-43750D01*
X38207Y-43764D01*
X38235Y-43778D01*
X38349Y-43778D01*
X38064Y-43835D02*
X37921Y-43835D01*
X38092Y-43921D02*
X37992Y-43621D01*
X37892Y-43921D01*
X37664Y-43721D02*
X37664Y-43921D01*
X37735Y-43607D02*
X37807Y-43821D01*
X37621Y-43821D01*
X35371Y-45921D02*
X35371Y-45621D01*
X35257Y-45621D01*
X35228Y-45635D01*
X35214Y-45650D01*
X35200Y-45678D01*
X35200Y-45721D01*
X35214Y-45750D01*
X35228Y-45764D01*
X35257Y-45778D01*
X35371Y-45778D01*
X34900Y-45892D02*
X34914Y-45907D01*
X34957Y-45921D01*
X34985Y-45921D01*
X35028Y-45907D01*
X35057Y-45878D01*
X35071Y-45850D01*
X35085Y-45792D01*
X35085Y-45750D01*
X35071Y-45692D01*
X35057Y-45664D01*
X35028Y-45635D01*
X34985Y-45621D01*
X34957Y-45621D01*
X34914Y-45635D01*
X34900Y-45650D01*
X34628Y-45621D02*
X34771Y-45621D01*
X34785Y-45764D01*
X34771Y-45750D01*
X34742Y-45735D01*
X34671Y-45735D01*
X34642Y-45750D01*
X34628Y-45764D01*
X34614Y-45792D01*
X34614Y-45864D01*
X34628Y-45892D01*
X34642Y-45907D01*
X34671Y-45921D01*
X34742Y-45921D01*
X34771Y-45907D01*
X34785Y-45892D01*
X35349Y-44921D02*
X35349Y-44621D01*
X35235Y-44621D01*
X35207Y-44635D01*
X35192Y-44650D01*
X35178Y-44678D01*
X35178Y-44721D01*
X35192Y-44750D01*
X35207Y-44764D01*
X35235Y-44778D01*
X35349Y-44778D01*
X35064Y-44835D02*
X34921Y-44835D01*
X35092Y-44921D02*
X34992Y-44621D01*
X34892Y-44921D01*
X34821Y-44621D02*
X34621Y-44621D01*
X34749Y-44921D01*
X35349Y-43921D02*
X35349Y-43621D01*
X35235Y-43621D01*
X35207Y-43635D01*
X35192Y-43650D01*
X35178Y-43678D01*
X35178Y-43721D01*
X35192Y-43750D01*
X35207Y-43764D01*
X35235Y-43778D01*
X35349Y-43778D01*
X35064Y-43835D02*
X34921Y-43835D01*
X35092Y-43921D02*
X34992Y-43621D01*
X34892Y-43921D01*
X34649Y-43621D02*
X34792Y-43621D01*
X34807Y-43764D01*
X34792Y-43750D01*
X34764Y-43735D01*
X34692Y-43735D01*
X34664Y-43750D01*
X34649Y-43764D01*
X34635Y-43792D01*
X34635Y-43864D01*
X34649Y-43892D01*
X34664Y-43907D01*
X34692Y-43921D01*
X34764Y-43921D01*
X34792Y-43907D01*
X34807Y-43892D01*
X35349Y-42921D02*
X35349Y-42621D01*
X35235Y-42621D01*
X35207Y-42635D01*
X35192Y-42650D01*
X35178Y-42678D01*
X35178Y-42721D01*
X35192Y-42750D01*
X35207Y-42764D01*
X35235Y-42778D01*
X35349Y-42778D01*
X35064Y-42835D02*
X34921Y-42835D01*
X35092Y-42921D02*
X34992Y-42621D01*
X34892Y-42921D01*
X34821Y-42621D02*
X34635Y-42621D01*
X34735Y-42735D01*
X34692Y-42735D01*
X34664Y-42750D01*
X34649Y-42764D01*
X34635Y-42792D01*
X34635Y-42864D01*
X34649Y-42892D01*
X34664Y-42907D01*
X34692Y-42921D01*
X34778Y-42921D01*
X34807Y-42907D01*
X34821Y-42892D01*
X35349Y-41921D02*
X35349Y-41621D01*
X35235Y-41621D01*
X35207Y-41635D01*
X35192Y-41650D01*
X35178Y-41678D01*
X35178Y-41721D01*
X35192Y-41750D01*
X35207Y-41764D01*
X35235Y-41778D01*
X35349Y-41778D01*
X35064Y-41835D02*
X34921Y-41835D01*
X35092Y-41921D02*
X34992Y-41621D01*
X34892Y-41921D01*
X34635Y-41921D02*
X34807Y-41921D01*
X34721Y-41921D02*
X34721Y-41621D01*
X34749Y-41664D01*
X34778Y-41692D01*
X34807Y-41707D01*
X35331Y-40921D02*
X35331Y-40621D01*
X35217Y-40621D01*
X35188Y-40635D01*
X35174Y-40650D01*
X35160Y-40678D01*
X35160Y-40721D01*
X35174Y-40750D01*
X35188Y-40764D01*
X35217Y-40778D01*
X35331Y-40778D01*
X34860Y-40892D02*
X34874Y-40907D01*
X34917Y-40921D01*
X34945Y-40921D01*
X34988Y-40907D01*
X35017Y-40878D01*
X35031Y-40850D01*
X35045Y-40792D01*
X35045Y-40750D01*
X35031Y-40692D01*
X35017Y-40664D01*
X34988Y-40635D01*
X34945Y-40621D01*
X34917Y-40621D01*
X34874Y-40635D01*
X34860Y-40650D01*
X34760Y-40621D02*
X34574Y-40621D01*
X34674Y-40735D01*
X34631Y-40735D01*
X34602Y-40750D01*
X34588Y-40764D01*
X34574Y-40792D01*
X34574Y-40864D01*
X34588Y-40892D01*
X34602Y-40907D01*
X34631Y-40921D01*
X34717Y-40921D01*
X34745Y-40907D01*
X34760Y-40892D01*
X35371Y-39921D02*
X35371Y-39621D01*
X35257Y-39621D01*
X35228Y-39635D01*
X35214Y-39650D01*
X35200Y-39678D01*
X35200Y-39721D01*
X35214Y-39750D01*
X35228Y-39764D01*
X35257Y-39778D01*
X35371Y-39778D01*
X34900Y-39892D02*
X34914Y-39907D01*
X34957Y-39921D01*
X34985Y-39921D01*
X35028Y-39907D01*
X35057Y-39878D01*
X35071Y-39850D01*
X35085Y-39792D01*
X35085Y-39750D01*
X35071Y-39692D01*
X35057Y-39664D01*
X35028Y-39635D01*
X34985Y-39621D01*
X34957Y-39621D01*
X34914Y-39635D01*
X34900Y-39650D01*
X34614Y-39921D02*
X34785Y-39921D01*
X34700Y-39921D02*
X34700Y-39621D01*
X34728Y-39664D01*
X34757Y-39692D01*
X34785Y-39707D01*
X35188Y-38635D02*
X35217Y-38621D01*
X35260Y-38621D01*
X35302Y-38635D01*
X35331Y-38664D01*
X35345Y-38692D01*
X35360Y-38750D01*
X35360Y-38792D01*
X35345Y-38850D01*
X35331Y-38878D01*
X35302Y-38907D01*
X35260Y-38921D01*
X35231Y-38921D01*
X35188Y-38907D01*
X35174Y-38892D01*
X35174Y-38792D01*
X35231Y-38792D01*
X35045Y-38921D02*
X35045Y-38621D01*
X34874Y-38921D01*
X34874Y-38621D01*
X34731Y-38921D02*
X34731Y-38621D01*
X34660Y-38621D01*
X34617Y-38635D01*
X34588Y-38664D01*
X34574Y-38692D01*
X34560Y-38750D01*
X34560Y-38792D01*
X34574Y-38850D01*
X34588Y-38878D01*
X34617Y-38907D01*
X34660Y-38921D01*
X34731Y-38921D01*
X38460Y-37621D02*
X38360Y-37921D01*
X38260Y-37621D01*
X38159Y-37921D02*
X38159Y-37621D01*
X38088Y-37621D01*
X38045Y-37635D01*
X38017Y-37664D01*
X38002Y-37692D01*
X37988Y-37750D01*
X37988Y-37792D01*
X38002Y-37850D01*
X38017Y-37878D01*
X38045Y-37907D01*
X38088Y-37921D01*
X38159Y-37921D01*
X37859Y-37921D02*
X37859Y-37621D01*
X37788Y-37621D01*
X37745Y-37635D01*
X37717Y-37664D01*
X37702Y-37692D01*
X37688Y-37750D01*
X37688Y-37792D01*
X37702Y-37850D01*
X37717Y-37878D01*
X37745Y-37907D01*
X37788Y-37921D01*
X37859Y-37921D01*
X38288Y-36635D02*
X38317Y-36621D01*
X38360Y-36621D01*
X38402Y-36635D01*
X38431Y-36664D01*
X38445Y-36692D01*
X38460Y-36750D01*
X38460Y-36792D01*
X38445Y-36850D01*
X38431Y-36878D01*
X38402Y-36907D01*
X38360Y-36921D01*
X38331Y-36921D01*
X38288Y-36907D01*
X38274Y-36892D01*
X38274Y-36792D01*
X38331Y-36792D01*
X38145Y-36921D02*
X38145Y-36621D01*
X37974Y-36921D01*
X37974Y-36621D01*
X37831Y-36921D02*
X37831Y-36621D01*
X37760Y-36621D01*
X37717Y-36635D01*
X37688Y-36664D01*
X37674Y-36692D01*
X37660Y-36750D01*
X37660Y-36792D01*
X37674Y-36850D01*
X37688Y-36878D01*
X37717Y-36907D01*
X37760Y-36921D01*
X37831Y-36921D01*
X35400Y-37621D02*
X35300Y-37921D01*
X35200Y-37621D01*
X35099Y-37921D02*
X35099Y-37621D01*
X35028Y-37621D01*
X34985Y-37635D01*
X34957Y-37664D01*
X34942Y-37692D01*
X34928Y-37750D01*
X34928Y-37792D01*
X34942Y-37850D01*
X34957Y-37878D01*
X34985Y-37907D01*
X35028Y-37921D01*
X35099Y-37921D01*
X34799Y-37921D02*
X34799Y-37621D01*
X34728Y-37621D01*
X34685Y-37635D01*
X34657Y-37664D01*
X34642Y-37692D01*
X34628Y-37750D01*
X34628Y-37792D01*
X34642Y-37850D01*
X34657Y-37878D01*
X34685Y-37907D01*
X34728Y-37921D01*
X34799Y-37921D01*
X35168Y-36635D02*
X35197Y-36621D01*
X35240Y-36621D01*
X35282Y-36635D01*
X35311Y-36664D01*
X35325Y-36692D01*
X35340Y-36750D01*
X35340Y-36792D01*
X35325Y-36850D01*
X35311Y-36878D01*
X35282Y-36907D01*
X35240Y-36921D01*
X35211Y-36921D01*
X35168Y-36907D01*
X35154Y-36892D01*
X35154Y-36792D01*
X35211Y-36792D01*
X35025Y-36921D02*
X35025Y-36621D01*
X34854Y-36921D01*
X34854Y-36621D01*
X34711Y-36921D02*
X34711Y-36621D01*
X34640Y-36621D01*
X34597Y-36635D01*
X34568Y-36664D01*
X34554Y-36692D01*
X34540Y-36750D01*
X34540Y-36792D01*
X34554Y-36850D01*
X34568Y-36878D01*
X34597Y-36907D01*
X34640Y-36921D01*
X34711Y-36921D01*
X35371Y-46921D02*
X35371Y-46621D01*
X35257Y-46621D01*
X35228Y-46635D01*
X35214Y-46650D01*
X35200Y-46678D01*
X35200Y-46721D01*
X35214Y-46750D01*
X35228Y-46764D01*
X35257Y-46778D01*
X35371Y-46778D01*
X34971Y-46764D02*
X34928Y-46778D01*
X34914Y-46792D01*
X34900Y-46821D01*
X34900Y-46864D01*
X34914Y-46892D01*
X34928Y-46907D01*
X34957Y-46921D01*
X35071Y-46921D01*
X35071Y-46621D01*
X34971Y-46621D01*
X34942Y-46635D01*
X34928Y-46650D01*
X34914Y-46678D01*
X34914Y-46707D01*
X34928Y-46735D01*
X34942Y-46750D01*
X34971Y-46764D01*
X35071Y-46764D01*
X34614Y-46921D02*
X34785Y-46921D01*
X34700Y-46921D02*
X34700Y-46621D01*
X34728Y-46664D01*
X34757Y-46692D01*
X34785Y-46707D01*
X38421Y-39921D02*
X38421Y-39621D01*
X38307Y-39621D01*
X38278Y-39635D01*
X38264Y-39650D01*
X38250Y-39678D01*
X38250Y-39721D01*
X38264Y-39750D01*
X38278Y-39764D01*
X38307Y-39778D01*
X38421Y-39778D01*
X37950Y-39892D02*
X37964Y-39907D01*
X38007Y-39921D01*
X38035Y-39921D01*
X38078Y-39907D01*
X38107Y-39878D01*
X38121Y-39850D01*
X38135Y-39792D01*
X38135Y-39750D01*
X38121Y-39692D01*
X38107Y-39664D01*
X38078Y-39635D01*
X38035Y-39621D01*
X38007Y-39621D01*
X37964Y-39635D01*
X37950Y-39650D01*
X37764Y-39621D02*
X37735Y-39621D01*
X37707Y-39635D01*
X37692Y-39650D01*
X37678Y-39678D01*
X37664Y-39735D01*
X37664Y-39807D01*
X37678Y-39864D01*
X37692Y-39892D01*
X37707Y-39907D01*
X37735Y-39921D01*
X37764Y-39921D01*
X37792Y-39907D01*
X37807Y-39892D01*
X37821Y-39864D01*
X37835Y-39807D01*
X37835Y-39735D01*
X37821Y-39678D01*
X37807Y-39650D01*
X37792Y-39635D01*
X37764Y-39621D01*
X38421Y-40921D02*
X38421Y-40621D01*
X38307Y-40621D01*
X38278Y-40635D01*
X38264Y-40650D01*
X38250Y-40678D01*
X38250Y-40721D01*
X38264Y-40750D01*
X38278Y-40764D01*
X38307Y-40778D01*
X38421Y-40778D01*
X37950Y-40892D02*
X37964Y-40907D01*
X38007Y-40921D01*
X38035Y-40921D01*
X38078Y-40907D01*
X38107Y-40878D01*
X38121Y-40850D01*
X38135Y-40792D01*
X38135Y-40750D01*
X38121Y-40692D01*
X38107Y-40664D01*
X38078Y-40635D01*
X38035Y-40621D01*
X38007Y-40621D01*
X37964Y-40635D01*
X37950Y-40650D01*
X37835Y-40650D02*
X37821Y-40635D01*
X37792Y-40621D01*
X37721Y-40621D01*
X37692Y-40635D01*
X37678Y-40650D01*
X37664Y-40678D01*
X37664Y-40707D01*
X37678Y-40750D01*
X37850Y-40921D01*
X37664Y-40921D01*
X38349Y-43221D02*
X38349Y-42921D01*
X38235Y-42921D01*
X38207Y-42935D01*
X38192Y-42950D01*
X38178Y-42978D01*
X38178Y-43021D01*
X38192Y-43050D01*
X38207Y-43064D01*
X38235Y-43078D01*
X38349Y-43078D01*
X38064Y-43135D02*
X37921Y-43135D01*
X38092Y-43221D02*
X37992Y-42921D01*
X37892Y-43221D01*
X37807Y-42950D02*
X37792Y-42935D01*
X37764Y-42921D01*
X37692Y-42921D01*
X37664Y-42935D01*
X37649Y-42950D01*
X37635Y-42978D01*
X37635Y-43007D01*
X37649Y-43050D01*
X37821Y-43221D01*
X37635Y-43221D01*
X38371Y-47921D02*
X38371Y-47621D01*
X38257Y-47621D01*
X38228Y-47635D01*
X38214Y-47650D01*
X38200Y-47678D01*
X38200Y-47721D01*
X38214Y-47750D01*
X38228Y-47764D01*
X38257Y-47778D01*
X38371Y-47778D01*
X37971Y-47764D02*
X37928Y-47778D01*
X37914Y-47792D01*
X37900Y-47821D01*
X37900Y-47864D01*
X37914Y-47892D01*
X37928Y-47907D01*
X37957Y-47921D01*
X38071Y-47921D01*
X38071Y-47621D01*
X37971Y-47621D01*
X37942Y-47635D01*
X37928Y-47650D01*
X37914Y-47678D01*
X37914Y-47707D01*
X37928Y-47735D01*
X37942Y-47750D01*
X37971Y-47764D01*
X38071Y-47764D01*
X37785Y-47650D02*
X37771Y-47635D01*
X37742Y-47621D01*
X37671Y-47621D01*
X37642Y-47635D01*
X37628Y-47650D01*
X37614Y-47678D01*
X37614Y-47707D01*
X37628Y-47750D01*
X37800Y-47921D01*
X37614Y-47921D01*
G54D12*
X44950Y-39950D02*
X44450Y-39950D01*
X44700Y-40200D02*
X44700Y-39700D01*
G54D13*
X49985Y-45950D02*
G75*
G03X49985Y-45950I-3535J0D01*
G74*
G01*
X50751Y-45950D02*
G75*
G03X50751Y-45950I-4301J0D01*
G74*
G01*
G54D14*
X42039Y-45878D02*
X41953Y-45907D01*
X41925Y-45935D01*
X41896Y-45992D01*
X41896Y-46078D01*
X41925Y-46135D01*
X41953Y-46164D01*
X42010Y-46192D01*
X42239Y-46192D01*
X42239Y-45592D01*
X42039Y-45592D01*
X41982Y-45621D01*
X41953Y-45650D01*
X41925Y-45707D01*
X41925Y-45764D01*
X41953Y-45821D01*
X41982Y-45850D01*
X42039Y-45878D01*
X42239Y-45878D01*
X41725Y-45592D02*
X41382Y-45592D01*
X41553Y-46192D02*
X41553Y-45592D01*
X40868Y-46192D02*
X41210Y-46192D01*
X41039Y-46192D02*
X41039Y-45592D01*
X41096Y-45678D01*
X41153Y-45735D01*
X41210Y-45764D01*
M02*
