M48
;DRILL file {Pcbnew (2013-07-07 BZR 4022)-stable} date 07/12/2013 21:30:02
;FORMAT={-:-/ absolute / inch / decimal}
FMAT,2
INCH,TZ
T1C0.025
T2C0.040
%
G90
G05
M72
T1
X2.875Y-1.905
X2.97Y-1.465
X3.055Y-1.76
X3.488Y-1.448
X3.562Y-1.304
X3.572Y-1.634
X3.625Y-1.425
X3.6477Y-1.305
X3.805Y-1.305
X3.954Y-1.622
X4.03Y-1.7
T2
X2.7165Y-1.1417
X2.7165Y-1.2417
X3.415Y-1.755
X3.415Y-1.855
X3.515Y-1.755
X3.515Y-1.855
X3.615Y-1.755
X3.615Y-1.855
X3.695Y-0.89
X3.715Y-1.755
X3.715Y-1.855
X3.795Y-0.89
X3.895Y-0.89
X3.995Y-0.89
T0
M30
