G04 (created by PCBNEW (2013-07-07 BZR 4022)-stable) date 09/12/2013 14:31:14*
%MOIN*%
G04 Gerber Fmt 3.4, Leading zero omitted, Abs format*
%FSLAX34Y34*%
G01*
G70*
G90*
G04 APERTURE LIST*
%ADD10C,0.00393701*%
%ADD11R,0.0579X0.0165*%
%ADD12R,0.0276X0.063*%
%ADD13R,0.0276X0.0827*%
%ADD14R,0.0787X0.1083*%
%ADD15R,0.06X0.08*%
%ADD16R,0.08X0.06*%
%ADD17R,0.035X0.055*%
%ADD18R,0.2165X0.0787*%
%ADD19R,0.06X0.06*%
%ADD20C,0.06*%
%ADD21R,0.0709X0.0629*%
%ADD22R,0.1417X0.063*%
%ADD23R,0.1024X0.063*%
%ADD24C,0.16*%
%ADD25C,0.035*%
%ADD26C,0.019685*%
%ADD27C,0.0393701*%
%ADD28C,0.011811*%
%ADD29C,0.01*%
%ADD30C,0.00984252*%
G04 APERTURE END LIST*
G54D10*
G54D11*
X35512Y-14438D03*
X35512Y-14694D03*
X35512Y-14950D03*
X35512Y-15206D03*
X37714Y-13674D03*
X35512Y-13670D03*
X35512Y-13926D03*
X35512Y-14182D03*
X37716Y-15462D03*
X37716Y-15206D03*
X37716Y-14950D03*
X37716Y-14694D03*
X37716Y-14438D03*
X37716Y-14182D03*
X35512Y-15462D03*
X37714Y-13926D03*
X35512Y-13414D03*
X35512Y-15718D03*
X37716Y-15718D03*
X37716Y-13414D03*
G54D12*
X29451Y-12192D03*
G54D13*
X28860Y-12290D03*
G54D12*
X28269Y-12192D03*
G54D14*
X28860Y-13235D03*
G54D15*
X40170Y-16220D03*
X38870Y-16220D03*
G54D16*
X31700Y-17550D03*
X31700Y-18850D03*
G54D15*
X30700Y-13700D03*
X32000Y-13700D03*
X33050Y-13700D03*
X34350Y-13700D03*
G54D16*
X32850Y-9200D03*
X32850Y-10500D03*
X32750Y-17550D03*
X32750Y-18850D03*
X33800Y-11400D03*
X33800Y-12700D03*
X35150Y-10450D03*
X35150Y-9150D03*
X33400Y-16350D03*
X33400Y-15050D03*
X34850Y-12700D03*
X34850Y-11400D03*
G54D15*
X38950Y-14800D03*
X40250Y-14800D03*
X38950Y-13750D03*
X40250Y-13750D03*
X38950Y-12200D03*
X40250Y-12200D03*
X36650Y-12200D03*
X37950Y-12200D03*
X40250Y-11150D03*
X38950Y-11150D03*
X40250Y-10100D03*
X38950Y-10100D03*
X37950Y-10100D03*
X36650Y-10100D03*
X37950Y-11150D03*
X36650Y-11150D03*
G54D17*
X27925Y-14650D03*
X28675Y-14650D03*
X31575Y-14650D03*
X30825Y-14650D03*
G54D18*
X27900Y-16100D03*
X31600Y-16100D03*
G54D19*
X34150Y-18550D03*
G54D20*
X34150Y-17550D03*
X35150Y-18550D03*
X35150Y-17550D03*
X36150Y-18550D03*
X36150Y-17550D03*
X37150Y-18550D03*
X37150Y-17550D03*
G54D19*
X38950Y-8900D03*
G54D20*
X39950Y-8900D03*
G54D19*
X36950Y-8900D03*
G54D20*
X37950Y-8900D03*
G54D19*
X26950Y-13200D03*
G54D20*
X26950Y-12200D03*
G54D21*
X34000Y-9291D03*
X34000Y-10409D03*
G54D22*
X29231Y-9842D03*
X31397Y-9842D03*
G54D23*
X32409Y-12150D03*
X30991Y-12150D03*
G54D15*
X26900Y-18350D03*
X28200Y-18350D03*
X29300Y-18350D03*
X30600Y-18350D03*
X26950Y-10950D03*
X28250Y-10950D03*
G54D24*
X39763Y-18110D03*
X27559Y-9448D03*
G54D25*
X35620Y-13040D03*
X39540Y-16220D03*
X36050Y-16200D03*
X34750Y-14500D03*
X30550Y-17600D03*
X36250Y-14250D03*
X28750Y-19000D03*
X29750Y-14700D03*
X40300Y-17000D03*
X38050Y-13050D03*
X36476Y-13050D03*
G54D26*
X28269Y-12192D02*
X28269Y-10969D01*
X28269Y-10969D02*
X28250Y-10950D01*
G54D27*
X28250Y-10950D02*
X28950Y-10950D01*
X29231Y-10668D02*
X29231Y-9842D01*
X28950Y-10950D02*
X29231Y-10668D01*
G54D26*
X33050Y-13700D02*
X33050Y-13050D01*
X30700Y-13700D02*
X30700Y-13150D01*
X33400Y-12700D02*
X33800Y-12700D01*
X33050Y-13050D02*
X33400Y-12700D01*
X30800Y-13050D02*
X33050Y-13050D01*
X30700Y-13150D02*
X30800Y-13050D01*
X31700Y-17550D02*
X31100Y-17550D01*
X30200Y-13700D02*
X30700Y-13700D01*
X29800Y-14100D02*
X30200Y-13700D01*
X26900Y-14100D02*
X29800Y-14100D01*
X26600Y-14400D02*
X26900Y-14100D01*
X26600Y-16900D02*
X26600Y-14400D01*
X26900Y-17200D02*
X26600Y-16900D01*
X30750Y-17200D02*
X26900Y-17200D01*
X31100Y-17550D02*
X30750Y-17200D01*
G54D28*
X40170Y-16220D02*
X39540Y-16220D01*
X35512Y-13147D02*
X35512Y-13414D01*
X35620Y-13040D02*
X35512Y-13147D01*
G54D26*
X32750Y-17550D02*
X31700Y-17550D01*
G54D28*
X34950Y-12700D02*
X34950Y-13250D01*
G54D26*
X33800Y-12700D02*
X34950Y-12700D01*
G54D28*
X34950Y-13250D02*
X35114Y-13414D01*
X35114Y-13414D02*
X35512Y-13414D01*
G54D29*
X32000Y-13700D02*
X32000Y-13800D01*
X34756Y-15206D02*
X35512Y-15206D01*
X34000Y-14450D02*
X34756Y-15206D01*
X32650Y-14450D02*
X34000Y-14450D01*
X32000Y-13800D02*
X32650Y-14450D01*
X35512Y-15206D02*
X35906Y-15206D01*
X36050Y-15350D02*
X36050Y-16200D01*
X35906Y-15206D02*
X36050Y-15350D01*
X37950Y-12200D02*
X37950Y-12300D01*
X37705Y-14450D02*
X37716Y-14438D01*
X37350Y-14450D02*
X37705Y-14450D01*
X37150Y-14250D02*
X37350Y-14450D01*
X37150Y-13100D02*
X37150Y-14250D01*
X37950Y-12300D02*
X37150Y-13100D01*
X37716Y-14438D02*
X38138Y-14438D01*
X40250Y-15350D02*
X40250Y-14800D01*
X40050Y-15550D02*
X40250Y-15350D01*
X38550Y-15550D02*
X40050Y-15550D01*
X38250Y-15250D02*
X38550Y-15550D01*
X38250Y-14550D02*
X38250Y-15250D01*
X38138Y-14438D02*
X38250Y-14550D01*
G54D28*
X40250Y-13000D02*
X40250Y-13050D01*
X40250Y-13050D02*
X40250Y-12200D01*
G54D29*
X37714Y-13674D02*
X38125Y-13674D01*
G54D28*
X40250Y-13750D02*
X40250Y-13000D01*
G54D29*
X38125Y-13674D02*
X38400Y-13400D01*
X38400Y-13400D02*
X38400Y-13100D01*
X38400Y-13100D02*
X38500Y-13000D01*
X38500Y-13000D02*
X40250Y-13000D01*
X34750Y-14500D02*
X34600Y-14650D01*
G54D28*
X34350Y-14400D02*
X34350Y-13700D01*
X34655Y-14705D02*
X34600Y-14650D01*
X34600Y-14650D02*
X34350Y-14400D01*
X35512Y-14950D02*
X34900Y-14950D01*
X34900Y-14950D02*
X34655Y-14705D01*
X26900Y-18350D02*
X26900Y-18200D01*
X26900Y-18200D02*
X27400Y-17700D01*
X27400Y-17700D02*
X30450Y-17700D01*
X30450Y-17700D02*
X30550Y-17600D01*
X36250Y-14250D02*
X36182Y-14182D01*
X36182Y-14182D02*
X35512Y-14182D01*
G54D29*
X28750Y-19000D02*
X28750Y-18400D01*
G54D28*
X28750Y-18400D02*
X28750Y-18350D01*
X28750Y-18350D02*
X28750Y-18400D01*
X28750Y-18400D02*
X28750Y-18350D01*
G54D26*
X28200Y-18350D02*
X28750Y-18350D01*
X28750Y-18350D02*
X29300Y-18350D01*
G54D29*
X37716Y-15206D02*
X37193Y-15206D01*
X36650Y-18050D02*
X36150Y-18550D01*
X36650Y-15750D02*
X36650Y-18050D01*
X37193Y-15206D02*
X36650Y-15750D01*
G54D28*
X32750Y-18850D02*
X33310Y-18850D01*
X35580Y-19120D02*
X36150Y-18550D01*
X33580Y-19120D02*
X35580Y-19120D01*
X33310Y-18850D02*
X33580Y-19120D01*
G54D29*
X37716Y-15462D02*
X38112Y-15462D01*
X38420Y-16220D02*
X38870Y-16220D01*
X38350Y-16150D02*
X38420Y-16220D01*
X38350Y-15700D02*
X38350Y-16150D01*
X38112Y-15462D02*
X38350Y-15700D01*
X37716Y-15462D02*
X37337Y-15462D01*
X37150Y-15650D02*
X37150Y-17550D01*
X37337Y-15462D02*
X37150Y-15650D01*
X37716Y-15718D02*
X37716Y-17983D01*
X37716Y-17983D02*
X37150Y-18550D01*
X36150Y-17550D02*
X35700Y-18000D01*
X32200Y-18350D02*
X31700Y-18850D01*
X33450Y-18350D02*
X32200Y-18350D01*
X33750Y-18050D02*
X33450Y-18350D01*
X35650Y-18050D02*
X33750Y-18050D01*
X35700Y-18000D02*
X35650Y-18050D01*
X37716Y-14950D02*
X37049Y-14950D01*
X36400Y-17300D02*
X36150Y-17550D01*
X36400Y-15600D02*
X36400Y-17300D01*
X37049Y-14950D02*
X36400Y-15600D01*
G54D27*
X26950Y-13200D02*
X28825Y-13200D01*
X28825Y-13200D02*
X28860Y-13235D01*
G54D26*
X29451Y-12192D02*
X29451Y-11699D01*
X29750Y-11400D02*
X32409Y-11400D01*
X29451Y-11699D02*
X29750Y-11400D01*
X32409Y-12150D02*
X32409Y-11400D01*
X32400Y-11450D02*
X32400Y-11400D01*
X32400Y-11409D02*
X32400Y-11450D01*
X32409Y-11400D02*
X32400Y-11409D01*
X32400Y-11400D02*
X32650Y-11400D01*
X32800Y-11400D02*
X32650Y-11400D01*
X33800Y-11400D02*
X32800Y-11400D01*
X32850Y-11350D02*
X32850Y-10500D01*
X32800Y-11400D02*
X32850Y-11350D01*
G54D27*
X26950Y-12200D02*
X26950Y-10950D01*
G54D26*
X31600Y-16100D02*
X31600Y-14675D01*
X31600Y-14675D02*
X31575Y-14650D01*
X33400Y-15050D02*
X32570Y-15050D01*
X32170Y-14650D02*
X31575Y-14650D01*
X32570Y-15050D02*
X32170Y-14650D01*
G54D28*
X35512Y-15462D02*
X33812Y-15462D01*
X33812Y-15462D02*
X33400Y-15050D01*
G54D26*
X38950Y-11150D02*
X38950Y-12200D01*
X40250Y-10100D02*
X40250Y-11150D01*
X39950Y-8900D02*
X40250Y-9200D01*
X40250Y-9200D02*
X40250Y-10100D01*
X33400Y-16350D02*
X33310Y-16350D01*
X27900Y-16660D02*
X27900Y-16100D01*
X28090Y-16850D02*
X27900Y-16660D01*
X32810Y-16850D02*
X28090Y-16850D01*
X33310Y-16350D02*
X32810Y-16850D01*
X27925Y-14650D02*
X27925Y-16075D01*
X27925Y-16075D02*
X27900Y-16100D01*
G54D28*
X35512Y-15718D02*
X34031Y-15718D01*
X34031Y-15718D02*
X33400Y-16350D01*
G54D29*
X35512Y-13926D02*
X36123Y-13926D01*
X36200Y-13850D02*
X36476Y-13850D01*
X36123Y-13926D02*
X36200Y-13850D01*
X37716Y-14694D02*
X37244Y-14694D01*
X37244Y-14694D02*
X36476Y-13926D01*
G54D28*
X37716Y-13414D02*
X37716Y-13383D01*
X38050Y-13050D02*
X37716Y-13383D01*
G54D29*
X36476Y-13926D02*
X36476Y-13850D01*
X36476Y-13850D02*
X36476Y-13050D01*
G54D28*
X36476Y-13050D02*
X36450Y-13050D01*
X35150Y-10450D02*
X35550Y-10450D01*
X35550Y-10450D02*
X36100Y-11000D01*
X36100Y-11000D02*
X36100Y-12700D01*
X36100Y-12700D02*
X36450Y-13050D01*
G54D29*
X37716Y-14182D02*
X38232Y-14182D01*
X38550Y-14800D02*
X38950Y-14800D01*
X38459Y-14709D02*
X38550Y-14800D01*
X38459Y-14409D02*
X38459Y-14709D01*
X38232Y-14182D02*
X38459Y-14409D01*
X37714Y-13926D02*
X38223Y-13926D01*
X38400Y-13750D02*
X38950Y-13750D01*
X38223Y-13926D02*
X38400Y-13750D01*
G54D26*
X36650Y-11150D02*
X36650Y-12200D01*
X37950Y-8900D02*
X37950Y-10100D01*
X37950Y-10100D02*
X37950Y-11150D01*
X32850Y-9200D02*
X33909Y-9200D01*
X33909Y-9200D02*
X34000Y-9291D01*
G54D10*
G36*
X31571Y-14207D02*
X31383Y-14207D01*
X31351Y-14214D01*
X31321Y-14226D01*
X31293Y-14244D01*
X31270Y-14267D01*
X31252Y-14295D01*
X31239Y-14325D01*
X31232Y-14357D01*
X31232Y-14390D01*
X31232Y-14941D01*
X31239Y-14973D01*
X31251Y-15003D01*
X31269Y-15031D01*
X31292Y-15054D01*
X31320Y-15072D01*
X31334Y-15078D01*
X31334Y-15539D01*
X31167Y-15539D01*
X31167Y-14909D01*
X31167Y-14701D01*
X31125Y-14659D01*
X30834Y-14659D01*
X30834Y-15050D01*
X30876Y-15092D01*
X31016Y-15092D01*
X31048Y-15085D01*
X31078Y-15073D01*
X31106Y-15055D01*
X31129Y-15032D01*
X31147Y-15004D01*
X31160Y-14974D01*
X31167Y-14942D01*
X31167Y-14909D01*
X31167Y-15539D01*
X30815Y-15539D01*
X30815Y-15050D01*
X30815Y-14659D01*
X30524Y-14659D01*
X30482Y-14701D01*
X30482Y-14909D01*
X30482Y-14942D01*
X30489Y-14974D01*
X30502Y-15004D01*
X30520Y-15032D01*
X30543Y-15055D01*
X30571Y-15073D01*
X30601Y-15085D01*
X30633Y-15092D01*
X30773Y-15092D01*
X30815Y-15050D01*
X30815Y-15539D01*
X30501Y-15539D01*
X30468Y-15545D01*
X30438Y-15558D01*
X30411Y-15576D01*
X30387Y-15599D01*
X30369Y-15626D01*
X30356Y-15656D01*
X30350Y-15688D01*
X30350Y-15721D01*
X30350Y-16509D01*
X30356Y-16542D01*
X30369Y-16572D01*
X30376Y-16584D01*
X29123Y-16584D01*
X29130Y-16573D01*
X29143Y-16543D01*
X29149Y-16511D01*
X29149Y-16478D01*
X29149Y-15690D01*
X29143Y-15657D01*
X29130Y-15627D01*
X29112Y-15600D01*
X29089Y-15576D01*
X29062Y-15558D01*
X29032Y-15545D01*
X29017Y-15542D01*
X29017Y-14909D01*
X29017Y-14701D01*
X28975Y-14659D01*
X28684Y-14659D01*
X28684Y-15050D01*
X28726Y-15092D01*
X28866Y-15092D01*
X28898Y-15085D01*
X28928Y-15073D01*
X28956Y-15055D01*
X28979Y-15032D01*
X28997Y-15004D01*
X29010Y-14974D01*
X29017Y-14942D01*
X29017Y-14909D01*
X29017Y-15542D01*
X29000Y-15539D01*
X28967Y-15539D01*
X28665Y-15539D01*
X28665Y-15050D01*
X28665Y-14659D01*
X28374Y-14659D01*
X28332Y-14701D01*
X28332Y-14909D01*
X28332Y-14942D01*
X28339Y-14974D01*
X28352Y-15004D01*
X28370Y-15032D01*
X28393Y-15055D01*
X28421Y-15073D01*
X28451Y-15085D01*
X28483Y-15092D01*
X28623Y-15092D01*
X28665Y-15050D01*
X28665Y-15539D01*
X28190Y-15539D01*
X28190Y-15065D01*
X28206Y-15055D01*
X28229Y-15032D01*
X28247Y-15004D01*
X28260Y-14974D01*
X28267Y-14942D01*
X28267Y-14909D01*
X28267Y-14365D01*
X28332Y-14365D01*
X28332Y-14390D01*
X28332Y-14598D01*
X28374Y-14640D01*
X28665Y-14640D01*
X28665Y-14632D01*
X28684Y-14632D01*
X28684Y-14640D01*
X28975Y-14640D01*
X29017Y-14598D01*
X29017Y-14390D01*
X29017Y-14365D01*
X29800Y-14365D01*
X29824Y-14363D01*
X29848Y-14361D01*
X29850Y-14360D01*
X29851Y-14360D01*
X29875Y-14353D01*
X29898Y-14346D01*
X29899Y-14346D01*
X29901Y-14345D01*
X29922Y-14334D01*
X29944Y-14322D01*
X29945Y-14322D01*
X29947Y-14321D01*
X29966Y-14305D01*
X29985Y-14290D01*
X29987Y-14288D01*
X29987Y-14288D01*
X29987Y-14288D01*
X29987Y-14287D01*
X30232Y-14043D01*
X30232Y-14116D01*
X30239Y-14148D01*
X30251Y-14178D01*
X30269Y-14206D01*
X30292Y-14229D01*
X30320Y-14247D01*
X30350Y-14260D01*
X30382Y-14267D01*
X30415Y-14267D01*
X30520Y-14267D01*
X30520Y-14267D01*
X30502Y-14295D01*
X30489Y-14325D01*
X30482Y-14357D01*
X30482Y-14390D01*
X30482Y-14598D01*
X30524Y-14640D01*
X30815Y-14640D01*
X30815Y-14632D01*
X30834Y-14632D01*
X30834Y-14640D01*
X31125Y-14640D01*
X31167Y-14598D01*
X31167Y-14390D01*
X31167Y-14357D01*
X31160Y-14325D01*
X31147Y-14295D01*
X31129Y-14267D01*
X31106Y-14244D01*
X31095Y-14237D01*
X31106Y-14230D01*
X31129Y-14207D01*
X31147Y-14179D01*
X31160Y-14149D01*
X31167Y-14117D01*
X31167Y-14084D01*
X31167Y-13315D01*
X31532Y-13315D01*
X31532Y-14116D01*
X31539Y-14148D01*
X31551Y-14178D01*
X31569Y-14206D01*
X31571Y-14207D01*
X31571Y-14207D01*
G37*
G54D30*
X31571Y-14207D02*
X31383Y-14207D01*
X31351Y-14214D01*
X31321Y-14226D01*
X31293Y-14244D01*
X31270Y-14267D01*
X31252Y-14295D01*
X31239Y-14325D01*
X31232Y-14357D01*
X31232Y-14390D01*
X31232Y-14941D01*
X31239Y-14973D01*
X31251Y-15003D01*
X31269Y-15031D01*
X31292Y-15054D01*
X31320Y-15072D01*
X31334Y-15078D01*
X31334Y-15539D01*
X31167Y-15539D01*
X31167Y-14909D01*
X31167Y-14701D01*
X31125Y-14659D01*
X30834Y-14659D01*
X30834Y-15050D01*
X30876Y-15092D01*
X31016Y-15092D01*
X31048Y-15085D01*
X31078Y-15073D01*
X31106Y-15055D01*
X31129Y-15032D01*
X31147Y-15004D01*
X31160Y-14974D01*
X31167Y-14942D01*
X31167Y-14909D01*
X31167Y-15539D01*
X30815Y-15539D01*
X30815Y-15050D01*
X30815Y-14659D01*
X30524Y-14659D01*
X30482Y-14701D01*
X30482Y-14909D01*
X30482Y-14942D01*
X30489Y-14974D01*
X30502Y-15004D01*
X30520Y-15032D01*
X30543Y-15055D01*
X30571Y-15073D01*
X30601Y-15085D01*
X30633Y-15092D01*
X30773Y-15092D01*
X30815Y-15050D01*
X30815Y-15539D01*
X30501Y-15539D01*
X30468Y-15545D01*
X30438Y-15558D01*
X30411Y-15576D01*
X30387Y-15599D01*
X30369Y-15626D01*
X30356Y-15656D01*
X30350Y-15688D01*
X30350Y-15721D01*
X30350Y-16509D01*
X30356Y-16542D01*
X30369Y-16572D01*
X30376Y-16584D01*
X29123Y-16584D01*
X29130Y-16573D01*
X29143Y-16543D01*
X29149Y-16511D01*
X29149Y-16478D01*
X29149Y-15690D01*
X29143Y-15657D01*
X29130Y-15627D01*
X29112Y-15600D01*
X29089Y-15576D01*
X29062Y-15558D01*
X29032Y-15545D01*
X29017Y-15542D01*
X29017Y-14909D01*
X29017Y-14701D01*
X28975Y-14659D01*
X28684Y-14659D01*
X28684Y-15050D01*
X28726Y-15092D01*
X28866Y-15092D01*
X28898Y-15085D01*
X28928Y-15073D01*
X28956Y-15055D01*
X28979Y-15032D01*
X28997Y-15004D01*
X29010Y-14974D01*
X29017Y-14942D01*
X29017Y-14909D01*
X29017Y-15542D01*
X29000Y-15539D01*
X28967Y-15539D01*
X28665Y-15539D01*
X28665Y-15050D01*
X28665Y-14659D01*
X28374Y-14659D01*
X28332Y-14701D01*
X28332Y-14909D01*
X28332Y-14942D01*
X28339Y-14974D01*
X28352Y-15004D01*
X28370Y-15032D01*
X28393Y-15055D01*
X28421Y-15073D01*
X28451Y-15085D01*
X28483Y-15092D01*
X28623Y-15092D01*
X28665Y-15050D01*
X28665Y-15539D01*
X28190Y-15539D01*
X28190Y-15065D01*
X28206Y-15055D01*
X28229Y-15032D01*
X28247Y-15004D01*
X28260Y-14974D01*
X28267Y-14942D01*
X28267Y-14909D01*
X28267Y-14365D01*
X28332Y-14365D01*
X28332Y-14390D01*
X28332Y-14598D01*
X28374Y-14640D01*
X28665Y-14640D01*
X28665Y-14632D01*
X28684Y-14632D01*
X28684Y-14640D01*
X28975Y-14640D01*
X29017Y-14598D01*
X29017Y-14390D01*
X29017Y-14365D01*
X29800Y-14365D01*
X29824Y-14363D01*
X29848Y-14361D01*
X29850Y-14360D01*
X29851Y-14360D01*
X29875Y-14353D01*
X29898Y-14346D01*
X29899Y-14346D01*
X29901Y-14345D01*
X29922Y-14334D01*
X29944Y-14322D01*
X29945Y-14322D01*
X29947Y-14321D01*
X29966Y-14305D01*
X29985Y-14290D01*
X29987Y-14288D01*
X29987Y-14288D01*
X29987Y-14288D01*
X29987Y-14287D01*
X30232Y-14043D01*
X30232Y-14116D01*
X30239Y-14148D01*
X30251Y-14178D01*
X30269Y-14206D01*
X30292Y-14229D01*
X30320Y-14247D01*
X30350Y-14260D01*
X30382Y-14267D01*
X30415Y-14267D01*
X30520Y-14267D01*
X30520Y-14267D01*
X30502Y-14295D01*
X30489Y-14325D01*
X30482Y-14357D01*
X30482Y-14390D01*
X30482Y-14598D01*
X30524Y-14640D01*
X30815Y-14640D01*
X30815Y-14632D01*
X30834Y-14632D01*
X30834Y-14640D01*
X31125Y-14640D01*
X31167Y-14598D01*
X31167Y-14390D01*
X31167Y-14357D01*
X31160Y-14325D01*
X31147Y-14295D01*
X31129Y-14267D01*
X31106Y-14244D01*
X31095Y-14237D01*
X31106Y-14230D01*
X31129Y-14207D01*
X31147Y-14179D01*
X31160Y-14149D01*
X31167Y-14117D01*
X31167Y-14084D01*
X31167Y-13315D01*
X31532Y-13315D01*
X31532Y-14116D01*
X31539Y-14148D01*
X31551Y-14178D01*
X31569Y-14206D01*
X31571Y-14207D01*
G54D10*
G36*
X36182Y-17082D02*
X36107Y-17082D01*
X36017Y-17099D01*
X35932Y-17133D01*
X35855Y-17184D01*
X35790Y-17248D01*
X35738Y-17323D01*
X35702Y-17408D01*
X35683Y-17497D01*
X35682Y-17589D01*
X35698Y-17679D01*
X35702Y-17689D01*
X35559Y-17832D01*
X35522Y-17832D01*
X35558Y-17781D01*
X35595Y-17698D01*
X35615Y-17608D01*
X35617Y-17504D01*
X35599Y-17414D01*
X35564Y-17329D01*
X35513Y-17253D01*
X35449Y-17188D01*
X35373Y-17136D01*
X35288Y-17101D01*
X35199Y-17082D01*
X35107Y-17082D01*
X35017Y-17099D01*
X34932Y-17133D01*
X34855Y-17184D01*
X34790Y-17248D01*
X34738Y-17323D01*
X34702Y-17408D01*
X34683Y-17497D01*
X34682Y-17589D01*
X34698Y-17679D01*
X34732Y-17764D01*
X34776Y-17832D01*
X34494Y-17832D01*
X34535Y-17817D01*
X34580Y-17737D01*
X34608Y-17650D01*
X34619Y-17559D01*
X34612Y-17468D01*
X34587Y-17380D01*
X34546Y-17298D01*
X34535Y-17282D01*
X34459Y-17254D01*
X34445Y-17268D01*
X34445Y-17240D01*
X34417Y-17164D01*
X34337Y-17119D01*
X34250Y-17091D01*
X34159Y-17080D01*
X34068Y-17087D01*
X33980Y-17112D01*
X33898Y-17153D01*
X33882Y-17164D01*
X33854Y-17240D01*
X34150Y-17536D01*
X34445Y-17240D01*
X34445Y-17268D01*
X34163Y-17550D01*
X34169Y-17555D01*
X34155Y-17569D01*
X34150Y-17563D01*
X34144Y-17569D01*
X34130Y-17555D01*
X34136Y-17550D01*
X33840Y-17254D01*
X33764Y-17282D01*
X33719Y-17362D01*
X33691Y-17449D01*
X33680Y-17540D01*
X33687Y-17631D01*
X33712Y-17719D01*
X33753Y-17801D01*
X33764Y-17817D01*
X33805Y-17832D01*
X33750Y-17832D01*
X33730Y-17834D01*
X33710Y-17836D01*
X33708Y-17836D01*
X33707Y-17836D01*
X33688Y-17842D01*
X33669Y-17848D01*
X33668Y-17848D01*
X33667Y-17849D01*
X33649Y-17858D01*
X33631Y-17867D01*
X33630Y-17868D01*
X33629Y-17868D01*
X33614Y-17881D01*
X33598Y-17894D01*
X33596Y-17895D01*
X33596Y-17895D01*
X33596Y-17895D01*
X33596Y-17896D01*
X33359Y-18132D01*
X32200Y-18132D01*
X32180Y-18134D01*
X32160Y-18136D01*
X32158Y-18136D01*
X32157Y-18136D01*
X32138Y-18142D01*
X32119Y-18148D01*
X32118Y-18148D01*
X32117Y-18149D01*
X32099Y-18158D01*
X32081Y-18167D01*
X32080Y-18168D01*
X32079Y-18168D01*
X32064Y-18181D01*
X32048Y-18194D01*
X32046Y-18195D01*
X32046Y-18195D01*
X32046Y-18195D01*
X32046Y-18196D01*
X31860Y-18382D01*
X31283Y-18382D01*
X31251Y-18389D01*
X31221Y-18401D01*
X31193Y-18419D01*
X31170Y-18442D01*
X31152Y-18470D01*
X31139Y-18500D01*
X31132Y-18532D01*
X31132Y-18565D01*
X31132Y-19094D01*
X31067Y-19094D01*
X31067Y-18734D01*
X31067Y-18401D01*
X31025Y-18359D01*
X30609Y-18359D01*
X30609Y-18875D01*
X30651Y-18917D01*
X30916Y-18917D01*
X30948Y-18910D01*
X30978Y-18898D01*
X31006Y-18880D01*
X31029Y-18857D01*
X31047Y-18829D01*
X31060Y-18799D01*
X31067Y-18767D01*
X31067Y-18734D01*
X31067Y-19094D01*
X30590Y-19094D01*
X30590Y-18875D01*
X30590Y-18359D01*
X30174Y-18359D01*
X30132Y-18401D01*
X30132Y-18734D01*
X30132Y-18767D01*
X30139Y-18799D01*
X30152Y-18829D01*
X30170Y-18857D01*
X30193Y-18880D01*
X30221Y-18898D01*
X30251Y-18910D01*
X30283Y-18917D01*
X30548Y-18917D01*
X30590Y-18875D01*
X30590Y-19094D01*
X29079Y-19094D01*
X29091Y-19043D01*
X29092Y-18966D01*
X29082Y-18917D01*
X29616Y-18917D01*
X29648Y-18910D01*
X29678Y-18898D01*
X29706Y-18880D01*
X29729Y-18857D01*
X29747Y-18829D01*
X29760Y-18799D01*
X29767Y-18767D01*
X29767Y-18734D01*
X29767Y-17933D01*
X29765Y-17926D01*
X30134Y-17926D01*
X30132Y-17932D01*
X30132Y-17965D01*
X30132Y-18298D01*
X30174Y-18340D01*
X30590Y-18340D01*
X30590Y-18332D01*
X30609Y-18332D01*
X30609Y-18340D01*
X31025Y-18340D01*
X31067Y-18298D01*
X31067Y-17965D01*
X31067Y-17932D01*
X31060Y-17900D01*
X31047Y-17870D01*
X31029Y-17842D01*
X31006Y-17819D01*
X30978Y-17801D01*
X30948Y-17789D01*
X30916Y-17782D01*
X30840Y-17782D01*
X30849Y-17769D01*
X30876Y-17708D01*
X30877Y-17703D01*
X30912Y-17737D01*
X30931Y-17753D01*
X30949Y-17769D01*
X30951Y-17769D01*
X30952Y-17770D01*
X30973Y-17782D01*
X30995Y-17794D01*
X30996Y-17794D01*
X30997Y-17795D01*
X31021Y-17802D01*
X31044Y-17809D01*
X31046Y-17810D01*
X31047Y-17810D01*
X31071Y-17812D01*
X31096Y-17815D01*
X31099Y-17815D01*
X31099Y-17815D01*
X31099Y-17815D01*
X31100Y-17815D01*
X31132Y-17815D01*
X31132Y-17866D01*
X31139Y-17898D01*
X31151Y-17928D01*
X31169Y-17956D01*
X31192Y-17979D01*
X31220Y-17997D01*
X31250Y-18010D01*
X31282Y-18017D01*
X31315Y-18017D01*
X32116Y-18017D01*
X32148Y-18010D01*
X32178Y-17998D01*
X32206Y-17980D01*
X32225Y-17961D01*
X32242Y-17979D01*
X32270Y-17997D01*
X32300Y-18010D01*
X32332Y-18017D01*
X32365Y-18017D01*
X33166Y-18017D01*
X33198Y-18010D01*
X33228Y-17998D01*
X33256Y-17980D01*
X33279Y-17957D01*
X33297Y-17929D01*
X33310Y-17899D01*
X33317Y-17867D01*
X33317Y-17834D01*
X33317Y-17233D01*
X33310Y-17201D01*
X33298Y-17171D01*
X33280Y-17143D01*
X33257Y-17120D01*
X33229Y-17102D01*
X33199Y-17089D01*
X33167Y-17082D01*
X33134Y-17082D01*
X32936Y-17082D01*
X32954Y-17072D01*
X32955Y-17072D01*
X32957Y-17071D01*
X32976Y-17055D01*
X32995Y-17040D01*
X32997Y-17038D01*
X32997Y-17038D01*
X32997Y-17038D01*
X32997Y-17037D01*
X33218Y-16817D01*
X33816Y-16817D01*
X33848Y-16810D01*
X33878Y-16798D01*
X33906Y-16780D01*
X33929Y-16757D01*
X33947Y-16729D01*
X33960Y-16699D01*
X33967Y-16667D01*
X33967Y-16634D01*
X33967Y-16102D01*
X34124Y-15945D01*
X35136Y-15945D01*
X35142Y-15949D01*
X35172Y-15962D01*
X35205Y-15968D01*
X35237Y-15968D01*
X35796Y-15968D01*
X35786Y-15978D01*
X35748Y-16034D01*
X35722Y-16095D01*
X35708Y-16161D01*
X35707Y-16228D01*
X35719Y-16294D01*
X35744Y-16357D01*
X35780Y-16413D01*
X35827Y-16461D01*
X35882Y-16500D01*
X35943Y-16527D01*
X36009Y-16541D01*
X36076Y-16542D01*
X36142Y-16531D01*
X36182Y-16515D01*
X36182Y-17082D01*
X36182Y-17082D01*
G37*
G54D30*
X36182Y-17082D02*
X36107Y-17082D01*
X36017Y-17099D01*
X35932Y-17133D01*
X35855Y-17184D01*
X35790Y-17248D01*
X35738Y-17323D01*
X35702Y-17408D01*
X35683Y-17497D01*
X35682Y-17589D01*
X35698Y-17679D01*
X35702Y-17689D01*
X35559Y-17832D01*
X35522Y-17832D01*
X35558Y-17781D01*
X35595Y-17698D01*
X35615Y-17608D01*
X35617Y-17504D01*
X35599Y-17414D01*
X35564Y-17329D01*
X35513Y-17253D01*
X35449Y-17188D01*
X35373Y-17136D01*
X35288Y-17101D01*
X35199Y-17082D01*
X35107Y-17082D01*
X35017Y-17099D01*
X34932Y-17133D01*
X34855Y-17184D01*
X34790Y-17248D01*
X34738Y-17323D01*
X34702Y-17408D01*
X34683Y-17497D01*
X34682Y-17589D01*
X34698Y-17679D01*
X34732Y-17764D01*
X34776Y-17832D01*
X34494Y-17832D01*
X34535Y-17817D01*
X34580Y-17737D01*
X34608Y-17650D01*
X34619Y-17559D01*
X34612Y-17468D01*
X34587Y-17380D01*
X34546Y-17298D01*
X34535Y-17282D01*
X34459Y-17254D01*
X34445Y-17268D01*
X34445Y-17240D01*
X34417Y-17164D01*
X34337Y-17119D01*
X34250Y-17091D01*
X34159Y-17080D01*
X34068Y-17087D01*
X33980Y-17112D01*
X33898Y-17153D01*
X33882Y-17164D01*
X33854Y-17240D01*
X34150Y-17536D01*
X34445Y-17240D01*
X34445Y-17268D01*
X34163Y-17550D01*
X34169Y-17555D01*
X34155Y-17569D01*
X34150Y-17563D01*
X34144Y-17569D01*
X34130Y-17555D01*
X34136Y-17550D01*
X33840Y-17254D01*
X33764Y-17282D01*
X33719Y-17362D01*
X33691Y-17449D01*
X33680Y-17540D01*
X33687Y-17631D01*
X33712Y-17719D01*
X33753Y-17801D01*
X33764Y-17817D01*
X33805Y-17832D01*
X33750Y-17832D01*
X33730Y-17834D01*
X33710Y-17836D01*
X33708Y-17836D01*
X33707Y-17836D01*
X33688Y-17842D01*
X33669Y-17848D01*
X33668Y-17848D01*
X33667Y-17849D01*
X33649Y-17858D01*
X33631Y-17867D01*
X33630Y-17868D01*
X33629Y-17868D01*
X33614Y-17881D01*
X33598Y-17894D01*
X33596Y-17895D01*
X33596Y-17895D01*
X33596Y-17895D01*
X33596Y-17896D01*
X33359Y-18132D01*
X32200Y-18132D01*
X32180Y-18134D01*
X32160Y-18136D01*
X32158Y-18136D01*
X32157Y-18136D01*
X32138Y-18142D01*
X32119Y-18148D01*
X32118Y-18148D01*
X32117Y-18149D01*
X32099Y-18158D01*
X32081Y-18167D01*
X32080Y-18168D01*
X32079Y-18168D01*
X32064Y-18181D01*
X32048Y-18194D01*
X32046Y-18195D01*
X32046Y-18195D01*
X32046Y-18195D01*
X32046Y-18196D01*
X31860Y-18382D01*
X31283Y-18382D01*
X31251Y-18389D01*
X31221Y-18401D01*
X31193Y-18419D01*
X31170Y-18442D01*
X31152Y-18470D01*
X31139Y-18500D01*
X31132Y-18532D01*
X31132Y-18565D01*
X31132Y-19094D01*
X31067Y-19094D01*
X31067Y-18734D01*
X31067Y-18401D01*
X31025Y-18359D01*
X30609Y-18359D01*
X30609Y-18875D01*
X30651Y-18917D01*
X30916Y-18917D01*
X30948Y-18910D01*
X30978Y-18898D01*
X31006Y-18880D01*
X31029Y-18857D01*
X31047Y-18829D01*
X31060Y-18799D01*
X31067Y-18767D01*
X31067Y-18734D01*
X31067Y-19094D01*
X30590Y-19094D01*
X30590Y-18875D01*
X30590Y-18359D01*
X30174Y-18359D01*
X30132Y-18401D01*
X30132Y-18734D01*
X30132Y-18767D01*
X30139Y-18799D01*
X30152Y-18829D01*
X30170Y-18857D01*
X30193Y-18880D01*
X30221Y-18898D01*
X30251Y-18910D01*
X30283Y-18917D01*
X30548Y-18917D01*
X30590Y-18875D01*
X30590Y-19094D01*
X29079Y-19094D01*
X29091Y-19043D01*
X29092Y-18966D01*
X29082Y-18917D01*
X29616Y-18917D01*
X29648Y-18910D01*
X29678Y-18898D01*
X29706Y-18880D01*
X29729Y-18857D01*
X29747Y-18829D01*
X29760Y-18799D01*
X29767Y-18767D01*
X29767Y-18734D01*
X29767Y-17933D01*
X29765Y-17926D01*
X30134Y-17926D01*
X30132Y-17932D01*
X30132Y-17965D01*
X30132Y-18298D01*
X30174Y-18340D01*
X30590Y-18340D01*
X30590Y-18332D01*
X30609Y-18332D01*
X30609Y-18340D01*
X31025Y-18340D01*
X31067Y-18298D01*
X31067Y-17965D01*
X31067Y-17932D01*
X31060Y-17900D01*
X31047Y-17870D01*
X31029Y-17842D01*
X31006Y-17819D01*
X30978Y-17801D01*
X30948Y-17789D01*
X30916Y-17782D01*
X30840Y-17782D01*
X30849Y-17769D01*
X30876Y-17708D01*
X30877Y-17703D01*
X30912Y-17737D01*
X30931Y-17753D01*
X30949Y-17769D01*
X30951Y-17769D01*
X30952Y-17770D01*
X30973Y-17782D01*
X30995Y-17794D01*
X30996Y-17794D01*
X30997Y-17795D01*
X31021Y-17802D01*
X31044Y-17809D01*
X31046Y-17810D01*
X31047Y-17810D01*
X31071Y-17812D01*
X31096Y-17815D01*
X31099Y-17815D01*
X31099Y-17815D01*
X31099Y-17815D01*
X31100Y-17815D01*
X31132Y-17815D01*
X31132Y-17866D01*
X31139Y-17898D01*
X31151Y-17928D01*
X31169Y-17956D01*
X31192Y-17979D01*
X31220Y-17997D01*
X31250Y-18010D01*
X31282Y-18017D01*
X31315Y-18017D01*
X32116Y-18017D01*
X32148Y-18010D01*
X32178Y-17998D01*
X32206Y-17980D01*
X32225Y-17961D01*
X32242Y-17979D01*
X32270Y-17997D01*
X32300Y-18010D01*
X32332Y-18017D01*
X32365Y-18017D01*
X33166Y-18017D01*
X33198Y-18010D01*
X33228Y-17998D01*
X33256Y-17980D01*
X33279Y-17957D01*
X33297Y-17929D01*
X33310Y-17899D01*
X33317Y-17867D01*
X33317Y-17834D01*
X33317Y-17233D01*
X33310Y-17201D01*
X33298Y-17171D01*
X33280Y-17143D01*
X33257Y-17120D01*
X33229Y-17102D01*
X33199Y-17089D01*
X33167Y-17082D01*
X33134Y-17082D01*
X32936Y-17082D01*
X32954Y-17072D01*
X32955Y-17072D01*
X32957Y-17071D01*
X32976Y-17055D01*
X32995Y-17040D01*
X32997Y-17038D01*
X32997Y-17038D01*
X32997Y-17038D01*
X32997Y-17037D01*
X33218Y-16817D01*
X33816Y-16817D01*
X33848Y-16810D01*
X33878Y-16798D01*
X33906Y-16780D01*
X33929Y-16757D01*
X33947Y-16729D01*
X33960Y-16699D01*
X33967Y-16667D01*
X33967Y-16634D01*
X33967Y-16102D01*
X34124Y-15945D01*
X35136Y-15945D01*
X35142Y-15949D01*
X35172Y-15962D01*
X35205Y-15968D01*
X35237Y-15968D01*
X35796Y-15968D01*
X35786Y-15978D01*
X35748Y-16034D01*
X35722Y-16095D01*
X35708Y-16161D01*
X35707Y-16228D01*
X35719Y-16294D01*
X35744Y-16357D01*
X35780Y-16413D01*
X35827Y-16461D01*
X35882Y-16500D01*
X35943Y-16527D01*
X36009Y-16541D01*
X36076Y-16542D01*
X36142Y-16531D01*
X36182Y-16515D01*
X36182Y-17082D01*
G54D10*
G36*
X37780Y-8464D02*
X37732Y-8483D01*
X37655Y-8534D01*
X37590Y-8598D01*
X37538Y-8673D01*
X37502Y-8758D01*
X37483Y-8847D01*
X37482Y-8939D01*
X37498Y-9029D01*
X37532Y-9114D01*
X37581Y-9191D01*
X37645Y-9257D01*
X37684Y-9284D01*
X37684Y-9532D01*
X37633Y-9532D01*
X37601Y-9539D01*
X37571Y-9551D01*
X37543Y-9569D01*
X37520Y-9592D01*
X37502Y-9620D01*
X37489Y-9650D01*
X37482Y-9682D01*
X37482Y-9715D01*
X37482Y-10516D01*
X37489Y-10548D01*
X37501Y-10578D01*
X37519Y-10606D01*
X37538Y-10625D01*
X37520Y-10642D01*
X37502Y-10670D01*
X37489Y-10700D01*
X37482Y-10732D01*
X37482Y-10765D01*
X37482Y-11566D01*
X37489Y-11598D01*
X37501Y-11628D01*
X37519Y-11656D01*
X37538Y-11675D01*
X37520Y-11692D01*
X37502Y-11720D01*
X37489Y-11750D01*
X37482Y-11782D01*
X37482Y-11815D01*
X37482Y-12460D01*
X37417Y-12525D01*
X37417Y-9184D01*
X37417Y-8951D01*
X37375Y-8909D01*
X36959Y-8909D01*
X36959Y-9325D01*
X37001Y-9367D01*
X37266Y-9367D01*
X37298Y-9360D01*
X37328Y-9348D01*
X37356Y-9330D01*
X37379Y-9307D01*
X37397Y-9279D01*
X37410Y-9249D01*
X37417Y-9217D01*
X37417Y-9184D01*
X37417Y-12525D01*
X36996Y-12946D01*
X36983Y-12961D01*
X36970Y-12977D01*
X36970Y-12978D01*
X36969Y-12979D01*
X36959Y-12996D01*
X36950Y-13014D01*
X36949Y-13015D01*
X36949Y-13016D01*
X36943Y-13035D01*
X36937Y-13054D01*
X36937Y-13055D01*
X36936Y-13057D01*
X36934Y-13077D01*
X36932Y-13096D01*
X36932Y-13099D01*
X36932Y-13099D01*
X36932Y-13099D01*
X36932Y-13100D01*
X36932Y-14075D01*
X36694Y-13836D01*
X36694Y-13315D01*
X36737Y-13274D01*
X36776Y-13219D01*
X36803Y-13158D01*
X36818Y-13093D01*
X36819Y-13016D01*
X36806Y-12950D01*
X36780Y-12888D01*
X36743Y-12832D01*
X36696Y-12784D01*
X36670Y-12767D01*
X36966Y-12767D01*
X36998Y-12760D01*
X37028Y-12748D01*
X37056Y-12730D01*
X37079Y-12707D01*
X37097Y-12679D01*
X37110Y-12649D01*
X37117Y-12617D01*
X37117Y-12584D01*
X37117Y-11783D01*
X37110Y-11751D01*
X37098Y-11721D01*
X37080Y-11693D01*
X37061Y-11674D01*
X37079Y-11657D01*
X37097Y-11629D01*
X37110Y-11599D01*
X37117Y-11567D01*
X37117Y-11534D01*
X37117Y-10733D01*
X37110Y-10701D01*
X37098Y-10671D01*
X37080Y-10643D01*
X37061Y-10624D01*
X37079Y-10607D01*
X37097Y-10579D01*
X37110Y-10549D01*
X37117Y-10517D01*
X37117Y-10484D01*
X37117Y-9715D01*
X37117Y-9682D01*
X37110Y-9650D01*
X37097Y-9620D01*
X37079Y-9592D01*
X37056Y-9569D01*
X37028Y-9551D01*
X36998Y-9539D01*
X36966Y-9532D01*
X36940Y-9532D01*
X36940Y-9325D01*
X36940Y-8909D01*
X36524Y-8909D01*
X36482Y-8951D01*
X36482Y-9184D01*
X36482Y-9217D01*
X36489Y-9249D01*
X36502Y-9279D01*
X36520Y-9307D01*
X36543Y-9330D01*
X36571Y-9348D01*
X36601Y-9360D01*
X36633Y-9367D01*
X36898Y-9367D01*
X36940Y-9325D01*
X36940Y-9532D01*
X36701Y-9532D01*
X36659Y-9574D01*
X36659Y-10090D01*
X37075Y-10090D01*
X37117Y-10048D01*
X37117Y-9715D01*
X37117Y-10484D01*
X37117Y-10151D01*
X37075Y-10109D01*
X36659Y-10109D01*
X36659Y-10117D01*
X36640Y-10117D01*
X36640Y-10109D01*
X36640Y-10090D01*
X36640Y-9574D01*
X36598Y-9532D01*
X36333Y-9532D01*
X36301Y-9539D01*
X36271Y-9551D01*
X36243Y-9569D01*
X36220Y-9592D01*
X36202Y-9620D01*
X36189Y-9650D01*
X36182Y-9682D01*
X36182Y-9715D01*
X36182Y-10048D01*
X36224Y-10090D01*
X36640Y-10090D01*
X36640Y-10109D01*
X36224Y-10109D01*
X36182Y-10151D01*
X36182Y-10484D01*
X36182Y-10517D01*
X36189Y-10549D01*
X36202Y-10579D01*
X36220Y-10607D01*
X36238Y-10625D01*
X36220Y-10642D01*
X36202Y-10670D01*
X36189Y-10700D01*
X36182Y-10732D01*
X36182Y-10762D01*
X35717Y-10297D01*
X35717Y-10133D01*
X35717Y-9466D01*
X35717Y-8833D01*
X35710Y-8801D01*
X35698Y-8771D01*
X35680Y-8743D01*
X35657Y-8720D01*
X35629Y-8702D01*
X35599Y-8689D01*
X35567Y-8682D01*
X35534Y-8682D01*
X35201Y-8682D01*
X35159Y-8724D01*
X35159Y-9140D01*
X35675Y-9140D01*
X35717Y-9098D01*
X35717Y-8833D01*
X35717Y-9466D01*
X35717Y-9201D01*
X35675Y-9159D01*
X35159Y-9159D01*
X35159Y-9575D01*
X35201Y-9617D01*
X35534Y-9617D01*
X35567Y-9617D01*
X35599Y-9610D01*
X35629Y-9597D01*
X35657Y-9579D01*
X35680Y-9556D01*
X35698Y-9528D01*
X35710Y-9498D01*
X35717Y-9466D01*
X35717Y-10133D01*
X35710Y-10101D01*
X35698Y-10071D01*
X35680Y-10043D01*
X35657Y-10020D01*
X35629Y-10002D01*
X35599Y-9989D01*
X35567Y-9982D01*
X35534Y-9982D01*
X35140Y-9982D01*
X35140Y-9575D01*
X35140Y-9159D01*
X35140Y-9140D01*
X35140Y-8724D01*
X35098Y-8682D01*
X34765Y-8682D01*
X34732Y-8682D01*
X34700Y-8689D01*
X34670Y-8702D01*
X34642Y-8720D01*
X34619Y-8743D01*
X34601Y-8771D01*
X34589Y-8801D01*
X34582Y-8833D01*
X34582Y-9098D01*
X34624Y-9140D01*
X35140Y-9140D01*
X35140Y-9159D01*
X34624Y-9159D01*
X34582Y-9201D01*
X34582Y-9466D01*
X34589Y-9498D01*
X34601Y-9528D01*
X34619Y-9556D01*
X34642Y-9579D01*
X34670Y-9597D01*
X34700Y-9610D01*
X34732Y-9617D01*
X34765Y-9617D01*
X35098Y-9617D01*
X35140Y-9575D01*
X35140Y-9982D01*
X34733Y-9982D01*
X34701Y-9989D01*
X34671Y-10001D01*
X34643Y-10019D01*
X34620Y-10042D01*
X34602Y-10070D01*
X34589Y-10100D01*
X34582Y-10132D01*
X34582Y-10165D01*
X34582Y-10766D01*
X34589Y-10798D01*
X34601Y-10828D01*
X34619Y-10856D01*
X34642Y-10879D01*
X34670Y-10897D01*
X34700Y-10910D01*
X34732Y-10917D01*
X34765Y-10917D01*
X35566Y-10917D01*
X35598Y-10910D01*
X35628Y-10898D01*
X35656Y-10880D01*
X35658Y-10878D01*
X35873Y-11093D01*
X35873Y-12700D01*
X35875Y-12720D01*
X35877Y-12741D01*
X35877Y-12742D01*
X35877Y-12743D01*
X35883Y-12763D01*
X35889Y-12784D01*
X35890Y-12785D01*
X35890Y-12786D01*
X35900Y-12804D01*
X35910Y-12823D01*
X35910Y-12824D01*
X35911Y-12825D01*
X35924Y-12841D01*
X35937Y-12857D01*
X35939Y-12859D01*
X35939Y-12859D01*
X35939Y-12859D01*
X35939Y-12860D01*
X36134Y-13054D01*
X36134Y-13078D01*
X36146Y-13144D01*
X36170Y-13207D01*
X36207Y-13263D01*
X36253Y-13311D01*
X36259Y-13315D01*
X36259Y-13632D01*
X36200Y-13632D01*
X36180Y-13634D01*
X36160Y-13636D01*
X36158Y-13636D01*
X36157Y-13636D01*
X36138Y-13642D01*
X36119Y-13648D01*
X36118Y-13648D01*
X36117Y-13649D01*
X36099Y-13658D01*
X36081Y-13667D01*
X36080Y-13668D01*
X36079Y-13668D01*
X36064Y-13681D01*
X36048Y-13694D01*
X36046Y-13695D01*
X36046Y-13695D01*
X36046Y-13695D01*
X36046Y-13696D01*
X36033Y-13709D01*
X35956Y-13709D01*
X35927Y-13680D01*
X35836Y-13680D01*
X35819Y-13677D01*
X35786Y-13676D01*
X35206Y-13677D01*
X35187Y-13680D01*
X35097Y-13680D01*
X35055Y-13722D01*
X35055Y-13769D01*
X35061Y-13799D01*
X35055Y-13826D01*
X35055Y-13859D01*
X35055Y-14025D01*
X35061Y-14055D01*
X35055Y-14082D01*
X35055Y-14115D01*
X35055Y-14281D01*
X35061Y-14311D01*
X35055Y-14338D01*
X35055Y-14342D01*
X35053Y-14338D01*
X35016Y-14282D01*
X34969Y-14234D01*
X34913Y-14197D01*
X34851Y-14171D01*
X34805Y-14161D01*
X34810Y-14149D01*
X34817Y-14117D01*
X34817Y-14084D01*
X34817Y-13437D01*
X34954Y-13575D01*
X34971Y-13588D01*
X34987Y-13601D01*
X34988Y-13602D01*
X34988Y-13603D01*
X35007Y-13612D01*
X35025Y-13623D01*
X35026Y-13623D01*
X35027Y-13623D01*
X35047Y-13630D01*
X35067Y-13636D01*
X35069Y-13636D01*
X35070Y-13636D01*
X35073Y-13637D01*
X35097Y-13661D01*
X35187Y-13661D01*
X35205Y-13664D01*
X35237Y-13664D01*
X35818Y-13664D01*
X35836Y-13661D01*
X35927Y-13661D01*
X35968Y-13619D01*
X35969Y-13572D01*
X35963Y-13542D01*
X35968Y-13515D01*
X35969Y-13482D01*
X35969Y-13316D01*
X35962Y-13283D01*
X35950Y-13253D01*
X35931Y-13226D01*
X35917Y-13211D01*
X35919Y-13209D01*
X35946Y-13148D01*
X35961Y-13083D01*
X35962Y-13006D01*
X35949Y-12940D01*
X35923Y-12878D01*
X35886Y-12822D01*
X35839Y-12774D01*
X35783Y-12737D01*
X35721Y-12711D01*
X35655Y-12697D01*
X35588Y-12697D01*
X35522Y-12710D01*
X35460Y-12735D01*
X35417Y-12763D01*
X35417Y-12383D01*
X35417Y-11716D01*
X35417Y-11083D01*
X35410Y-11051D01*
X35398Y-11021D01*
X35380Y-10993D01*
X35357Y-10970D01*
X35329Y-10952D01*
X35299Y-10939D01*
X35267Y-10932D01*
X35234Y-10932D01*
X34901Y-10932D01*
X34859Y-10974D01*
X34859Y-11390D01*
X35375Y-11390D01*
X35417Y-11348D01*
X35417Y-11083D01*
X35417Y-11716D01*
X35417Y-11451D01*
X35375Y-11409D01*
X34859Y-11409D01*
X34859Y-11825D01*
X34901Y-11867D01*
X35234Y-11867D01*
X35267Y-11867D01*
X35299Y-11860D01*
X35329Y-11847D01*
X35357Y-11829D01*
X35380Y-11806D01*
X35398Y-11778D01*
X35410Y-11748D01*
X35417Y-11716D01*
X35417Y-12383D01*
X35410Y-12351D01*
X35398Y-12321D01*
X35380Y-12293D01*
X35357Y-12270D01*
X35329Y-12252D01*
X35299Y-12239D01*
X35267Y-12232D01*
X35234Y-12232D01*
X34840Y-12232D01*
X34840Y-11825D01*
X34840Y-11409D01*
X34832Y-11409D01*
X34832Y-11390D01*
X34840Y-11390D01*
X34840Y-10974D01*
X34798Y-10932D01*
X34521Y-10932D01*
X34521Y-9590D01*
X34521Y-8960D01*
X34515Y-8927D01*
X34502Y-8897D01*
X34484Y-8870D01*
X34461Y-8846D01*
X34434Y-8828D01*
X34404Y-8815D01*
X34372Y-8809D01*
X34339Y-8809D01*
X33629Y-8809D01*
X33596Y-8815D01*
X33566Y-8828D01*
X33539Y-8846D01*
X33515Y-8869D01*
X33497Y-8896D01*
X33484Y-8926D01*
X33483Y-8934D01*
X33417Y-8934D01*
X33417Y-8883D01*
X33410Y-8851D01*
X33398Y-8821D01*
X33380Y-8793D01*
X33357Y-8770D01*
X33329Y-8752D01*
X33299Y-8739D01*
X33267Y-8732D01*
X33234Y-8732D01*
X32433Y-8732D01*
X32401Y-8739D01*
X32371Y-8751D01*
X32343Y-8769D01*
X32320Y-8792D01*
X32302Y-8820D01*
X32289Y-8850D01*
X32282Y-8882D01*
X32282Y-8915D01*
X32282Y-9516D01*
X32289Y-9548D01*
X32301Y-9578D01*
X32319Y-9606D01*
X32342Y-9629D01*
X32370Y-9647D01*
X32400Y-9660D01*
X32432Y-9667D01*
X32465Y-9667D01*
X33266Y-9667D01*
X33298Y-9660D01*
X33328Y-9648D01*
X33356Y-9630D01*
X33379Y-9607D01*
X33397Y-9579D01*
X33410Y-9549D01*
X33417Y-9517D01*
X33417Y-9484D01*
X33417Y-9465D01*
X33478Y-9465D01*
X33478Y-9621D01*
X33484Y-9654D01*
X33497Y-9684D01*
X33515Y-9711D01*
X33538Y-9735D01*
X33565Y-9753D01*
X33595Y-9766D01*
X33627Y-9772D01*
X33660Y-9772D01*
X34370Y-9772D01*
X34403Y-9766D01*
X34433Y-9753D01*
X34460Y-9735D01*
X34484Y-9712D01*
X34502Y-9685D01*
X34515Y-9655D01*
X34521Y-9623D01*
X34521Y-9590D01*
X34521Y-10932D01*
X34521Y-10932D01*
X34521Y-10739D01*
X34521Y-10078D01*
X34515Y-10045D01*
X34502Y-10015D01*
X34484Y-9988D01*
X34461Y-9964D01*
X34434Y-9946D01*
X34404Y-9933D01*
X34372Y-9927D01*
X34339Y-9927D01*
X34051Y-9927D01*
X34009Y-9969D01*
X34009Y-10399D01*
X34479Y-10399D01*
X34521Y-10357D01*
X34521Y-10078D01*
X34521Y-10739D01*
X34521Y-10460D01*
X34479Y-10418D01*
X34009Y-10418D01*
X34009Y-10848D01*
X34051Y-10890D01*
X34339Y-10890D01*
X34372Y-10890D01*
X34404Y-10884D01*
X34434Y-10871D01*
X34461Y-10853D01*
X34484Y-10829D01*
X34502Y-10802D01*
X34515Y-10772D01*
X34521Y-10739D01*
X34521Y-10932D01*
X34465Y-10932D01*
X34432Y-10932D01*
X34400Y-10939D01*
X34370Y-10952D01*
X34342Y-10970D01*
X34325Y-10988D01*
X34307Y-10970D01*
X34279Y-10952D01*
X34249Y-10939D01*
X34217Y-10932D01*
X34184Y-10932D01*
X33990Y-10932D01*
X33990Y-10848D01*
X33990Y-10418D01*
X33990Y-10399D01*
X33990Y-9969D01*
X33948Y-9927D01*
X33660Y-9927D01*
X33627Y-9927D01*
X33595Y-9933D01*
X33565Y-9946D01*
X33538Y-9964D01*
X33515Y-9988D01*
X33497Y-10015D01*
X33484Y-10045D01*
X33478Y-10078D01*
X33478Y-10357D01*
X33520Y-10399D01*
X33990Y-10399D01*
X33990Y-10418D01*
X33520Y-10418D01*
X33478Y-10460D01*
X33478Y-10739D01*
X33484Y-10772D01*
X33497Y-10802D01*
X33515Y-10829D01*
X33538Y-10853D01*
X33565Y-10871D01*
X33595Y-10884D01*
X33627Y-10890D01*
X33660Y-10890D01*
X33948Y-10890D01*
X33990Y-10848D01*
X33990Y-10932D01*
X33383Y-10932D01*
X33351Y-10939D01*
X33329Y-10948D01*
X33356Y-10930D01*
X33379Y-10907D01*
X33397Y-10879D01*
X33410Y-10849D01*
X33417Y-10817D01*
X33417Y-10784D01*
X33417Y-10183D01*
X33410Y-10151D01*
X33398Y-10121D01*
X33380Y-10093D01*
X33357Y-10070D01*
X33329Y-10052D01*
X33299Y-10039D01*
X33267Y-10032D01*
X33234Y-10032D01*
X32433Y-10032D01*
X32401Y-10039D01*
X32371Y-10051D01*
X32343Y-10069D01*
X32320Y-10092D01*
X32302Y-10120D01*
X32289Y-10150D01*
X32282Y-10182D01*
X32282Y-10215D01*
X32282Y-10816D01*
X32289Y-10848D01*
X32301Y-10878D01*
X32319Y-10906D01*
X32342Y-10929D01*
X32370Y-10947D01*
X32400Y-10960D01*
X32432Y-10967D01*
X32465Y-10967D01*
X32584Y-10967D01*
X32584Y-11134D01*
X32409Y-11134D01*
X32400Y-11134D01*
X32273Y-11134D01*
X32273Y-10142D01*
X32273Y-9542D01*
X32273Y-9509D01*
X32267Y-9477D01*
X32254Y-9447D01*
X32236Y-9420D01*
X32212Y-9397D01*
X32185Y-9379D01*
X32155Y-9366D01*
X32122Y-9360D01*
X31449Y-9360D01*
X31407Y-9402D01*
X31407Y-9832D01*
X32231Y-9832D01*
X32273Y-9790D01*
X32273Y-9542D01*
X32273Y-10142D01*
X32273Y-9894D01*
X32231Y-9852D01*
X31407Y-9852D01*
X31407Y-10283D01*
X31449Y-10324D01*
X32122Y-10324D01*
X32155Y-10318D01*
X32185Y-10305D01*
X32212Y-10287D01*
X32236Y-10264D01*
X32254Y-10237D01*
X32267Y-10207D01*
X32273Y-10175D01*
X32273Y-10142D01*
X32273Y-11134D01*
X31388Y-11134D01*
X31388Y-10283D01*
X31388Y-9852D01*
X31388Y-9832D01*
X31388Y-9402D01*
X31346Y-9360D01*
X30673Y-9360D01*
X30640Y-9366D01*
X30610Y-9379D01*
X30583Y-9397D01*
X30559Y-9420D01*
X30541Y-9447D01*
X30528Y-9477D01*
X30522Y-9509D01*
X30522Y-9542D01*
X30522Y-9790D01*
X30563Y-9832D01*
X31388Y-9832D01*
X31388Y-9852D01*
X30563Y-9852D01*
X30522Y-9894D01*
X30522Y-10142D01*
X30522Y-10175D01*
X30528Y-10207D01*
X30541Y-10237D01*
X30559Y-10264D01*
X30583Y-10287D01*
X30610Y-10305D01*
X30640Y-10318D01*
X30673Y-10324D01*
X31346Y-10324D01*
X31388Y-10283D01*
X31388Y-11134D01*
X30107Y-11134D01*
X30107Y-10142D01*
X30107Y-9511D01*
X30101Y-9478D01*
X30088Y-9448D01*
X30070Y-9421D01*
X30047Y-9397D01*
X30020Y-9379D01*
X29990Y-9366D01*
X29958Y-9360D01*
X29925Y-9360D01*
X28526Y-9360D01*
X28526Y-9353D01*
X28489Y-9167D01*
X28417Y-8992D01*
X28312Y-8834D01*
X28178Y-8699D01*
X28021Y-8593D01*
X27846Y-8520D01*
X27660Y-8482D01*
X27470Y-8480D01*
X27284Y-8516D01*
X27108Y-8587D01*
X26949Y-8691D01*
X26814Y-8824D01*
X26707Y-8980D01*
X26632Y-9154D01*
X26593Y-9340D01*
X26590Y-9530D01*
X26624Y-9716D01*
X26694Y-9893D01*
X26797Y-10052D01*
X26929Y-10189D01*
X27084Y-10297D01*
X27258Y-10373D01*
X27443Y-10413D01*
X27633Y-10417D01*
X27820Y-10385D01*
X27997Y-10316D01*
X28157Y-10214D01*
X28294Y-10083D01*
X28356Y-9997D01*
X28356Y-10173D01*
X28362Y-10206D01*
X28375Y-10236D01*
X28393Y-10263D01*
X28416Y-10287D01*
X28443Y-10305D01*
X28473Y-10318D01*
X28505Y-10324D01*
X28538Y-10324D01*
X28867Y-10324D01*
X28867Y-10517D01*
X28799Y-10585D01*
X28717Y-10585D01*
X28717Y-10533D01*
X28710Y-10501D01*
X28698Y-10471D01*
X28680Y-10443D01*
X28657Y-10420D01*
X28629Y-10402D01*
X28599Y-10389D01*
X28567Y-10382D01*
X28534Y-10382D01*
X27933Y-10382D01*
X27901Y-10389D01*
X27871Y-10401D01*
X27843Y-10419D01*
X27820Y-10442D01*
X27802Y-10470D01*
X27789Y-10500D01*
X27782Y-10532D01*
X27782Y-10565D01*
X27782Y-11366D01*
X27789Y-11398D01*
X27801Y-11428D01*
X27819Y-11456D01*
X27842Y-11479D01*
X27870Y-11497D01*
X27900Y-11510D01*
X27932Y-11517D01*
X27965Y-11517D01*
X28003Y-11517D01*
X28003Y-11768D01*
X28001Y-11769D01*
X27983Y-11797D01*
X27970Y-11827D01*
X27963Y-11859D01*
X27963Y-11892D01*
X27963Y-12523D01*
X27970Y-12555D01*
X27982Y-12585D01*
X28000Y-12613D01*
X28023Y-12636D01*
X28051Y-12654D01*
X28081Y-12667D01*
X28113Y-12674D01*
X28146Y-12674D01*
X28299Y-12674D01*
X28299Y-12675D01*
X28299Y-12708D01*
X28299Y-13183D01*
X28341Y-13225D01*
X28850Y-13225D01*
X28850Y-12828D01*
X28850Y-12568D01*
X28850Y-12299D01*
X28842Y-12299D01*
X28842Y-12280D01*
X28850Y-12280D01*
X28850Y-11751D01*
X28808Y-11709D01*
X28705Y-11709D01*
X28673Y-11715D01*
X28643Y-11728D01*
X28615Y-11746D01*
X28592Y-11769D01*
X28574Y-11796D01*
X28564Y-11819D01*
X28555Y-11798D01*
X28537Y-11770D01*
X28534Y-11768D01*
X28534Y-11517D01*
X28566Y-11517D01*
X28598Y-11510D01*
X28628Y-11498D01*
X28656Y-11480D01*
X28679Y-11457D01*
X28697Y-11429D01*
X28710Y-11399D01*
X28717Y-11367D01*
X28717Y-11334D01*
X28717Y-11314D01*
X28950Y-11314D01*
X28983Y-11310D01*
X29016Y-11307D01*
X29018Y-11307D01*
X29020Y-11307D01*
X29052Y-11297D01*
X29085Y-11288D01*
X29086Y-11287D01*
X29088Y-11286D01*
X29118Y-11270D01*
X29148Y-11255D01*
X29149Y-11254D01*
X29151Y-11253D01*
X29177Y-11232D01*
X29203Y-11211D01*
X29206Y-11208D01*
X29206Y-11208D01*
X29206Y-11208D01*
X29207Y-11207D01*
X29489Y-10925D01*
X29510Y-10899D01*
X29532Y-10873D01*
X29533Y-10872D01*
X29534Y-10870D01*
X29550Y-10840D01*
X29566Y-10811D01*
X29567Y-10809D01*
X29568Y-10807D01*
X29577Y-10775D01*
X29588Y-10743D01*
X29588Y-10741D01*
X29588Y-10740D01*
X29592Y-10706D01*
X29596Y-10673D01*
X29596Y-10669D01*
X29596Y-10669D01*
X29596Y-10669D01*
X29596Y-10668D01*
X29596Y-10324D01*
X29956Y-10324D01*
X29989Y-10318D01*
X30019Y-10305D01*
X30046Y-10287D01*
X30070Y-10264D01*
X30088Y-10237D01*
X30101Y-10207D01*
X30107Y-10175D01*
X30107Y-10142D01*
X30107Y-11134D01*
X29750Y-11134D01*
X29725Y-11136D01*
X29701Y-11138D01*
X29699Y-11139D01*
X29698Y-11139D01*
X29674Y-11146D01*
X29651Y-11153D01*
X29650Y-11153D01*
X29648Y-11154D01*
X29627Y-11165D01*
X29605Y-11177D01*
X29604Y-11177D01*
X29602Y-11178D01*
X29583Y-11194D01*
X29564Y-11209D01*
X29562Y-11211D01*
X29562Y-11211D01*
X29562Y-11211D01*
X29562Y-11212D01*
X29263Y-11511D01*
X29247Y-11530D01*
X29231Y-11548D01*
X29231Y-11550D01*
X29230Y-11551D01*
X29218Y-11572D01*
X29206Y-11594D01*
X29206Y-11595D01*
X29205Y-11596D01*
X29198Y-11620D01*
X29191Y-11643D01*
X29190Y-11645D01*
X29190Y-11646D01*
X29188Y-11670D01*
X29185Y-11695D01*
X29185Y-11698D01*
X29185Y-11698D01*
X29185Y-11698D01*
X29185Y-11699D01*
X29185Y-11768D01*
X29183Y-11769D01*
X29165Y-11797D01*
X29155Y-11819D01*
X29145Y-11796D01*
X29127Y-11769D01*
X29104Y-11746D01*
X29076Y-11728D01*
X29046Y-11715D01*
X29014Y-11709D01*
X28911Y-11709D01*
X28869Y-11751D01*
X28869Y-12280D01*
X28877Y-12280D01*
X28877Y-12299D01*
X28869Y-12299D01*
X28869Y-12568D01*
X28869Y-12828D01*
X28869Y-13225D01*
X29378Y-13225D01*
X29420Y-13183D01*
X29420Y-12708D01*
X29420Y-12675D01*
X29420Y-12674D01*
X29605Y-12674D01*
X29637Y-12667D01*
X29667Y-12655D01*
X29695Y-12637D01*
X29718Y-12614D01*
X29736Y-12586D01*
X29749Y-12556D01*
X29756Y-12524D01*
X29756Y-12491D01*
X29756Y-11860D01*
X29749Y-11828D01*
X29737Y-11798D01*
X29733Y-11792D01*
X29860Y-11665D01*
X32143Y-11665D01*
X32143Y-11667D01*
X31880Y-11667D01*
X31848Y-11674D01*
X31818Y-11686D01*
X31790Y-11704D01*
X31767Y-11727D01*
X31749Y-11755D01*
X31736Y-11785D01*
X31729Y-11817D01*
X31729Y-11850D01*
X31729Y-12481D01*
X31736Y-12513D01*
X31748Y-12543D01*
X31766Y-12571D01*
X31789Y-12594D01*
X31817Y-12612D01*
X31847Y-12625D01*
X31879Y-12632D01*
X31912Y-12632D01*
X32937Y-12632D01*
X32969Y-12625D01*
X32999Y-12613D01*
X33027Y-12595D01*
X33050Y-12572D01*
X33068Y-12544D01*
X33081Y-12514D01*
X33088Y-12482D01*
X33088Y-12449D01*
X33088Y-11818D01*
X33081Y-11786D01*
X33069Y-11756D01*
X33051Y-11728D01*
X33028Y-11705D01*
X33000Y-11687D01*
X32970Y-11674D01*
X32938Y-11667D01*
X32905Y-11667D01*
X32674Y-11667D01*
X32674Y-11665D01*
X32800Y-11665D01*
X33232Y-11665D01*
X33232Y-11716D01*
X33239Y-11748D01*
X33251Y-11778D01*
X33269Y-11806D01*
X33292Y-11829D01*
X33320Y-11847D01*
X33350Y-11860D01*
X33382Y-11867D01*
X33415Y-11867D01*
X34216Y-11867D01*
X34248Y-11860D01*
X34278Y-11848D01*
X34306Y-11830D01*
X34325Y-11811D01*
X34342Y-11829D01*
X34370Y-11847D01*
X34400Y-11860D01*
X34432Y-11867D01*
X34465Y-11867D01*
X34798Y-11867D01*
X34840Y-11825D01*
X34840Y-12232D01*
X34433Y-12232D01*
X34401Y-12239D01*
X34371Y-12251D01*
X34343Y-12269D01*
X34324Y-12288D01*
X34307Y-12270D01*
X34279Y-12252D01*
X34249Y-12239D01*
X34217Y-12232D01*
X34184Y-12232D01*
X33383Y-12232D01*
X33351Y-12239D01*
X33321Y-12251D01*
X33293Y-12269D01*
X33270Y-12292D01*
X33252Y-12320D01*
X33239Y-12350D01*
X33232Y-12382D01*
X33232Y-12415D01*
X33232Y-12495D01*
X33214Y-12509D01*
X33212Y-12511D01*
X33212Y-12511D01*
X33212Y-12511D01*
X33212Y-12512D01*
X32939Y-12784D01*
X31670Y-12784D01*
X31670Y-12449D01*
X31670Y-11850D01*
X31670Y-11817D01*
X31663Y-11785D01*
X31650Y-11755D01*
X31632Y-11727D01*
X31609Y-11704D01*
X31581Y-11686D01*
X31551Y-11674D01*
X31519Y-11667D01*
X31042Y-11667D01*
X31000Y-11709D01*
X31000Y-12140D01*
X31628Y-12140D01*
X31670Y-12098D01*
X31670Y-11850D01*
X31670Y-12449D01*
X31670Y-12201D01*
X31628Y-12159D01*
X31000Y-12159D01*
X31000Y-12590D01*
X31042Y-12632D01*
X31519Y-12632D01*
X31551Y-12625D01*
X31581Y-12613D01*
X31609Y-12595D01*
X31632Y-12572D01*
X31650Y-12544D01*
X31663Y-12514D01*
X31670Y-12482D01*
X31670Y-12449D01*
X31670Y-12784D01*
X30981Y-12784D01*
X30981Y-12590D01*
X30981Y-12159D01*
X30981Y-12140D01*
X30981Y-11709D01*
X30939Y-11667D01*
X30462Y-11667D01*
X30430Y-11674D01*
X30400Y-11686D01*
X30372Y-11704D01*
X30349Y-11727D01*
X30331Y-11755D01*
X30318Y-11785D01*
X30311Y-11817D01*
X30311Y-11850D01*
X30311Y-12098D01*
X30353Y-12140D01*
X30981Y-12140D01*
X30981Y-12159D01*
X30353Y-12159D01*
X30311Y-12201D01*
X30311Y-12449D01*
X30311Y-12482D01*
X30318Y-12514D01*
X30331Y-12544D01*
X30349Y-12572D01*
X30372Y-12595D01*
X30400Y-12613D01*
X30430Y-12625D01*
X30462Y-12632D01*
X30939Y-12632D01*
X30981Y-12590D01*
X30981Y-12784D01*
X30800Y-12784D01*
X30775Y-12786D01*
X30751Y-12788D01*
X30749Y-12789D01*
X30748Y-12789D01*
X30724Y-12796D01*
X30701Y-12803D01*
X30700Y-12803D01*
X30698Y-12804D01*
X30677Y-12815D01*
X30655Y-12827D01*
X30654Y-12827D01*
X30652Y-12828D01*
X30633Y-12844D01*
X30614Y-12859D01*
X30612Y-12861D01*
X30612Y-12861D01*
X30612Y-12861D01*
X30612Y-12862D01*
X30512Y-12962D01*
X30496Y-12981D01*
X30480Y-12999D01*
X30480Y-13001D01*
X30479Y-13002D01*
X30467Y-13023D01*
X30455Y-13045D01*
X30455Y-13046D01*
X30454Y-13047D01*
X30447Y-13071D01*
X30440Y-13094D01*
X30439Y-13096D01*
X30439Y-13097D01*
X30437Y-13121D01*
X30435Y-13132D01*
X30383Y-13132D01*
X30351Y-13139D01*
X30321Y-13151D01*
X30293Y-13169D01*
X30270Y-13192D01*
X30252Y-13220D01*
X30239Y-13250D01*
X30232Y-13282D01*
X30232Y-13315D01*
X30232Y-13434D01*
X30200Y-13434D01*
X30175Y-13436D01*
X30151Y-13438D01*
X30149Y-13439D01*
X30148Y-13439D01*
X30124Y-13446D01*
X30101Y-13453D01*
X30100Y-13453D01*
X30098Y-13454D01*
X30077Y-13465D01*
X30055Y-13477D01*
X30054Y-13477D01*
X30052Y-13478D01*
X30033Y-13494D01*
X30014Y-13509D01*
X30012Y-13511D01*
X30012Y-13511D01*
X30012Y-13511D01*
X30012Y-13512D01*
X29689Y-13834D01*
X29410Y-13834D01*
X29414Y-13826D01*
X29420Y-13794D01*
X29420Y-13761D01*
X29420Y-13286D01*
X29378Y-13244D01*
X28869Y-13244D01*
X28869Y-13252D01*
X28850Y-13252D01*
X28850Y-13244D01*
X28341Y-13244D01*
X28299Y-13286D01*
X28299Y-13761D01*
X28299Y-13794D01*
X28305Y-13826D01*
X28309Y-13834D01*
X27417Y-13834D01*
X27417Y-13516D01*
X27417Y-12883D01*
X27410Y-12851D01*
X27398Y-12821D01*
X27380Y-12793D01*
X27357Y-12770D01*
X27329Y-12752D01*
X27299Y-12739D01*
X27267Y-12732D01*
X27234Y-12732D01*
X27001Y-12732D01*
X26959Y-12774D01*
X26959Y-13190D01*
X27375Y-13190D01*
X27417Y-13148D01*
X27417Y-12883D01*
X27417Y-13516D01*
X27417Y-13251D01*
X27375Y-13209D01*
X26959Y-13209D01*
X26959Y-13625D01*
X27001Y-13667D01*
X27234Y-13667D01*
X27267Y-13667D01*
X27299Y-13660D01*
X27329Y-13647D01*
X27357Y-13629D01*
X27380Y-13606D01*
X27398Y-13578D01*
X27410Y-13548D01*
X27417Y-13516D01*
X27417Y-13834D01*
X26900Y-13834D01*
X26875Y-13836D01*
X26851Y-13838D01*
X26849Y-13839D01*
X26848Y-13839D01*
X26824Y-13846D01*
X26801Y-13853D01*
X26800Y-13853D01*
X26798Y-13854D01*
X26777Y-13865D01*
X26755Y-13877D01*
X26754Y-13877D01*
X26752Y-13878D01*
X26733Y-13894D01*
X26714Y-13909D01*
X26712Y-13911D01*
X26712Y-13911D01*
X26712Y-13911D01*
X26712Y-13912D01*
X26574Y-14049D01*
X26574Y-13649D01*
X26600Y-13660D01*
X26632Y-13667D01*
X26665Y-13667D01*
X26898Y-13667D01*
X26940Y-13625D01*
X26940Y-13209D01*
X26932Y-13209D01*
X26932Y-13190D01*
X26940Y-13190D01*
X26940Y-12774D01*
X26898Y-12732D01*
X26665Y-12732D01*
X26632Y-12732D01*
X26600Y-12739D01*
X26574Y-12750D01*
X26574Y-12480D01*
X26581Y-12491D01*
X26645Y-12557D01*
X26720Y-12609D01*
X26804Y-12646D01*
X26894Y-12666D01*
X26986Y-12668D01*
X27076Y-12652D01*
X27161Y-12619D01*
X27239Y-12570D01*
X27305Y-12506D01*
X27358Y-12431D01*
X27395Y-12348D01*
X27415Y-12258D01*
X27417Y-12154D01*
X27399Y-12064D01*
X27364Y-11979D01*
X27314Y-11903D01*
X27314Y-11504D01*
X27328Y-11498D01*
X27356Y-11480D01*
X27379Y-11457D01*
X27397Y-11429D01*
X27410Y-11399D01*
X27417Y-11367D01*
X27417Y-11334D01*
X27417Y-10533D01*
X27410Y-10501D01*
X27398Y-10471D01*
X27380Y-10443D01*
X27357Y-10420D01*
X27329Y-10402D01*
X27299Y-10389D01*
X27267Y-10382D01*
X27234Y-10382D01*
X26633Y-10382D01*
X26601Y-10389D01*
X26574Y-10400D01*
X26574Y-8464D01*
X36551Y-8464D01*
X36543Y-8469D01*
X36520Y-8492D01*
X36502Y-8520D01*
X36489Y-8550D01*
X36482Y-8582D01*
X36482Y-8615D01*
X36482Y-8848D01*
X36524Y-8890D01*
X36940Y-8890D01*
X36940Y-8882D01*
X36959Y-8882D01*
X36959Y-8890D01*
X37375Y-8890D01*
X37417Y-8848D01*
X37417Y-8615D01*
X37417Y-8582D01*
X37410Y-8550D01*
X37397Y-8520D01*
X37379Y-8492D01*
X37356Y-8469D01*
X37348Y-8464D01*
X37780Y-8464D01*
X37780Y-8464D01*
G37*
G54D30*
X37780Y-8464D02*
X37732Y-8483D01*
X37655Y-8534D01*
X37590Y-8598D01*
X37538Y-8673D01*
X37502Y-8758D01*
X37483Y-8847D01*
X37482Y-8939D01*
X37498Y-9029D01*
X37532Y-9114D01*
X37581Y-9191D01*
X37645Y-9257D01*
X37684Y-9284D01*
X37684Y-9532D01*
X37633Y-9532D01*
X37601Y-9539D01*
X37571Y-9551D01*
X37543Y-9569D01*
X37520Y-9592D01*
X37502Y-9620D01*
X37489Y-9650D01*
X37482Y-9682D01*
X37482Y-9715D01*
X37482Y-10516D01*
X37489Y-10548D01*
X37501Y-10578D01*
X37519Y-10606D01*
X37538Y-10625D01*
X37520Y-10642D01*
X37502Y-10670D01*
X37489Y-10700D01*
X37482Y-10732D01*
X37482Y-10765D01*
X37482Y-11566D01*
X37489Y-11598D01*
X37501Y-11628D01*
X37519Y-11656D01*
X37538Y-11675D01*
X37520Y-11692D01*
X37502Y-11720D01*
X37489Y-11750D01*
X37482Y-11782D01*
X37482Y-11815D01*
X37482Y-12460D01*
X37417Y-12525D01*
X37417Y-9184D01*
X37417Y-8951D01*
X37375Y-8909D01*
X36959Y-8909D01*
X36959Y-9325D01*
X37001Y-9367D01*
X37266Y-9367D01*
X37298Y-9360D01*
X37328Y-9348D01*
X37356Y-9330D01*
X37379Y-9307D01*
X37397Y-9279D01*
X37410Y-9249D01*
X37417Y-9217D01*
X37417Y-9184D01*
X37417Y-12525D01*
X36996Y-12946D01*
X36983Y-12961D01*
X36970Y-12977D01*
X36970Y-12978D01*
X36969Y-12979D01*
X36959Y-12996D01*
X36950Y-13014D01*
X36949Y-13015D01*
X36949Y-13016D01*
X36943Y-13035D01*
X36937Y-13054D01*
X36937Y-13055D01*
X36936Y-13057D01*
X36934Y-13077D01*
X36932Y-13096D01*
X36932Y-13099D01*
X36932Y-13099D01*
X36932Y-13099D01*
X36932Y-13100D01*
X36932Y-14075D01*
X36694Y-13836D01*
X36694Y-13315D01*
X36737Y-13274D01*
X36776Y-13219D01*
X36803Y-13158D01*
X36818Y-13093D01*
X36819Y-13016D01*
X36806Y-12950D01*
X36780Y-12888D01*
X36743Y-12832D01*
X36696Y-12784D01*
X36670Y-12767D01*
X36966Y-12767D01*
X36998Y-12760D01*
X37028Y-12748D01*
X37056Y-12730D01*
X37079Y-12707D01*
X37097Y-12679D01*
X37110Y-12649D01*
X37117Y-12617D01*
X37117Y-12584D01*
X37117Y-11783D01*
X37110Y-11751D01*
X37098Y-11721D01*
X37080Y-11693D01*
X37061Y-11674D01*
X37079Y-11657D01*
X37097Y-11629D01*
X37110Y-11599D01*
X37117Y-11567D01*
X37117Y-11534D01*
X37117Y-10733D01*
X37110Y-10701D01*
X37098Y-10671D01*
X37080Y-10643D01*
X37061Y-10624D01*
X37079Y-10607D01*
X37097Y-10579D01*
X37110Y-10549D01*
X37117Y-10517D01*
X37117Y-10484D01*
X37117Y-9715D01*
X37117Y-9682D01*
X37110Y-9650D01*
X37097Y-9620D01*
X37079Y-9592D01*
X37056Y-9569D01*
X37028Y-9551D01*
X36998Y-9539D01*
X36966Y-9532D01*
X36940Y-9532D01*
X36940Y-9325D01*
X36940Y-8909D01*
X36524Y-8909D01*
X36482Y-8951D01*
X36482Y-9184D01*
X36482Y-9217D01*
X36489Y-9249D01*
X36502Y-9279D01*
X36520Y-9307D01*
X36543Y-9330D01*
X36571Y-9348D01*
X36601Y-9360D01*
X36633Y-9367D01*
X36898Y-9367D01*
X36940Y-9325D01*
X36940Y-9532D01*
X36701Y-9532D01*
X36659Y-9574D01*
X36659Y-10090D01*
X37075Y-10090D01*
X37117Y-10048D01*
X37117Y-9715D01*
X37117Y-10484D01*
X37117Y-10151D01*
X37075Y-10109D01*
X36659Y-10109D01*
X36659Y-10117D01*
X36640Y-10117D01*
X36640Y-10109D01*
X36640Y-10090D01*
X36640Y-9574D01*
X36598Y-9532D01*
X36333Y-9532D01*
X36301Y-9539D01*
X36271Y-9551D01*
X36243Y-9569D01*
X36220Y-9592D01*
X36202Y-9620D01*
X36189Y-9650D01*
X36182Y-9682D01*
X36182Y-9715D01*
X36182Y-10048D01*
X36224Y-10090D01*
X36640Y-10090D01*
X36640Y-10109D01*
X36224Y-10109D01*
X36182Y-10151D01*
X36182Y-10484D01*
X36182Y-10517D01*
X36189Y-10549D01*
X36202Y-10579D01*
X36220Y-10607D01*
X36238Y-10625D01*
X36220Y-10642D01*
X36202Y-10670D01*
X36189Y-10700D01*
X36182Y-10732D01*
X36182Y-10762D01*
X35717Y-10297D01*
X35717Y-10133D01*
X35717Y-9466D01*
X35717Y-8833D01*
X35710Y-8801D01*
X35698Y-8771D01*
X35680Y-8743D01*
X35657Y-8720D01*
X35629Y-8702D01*
X35599Y-8689D01*
X35567Y-8682D01*
X35534Y-8682D01*
X35201Y-8682D01*
X35159Y-8724D01*
X35159Y-9140D01*
X35675Y-9140D01*
X35717Y-9098D01*
X35717Y-8833D01*
X35717Y-9466D01*
X35717Y-9201D01*
X35675Y-9159D01*
X35159Y-9159D01*
X35159Y-9575D01*
X35201Y-9617D01*
X35534Y-9617D01*
X35567Y-9617D01*
X35599Y-9610D01*
X35629Y-9597D01*
X35657Y-9579D01*
X35680Y-9556D01*
X35698Y-9528D01*
X35710Y-9498D01*
X35717Y-9466D01*
X35717Y-10133D01*
X35710Y-10101D01*
X35698Y-10071D01*
X35680Y-10043D01*
X35657Y-10020D01*
X35629Y-10002D01*
X35599Y-9989D01*
X35567Y-9982D01*
X35534Y-9982D01*
X35140Y-9982D01*
X35140Y-9575D01*
X35140Y-9159D01*
X35140Y-9140D01*
X35140Y-8724D01*
X35098Y-8682D01*
X34765Y-8682D01*
X34732Y-8682D01*
X34700Y-8689D01*
X34670Y-8702D01*
X34642Y-8720D01*
X34619Y-8743D01*
X34601Y-8771D01*
X34589Y-8801D01*
X34582Y-8833D01*
X34582Y-9098D01*
X34624Y-9140D01*
X35140Y-9140D01*
X35140Y-9159D01*
X34624Y-9159D01*
X34582Y-9201D01*
X34582Y-9466D01*
X34589Y-9498D01*
X34601Y-9528D01*
X34619Y-9556D01*
X34642Y-9579D01*
X34670Y-9597D01*
X34700Y-9610D01*
X34732Y-9617D01*
X34765Y-9617D01*
X35098Y-9617D01*
X35140Y-9575D01*
X35140Y-9982D01*
X34733Y-9982D01*
X34701Y-9989D01*
X34671Y-10001D01*
X34643Y-10019D01*
X34620Y-10042D01*
X34602Y-10070D01*
X34589Y-10100D01*
X34582Y-10132D01*
X34582Y-10165D01*
X34582Y-10766D01*
X34589Y-10798D01*
X34601Y-10828D01*
X34619Y-10856D01*
X34642Y-10879D01*
X34670Y-10897D01*
X34700Y-10910D01*
X34732Y-10917D01*
X34765Y-10917D01*
X35566Y-10917D01*
X35598Y-10910D01*
X35628Y-10898D01*
X35656Y-10880D01*
X35658Y-10878D01*
X35873Y-11093D01*
X35873Y-12700D01*
X35875Y-12720D01*
X35877Y-12741D01*
X35877Y-12742D01*
X35877Y-12743D01*
X35883Y-12763D01*
X35889Y-12784D01*
X35890Y-12785D01*
X35890Y-12786D01*
X35900Y-12804D01*
X35910Y-12823D01*
X35910Y-12824D01*
X35911Y-12825D01*
X35924Y-12841D01*
X35937Y-12857D01*
X35939Y-12859D01*
X35939Y-12859D01*
X35939Y-12859D01*
X35939Y-12860D01*
X36134Y-13054D01*
X36134Y-13078D01*
X36146Y-13144D01*
X36170Y-13207D01*
X36207Y-13263D01*
X36253Y-13311D01*
X36259Y-13315D01*
X36259Y-13632D01*
X36200Y-13632D01*
X36180Y-13634D01*
X36160Y-13636D01*
X36158Y-13636D01*
X36157Y-13636D01*
X36138Y-13642D01*
X36119Y-13648D01*
X36118Y-13648D01*
X36117Y-13649D01*
X36099Y-13658D01*
X36081Y-13667D01*
X36080Y-13668D01*
X36079Y-13668D01*
X36064Y-13681D01*
X36048Y-13694D01*
X36046Y-13695D01*
X36046Y-13695D01*
X36046Y-13695D01*
X36046Y-13696D01*
X36033Y-13709D01*
X35956Y-13709D01*
X35927Y-13680D01*
X35836Y-13680D01*
X35819Y-13677D01*
X35786Y-13676D01*
X35206Y-13677D01*
X35187Y-13680D01*
X35097Y-13680D01*
X35055Y-13722D01*
X35055Y-13769D01*
X35061Y-13799D01*
X35055Y-13826D01*
X35055Y-13859D01*
X35055Y-14025D01*
X35061Y-14055D01*
X35055Y-14082D01*
X35055Y-14115D01*
X35055Y-14281D01*
X35061Y-14311D01*
X35055Y-14338D01*
X35055Y-14342D01*
X35053Y-14338D01*
X35016Y-14282D01*
X34969Y-14234D01*
X34913Y-14197D01*
X34851Y-14171D01*
X34805Y-14161D01*
X34810Y-14149D01*
X34817Y-14117D01*
X34817Y-14084D01*
X34817Y-13437D01*
X34954Y-13575D01*
X34971Y-13588D01*
X34987Y-13601D01*
X34988Y-13602D01*
X34988Y-13603D01*
X35007Y-13612D01*
X35025Y-13623D01*
X35026Y-13623D01*
X35027Y-13623D01*
X35047Y-13630D01*
X35067Y-13636D01*
X35069Y-13636D01*
X35070Y-13636D01*
X35073Y-13637D01*
X35097Y-13661D01*
X35187Y-13661D01*
X35205Y-13664D01*
X35237Y-13664D01*
X35818Y-13664D01*
X35836Y-13661D01*
X35927Y-13661D01*
X35968Y-13619D01*
X35969Y-13572D01*
X35963Y-13542D01*
X35968Y-13515D01*
X35969Y-13482D01*
X35969Y-13316D01*
X35962Y-13283D01*
X35950Y-13253D01*
X35931Y-13226D01*
X35917Y-13211D01*
X35919Y-13209D01*
X35946Y-13148D01*
X35961Y-13083D01*
X35962Y-13006D01*
X35949Y-12940D01*
X35923Y-12878D01*
X35886Y-12822D01*
X35839Y-12774D01*
X35783Y-12737D01*
X35721Y-12711D01*
X35655Y-12697D01*
X35588Y-12697D01*
X35522Y-12710D01*
X35460Y-12735D01*
X35417Y-12763D01*
X35417Y-12383D01*
X35417Y-11716D01*
X35417Y-11083D01*
X35410Y-11051D01*
X35398Y-11021D01*
X35380Y-10993D01*
X35357Y-10970D01*
X35329Y-10952D01*
X35299Y-10939D01*
X35267Y-10932D01*
X35234Y-10932D01*
X34901Y-10932D01*
X34859Y-10974D01*
X34859Y-11390D01*
X35375Y-11390D01*
X35417Y-11348D01*
X35417Y-11083D01*
X35417Y-11716D01*
X35417Y-11451D01*
X35375Y-11409D01*
X34859Y-11409D01*
X34859Y-11825D01*
X34901Y-11867D01*
X35234Y-11867D01*
X35267Y-11867D01*
X35299Y-11860D01*
X35329Y-11847D01*
X35357Y-11829D01*
X35380Y-11806D01*
X35398Y-11778D01*
X35410Y-11748D01*
X35417Y-11716D01*
X35417Y-12383D01*
X35410Y-12351D01*
X35398Y-12321D01*
X35380Y-12293D01*
X35357Y-12270D01*
X35329Y-12252D01*
X35299Y-12239D01*
X35267Y-12232D01*
X35234Y-12232D01*
X34840Y-12232D01*
X34840Y-11825D01*
X34840Y-11409D01*
X34832Y-11409D01*
X34832Y-11390D01*
X34840Y-11390D01*
X34840Y-10974D01*
X34798Y-10932D01*
X34521Y-10932D01*
X34521Y-9590D01*
X34521Y-8960D01*
X34515Y-8927D01*
X34502Y-8897D01*
X34484Y-8870D01*
X34461Y-8846D01*
X34434Y-8828D01*
X34404Y-8815D01*
X34372Y-8809D01*
X34339Y-8809D01*
X33629Y-8809D01*
X33596Y-8815D01*
X33566Y-8828D01*
X33539Y-8846D01*
X33515Y-8869D01*
X33497Y-8896D01*
X33484Y-8926D01*
X33483Y-8934D01*
X33417Y-8934D01*
X33417Y-8883D01*
X33410Y-8851D01*
X33398Y-8821D01*
X33380Y-8793D01*
X33357Y-8770D01*
X33329Y-8752D01*
X33299Y-8739D01*
X33267Y-8732D01*
X33234Y-8732D01*
X32433Y-8732D01*
X32401Y-8739D01*
X32371Y-8751D01*
X32343Y-8769D01*
X32320Y-8792D01*
X32302Y-8820D01*
X32289Y-8850D01*
X32282Y-8882D01*
X32282Y-8915D01*
X32282Y-9516D01*
X32289Y-9548D01*
X32301Y-9578D01*
X32319Y-9606D01*
X32342Y-9629D01*
X32370Y-9647D01*
X32400Y-9660D01*
X32432Y-9667D01*
X32465Y-9667D01*
X33266Y-9667D01*
X33298Y-9660D01*
X33328Y-9648D01*
X33356Y-9630D01*
X33379Y-9607D01*
X33397Y-9579D01*
X33410Y-9549D01*
X33417Y-9517D01*
X33417Y-9484D01*
X33417Y-9465D01*
X33478Y-9465D01*
X33478Y-9621D01*
X33484Y-9654D01*
X33497Y-9684D01*
X33515Y-9711D01*
X33538Y-9735D01*
X33565Y-9753D01*
X33595Y-9766D01*
X33627Y-9772D01*
X33660Y-9772D01*
X34370Y-9772D01*
X34403Y-9766D01*
X34433Y-9753D01*
X34460Y-9735D01*
X34484Y-9712D01*
X34502Y-9685D01*
X34515Y-9655D01*
X34521Y-9623D01*
X34521Y-9590D01*
X34521Y-10932D01*
X34521Y-10932D01*
X34521Y-10739D01*
X34521Y-10078D01*
X34515Y-10045D01*
X34502Y-10015D01*
X34484Y-9988D01*
X34461Y-9964D01*
X34434Y-9946D01*
X34404Y-9933D01*
X34372Y-9927D01*
X34339Y-9927D01*
X34051Y-9927D01*
X34009Y-9969D01*
X34009Y-10399D01*
X34479Y-10399D01*
X34521Y-10357D01*
X34521Y-10078D01*
X34521Y-10739D01*
X34521Y-10460D01*
X34479Y-10418D01*
X34009Y-10418D01*
X34009Y-10848D01*
X34051Y-10890D01*
X34339Y-10890D01*
X34372Y-10890D01*
X34404Y-10884D01*
X34434Y-10871D01*
X34461Y-10853D01*
X34484Y-10829D01*
X34502Y-10802D01*
X34515Y-10772D01*
X34521Y-10739D01*
X34521Y-10932D01*
X34465Y-10932D01*
X34432Y-10932D01*
X34400Y-10939D01*
X34370Y-10952D01*
X34342Y-10970D01*
X34325Y-10988D01*
X34307Y-10970D01*
X34279Y-10952D01*
X34249Y-10939D01*
X34217Y-10932D01*
X34184Y-10932D01*
X33990Y-10932D01*
X33990Y-10848D01*
X33990Y-10418D01*
X33990Y-10399D01*
X33990Y-9969D01*
X33948Y-9927D01*
X33660Y-9927D01*
X33627Y-9927D01*
X33595Y-9933D01*
X33565Y-9946D01*
X33538Y-9964D01*
X33515Y-9988D01*
X33497Y-10015D01*
X33484Y-10045D01*
X33478Y-10078D01*
X33478Y-10357D01*
X33520Y-10399D01*
X33990Y-10399D01*
X33990Y-10418D01*
X33520Y-10418D01*
X33478Y-10460D01*
X33478Y-10739D01*
X33484Y-10772D01*
X33497Y-10802D01*
X33515Y-10829D01*
X33538Y-10853D01*
X33565Y-10871D01*
X33595Y-10884D01*
X33627Y-10890D01*
X33660Y-10890D01*
X33948Y-10890D01*
X33990Y-10848D01*
X33990Y-10932D01*
X33383Y-10932D01*
X33351Y-10939D01*
X33329Y-10948D01*
X33356Y-10930D01*
X33379Y-10907D01*
X33397Y-10879D01*
X33410Y-10849D01*
X33417Y-10817D01*
X33417Y-10784D01*
X33417Y-10183D01*
X33410Y-10151D01*
X33398Y-10121D01*
X33380Y-10093D01*
X33357Y-10070D01*
X33329Y-10052D01*
X33299Y-10039D01*
X33267Y-10032D01*
X33234Y-10032D01*
X32433Y-10032D01*
X32401Y-10039D01*
X32371Y-10051D01*
X32343Y-10069D01*
X32320Y-10092D01*
X32302Y-10120D01*
X32289Y-10150D01*
X32282Y-10182D01*
X32282Y-10215D01*
X32282Y-10816D01*
X32289Y-10848D01*
X32301Y-10878D01*
X32319Y-10906D01*
X32342Y-10929D01*
X32370Y-10947D01*
X32400Y-10960D01*
X32432Y-10967D01*
X32465Y-10967D01*
X32584Y-10967D01*
X32584Y-11134D01*
X32409Y-11134D01*
X32400Y-11134D01*
X32273Y-11134D01*
X32273Y-10142D01*
X32273Y-9542D01*
X32273Y-9509D01*
X32267Y-9477D01*
X32254Y-9447D01*
X32236Y-9420D01*
X32212Y-9397D01*
X32185Y-9379D01*
X32155Y-9366D01*
X32122Y-9360D01*
X31449Y-9360D01*
X31407Y-9402D01*
X31407Y-9832D01*
X32231Y-9832D01*
X32273Y-9790D01*
X32273Y-9542D01*
X32273Y-10142D01*
X32273Y-9894D01*
X32231Y-9852D01*
X31407Y-9852D01*
X31407Y-10283D01*
X31449Y-10324D01*
X32122Y-10324D01*
X32155Y-10318D01*
X32185Y-10305D01*
X32212Y-10287D01*
X32236Y-10264D01*
X32254Y-10237D01*
X32267Y-10207D01*
X32273Y-10175D01*
X32273Y-10142D01*
X32273Y-11134D01*
X31388Y-11134D01*
X31388Y-10283D01*
X31388Y-9852D01*
X31388Y-9832D01*
X31388Y-9402D01*
X31346Y-9360D01*
X30673Y-9360D01*
X30640Y-9366D01*
X30610Y-9379D01*
X30583Y-9397D01*
X30559Y-9420D01*
X30541Y-9447D01*
X30528Y-9477D01*
X30522Y-9509D01*
X30522Y-9542D01*
X30522Y-9790D01*
X30563Y-9832D01*
X31388Y-9832D01*
X31388Y-9852D01*
X30563Y-9852D01*
X30522Y-9894D01*
X30522Y-10142D01*
X30522Y-10175D01*
X30528Y-10207D01*
X30541Y-10237D01*
X30559Y-10264D01*
X30583Y-10287D01*
X30610Y-10305D01*
X30640Y-10318D01*
X30673Y-10324D01*
X31346Y-10324D01*
X31388Y-10283D01*
X31388Y-11134D01*
X30107Y-11134D01*
X30107Y-10142D01*
X30107Y-9511D01*
X30101Y-9478D01*
X30088Y-9448D01*
X30070Y-9421D01*
X30047Y-9397D01*
X30020Y-9379D01*
X29990Y-9366D01*
X29958Y-9360D01*
X29925Y-9360D01*
X28526Y-9360D01*
X28526Y-9353D01*
X28489Y-9167D01*
X28417Y-8992D01*
X28312Y-8834D01*
X28178Y-8699D01*
X28021Y-8593D01*
X27846Y-8520D01*
X27660Y-8482D01*
X27470Y-8480D01*
X27284Y-8516D01*
X27108Y-8587D01*
X26949Y-8691D01*
X26814Y-8824D01*
X26707Y-8980D01*
X26632Y-9154D01*
X26593Y-9340D01*
X26590Y-9530D01*
X26624Y-9716D01*
X26694Y-9893D01*
X26797Y-10052D01*
X26929Y-10189D01*
X27084Y-10297D01*
X27258Y-10373D01*
X27443Y-10413D01*
X27633Y-10417D01*
X27820Y-10385D01*
X27997Y-10316D01*
X28157Y-10214D01*
X28294Y-10083D01*
X28356Y-9997D01*
X28356Y-10173D01*
X28362Y-10206D01*
X28375Y-10236D01*
X28393Y-10263D01*
X28416Y-10287D01*
X28443Y-10305D01*
X28473Y-10318D01*
X28505Y-10324D01*
X28538Y-10324D01*
X28867Y-10324D01*
X28867Y-10517D01*
X28799Y-10585D01*
X28717Y-10585D01*
X28717Y-10533D01*
X28710Y-10501D01*
X28698Y-10471D01*
X28680Y-10443D01*
X28657Y-10420D01*
X28629Y-10402D01*
X28599Y-10389D01*
X28567Y-10382D01*
X28534Y-10382D01*
X27933Y-10382D01*
X27901Y-10389D01*
X27871Y-10401D01*
X27843Y-10419D01*
X27820Y-10442D01*
X27802Y-10470D01*
X27789Y-10500D01*
X27782Y-10532D01*
X27782Y-10565D01*
X27782Y-11366D01*
X27789Y-11398D01*
X27801Y-11428D01*
X27819Y-11456D01*
X27842Y-11479D01*
X27870Y-11497D01*
X27900Y-11510D01*
X27932Y-11517D01*
X27965Y-11517D01*
X28003Y-11517D01*
X28003Y-11768D01*
X28001Y-11769D01*
X27983Y-11797D01*
X27970Y-11827D01*
X27963Y-11859D01*
X27963Y-11892D01*
X27963Y-12523D01*
X27970Y-12555D01*
X27982Y-12585D01*
X28000Y-12613D01*
X28023Y-12636D01*
X28051Y-12654D01*
X28081Y-12667D01*
X28113Y-12674D01*
X28146Y-12674D01*
X28299Y-12674D01*
X28299Y-12675D01*
X28299Y-12708D01*
X28299Y-13183D01*
X28341Y-13225D01*
X28850Y-13225D01*
X28850Y-12828D01*
X28850Y-12568D01*
X28850Y-12299D01*
X28842Y-12299D01*
X28842Y-12280D01*
X28850Y-12280D01*
X28850Y-11751D01*
X28808Y-11709D01*
X28705Y-11709D01*
X28673Y-11715D01*
X28643Y-11728D01*
X28615Y-11746D01*
X28592Y-11769D01*
X28574Y-11796D01*
X28564Y-11819D01*
X28555Y-11798D01*
X28537Y-11770D01*
X28534Y-11768D01*
X28534Y-11517D01*
X28566Y-11517D01*
X28598Y-11510D01*
X28628Y-11498D01*
X28656Y-11480D01*
X28679Y-11457D01*
X28697Y-11429D01*
X28710Y-11399D01*
X28717Y-11367D01*
X28717Y-11334D01*
X28717Y-11314D01*
X28950Y-11314D01*
X28983Y-11310D01*
X29016Y-11307D01*
X29018Y-11307D01*
X29020Y-11307D01*
X29052Y-11297D01*
X29085Y-11288D01*
X29086Y-11287D01*
X29088Y-11286D01*
X29118Y-11270D01*
X29148Y-11255D01*
X29149Y-11254D01*
X29151Y-11253D01*
X29177Y-11232D01*
X29203Y-11211D01*
X29206Y-11208D01*
X29206Y-11208D01*
X29206Y-11208D01*
X29207Y-11207D01*
X29489Y-10925D01*
X29510Y-10899D01*
X29532Y-10873D01*
X29533Y-10872D01*
X29534Y-10870D01*
X29550Y-10840D01*
X29566Y-10811D01*
X29567Y-10809D01*
X29568Y-10807D01*
X29577Y-10775D01*
X29588Y-10743D01*
X29588Y-10741D01*
X29588Y-10740D01*
X29592Y-10706D01*
X29596Y-10673D01*
X29596Y-10669D01*
X29596Y-10669D01*
X29596Y-10669D01*
X29596Y-10668D01*
X29596Y-10324D01*
X29956Y-10324D01*
X29989Y-10318D01*
X30019Y-10305D01*
X30046Y-10287D01*
X30070Y-10264D01*
X30088Y-10237D01*
X30101Y-10207D01*
X30107Y-10175D01*
X30107Y-10142D01*
X30107Y-11134D01*
X29750Y-11134D01*
X29725Y-11136D01*
X29701Y-11138D01*
X29699Y-11139D01*
X29698Y-11139D01*
X29674Y-11146D01*
X29651Y-11153D01*
X29650Y-11153D01*
X29648Y-11154D01*
X29627Y-11165D01*
X29605Y-11177D01*
X29604Y-11177D01*
X29602Y-11178D01*
X29583Y-11194D01*
X29564Y-11209D01*
X29562Y-11211D01*
X29562Y-11211D01*
X29562Y-11211D01*
X29562Y-11212D01*
X29263Y-11511D01*
X29247Y-11530D01*
X29231Y-11548D01*
X29231Y-11550D01*
X29230Y-11551D01*
X29218Y-11572D01*
X29206Y-11594D01*
X29206Y-11595D01*
X29205Y-11596D01*
X29198Y-11620D01*
X29191Y-11643D01*
X29190Y-11645D01*
X29190Y-11646D01*
X29188Y-11670D01*
X29185Y-11695D01*
X29185Y-11698D01*
X29185Y-11698D01*
X29185Y-11698D01*
X29185Y-11699D01*
X29185Y-11768D01*
X29183Y-11769D01*
X29165Y-11797D01*
X29155Y-11819D01*
X29145Y-11796D01*
X29127Y-11769D01*
X29104Y-11746D01*
X29076Y-11728D01*
X29046Y-11715D01*
X29014Y-11709D01*
X28911Y-11709D01*
X28869Y-11751D01*
X28869Y-12280D01*
X28877Y-12280D01*
X28877Y-12299D01*
X28869Y-12299D01*
X28869Y-12568D01*
X28869Y-12828D01*
X28869Y-13225D01*
X29378Y-13225D01*
X29420Y-13183D01*
X29420Y-12708D01*
X29420Y-12675D01*
X29420Y-12674D01*
X29605Y-12674D01*
X29637Y-12667D01*
X29667Y-12655D01*
X29695Y-12637D01*
X29718Y-12614D01*
X29736Y-12586D01*
X29749Y-12556D01*
X29756Y-12524D01*
X29756Y-12491D01*
X29756Y-11860D01*
X29749Y-11828D01*
X29737Y-11798D01*
X29733Y-11792D01*
X29860Y-11665D01*
X32143Y-11665D01*
X32143Y-11667D01*
X31880Y-11667D01*
X31848Y-11674D01*
X31818Y-11686D01*
X31790Y-11704D01*
X31767Y-11727D01*
X31749Y-11755D01*
X31736Y-11785D01*
X31729Y-11817D01*
X31729Y-11850D01*
X31729Y-12481D01*
X31736Y-12513D01*
X31748Y-12543D01*
X31766Y-12571D01*
X31789Y-12594D01*
X31817Y-12612D01*
X31847Y-12625D01*
X31879Y-12632D01*
X31912Y-12632D01*
X32937Y-12632D01*
X32969Y-12625D01*
X32999Y-12613D01*
X33027Y-12595D01*
X33050Y-12572D01*
X33068Y-12544D01*
X33081Y-12514D01*
X33088Y-12482D01*
X33088Y-12449D01*
X33088Y-11818D01*
X33081Y-11786D01*
X33069Y-11756D01*
X33051Y-11728D01*
X33028Y-11705D01*
X33000Y-11687D01*
X32970Y-11674D01*
X32938Y-11667D01*
X32905Y-11667D01*
X32674Y-11667D01*
X32674Y-11665D01*
X32800Y-11665D01*
X33232Y-11665D01*
X33232Y-11716D01*
X33239Y-11748D01*
X33251Y-11778D01*
X33269Y-11806D01*
X33292Y-11829D01*
X33320Y-11847D01*
X33350Y-11860D01*
X33382Y-11867D01*
X33415Y-11867D01*
X34216Y-11867D01*
X34248Y-11860D01*
X34278Y-11848D01*
X34306Y-11830D01*
X34325Y-11811D01*
X34342Y-11829D01*
X34370Y-11847D01*
X34400Y-11860D01*
X34432Y-11867D01*
X34465Y-11867D01*
X34798Y-11867D01*
X34840Y-11825D01*
X34840Y-12232D01*
X34433Y-12232D01*
X34401Y-12239D01*
X34371Y-12251D01*
X34343Y-12269D01*
X34324Y-12288D01*
X34307Y-12270D01*
X34279Y-12252D01*
X34249Y-12239D01*
X34217Y-12232D01*
X34184Y-12232D01*
X33383Y-12232D01*
X33351Y-12239D01*
X33321Y-12251D01*
X33293Y-12269D01*
X33270Y-12292D01*
X33252Y-12320D01*
X33239Y-12350D01*
X33232Y-12382D01*
X33232Y-12415D01*
X33232Y-12495D01*
X33214Y-12509D01*
X33212Y-12511D01*
X33212Y-12511D01*
X33212Y-12511D01*
X33212Y-12512D01*
X32939Y-12784D01*
X31670Y-12784D01*
X31670Y-12449D01*
X31670Y-11850D01*
X31670Y-11817D01*
X31663Y-11785D01*
X31650Y-11755D01*
X31632Y-11727D01*
X31609Y-11704D01*
X31581Y-11686D01*
X31551Y-11674D01*
X31519Y-11667D01*
X31042Y-11667D01*
X31000Y-11709D01*
X31000Y-12140D01*
X31628Y-12140D01*
X31670Y-12098D01*
X31670Y-11850D01*
X31670Y-12449D01*
X31670Y-12201D01*
X31628Y-12159D01*
X31000Y-12159D01*
X31000Y-12590D01*
X31042Y-12632D01*
X31519Y-12632D01*
X31551Y-12625D01*
X31581Y-12613D01*
X31609Y-12595D01*
X31632Y-12572D01*
X31650Y-12544D01*
X31663Y-12514D01*
X31670Y-12482D01*
X31670Y-12449D01*
X31670Y-12784D01*
X30981Y-12784D01*
X30981Y-12590D01*
X30981Y-12159D01*
X30981Y-12140D01*
X30981Y-11709D01*
X30939Y-11667D01*
X30462Y-11667D01*
X30430Y-11674D01*
X30400Y-11686D01*
X30372Y-11704D01*
X30349Y-11727D01*
X30331Y-11755D01*
X30318Y-11785D01*
X30311Y-11817D01*
X30311Y-11850D01*
X30311Y-12098D01*
X30353Y-12140D01*
X30981Y-12140D01*
X30981Y-12159D01*
X30353Y-12159D01*
X30311Y-12201D01*
X30311Y-12449D01*
X30311Y-12482D01*
X30318Y-12514D01*
X30331Y-12544D01*
X30349Y-12572D01*
X30372Y-12595D01*
X30400Y-12613D01*
X30430Y-12625D01*
X30462Y-12632D01*
X30939Y-12632D01*
X30981Y-12590D01*
X30981Y-12784D01*
X30800Y-12784D01*
X30775Y-12786D01*
X30751Y-12788D01*
X30749Y-12789D01*
X30748Y-12789D01*
X30724Y-12796D01*
X30701Y-12803D01*
X30700Y-12803D01*
X30698Y-12804D01*
X30677Y-12815D01*
X30655Y-12827D01*
X30654Y-12827D01*
X30652Y-12828D01*
X30633Y-12844D01*
X30614Y-12859D01*
X30612Y-12861D01*
X30612Y-12861D01*
X30612Y-12861D01*
X30612Y-12862D01*
X30512Y-12962D01*
X30496Y-12981D01*
X30480Y-12999D01*
X30480Y-13001D01*
X30479Y-13002D01*
X30467Y-13023D01*
X30455Y-13045D01*
X30455Y-13046D01*
X30454Y-13047D01*
X30447Y-13071D01*
X30440Y-13094D01*
X30439Y-13096D01*
X30439Y-13097D01*
X30437Y-13121D01*
X30435Y-13132D01*
X30383Y-13132D01*
X30351Y-13139D01*
X30321Y-13151D01*
X30293Y-13169D01*
X30270Y-13192D01*
X30252Y-13220D01*
X30239Y-13250D01*
X30232Y-13282D01*
X30232Y-13315D01*
X30232Y-13434D01*
X30200Y-13434D01*
X30175Y-13436D01*
X30151Y-13438D01*
X30149Y-13439D01*
X30148Y-13439D01*
X30124Y-13446D01*
X30101Y-13453D01*
X30100Y-13453D01*
X30098Y-13454D01*
X30077Y-13465D01*
X30055Y-13477D01*
X30054Y-13477D01*
X30052Y-13478D01*
X30033Y-13494D01*
X30014Y-13509D01*
X30012Y-13511D01*
X30012Y-13511D01*
X30012Y-13511D01*
X30012Y-13512D01*
X29689Y-13834D01*
X29410Y-13834D01*
X29414Y-13826D01*
X29420Y-13794D01*
X29420Y-13761D01*
X29420Y-13286D01*
X29378Y-13244D01*
X28869Y-13244D01*
X28869Y-13252D01*
X28850Y-13252D01*
X28850Y-13244D01*
X28341Y-13244D01*
X28299Y-13286D01*
X28299Y-13761D01*
X28299Y-13794D01*
X28305Y-13826D01*
X28309Y-13834D01*
X27417Y-13834D01*
X27417Y-13516D01*
X27417Y-12883D01*
X27410Y-12851D01*
X27398Y-12821D01*
X27380Y-12793D01*
X27357Y-12770D01*
X27329Y-12752D01*
X27299Y-12739D01*
X27267Y-12732D01*
X27234Y-12732D01*
X27001Y-12732D01*
X26959Y-12774D01*
X26959Y-13190D01*
X27375Y-13190D01*
X27417Y-13148D01*
X27417Y-12883D01*
X27417Y-13516D01*
X27417Y-13251D01*
X27375Y-13209D01*
X26959Y-13209D01*
X26959Y-13625D01*
X27001Y-13667D01*
X27234Y-13667D01*
X27267Y-13667D01*
X27299Y-13660D01*
X27329Y-13647D01*
X27357Y-13629D01*
X27380Y-13606D01*
X27398Y-13578D01*
X27410Y-13548D01*
X27417Y-13516D01*
X27417Y-13834D01*
X26900Y-13834D01*
X26875Y-13836D01*
X26851Y-13838D01*
X26849Y-13839D01*
X26848Y-13839D01*
X26824Y-13846D01*
X26801Y-13853D01*
X26800Y-13853D01*
X26798Y-13854D01*
X26777Y-13865D01*
X26755Y-13877D01*
X26754Y-13877D01*
X26752Y-13878D01*
X26733Y-13894D01*
X26714Y-13909D01*
X26712Y-13911D01*
X26712Y-13911D01*
X26712Y-13911D01*
X26712Y-13912D01*
X26574Y-14049D01*
X26574Y-13649D01*
X26600Y-13660D01*
X26632Y-13667D01*
X26665Y-13667D01*
X26898Y-13667D01*
X26940Y-13625D01*
X26940Y-13209D01*
X26932Y-13209D01*
X26932Y-13190D01*
X26940Y-13190D01*
X26940Y-12774D01*
X26898Y-12732D01*
X26665Y-12732D01*
X26632Y-12732D01*
X26600Y-12739D01*
X26574Y-12750D01*
X26574Y-12480D01*
X26581Y-12491D01*
X26645Y-12557D01*
X26720Y-12609D01*
X26804Y-12646D01*
X26894Y-12666D01*
X26986Y-12668D01*
X27076Y-12652D01*
X27161Y-12619D01*
X27239Y-12570D01*
X27305Y-12506D01*
X27358Y-12431D01*
X27395Y-12348D01*
X27415Y-12258D01*
X27417Y-12154D01*
X27399Y-12064D01*
X27364Y-11979D01*
X27314Y-11903D01*
X27314Y-11504D01*
X27328Y-11498D01*
X27356Y-11480D01*
X27379Y-11457D01*
X27397Y-11429D01*
X27410Y-11399D01*
X27417Y-11367D01*
X27417Y-11334D01*
X27417Y-10533D01*
X27410Y-10501D01*
X27398Y-10471D01*
X27380Y-10443D01*
X27357Y-10420D01*
X27329Y-10402D01*
X27299Y-10389D01*
X27267Y-10382D01*
X27234Y-10382D01*
X26633Y-10382D01*
X26601Y-10389D01*
X26574Y-10400D01*
X26574Y-8464D01*
X36551Y-8464D01*
X36543Y-8469D01*
X36520Y-8492D01*
X36502Y-8520D01*
X36489Y-8550D01*
X36482Y-8582D01*
X36482Y-8615D01*
X36482Y-8848D01*
X36524Y-8890D01*
X36940Y-8890D01*
X36940Y-8882D01*
X36959Y-8882D01*
X36959Y-8890D01*
X37375Y-8890D01*
X37417Y-8848D01*
X37417Y-8615D01*
X37417Y-8582D01*
X37410Y-8550D01*
X37397Y-8520D01*
X37379Y-8492D01*
X37356Y-8469D01*
X37348Y-8464D01*
X37780Y-8464D01*
G54D10*
G36*
X40023Y-12782D02*
X39417Y-12782D01*
X39417Y-12584D01*
X39417Y-11783D01*
X39410Y-11751D01*
X39398Y-11721D01*
X39380Y-11693D01*
X39361Y-11674D01*
X39379Y-11657D01*
X39397Y-11629D01*
X39410Y-11599D01*
X39417Y-11567D01*
X39417Y-11534D01*
X39417Y-10733D01*
X39410Y-10701D01*
X39398Y-10671D01*
X39380Y-10643D01*
X39361Y-10624D01*
X39379Y-10607D01*
X39397Y-10579D01*
X39410Y-10549D01*
X39417Y-10517D01*
X39417Y-10484D01*
X39417Y-9715D01*
X39417Y-9184D01*
X39417Y-8951D01*
X39375Y-8909D01*
X38959Y-8909D01*
X38959Y-9325D01*
X39001Y-9367D01*
X39266Y-9367D01*
X39298Y-9360D01*
X39328Y-9348D01*
X39356Y-9330D01*
X39379Y-9307D01*
X39397Y-9279D01*
X39410Y-9249D01*
X39417Y-9217D01*
X39417Y-9184D01*
X39417Y-9715D01*
X39417Y-9682D01*
X39410Y-9650D01*
X39397Y-9620D01*
X39379Y-9592D01*
X39356Y-9569D01*
X39328Y-9551D01*
X39298Y-9539D01*
X39266Y-9532D01*
X39001Y-9532D01*
X38959Y-9574D01*
X38959Y-10090D01*
X39375Y-10090D01*
X39417Y-10048D01*
X39417Y-9715D01*
X39417Y-10484D01*
X39417Y-10151D01*
X39375Y-10109D01*
X38959Y-10109D01*
X38959Y-10117D01*
X38940Y-10117D01*
X38940Y-10109D01*
X38940Y-10090D01*
X38940Y-9574D01*
X38940Y-9325D01*
X38940Y-8909D01*
X38524Y-8909D01*
X38482Y-8951D01*
X38482Y-9184D01*
X38482Y-9217D01*
X38489Y-9249D01*
X38502Y-9279D01*
X38520Y-9307D01*
X38543Y-9330D01*
X38571Y-9348D01*
X38601Y-9360D01*
X38633Y-9367D01*
X38898Y-9367D01*
X38940Y-9325D01*
X38940Y-9574D01*
X38898Y-9532D01*
X38633Y-9532D01*
X38601Y-9539D01*
X38571Y-9551D01*
X38543Y-9569D01*
X38520Y-9592D01*
X38502Y-9620D01*
X38489Y-9650D01*
X38482Y-9682D01*
X38482Y-9715D01*
X38482Y-10048D01*
X38524Y-10090D01*
X38940Y-10090D01*
X38940Y-10109D01*
X38524Y-10109D01*
X38482Y-10151D01*
X38482Y-10484D01*
X38482Y-10517D01*
X38489Y-10549D01*
X38502Y-10579D01*
X38520Y-10607D01*
X38538Y-10625D01*
X38520Y-10642D01*
X38502Y-10670D01*
X38489Y-10700D01*
X38482Y-10732D01*
X38482Y-10765D01*
X38482Y-11566D01*
X38489Y-11598D01*
X38501Y-11628D01*
X38519Y-11656D01*
X38538Y-11675D01*
X38520Y-11692D01*
X38502Y-11720D01*
X38489Y-11750D01*
X38482Y-11782D01*
X38482Y-11815D01*
X38482Y-12616D01*
X38489Y-12648D01*
X38501Y-12678D01*
X38519Y-12706D01*
X38542Y-12729D01*
X38570Y-12747D01*
X38600Y-12760D01*
X38632Y-12767D01*
X38665Y-12767D01*
X39266Y-12767D01*
X39298Y-12760D01*
X39328Y-12748D01*
X39356Y-12730D01*
X39379Y-12707D01*
X39397Y-12679D01*
X39410Y-12649D01*
X39417Y-12617D01*
X39417Y-12584D01*
X39417Y-12782D01*
X38500Y-12782D01*
X38480Y-12784D01*
X38460Y-12786D01*
X38458Y-12786D01*
X38457Y-12786D01*
X38438Y-12792D01*
X38419Y-12798D01*
X38418Y-12798D01*
X38417Y-12799D01*
X38399Y-12808D01*
X38381Y-12817D01*
X38380Y-12818D01*
X38379Y-12818D01*
X38364Y-12831D01*
X38348Y-12844D01*
X38346Y-12845D01*
X38346Y-12845D01*
X38346Y-12845D01*
X38346Y-12846D01*
X38333Y-12858D01*
X38316Y-12832D01*
X38269Y-12784D01*
X38243Y-12767D01*
X38266Y-12767D01*
X38298Y-12760D01*
X38328Y-12748D01*
X38356Y-12730D01*
X38379Y-12707D01*
X38397Y-12679D01*
X38410Y-12649D01*
X38417Y-12617D01*
X38417Y-12584D01*
X38417Y-11783D01*
X38410Y-11751D01*
X38398Y-11721D01*
X38380Y-11693D01*
X38361Y-11674D01*
X38379Y-11657D01*
X38397Y-11629D01*
X38410Y-11599D01*
X38417Y-11567D01*
X38417Y-11534D01*
X38417Y-10733D01*
X38410Y-10701D01*
X38398Y-10671D01*
X38380Y-10643D01*
X38361Y-10624D01*
X38379Y-10607D01*
X38397Y-10579D01*
X38410Y-10549D01*
X38417Y-10517D01*
X38417Y-10484D01*
X38417Y-9683D01*
X38410Y-9651D01*
X38398Y-9621D01*
X38380Y-9593D01*
X38357Y-9570D01*
X38329Y-9552D01*
X38299Y-9539D01*
X38267Y-9532D01*
X38234Y-9532D01*
X38215Y-9532D01*
X38215Y-9284D01*
X38239Y-9270D01*
X38305Y-9206D01*
X38358Y-9131D01*
X38395Y-9048D01*
X38415Y-8958D01*
X38417Y-8854D01*
X38399Y-8764D01*
X38364Y-8679D01*
X38313Y-8603D01*
X38249Y-8538D01*
X38173Y-8486D01*
X38120Y-8464D01*
X38551Y-8464D01*
X38543Y-8469D01*
X38520Y-8492D01*
X38502Y-8520D01*
X38489Y-8550D01*
X38482Y-8582D01*
X38482Y-8615D01*
X38482Y-8848D01*
X38524Y-8890D01*
X38940Y-8890D01*
X38940Y-8882D01*
X38959Y-8882D01*
X38959Y-8890D01*
X39375Y-8890D01*
X39417Y-8848D01*
X39417Y-8615D01*
X39417Y-8582D01*
X39410Y-8550D01*
X39397Y-8520D01*
X39379Y-8492D01*
X39356Y-8469D01*
X39348Y-8464D01*
X39780Y-8464D01*
X39732Y-8483D01*
X39655Y-8534D01*
X39590Y-8598D01*
X39538Y-8673D01*
X39502Y-8758D01*
X39483Y-8847D01*
X39482Y-8939D01*
X39498Y-9029D01*
X39532Y-9114D01*
X39581Y-9191D01*
X39645Y-9257D01*
X39720Y-9309D01*
X39804Y-9346D01*
X39894Y-9366D01*
X39984Y-9368D01*
X39984Y-9532D01*
X39933Y-9532D01*
X39901Y-9539D01*
X39871Y-9551D01*
X39843Y-9569D01*
X39820Y-9592D01*
X39802Y-9620D01*
X39789Y-9650D01*
X39782Y-9682D01*
X39782Y-9715D01*
X39782Y-10516D01*
X39789Y-10548D01*
X39801Y-10578D01*
X39819Y-10606D01*
X39838Y-10625D01*
X39820Y-10642D01*
X39802Y-10670D01*
X39789Y-10700D01*
X39782Y-10732D01*
X39782Y-10765D01*
X39782Y-11566D01*
X39789Y-11598D01*
X39801Y-11628D01*
X39819Y-11656D01*
X39838Y-11675D01*
X39820Y-11692D01*
X39802Y-11720D01*
X39789Y-11750D01*
X39782Y-11782D01*
X39782Y-11815D01*
X39782Y-12616D01*
X39789Y-12648D01*
X39801Y-12678D01*
X39819Y-12706D01*
X39842Y-12729D01*
X39870Y-12747D01*
X39900Y-12760D01*
X39932Y-12767D01*
X39965Y-12767D01*
X40023Y-12767D01*
X40023Y-12782D01*
X40023Y-12782D01*
G37*
G54D30*
X40023Y-12782D02*
X39417Y-12782D01*
X39417Y-12584D01*
X39417Y-11783D01*
X39410Y-11751D01*
X39398Y-11721D01*
X39380Y-11693D01*
X39361Y-11674D01*
X39379Y-11657D01*
X39397Y-11629D01*
X39410Y-11599D01*
X39417Y-11567D01*
X39417Y-11534D01*
X39417Y-10733D01*
X39410Y-10701D01*
X39398Y-10671D01*
X39380Y-10643D01*
X39361Y-10624D01*
X39379Y-10607D01*
X39397Y-10579D01*
X39410Y-10549D01*
X39417Y-10517D01*
X39417Y-10484D01*
X39417Y-9715D01*
X39417Y-9184D01*
X39417Y-8951D01*
X39375Y-8909D01*
X38959Y-8909D01*
X38959Y-9325D01*
X39001Y-9367D01*
X39266Y-9367D01*
X39298Y-9360D01*
X39328Y-9348D01*
X39356Y-9330D01*
X39379Y-9307D01*
X39397Y-9279D01*
X39410Y-9249D01*
X39417Y-9217D01*
X39417Y-9184D01*
X39417Y-9715D01*
X39417Y-9682D01*
X39410Y-9650D01*
X39397Y-9620D01*
X39379Y-9592D01*
X39356Y-9569D01*
X39328Y-9551D01*
X39298Y-9539D01*
X39266Y-9532D01*
X39001Y-9532D01*
X38959Y-9574D01*
X38959Y-10090D01*
X39375Y-10090D01*
X39417Y-10048D01*
X39417Y-9715D01*
X39417Y-10484D01*
X39417Y-10151D01*
X39375Y-10109D01*
X38959Y-10109D01*
X38959Y-10117D01*
X38940Y-10117D01*
X38940Y-10109D01*
X38940Y-10090D01*
X38940Y-9574D01*
X38940Y-9325D01*
X38940Y-8909D01*
X38524Y-8909D01*
X38482Y-8951D01*
X38482Y-9184D01*
X38482Y-9217D01*
X38489Y-9249D01*
X38502Y-9279D01*
X38520Y-9307D01*
X38543Y-9330D01*
X38571Y-9348D01*
X38601Y-9360D01*
X38633Y-9367D01*
X38898Y-9367D01*
X38940Y-9325D01*
X38940Y-9574D01*
X38898Y-9532D01*
X38633Y-9532D01*
X38601Y-9539D01*
X38571Y-9551D01*
X38543Y-9569D01*
X38520Y-9592D01*
X38502Y-9620D01*
X38489Y-9650D01*
X38482Y-9682D01*
X38482Y-9715D01*
X38482Y-10048D01*
X38524Y-10090D01*
X38940Y-10090D01*
X38940Y-10109D01*
X38524Y-10109D01*
X38482Y-10151D01*
X38482Y-10484D01*
X38482Y-10517D01*
X38489Y-10549D01*
X38502Y-10579D01*
X38520Y-10607D01*
X38538Y-10625D01*
X38520Y-10642D01*
X38502Y-10670D01*
X38489Y-10700D01*
X38482Y-10732D01*
X38482Y-10765D01*
X38482Y-11566D01*
X38489Y-11598D01*
X38501Y-11628D01*
X38519Y-11656D01*
X38538Y-11675D01*
X38520Y-11692D01*
X38502Y-11720D01*
X38489Y-11750D01*
X38482Y-11782D01*
X38482Y-11815D01*
X38482Y-12616D01*
X38489Y-12648D01*
X38501Y-12678D01*
X38519Y-12706D01*
X38542Y-12729D01*
X38570Y-12747D01*
X38600Y-12760D01*
X38632Y-12767D01*
X38665Y-12767D01*
X39266Y-12767D01*
X39298Y-12760D01*
X39328Y-12748D01*
X39356Y-12730D01*
X39379Y-12707D01*
X39397Y-12679D01*
X39410Y-12649D01*
X39417Y-12617D01*
X39417Y-12584D01*
X39417Y-12782D01*
X38500Y-12782D01*
X38480Y-12784D01*
X38460Y-12786D01*
X38458Y-12786D01*
X38457Y-12786D01*
X38438Y-12792D01*
X38419Y-12798D01*
X38418Y-12798D01*
X38417Y-12799D01*
X38399Y-12808D01*
X38381Y-12817D01*
X38380Y-12818D01*
X38379Y-12818D01*
X38364Y-12831D01*
X38348Y-12844D01*
X38346Y-12845D01*
X38346Y-12845D01*
X38346Y-12845D01*
X38346Y-12846D01*
X38333Y-12858D01*
X38316Y-12832D01*
X38269Y-12784D01*
X38243Y-12767D01*
X38266Y-12767D01*
X38298Y-12760D01*
X38328Y-12748D01*
X38356Y-12730D01*
X38379Y-12707D01*
X38397Y-12679D01*
X38410Y-12649D01*
X38417Y-12617D01*
X38417Y-12584D01*
X38417Y-11783D01*
X38410Y-11751D01*
X38398Y-11721D01*
X38380Y-11693D01*
X38361Y-11674D01*
X38379Y-11657D01*
X38397Y-11629D01*
X38410Y-11599D01*
X38417Y-11567D01*
X38417Y-11534D01*
X38417Y-10733D01*
X38410Y-10701D01*
X38398Y-10671D01*
X38380Y-10643D01*
X38361Y-10624D01*
X38379Y-10607D01*
X38397Y-10579D01*
X38410Y-10549D01*
X38417Y-10517D01*
X38417Y-10484D01*
X38417Y-9683D01*
X38410Y-9651D01*
X38398Y-9621D01*
X38380Y-9593D01*
X38357Y-9570D01*
X38329Y-9552D01*
X38299Y-9539D01*
X38267Y-9532D01*
X38234Y-9532D01*
X38215Y-9532D01*
X38215Y-9284D01*
X38239Y-9270D01*
X38305Y-9206D01*
X38358Y-9131D01*
X38395Y-9048D01*
X38415Y-8958D01*
X38417Y-8854D01*
X38399Y-8764D01*
X38364Y-8679D01*
X38313Y-8603D01*
X38249Y-8538D01*
X38173Y-8486D01*
X38120Y-8464D01*
X38551Y-8464D01*
X38543Y-8469D01*
X38520Y-8492D01*
X38502Y-8520D01*
X38489Y-8550D01*
X38482Y-8582D01*
X38482Y-8615D01*
X38482Y-8848D01*
X38524Y-8890D01*
X38940Y-8890D01*
X38940Y-8882D01*
X38959Y-8882D01*
X38959Y-8890D01*
X39375Y-8890D01*
X39417Y-8848D01*
X39417Y-8615D01*
X39417Y-8582D01*
X39410Y-8550D01*
X39397Y-8520D01*
X39379Y-8492D01*
X39356Y-8469D01*
X39348Y-8464D01*
X39780Y-8464D01*
X39732Y-8483D01*
X39655Y-8534D01*
X39590Y-8598D01*
X39538Y-8673D01*
X39502Y-8758D01*
X39483Y-8847D01*
X39482Y-8939D01*
X39498Y-9029D01*
X39532Y-9114D01*
X39581Y-9191D01*
X39645Y-9257D01*
X39720Y-9309D01*
X39804Y-9346D01*
X39894Y-9366D01*
X39984Y-9368D01*
X39984Y-9532D01*
X39933Y-9532D01*
X39901Y-9539D01*
X39871Y-9551D01*
X39843Y-9569D01*
X39820Y-9592D01*
X39802Y-9620D01*
X39789Y-9650D01*
X39782Y-9682D01*
X39782Y-9715D01*
X39782Y-10516D01*
X39789Y-10548D01*
X39801Y-10578D01*
X39819Y-10606D01*
X39838Y-10625D01*
X39820Y-10642D01*
X39802Y-10670D01*
X39789Y-10700D01*
X39782Y-10732D01*
X39782Y-10765D01*
X39782Y-11566D01*
X39789Y-11598D01*
X39801Y-11628D01*
X39819Y-11656D01*
X39838Y-11675D01*
X39820Y-11692D01*
X39802Y-11720D01*
X39789Y-11750D01*
X39782Y-11782D01*
X39782Y-11815D01*
X39782Y-12616D01*
X39789Y-12648D01*
X39801Y-12678D01*
X39819Y-12706D01*
X39842Y-12729D01*
X39870Y-12747D01*
X39900Y-12760D01*
X39932Y-12767D01*
X39965Y-12767D01*
X40023Y-12767D01*
X40023Y-12782D01*
G54D10*
G36*
X40748Y-19094D02*
X40731Y-19094D01*
X40731Y-18015D01*
X40694Y-17829D01*
X40622Y-17653D01*
X40517Y-17495D01*
X40383Y-17361D01*
X40226Y-17255D01*
X40051Y-17181D01*
X39865Y-17143D01*
X39675Y-17142D01*
X39489Y-17177D01*
X39313Y-17248D01*
X39154Y-17352D01*
X39019Y-17485D01*
X38912Y-17641D01*
X38837Y-17816D01*
X38797Y-18001D01*
X38795Y-18191D01*
X38829Y-18378D01*
X38899Y-18554D01*
X39002Y-18713D01*
X39133Y-18850D01*
X39289Y-18958D01*
X39463Y-19034D01*
X39648Y-19075D01*
X39838Y-19079D01*
X40025Y-19046D01*
X40202Y-18977D01*
X40362Y-18876D01*
X40499Y-18745D01*
X40608Y-18590D01*
X40686Y-18417D01*
X40728Y-18232D01*
X40731Y-18015D01*
X40731Y-19094D01*
X35925Y-19094D01*
X36020Y-18999D01*
X36094Y-19016D01*
X36186Y-19018D01*
X36276Y-19002D01*
X36361Y-18969D01*
X36439Y-18920D01*
X36505Y-18856D01*
X36558Y-18781D01*
X36595Y-18698D01*
X36615Y-18608D01*
X36617Y-18504D01*
X36599Y-18414D01*
X36597Y-18409D01*
X36803Y-18203D01*
X36816Y-18188D01*
X36829Y-18172D01*
X36829Y-18171D01*
X36830Y-18170D01*
X36840Y-18153D01*
X36849Y-18135D01*
X36850Y-18134D01*
X36850Y-18133D01*
X36856Y-18114D01*
X36862Y-18095D01*
X36862Y-18094D01*
X36863Y-18092D01*
X36865Y-18072D01*
X36867Y-18053D01*
X36867Y-18050D01*
X36867Y-18050D01*
X36867Y-18050D01*
X36867Y-18050D01*
X36867Y-17922D01*
X36920Y-17959D01*
X37004Y-17996D01*
X37094Y-18016D01*
X37186Y-18018D01*
X37276Y-18002D01*
X37361Y-17969D01*
X37439Y-17920D01*
X37498Y-17863D01*
X37498Y-17893D01*
X37290Y-18102D01*
X37288Y-18101D01*
X37199Y-18082D01*
X37107Y-18082D01*
X37017Y-18099D01*
X36932Y-18133D01*
X36855Y-18184D01*
X36790Y-18248D01*
X36738Y-18323D01*
X36702Y-18408D01*
X36683Y-18497D01*
X36682Y-18589D01*
X36698Y-18679D01*
X36732Y-18764D01*
X36781Y-18841D01*
X36845Y-18907D01*
X36920Y-18959D01*
X37004Y-18996D01*
X37094Y-19016D01*
X37186Y-19018D01*
X37276Y-19002D01*
X37361Y-18969D01*
X37439Y-18920D01*
X37505Y-18856D01*
X37558Y-18781D01*
X37595Y-18698D01*
X37615Y-18608D01*
X37617Y-18504D01*
X37599Y-18414D01*
X37597Y-18409D01*
X37869Y-18137D01*
X37882Y-18121D01*
X37895Y-18106D01*
X37896Y-18105D01*
X37896Y-18104D01*
X37906Y-18087D01*
X37915Y-18069D01*
X37916Y-18068D01*
X37916Y-18067D01*
X37922Y-18048D01*
X37928Y-18029D01*
X37928Y-18027D01*
X37929Y-18026D01*
X37931Y-18006D01*
X37933Y-17986D01*
X37933Y-17984D01*
X37933Y-17984D01*
X37933Y-17984D01*
X37933Y-17983D01*
X37933Y-15968D01*
X38022Y-15968D01*
X38054Y-15962D01*
X38084Y-15949D01*
X38111Y-15931D01*
X38132Y-15911D01*
X38132Y-16150D01*
X38134Y-16169D01*
X38136Y-16189D01*
X38136Y-16191D01*
X38136Y-16192D01*
X38142Y-16211D01*
X38148Y-16230D01*
X38148Y-16231D01*
X38149Y-16232D01*
X38158Y-16250D01*
X38167Y-16268D01*
X38168Y-16269D01*
X38168Y-16270D01*
X38181Y-16285D01*
X38194Y-16301D01*
X38195Y-16303D01*
X38195Y-16303D01*
X38195Y-16303D01*
X38196Y-16303D01*
X38266Y-16373D01*
X38281Y-16386D01*
X38297Y-16399D01*
X38298Y-16399D01*
X38299Y-16400D01*
X38316Y-16410D01*
X38334Y-16419D01*
X38335Y-16420D01*
X38336Y-16420D01*
X38355Y-16426D01*
X38374Y-16432D01*
X38375Y-16432D01*
X38377Y-16433D01*
X38397Y-16435D01*
X38402Y-16435D01*
X38402Y-16636D01*
X38409Y-16668D01*
X38421Y-16698D01*
X38439Y-16726D01*
X38462Y-16749D01*
X38490Y-16767D01*
X38520Y-16780D01*
X38552Y-16787D01*
X38585Y-16787D01*
X39186Y-16787D01*
X39218Y-16780D01*
X39248Y-16768D01*
X39276Y-16750D01*
X39299Y-16727D01*
X39317Y-16699D01*
X39330Y-16669D01*
X39337Y-16637D01*
X39337Y-16604D01*
X39337Y-16496D01*
X39372Y-16520D01*
X39433Y-16547D01*
X39499Y-16561D01*
X39566Y-16562D01*
X39632Y-16551D01*
X39695Y-16527D01*
X39702Y-16522D01*
X39702Y-16636D01*
X39709Y-16668D01*
X39721Y-16698D01*
X39739Y-16726D01*
X39762Y-16749D01*
X39790Y-16767D01*
X39820Y-16780D01*
X39852Y-16787D01*
X39885Y-16787D01*
X40486Y-16787D01*
X40518Y-16780D01*
X40548Y-16768D01*
X40576Y-16750D01*
X40599Y-16727D01*
X40617Y-16699D01*
X40630Y-16669D01*
X40637Y-16637D01*
X40637Y-16604D01*
X40637Y-15803D01*
X40630Y-15771D01*
X40618Y-15741D01*
X40600Y-15713D01*
X40577Y-15690D01*
X40549Y-15672D01*
X40519Y-15659D01*
X40487Y-15652D01*
X40454Y-15652D01*
X40254Y-15652D01*
X40403Y-15503D01*
X40416Y-15488D01*
X40429Y-15472D01*
X40429Y-15471D01*
X40430Y-15470D01*
X40440Y-15453D01*
X40449Y-15435D01*
X40450Y-15434D01*
X40450Y-15433D01*
X40456Y-15414D01*
X40462Y-15395D01*
X40462Y-15394D01*
X40463Y-15392D01*
X40465Y-15372D01*
X40465Y-15367D01*
X40566Y-15367D01*
X40598Y-15360D01*
X40628Y-15348D01*
X40656Y-15330D01*
X40679Y-15307D01*
X40697Y-15279D01*
X40710Y-15249D01*
X40717Y-15217D01*
X40717Y-15184D01*
X40717Y-14383D01*
X40710Y-14351D01*
X40698Y-14321D01*
X40680Y-14293D01*
X40661Y-14274D01*
X40679Y-14257D01*
X40697Y-14229D01*
X40710Y-14199D01*
X40717Y-14167D01*
X40717Y-14134D01*
X40717Y-13333D01*
X40710Y-13301D01*
X40698Y-13271D01*
X40680Y-13243D01*
X40657Y-13220D01*
X40629Y-13202D01*
X40599Y-13189D01*
X40567Y-13182D01*
X40534Y-13182D01*
X40476Y-13182D01*
X40476Y-13050D01*
X40476Y-13000D01*
X40476Y-12767D01*
X40566Y-12767D01*
X40598Y-12760D01*
X40628Y-12748D01*
X40656Y-12730D01*
X40679Y-12707D01*
X40697Y-12679D01*
X40710Y-12649D01*
X40717Y-12617D01*
X40717Y-12584D01*
X40717Y-11783D01*
X40710Y-11751D01*
X40698Y-11721D01*
X40680Y-11693D01*
X40661Y-11674D01*
X40679Y-11657D01*
X40697Y-11629D01*
X40710Y-11599D01*
X40717Y-11567D01*
X40717Y-11534D01*
X40717Y-10733D01*
X40710Y-10701D01*
X40698Y-10671D01*
X40680Y-10643D01*
X40661Y-10624D01*
X40679Y-10607D01*
X40697Y-10579D01*
X40710Y-10549D01*
X40717Y-10517D01*
X40717Y-10484D01*
X40717Y-9683D01*
X40710Y-9651D01*
X40698Y-9621D01*
X40680Y-9593D01*
X40657Y-9570D01*
X40629Y-9552D01*
X40599Y-9539D01*
X40567Y-9532D01*
X40534Y-9532D01*
X40515Y-9532D01*
X40515Y-9200D01*
X40513Y-9175D01*
X40511Y-9151D01*
X40510Y-9149D01*
X40510Y-9148D01*
X40503Y-9124D01*
X40496Y-9101D01*
X40496Y-9100D01*
X40495Y-9098D01*
X40484Y-9077D01*
X40472Y-9055D01*
X40472Y-9054D01*
X40471Y-9052D01*
X40455Y-9033D01*
X40440Y-9014D01*
X40438Y-9012D01*
X40438Y-9012D01*
X40438Y-9012D01*
X40437Y-9012D01*
X40410Y-8984D01*
X40415Y-8958D01*
X40417Y-8854D01*
X40399Y-8764D01*
X40364Y-8679D01*
X40313Y-8603D01*
X40249Y-8538D01*
X40173Y-8486D01*
X40120Y-8464D01*
X40748Y-8464D01*
X40748Y-19094D01*
X40748Y-19094D01*
G37*
G54D30*
X40748Y-19094D02*
X40731Y-19094D01*
X40731Y-18015D01*
X40694Y-17829D01*
X40622Y-17653D01*
X40517Y-17495D01*
X40383Y-17361D01*
X40226Y-17255D01*
X40051Y-17181D01*
X39865Y-17143D01*
X39675Y-17142D01*
X39489Y-17177D01*
X39313Y-17248D01*
X39154Y-17352D01*
X39019Y-17485D01*
X38912Y-17641D01*
X38837Y-17816D01*
X38797Y-18001D01*
X38795Y-18191D01*
X38829Y-18378D01*
X38899Y-18554D01*
X39002Y-18713D01*
X39133Y-18850D01*
X39289Y-18958D01*
X39463Y-19034D01*
X39648Y-19075D01*
X39838Y-19079D01*
X40025Y-19046D01*
X40202Y-18977D01*
X40362Y-18876D01*
X40499Y-18745D01*
X40608Y-18590D01*
X40686Y-18417D01*
X40728Y-18232D01*
X40731Y-18015D01*
X40731Y-19094D01*
X35925Y-19094D01*
X36020Y-18999D01*
X36094Y-19016D01*
X36186Y-19018D01*
X36276Y-19002D01*
X36361Y-18969D01*
X36439Y-18920D01*
X36505Y-18856D01*
X36558Y-18781D01*
X36595Y-18698D01*
X36615Y-18608D01*
X36617Y-18504D01*
X36599Y-18414D01*
X36597Y-18409D01*
X36803Y-18203D01*
X36816Y-18188D01*
X36829Y-18172D01*
X36829Y-18171D01*
X36830Y-18170D01*
X36840Y-18153D01*
X36849Y-18135D01*
X36850Y-18134D01*
X36850Y-18133D01*
X36856Y-18114D01*
X36862Y-18095D01*
X36862Y-18094D01*
X36863Y-18092D01*
X36865Y-18072D01*
X36867Y-18053D01*
X36867Y-18050D01*
X36867Y-18050D01*
X36867Y-18050D01*
X36867Y-18050D01*
X36867Y-17922D01*
X36920Y-17959D01*
X37004Y-17996D01*
X37094Y-18016D01*
X37186Y-18018D01*
X37276Y-18002D01*
X37361Y-17969D01*
X37439Y-17920D01*
X37498Y-17863D01*
X37498Y-17893D01*
X37290Y-18102D01*
X37288Y-18101D01*
X37199Y-18082D01*
X37107Y-18082D01*
X37017Y-18099D01*
X36932Y-18133D01*
X36855Y-18184D01*
X36790Y-18248D01*
X36738Y-18323D01*
X36702Y-18408D01*
X36683Y-18497D01*
X36682Y-18589D01*
X36698Y-18679D01*
X36732Y-18764D01*
X36781Y-18841D01*
X36845Y-18907D01*
X36920Y-18959D01*
X37004Y-18996D01*
X37094Y-19016D01*
X37186Y-19018D01*
X37276Y-19002D01*
X37361Y-18969D01*
X37439Y-18920D01*
X37505Y-18856D01*
X37558Y-18781D01*
X37595Y-18698D01*
X37615Y-18608D01*
X37617Y-18504D01*
X37599Y-18414D01*
X37597Y-18409D01*
X37869Y-18137D01*
X37882Y-18121D01*
X37895Y-18106D01*
X37896Y-18105D01*
X37896Y-18104D01*
X37906Y-18087D01*
X37915Y-18069D01*
X37916Y-18068D01*
X37916Y-18067D01*
X37922Y-18048D01*
X37928Y-18029D01*
X37928Y-18027D01*
X37929Y-18026D01*
X37931Y-18006D01*
X37933Y-17986D01*
X37933Y-17984D01*
X37933Y-17984D01*
X37933Y-17984D01*
X37933Y-17983D01*
X37933Y-15968D01*
X38022Y-15968D01*
X38054Y-15962D01*
X38084Y-15949D01*
X38111Y-15931D01*
X38132Y-15911D01*
X38132Y-16150D01*
X38134Y-16169D01*
X38136Y-16189D01*
X38136Y-16191D01*
X38136Y-16192D01*
X38142Y-16211D01*
X38148Y-16230D01*
X38148Y-16231D01*
X38149Y-16232D01*
X38158Y-16250D01*
X38167Y-16268D01*
X38168Y-16269D01*
X38168Y-16270D01*
X38181Y-16285D01*
X38194Y-16301D01*
X38195Y-16303D01*
X38195Y-16303D01*
X38195Y-16303D01*
X38196Y-16303D01*
X38266Y-16373D01*
X38281Y-16386D01*
X38297Y-16399D01*
X38298Y-16399D01*
X38299Y-16400D01*
X38316Y-16410D01*
X38334Y-16419D01*
X38335Y-16420D01*
X38336Y-16420D01*
X38355Y-16426D01*
X38374Y-16432D01*
X38375Y-16432D01*
X38377Y-16433D01*
X38397Y-16435D01*
X38402Y-16435D01*
X38402Y-16636D01*
X38409Y-16668D01*
X38421Y-16698D01*
X38439Y-16726D01*
X38462Y-16749D01*
X38490Y-16767D01*
X38520Y-16780D01*
X38552Y-16787D01*
X38585Y-16787D01*
X39186Y-16787D01*
X39218Y-16780D01*
X39248Y-16768D01*
X39276Y-16750D01*
X39299Y-16727D01*
X39317Y-16699D01*
X39330Y-16669D01*
X39337Y-16637D01*
X39337Y-16604D01*
X39337Y-16496D01*
X39372Y-16520D01*
X39433Y-16547D01*
X39499Y-16561D01*
X39566Y-16562D01*
X39632Y-16551D01*
X39695Y-16527D01*
X39702Y-16522D01*
X39702Y-16636D01*
X39709Y-16668D01*
X39721Y-16698D01*
X39739Y-16726D01*
X39762Y-16749D01*
X39790Y-16767D01*
X39820Y-16780D01*
X39852Y-16787D01*
X39885Y-16787D01*
X40486Y-16787D01*
X40518Y-16780D01*
X40548Y-16768D01*
X40576Y-16750D01*
X40599Y-16727D01*
X40617Y-16699D01*
X40630Y-16669D01*
X40637Y-16637D01*
X40637Y-16604D01*
X40637Y-15803D01*
X40630Y-15771D01*
X40618Y-15741D01*
X40600Y-15713D01*
X40577Y-15690D01*
X40549Y-15672D01*
X40519Y-15659D01*
X40487Y-15652D01*
X40454Y-15652D01*
X40254Y-15652D01*
X40403Y-15503D01*
X40416Y-15488D01*
X40429Y-15472D01*
X40429Y-15471D01*
X40430Y-15470D01*
X40440Y-15453D01*
X40449Y-15435D01*
X40450Y-15434D01*
X40450Y-15433D01*
X40456Y-15414D01*
X40462Y-15395D01*
X40462Y-15394D01*
X40463Y-15392D01*
X40465Y-15372D01*
X40465Y-15367D01*
X40566Y-15367D01*
X40598Y-15360D01*
X40628Y-15348D01*
X40656Y-15330D01*
X40679Y-15307D01*
X40697Y-15279D01*
X40710Y-15249D01*
X40717Y-15217D01*
X40717Y-15184D01*
X40717Y-14383D01*
X40710Y-14351D01*
X40698Y-14321D01*
X40680Y-14293D01*
X40661Y-14274D01*
X40679Y-14257D01*
X40697Y-14229D01*
X40710Y-14199D01*
X40717Y-14167D01*
X40717Y-14134D01*
X40717Y-13333D01*
X40710Y-13301D01*
X40698Y-13271D01*
X40680Y-13243D01*
X40657Y-13220D01*
X40629Y-13202D01*
X40599Y-13189D01*
X40567Y-13182D01*
X40534Y-13182D01*
X40476Y-13182D01*
X40476Y-13050D01*
X40476Y-13000D01*
X40476Y-12767D01*
X40566Y-12767D01*
X40598Y-12760D01*
X40628Y-12748D01*
X40656Y-12730D01*
X40679Y-12707D01*
X40697Y-12679D01*
X40710Y-12649D01*
X40717Y-12617D01*
X40717Y-12584D01*
X40717Y-11783D01*
X40710Y-11751D01*
X40698Y-11721D01*
X40680Y-11693D01*
X40661Y-11674D01*
X40679Y-11657D01*
X40697Y-11629D01*
X40710Y-11599D01*
X40717Y-11567D01*
X40717Y-11534D01*
X40717Y-10733D01*
X40710Y-10701D01*
X40698Y-10671D01*
X40680Y-10643D01*
X40661Y-10624D01*
X40679Y-10607D01*
X40697Y-10579D01*
X40710Y-10549D01*
X40717Y-10517D01*
X40717Y-10484D01*
X40717Y-9683D01*
X40710Y-9651D01*
X40698Y-9621D01*
X40680Y-9593D01*
X40657Y-9570D01*
X40629Y-9552D01*
X40599Y-9539D01*
X40567Y-9532D01*
X40534Y-9532D01*
X40515Y-9532D01*
X40515Y-9200D01*
X40513Y-9175D01*
X40511Y-9151D01*
X40510Y-9149D01*
X40510Y-9148D01*
X40503Y-9124D01*
X40496Y-9101D01*
X40496Y-9100D01*
X40495Y-9098D01*
X40484Y-9077D01*
X40472Y-9055D01*
X40472Y-9054D01*
X40471Y-9052D01*
X40455Y-9033D01*
X40440Y-9014D01*
X40438Y-9012D01*
X40438Y-9012D01*
X40438Y-9012D01*
X40437Y-9012D01*
X40410Y-8984D01*
X40415Y-8958D01*
X40417Y-8854D01*
X40399Y-8764D01*
X40364Y-8679D01*
X40313Y-8603D01*
X40249Y-8538D01*
X40173Y-8486D01*
X40120Y-8464D01*
X40748Y-8464D01*
X40748Y-19094D01*
M02*
