M48
;DRILL file {Pcbnew (2014-03-19 BZR 4756)-product} date Wed 25 Jun 2014 01:09:01 CDT
;FORMAT={-:-/ absolute / metric / decimal}
FMAT,2
METRIC,TZ
T1C0.635
T2C1.016
%
G90
G05
M71
T1
X132.505Y-68.016
X133.858Y-83.82
X135.128Y-78.486
X139.192Y-78.486
X140.97Y-69.85
X140.97Y-76.2
X141.478Y-71.628
X141.478Y-72.898
X142.24Y-82.55
X145.542Y-73.66
X146.05Y-76.962
X149.352Y-78.232
X150.102Y-71.103
X154.94Y-83.82
X156.21Y-73.66
X159.512Y-78.486
X161.29Y-69.85
X161.29Y-76.2
X161.798Y-71.374
X161.798Y-72.644
X162.052Y-74.168
X162.56Y-82.55
X166.37Y-76.962
X169.672Y-78.486
X169.754Y-68.244
T2
X124.46Y-62.23
X124.46Y-64.77
X124.46Y-67.31
X124.46Y-69.85
X124.46Y-72.39
X124.46Y-74.93
X124.46Y-77.47
X124.46Y-80.01
X124.46Y-82.55
X124.46Y-85.09
X127.Y-62.23
X127.Y-64.77
X127.Y-67.31
X127.Y-69.85
X127.Y-72.39
X127.Y-74.93
X127.Y-77.47
X127.Y-80.01
X127.Y-82.55
X127.Y-85.09
X129.54Y-85.09
X129.54Y-87.63
X130.81Y-60.96
X130.81Y-63.5
X130.81Y-74.93
X133.35Y-72.39
X133.35Y-74.93
X134.62Y-87.63
X135.89Y-60.96
X135.89Y-63.5
X137.16Y-85.09
X137.16Y-87.63
X138.43Y-60.96
X138.43Y-63.5
X139.7Y-85.09
X139.7Y-87.63
X142.24Y-87.63
X143.51Y-60.96
X143.51Y-63.5
X144.78Y-87.63
X146.05Y-60.96
X146.05Y-63.5
X147.32Y-85.09
X147.32Y-87.63
X148.59Y-72.39
X148.59Y-74.93
X149.86Y-60.96
X149.86Y-63.5
X149.86Y-85.09
X149.86Y-87.63
X151.13Y-74.93
X152.4Y-60.96
X152.4Y-63.5
X153.67Y-72.39
X154.94Y-87.63
X156.21Y-60.96
X156.21Y-63.5
X157.48Y-85.09
X157.48Y-87.63
X158.75Y-60.96
X158.75Y-63.5
X160.02Y-85.09
X160.02Y-87.63
X162.56Y-87.63
X163.83Y-60.96
X163.83Y-63.5
X165.1Y-87.63
X166.37Y-60.96
X166.37Y-63.5
X167.64Y-87.63
X168.91Y-72.39
X170.18Y-85.09
X170.18Y-87.63
X171.45Y-60.96
X171.45Y-63.5
X175.26Y-64.77
X175.26Y-67.31
X175.26Y-69.85
X175.26Y-72.39
X175.26Y-74.93
X175.26Y-77.47
X175.26Y-80.01
X175.26Y-82.55
X175.26Y-85.09
X175.26Y-87.63
X177.8Y-64.77
X177.8Y-67.31
X177.8Y-69.85
X177.8Y-72.39
X177.8Y-74.93
X177.8Y-77.47
X177.8Y-80.01
X177.8Y-82.55
X177.8Y-85.09
X177.8Y-87.63
T0
M30
