%FSLAX34Y34*%
G04 Gerber Fmt 3.4, Leading zero omitted, Abs format*
G04 (created by PCBNEW (2014-03-19 BZR 4756)-product) date Wed 25 Jun 2014 01:08:57 CDT*
%MOIN*%
G01*
G70*
G90*
G04 APERTURE LIST*
%ADD10C,0.003937*%
%ADD11R,0.035000X0.055000*%
%ADD12R,0.023600X0.039400*%
%ADD13R,0.055000X0.035000*%
%ADD14R,0.059055X0.023622*%
G04 APERTURE END LIST*
G54D10*
G54D11*
X54125Y-30000D03*
X54875Y-30000D03*
X62125Y-30000D03*
X62875Y-30000D03*
X66625Y-32500D03*
X67375Y-32500D03*
X62625Y-32500D03*
X63375Y-32500D03*
X58625Y-32500D03*
X59375Y-32500D03*
X54625Y-32500D03*
X55375Y-32500D03*
G54D12*
X65625Y-31666D03*
X66000Y-30834D03*
X66375Y-31666D03*
X61625Y-31666D03*
X62000Y-30834D03*
X62375Y-31666D03*
X57625Y-31666D03*
X58000Y-30834D03*
X58375Y-31666D03*
X53625Y-31666D03*
X54000Y-30834D03*
X54375Y-31666D03*
G54D11*
X66375Y-27000D03*
X65625Y-27000D03*
X66375Y-26000D03*
X65625Y-26000D03*
X58375Y-27000D03*
X57625Y-27000D03*
X58375Y-26000D03*
X57625Y-26000D03*
X61375Y-27000D03*
X60625Y-27000D03*
X61375Y-26000D03*
X60625Y-26000D03*
X53375Y-27000D03*
X52625Y-27000D03*
X53375Y-26000D03*
X52625Y-26000D03*
G54D13*
X67500Y-31625D03*
X67500Y-30875D03*
X63500Y-31625D03*
X63500Y-30875D03*
X59500Y-31625D03*
X59500Y-30875D03*
X55500Y-31625D03*
X55500Y-30875D03*
X64500Y-30875D03*
X64500Y-31625D03*
X60500Y-30875D03*
X60500Y-31625D03*
X56500Y-30875D03*
X56500Y-31625D03*
X52500Y-30875D03*
X52500Y-31625D03*
G54D11*
X65375Y-32500D03*
X64625Y-32500D03*
X61375Y-32500D03*
X60625Y-32500D03*
X57375Y-32500D03*
X56625Y-32500D03*
X53375Y-32500D03*
X52625Y-32500D03*
G54D14*
X64562Y-29000D03*
X64562Y-28500D03*
X64562Y-28000D03*
X64562Y-27500D03*
X64562Y-27000D03*
X64562Y-26500D03*
X64562Y-26000D03*
X62437Y-26000D03*
X62437Y-26500D03*
X62437Y-27000D03*
X62437Y-27500D03*
X62437Y-28000D03*
X62437Y-28500D03*
X62437Y-29000D03*
X56562Y-29000D03*
X56562Y-28500D03*
X56562Y-28000D03*
X56562Y-27500D03*
X56562Y-27000D03*
X56562Y-26500D03*
X56562Y-26000D03*
X54437Y-26000D03*
X54437Y-26500D03*
X54437Y-27000D03*
X54437Y-27500D03*
X54437Y-28000D03*
X54437Y-28500D03*
X54437Y-29000D03*
M02*
