%FSLAX34Y34*%
G04 Gerber Fmt 3.4, Leading zero omitted, Abs format*
G04 (created by PCBNEW (2014-03-19 BZR 4756)-product) date Wed 25 Jun 2014 01:08:57 CDT*
%MOIN*%
G01*
G70*
G90*
G04 APERTURE LIST*
%ADD10C,0.003937*%
%ADD11C,0.007874*%
%ADD12C,0.004300*%
%ADD13C,0.003900*%
%ADD14C,0.010000*%
%ADD15C,0.005906*%
G04 APERTURE END LIST*
G54D10*
G54D11*
X59000Y-29000D02*
X59000Y-29800D01*
X52000Y-29000D02*
X52000Y-29800D01*
X60000Y-30000D02*
X59800Y-30000D01*
X51000Y-30000D02*
X51200Y-30000D01*
G54D12*
X59345Y-29892D02*
X59410Y-30089D01*
X59476Y-29892D01*
X59626Y-30089D02*
X59626Y-29892D01*
X59626Y-30079D02*
X59607Y-30089D01*
X59570Y-30089D01*
X59551Y-30079D01*
X59542Y-30070D01*
X59532Y-30051D01*
X59532Y-29995D01*
X59542Y-29976D01*
X59551Y-29967D01*
X59570Y-29957D01*
X59607Y-29957D01*
X59626Y-29967D01*
X51345Y-29892D02*
X51410Y-30089D01*
X51476Y-29892D01*
X51626Y-30089D02*
X51626Y-29892D01*
X51626Y-30079D02*
X51607Y-30089D01*
X51570Y-30089D01*
X51551Y-30079D01*
X51542Y-30070D01*
X51532Y-30051D01*
X51532Y-29995D01*
X51542Y-29976D01*
X51551Y-29967D01*
X51570Y-29957D01*
X51607Y-29957D01*
X51626Y-29967D01*
X70789Y-26743D02*
X70592Y-26743D01*
X70592Y-26668D01*
X70601Y-26650D01*
X70610Y-26640D01*
X70629Y-26631D01*
X70657Y-26631D01*
X70676Y-26640D01*
X70685Y-26650D01*
X70695Y-26668D01*
X70695Y-26743D01*
X70685Y-26481D02*
X70695Y-26453D01*
X70704Y-26443D01*
X70723Y-26434D01*
X70751Y-26434D01*
X70770Y-26443D01*
X70779Y-26453D01*
X70789Y-26471D01*
X70789Y-26546D01*
X70592Y-26546D01*
X70592Y-26481D01*
X70601Y-26462D01*
X70610Y-26453D01*
X70629Y-26443D01*
X70648Y-26443D01*
X70667Y-26453D01*
X70676Y-26462D01*
X70685Y-26481D01*
X70685Y-26546D01*
X70592Y-26368D02*
X70592Y-26246D01*
X70667Y-26312D01*
X70667Y-26284D01*
X70676Y-26265D01*
X70685Y-26256D01*
X70704Y-26246D01*
X70751Y-26246D01*
X70770Y-26256D01*
X70779Y-26265D01*
X70789Y-26284D01*
X70789Y-26340D01*
X70779Y-26359D01*
X70770Y-26368D01*
X70789Y-27743D02*
X70592Y-27743D01*
X70592Y-27668D01*
X70601Y-27650D01*
X70610Y-27640D01*
X70629Y-27631D01*
X70657Y-27631D01*
X70676Y-27640D01*
X70685Y-27650D01*
X70695Y-27668D01*
X70695Y-27743D01*
X70789Y-27546D02*
X70592Y-27546D01*
X70592Y-27500D01*
X70601Y-27471D01*
X70620Y-27453D01*
X70639Y-27443D01*
X70676Y-27434D01*
X70704Y-27434D01*
X70742Y-27443D01*
X70760Y-27453D01*
X70779Y-27471D01*
X70789Y-27500D01*
X70789Y-27546D01*
X70592Y-27265D02*
X70592Y-27303D01*
X70601Y-27321D01*
X70610Y-27331D01*
X70639Y-27349D01*
X70676Y-27359D01*
X70751Y-27359D01*
X70770Y-27349D01*
X70779Y-27340D01*
X70789Y-27321D01*
X70789Y-27284D01*
X70779Y-27265D01*
X70770Y-27256D01*
X70751Y-27246D01*
X70704Y-27246D01*
X70685Y-27256D01*
X70676Y-27265D01*
X70667Y-27284D01*
X70667Y-27321D01*
X70676Y-27340D01*
X70685Y-27349D01*
X70704Y-27359D01*
X70789Y-28743D02*
X70592Y-28743D01*
X70592Y-28668D01*
X70601Y-28650D01*
X70610Y-28640D01*
X70629Y-28631D01*
X70657Y-28631D01*
X70676Y-28640D01*
X70685Y-28650D01*
X70695Y-28668D01*
X70695Y-28743D01*
X70789Y-28546D02*
X70592Y-28546D01*
X70592Y-28500D01*
X70601Y-28471D01*
X70620Y-28453D01*
X70639Y-28443D01*
X70676Y-28434D01*
X70704Y-28434D01*
X70742Y-28443D01*
X70760Y-28453D01*
X70779Y-28471D01*
X70789Y-28500D01*
X70789Y-28546D01*
X70657Y-28265D02*
X70789Y-28265D01*
X70582Y-28312D02*
X70723Y-28359D01*
X70723Y-28237D01*
X70789Y-29743D02*
X70592Y-29743D01*
X70592Y-29668D01*
X70601Y-29650D01*
X70610Y-29640D01*
X70629Y-29631D01*
X70657Y-29631D01*
X70676Y-29640D01*
X70685Y-29650D01*
X70695Y-29668D01*
X70695Y-29743D01*
X70789Y-29546D02*
X70592Y-29546D01*
X70592Y-29500D01*
X70601Y-29471D01*
X70620Y-29453D01*
X70639Y-29443D01*
X70676Y-29434D01*
X70704Y-29434D01*
X70742Y-29443D01*
X70760Y-29453D01*
X70779Y-29471D01*
X70789Y-29500D01*
X70789Y-29546D01*
X70610Y-29359D02*
X70601Y-29349D01*
X70592Y-29331D01*
X70592Y-29284D01*
X70601Y-29265D01*
X70610Y-29256D01*
X70629Y-29246D01*
X70648Y-29246D01*
X70676Y-29256D01*
X70789Y-29368D01*
X70789Y-29246D01*
X70789Y-30743D02*
X70592Y-30743D01*
X70592Y-30668D01*
X70601Y-30650D01*
X70610Y-30640D01*
X70629Y-30631D01*
X70657Y-30631D01*
X70676Y-30640D01*
X70685Y-30650D01*
X70695Y-30668D01*
X70695Y-30743D01*
X70789Y-30546D02*
X70592Y-30546D01*
X70592Y-30500D01*
X70601Y-30471D01*
X70620Y-30453D01*
X70639Y-30443D01*
X70676Y-30434D01*
X70704Y-30434D01*
X70742Y-30443D01*
X70760Y-30453D01*
X70779Y-30471D01*
X70789Y-30500D01*
X70789Y-30546D01*
X70592Y-30312D02*
X70592Y-30293D01*
X70601Y-30274D01*
X70610Y-30265D01*
X70629Y-30256D01*
X70667Y-30246D01*
X70714Y-30246D01*
X70751Y-30256D01*
X70770Y-30265D01*
X70779Y-30274D01*
X70789Y-30293D01*
X70789Y-30312D01*
X70779Y-30331D01*
X70770Y-30340D01*
X70751Y-30349D01*
X70714Y-30359D01*
X70667Y-30359D01*
X70629Y-30349D01*
X70610Y-30340D01*
X70601Y-30331D01*
X70592Y-30312D01*
X70789Y-31837D02*
X70592Y-31837D01*
X70592Y-31762D01*
X70601Y-31743D01*
X70610Y-31734D01*
X70629Y-31725D01*
X70657Y-31725D01*
X70676Y-31734D01*
X70685Y-31743D01*
X70695Y-31762D01*
X70695Y-31837D01*
X70770Y-31528D02*
X70779Y-31537D01*
X70789Y-31565D01*
X70789Y-31584D01*
X70779Y-31612D01*
X70760Y-31631D01*
X70742Y-31640D01*
X70704Y-31650D01*
X70676Y-31650D01*
X70639Y-31640D01*
X70620Y-31631D01*
X70601Y-31612D01*
X70592Y-31584D01*
X70592Y-31565D01*
X70601Y-31537D01*
X70610Y-31528D01*
X70789Y-31340D02*
X70789Y-31453D01*
X70789Y-31396D02*
X70592Y-31396D01*
X70620Y-31415D01*
X70639Y-31434D01*
X70648Y-31453D01*
X70789Y-31152D02*
X70789Y-31265D01*
X70789Y-31209D02*
X70592Y-31209D01*
X70620Y-31227D01*
X70639Y-31246D01*
X70648Y-31265D01*
X70789Y-32823D02*
X70592Y-32823D01*
X70592Y-32748D01*
X70601Y-32729D01*
X70610Y-32720D01*
X70629Y-32711D01*
X70657Y-32711D01*
X70676Y-32720D01*
X70685Y-32729D01*
X70695Y-32748D01*
X70695Y-32823D01*
X70732Y-32636D02*
X70732Y-32542D01*
X70789Y-32654D02*
X70592Y-32589D01*
X70789Y-32523D01*
X70789Y-32354D02*
X70789Y-32467D01*
X70789Y-32410D02*
X70592Y-32410D01*
X70620Y-32429D01*
X70639Y-32448D01*
X70648Y-32467D01*
X70592Y-32176D02*
X70592Y-32270D01*
X70685Y-32279D01*
X70676Y-32270D01*
X70667Y-32251D01*
X70667Y-32204D01*
X70676Y-32185D01*
X70685Y-32176D01*
X70704Y-32166D01*
X70751Y-32166D01*
X70770Y-32176D01*
X70779Y-32185D01*
X70789Y-32204D01*
X70789Y-32251D01*
X70779Y-32270D01*
X70770Y-32279D01*
X70789Y-33823D02*
X70592Y-33823D01*
X70592Y-33748D01*
X70601Y-33729D01*
X70610Y-33720D01*
X70629Y-33711D01*
X70657Y-33711D01*
X70676Y-33720D01*
X70685Y-33729D01*
X70695Y-33748D01*
X70695Y-33823D01*
X70732Y-33636D02*
X70732Y-33542D01*
X70789Y-33654D02*
X70592Y-33589D01*
X70789Y-33523D01*
X70789Y-33354D02*
X70789Y-33467D01*
X70789Y-33410D02*
X70592Y-33410D01*
X70620Y-33429D01*
X70639Y-33448D01*
X70648Y-33467D01*
X70592Y-33288D02*
X70592Y-33166D01*
X70667Y-33232D01*
X70667Y-33204D01*
X70676Y-33185D01*
X70685Y-33176D01*
X70704Y-33166D01*
X70751Y-33166D01*
X70770Y-33176D01*
X70779Y-33185D01*
X70789Y-33204D01*
X70789Y-33260D01*
X70779Y-33279D01*
X70770Y-33288D01*
X48210Y-25265D02*
X48407Y-25265D01*
X48407Y-25340D01*
X48398Y-25359D01*
X48389Y-25368D01*
X48370Y-25378D01*
X48342Y-25378D01*
X48323Y-25368D01*
X48314Y-25359D01*
X48304Y-25340D01*
X48304Y-25265D01*
X48314Y-25462D02*
X48314Y-25528D01*
X48210Y-25556D02*
X48210Y-25462D01*
X48407Y-25462D01*
X48407Y-25556D01*
X48407Y-25621D02*
X48407Y-25753D01*
X48210Y-25668D01*
X48210Y-26265D02*
X48407Y-26265D01*
X48407Y-26340D01*
X48398Y-26359D01*
X48389Y-26368D01*
X48370Y-26378D01*
X48342Y-26378D01*
X48323Y-26368D01*
X48314Y-26359D01*
X48304Y-26340D01*
X48304Y-26265D01*
X48314Y-26462D02*
X48314Y-26528D01*
X48210Y-26556D02*
X48210Y-26462D01*
X48407Y-26462D01*
X48407Y-26556D01*
X48210Y-26650D02*
X48210Y-26687D01*
X48220Y-26706D01*
X48229Y-26715D01*
X48257Y-26734D01*
X48295Y-26743D01*
X48370Y-26743D01*
X48389Y-26734D01*
X48398Y-26725D01*
X48407Y-26706D01*
X48407Y-26668D01*
X48398Y-26650D01*
X48389Y-26640D01*
X48370Y-26631D01*
X48323Y-26631D01*
X48304Y-26640D01*
X48295Y-26650D01*
X48285Y-26668D01*
X48285Y-26706D01*
X48295Y-26725D01*
X48304Y-26734D01*
X48323Y-26743D01*
X48210Y-27171D02*
X48407Y-27171D01*
X48407Y-27246D01*
X48398Y-27265D01*
X48389Y-27274D01*
X48370Y-27284D01*
X48342Y-27284D01*
X48323Y-27274D01*
X48314Y-27265D01*
X48304Y-27246D01*
X48304Y-27171D01*
X48314Y-27368D02*
X48314Y-27434D01*
X48210Y-27462D02*
X48210Y-27368D01*
X48407Y-27368D01*
X48407Y-27462D01*
X48210Y-27650D02*
X48210Y-27537D01*
X48210Y-27593D02*
X48407Y-27593D01*
X48379Y-27575D01*
X48360Y-27556D01*
X48351Y-27537D01*
X48210Y-27837D02*
X48210Y-27725D01*
X48210Y-27781D02*
X48407Y-27781D01*
X48379Y-27762D01*
X48360Y-27743D01*
X48351Y-27725D01*
X48210Y-28171D02*
X48407Y-28171D01*
X48407Y-28246D01*
X48398Y-28265D01*
X48389Y-28274D01*
X48370Y-28284D01*
X48342Y-28284D01*
X48323Y-28274D01*
X48314Y-28265D01*
X48304Y-28246D01*
X48304Y-28171D01*
X48314Y-28368D02*
X48314Y-28434D01*
X48210Y-28462D02*
X48210Y-28368D01*
X48407Y-28368D01*
X48407Y-28462D01*
X48210Y-28650D02*
X48210Y-28537D01*
X48210Y-28593D02*
X48407Y-28593D01*
X48379Y-28575D01*
X48360Y-28556D01*
X48351Y-28537D01*
X48407Y-28715D02*
X48407Y-28837D01*
X48332Y-28772D01*
X48332Y-28800D01*
X48323Y-28818D01*
X48314Y-28828D01*
X48295Y-28837D01*
X48248Y-28837D01*
X48229Y-28828D01*
X48220Y-28818D01*
X48210Y-28800D01*
X48210Y-28743D01*
X48220Y-28725D01*
X48229Y-28715D01*
X48210Y-29171D02*
X48407Y-29171D01*
X48407Y-29246D01*
X48398Y-29265D01*
X48389Y-29274D01*
X48370Y-29284D01*
X48342Y-29284D01*
X48323Y-29274D01*
X48314Y-29265D01*
X48304Y-29246D01*
X48304Y-29171D01*
X48314Y-29368D02*
X48314Y-29434D01*
X48210Y-29462D02*
X48210Y-29368D01*
X48407Y-29368D01*
X48407Y-29462D01*
X48210Y-29650D02*
X48210Y-29537D01*
X48210Y-29593D02*
X48407Y-29593D01*
X48379Y-29575D01*
X48360Y-29556D01*
X48351Y-29537D01*
X48407Y-29828D02*
X48407Y-29734D01*
X48314Y-29725D01*
X48323Y-29734D01*
X48332Y-29753D01*
X48332Y-29800D01*
X48323Y-29818D01*
X48314Y-29828D01*
X48295Y-29837D01*
X48248Y-29837D01*
X48229Y-29828D01*
X48220Y-29818D01*
X48210Y-29800D01*
X48210Y-29753D01*
X48220Y-29734D01*
X48229Y-29725D01*
X48210Y-30162D02*
X48407Y-30162D01*
X48407Y-30237D01*
X48398Y-30256D01*
X48389Y-30265D01*
X48370Y-30274D01*
X48342Y-30274D01*
X48323Y-30265D01*
X48314Y-30256D01*
X48304Y-30237D01*
X48304Y-30162D01*
X48314Y-30424D02*
X48304Y-30453D01*
X48295Y-30462D01*
X48276Y-30471D01*
X48248Y-30471D01*
X48229Y-30462D01*
X48220Y-30453D01*
X48210Y-30434D01*
X48210Y-30359D01*
X48407Y-30359D01*
X48407Y-30424D01*
X48398Y-30443D01*
X48389Y-30453D01*
X48370Y-30462D01*
X48351Y-30462D01*
X48332Y-30453D01*
X48323Y-30443D01*
X48314Y-30424D01*
X48314Y-30359D01*
X48210Y-30659D02*
X48210Y-30546D01*
X48210Y-30603D02*
X48407Y-30603D01*
X48379Y-30584D01*
X48360Y-30565D01*
X48351Y-30546D01*
X48210Y-30847D02*
X48210Y-30734D01*
X48210Y-30790D02*
X48407Y-30790D01*
X48379Y-30772D01*
X48360Y-30753D01*
X48351Y-30734D01*
X48210Y-31162D02*
X48407Y-31162D01*
X48407Y-31237D01*
X48398Y-31256D01*
X48389Y-31265D01*
X48370Y-31274D01*
X48342Y-31274D01*
X48323Y-31265D01*
X48314Y-31256D01*
X48304Y-31237D01*
X48304Y-31162D01*
X48314Y-31424D02*
X48304Y-31453D01*
X48295Y-31462D01*
X48276Y-31471D01*
X48248Y-31471D01*
X48229Y-31462D01*
X48220Y-31453D01*
X48210Y-31434D01*
X48210Y-31359D01*
X48407Y-31359D01*
X48407Y-31424D01*
X48398Y-31443D01*
X48389Y-31453D01*
X48370Y-31462D01*
X48351Y-31462D01*
X48332Y-31453D01*
X48323Y-31443D01*
X48314Y-31424D01*
X48314Y-31359D01*
X48210Y-31659D02*
X48210Y-31546D01*
X48210Y-31603D02*
X48407Y-31603D01*
X48379Y-31584D01*
X48360Y-31565D01*
X48351Y-31546D01*
X48407Y-31725D02*
X48407Y-31847D01*
X48332Y-31781D01*
X48332Y-31809D01*
X48323Y-31828D01*
X48314Y-31837D01*
X48295Y-31847D01*
X48248Y-31847D01*
X48229Y-31837D01*
X48220Y-31828D01*
X48210Y-31809D01*
X48210Y-31753D01*
X48220Y-31734D01*
X48229Y-31725D01*
X48210Y-32162D02*
X48407Y-32162D01*
X48407Y-32237D01*
X48398Y-32256D01*
X48389Y-32265D01*
X48370Y-32274D01*
X48342Y-32274D01*
X48323Y-32265D01*
X48314Y-32256D01*
X48304Y-32237D01*
X48304Y-32162D01*
X48314Y-32424D02*
X48304Y-32453D01*
X48295Y-32462D01*
X48276Y-32471D01*
X48248Y-32471D01*
X48229Y-32462D01*
X48220Y-32453D01*
X48210Y-32434D01*
X48210Y-32359D01*
X48407Y-32359D01*
X48407Y-32424D01*
X48398Y-32443D01*
X48389Y-32453D01*
X48370Y-32462D01*
X48351Y-32462D01*
X48332Y-32453D01*
X48323Y-32443D01*
X48314Y-32424D01*
X48314Y-32359D01*
X48210Y-32659D02*
X48210Y-32546D01*
X48210Y-32603D02*
X48407Y-32603D01*
X48379Y-32584D01*
X48360Y-32565D01*
X48351Y-32546D01*
X48407Y-32837D02*
X48407Y-32743D01*
X48314Y-32734D01*
X48323Y-32743D01*
X48332Y-32762D01*
X48332Y-32809D01*
X48323Y-32828D01*
X48314Y-32837D01*
X48295Y-32847D01*
X48248Y-32847D01*
X48229Y-32837D01*
X48220Y-32828D01*
X48210Y-32809D01*
X48210Y-32762D01*
X48220Y-32743D01*
X48229Y-32734D01*
X69756Y-24889D02*
X69756Y-24692D01*
X69831Y-24692D01*
X69849Y-24701D01*
X69859Y-24710D01*
X69868Y-24729D01*
X69868Y-24757D01*
X69859Y-24776D01*
X69849Y-24785D01*
X69831Y-24795D01*
X69756Y-24795D01*
X70018Y-24785D02*
X70046Y-24795D01*
X70056Y-24804D01*
X70065Y-24823D01*
X70065Y-24851D01*
X70056Y-24870D01*
X70046Y-24879D01*
X70028Y-24889D01*
X69953Y-24889D01*
X69953Y-24692D01*
X70018Y-24692D01*
X70037Y-24701D01*
X70046Y-24710D01*
X70056Y-24729D01*
X70056Y-24748D01*
X70046Y-24767D01*
X70037Y-24776D01*
X70018Y-24785D01*
X69953Y-24785D01*
X70243Y-24692D02*
X70150Y-24692D01*
X70140Y-24785D01*
X70150Y-24776D01*
X70168Y-24767D01*
X70215Y-24767D01*
X70234Y-24776D01*
X70243Y-24785D01*
X70253Y-24804D01*
X70253Y-24851D01*
X70243Y-24870D01*
X70234Y-24879D01*
X70215Y-24889D01*
X70168Y-24889D01*
X70150Y-24879D01*
X70140Y-24870D01*
X68756Y-24889D02*
X68756Y-24692D01*
X68831Y-24692D01*
X68849Y-24701D01*
X68859Y-24710D01*
X68868Y-24729D01*
X68868Y-24757D01*
X68859Y-24776D01*
X68849Y-24785D01*
X68831Y-24795D01*
X68756Y-24795D01*
X69018Y-24785D02*
X69046Y-24795D01*
X69056Y-24804D01*
X69065Y-24823D01*
X69065Y-24851D01*
X69056Y-24870D01*
X69046Y-24879D01*
X69028Y-24889D01*
X68953Y-24889D01*
X68953Y-24692D01*
X69018Y-24692D01*
X69037Y-24701D01*
X69046Y-24710D01*
X69056Y-24729D01*
X69056Y-24748D01*
X69046Y-24767D01*
X69037Y-24776D01*
X69018Y-24785D01*
X68953Y-24785D01*
X69234Y-24757D02*
X69234Y-24889D01*
X69187Y-24682D02*
X69140Y-24823D01*
X69262Y-24823D01*
X68389Y-31837D02*
X68192Y-31837D01*
X68192Y-31762D01*
X68201Y-31743D01*
X68210Y-31734D01*
X68229Y-31725D01*
X68257Y-31725D01*
X68276Y-31734D01*
X68285Y-31743D01*
X68295Y-31762D01*
X68295Y-31837D01*
X68370Y-31528D02*
X68379Y-31537D01*
X68389Y-31565D01*
X68389Y-31584D01*
X68379Y-31612D01*
X68360Y-31631D01*
X68342Y-31640D01*
X68304Y-31650D01*
X68276Y-31650D01*
X68239Y-31640D01*
X68220Y-31631D01*
X68201Y-31612D01*
X68192Y-31584D01*
X68192Y-31565D01*
X68201Y-31537D01*
X68210Y-31528D01*
X68389Y-31340D02*
X68389Y-31453D01*
X68389Y-31396D02*
X68192Y-31396D01*
X68220Y-31415D01*
X68239Y-31434D01*
X68248Y-31453D01*
X68192Y-31218D02*
X68192Y-31199D01*
X68201Y-31181D01*
X68210Y-31171D01*
X68229Y-31162D01*
X68267Y-31152D01*
X68314Y-31152D01*
X68351Y-31162D01*
X68370Y-31171D01*
X68379Y-31181D01*
X68389Y-31199D01*
X68389Y-31218D01*
X68379Y-31237D01*
X68370Y-31246D01*
X68351Y-31256D01*
X68314Y-31265D01*
X68267Y-31265D01*
X68229Y-31256D01*
X68210Y-31246D01*
X68201Y-31237D01*
X68192Y-31218D01*
X68389Y-30837D02*
X68192Y-30837D01*
X68192Y-30762D01*
X68201Y-30743D01*
X68210Y-30734D01*
X68229Y-30725D01*
X68257Y-30725D01*
X68276Y-30734D01*
X68285Y-30743D01*
X68295Y-30762D01*
X68295Y-30837D01*
X68370Y-30528D02*
X68379Y-30537D01*
X68389Y-30565D01*
X68389Y-30584D01*
X68379Y-30612D01*
X68360Y-30631D01*
X68342Y-30640D01*
X68304Y-30650D01*
X68276Y-30650D01*
X68239Y-30640D01*
X68220Y-30631D01*
X68201Y-30612D01*
X68192Y-30584D01*
X68192Y-30565D01*
X68201Y-30537D01*
X68210Y-30528D01*
X68389Y-30340D02*
X68389Y-30453D01*
X68389Y-30396D02*
X68192Y-30396D01*
X68220Y-30415D01*
X68239Y-30434D01*
X68248Y-30453D01*
X68210Y-30265D02*
X68201Y-30256D01*
X68192Y-30237D01*
X68192Y-30190D01*
X68201Y-30171D01*
X68210Y-30162D01*
X68229Y-30152D01*
X68248Y-30152D01*
X68276Y-30162D01*
X68389Y-30274D01*
X68389Y-30152D01*
X50610Y-29171D02*
X50807Y-29171D01*
X50807Y-29246D01*
X50798Y-29265D01*
X50789Y-29274D01*
X50770Y-29284D01*
X50742Y-29284D01*
X50723Y-29274D01*
X50714Y-29265D01*
X50704Y-29246D01*
X50704Y-29171D01*
X50714Y-29368D02*
X50714Y-29434D01*
X50610Y-29462D02*
X50610Y-29368D01*
X50807Y-29368D01*
X50807Y-29462D01*
X50610Y-29650D02*
X50610Y-29537D01*
X50610Y-29593D02*
X50807Y-29593D01*
X50779Y-29575D01*
X50760Y-29556D01*
X50751Y-29537D01*
X50807Y-29772D02*
X50807Y-29790D01*
X50798Y-29809D01*
X50789Y-29818D01*
X50770Y-29828D01*
X50732Y-29837D01*
X50685Y-29837D01*
X50648Y-29828D01*
X50629Y-29818D01*
X50620Y-29809D01*
X50610Y-29790D01*
X50610Y-29772D01*
X50620Y-29753D01*
X50629Y-29743D01*
X50648Y-29734D01*
X50685Y-29725D01*
X50732Y-29725D01*
X50770Y-29734D01*
X50789Y-29743D01*
X50798Y-29753D01*
X50807Y-29772D01*
X49662Y-34289D02*
X49662Y-34092D01*
X49737Y-34092D01*
X49756Y-34101D01*
X49765Y-34110D01*
X49774Y-34129D01*
X49774Y-34157D01*
X49765Y-34176D01*
X49756Y-34185D01*
X49737Y-34195D01*
X49662Y-34195D01*
X49859Y-34289D02*
X49859Y-34092D01*
X49906Y-34092D01*
X49934Y-34101D01*
X49953Y-34120D01*
X49962Y-34139D01*
X49971Y-34176D01*
X49971Y-34204D01*
X49962Y-34242D01*
X49953Y-34260D01*
X49934Y-34279D01*
X49906Y-34289D01*
X49859Y-34289D01*
X50159Y-34289D02*
X50046Y-34289D01*
X50103Y-34289D02*
X50103Y-34092D01*
X50084Y-34120D01*
X50065Y-34139D01*
X50046Y-34148D01*
X50281Y-34092D02*
X50300Y-34092D01*
X50318Y-34101D01*
X50328Y-34110D01*
X50337Y-34129D01*
X50347Y-34167D01*
X50347Y-34214D01*
X50337Y-34251D01*
X50328Y-34270D01*
X50318Y-34279D01*
X50300Y-34289D01*
X50281Y-34289D01*
X50262Y-34279D01*
X50253Y-34270D01*
X50243Y-34251D01*
X50234Y-34214D01*
X50234Y-34167D01*
X50243Y-34129D01*
X50253Y-34110D01*
X50262Y-34101D01*
X50281Y-34092D01*
X48756Y-34289D02*
X48756Y-34092D01*
X48831Y-34092D01*
X48849Y-34101D01*
X48859Y-34110D01*
X48868Y-34129D01*
X48868Y-34157D01*
X48859Y-34176D01*
X48849Y-34185D01*
X48831Y-34195D01*
X48756Y-34195D01*
X48953Y-34289D02*
X48953Y-34092D01*
X49000Y-34092D01*
X49028Y-34101D01*
X49046Y-34120D01*
X49056Y-34139D01*
X49065Y-34176D01*
X49065Y-34204D01*
X49056Y-34242D01*
X49046Y-34260D01*
X49028Y-34279D01*
X49000Y-34289D01*
X48953Y-34289D01*
X49159Y-34289D02*
X49197Y-34289D01*
X49215Y-34279D01*
X49225Y-34270D01*
X49243Y-34242D01*
X49253Y-34204D01*
X49253Y-34129D01*
X49243Y-34110D01*
X49234Y-34101D01*
X49215Y-34092D01*
X49178Y-34092D01*
X49159Y-34101D01*
X49150Y-34110D01*
X49140Y-34129D01*
X49140Y-34176D01*
X49150Y-34195D01*
X49159Y-34204D01*
X49178Y-34214D01*
X49215Y-34214D01*
X49234Y-34204D01*
X49243Y-34195D01*
X49253Y-34176D01*
X49756Y-23889D02*
X49756Y-23692D01*
X49831Y-23692D01*
X49849Y-23701D01*
X49859Y-23710D01*
X49868Y-23729D01*
X49868Y-23757D01*
X49859Y-23776D01*
X49849Y-23785D01*
X49831Y-23795D01*
X49756Y-23795D01*
X50018Y-23785D02*
X50046Y-23795D01*
X50056Y-23804D01*
X50065Y-23823D01*
X50065Y-23851D01*
X50056Y-23870D01*
X50046Y-23879D01*
X50028Y-23889D01*
X49953Y-23889D01*
X49953Y-23692D01*
X50018Y-23692D01*
X50037Y-23701D01*
X50046Y-23710D01*
X50056Y-23729D01*
X50056Y-23748D01*
X50046Y-23767D01*
X50037Y-23776D01*
X50018Y-23785D01*
X49953Y-23785D01*
X50140Y-23710D02*
X50150Y-23701D01*
X50168Y-23692D01*
X50215Y-23692D01*
X50234Y-23701D01*
X50243Y-23710D01*
X50253Y-23729D01*
X50253Y-23748D01*
X50243Y-23776D01*
X50131Y-23889D01*
X50253Y-23889D01*
X48849Y-23701D02*
X48831Y-23692D01*
X48803Y-23692D01*
X48774Y-23701D01*
X48756Y-23720D01*
X48746Y-23739D01*
X48737Y-23776D01*
X48737Y-23804D01*
X48746Y-23842D01*
X48756Y-23860D01*
X48774Y-23879D01*
X48803Y-23889D01*
X48821Y-23889D01*
X48849Y-23879D01*
X48859Y-23870D01*
X48859Y-23804D01*
X48821Y-23804D01*
X48943Y-23889D02*
X48943Y-23692D01*
X49056Y-23889D01*
X49056Y-23692D01*
X49150Y-23889D02*
X49150Y-23692D01*
X49197Y-23692D01*
X49225Y-23701D01*
X49243Y-23720D01*
X49253Y-23739D01*
X49262Y-23776D01*
X49262Y-23804D01*
X49253Y-23842D01*
X49243Y-23860D01*
X49225Y-23879D01*
X49197Y-23889D01*
X49150Y-23889D01*
X67705Y-32589D02*
X67705Y-32392D01*
X67780Y-32392D01*
X67799Y-32401D01*
X67809Y-32410D01*
X67818Y-32429D01*
X67818Y-32457D01*
X67809Y-32476D01*
X67799Y-32485D01*
X67780Y-32495D01*
X67705Y-32495D01*
X67893Y-32532D02*
X67987Y-32532D01*
X67874Y-32589D02*
X67940Y-32392D01*
X68006Y-32589D01*
X68174Y-32589D02*
X68062Y-32589D01*
X68118Y-32589D02*
X68118Y-32392D01*
X68099Y-32420D01*
X68081Y-32439D01*
X68062Y-32448D01*
X68343Y-32457D02*
X68343Y-32589D01*
X68296Y-32382D02*
X68249Y-32523D01*
X68371Y-32523D01*
X67705Y-33589D02*
X67705Y-33392D01*
X67780Y-33392D01*
X67799Y-33401D01*
X67809Y-33410D01*
X67818Y-33429D01*
X67818Y-33457D01*
X67809Y-33476D01*
X67799Y-33485D01*
X67780Y-33495D01*
X67705Y-33495D01*
X67893Y-33532D02*
X67987Y-33532D01*
X67874Y-33589D02*
X67940Y-33392D01*
X68006Y-33589D01*
X68174Y-33589D02*
X68062Y-33589D01*
X68118Y-33589D02*
X68118Y-33392D01*
X68099Y-33420D01*
X68081Y-33439D01*
X68062Y-33448D01*
X68296Y-33392D02*
X68315Y-33392D01*
X68334Y-33401D01*
X68343Y-33410D01*
X68353Y-33429D01*
X68362Y-33467D01*
X68362Y-33514D01*
X68353Y-33551D01*
X68343Y-33570D01*
X68334Y-33579D01*
X68315Y-33589D01*
X68296Y-33589D01*
X68278Y-33579D01*
X68268Y-33570D01*
X68259Y-33551D01*
X68249Y-33514D01*
X68249Y-33467D01*
X68259Y-33429D01*
X68268Y-33410D01*
X68278Y-33401D01*
X68296Y-33392D01*
X68770Y-35289D02*
X68770Y-35092D01*
X68845Y-35092D01*
X68863Y-35101D01*
X68873Y-35110D01*
X68882Y-35129D01*
X68882Y-35157D01*
X68873Y-35176D01*
X68863Y-35185D01*
X68845Y-35195D01*
X68770Y-35195D01*
X68957Y-35232D02*
X69051Y-35232D01*
X68939Y-35289D02*
X69004Y-35092D01*
X69070Y-35289D01*
X69164Y-35176D02*
X69145Y-35167D01*
X69136Y-35157D01*
X69126Y-35139D01*
X69126Y-35129D01*
X69136Y-35110D01*
X69145Y-35101D01*
X69164Y-35092D01*
X69201Y-35092D01*
X69220Y-35101D01*
X69229Y-35110D01*
X69239Y-35129D01*
X69239Y-35139D01*
X69229Y-35157D01*
X69220Y-35167D01*
X69201Y-35176D01*
X69164Y-35176D01*
X69145Y-35185D01*
X69136Y-35195D01*
X69126Y-35214D01*
X69126Y-35251D01*
X69136Y-35270D01*
X69145Y-35279D01*
X69164Y-35289D01*
X69201Y-35289D01*
X69220Y-35279D01*
X69229Y-35270D01*
X69239Y-35251D01*
X69239Y-35214D01*
X69229Y-35195D01*
X69220Y-35185D01*
X69201Y-35176D01*
X63568Y-34992D02*
X63634Y-35189D01*
X63699Y-34992D01*
X63765Y-35057D02*
X63765Y-35254D01*
X63765Y-35067D02*
X63784Y-35057D01*
X63821Y-35057D01*
X63840Y-35067D01*
X63849Y-35076D01*
X63859Y-35095D01*
X63859Y-35151D01*
X63849Y-35170D01*
X63840Y-35179D01*
X63821Y-35189D01*
X63784Y-35189D01*
X63765Y-35179D01*
X64028Y-35057D02*
X64028Y-35189D01*
X63943Y-35057D02*
X63943Y-35160D01*
X63953Y-35179D01*
X63971Y-35189D01*
X64000Y-35189D01*
X64018Y-35179D01*
X64028Y-35170D01*
X64225Y-35189D02*
X64112Y-35189D01*
X64168Y-35189D02*
X64168Y-34992D01*
X64150Y-35020D01*
X64131Y-35039D01*
X64112Y-35048D01*
X64300Y-35010D02*
X64309Y-35001D01*
X64328Y-34992D01*
X64375Y-34992D01*
X64394Y-35001D01*
X64403Y-35010D01*
X64412Y-35029D01*
X64412Y-35048D01*
X64403Y-35076D01*
X64290Y-35189D01*
X64412Y-35189D01*
X55568Y-34992D02*
X55634Y-35189D01*
X55699Y-34992D01*
X55765Y-35057D02*
X55765Y-35254D01*
X55765Y-35067D02*
X55784Y-35057D01*
X55821Y-35057D01*
X55840Y-35067D01*
X55849Y-35076D01*
X55859Y-35095D01*
X55859Y-35151D01*
X55849Y-35170D01*
X55840Y-35179D01*
X55821Y-35189D01*
X55784Y-35189D01*
X55765Y-35179D01*
X56028Y-35057D02*
X56028Y-35189D01*
X55943Y-35057D02*
X55943Y-35160D01*
X55953Y-35179D01*
X55971Y-35189D01*
X56000Y-35189D01*
X56018Y-35179D01*
X56028Y-35170D01*
X56103Y-34992D02*
X56225Y-34992D01*
X56159Y-35067D01*
X56187Y-35067D01*
X56206Y-35076D01*
X56215Y-35085D01*
X56225Y-35104D01*
X56225Y-35151D01*
X56215Y-35170D01*
X56206Y-35179D01*
X56187Y-35189D01*
X56131Y-35189D01*
X56112Y-35179D01*
X56103Y-35170D01*
X56394Y-35057D02*
X56394Y-35189D01*
X56347Y-34982D02*
X56300Y-35123D01*
X56422Y-35123D01*
X50646Y-32589D02*
X50646Y-32392D01*
X50721Y-32392D01*
X50740Y-32401D01*
X50750Y-32410D01*
X50759Y-32429D01*
X50759Y-32457D01*
X50750Y-32476D01*
X50740Y-32485D01*
X50721Y-32495D01*
X50646Y-32495D01*
X50843Y-32589D02*
X50843Y-32392D01*
X50890Y-32392D01*
X50918Y-32401D01*
X50937Y-32420D01*
X50947Y-32439D01*
X50956Y-32476D01*
X50956Y-32504D01*
X50947Y-32542D01*
X50937Y-32560D01*
X50918Y-32579D01*
X50890Y-32589D01*
X50843Y-32589D01*
X51069Y-32476D02*
X51050Y-32467D01*
X51040Y-32457D01*
X51031Y-32439D01*
X51031Y-32429D01*
X51040Y-32410D01*
X51050Y-32401D01*
X51069Y-32392D01*
X51106Y-32392D01*
X51125Y-32401D01*
X51134Y-32410D01*
X51144Y-32429D01*
X51144Y-32439D01*
X51134Y-32457D01*
X51125Y-32467D01*
X51106Y-32476D01*
X51069Y-32476D01*
X51050Y-32485D01*
X51040Y-32495D01*
X51031Y-32514D01*
X51031Y-32551D01*
X51040Y-32570D01*
X51050Y-32579D01*
X51069Y-32589D01*
X51106Y-32589D01*
X51125Y-32579D01*
X51134Y-32570D01*
X51144Y-32551D01*
X51144Y-32514D01*
X51134Y-32495D01*
X51125Y-32485D01*
X51106Y-32476D01*
X50646Y-31589D02*
X50646Y-31392D01*
X50721Y-31392D01*
X50740Y-31401D01*
X50750Y-31410D01*
X50759Y-31429D01*
X50759Y-31457D01*
X50750Y-31476D01*
X50740Y-31485D01*
X50721Y-31495D01*
X50646Y-31495D01*
X50909Y-31485D02*
X50937Y-31495D01*
X50947Y-31504D01*
X50956Y-31523D01*
X50956Y-31551D01*
X50947Y-31570D01*
X50937Y-31579D01*
X50918Y-31589D01*
X50843Y-31589D01*
X50843Y-31392D01*
X50909Y-31392D01*
X50928Y-31401D01*
X50937Y-31410D01*
X50947Y-31429D01*
X50947Y-31448D01*
X50937Y-31467D01*
X50928Y-31476D01*
X50909Y-31485D01*
X50843Y-31485D01*
X51144Y-31589D02*
X51031Y-31589D01*
X51087Y-31589D02*
X51087Y-31392D01*
X51069Y-31420D01*
X51050Y-31439D01*
X51031Y-31448D01*
X51312Y-31457D02*
X51312Y-31589D01*
X51266Y-31382D02*
X51219Y-31523D01*
X51341Y-31523D01*
X50646Y-30589D02*
X50646Y-30392D01*
X50721Y-30392D01*
X50740Y-30401D01*
X50750Y-30410D01*
X50759Y-30429D01*
X50759Y-30457D01*
X50750Y-30476D01*
X50740Y-30485D01*
X50721Y-30495D01*
X50646Y-30495D01*
X50909Y-30485D02*
X50937Y-30495D01*
X50947Y-30504D01*
X50956Y-30523D01*
X50956Y-30551D01*
X50947Y-30570D01*
X50937Y-30579D01*
X50918Y-30589D01*
X50843Y-30589D01*
X50843Y-30392D01*
X50909Y-30392D01*
X50928Y-30401D01*
X50937Y-30410D01*
X50947Y-30429D01*
X50947Y-30448D01*
X50937Y-30467D01*
X50928Y-30476D01*
X50909Y-30485D01*
X50843Y-30485D01*
X51144Y-30589D02*
X51031Y-30589D01*
X51087Y-30589D02*
X51087Y-30392D01*
X51069Y-30420D01*
X51050Y-30439D01*
X51031Y-30448D01*
X51219Y-30410D02*
X51228Y-30401D01*
X51247Y-30392D01*
X51294Y-30392D01*
X51312Y-30401D01*
X51322Y-30410D01*
X51331Y-30429D01*
X51331Y-30448D01*
X51322Y-30476D01*
X51209Y-30589D01*
X51331Y-30589D01*
X50646Y-28589D02*
X50646Y-28392D01*
X50721Y-28392D01*
X50740Y-28401D01*
X50750Y-28410D01*
X50759Y-28429D01*
X50759Y-28457D01*
X50750Y-28476D01*
X50740Y-28485D01*
X50721Y-28495D01*
X50646Y-28495D01*
X50843Y-28485D02*
X50909Y-28485D01*
X50937Y-28589D02*
X50843Y-28589D01*
X50843Y-28392D01*
X50937Y-28392D01*
X51125Y-28589D02*
X51012Y-28589D01*
X51069Y-28589D02*
X51069Y-28392D01*
X51050Y-28420D01*
X51031Y-28439D01*
X51012Y-28448D01*
X51294Y-28457D02*
X51294Y-28589D01*
X51247Y-28382D02*
X51200Y-28523D01*
X51322Y-28523D01*
X50646Y-27589D02*
X50646Y-27392D01*
X50721Y-27392D01*
X50740Y-27401D01*
X50750Y-27410D01*
X50759Y-27429D01*
X50759Y-27457D01*
X50750Y-27476D01*
X50740Y-27485D01*
X50721Y-27495D01*
X50646Y-27495D01*
X50843Y-27485D02*
X50909Y-27485D01*
X50937Y-27589D02*
X50843Y-27589D01*
X50843Y-27392D01*
X50937Y-27392D01*
X51125Y-27589D02*
X51012Y-27589D01*
X51069Y-27589D02*
X51069Y-27392D01*
X51050Y-27420D01*
X51031Y-27439D01*
X51012Y-27448D01*
X51200Y-27410D02*
X51209Y-27401D01*
X51228Y-27392D01*
X51275Y-27392D01*
X51294Y-27401D01*
X51303Y-27410D01*
X51312Y-27429D01*
X51312Y-27448D01*
X51303Y-27476D01*
X51191Y-27589D01*
X51312Y-27589D01*
X50646Y-26589D02*
X50646Y-26392D01*
X50721Y-26392D01*
X50740Y-26401D01*
X50750Y-26410D01*
X50759Y-26429D01*
X50759Y-26457D01*
X50750Y-26476D01*
X50740Y-26485D01*
X50721Y-26495D01*
X50646Y-26495D01*
X50843Y-26485D02*
X50909Y-26485D01*
X50937Y-26589D02*
X50843Y-26589D01*
X50843Y-26392D01*
X50937Y-26392D01*
X51125Y-26589D02*
X51012Y-26589D01*
X51069Y-26589D02*
X51069Y-26392D01*
X51050Y-26420D01*
X51031Y-26439D01*
X51012Y-26448D01*
X51247Y-26392D02*
X51266Y-26392D01*
X51284Y-26401D01*
X51294Y-26410D01*
X51303Y-26429D01*
X51312Y-26467D01*
X51312Y-26514D01*
X51303Y-26551D01*
X51294Y-26570D01*
X51284Y-26579D01*
X51266Y-26589D01*
X51247Y-26589D01*
X51228Y-26579D01*
X51219Y-26570D01*
X51209Y-26551D01*
X51200Y-26514D01*
X51200Y-26467D01*
X51209Y-26429D01*
X51219Y-26410D01*
X51228Y-26401D01*
X51247Y-26392D01*
X50646Y-25589D02*
X50646Y-25392D01*
X50721Y-25392D01*
X50740Y-25401D01*
X50750Y-25410D01*
X50759Y-25429D01*
X50759Y-25457D01*
X50750Y-25476D01*
X50740Y-25485D01*
X50721Y-25495D01*
X50646Y-25495D01*
X50843Y-25485D02*
X50909Y-25485D01*
X50937Y-25589D02*
X50843Y-25589D01*
X50843Y-25392D01*
X50937Y-25392D01*
X51050Y-25476D02*
X51031Y-25467D01*
X51022Y-25457D01*
X51012Y-25439D01*
X51012Y-25429D01*
X51022Y-25410D01*
X51031Y-25401D01*
X51050Y-25392D01*
X51087Y-25392D01*
X51106Y-25401D01*
X51115Y-25410D01*
X51125Y-25429D01*
X51125Y-25439D01*
X51115Y-25457D01*
X51106Y-25467D01*
X51087Y-25476D01*
X51050Y-25476D01*
X51031Y-25485D01*
X51022Y-25495D01*
X51012Y-25514D01*
X51012Y-25551D01*
X51022Y-25570D01*
X51031Y-25579D01*
X51050Y-25589D01*
X51087Y-25589D01*
X51106Y-25579D01*
X51115Y-25570D01*
X51125Y-25551D01*
X51125Y-25514D01*
X51115Y-25495D01*
X51106Y-25485D01*
X51087Y-25476D01*
X67865Y-29589D02*
X67865Y-29392D01*
X67940Y-29392D01*
X67959Y-29401D01*
X67968Y-29410D01*
X67977Y-29429D01*
X67977Y-29457D01*
X67968Y-29476D01*
X67959Y-29485D01*
X67940Y-29495D01*
X67865Y-29495D01*
X68062Y-29589D02*
X68062Y-29392D01*
X68109Y-29392D01*
X68137Y-29401D01*
X68156Y-29420D01*
X68165Y-29439D01*
X68174Y-29476D01*
X68174Y-29504D01*
X68165Y-29542D01*
X68156Y-29560D01*
X68137Y-29579D01*
X68109Y-29589D01*
X68062Y-29589D01*
X68362Y-29589D02*
X68249Y-29589D01*
X68306Y-29589D02*
X68306Y-29392D01*
X68287Y-29420D01*
X68268Y-29439D01*
X68249Y-29448D01*
X69770Y-35289D02*
X69770Y-35092D01*
X69845Y-35092D01*
X69863Y-35101D01*
X69873Y-35110D01*
X69882Y-35129D01*
X69882Y-35157D01*
X69873Y-35176D01*
X69863Y-35185D01*
X69845Y-35195D01*
X69770Y-35195D01*
X69957Y-35232D02*
X70051Y-35232D01*
X69939Y-35289D02*
X70004Y-35092D01*
X70070Y-35289D01*
X70145Y-35289D02*
X70182Y-35289D01*
X70201Y-35279D01*
X70211Y-35270D01*
X70229Y-35242D01*
X70239Y-35204D01*
X70239Y-35129D01*
X70229Y-35110D01*
X70220Y-35101D01*
X70201Y-35092D01*
X70164Y-35092D01*
X70145Y-35101D01*
X70136Y-35110D01*
X70126Y-35129D01*
X70126Y-35176D01*
X70136Y-35195D01*
X70145Y-35204D01*
X70164Y-35214D01*
X70201Y-35214D01*
X70220Y-35204D01*
X70229Y-35195D01*
X70239Y-35176D01*
X67865Y-28589D02*
X67865Y-28392D01*
X67940Y-28392D01*
X67959Y-28401D01*
X67968Y-28410D01*
X67977Y-28429D01*
X67977Y-28457D01*
X67968Y-28476D01*
X67959Y-28485D01*
X67940Y-28495D01*
X67865Y-28495D01*
X68062Y-28589D02*
X68062Y-28392D01*
X68109Y-28392D01*
X68137Y-28401D01*
X68156Y-28420D01*
X68165Y-28439D01*
X68174Y-28476D01*
X68174Y-28504D01*
X68165Y-28542D01*
X68156Y-28560D01*
X68137Y-28579D01*
X68109Y-28589D01*
X68062Y-28589D01*
X68240Y-28392D02*
X68362Y-28392D01*
X68296Y-28467D01*
X68324Y-28467D01*
X68343Y-28476D01*
X68353Y-28485D01*
X68362Y-28504D01*
X68362Y-28551D01*
X68353Y-28570D01*
X68343Y-28579D01*
X68324Y-28589D01*
X68268Y-28589D01*
X68249Y-28579D01*
X68240Y-28570D01*
X67865Y-27589D02*
X67865Y-27392D01*
X67940Y-27392D01*
X67959Y-27401D01*
X67968Y-27410D01*
X67977Y-27429D01*
X67977Y-27457D01*
X67968Y-27476D01*
X67959Y-27485D01*
X67940Y-27495D01*
X67865Y-27495D01*
X68062Y-27589D02*
X68062Y-27392D01*
X68109Y-27392D01*
X68137Y-27401D01*
X68156Y-27420D01*
X68165Y-27439D01*
X68174Y-27476D01*
X68174Y-27504D01*
X68165Y-27542D01*
X68156Y-27560D01*
X68137Y-27579D01*
X68109Y-27589D01*
X68062Y-27589D01*
X68353Y-27392D02*
X68259Y-27392D01*
X68249Y-27485D01*
X68259Y-27476D01*
X68278Y-27467D01*
X68324Y-27467D01*
X68343Y-27476D01*
X68353Y-27485D01*
X68362Y-27504D01*
X68362Y-27551D01*
X68353Y-27570D01*
X68343Y-27579D01*
X68324Y-27589D01*
X68278Y-27589D01*
X68259Y-27579D01*
X68249Y-27570D01*
X67865Y-26589D02*
X67865Y-26392D01*
X67940Y-26392D01*
X67959Y-26401D01*
X67968Y-26410D01*
X67977Y-26429D01*
X67977Y-26457D01*
X67968Y-26476D01*
X67959Y-26485D01*
X67940Y-26495D01*
X67865Y-26495D01*
X68062Y-26589D02*
X68062Y-26392D01*
X68109Y-26392D01*
X68137Y-26401D01*
X68156Y-26420D01*
X68165Y-26439D01*
X68174Y-26476D01*
X68174Y-26504D01*
X68165Y-26542D01*
X68156Y-26560D01*
X68137Y-26579D01*
X68109Y-26589D01*
X68062Y-26589D01*
X68240Y-26392D02*
X68371Y-26392D01*
X68287Y-26589D01*
G54D11*
X58500Y-24500D02*
X58500Y-25500D01*
X59500Y-24500D02*
X58500Y-24500D01*
X60500Y-25500D02*
X59900Y-25500D01*
X60500Y-23600D02*
X60500Y-25500D01*
X59500Y-23600D02*
X59500Y-25300D01*
G54D12*
X58604Y-25392D02*
X58669Y-25589D01*
X58735Y-25392D01*
X58885Y-25589D02*
X58885Y-25392D01*
X58885Y-25579D02*
X58866Y-25589D01*
X58829Y-25589D01*
X58810Y-25579D01*
X58801Y-25570D01*
X58791Y-25551D01*
X58791Y-25495D01*
X58801Y-25476D01*
X58810Y-25467D01*
X58829Y-25457D01*
X58866Y-25457D01*
X58885Y-25467D01*
X58979Y-25457D02*
X58979Y-25654D01*
X58979Y-25467D02*
X58998Y-25457D01*
X59035Y-25457D01*
X59054Y-25467D01*
X59063Y-25476D01*
X59073Y-25495D01*
X59073Y-25551D01*
X59063Y-25570D01*
X59054Y-25579D01*
X59035Y-25589D01*
X58998Y-25589D01*
X58979Y-25579D01*
X59242Y-25457D02*
X59242Y-25589D01*
X59157Y-25457D02*
X59157Y-25560D01*
X59167Y-25579D01*
X59185Y-25589D01*
X59214Y-25589D01*
X59232Y-25579D01*
X59242Y-25570D01*
X59289Y-25607D02*
X59439Y-25607D01*
X59579Y-25392D02*
X59486Y-25392D01*
X59476Y-25485D01*
X59486Y-25476D01*
X59504Y-25467D01*
X59551Y-25467D01*
X59570Y-25476D01*
X59579Y-25485D01*
X59589Y-25504D01*
X59589Y-25551D01*
X59579Y-25570D01*
X59570Y-25579D01*
X59551Y-25589D01*
X59504Y-25589D01*
X59486Y-25579D01*
X59476Y-25570D01*
X59701Y-25476D02*
X59683Y-25467D01*
X59673Y-25457D01*
X59664Y-25439D01*
X59664Y-25429D01*
X59673Y-25410D01*
X59683Y-25401D01*
X59701Y-25392D01*
X59739Y-25392D01*
X59758Y-25401D01*
X59767Y-25410D01*
X59776Y-25429D01*
X59776Y-25439D01*
X59767Y-25457D01*
X59758Y-25467D01*
X59739Y-25476D01*
X59701Y-25476D01*
X59683Y-25485D01*
X59673Y-25495D01*
X59664Y-25514D01*
X59664Y-25551D01*
X59673Y-25570D01*
X59683Y-25579D01*
X59701Y-25589D01*
X59739Y-25589D01*
X59758Y-25579D01*
X59767Y-25570D01*
X59776Y-25551D01*
X59776Y-25514D01*
X59767Y-25495D01*
X59758Y-25485D01*
X59739Y-25476D01*
X59404Y-23292D02*
X59469Y-23489D01*
X59535Y-23292D01*
X59685Y-23489D02*
X59685Y-23292D01*
X59685Y-23479D02*
X59666Y-23489D01*
X59629Y-23489D01*
X59610Y-23479D01*
X59601Y-23470D01*
X59591Y-23451D01*
X59591Y-23395D01*
X59601Y-23376D01*
X59610Y-23367D01*
X59629Y-23357D01*
X59666Y-23357D01*
X59685Y-23367D01*
X59779Y-23357D02*
X59779Y-23554D01*
X59779Y-23367D02*
X59798Y-23357D01*
X59835Y-23357D01*
X59854Y-23367D01*
X59863Y-23376D01*
X59873Y-23395D01*
X59873Y-23451D01*
X59863Y-23470D01*
X59854Y-23479D01*
X59835Y-23489D01*
X59798Y-23489D01*
X59779Y-23479D01*
X60042Y-23357D02*
X60042Y-23489D01*
X59957Y-23357D02*
X59957Y-23460D01*
X59967Y-23479D01*
X59985Y-23489D01*
X60014Y-23489D01*
X60032Y-23479D01*
X60042Y-23470D01*
X60089Y-23507D02*
X60239Y-23507D01*
X60389Y-23489D02*
X60276Y-23489D01*
X60333Y-23489D02*
X60333Y-23292D01*
X60314Y-23320D01*
X60295Y-23339D01*
X60276Y-23348D01*
X60558Y-23357D02*
X60558Y-23489D01*
X60511Y-23282D02*
X60464Y-23423D01*
X60586Y-23423D01*
X52045Y-24892D02*
X52110Y-25089D01*
X52176Y-24892D01*
X52326Y-25089D02*
X52326Y-24892D01*
X52326Y-25079D02*
X52307Y-25089D01*
X52270Y-25089D01*
X52251Y-25079D01*
X52242Y-25070D01*
X52232Y-25051D01*
X52232Y-24995D01*
X52242Y-24976D01*
X52251Y-24967D01*
X52270Y-24957D01*
X52307Y-24957D01*
X52326Y-24967D01*
X66645Y-24992D02*
X66710Y-25189D01*
X66776Y-24992D01*
X66926Y-25189D02*
X66926Y-24992D01*
X66926Y-25179D02*
X66907Y-25189D01*
X66870Y-25189D01*
X66851Y-25179D01*
X66842Y-25170D01*
X66832Y-25151D01*
X66832Y-25095D01*
X66842Y-25076D01*
X66851Y-25067D01*
X66870Y-25057D01*
X66907Y-25057D01*
X66926Y-25067D01*
G54D11*
X65000Y-23400D02*
X65000Y-25500D01*
X65300Y-23400D02*
X64700Y-23400D01*
X66000Y-23400D02*
X65700Y-23400D01*
X66000Y-25500D02*
X66000Y-23400D01*
X64000Y-25500D02*
X66000Y-25500D01*
X64000Y-23400D02*
X64000Y-25500D01*
X64300Y-23400D02*
X64000Y-23400D01*
X53700Y-23400D02*
X54300Y-23400D01*
X62000Y-23400D02*
X62000Y-25500D01*
X62300Y-23400D02*
X61700Y-23400D01*
X63000Y-23400D02*
X62700Y-23400D01*
X63000Y-25500D02*
X63000Y-23400D01*
X61000Y-25500D02*
X63000Y-25500D01*
X61000Y-23400D02*
X61000Y-25500D01*
X61300Y-23400D02*
X61000Y-23400D01*
X57000Y-23400D02*
X57000Y-25500D01*
X57300Y-23400D02*
X56700Y-23400D01*
X58000Y-23400D02*
X57700Y-23400D01*
X58000Y-25500D02*
X58000Y-23400D01*
X56000Y-25500D02*
X58000Y-25500D01*
X56000Y-23400D02*
X56000Y-25500D01*
X56300Y-23400D02*
X56000Y-23400D01*
X54000Y-23400D02*
X54000Y-25500D01*
X55000Y-23400D02*
X54700Y-23400D01*
X55000Y-25500D02*
X55000Y-23400D01*
X53000Y-25500D02*
X55000Y-25500D01*
X53000Y-23400D02*
X53000Y-25500D01*
X53300Y-23400D02*
X53000Y-23400D01*
G54D12*
X66077Y-27979D02*
X66106Y-27989D01*
X66152Y-27989D01*
X66171Y-27979D01*
X66181Y-27970D01*
X66190Y-27951D01*
X66190Y-27932D01*
X66181Y-27914D01*
X66171Y-27904D01*
X66152Y-27895D01*
X66115Y-27885D01*
X66096Y-27876D01*
X66087Y-27867D01*
X66077Y-27848D01*
X66077Y-27829D01*
X66087Y-27810D01*
X66096Y-27801D01*
X66115Y-27792D01*
X66162Y-27792D01*
X66190Y-27801D01*
X66312Y-27792D02*
X66349Y-27792D01*
X66368Y-27801D01*
X66387Y-27820D01*
X66396Y-27857D01*
X66396Y-27923D01*
X66387Y-27960D01*
X66368Y-27979D01*
X66349Y-27989D01*
X66312Y-27989D01*
X66293Y-27979D01*
X66274Y-27960D01*
X66265Y-27923D01*
X66265Y-27857D01*
X66274Y-27820D01*
X66293Y-27801D01*
X66312Y-27792D01*
X66434Y-28007D02*
X66584Y-28007D01*
X66612Y-27792D02*
X66734Y-27792D01*
X66668Y-27867D01*
X66697Y-27867D01*
X66715Y-27876D01*
X66725Y-27885D01*
X66734Y-27904D01*
X66734Y-27951D01*
X66725Y-27970D01*
X66715Y-27979D01*
X66697Y-27989D01*
X66640Y-27989D01*
X66621Y-27979D01*
X66612Y-27970D01*
X66903Y-27857D02*
X66903Y-27989D01*
X66856Y-27782D02*
X66809Y-27923D01*
X66931Y-27923D01*
X60077Y-27979D02*
X60106Y-27989D01*
X60152Y-27989D01*
X60171Y-27979D01*
X60181Y-27970D01*
X60190Y-27951D01*
X60190Y-27932D01*
X60181Y-27914D01*
X60171Y-27904D01*
X60152Y-27895D01*
X60115Y-27885D01*
X60096Y-27876D01*
X60087Y-27867D01*
X60077Y-27848D01*
X60077Y-27829D01*
X60087Y-27810D01*
X60096Y-27801D01*
X60115Y-27792D01*
X60162Y-27792D01*
X60190Y-27801D01*
X60312Y-27792D02*
X60349Y-27792D01*
X60368Y-27801D01*
X60387Y-27820D01*
X60396Y-27857D01*
X60396Y-27923D01*
X60387Y-27960D01*
X60368Y-27979D01*
X60349Y-27989D01*
X60312Y-27989D01*
X60293Y-27979D01*
X60274Y-27960D01*
X60265Y-27923D01*
X60265Y-27857D01*
X60274Y-27820D01*
X60293Y-27801D01*
X60312Y-27792D01*
X60434Y-28007D02*
X60584Y-28007D01*
X60734Y-27989D02*
X60621Y-27989D01*
X60678Y-27989D02*
X60678Y-27792D01*
X60659Y-27820D01*
X60640Y-27839D01*
X60621Y-27848D01*
X60809Y-27810D02*
X60818Y-27801D01*
X60837Y-27792D01*
X60884Y-27792D01*
X60903Y-27801D01*
X60912Y-27810D01*
X60922Y-27829D01*
X60922Y-27848D01*
X60912Y-27876D01*
X60800Y-27989D01*
X60922Y-27989D01*
X58077Y-27979D02*
X58106Y-27989D01*
X58152Y-27989D01*
X58171Y-27979D01*
X58181Y-27970D01*
X58190Y-27951D01*
X58190Y-27932D01*
X58181Y-27914D01*
X58171Y-27904D01*
X58152Y-27895D01*
X58115Y-27885D01*
X58096Y-27876D01*
X58087Y-27867D01*
X58077Y-27848D01*
X58077Y-27829D01*
X58087Y-27810D01*
X58096Y-27801D01*
X58115Y-27792D01*
X58162Y-27792D01*
X58190Y-27801D01*
X58312Y-27792D02*
X58349Y-27792D01*
X58368Y-27801D01*
X58387Y-27820D01*
X58396Y-27857D01*
X58396Y-27923D01*
X58387Y-27960D01*
X58368Y-27979D01*
X58349Y-27989D01*
X58312Y-27989D01*
X58293Y-27979D01*
X58274Y-27960D01*
X58265Y-27923D01*
X58265Y-27857D01*
X58274Y-27820D01*
X58293Y-27801D01*
X58312Y-27792D01*
X58434Y-28007D02*
X58584Y-28007D01*
X58612Y-27792D02*
X58743Y-27792D01*
X58659Y-27989D01*
X58847Y-27876D02*
X58828Y-27867D01*
X58818Y-27857D01*
X58809Y-27839D01*
X58809Y-27829D01*
X58818Y-27810D01*
X58828Y-27801D01*
X58847Y-27792D01*
X58884Y-27792D01*
X58903Y-27801D01*
X58912Y-27810D01*
X58922Y-27829D01*
X58922Y-27839D01*
X58912Y-27857D01*
X58903Y-27867D01*
X58884Y-27876D01*
X58847Y-27876D01*
X58828Y-27885D01*
X58818Y-27895D01*
X58809Y-27914D01*
X58809Y-27951D01*
X58818Y-27970D01*
X58828Y-27979D01*
X58847Y-27989D01*
X58884Y-27989D01*
X58903Y-27979D01*
X58912Y-27970D01*
X58922Y-27951D01*
X58922Y-27914D01*
X58912Y-27895D01*
X58903Y-27885D01*
X58884Y-27876D01*
X52077Y-27979D02*
X52106Y-27989D01*
X52152Y-27989D01*
X52171Y-27979D01*
X52181Y-27970D01*
X52190Y-27951D01*
X52190Y-27932D01*
X52181Y-27914D01*
X52171Y-27904D01*
X52152Y-27895D01*
X52115Y-27885D01*
X52096Y-27876D01*
X52087Y-27867D01*
X52077Y-27848D01*
X52077Y-27829D01*
X52087Y-27810D01*
X52096Y-27801D01*
X52115Y-27792D01*
X52162Y-27792D01*
X52190Y-27801D01*
X52312Y-27792D02*
X52349Y-27792D01*
X52368Y-27801D01*
X52387Y-27820D01*
X52396Y-27857D01*
X52396Y-27923D01*
X52387Y-27960D01*
X52368Y-27979D01*
X52349Y-27989D01*
X52312Y-27989D01*
X52293Y-27979D01*
X52274Y-27960D01*
X52265Y-27923D01*
X52265Y-27857D01*
X52274Y-27820D01*
X52293Y-27801D01*
X52312Y-27792D01*
X52434Y-28007D02*
X52584Y-28007D01*
X52725Y-27792D02*
X52631Y-27792D01*
X52621Y-27885D01*
X52631Y-27876D01*
X52650Y-27867D01*
X52697Y-27867D01*
X52715Y-27876D01*
X52725Y-27885D01*
X52734Y-27904D01*
X52734Y-27951D01*
X52725Y-27970D01*
X52715Y-27979D01*
X52697Y-27989D01*
X52650Y-27989D01*
X52631Y-27979D01*
X52621Y-27970D01*
X52903Y-27792D02*
X52865Y-27792D01*
X52847Y-27801D01*
X52837Y-27810D01*
X52818Y-27839D01*
X52809Y-27876D01*
X52809Y-27951D01*
X52818Y-27970D01*
X52828Y-27979D01*
X52847Y-27989D01*
X52884Y-27989D01*
X52903Y-27979D01*
X52912Y-27970D01*
X52922Y-27951D01*
X52922Y-27904D01*
X52912Y-27885D01*
X52903Y-27876D01*
X52884Y-27867D01*
X52847Y-27867D01*
X52828Y-27876D01*
X52818Y-27885D01*
X52809Y-27904D01*
X65537Y-23357D02*
X65537Y-23489D01*
X65490Y-23282D02*
X65443Y-23423D01*
X65565Y-23423D01*
X64556Y-23489D02*
X64443Y-23489D01*
X64500Y-23489D02*
X64500Y-23292D01*
X64481Y-23320D01*
X64462Y-23339D01*
X64443Y-23348D01*
X62434Y-23292D02*
X62556Y-23292D01*
X62490Y-23367D01*
X62518Y-23367D01*
X62537Y-23376D01*
X62546Y-23385D01*
X62556Y-23404D01*
X62556Y-23451D01*
X62546Y-23470D01*
X62537Y-23479D01*
X62518Y-23489D01*
X62462Y-23489D01*
X62443Y-23479D01*
X62434Y-23470D01*
X61443Y-23310D02*
X61453Y-23301D01*
X61471Y-23292D01*
X61518Y-23292D01*
X61537Y-23301D01*
X61546Y-23310D01*
X61556Y-23329D01*
X61556Y-23348D01*
X61546Y-23376D01*
X61434Y-23489D01*
X61556Y-23489D01*
X57481Y-23376D02*
X57462Y-23367D01*
X57453Y-23357D01*
X57443Y-23339D01*
X57443Y-23329D01*
X57453Y-23310D01*
X57462Y-23301D01*
X57481Y-23292D01*
X57518Y-23292D01*
X57537Y-23301D01*
X57546Y-23310D01*
X57556Y-23329D01*
X57556Y-23339D01*
X57546Y-23357D01*
X57537Y-23367D01*
X57518Y-23376D01*
X57481Y-23376D01*
X57462Y-23385D01*
X57453Y-23395D01*
X57443Y-23414D01*
X57443Y-23451D01*
X57453Y-23470D01*
X57462Y-23479D01*
X57481Y-23489D01*
X57518Y-23489D01*
X57537Y-23479D01*
X57546Y-23470D01*
X57556Y-23451D01*
X57556Y-23414D01*
X57546Y-23395D01*
X57537Y-23385D01*
X57518Y-23376D01*
X56546Y-23292D02*
X56453Y-23292D01*
X56443Y-23385D01*
X56453Y-23376D01*
X56471Y-23367D01*
X56518Y-23367D01*
X56537Y-23376D01*
X56546Y-23385D01*
X56556Y-23404D01*
X56556Y-23451D01*
X56546Y-23470D01*
X56537Y-23479D01*
X56518Y-23489D01*
X56471Y-23489D01*
X56453Y-23479D01*
X56443Y-23470D01*
X54434Y-23292D02*
X54565Y-23292D01*
X54481Y-23489D01*
X53537Y-23292D02*
X53500Y-23292D01*
X53481Y-23301D01*
X53471Y-23310D01*
X53453Y-23339D01*
X53443Y-23376D01*
X53443Y-23451D01*
X53453Y-23470D01*
X53462Y-23479D01*
X53481Y-23489D01*
X53518Y-23489D01*
X53537Y-23479D01*
X53546Y-23470D01*
X53556Y-23451D01*
X53556Y-23404D01*
X53546Y-23385D01*
X53537Y-23376D01*
X53518Y-23367D01*
X53481Y-23367D01*
X53462Y-23376D01*
X53453Y-23385D01*
X53443Y-23404D01*
G54D11*
X66500Y-33000D02*
X66500Y-33600D01*
X67500Y-33000D02*
X66500Y-33000D01*
X65500Y-35000D02*
X65500Y-34000D01*
X65500Y-34000D02*
X66200Y-34000D01*
X67500Y-34000D02*
X66800Y-34000D01*
X65500Y-35000D02*
X66000Y-35000D01*
X67500Y-35000D02*
X67000Y-35000D01*
X67500Y-33000D02*
X67500Y-35000D01*
X61500Y-34000D02*
X62200Y-34000D01*
X63500Y-34000D02*
X62800Y-34000D01*
X63500Y-35000D02*
X63000Y-35000D01*
X63500Y-33000D02*
X63500Y-35000D01*
X61500Y-33000D02*
X63500Y-33000D01*
X61500Y-35000D02*
X62000Y-35000D01*
X61500Y-33000D02*
X61500Y-35000D01*
X59500Y-34000D02*
X58800Y-34000D01*
X57500Y-34000D02*
X58200Y-34000D01*
X59500Y-35000D02*
X59000Y-35000D01*
X59500Y-33000D02*
X59500Y-35000D01*
X57500Y-33000D02*
X59500Y-33000D01*
X57500Y-35000D02*
X58000Y-35000D01*
X57500Y-33000D02*
X57500Y-35000D01*
X55500Y-34000D02*
X54800Y-34000D01*
X53500Y-34000D02*
X54200Y-34000D01*
X55500Y-35000D02*
X55000Y-35000D01*
X55500Y-33000D02*
X55500Y-35000D01*
X53500Y-33000D02*
X55500Y-33000D01*
X53500Y-35000D02*
X54000Y-35000D01*
X53500Y-33000D02*
X53500Y-35000D01*
X53000Y-29000D02*
X53000Y-29800D01*
X51000Y-29000D02*
X51000Y-30000D01*
X53000Y-29000D02*
X51000Y-29000D01*
X58000Y-29000D02*
X58000Y-29800D01*
X60000Y-29000D02*
X60000Y-30000D01*
X58000Y-29000D02*
X60000Y-29000D01*
G54D12*
X58204Y-30070D02*
X58195Y-30079D01*
X58166Y-30089D01*
X58148Y-30089D01*
X58120Y-30079D01*
X58101Y-30060D01*
X58091Y-30042D01*
X58082Y-30004D01*
X58082Y-29976D01*
X58091Y-29939D01*
X58101Y-29920D01*
X58120Y-29901D01*
X58148Y-29892D01*
X58166Y-29892D01*
X58195Y-29901D01*
X58204Y-29910D01*
X58279Y-30079D02*
X58307Y-30089D01*
X58354Y-30089D01*
X58373Y-30079D01*
X58382Y-30070D01*
X58392Y-30051D01*
X58392Y-30032D01*
X58382Y-30014D01*
X58373Y-30004D01*
X58354Y-29995D01*
X58317Y-29985D01*
X58298Y-29976D01*
X58288Y-29967D01*
X58279Y-29948D01*
X58279Y-29929D01*
X58288Y-29910D01*
X58298Y-29901D01*
X58317Y-29892D01*
X58363Y-29892D01*
X58392Y-29901D01*
X58429Y-30107D02*
X58579Y-30107D01*
X58720Y-29892D02*
X58626Y-29892D01*
X58617Y-29985D01*
X58626Y-29976D01*
X58645Y-29967D01*
X58692Y-29967D01*
X58711Y-29976D01*
X58720Y-29985D01*
X58729Y-30004D01*
X58729Y-30051D01*
X58720Y-30070D01*
X58711Y-30079D01*
X58692Y-30089D01*
X58645Y-30089D01*
X58626Y-30079D01*
X58617Y-30070D01*
X58898Y-29892D02*
X58861Y-29892D01*
X58842Y-29901D01*
X58833Y-29910D01*
X58814Y-29939D01*
X58804Y-29976D01*
X58804Y-30051D01*
X58814Y-30070D01*
X58823Y-30079D01*
X58842Y-30089D01*
X58879Y-30089D01*
X58898Y-30079D01*
X58908Y-30070D01*
X58917Y-30051D01*
X58917Y-30004D01*
X58908Y-29985D01*
X58898Y-29976D01*
X58879Y-29967D01*
X58842Y-29967D01*
X58823Y-29976D01*
X58814Y-29985D01*
X58804Y-30004D01*
X52204Y-30070D02*
X52195Y-30079D01*
X52166Y-30089D01*
X52148Y-30089D01*
X52120Y-30079D01*
X52101Y-30060D01*
X52091Y-30042D01*
X52082Y-30004D01*
X52082Y-29976D01*
X52091Y-29939D01*
X52101Y-29920D01*
X52120Y-29901D01*
X52148Y-29892D01*
X52166Y-29892D01*
X52195Y-29901D01*
X52204Y-29910D01*
X52279Y-30079D02*
X52307Y-30089D01*
X52354Y-30089D01*
X52373Y-30079D01*
X52382Y-30070D01*
X52392Y-30051D01*
X52392Y-30032D01*
X52382Y-30014D01*
X52373Y-30004D01*
X52354Y-29995D01*
X52317Y-29985D01*
X52298Y-29976D01*
X52288Y-29967D01*
X52279Y-29948D01*
X52279Y-29929D01*
X52288Y-29910D01*
X52298Y-29901D01*
X52317Y-29892D01*
X52363Y-29892D01*
X52392Y-29901D01*
X52429Y-30107D02*
X52579Y-30107D01*
X52607Y-29892D02*
X52739Y-29892D01*
X52654Y-30089D01*
X52842Y-29976D02*
X52823Y-29967D01*
X52814Y-29957D01*
X52804Y-29939D01*
X52804Y-29929D01*
X52814Y-29910D01*
X52823Y-29901D01*
X52842Y-29892D01*
X52879Y-29892D01*
X52898Y-29901D01*
X52908Y-29910D01*
X52917Y-29929D01*
X52917Y-29939D01*
X52908Y-29957D01*
X52898Y-29967D01*
X52879Y-29976D01*
X52842Y-29976D01*
X52823Y-29985D01*
X52814Y-29995D01*
X52804Y-30014D01*
X52804Y-30051D01*
X52814Y-30070D01*
X52823Y-30079D01*
X52842Y-30089D01*
X52879Y-30089D01*
X52898Y-30079D01*
X52908Y-30070D01*
X52917Y-30051D01*
X52917Y-30014D01*
X52908Y-29995D01*
X52898Y-29985D01*
X52879Y-29976D01*
X66396Y-33989D02*
X66396Y-33792D01*
X66490Y-33989D02*
X66490Y-33792D01*
X66603Y-33989D01*
X66603Y-33792D01*
X62396Y-33989D02*
X62396Y-33792D01*
X62490Y-33989D02*
X62490Y-33792D01*
X62603Y-33989D01*
X62603Y-33792D01*
X58396Y-33989D02*
X58396Y-33792D01*
X58490Y-33989D02*
X58490Y-33792D01*
X58603Y-33989D01*
X58603Y-33792D01*
X54396Y-33989D02*
X54396Y-33792D01*
X54490Y-33989D02*
X54490Y-33792D01*
X54603Y-33989D01*
X54603Y-33792D01*
X66138Y-35085D02*
X66204Y-35085D01*
X66232Y-35189D02*
X66138Y-35189D01*
X66138Y-34992D01*
X66232Y-34992D01*
X66317Y-35189D02*
X66317Y-34992D01*
X66410Y-35189D02*
X66410Y-34992D01*
X66523Y-35189D01*
X66523Y-34992D01*
X66570Y-35207D02*
X66720Y-35207D01*
X66870Y-35189D02*
X66757Y-35189D01*
X66814Y-35189D02*
X66814Y-34992D01*
X66795Y-35020D01*
X66776Y-35039D01*
X66757Y-35048D01*
X62138Y-35085D02*
X62204Y-35085D01*
X62232Y-35189D02*
X62138Y-35189D01*
X62138Y-34992D01*
X62232Y-34992D01*
X62317Y-35189D02*
X62317Y-34992D01*
X62410Y-35189D02*
X62410Y-34992D01*
X62523Y-35189D01*
X62523Y-34992D01*
X62570Y-35207D02*
X62720Y-35207D01*
X62757Y-35010D02*
X62767Y-35001D01*
X62786Y-34992D01*
X62833Y-34992D01*
X62851Y-35001D01*
X62861Y-35010D01*
X62870Y-35029D01*
X62870Y-35048D01*
X62861Y-35076D01*
X62748Y-35189D01*
X62870Y-35189D01*
X58138Y-35085D02*
X58204Y-35085D01*
X58232Y-35189D02*
X58138Y-35189D01*
X58138Y-34992D01*
X58232Y-34992D01*
X58317Y-35189D02*
X58317Y-34992D01*
X58410Y-35189D02*
X58410Y-34992D01*
X58523Y-35189D01*
X58523Y-34992D01*
X58570Y-35207D02*
X58720Y-35207D01*
X58748Y-34992D02*
X58870Y-34992D01*
X58804Y-35067D01*
X58833Y-35067D01*
X58851Y-35076D01*
X58861Y-35085D01*
X58870Y-35104D01*
X58870Y-35151D01*
X58861Y-35170D01*
X58851Y-35179D01*
X58833Y-35189D01*
X58776Y-35189D01*
X58757Y-35179D01*
X58748Y-35170D01*
X54138Y-35085D02*
X54204Y-35085D01*
X54232Y-35189D02*
X54138Y-35189D01*
X54138Y-34992D01*
X54232Y-34992D01*
X54317Y-35189D02*
X54317Y-34992D01*
X54410Y-35189D02*
X54410Y-34992D01*
X54523Y-35189D01*
X54523Y-34992D01*
X54570Y-35207D02*
X54720Y-35207D01*
X54851Y-35057D02*
X54851Y-35189D01*
X54804Y-34982D02*
X54757Y-35123D01*
X54879Y-35123D01*
X51549Y-33392D02*
X51615Y-33589D01*
X51681Y-33392D01*
X51831Y-33579D02*
X51812Y-33589D01*
X51775Y-33589D01*
X51756Y-33579D01*
X51746Y-33570D01*
X51737Y-33551D01*
X51737Y-33495D01*
X51746Y-33476D01*
X51756Y-33467D01*
X51775Y-33457D01*
X51812Y-33457D01*
X51831Y-33467D01*
X66851Y-23901D02*
X66832Y-23892D01*
X66804Y-23892D01*
X66776Y-23901D01*
X66757Y-23920D01*
X66748Y-23939D01*
X66739Y-23976D01*
X66739Y-24004D01*
X66748Y-24042D01*
X66757Y-24060D01*
X66776Y-24079D01*
X66804Y-24089D01*
X66823Y-24089D01*
X66851Y-24079D01*
X66860Y-24070D01*
X66860Y-24004D01*
X66823Y-24004D01*
X59051Y-23301D02*
X59032Y-23292D01*
X59004Y-23292D01*
X58976Y-23301D01*
X58957Y-23320D01*
X58948Y-23339D01*
X58939Y-23376D01*
X58939Y-23404D01*
X58948Y-23442D01*
X58957Y-23460D01*
X58976Y-23479D01*
X59004Y-23489D01*
X59023Y-23489D01*
X59051Y-23479D01*
X59060Y-23470D01*
X59060Y-23404D01*
X59023Y-23404D01*
X52251Y-23901D02*
X52232Y-23892D01*
X52204Y-23892D01*
X52176Y-23901D01*
X52157Y-23920D01*
X52148Y-23939D01*
X52139Y-23976D01*
X52139Y-24004D01*
X52148Y-24042D01*
X52157Y-24060D01*
X52176Y-24079D01*
X52204Y-24089D01*
X52223Y-24089D01*
X52251Y-24079D01*
X52260Y-24070D01*
X52260Y-24004D01*
X52223Y-24004D01*
X65051Y-35001D02*
X65032Y-34992D01*
X65004Y-34992D01*
X64976Y-35001D01*
X64957Y-35020D01*
X64948Y-35039D01*
X64939Y-35076D01*
X64939Y-35104D01*
X64948Y-35142D01*
X64957Y-35160D01*
X64976Y-35179D01*
X65004Y-35189D01*
X65023Y-35189D01*
X65051Y-35179D01*
X65060Y-35170D01*
X65060Y-35104D01*
X65023Y-35104D01*
X61051Y-35001D02*
X61032Y-34992D01*
X61004Y-34992D01*
X60976Y-35001D01*
X60957Y-35020D01*
X60948Y-35039D01*
X60939Y-35076D01*
X60939Y-35104D01*
X60948Y-35142D01*
X60957Y-35160D01*
X60976Y-35179D01*
X61004Y-35189D01*
X61023Y-35189D01*
X61051Y-35179D01*
X61060Y-35170D01*
X61060Y-35104D01*
X61023Y-35104D01*
X57051Y-35001D02*
X57032Y-34992D01*
X57004Y-34992D01*
X56976Y-35001D01*
X56957Y-35020D01*
X56948Y-35039D01*
X56939Y-35076D01*
X56939Y-35104D01*
X56948Y-35142D01*
X56957Y-35160D01*
X56976Y-35179D01*
X57004Y-35189D01*
X57023Y-35189D01*
X57051Y-35179D01*
X57060Y-35170D01*
X57060Y-35104D01*
X57023Y-35104D01*
X53051Y-35001D02*
X53032Y-34992D01*
X53004Y-34992D01*
X52976Y-35001D01*
X52957Y-35020D01*
X52948Y-35039D01*
X52939Y-35076D01*
X52939Y-35104D01*
X52948Y-35142D01*
X52957Y-35160D01*
X52976Y-35179D01*
X53004Y-35189D01*
X53023Y-35189D01*
X53051Y-35179D01*
X53060Y-35170D01*
X53060Y-35104D01*
X53023Y-35104D01*
X51751Y-34401D02*
X51732Y-34392D01*
X51704Y-34392D01*
X51676Y-34401D01*
X51657Y-34420D01*
X51648Y-34439D01*
X51639Y-34476D01*
X51639Y-34504D01*
X51648Y-34542D01*
X51657Y-34560D01*
X51676Y-34579D01*
X51704Y-34589D01*
X51723Y-34589D01*
X51751Y-34579D01*
X51760Y-34570D01*
X51760Y-34504D01*
X51723Y-34504D01*
G54D13*
X53900Y-30300D02*
G75*
G03X53900Y-30300I-50J0D01*
G74*
G01*
X54300Y-30300D02*
X53900Y-30300D01*
X53900Y-30300D02*
X53900Y-29700D01*
X53900Y-29700D02*
X54300Y-29700D01*
X54700Y-29700D02*
X55100Y-29700D01*
X55100Y-29700D02*
X55100Y-30300D01*
X55100Y-30300D02*
X54700Y-30300D01*
X61900Y-30300D02*
G75*
G03X61900Y-30300I-50J0D01*
G74*
G01*
X62300Y-30300D02*
X61900Y-30300D01*
X61900Y-30300D02*
X61900Y-29700D01*
X61900Y-29700D02*
X62300Y-29700D01*
X62700Y-29700D02*
X63100Y-29700D01*
X63100Y-29700D02*
X63100Y-30300D01*
X63100Y-30300D02*
X62700Y-30300D01*
X66400Y-32800D02*
G75*
G03X66400Y-32800I-50J0D01*
G74*
G01*
X66800Y-32800D02*
X66400Y-32800D01*
X66400Y-32800D02*
X66400Y-32200D01*
X66400Y-32200D02*
X66800Y-32200D01*
X67200Y-32200D02*
X67600Y-32200D01*
X67600Y-32200D02*
X67600Y-32800D01*
X67600Y-32800D02*
X67200Y-32800D01*
X62400Y-32800D02*
G75*
G03X62400Y-32800I-50J0D01*
G74*
G01*
X62800Y-32800D02*
X62400Y-32800D01*
X62400Y-32800D02*
X62400Y-32200D01*
X62400Y-32200D02*
X62800Y-32200D01*
X63200Y-32200D02*
X63600Y-32200D01*
X63600Y-32200D02*
X63600Y-32800D01*
X63600Y-32800D02*
X63200Y-32800D01*
X58400Y-32800D02*
G75*
G03X58400Y-32800I-50J0D01*
G74*
G01*
X58800Y-32800D02*
X58400Y-32800D01*
X58400Y-32800D02*
X58400Y-32200D01*
X58400Y-32200D02*
X58800Y-32200D01*
X59200Y-32200D02*
X59600Y-32200D01*
X59600Y-32200D02*
X59600Y-32800D01*
X59600Y-32800D02*
X59200Y-32800D01*
X54400Y-32800D02*
G75*
G03X54400Y-32800I-50J0D01*
G74*
G01*
X54800Y-32800D02*
X54400Y-32800D01*
X54400Y-32800D02*
X54400Y-32200D01*
X54400Y-32200D02*
X54800Y-32200D01*
X55200Y-32200D02*
X55600Y-32200D01*
X55600Y-32200D02*
X55600Y-32800D01*
X55600Y-32800D02*
X55200Y-32800D01*
G54D14*
X50500Y-34000D02*
X50500Y-24000D01*
X48500Y-25000D02*
X48500Y-34000D01*
X50500Y-34000D02*
X48500Y-34000D01*
X50500Y-24000D02*
X49500Y-24000D01*
X48500Y-24000D02*
X48500Y-25000D01*
X49500Y-24000D02*
X49500Y-25000D01*
X49500Y-25000D02*
X48500Y-25000D01*
X48500Y-24000D02*
X49500Y-24000D01*
X70500Y-35000D02*
X70500Y-25000D01*
X68500Y-26000D02*
X68500Y-35000D01*
X70500Y-35000D02*
X68500Y-35000D01*
X70500Y-25000D02*
X69500Y-25000D01*
X68500Y-25000D02*
X68500Y-26000D01*
X69500Y-25000D02*
X69500Y-26000D01*
X69500Y-26000D02*
X68500Y-26000D01*
X68500Y-25000D02*
X69500Y-25000D01*
G54D15*
X65409Y-31328D02*
X65409Y-30974D01*
X65409Y-30974D02*
X65724Y-30974D01*
X66590Y-31328D02*
X66590Y-30974D01*
X66590Y-30974D02*
X66275Y-30974D01*
X66118Y-31525D02*
X65881Y-31525D01*
X61409Y-31328D02*
X61409Y-30974D01*
X61409Y-30974D02*
X61724Y-30974D01*
X62590Y-31328D02*
X62590Y-30974D01*
X62590Y-30974D02*
X62275Y-30974D01*
X62118Y-31525D02*
X61881Y-31525D01*
X57409Y-31328D02*
X57409Y-30974D01*
X57409Y-30974D02*
X57724Y-30974D01*
X58590Y-31328D02*
X58590Y-30974D01*
X58590Y-30974D02*
X58275Y-30974D01*
X58118Y-31525D02*
X57881Y-31525D01*
X53409Y-31328D02*
X53409Y-30974D01*
X53409Y-30974D02*
X53724Y-30974D01*
X54590Y-31328D02*
X54590Y-30974D01*
X54590Y-30974D02*
X54275Y-30974D01*
X54118Y-31525D02*
X53881Y-31525D01*
G54D13*
X66700Y-26700D02*
G75*
G03X66700Y-26700I-50J0D01*
G74*
G01*
X66200Y-26700D02*
X66600Y-26700D01*
X66600Y-26700D02*
X66600Y-27300D01*
X66600Y-27300D02*
X66200Y-27300D01*
X65800Y-27300D02*
X65400Y-27300D01*
X65400Y-27300D02*
X65400Y-26700D01*
X65400Y-26700D02*
X65800Y-26700D01*
X66700Y-25700D02*
G75*
G03X66700Y-25700I-50J0D01*
G74*
G01*
X66200Y-25700D02*
X66600Y-25700D01*
X66600Y-25700D02*
X66600Y-26300D01*
X66600Y-26300D02*
X66200Y-26300D01*
X65800Y-26300D02*
X65400Y-26300D01*
X65400Y-26300D02*
X65400Y-25700D01*
X65400Y-25700D02*
X65800Y-25700D01*
X58700Y-26700D02*
G75*
G03X58700Y-26700I-50J0D01*
G74*
G01*
X58200Y-26700D02*
X58600Y-26700D01*
X58600Y-26700D02*
X58600Y-27300D01*
X58600Y-27300D02*
X58200Y-27300D01*
X57800Y-27300D02*
X57400Y-27300D01*
X57400Y-27300D02*
X57400Y-26700D01*
X57400Y-26700D02*
X57800Y-26700D01*
X58700Y-25700D02*
G75*
G03X58700Y-25700I-50J0D01*
G74*
G01*
X58200Y-25700D02*
X58600Y-25700D01*
X58600Y-25700D02*
X58600Y-26300D01*
X58600Y-26300D02*
X58200Y-26300D01*
X57800Y-26300D02*
X57400Y-26300D01*
X57400Y-26300D02*
X57400Y-25700D01*
X57400Y-25700D02*
X57800Y-25700D01*
X61700Y-26700D02*
G75*
G03X61700Y-26700I-50J0D01*
G74*
G01*
X61200Y-26700D02*
X61600Y-26700D01*
X61600Y-26700D02*
X61600Y-27300D01*
X61600Y-27300D02*
X61200Y-27300D01*
X60800Y-27300D02*
X60400Y-27300D01*
X60400Y-27300D02*
X60400Y-26700D01*
X60400Y-26700D02*
X60800Y-26700D01*
X61700Y-25700D02*
G75*
G03X61700Y-25700I-50J0D01*
G74*
G01*
X61200Y-25700D02*
X61600Y-25700D01*
X61600Y-25700D02*
X61600Y-26300D01*
X61600Y-26300D02*
X61200Y-26300D01*
X60800Y-26300D02*
X60400Y-26300D01*
X60400Y-26300D02*
X60400Y-25700D01*
X60400Y-25700D02*
X60800Y-25700D01*
X53700Y-26700D02*
G75*
G03X53700Y-26700I-50J0D01*
G74*
G01*
X53200Y-26700D02*
X53600Y-26700D01*
X53600Y-26700D02*
X53600Y-27300D01*
X53600Y-27300D02*
X53200Y-27300D01*
X52800Y-27300D02*
X52400Y-27300D01*
X52400Y-27300D02*
X52400Y-26700D01*
X52400Y-26700D02*
X52800Y-26700D01*
X53700Y-25700D02*
G75*
G03X53700Y-25700I-50J0D01*
G74*
G01*
X53200Y-25700D02*
X53600Y-25700D01*
X53600Y-25700D02*
X53600Y-26300D01*
X53600Y-26300D02*
X53200Y-26300D01*
X52800Y-26300D02*
X52400Y-26300D01*
X52400Y-26300D02*
X52400Y-25700D01*
X52400Y-25700D02*
X52800Y-25700D01*
X67850Y-31900D02*
G75*
G03X67850Y-31900I-50J0D01*
G74*
G01*
X67800Y-31450D02*
X67800Y-31850D01*
X67800Y-31850D02*
X67200Y-31850D01*
X67200Y-31850D02*
X67200Y-31450D01*
X67200Y-31050D02*
X67200Y-30650D01*
X67200Y-30650D02*
X67800Y-30650D01*
X67800Y-30650D02*
X67800Y-31050D01*
X63850Y-31900D02*
G75*
G03X63850Y-31900I-50J0D01*
G74*
G01*
X63800Y-31450D02*
X63800Y-31850D01*
X63800Y-31850D02*
X63200Y-31850D01*
X63200Y-31850D02*
X63200Y-31450D01*
X63200Y-31050D02*
X63200Y-30650D01*
X63200Y-30650D02*
X63800Y-30650D01*
X63800Y-30650D02*
X63800Y-31050D01*
X59850Y-31900D02*
G75*
G03X59850Y-31900I-50J0D01*
G74*
G01*
X59800Y-31450D02*
X59800Y-31850D01*
X59800Y-31850D02*
X59200Y-31850D01*
X59200Y-31850D02*
X59200Y-31450D01*
X59200Y-31050D02*
X59200Y-30650D01*
X59200Y-30650D02*
X59800Y-30650D01*
X59800Y-30650D02*
X59800Y-31050D01*
X55850Y-31900D02*
G75*
G03X55850Y-31900I-50J0D01*
G74*
G01*
X55800Y-31450D02*
X55800Y-31850D01*
X55800Y-31850D02*
X55200Y-31850D01*
X55200Y-31850D02*
X55200Y-31450D01*
X55200Y-31050D02*
X55200Y-30650D01*
X55200Y-30650D02*
X55800Y-30650D01*
X55800Y-30650D02*
X55800Y-31050D01*
X64250Y-30600D02*
G75*
G03X64250Y-30600I-50J0D01*
G74*
G01*
X64200Y-31050D02*
X64200Y-30650D01*
X64200Y-30650D02*
X64800Y-30650D01*
X64800Y-30650D02*
X64800Y-31050D01*
X64800Y-31450D02*
X64800Y-31850D01*
X64800Y-31850D02*
X64200Y-31850D01*
X64200Y-31850D02*
X64200Y-31450D01*
X60250Y-30600D02*
G75*
G03X60250Y-30600I-50J0D01*
G74*
G01*
X60200Y-31050D02*
X60200Y-30650D01*
X60200Y-30650D02*
X60800Y-30650D01*
X60800Y-30650D02*
X60800Y-31050D01*
X60800Y-31450D02*
X60800Y-31850D01*
X60800Y-31850D02*
X60200Y-31850D01*
X60200Y-31850D02*
X60200Y-31450D01*
X56250Y-30600D02*
G75*
G03X56250Y-30600I-50J0D01*
G74*
G01*
X56200Y-31050D02*
X56200Y-30650D01*
X56200Y-30650D02*
X56800Y-30650D01*
X56800Y-30650D02*
X56800Y-31050D01*
X56800Y-31450D02*
X56800Y-31850D01*
X56800Y-31850D02*
X56200Y-31850D01*
X56200Y-31850D02*
X56200Y-31450D01*
X52250Y-30600D02*
G75*
G03X52250Y-30600I-50J0D01*
G74*
G01*
X52200Y-31050D02*
X52200Y-30650D01*
X52200Y-30650D02*
X52800Y-30650D01*
X52800Y-30650D02*
X52800Y-31050D01*
X52800Y-31450D02*
X52800Y-31850D01*
X52800Y-31850D02*
X52200Y-31850D01*
X52200Y-31850D02*
X52200Y-31450D01*
X65700Y-32200D02*
G75*
G03X65700Y-32200I-50J0D01*
G74*
G01*
X65200Y-32200D02*
X65600Y-32200D01*
X65600Y-32200D02*
X65600Y-32800D01*
X65600Y-32800D02*
X65200Y-32800D01*
X64800Y-32800D02*
X64400Y-32800D01*
X64400Y-32800D02*
X64400Y-32200D01*
X64400Y-32200D02*
X64800Y-32200D01*
X61700Y-32200D02*
G75*
G03X61700Y-32200I-50J0D01*
G74*
G01*
X61200Y-32200D02*
X61600Y-32200D01*
X61600Y-32200D02*
X61600Y-32800D01*
X61600Y-32800D02*
X61200Y-32800D01*
X60800Y-32800D02*
X60400Y-32800D01*
X60400Y-32800D02*
X60400Y-32200D01*
X60400Y-32200D02*
X60800Y-32200D01*
X57700Y-32200D02*
G75*
G03X57700Y-32200I-50J0D01*
G74*
G01*
X57200Y-32200D02*
X57600Y-32200D01*
X57600Y-32200D02*
X57600Y-32800D01*
X57600Y-32800D02*
X57200Y-32800D01*
X56800Y-32800D02*
X56400Y-32800D01*
X56400Y-32800D02*
X56400Y-32200D01*
X56400Y-32200D02*
X56800Y-32200D01*
X53700Y-32200D02*
G75*
G03X53700Y-32200I-50J0D01*
G74*
G01*
X53200Y-32200D02*
X53600Y-32200D01*
X53600Y-32200D02*
X53600Y-32800D01*
X53600Y-32800D02*
X53200Y-32800D01*
X52800Y-32800D02*
X52400Y-32800D01*
X52400Y-32800D02*
X52400Y-32200D01*
X52400Y-32200D02*
X52800Y-32200D01*
G54D11*
X63736Y-29311D02*
X64208Y-29311D01*
X62791Y-29311D02*
X63263Y-29311D01*
X63736Y-29311D02*
G75*
G03X63500Y-29074I-236J0D01*
G74*
G01*
X63500Y-29074D02*
G75*
G03X63263Y-29311I0J-236D01*
G74*
G01*
X62791Y-29311D02*
X62791Y-25688D01*
X62791Y-25688D02*
X64208Y-25688D01*
X64208Y-25688D02*
X64208Y-29311D01*
X55736Y-29311D02*
X56208Y-29311D01*
X54791Y-29311D02*
X55263Y-29311D01*
X55736Y-29311D02*
G75*
G03X55500Y-29074I-236J0D01*
G74*
G01*
X55500Y-29074D02*
G75*
G03X55263Y-29311I0J-236D01*
G74*
G01*
X54791Y-29311D02*
X54791Y-25688D01*
X54791Y-25688D02*
X56208Y-25688D01*
X56208Y-25688D02*
X56208Y-29311D01*
G54D12*
X53567Y-30070D02*
X53557Y-30079D01*
X53529Y-30089D01*
X53510Y-30089D01*
X53482Y-30079D01*
X53463Y-30060D01*
X53454Y-30042D01*
X53445Y-30004D01*
X53445Y-29976D01*
X53454Y-29939D01*
X53463Y-29920D01*
X53482Y-29901D01*
X53510Y-29892D01*
X53529Y-29892D01*
X53557Y-29901D01*
X53567Y-29910D01*
X53754Y-30089D02*
X53642Y-30089D01*
X53698Y-30089D02*
X53698Y-29892D01*
X53679Y-29920D01*
X53660Y-29939D01*
X53642Y-29948D01*
X61567Y-29970D02*
X61557Y-29979D01*
X61529Y-29989D01*
X61510Y-29989D01*
X61482Y-29979D01*
X61463Y-29960D01*
X61454Y-29942D01*
X61445Y-29904D01*
X61445Y-29876D01*
X61454Y-29839D01*
X61463Y-29820D01*
X61482Y-29801D01*
X61510Y-29792D01*
X61529Y-29792D01*
X61557Y-29801D01*
X61567Y-29810D01*
X61632Y-29792D02*
X61754Y-29792D01*
X61689Y-29867D01*
X61717Y-29867D01*
X61736Y-29876D01*
X61745Y-29885D01*
X61754Y-29904D01*
X61754Y-29951D01*
X61745Y-29970D01*
X61736Y-29979D01*
X61717Y-29989D01*
X61660Y-29989D01*
X61642Y-29979D01*
X61632Y-29970D01*
X66867Y-32070D02*
X66857Y-32079D01*
X66829Y-32089D01*
X66810Y-32089D01*
X66782Y-32079D01*
X66763Y-32060D01*
X66754Y-32042D01*
X66745Y-32004D01*
X66745Y-31976D01*
X66754Y-31939D01*
X66763Y-31920D01*
X66782Y-31901D01*
X66810Y-31892D01*
X66829Y-31892D01*
X66857Y-31901D01*
X66867Y-31910D01*
X67036Y-31957D02*
X67036Y-32089D01*
X66989Y-31882D02*
X66942Y-32023D01*
X67064Y-32023D01*
X62867Y-32070D02*
X62857Y-32079D01*
X62829Y-32089D01*
X62810Y-32089D01*
X62782Y-32079D01*
X62763Y-32060D01*
X62754Y-32042D01*
X62745Y-32004D01*
X62745Y-31976D01*
X62754Y-31939D01*
X62763Y-31920D01*
X62782Y-31901D01*
X62810Y-31892D01*
X62829Y-31892D01*
X62857Y-31901D01*
X62867Y-31910D01*
X63045Y-31892D02*
X62951Y-31892D01*
X62942Y-31985D01*
X62951Y-31976D01*
X62970Y-31967D01*
X63017Y-31967D01*
X63036Y-31976D01*
X63045Y-31985D01*
X63054Y-32004D01*
X63054Y-32051D01*
X63045Y-32070D01*
X63036Y-32079D01*
X63017Y-32089D01*
X62970Y-32089D01*
X62951Y-32079D01*
X62942Y-32070D01*
X58867Y-32070D02*
X58857Y-32079D01*
X58829Y-32089D01*
X58810Y-32089D01*
X58782Y-32079D01*
X58763Y-32060D01*
X58754Y-32042D01*
X58745Y-32004D01*
X58745Y-31976D01*
X58754Y-31939D01*
X58763Y-31920D01*
X58782Y-31901D01*
X58810Y-31892D01*
X58829Y-31892D01*
X58857Y-31901D01*
X58867Y-31910D01*
X59036Y-31892D02*
X58998Y-31892D01*
X58979Y-31901D01*
X58970Y-31910D01*
X58951Y-31939D01*
X58942Y-31976D01*
X58942Y-32051D01*
X58951Y-32070D01*
X58960Y-32079D01*
X58979Y-32089D01*
X59017Y-32089D01*
X59036Y-32079D01*
X59045Y-32070D01*
X59054Y-32051D01*
X59054Y-32004D01*
X59045Y-31985D01*
X59036Y-31976D01*
X59017Y-31967D01*
X58979Y-31967D01*
X58960Y-31976D01*
X58951Y-31985D01*
X58942Y-32004D01*
X54867Y-32070D02*
X54857Y-32079D01*
X54829Y-32089D01*
X54810Y-32089D01*
X54782Y-32079D01*
X54763Y-32060D01*
X54754Y-32042D01*
X54745Y-32004D01*
X54745Y-31976D01*
X54754Y-31939D01*
X54763Y-31920D01*
X54782Y-31901D01*
X54810Y-31892D01*
X54829Y-31892D01*
X54857Y-31901D01*
X54867Y-31910D01*
X54932Y-31892D02*
X55064Y-31892D01*
X54979Y-32089D01*
G54D13*
X66481Y-30707D02*
X66462Y-30698D01*
X66443Y-30679D01*
X66415Y-30651D01*
X66396Y-30642D01*
X66378Y-30642D01*
X66387Y-30689D02*
X66368Y-30679D01*
X66349Y-30660D01*
X66340Y-30623D01*
X66340Y-30557D01*
X66349Y-30520D01*
X66368Y-30501D01*
X66387Y-30492D01*
X66424Y-30492D01*
X66443Y-30501D01*
X66462Y-30520D01*
X66471Y-30557D01*
X66471Y-30623D01*
X66462Y-30660D01*
X66443Y-30679D01*
X66424Y-30689D01*
X66387Y-30689D01*
X66659Y-30689D02*
X66546Y-30689D01*
X66603Y-30689D02*
X66603Y-30492D01*
X66584Y-30520D01*
X66565Y-30539D01*
X66546Y-30548D01*
X62335Y-30885D02*
X62316Y-30876D01*
X62298Y-30857D01*
X62269Y-30829D01*
X62251Y-30819D01*
X62232Y-30819D01*
X62241Y-30866D02*
X62222Y-30857D01*
X62204Y-30838D01*
X62194Y-30801D01*
X62194Y-30735D01*
X62204Y-30697D01*
X62222Y-30679D01*
X62241Y-30669D01*
X62279Y-30669D01*
X62298Y-30679D01*
X62316Y-30697D01*
X62326Y-30735D01*
X62326Y-30801D01*
X62316Y-30838D01*
X62298Y-30857D01*
X62279Y-30866D01*
X62241Y-30866D01*
X62401Y-30688D02*
X62410Y-30679D01*
X62429Y-30669D01*
X62476Y-30669D01*
X62495Y-30679D01*
X62504Y-30688D01*
X62513Y-30707D01*
X62513Y-30725D01*
X62504Y-30754D01*
X62391Y-30866D01*
X62513Y-30866D01*
X58335Y-30885D02*
X58316Y-30876D01*
X58298Y-30857D01*
X58269Y-30829D01*
X58251Y-30819D01*
X58232Y-30819D01*
X58241Y-30866D02*
X58222Y-30857D01*
X58204Y-30838D01*
X58194Y-30801D01*
X58194Y-30735D01*
X58204Y-30697D01*
X58222Y-30679D01*
X58241Y-30669D01*
X58279Y-30669D01*
X58298Y-30679D01*
X58316Y-30697D01*
X58326Y-30735D01*
X58326Y-30801D01*
X58316Y-30838D01*
X58298Y-30857D01*
X58279Y-30866D01*
X58241Y-30866D01*
X58391Y-30669D02*
X58513Y-30669D01*
X58448Y-30744D01*
X58476Y-30744D01*
X58495Y-30754D01*
X58504Y-30763D01*
X58513Y-30782D01*
X58513Y-30829D01*
X58504Y-30847D01*
X58495Y-30857D01*
X58476Y-30866D01*
X58419Y-30866D01*
X58401Y-30857D01*
X58391Y-30847D01*
X53481Y-30707D02*
X53462Y-30698D01*
X53443Y-30679D01*
X53415Y-30651D01*
X53396Y-30642D01*
X53378Y-30642D01*
X53387Y-30689D02*
X53368Y-30679D01*
X53349Y-30660D01*
X53340Y-30623D01*
X53340Y-30557D01*
X53349Y-30520D01*
X53368Y-30501D01*
X53387Y-30492D01*
X53424Y-30492D01*
X53443Y-30501D01*
X53462Y-30520D01*
X53471Y-30557D01*
X53471Y-30623D01*
X53462Y-30660D01*
X53443Y-30679D01*
X53424Y-30689D01*
X53387Y-30689D01*
X53640Y-30557D02*
X53640Y-30689D01*
X53593Y-30482D02*
X53546Y-30623D01*
X53668Y-30623D01*
G54D12*
X66867Y-27289D02*
X66801Y-27195D01*
X66754Y-27289D02*
X66754Y-27092D01*
X66829Y-27092D01*
X66848Y-27101D01*
X66857Y-27110D01*
X66867Y-27129D01*
X66867Y-27157D01*
X66857Y-27176D01*
X66848Y-27185D01*
X66829Y-27195D01*
X66754Y-27195D01*
X67054Y-27289D02*
X66942Y-27289D01*
X66998Y-27289D02*
X66998Y-27092D01*
X66979Y-27120D01*
X66960Y-27139D01*
X66942Y-27148D01*
X66867Y-26289D02*
X66801Y-26195D01*
X66754Y-26289D02*
X66754Y-26092D01*
X66829Y-26092D01*
X66848Y-26101D01*
X66857Y-26110D01*
X66867Y-26129D01*
X66867Y-26157D01*
X66857Y-26176D01*
X66848Y-26185D01*
X66829Y-26195D01*
X66754Y-26195D01*
X66942Y-26110D02*
X66951Y-26101D01*
X66970Y-26092D01*
X67017Y-26092D01*
X67036Y-26101D01*
X67045Y-26110D01*
X67054Y-26129D01*
X67054Y-26148D01*
X67045Y-26176D01*
X66932Y-26289D01*
X67054Y-26289D01*
X58867Y-27089D02*
X58801Y-26995D01*
X58754Y-27089D02*
X58754Y-26892D01*
X58829Y-26892D01*
X58848Y-26901D01*
X58857Y-26910D01*
X58867Y-26929D01*
X58867Y-26957D01*
X58857Y-26976D01*
X58848Y-26985D01*
X58829Y-26995D01*
X58754Y-26995D01*
X59045Y-26892D02*
X58951Y-26892D01*
X58942Y-26985D01*
X58951Y-26976D01*
X58970Y-26967D01*
X59017Y-26967D01*
X59036Y-26976D01*
X59045Y-26985D01*
X59054Y-27004D01*
X59054Y-27051D01*
X59045Y-27070D01*
X59036Y-27079D01*
X59017Y-27089D01*
X58970Y-27089D01*
X58951Y-27079D01*
X58942Y-27070D01*
X58867Y-26289D02*
X58801Y-26195D01*
X58754Y-26289D02*
X58754Y-26092D01*
X58829Y-26092D01*
X58848Y-26101D01*
X58857Y-26110D01*
X58867Y-26129D01*
X58867Y-26157D01*
X58857Y-26176D01*
X58848Y-26185D01*
X58829Y-26195D01*
X58754Y-26195D01*
X59036Y-26092D02*
X58998Y-26092D01*
X58979Y-26101D01*
X58970Y-26110D01*
X58951Y-26139D01*
X58942Y-26176D01*
X58942Y-26251D01*
X58951Y-26270D01*
X58960Y-26279D01*
X58979Y-26289D01*
X59017Y-26289D01*
X59036Y-26279D01*
X59045Y-26270D01*
X59054Y-26251D01*
X59054Y-26204D01*
X59045Y-26185D01*
X59036Y-26176D01*
X59017Y-26167D01*
X58979Y-26167D01*
X58960Y-26176D01*
X58951Y-26185D01*
X58942Y-26204D01*
X60067Y-27089D02*
X60001Y-26995D01*
X59954Y-27089D02*
X59954Y-26892D01*
X60029Y-26892D01*
X60048Y-26901D01*
X60057Y-26910D01*
X60067Y-26929D01*
X60067Y-26957D01*
X60057Y-26976D01*
X60048Y-26985D01*
X60029Y-26995D01*
X59954Y-26995D01*
X60132Y-26892D02*
X60264Y-26892D01*
X60179Y-27089D01*
X60067Y-26289D02*
X60001Y-26195D01*
X59954Y-26289D02*
X59954Y-26092D01*
X60029Y-26092D01*
X60048Y-26101D01*
X60057Y-26110D01*
X60067Y-26129D01*
X60067Y-26157D01*
X60057Y-26176D01*
X60048Y-26185D01*
X60029Y-26195D01*
X59954Y-26195D01*
X60179Y-26176D02*
X60160Y-26167D01*
X60151Y-26157D01*
X60142Y-26139D01*
X60142Y-26129D01*
X60151Y-26110D01*
X60160Y-26101D01*
X60179Y-26092D01*
X60217Y-26092D01*
X60236Y-26101D01*
X60245Y-26110D01*
X60254Y-26129D01*
X60254Y-26139D01*
X60245Y-26157D01*
X60236Y-26167D01*
X60217Y-26176D01*
X60179Y-26176D01*
X60160Y-26185D01*
X60151Y-26195D01*
X60142Y-26214D01*
X60142Y-26251D01*
X60151Y-26270D01*
X60160Y-26279D01*
X60179Y-26289D01*
X60217Y-26289D01*
X60236Y-26279D01*
X60245Y-26270D01*
X60254Y-26251D01*
X60254Y-26214D01*
X60245Y-26195D01*
X60236Y-26185D01*
X60217Y-26176D01*
X51873Y-27089D02*
X51807Y-26995D01*
X51760Y-27089D02*
X51760Y-26892D01*
X51835Y-26892D01*
X51854Y-26901D01*
X51863Y-26910D01*
X51873Y-26929D01*
X51873Y-26957D01*
X51863Y-26976D01*
X51854Y-26985D01*
X51835Y-26995D01*
X51760Y-26995D01*
X52060Y-27089D02*
X51948Y-27089D01*
X52004Y-27089D02*
X52004Y-26892D01*
X51985Y-26920D01*
X51967Y-26939D01*
X51948Y-26948D01*
X52248Y-27089D02*
X52136Y-27089D01*
X52192Y-27089D02*
X52192Y-26892D01*
X52173Y-26920D01*
X52154Y-26939D01*
X52136Y-26948D01*
X51873Y-26089D02*
X51807Y-25995D01*
X51760Y-26089D02*
X51760Y-25892D01*
X51835Y-25892D01*
X51854Y-25901D01*
X51863Y-25910D01*
X51873Y-25929D01*
X51873Y-25957D01*
X51863Y-25976D01*
X51854Y-25985D01*
X51835Y-25995D01*
X51760Y-25995D01*
X52060Y-26089D02*
X51948Y-26089D01*
X52004Y-26089D02*
X52004Y-25892D01*
X51985Y-25920D01*
X51967Y-25939D01*
X51948Y-25948D01*
X52136Y-25910D02*
X52145Y-25901D01*
X52164Y-25892D01*
X52211Y-25892D01*
X52229Y-25901D01*
X52239Y-25910D01*
X52248Y-25929D01*
X52248Y-25948D01*
X52239Y-25976D01*
X52126Y-26089D01*
X52248Y-26089D01*
X67373Y-30489D02*
X67307Y-30395D01*
X67260Y-30489D02*
X67260Y-30292D01*
X67335Y-30292D01*
X67354Y-30301D01*
X67363Y-30310D01*
X67373Y-30329D01*
X67373Y-30357D01*
X67363Y-30376D01*
X67354Y-30385D01*
X67335Y-30395D01*
X67260Y-30395D01*
X67560Y-30489D02*
X67448Y-30489D01*
X67504Y-30489D02*
X67504Y-30292D01*
X67485Y-30320D01*
X67467Y-30339D01*
X67448Y-30348D01*
X67626Y-30292D02*
X67748Y-30292D01*
X67682Y-30367D01*
X67711Y-30367D01*
X67729Y-30376D01*
X67739Y-30385D01*
X67748Y-30404D01*
X67748Y-30451D01*
X67739Y-30470D01*
X67729Y-30479D01*
X67711Y-30489D01*
X67654Y-30489D01*
X67636Y-30479D01*
X67626Y-30470D01*
X63373Y-30589D02*
X63307Y-30495D01*
X63260Y-30589D02*
X63260Y-30392D01*
X63335Y-30392D01*
X63354Y-30401D01*
X63363Y-30410D01*
X63373Y-30429D01*
X63373Y-30457D01*
X63363Y-30476D01*
X63354Y-30485D01*
X63335Y-30495D01*
X63260Y-30495D01*
X63560Y-30589D02*
X63448Y-30589D01*
X63504Y-30589D02*
X63504Y-30392D01*
X63485Y-30420D01*
X63467Y-30439D01*
X63448Y-30448D01*
X63729Y-30457D02*
X63729Y-30589D01*
X63682Y-30382D02*
X63636Y-30523D01*
X63757Y-30523D01*
X59373Y-30589D02*
X59307Y-30495D01*
X59260Y-30589D02*
X59260Y-30392D01*
X59335Y-30392D01*
X59354Y-30401D01*
X59363Y-30410D01*
X59373Y-30429D01*
X59373Y-30457D01*
X59363Y-30476D01*
X59354Y-30485D01*
X59335Y-30495D01*
X59260Y-30495D01*
X59560Y-30589D02*
X59448Y-30589D01*
X59504Y-30589D02*
X59504Y-30392D01*
X59485Y-30420D01*
X59467Y-30439D01*
X59448Y-30448D01*
X59739Y-30392D02*
X59645Y-30392D01*
X59636Y-30485D01*
X59645Y-30476D01*
X59664Y-30467D01*
X59711Y-30467D01*
X59729Y-30476D01*
X59739Y-30485D01*
X59748Y-30504D01*
X59748Y-30551D01*
X59739Y-30570D01*
X59729Y-30579D01*
X59711Y-30589D01*
X59664Y-30589D01*
X59645Y-30579D01*
X59636Y-30570D01*
X55373Y-30589D02*
X55307Y-30495D01*
X55260Y-30589D02*
X55260Y-30392D01*
X55335Y-30392D01*
X55354Y-30401D01*
X55363Y-30410D01*
X55373Y-30429D01*
X55373Y-30457D01*
X55363Y-30476D01*
X55354Y-30485D01*
X55335Y-30495D01*
X55260Y-30495D01*
X55560Y-30589D02*
X55448Y-30589D01*
X55504Y-30589D02*
X55504Y-30392D01*
X55485Y-30420D01*
X55467Y-30439D01*
X55448Y-30448D01*
X55729Y-30392D02*
X55692Y-30392D01*
X55673Y-30401D01*
X55664Y-30410D01*
X55645Y-30439D01*
X55636Y-30476D01*
X55636Y-30551D01*
X55645Y-30570D01*
X55654Y-30579D01*
X55673Y-30589D01*
X55711Y-30589D01*
X55729Y-30579D01*
X55739Y-30570D01*
X55748Y-30551D01*
X55748Y-30504D01*
X55739Y-30485D01*
X55729Y-30476D01*
X55711Y-30467D01*
X55673Y-30467D01*
X55654Y-30476D01*
X55645Y-30485D01*
X55636Y-30504D01*
X65073Y-30789D02*
X65007Y-30695D01*
X64960Y-30789D02*
X64960Y-30592D01*
X65035Y-30592D01*
X65054Y-30601D01*
X65063Y-30610D01*
X65073Y-30629D01*
X65073Y-30657D01*
X65063Y-30676D01*
X65054Y-30685D01*
X65035Y-30695D01*
X64960Y-30695D01*
X65260Y-30789D02*
X65148Y-30789D01*
X65204Y-30789D02*
X65204Y-30592D01*
X65185Y-30620D01*
X65167Y-30639D01*
X65148Y-30648D01*
X65326Y-30592D02*
X65457Y-30592D01*
X65373Y-30789D01*
X60373Y-30589D02*
X60307Y-30495D01*
X60260Y-30589D02*
X60260Y-30392D01*
X60335Y-30392D01*
X60354Y-30401D01*
X60363Y-30410D01*
X60373Y-30429D01*
X60373Y-30457D01*
X60363Y-30476D01*
X60354Y-30485D01*
X60335Y-30495D01*
X60260Y-30495D01*
X60560Y-30589D02*
X60448Y-30589D01*
X60504Y-30589D02*
X60504Y-30392D01*
X60485Y-30420D01*
X60467Y-30439D01*
X60448Y-30448D01*
X60673Y-30476D02*
X60654Y-30467D01*
X60645Y-30457D01*
X60636Y-30439D01*
X60636Y-30429D01*
X60645Y-30410D01*
X60654Y-30401D01*
X60673Y-30392D01*
X60711Y-30392D01*
X60729Y-30401D01*
X60739Y-30410D01*
X60748Y-30429D01*
X60748Y-30439D01*
X60739Y-30457D01*
X60729Y-30467D01*
X60711Y-30476D01*
X60673Y-30476D01*
X60654Y-30485D01*
X60645Y-30495D01*
X60636Y-30514D01*
X60636Y-30551D01*
X60645Y-30570D01*
X60654Y-30579D01*
X60673Y-30589D01*
X60711Y-30589D01*
X60729Y-30579D01*
X60739Y-30570D01*
X60748Y-30551D01*
X60748Y-30514D01*
X60739Y-30495D01*
X60729Y-30485D01*
X60711Y-30476D01*
X57073Y-30789D02*
X57007Y-30695D01*
X56960Y-30789D02*
X56960Y-30592D01*
X57035Y-30592D01*
X57054Y-30601D01*
X57063Y-30610D01*
X57073Y-30629D01*
X57073Y-30657D01*
X57063Y-30676D01*
X57054Y-30685D01*
X57035Y-30695D01*
X56960Y-30695D01*
X57260Y-30789D02*
X57148Y-30789D01*
X57204Y-30789D02*
X57204Y-30592D01*
X57185Y-30620D01*
X57167Y-30639D01*
X57148Y-30648D01*
X57354Y-30789D02*
X57392Y-30789D01*
X57411Y-30779D01*
X57420Y-30770D01*
X57439Y-30742D01*
X57448Y-30704D01*
X57448Y-30629D01*
X57439Y-30610D01*
X57429Y-30601D01*
X57411Y-30592D01*
X57373Y-30592D01*
X57354Y-30601D01*
X57345Y-30610D01*
X57336Y-30629D01*
X57336Y-30676D01*
X57345Y-30695D01*
X57354Y-30704D01*
X57373Y-30714D01*
X57411Y-30714D01*
X57429Y-30704D01*
X57439Y-30695D01*
X57448Y-30676D01*
X51673Y-30989D02*
X51607Y-30895D01*
X51560Y-30989D02*
X51560Y-30792D01*
X51635Y-30792D01*
X51654Y-30801D01*
X51663Y-30810D01*
X51673Y-30829D01*
X51673Y-30857D01*
X51663Y-30876D01*
X51654Y-30885D01*
X51635Y-30895D01*
X51560Y-30895D01*
X51748Y-30810D02*
X51757Y-30801D01*
X51776Y-30792D01*
X51823Y-30792D01*
X51842Y-30801D01*
X51851Y-30810D01*
X51860Y-30829D01*
X51860Y-30848D01*
X51851Y-30876D01*
X51739Y-30989D01*
X51860Y-30989D01*
X51982Y-30792D02*
X52001Y-30792D01*
X52020Y-30801D01*
X52029Y-30810D01*
X52039Y-30829D01*
X52048Y-30867D01*
X52048Y-30914D01*
X52039Y-30951D01*
X52029Y-30970D01*
X52020Y-30979D01*
X52001Y-30989D01*
X51982Y-30989D01*
X51964Y-30979D01*
X51954Y-30970D01*
X51945Y-30951D01*
X51936Y-30914D01*
X51936Y-30867D01*
X51945Y-30829D01*
X51954Y-30810D01*
X51964Y-30801D01*
X51982Y-30792D01*
X65073Y-32089D02*
X65007Y-31995D01*
X64960Y-32089D02*
X64960Y-31892D01*
X65035Y-31892D01*
X65054Y-31901D01*
X65063Y-31910D01*
X65073Y-31929D01*
X65073Y-31957D01*
X65063Y-31976D01*
X65054Y-31985D01*
X65035Y-31995D01*
X64960Y-31995D01*
X65148Y-31910D02*
X65157Y-31901D01*
X65176Y-31892D01*
X65223Y-31892D01*
X65242Y-31901D01*
X65251Y-31910D01*
X65260Y-31929D01*
X65260Y-31948D01*
X65251Y-31976D01*
X65139Y-32089D01*
X65260Y-32089D01*
X65448Y-32089D02*
X65336Y-32089D01*
X65392Y-32089D02*
X65392Y-31892D01*
X65373Y-31920D01*
X65354Y-31939D01*
X65336Y-31948D01*
X60973Y-32089D02*
X60907Y-31995D01*
X60860Y-32089D02*
X60860Y-31892D01*
X60935Y-31892D01*
X60954Y-31901D01*
X60963Y-31910D01*
X60973Y-31929D01*
X60973Y-31957D01*
X60963Y-31976D01*
X60954Y-31985D01*
X60935Y-31995D01*
X60860Y-31995D01*
X61048Y-31910D02*
X61057Y-31901D01*
X61076Y-31892D01*
X61123Y-31892D01*
X61142Y-31901D01*
X61151Y-31910D01*
X61160Y-31929D01*
X61160Y-31948D01*
X61151Y-31976D01*
X61039Y-32089D01*
X61160Y-32089D01*
X61236Y-31910D02*
X61245Y-31901D01*
X61264Y-31892D01*
X61311Y-31892D01*
X61329Y-31901D01*
X61339Y-31910D01*
X61348Y-31929D01*
X61348Y-31948D01*
X61339Y-31976D01*
X61226Y-32089D01*
X61348Y-32089D01*
X56973Y-32089D02*
X56907Y-31995D01*
X56860Y-32089D02*
X56860Y-31892D01*
X56935Y-31892D01*
X56954Y-31901D01*
X56963Y-31910D01*
X56973Y-31929D01*
X56973Y-31957D01*
X56963Y-31976D01*
X56954Y-31985D01*
X56935Y-31995D01*
X56860Y-31995D01*
X57048Y-31910D02*
X57057Y-31901D01*
X57076Y-31892D01*
X57123Y-31892D01*
X57142Y-31901D01*
X57151Y-31910D01*
X57160Y-31929D01*
X57160Y-31948D01*
X57151Y-31976D01*
X57039Y-32089D01*
X57160Y-32089D01*
X57226Y-31892D02*
X57348Y-31892D01*
X57282Y-31967D01*
X57311Y-31967D01*
X57329Y-31976D01*
X57339Y-31985D01*
X57348Y-32004D01*
X57348Y-32051D01*
X57339Y-32070D01*
X57329Y-32079D01*
X57311Y-32089D01*
X57254Y-32089D01*
X57236Y-32079D01*
X57226Y-32070D01*
X51873Y-32589D02*
X51807Y-32495D01*
X51760Y-32589D02*
X51760Y-32392D01*
X51835Y-32392D01*
X51854Y-32401D01*
X51863Y-32410D01*
X51873Y-32429D01*
X51873Y-32457D01*
X51863Y-32476D01*
X51854Y-32485D01*
X51835Y-32495D01*
X51760Y-32495D01*
X51948Y-32410D02*
X51957Y-32401D01*
X51976Y-32392D01*
X52023Y-32392D01*
X52042Y-32401D01*
X52051Y-32410D01*
X52060Y-32429D01*
X52060Y-32448D01*
X52051Y-32476D01*
X51939Y-32589D01*
X52060Y-32589D01*
X52229Y-32457D02*
X52229Y-32589D01*
X52182Y-32382D02*
X52136Y-32523D01*
X52257Y-32523D01*
G54D15*
X63200Y-25184D02*
X63200Y-25503D01*
X63218Y-25540D01*
X63237Y-25559D01*
X63275Y-25578D01*
X63350Y-25578D01*
X63387Y-25559D01*
X63406Y-25540D01*
X63425Y-25503D01*
X63425Y-25184D01*
X63818Y-25578D02*
X63593Y-25578D01*
X63706Y-25578D02*
X63706Y-25184D01*
X63668Y-25240D01*
X63631Y-25278D01*
X63593Y-25296D01*
X55200Y-25184D02*
X55200Y-25503D01*
X55218Y-25540D01*
X55237Y-25559D01*
X55275Y-25578D01*
X55350Y-25578D01*
X55387Y-25559D01*
X55406Y-25540D01*
X55425Y-25503D01*
X55425Y-25184D01*
X55574Y-25184D02*
X55818Y-25184D01*
X55687Y-25334D01*
X55743Y-25334D01*
X55781Y-25353D01*
X55799Y-25371D01*
X55818Y-25409D01*
X55818Y-25503D01*
X55799Y-25540D01*
X55781Y-25559D01*
X55743Y-25578D01*
X55631Y-25578D01*
X55593Y-25559D01*
X55574Y-25540D01*
M02*
