G04 (created by PCBNEW (2013-07-07 BZR 4022)-stable) date 27/12/2013 08:41:32*
%MOIN*%
G04 Gerber Fmt 3.4, Leading zero omitted, Abs format*
%FSLAX34Y34*%
G01*
G70*
G90*
G04 APERTURE LIST*
%ADD10C,0.00590551*%
%ADD11C,0.00984252*%
%ADD12C,0.0001*%
G04 APERTURE END LIST*
G54D10*
G54D11*
X82230Y-63309D02*
X82230Y-63046D01*
X82230Y-63121D02*
X82211Y-63084D01*
X82193Y-63065D01*
X82155Y-63046D01*
X82118Y-63046D01*
X81818Y-63046D02*
X81818Y-63309D01*
X81987Y-63046D02*
X81987Y-63253D01*
X81968Y-63290D01*
X81930Y-63309D01*
X81874Y-63309D01*
X81837Y-63290D01*
X81818Y-63271D01*
X81649Y-63290D02*
X81612Y-63309D01*
X81537Y-63309D01*
X81499Y-63290D01*
X81480Y-63253D01*
X81480Y-63234D01*
X81499Y-63196D01*
X81537Y-63178D01*
X81593Y-63178D01*
X81630Y-63159D01*
X81649Y-63121D01*
X81649Y-63103D01*
X81630Y-63065D01*
X81593Y-63046D01*
X81537Y-63046D01*
X81499Y-63065D01*
X81312Y-63103D02*
X81180Y-63103D01*
X81124Y-63309D02*
X81312Y-63309D01*
X81312Y-62915D01*
X81124Y-62915D01*
X81012Y-63046D02*
X80862Y-63046D01*
X80955Y-63309D02*
X80955Y-62971D01*
X80937Y-62934D01*
X80899Y-62915D01*
X80862Y-62915D01*
X80730Y-63309D02*
X80730Y-63046D01*
X80730Y-62915D02*
X80749Y-62934D01*
X80730Y-62953D01*
X80712Y-62934D01*
X80730Y-62915D01*
X80730Y-62953D01*
X80543Y-63271D02*
X80524Y-63290D01*
X80543Y-63309D01*
X80562Y-63290D01*
X80543Y-63271D01*
X80543Y-63309D01*
X80187Y-63290D02*
X80224Y-63309D01*
X80299Y-63309D01*
X80337Y-63290D01*
X80355Y-63271D01*
X80374Y-63234D01*
X80374Y-63121D01*
X80355Y-63084D01*
X80337Y-63065D01*
X80299Y-63046D01*
X80224Y-63046D01*
X80187Y-63065D01*
X79962Y-63309D02*
X79999Y-63290D01*
X80018Y-63271D01*
X80037Y-63234D01*
X80037Y-63121D01*
X80018Y-63084D01*
X79999Y-63065D01*
X79962Y-63046D01*
X79906Y-63046D01*
X79868Y-63065D01*
X79849Y-63084D01*
X79831Y-63121D01*
X79831Y-63234D01*
X79849Y-63271D01*
X79868Y-63290D01*
X79906Y-63309D01*
X79962Y-63309D01*
X79662Y-63309D02*
X79662Y-63046D01*
X79662Y-63084D02*
X79643Y-63065D01*
X79606Y-63046D01*
X79549Y-63046D01*
X79512Y-63065D01*
X79493Y-63103D01*
X79493Y-63309D01*
X79493Y-63103D02*
X79474Y-63065D01*
X79437Y-63046D01*
X79381Y-63046D01*
X79343Y-63065D01*
X79324Y-63103D01*
X79324Y-63309D01*
X78837Y-62915D02*
X78837Y-63234D01*
X78818Y-63271D01*
X78799Y-63290D01*
X78762Y-63309D01*
X78687Y-63309D01*
X78649Y-63290D01*
X78631Y-63271D01*
X78612Y-63234D01*
X78612Y-62915D01*
X78443Y-63290D02*
X78387Y-63309D01*
X78293Y-63309D01*
X78256Y-63290D01*
X78237Y-63271D01*
X78218Y-63234D01*
X78218Y-63196D01*
X78237Y-63159D01*
X78256Y-63140D01*
X78293Y-63121D01*
X78368Y-63103D01*
X78406Y-63084D01*
X78424Y-63065D01*
X78443Y-63028D01*
X78443Y-62990D01*
X78424Y-62953D01*
X78406Y-62934D01*
X78368Y-62915D01*
X78274Y-62915D01*
X78218Y-62934D01*
X77918Y-63103D02*
X77862Y-63121D01*
X77843Y-63140D01*
X77825Y-63178D01*
X77825Y-63234D01*
X77843Y-63271D01*
X77862Y-63290D01*
X77900Y-63309D01*
X78050Y-63309D01*
X78050Y-62915D01*
X77918Y-62915D01*
X77881Y-62934D01*
X77862Y-62953D01*
X77843Y-62990D01*
X77843Y-63028D01*
X77862Y-63065D01*
X77881Y-63084D01*
X77918Y-63103D01*
X78050Y-63103D01*
X77656Y-63159D02*
X77356Y-63159D01*
X77506Y-63309D02*
X77506Y-63009D01*
X77187Y-63290D02*
X77131Y-63309D01*
X77037Y-63309D01*
X77000Y-63290D01*
X76981Y-63271D01*
X76962Y-63234D01*
X76962Y-63196D01*
X76981Y-63159D01*
X77000Y-63140D01*
X77037Y-63121D01*
X77112Y-63103D01*
X77150Y-63084D01*
X77168Y-63065D01*
X77187Y-63028D01*
X77187Y-62990D01*
X77168Y-62953D01*
X77150Y-62934D01*
X77112Y-62915D01*
X77018Y-62915D01*
X76962Y-62934D01*
X76793Y-63309D02*
X76793Y-62915D01*
X76700Y-62915D01*
X76643Y-62934D01*
X76606Y-62971D01*
X76587Y-63009D01*
X76568Y-63084D01*
X76568Y-63140D01*
X76587Y-63215D01*
X76606Y-63253D01*
X76643Y-63290D01*
X76700Y-63309D01*
X76793Y-63309D01*
X76137Y-63046D02*
X76044Y-63309D01*
X75950Y-63046D01*
X75650Y-63290D02*
X75687Y-63309D01*
X75762Y-63309D01*
X75800Y-63290D01*
X75819Y-63253D01*
X75819Y-63103D01*
X75800Y-63065D01*
X75762Y-63046D01*
X75687Y-63046D01*
X75650Y-63065D01*
X75631Y-63103D01*
X75631Y-63140D01*
X75819Y-63178D01*
X75462Y-63309D02*
X75462Y-63046D01*
X75462Y-63121D02*
X75444Y-63084D01*
X75425Y-63065D01*
X75387Y-63046D01*
X75350Y-63046D01*
X74844Y-62915D02*
X74806Y-62915D01*
X74769Y-62934D01*
X74750Y-62953D01*
X74731Y-62990D01*
X74712Y-63065D01*
X74712Y-63159D01*
X74731Y-63234D01*
X74750Y-63271D01*
X74769Y-63290D01*
X74806Y-63309D01*
X74844Y-63309D01*
X74881Y-63290D01*
X74900Y-63271D01*
X74919Y-63234D01*
X74937Y-63159D01*
X74937Y-63065D01*
X74919Y-62990D01*
X74900Y-62953D01*
X74881Y-62934D01*
X74844Y-62915D01*
X74544Y-63271D02*
X74525Y-63290D01*
X74544Y-63309D01*
X74562Y-63290D01*
X74544Y-63271D01*
X74544Y-63309D01*
X74150Y-63309D02*
X74375Y-63309D01*
X74262Y-63309D02*
X74262Y-62915D01*
X74300Y-62971D01*
X74337Y-63009D01*
X74375Y-63028D01*
G54D12*
G36*
X80667Y-65183D02*
X80665Y-65350D01*
X80659Y-65469D01*
X80644Y-65558D01*
X80619Y-65635D01*
X80579Y-65720D01*
X80574Y-65730D01*
X80500Y-65846D01*
X80500Y-65667D01*
X80451Y-65635D01*
X80436Y-65633D01*
X80408Y-65600D01*
X80374Y-65502D01*
X80335Y-65338D01*
X80319Y-65258D01*
X80288Y-65103D01*
X80261Y-64968D01*
X80240Y-64869D01*
X80229Y-64825D01*
X80235Y-64776D01*
X80264Y-64767D01*
X80310Y-64741D01*
X80317Y-64717D01*
X80306Y-64694D01*
X80268Y-64680D01*
X80192Y-64671D01*
X80068Y-64667D01*
X79939Y-64667D01*
X79561Y-64667D01*
X79576Y-64767D01*
X79599Y-64837D01*
X79635Y-64866D01*
X79636Y-64867D01*
X79666Y-64843D01*
X79662Y-64816D01*
X79662Y-64788D01*
X79700Y-64773D01*
X79786Y-64767D01*
X79841Y-64767D01*
X80039Y-64767D01*
X80072Y-64950D01*
X80105Y-65133D01*
X79977Y-65133D01*
X79896Y-65125D01*
X79852Y-65106D01*
X79850Y-65100D01*
X79823Y-65070D01*
X79804Y-65067D01*
X79775Y-65085D01*
X79776Y-65150D01*
X79780Y-65172D01*
X79805Y-65240D01*
X79839Y-65288D01*
X79870Y-65302D01*
X79883Y-65270D01*
X79883Y-65269D01*
X79913Y-65246D01*
X79986Y-65234D01*
X80014Y-65233D01*
X80145Y-65233D01*
X80168Y-65418D01*
X80178Y-65522D01*
X80178Y-65598D01*
X80173Y-65621D01*
X80125Y-65633D01*
X80043Y-65627D01*
X79949Y-65609D01*
X79867Y-65584D01*
X79820Y-65556D01*
X79817Y-65547D01*
X79790Y-65505D01*
X79767Y-65500D01*
X79727Y-65530D01*
X79717Y-65600D01*
X79717Y-65700D01*
X80118Y-65700D01*
X80303Y-65697D01*
X80429Y-65690D01*
X80493Y-65677D01*
X80500Y-65667D01*
X80500Y-65846D01*
X80404Y-65998D01*
X80199Y-66210D01*
X79960Y-66365D01*
X79752Y-66446D01*
X79583Y-66479D01*
X79583Y-65667D01*
X79556Y-65637D01*
X79533Y-65633D01*
X79489Y-65627D01*
X79483Y-65621D01*
X79477Y-65586D01*
X79460Y-65498D01*
X79434Y-65370D01*
X79403Y-65216D01*
X79400Y-65200D01*
X79364Y-65023D01*
X79339Y-64902D01*
X79326Y-64826D01*
X79323Y-64785D01*
X79329Y-64768D01*
X79344Y-64765D01*
X79367Y-64767D01*
X79411Y-64740D01*
X79417Y-64717D01*
X79406Y-64694D01*
X79368Y-64680D01*
X79292Y-64671D01*
X79168Y-64667D01*
X79039Y-64667D01*
X78661Y-64667D01*
X78676Y-64767D01*
X78699Y-64837D01*
X78735Y-64866D01*
X78736Y-64867D01*
X78766Y-64843D01*
X78762Y-64817D01*
X78763Y-64787D01*
X78801Y-64772D01*
X78890Y-64767D01*
X78928Y-64767D01*
X79032Y-64771D01*
X79106Y-64783D01*
X79129Y-64793D01*
X79143Y-64840D01*
X79159Y-64928D01*
X79169Y-64993D01*
X79192Y-65167D01*
X79077Y-65167D01*
X78988Y-65156D01*
X78926Y-65129D01*
X78924Y-65127D01*
X78880Y-65100D01*
X78865Y-65133D01*
X78873Y-65208D01*
X78900Y-65267D01*
X78939Y-65300D01*
X78973Y-65298D01*
X78983Y-65267D01*
X79011Y-65242D01*
X79076Y-65233D01*
X79151Y-65240D01*
X79211Y-65261D01*
X79227Y-65279D01*
X79242Y-65338D01*
X79260Y-65434D01*
X79268Y-65479D01*
X79278Y-65574D01*
X79271Y-65620D01*
X79241Y-65633D01*
X79237Y-65633D01*
X79190Y-65650D01*
X79183Y-65667D01*
X79214Y-65684D01*
X79293Y-65696D01*
X79383Y-65700D01*
X79490Y-65695D01*
X79562Y-65682D01*
X79583Y-65667D01*
X79583Y-66479D01*
X79575Y-66481D01*
X79370Y-66495D01*
X79165Y-66488D01*
X78989Y-66460D01*
X78959Y-66451D01*
X78724Y-66347D01*
X78502Y-66193D01*
X78312Y-66002D01*
X78169Y-65789D01*
X78157Y-65764D01*
X78081Y-65558D01*
X78035Y-65327D01*
X78025Y-65105D01*
X78030Y-65044D01*
X78051Y-64910D01*
X78078Y-64802D01*
X78107Y-64732D01*
X78135Y-64713D01*
X78143Y-64721D01*
X78194Y-64763D01*
X78214Y-64772D01*
X78244Y-64813D01*
X78280Y-64919D01*
X78320Y-65085D01*
X78337Y-65168D01*
X78373Y-65351D01*
X78396Y-65478D01*
X78408Y-65560D01*
X78409Y-65606D01*
X78399Y-65627D01*
X78380Y-65633D01*
X78367Y-65633D01*
X78322Y-65651D01*
X78317Y-65667D01*
X78347Y-65684D01*
X78426Y-65696D01*
X78517Y-65700D01*
X78630Y-65694D01*
X78700Y-65678D01*
X78719Y-65656D01*
X78680Y-65632D01*
X78656Y-65625D01*
X78625Y-65603D01*
X78598Y-65549D01*
X78571Y-65451D01*
X78541Y-65299D01*
X78538Y-65280D01*
X78511Y-65128D01*
X78486Y-64993D01*
X78467Y-64892D01*
X78461Y-64858D01*
X78456Y-64790D01*
X78487Y-64767D01*
X78495Y-64766D01*
X78532Y-64746D01*
X78529Y-64716D01*
X78495Y-64686D01*
X78418Y-64670D01*
X78310Y-64666D01*
X78111Y-64667D01*
X78186Y-64542D01*
X78335Y-64341D01*
X78526Y-64158D01*
X78737Y-64014D01*
X78783Y-63990D01*
X78883Y-63942D01*
X78966Y-63912D01*
X79052Y-63894D01*
X79159Y-63886D01*
X79308Y-63884D01*
X79366Y-63884D01*
X79533Y-63886D01*
X79653Y-63892D01*
X79744Y-63907D01*
X79825Y-63934D01*
X79916Y-63975D01*
X79931Y-63982D01*
X80141Y-64115D01*
X80336Y-64293D01*
X80498Y-64496D01*
X80571Y-64622D01*
X80614Y-64715D01*
X80642Y-64796D01*
X80657Y-64885D01*
X80665Y-65001D01*
X80666Y-65163D01*
X80667Y-65183D01*
X80667Y-65183D01*
X80667Y-65183D01*
G37*
M02*
