G04 (created by PCBNEW (2013-07-07 BZR 4022)-stable) date 27/12/2013 08:41:32*
%MOIN*%
G04 Gerber Fmt 3.4, Leading zero omitted, Abs format*
%FSLAX34Y34*%
G01*
G70*
G90*
G04 APERTURE LIST*
%ADD10C,0.00590551*%
%ADD11R,0.035X0.055*%
%ADD12R,0.055X0.035*%
%ADD13R,0.0472X0.0472*%
%ADD14R,0.065X0.016*%
%ADD15R,0.06X0.06*%
%ADD16C,0.06*%
%ADD17R,0.02X0.1*%
%ADD18R,0.0787402X0.11*%
%ADD19C,0.04*%
%ADD20R,0.03X0.06*%
%ADD21R,0.04X0.06*%
%ADD22R,0.06X0.08*%
%ADD23C,0.035*%
G04 APERTURE END LIST*
G54D10*
G54D11*
X81275Y-66350D03*
X82025Y-66350D03*
G54D12*
X83800Y-64625D03*
X83800Y-65375D03*
G54D11*
X83525Y-66200D03*
X84275Y-66200D03*
X80475Y-65500D03*
X81225Y-65500D03*
G54D12*
X83650Y-62425D03*
X83650Y-63175D03*
G54D11*
X84225Y-63850D03*
X83475Y-63850D03*
G54D13*
X85000Y-64363D03*
X85000Y-63537D03*
X78950Y-65363D03*
X78950Y-64537D03*
G54D11*
X81225Y-67200D03*
X80475Y-67200D03*
G54D12*
X85000Y-65725D03*
X85000Y-64975D03*
G54D11*
X78975Y-66100D03*
X79725Y-66100D03*
G54D14*
X79833Y-62722D03*
X79833Y-62978D03*
X79833Y-63234D03*
X79833Y-63490D03*
X82667Y-61954D03*
X79833Y-61954D03*
X79833Y-62210D03*
X79833Y-62466D03*
X82667Y-63746D03*
X82667Y-63490D03*
X82667Y-63234D03*
X82667Y-62978D03*
X82667Y-62722D03*
X82667Y-62466D03*
X79833Y-63746D03*
X82667Y-62210D03*
X82667Y-61698D03*
X82667Y-61443D03*
X82667Y-61187D03*
X79833Y-61187D03*
X79833Y-61443D03*
X79833Y-61698D03*
X79833Y-64002D03*
X79833Y-64257D03*
X79833Y-64513D03*
X82667Y-64513D03*
X82667Y-64257D03*
X82667Y-64002D03*
G54D13*
X76587Y-63800D03*
X77413Y-63800D03*
G54D11*
X75225Y-63800D03*
X75975Y-63800D03*
G54D15*
X81100Y-69900D03*
G54D16*
X80100Y-69900D03*
X79100Y-69900D03*
G54D15*
X70000Y-60984D03*
G54D16*
X71000Y-60984D03*
X70000Y-61984D03*
X71000Y-61984D03*
X70000Y-62984D03*
X71000Y-62984D03*
X70000Y-63984D03*
X71000Y-63984D03*
X70000Y-64984D03*
X71000Y-64984D03*
X70000Y-65984D03*
X71000Y-65984D03*
X70000Y-66984D03*
X71000Y-66984D03*
X70000Y-67984D03*
X71000Y-67984D03*
X70000Y-68984D03*
X71000Y-68984D03*
X70000Y-69984D03*
X71000Y-69984D03*
G54D15*
X86650Y-60984D03*
G54D16*
X87650Y-60984D03*
X86650Y-61984D03*
X87650Y-61984D03*
X86650Y-62984D03*
X87650Y-62984D03*
X86650Y-63984D03*
X87650Y-63984D03*
X86650Y-64984D03*
X87650Y-64984D03*
X86650Y-65984D03*
X87650Y-65984D03*
X86650Y-66984D03*
X87650Y-66984D03*
X86650Y-67984D03*
X87650Y-67984D03*
X86650Y-68984D03*
X87650Y-68984D03*
X86650Y-69984D03*
X87650Y-69984D03*
G54D17*
X83270Y-67350D03*
X83585Y-67350D03*
X83900Y-67350D03*
X84214Y-67350D03*
X84529Y-67350D03*
G54D18*
X82128Y-69631D03*
X85671Y-69631D03*
X82128Y-67465D03*
X85671Y-67465D03*
G54D19*
X83050Y-68450D03*
X84750Y-68450D03*
G54D15*
X85550Y-62400D03*
X73400Y-61850D03*
G54D16*
X73400Y-60850D03*
X74400Y-61850D03*
X74400Y-60850D03*
X75400Y-61850D03*
X75400Y-60850D03*
X76400Y-61850D03*
X76400Y-60850D03*
X77400Y-61850D03*
X77400Y-60850D03*
G54D15*
X72300Y-63550D03*
G54D20*
X75832Y-64900D03*
X75399Y-64900D03*
X74966Y-64900D03*
X74533Y-64900D03*
X74100Y-64900D03*
X73666Y-64900D03*
X73233Y-64900D03*
X72800Y-64900D03*
X72367Y-64900D03*
G54D21*
X71837Y-65136D03*
G54D22*
X71974Y-68983D03*
X78037Y-68983D03*
G54D15*
X77714Y-65054D03*
G54D23*
X73076Y-69191D03*
X76225Y-69191D03*
M02*
