G04 (created by PCBNEW (2013-07-07 BZR 4022)-stable) date 27/12/2013 08:41:32*
%MOIN*%
G04 Gerber Fmt 3.4, Leading zero omitted, Abs format*
%FSLAX34Y34*%
G01*
G70*
G90*
G04 APERTURE LIST*
%ADD10C,0.00590551*%
%ADD11C,0.004*%
%ADD12C,0.0039*%
%ADD13C,0.0026*%
%ADD14C,0.002*%
%ADD15C,0.0059*%
%ADD16C,0.006*%
%ADD17C,0.005*%
%ADD18C,0.012*%
G04 APERTURE END LIST*
G54D10*
G54D11*
X81984Y-69729D02*
X81984Y-69532D01*
X82050Y-69673D01*
X82116Y-69532D01*
X82116Y-69729D01*
X82209Y-69729D02*
X82209Y-69532D01*
X82303Y-69729D02*
X82303Y-69532D01*
X82416Y-69729D01*
X82416Y-69532D01*
X82510Y-69729D02*
X82510Y-69532D01*
X82603Y-69654D02*
X82753Y-69654D01*
X82847Y-69532D02*
X82847Y-69692D01*
X82857Y-69710D01*
X82866Y-69720D01*
X82885Y-69729D01*
X82922Y-69729D01*
X82941Y-69720D01*
X82950Y-69710D01*
X82960Y-69692D01*
X82960Y-69532D01*
X83044Y-69720D02*
X83072Y-69729D01*
X83119Y-69729D01*
X83138Y-69720D01*
X83147Y-69710D01*
X83157Y-69692D01*
X83157Y-69673D01*
X83147Y-69654D01*
X83138Y-69645D01*
X83119Y-69635D01*
X83082Y-69626D01*
X83063Y-69617D01*
X83054Y-69607D01*
X83044Y-69589D01*
X83044Y-69570D01*
X83054Y-69551D01*
X83063Y-69542D01*
X83082Y-69532D01*
X83129Y-69532D01*
X83157Y-69542D01*
X83307Y-69626D02*
X83335Y-69635D01*
X83344Y-69645D01*
X83354Y-69664D01*
X83354Y-69692D01*
X83344Y-69710D01*
X83335Y-69720D01*
X83316Y-69729D01*
X83241Y-69729D01*
X83241Y-69532D01*
X83307Y-69532D01*
X83326Y-69542D01*
X83335Y-69551D01*
X83344Y-69570D01*
X83344Y-69589D01*
X83335Y-69607D01*
X83326Y-69617D01*
X83307Y-69626D01*
X83241Y-69626D01*
X83438Y-69654D02*
X83588Y-69654D01*
X83776Y-69532D02*
X83682Y-69532D01*
X83673Y-69626D01*
X83682Y-69617D01*
X83701Y-69607D01*
X83748Y-69607D01*
X83767Y-69617D01*
X83776Y-69626D01*
X83785Y-69645D01*
X83785Y-69692D01*
X83776Y-69710D01*
X83767Y-69720D01*
X83748Y-69729D01*
X83701Y-69729D01*
X83682Y-69720D01*
X83673Y-69710D01*
X83870Y-69729D02*
X83870Y-69532D01*
X83945Y-69532D01*
X83964Y-69542D01*
X83973Y-69551D01*
X83982Y-69570D01*
X83982Y-69598D01*
X83973Y-69617D01*
X83964Y-69626D01*
X83945Y-69635D01*
X83870Y-69635D01*
X84067Y-69654D02*
X84217Y-69654D01*
X84292Y-69532D02*
X84414Y-69532D01*
X84348Y-69607D01*
X84376Y-69607D01*
X84395Y-69617D01*
X84404Y-69626D01*
X84414Y-69645D01*
X84414Y-69692D01*
X84404Y-69710D01*
X84395Y-69720D01*
X84376Y-69729D01*
X84320Y-69729D01*
X84301Y-69720D01*
X84292Y-69710D01*
X84583Y-69598D02*
X84583Y-69729D01*
X84536Y-69523D02*
X84489Y-69664D01*
X84611Y-69664D01*
X84723Y-69532D02*
X84742Y-69532D01*
X84761Y-69542D01*
X84770Y-69551D01*
X84780Y-69570D01*
X84789Y-69607D01*
X84789Y-69654D01*
X84780Y-69692D01*
X84770Y-69710D01*
X84761Y-69720D01*
X84742Y-69729D01*
X84723Y-69729D01*
X84705Y-69720D01*
X84695Y-69710D01*
X84686Y-69692D01*
X84677Y-69654D01*
X84677Y-69607D01*
X84686Y-69570D01*
X84695Y-69551D01*
X84705Y-69542D01*
X84723Y-69532D01*
X84911Y-69532D02*
X84930Y-69532D01*
X84949Y-69542D01*
X84958Y-69551D01*
X84967Y-69570D01*
X84977Y-69607D01*
X84977Y-69654D01*
X84967Y-69692D01*
X84958Y-69710D01*
X84949Y-69720D01*
X84930Y-69729D01*
X84911Y-69729D01*
X84892Y-69720D01*
X84883Y-69710D01*
X84874Y-69692D01*
X84864Y-69654D01*
X84864Y-69607D01*
X84874Y-69570D01*
X84883Y-69551D01*
X84892Y-69542D01*
X84911Y-69532D01*
X85099Y-69532D02*
X85117Y-69532D01*
X85136Y-69542D01*
X85146Y-69551D01*
X85155Y-69570D01*
X85164Y-69607D01*
X85164Y-69654D01*
X85155Y-69692D01*
X85146Y-69710D01*
X85136Y-69720D01*
X85117Y-69729D01*
X85099Y-69729D01*
X85080Y-69720D01*
X85071Y-69710D01*
X85061Y-69692D01*
X85052Y-69654D01*
X85052Y-69607D01*
X85061Y-69570D01*
X85071Y-69551D01*
X85080Y-69542D01*
X85099Y-69532D01*
X85230Y-69532D02*
X85352Y-69532D01*
X85286Y-69607D01*
X85314Y-69607D01*
X85333Y-69617D01*
X85343Y-69626D01*
X85352Y-69645D01*
X85352Y-69692D01*
X85343Y-69710D01*
X85333Y-69720D01*
X85314Y-69729D01*
X85258Y-69729D01*
X85239Y-69720D01*
X85230Y-69710D01*
X85474Y-69532D02*
X85493Y-69532D01*
X85511Y-69542D01*
X85521Y-69551D01*
X85530Y-69570D01*
X85540Y-69607D01*
X85540Y-69654D01*
X85530Y-69692D01*
X85521Y-69710D01*
X85511Y-69720D01*
X85493Y-69729D01*
X85474Y-69729D01*
X85455Y-69720D01*
X85446Y-69710D01*
X85436Y-69692D01*
X85427Y-69654D01*
X85427Y-69607D01*
X85436Y-69570D01*
X85446Y-69551D01*
X85455Y-69542D01*
X85474Y-69532D01*
X85624Y-69729D02*
X85624Y-69532D01*
X85699Y-69532D01*
X85718Y-69542D01*
X85727Y-69551D01*
X85737Y-69570D01*
X85737Y-69598D01*
X85727Y-69617D01*
X85718Y-69626D01*
X85699Y-69635D01*
X85624Y-69635D01*
X85924Y-69729D02*
X85812Y-69729D01*
X85868Y-69729D02*
X85868Y-69532D01*
X85849Y-69560D01*
X85830Y-69579D01*
X85812Y-69589D01*
X72177Y-66079D02*
X72177Y-65882D01*
X72243Y-66023D01*
X72309Y-65882D01*
X72309Y-66079D01*
X72402Y-66079D02*
X72402Y-65882D01*
X72609Y-66060D02*
X72599Y-66070D01*
X72571Y-66079D01*
X72552Y-66079D01*
X72524Y-66070D01*
X72506Y-66051D01*
X72496Y-66032D01*
X72487Y-65995D01*
X72487Y-65967D01*
X72496Y-65929D01*
X72506Y-65910D01*
X72524Y-65892D01*
X72552Y-65882D01*
X72571Y-65882D01*
X72599Y-65892D01*
X72609Y-65901D01*
X72806Y-66079D02*
X72740Y-65985D01*
X72693Y-66079D02*
X72693Y-65882D01*
X72768Y-65882D01*
X72787Y-65892D01*
X72796Y-65901D01*
X72806Y-65920D01*
X72806Y-65948D01*
X72796Y-65967D01*
X72787Y-65976D01*
X72768Y-65985D01*
X72693Y-65985D01*
X72928Y-65882D02*
X72965Y-65882D01*
X72984Y-65892D01*
X73003Y-65910D01*
X73012Y-65948D01*
X73012Y-66014D01*
X73003Y-66051D01*
X72984Y-66070D01*
X72965Y-66079D01*
X72928Y-66079D01*
X72909Y-66070D01*
X72890Y-66051D01*
X72881Y-66014D01*
X72881Y-65948D01*
X72890Y-65910D01*
X72909Y-65892D01*
X72928Y-65882D01*
X73097Y-66004D02*
X73247Y-66004D01*
X73331Y-66070D02*
X73359Y-66079D01*
X73406Y-66079D01*
X73425Y-66070D01*
X73434Y-66060D01*
X73444Y-66042D01*
X73444Y-66023D01*
X73434Y-66004D01*
X73425Y-65995D01*
X73406Y-65985D01*
X73369Y-65976D01*
X73350Y-65967D01*
X73340Y-65957D01*
X73331Y-65939D01*
X73331Y-65920D01*
X73340Y-65901D01*
X73350Y-65892D01*
X73369Y-65882D01*
X73416Y-65882D01*
X73444Y-65892D01*
X73528Y-66079D02*
X73528Y-65882D01*
X73575Y-65882D01*
X73603Y-65892D01*
X73622Y-65910D01*
X73631Y-65929D01*
X73641Y-65967D01*
X73641Y-65995D01*
X73631Y-66032D01*
X73622Y-66051D01*
X73603Y-66070D01*
X73575Y-66079D01*
X73528Y-66079D01*
X73838Y-66060D02*
X73828Y-66070D01*
X73800Y-66079D01*
X73781Y-66079D01*
X73753Y-66070D01*
X73734Y-66051D01*
X73725Y-66032D01*
X73716Y-65995D01*
X73716Y-65967D01*
X73725Y-65929D01*
X73734Y-65910D01*
X73753Y-65892D01*
X73781Y-65882D01*
X73800Y-65882D01*
X73828Y-65892D01*
X73838Y-65901D01*
X73913Y-66023D02*
X74007Y-66023D01*
X73894Y-66079D02*
X73960Y-65882D01*
X74025Y-66079D01*
X74204Y-66079D02*
X74138Y-65985D01*
X74091Y-66079D02*
X74091Y-65882D01*
X74166Y-65882D01*
X74185Y-65892D01*
X74194Y-65901D01*
X74204Y-65920D01*
X74204Y-65948D01*
X74194Y-65967D01*
X74185Y-65976D01*
X74166Y-65985D01*
X74091Y-65985D01*
X74288Y-66079D02*
X74288Y-65882D01*
X74335Y-65882D01*
X74363Y-65892D01*
X74382Y-65910D01*
X74391Y-65929D01*
X74401Y-65967D01*
X74401Y-65995D01*
X74391Y-66032D01*
X74382Y-66051D01*
X74363Y-66070D01*
X74335Y-66079D01*
X74288Y-66079D01*
X74485Y-66004D02*
X74635Y-66004D01*
X74841Y-66060D02*
X74832Y-66070D01*
X74804Y-66079D01*
X74785Y-66079D01*
X74757Y-66070D01*
X74738Y-66051D01*
X74729Y-66032D01*
X74719Y-65995D01*
X74719Y-65967D01*
X74729Y-65929D01*
X74738Y-65910D01*
X74757Y-65892D01*
X74785Y-65882D01*
X74804Y-65882D01*
X74832Y-65892D01*
X74841Y-65901D01*
X74963Y-65882D02*
X75001Y-65882D01*
X75020Y-65892D01*
X75038Y-65910D01*
X75048Y-65948D01*
X75048Y-66014D01*
X75038Y-66051D01*
X75020Y-66070D01*
X75001Y-66079D01*
X74963Y-66079D01*
X74945Y-66070D01*
X74926Y-66051D01*
X74916Y-66014D01*
X74916Y-65948D01*
X74926Y-65910D01*
X74945Y-65892D01*
X74963Y-65882D01*
X75132Y-66079D02*
X75132Y-65882D01*
X75245Y-66079D01*
X75245Y-65882D01*
X75339Y-66079D02*
X75339Y-65882D01*
X75451Y-66079D01*
X75451Y-65882D01*
X75545Y-65976D02*
X75611Y-65976D01*
X75639Y-66079D02*
X75545Y-66079D01*
X75545Y-65882D01*
X75639Y-65882D01*
X75836Y-66060D02*
X75826Y-66070D01*
X75798Y-66079D01*
X75780Y-66079D01*
X75751Y-66070D01*
X75733Y-66051D01*
X75723Y-66032D01*
X75714Y-65995D01*
X75714Y-65967D01*
X75723Y-65929D01*
X75733Y-65910D01*
X75751Y-65892D01*
X75780Y-65882D01*
X75798Y-65882D01*
X75826Y-65892D01*
X75836Y-65901D01*
X75892Y-65882D02*
X76005Y-65882D01*
X75948Y-66079D02*
X75948Y-65882D01*
X76108Y-65882D02*
X76145Y-65882D01*
X76164Y-65892D01*
X76183Y-65910D01*
X76192Y-65948D01*
X76192Y-66014D01*
X76183Y-66051D01*
X76164Y-66070D01*
X76145Y-66079D01*
X76108Y-66079D01*
X76089Y-66070D01*
X76070Y-66051D01*
X76061Y-66014D01*
X76061Y-65948D01*
X76070Y-65910D01*
X76089Y-65892D01*
X76108Y-65882D01*
X76389Y-66079D02*
X76324Y-65985D01*
X76277Y-66079D02*
X76277Y-65882D01*
X76352Y-65882D01*
X76371Y-65892D01*
X76380Y-65901D01*
X76389Y-65920D01*
X76389Y-65948D01*
X76380Y-65967D01*
X76371Y-65976D01*
X76352Y-65985D01*
X76277Y-65985D01*
X76474Y-66004D02*
X76624Y-66004D01*
X76699Y-65882D02*
X76821Y-65882D01*
X76755Y-65957D01*
X76783Y-65957D01*
X76802Y-65967D01*
X76811Y-65976D01*
X76821Y-65995D01*
X76821Y-66042D01*
X76811Y-66060D01*
X76802Y-66070D01*
X76783Y-66079D01*
X76727Y-66079D01*
X76708Y-66070D01*
X76699Y-66060D01*
X76886Y-65882D02*
X77008Y-65882D01*
X76943Y-65957D01*
X76971Y-65957D01*
X76990Y-65967D01*
X76999Y-65976D01*
X77008Y-65995D01*
X77008Y-66042D01*
X76999Y-66060D01*
X76990Y-66070D01*
X76971Y-66079D01*
X76915Y-66079D01*
X76896Y-66070D01*
X76886Y-66060D01*
X77130Y-65882D02*
X77149Y-65882D01*
X77168Y-65892D01*
X77177Y-65901D01*
X77187Y-65920D01*
X77196Y-65957D01*
X77196Y-66004D01*
X77187Y-66042D01*
X77177Y-66060D01*
X77168Y-66070D01*
X77149Y-66079D01*
X77130Y-66079D01*
X77112Y-66070D01*
X77102Y-66060D01*
X77093Y-66042D01*
X77083Y-66004D01*
X77083Y-65957D01*
X77093Y-65920D01*
X77102Y-65901D01*
X77112Y-65892D01*
X77130Y-65882D01*
X77318Y-65882D02*
X77337Y-65882D01*
X77356Y-65892D01*
X77365Y-65901D01*
X77374Y-65920D01*
X77384Y-65957D01*
X77384Y-66004D01*
X77374Y-66042D01*
X77365Y-66060D01*
X77356Y-66070D01*
X77337Y-66079D01*
X77318Y-66079D01*
X77299Y-66070D01*
X77290Y-66060D01*
X77280Y-66042D01*
X77271Y-66004D01*
X77271Y-65957D01*
X77280Y-65920D01*
X77290Y-65901D01*
X77299Y-65892D01*
X77318Y-65882D01*
X77506Y-65882D02*
X77524Y-65882D01*
X77543Y-65892D01*
X77553Y-65901D01*
X77562Y-65920D01*
X77571Y-65957D01*
X77571Y-66004D01*
X77562Y-66042D01*
X77553Y-66060D01*
X77543Y-66070D01*
X77524Y-66079D01*
X77506Y-66079D01*
X77487Y-66070D01*
X77477Y-66060D01*
X77468Y-66042D01*
X77459Y-66004D01*
X77459Y-65957D01*
X77468Y-65920D01*
X77477Y-65901D01*
X77487Y-65892D01*
X77506Y-65882D01*
X77740Y-65882D02*
X77703Y-65882D01*
X77684Y-65892D01*
X77674Y-65901D01*
X77656Y-65929D01*
X77646Y-65967D01*
X77646Y-66042D01*
X77656Y-66060D01*
X77665Y-66070D01*
X77684Y-66079D01*
X77721Y-66079D01*
X77740Y-66070D01*
X77750Y-66060D01*
X77759Y-66042D01*
X77759Y-65995D01*
X77750Y-65976D01*
X77740Y-65967D01*
X77721Y-65957D01*
X77684Y-65957D01*
X77665Y-65967D01*
X77656Y-65976D01*
X77646Y-65995D01*
X77881Y-65882D02*
X77900Y-65882D01*
X77918Y-65892D01*
X77928Y-65901D01*
X77937Y-65920D01*
X77947Y-65957D01*
X77947Y-66004D01*
X77937Y-66042D01*
X77928Y-66060D01*
X77918Y-66070D01*
X77900Y-66079D01*
X77881Y-66079D01*
X77862Y-66070D01*
X77853Y-66060D01*
X77843Y-66042D01*
X77834Y-66004D01*
X77834Y-65957D01*
X77843Y-65920D01*
X77853Y-65901D01*
X77862Y-65892D01*
X77881Y-65882D01*
X78031Y-66079D02*
X78031Y-65882D01*
X78106Y-65882D01*
X78125Y-65892D01*
X78134Y-65901D01*
X78144Y-65920D01*
X78144Y-65948D01*
X78134Y-65967D01*
X78125Y-65976D01*
X78106Y-65985D01*
X78031Y-65985D01*
X78331Y-66079D02*
X78219Y-66079D01*
X78275Y-66079D02*
X78275Y-65882D01*
X78256Y-65910D01*
X78237Y-65929D01*
X78219Y-65939D01*
G54D12*
X81050Y-66650D02*
G75*
G03X81050Y-66650I-50J0D01*
G74*
G01*
X81450Y-66650D02*
X81050Y-66650D01*
X81050Y-66650D02*
X81050Y-66050D01*
X81050Y-66050D02*
X81450Y-66050D01*
X81850Y-66050D02*
X82250Y-66050D01*
X82250Y-66050D02*
X82250Y-66650D01*
X82250Y-66650D02*
X81850Y-66650D01*
X83550Y-64350D02*
G75*
G03X83550Y-64350I-50J0D01*
G74*
G01*
X83500Y-64800D02*
X83500Y-64400D01*
X83500Y-64400D02*
X84100Y-64400D01*
X84100Y-64400D02*
X84100Y-64800D01*
X84100Y-65200D02*
X84100Y-65600D01*
X84100Y-65600D02*
X83500Y-65600D01*
X83500Y-65600D02*
X83500Y-65200D01*
X83300Y-66500D02*
G75*
G03X83300Y-66500I-50J0D01*
G74*
G01*
X83700Y-66500D02*
X83300Y-66500D01*
X83300Y-66500D02*
X83300Y-65900D01*
X83300Y-65900D02*
X83700Y-65900D01*
X84100Y-65900D02*
X84500Y-65900D01*
X84500Y-65900D02*
X84500Y-66500D01*
X84500Y-66500D02*
X84100Y-66500D01*
X80250Y-65800D02*
G75*
G03X80250Y-65800I-50J0D01*
G74*
G01*
X80650Y-65800D02*
X80250Y-65800D01*
X80250Y-65800D02*
X80250Y-65200D01*
X80250Y-65200D02*
X80650Y-65200D01*
X81050Y-65200D02*
X81450Y-65200D01*
X81450Y-65200D02*
X81450Y-65800D01*
X81450Y-65800D02*
X81050Y-65800D01*
X83400Y-62150D02*
G75*
G03X83400Y-62150I-50J0D01*
G74*
G01*
X83350Y-62600D02*
X83350Y-62200D01*
X83350Y-62200D02*
X83950Y-62200D01*
X83950Y-62200D02*
X83950Y-62600D01*
X83950Y-63000D02*
X83950Y-63400D01*
X83950Y-63400D02*
X83350Y-63400D01*
X83350Y-63400D02*
X83350Y-63000D01*
X84550Y-63550D02*
G75*
G03X84550Y-63550I-50J0D01*
G74*
G01*
X84050Y-63550D02*
X84450Y-63550D01*
X84450Y-63550D02*
X84450Y-64150D01*
X84450Y-64150D02*
X84050Y-64150D01*
X83650Y-64150D02*
X83250Y-64150D01*
X83250Y-64150D02*
X83250Y-63550D01*
X83250Y-63550D02*
X83650Y-63550D01*
G54D13*
X85118Y-63754D02*
X85246Y-63754D01*
X85246Y-63754D02*
X85246Y-63557D01*
X85118Y-63557D02*
X85246Y-63557D01*
X85118Y-63754D02*
X85118Y-63557D01*
X84873Y-63754D02*
X84932Y-63754D01*
X84932Y-63754D02*
X84932Y-63655D01*
X84873Y-63655D02*
X84932Y-63655D01*
X84873Y-63754D02*
X84873Y-63655D01*
X85068Y-63754D02*
X85127Y-63754D01*
X85127Y-63754D02*
X85127Y-63655D01*
X85068Y-63655D02*
X85127Y-63655D01*
X85068Y-63754D02*
X85068Y-63655D01*
X84922Y-63754D02*
X85078Y-63754D01*
X85078Y-63754D02*
X85078Y-63685D01*
X84922Y-63685D02*
X85078Y-63685D01*
X84922Y-63754D02*
X84922Y-63685D01*
X85118Y-64343D02*
X85246Y-64343D01*
X85246Y-64343D02*
X85246Y-64146D01*
X85118Y-64146D02*
X85246Y-64146D01*
X85118Y-64343D02*
X85118Y-64146D01*
X84754Y-64343D02*
X84882Y-64343D01*
X84882Y-64343D02*
X84882Y-64146D01*
X84754Y-64146D02*
X84882Y-64146D01*
X84754Y-64343D02*
X84754Y-64146D01*
X85068Y-64245D02*
X85127Y-64245D01*
X85127Y-64245D02*
X85127Y-64146D01*
X85068Y-64146D02*
X85127Y-64146D01*
X85068Y-64245D02*
X85068Y-64146D01*
X84873Y-64245D02*
X84932Y-64245D01*
X84932Y-64245D02*
X84932Y-64146D01*
X84873Y-64146D02*
X84932Y-64146D01*
X84873Y-64245D02*
X84873Y-64146D01*
X84922Y-64215D02*
X85078Y-64215D01*
X85078Y-64215D02*
X85078Y-64146D01*
X84922Y-64146D02*
X85078Y-64146D01*
X84922Y-64215D02*
X84922Y-64146D01*
X84961Y-63950D02*
X85039Y-63950D01*
X85039Y-63950D02*
X85039Y-63872D01*
X84961Y-63872D02*
X85039Y-63872D01*
X84961Y-63950D02*
X84961Y-63872D01*
X84764Y-63754D02*
X84882Y-63754D01*
X84882Y-63754D02*
X84882Y-63636D01*
X84764Y-63636D02*
X84882Y-63636D01*
X84764Y-63754D02*
X84764Y-63636D01*
X84754Y-63586D02*
X84843Y-63586D01*
X84843Y-63586D02*
X84843Y-63557D01*
X84754Y-63557D02*
X84843Y-63557D01*
X84754Y-63586D02*
X84754Y-63557D01*
G54D11*
X85226Y-63744D02*
X85226Y-64156D01*
X84774Y-64146D02*
X84774Y-63586D01*
G54D14*
X84851Y-63616D02*
G75*
G03X84851Y-63616I-28J0D01*
G74*
G01*
G54D11*
X84863Y-63557D02*
G75*
G03X85137Y-63557I137J0D01*
G74*
G01*
X85137Y-64343D02*
G75*
G03X84863Y-64343I-137J0D01*
G74*
G01*
G54D13*
X79068Y-64754D02*
X79196Y-64754D01*
X79196Y-64754D02*
X79196Y-64557D01*
X79068Y-64557D02*
X79196Y-64557D01*
X79068Y-64754D02*
X79068Y-64557D01*
X78823Y-64754D02*
X78882Y-64754D01*
X78882Y-64754D02*
X78882Y-64655D01*
X78823Y-64655D02*
X78882Y-64655D01*
X78823Y-64754D02*
X78823Y-64655D01*
X79018Y-64754D02*
X79077Y-64754D01*
X79077Y-64754D02*
X79077Y-64655D01*
X79018Y-64655D02*
X79077Y-64655D01*
X79018Y-64754D02*
X79018Y-64655D01*
X78872Y-64754D02*
X79028Y-64754D01*
X79028Y-64754D02*
X79028Y-64685D01*
X78872Y-64685D02*
X79028Y-64685D01*
X78872Y-64754D02*
X78872Y-64685D01*
X79068Y-65343D02*
X79196Y-65343D01*
X79196Y-65343D02*
X79196Y-65146D01*
X79068Y-65146D02*
X79196Y-65146D01*
X79068Y-65343D02*
X79068Y-65146D01*
X78704Y-65343D02*
X78832Y-65343D01*
X78832Y-65343D02*
X78832Y-65146D01*
X78704Y-65146D02*
X78832Y-65146D01*
X78704Y-65343D02*
X78704Y-65146D01*
X79018Y-65245D02*
X79077Y-65245D01*
X79077Y-65245D02*
X79077Y-65146D01*
X79018Y-65146D02*
X79077Y-65146D01*
X79018Y-65245D02*
X79018Y-65146D01*
X78823Y-65245D02*
X78882Y-65245D01*
X78882Y-65245D02*
X78882Y-65146D01*
X78823Y-65146D02*
X78882Y-65146D01*
X78823Y-65245D02*
X78823Y-65146D01*
X78872Y-65215D02*
X79028Y-65215D01*
X79028Y-65215D02*
X79028Y-65146D01*
X78872Y-65146D02*
X79028Y-65146D01*
X78872Y-65215D02*
X78872Y-65146D01*
X78911Y-64950D02*
X78989Y-64950D01*
X78989Y-64950D02*
X78989Y-64872D01*
X78911Y-64872D02*
X78989Y-64872D01*
X78911Y-64950D02*
X78911Y-64872D01*
X78714Y-64754D02*
X78832Y-64754D01*
X78832Y-64754D02*
X78832Y-64636D01*
X78714Y-64636D02*
X78832Y-64636D01*
X78714Y-64754D02*
X78714Y-64636D01*
X78704Y-64586D02*
X78793Y-64586D01*
X78793Y-64586D02*
X78793Y-64557D01*
X78704Y-64557D02*
X78793Y-64557D01*
X78704Y-64586D02*
X78704Y-64557D01*
G54D11*
X79176Y-64744D02*
X79176Y-65156D01*
X78724Y-65146D02*
X78724Y-64586D01*
G54D14*
X78801Y-64616D02*
G75*
G03X78801Y-64616I-28J0D01*
G74*
G01*
G54D11*
X78813Y-64557D02*
G75*
G03X79087Y-64557I137J0D01*
G74*
G01*
X79087Y-65343D02*
G75*
G03X78813Y-65343I-137J0D01*
G74*
G01*
G54D12*
X81550Y-66900D02*
G75*
G03X81550Y-66900I-50J0D01*
G74*
G01*
X81050Y-66900D02*
X81450Y-66900D01*
X81450Y-66900D02*
X81450Y-67500D01*
X81450Y-67500D02*
X81050Y-67500D01*
X80650Y-67500D02*
X80250Y-67500D01*
X80250Y-67500D02*
X80250Y-66900D01*
X80250Y-66900D02*
X80650Y-66900D01*
X85350Y-66000D02*
G75*
G03X85350Y-66000I-50J0D01*
G74*
G01*
X85300Y-65550D02*
X85300Y-65950D01*
X85300Y-65950D02*
X84700Y-65950D01*
X84700Y-65950D02*
X84700Y-65550D01*
X84700Y-65150D02*
X84700Y-64750D01*
X84700Y-64750D02*
X85300Y-64750D01*
X85300Y-64750D02*
X85300Y-65150D01*
X78750Y-66400D02*
G75*
G03X78750Y-66400I-50J0D01*
G74*
G01*
X79150Y-66400D02*
X78750Y-66400D01*
X78750Y-66400D02*
X78750Y-65800D01*
X78750Y-65800D02*
X79150Y-65800D01*
X79550Y-65800D02*
X79950Y-65800D01*
X79950Y-65800D02*
X79950Y-66400D01*
X79950Y-66400D02*
X79550Y-66400D01*
G54D15*
X82156Y-64897D02*
X80344Y-64897D01*
X80344Y-60803D02*
X82156Y-60803D01*
X82156Y-60803D02*
X82156Y-64897D01*
X80344Y-64897D02*
X80344Y-60803D01*
X80757Y-61102D02*
G75*
G03X80757Y-61102I-111J0D01*
G74*
G01*
G54D13*
X77196Y-63918D02*
X77196Y-64046D01*
X77196Y-64046D02*
X77393Y-64046D01*
X77393Y-63918D02*
X77393Y-64046D01*
X77196Y-63918D02*
X77393Y-63918D01*
X77196Y-63673D02*
X77196Y-63732D01*
X77196Y-63732D02*
X77295Y-63732D01*
X77295Y-63673D02*
X77295Y-63732D01*
X77196Y-63673D02*
X77295Y-63673D01*
X77196Y-63868D02*
X77196Y-63927D01*
X77196Y-63927D02*
X77295Y-63927D01*
X77295Y-63868D02*
X77295Y-63927D01*
X77196Y-63868D02*
X77295Y-63868D01*
X77196Y-63722D02*
X77196Y-63878D01*
X77196Y-63878D02*
X77265Y-63878D01*
X77265Y-63722D02*
X77265Y-63878D01*
X77196Y-63722D02*
X77265Y-63722D01*
X76607Y-63918D02*
X76607Y-64046D01*
X76607Y-64046D02*
X76804Y-64046D01*
X76804Y-63918D02*
X76804Y-64046D01*
X76607Y-63918D02*
X76804Y-63918D01*
X76607Y-63554D02*
X76607Y-63682D01*
X76607Y-63682D02*
X76804Y-63682D01*
X76804Y-63554D02*
X76804Y-63682D01*
X76607Y-63554D02*
X76804Y-63554D01*
X76705Y-63868D02*
X76705Y-63927D01*
X76705Y-63927D02*
X76804Y-63927D01*
X76804Y-63868D02*
X76804Y-63927D01*
X76705Y-63868D02*
X76804Y-63868D01*
X76705Y-63673D02*
X76705Y-63732D01*
X76705Y-63732D02*
X76804Y-63732D01*
X76804Y-63673D02*
X76804Y-63732D01*
X76705Y-63673D02*
X76804Y-63673D01*
X76735Y-63722D02*
X76735Y-63878D01*
X76735Y-63878D02*
X76804Y-63878D01*
X76804Y-63722D02*
X76804Y-63878D01*
X76735Y-63722D02*
X76804Y-63722D01*
X77000Y-63761D02*
X77000Y-63839D01*
X77000Y-63839D02*
X77078Y-63839D01*
X77078Y-63761D02*
X77078Y-63839D01*
X77000Y-63761D02*
X77078Y-63761D01*
X77196Y-63564D02*
X77196Y-63682D01*
X77196Y-63682D02*
X77314Y-63682D01*
X77314Y-63564D02*
X77314Y-63682D01*
X77196Y-63564D02*
X77314Y-63564D01*
X77364Y-63554D02*
X77364Y-63643D01*
X77364Y-63643D02*
X77393Y-63643D01*
X77393Y-63554D02*
X77393Y-63643D01*
X77364Y-63554D02*
X77393Y-63554D01*
G54D11*
X77206Y-64026D02*
X76794Y-64026D01*
X76804Y-63574D02*
X77364Y-63574D01*
G54D14*
X77362Y-63623D02*
G75*
G03X77362Y-63623I-28J0D01*
G74*
G01*
G54D11*
X77393Y-63663D02*
G75*
G03X77393Y-63937I0J-137D01*
G74*
G01*
X76607Y-63937D02*
G75*
G03X76607Y-63663I0J137D01*
G74*
G01*
G54D12*
X75000Y-64100D02*
G75*
G03X75000Y-64100I-50J0D01*
G74*
G01*
X75400Y-64100D02*
X75000Y-64100D01*
X75000Y-64100D02*
X75000Y-63500D01*
X75000Y-63500D02*
X75400Y-63500D01*
X75800Y-63500D02*
X76200Y-63500D01*
X76200Y-63500D02*
X76200Y-64100D01*
X76200Y-64100D02*
X75800Y-64100D01*
G54D16*
X81600Y-69400D02*
X81600Y-70400D01*
X81600Y-70400D02*
X78600Y-70400D01*
X78600Y-70400D02*
X78600Y-69400D01*
X78600Y-69400D02*
X81600Y-69400D01*
X80600Y-70400D02*
X80600Y-69400D01*
G54D12*
X69516Y-70421D02*
X71484Y-70421D01*
X71484Y-70421D02*
X71484Y-60480D01*
X71484Y-60480D02*
X69516Y-60480D01*
X69516Y-60480D02*
X69516Y-70421D01*
X86166Y-70421D02*
X88134Y-70421D01*
X88134Y-70421D02*
X88134Y-60480D01*
X88134Y-60480D02*
X86166Y-60480D01*
X86166Y-60480D02*
X86166Y-70421D01*
G54D17*
X85400Y-70800D02*
X85400Y-70221D01*
X82400Y-70800D02*
X82400Y-70221D01*
X84700Y-67200D02*
X85200Y-67200D01*
X85400Y-68095D02*
X85400Y-69040D01*
X82400Y-70800D02*
X85400Y-70800D01*
X82400Y-68095D02*
X82400Y-69040D01*
X82600Y-67200D02*
X83073Y-67200D01*
G54D16*
X86050Y-62900D02*
X85050Y-62900D01*
X85050Y-61900D02*
X86050Y-61900D01*
X85050Y-62900D02*
X85050Y-61900D01*
X86050Y-61900D02*
X86050Y-62900D01*
G54D18*
X72900Y-60350D02*
X77900Y-60350D01*
X77900Y-60350D02*
X77900Y-62350D01*
X77900Y-62350D02*
X72900Y-62350D01*
X72900Y-62350D02*
X72900Y-60350D01*
G54D16*
X72800Y-64050D02*
X71800Y-64050D01*
X71800Y-63050D02*
X72800Y-63050D01*
X71800Y-64050D02*
X71800Y-63050D01*
X72800Y-63050D02*
X72800Y-64050D01*
G54D17*
X76950Y-70800D02*
X75200Y-70400D01*
X72050Y-70400D02*
X75220Y-70400D01*
X72050Y-64900D02*
X72050Y-70400D01*
X77950Y-70800D02*
X76953Y-70800D01*
X77400Y-64900D02*
X77400Y-65350D01*
X77400Y-65350D02*
X77950Y-65350D01*
X72050Y-64900D02*
X77400Y-64900D01*
X77950Y-65350D02*
X77950Y-70800D01*
G54D11*
X82517Y-66410D02*
X82507Y-66420D01*
X82479Y-66429D01*
X82460Y-66429D01*
X82432Y-66420D01*
X82413Y-66401D01*
X82404Y-66382D01*
X82395Y-66345D01*
X82395Y-66317D01*
X82404Y-66279D01*
X82413Y-66260D01*
X82432Y-66242D01*
X82460Y-66232D01*
X82479Y-66232D01*
X82507Y-66242D01*
X82517Y-66251D01*
X82704Y-66429D02*
X82592Y-66429D01*
X82648Y-66429D02*
X82648Y-66232D01*
X82629Y-66260D01*
X82610Y-66279D01*
X82592Y-66289D01*
X84367Y-64660D02*
X84357Y-64670D01*
X84329Y-64679D01*
X84310Y-64679D01*
X84282Y-64670D01*
X84263Y-64651D01*
X84254Y-64632D01*
X84245Y-64595D01*
X84245Y-64567D01*
X84254Y-64529D01*
X84263Y-64510D01*
X84282Y-64492D01*
X84310Y-64482D01*
X84329Y-64482D01*
X84357Y-64492D01*
X84367Y-64501D01*
X84442Y-64501D02*
X84451Y-64492D01*
X84470Y-64482D01*
X84517Y-64482D01*
X84536Y-64492D01*
X84545Y-64501D01*
X84554Y-64520D01*
X84554Y-64539D01*
X84545Y-64567D01*
X84432Y-64679D01*
X84554Y-64679D01*
X82967Y-66260D02*
X82957Y-66270D01*
X82929Y-66279D01*
X82910Y-66279D01*
X82882Y-66270D01*
X82863Y-66251D01*
X82854Y-66232D01*
X82845Y-66195D01*
X82845Y-66167D01*
X82854Y-66129D01*
X82863Y-66110D01*
X82882Y-66092D01*
X82910Y-66082D01*
X82929Y-66082D01*
X82957Y-66092D01*
X82967Y-66101D01*
X83032Y-66082D02*
X83154Y-66082D01*
X83089Y-66157D01*
X83117Y-66157D01*
X83136Y-66167D01*
X83145Y-66176D01*
X83154Y-66195D01*
X83154Y-66242D01*
X83145Y-66260D01*
X83136Y-66270D01*
X83117Y-66279D01*
X83060Y-66279D01*
X83042Y-66270D01*
X83032Y-66260D01*
X81717Y-65560D02*
X81707Y-65570D01*
X81679Y-65579D01*
X81660Y-65579D01*
X81632Y-65570D01*
X81613Y-65551D01*
X81604Y-65532D01*
X81595Y-65495D01*
X81595Y-65467D01*
X81604Y-65429D01*
X81613Y-65410D01*
X81632Y-65392D01*
X81660Y-65382D01*
X81679Y-65382D01*
X81707Y-65392D01*
X81717Y-65401D01*
X81886Y-65448D02*
X81886Y-65579D01*
X81839Y-65373D02*
X81792Y-65514D01*
X81914Y-65514D01*
X84167Y-62860D02*
X84157Y-62870D01*
X84129Y-62879D01*
X84110Y-62879D01*
X84082Y-62870D01*
X84063Y-62851D01*
X84054Y-62832D01*
X84045Y-62795D01*
X84045Y-62767D01*
X84054Y-62729D01*
X84063Y-62710D01*
X84082Y-62692D01*
X84110Y-62682D01*
X84129Y-62682D01*
X84157Y-62692D01*
X84167Y-62701D01*
X84345Y-62682D02*
X84251Y-62682D01*
X84242Y-62776D01*
X84251Y-62767D01*
X84270Y-62757D01*
X84317Y-62757D01*
X84336Y-62767D01*
X84345Y-62776D01*
X84354Y-62795D01*
X84354Y-62842D01*
X84345Y-62860D01*
X84336Y-62870D01*
X84317Y-62879D01*
X84270Y-62879D01*
X84251Y-62870D01*
X84242Y-62860D01*
X84317Y-63360D02*
X84307Y-63370D01*
X84279Y-63379D01*
X84260Y-63379D01*
X84232Y-63370D01*
X84213Y-63351D01*
X84204Y-63332D01*
X84195Y-63295D01*
X84195Y-63267D01*
X84204Y-63229D01*
X84213Y-63210D01*
X84232Y-63192D01*
X84260Y-63182D01*
X84279Y-63182D01*
X84307Y-63192D01*
X84317Y-63201D01*
X84486Y-63182D02*
X84448Y-63182D01*
X84429Y-63192D01*
X84420Y-63201D01*
X84401Y-63229D01*
X84392Y-63267D01*
X84392Y-63342D01*
X84401Y-63360D01*
X84410Y-63370D01*
X84429Y-63379D01*
X84467Y-63379D01*
X84486Y-63370D01*
X84495Y-63360D01*
X84504Y-63342D01*
X84504Y-63295D01*
X84495Y-63276D01*
X84486Y-63267D01*
X84467Y-63257D01*
X84429Y-63257D01*
X84410Y-63267D01*
X84401Y-63276D01*
X84392Y-63295D01*
X85404Y-64429D02*
X85404Y-64232D01*
X85451Y-64232D01*
X85479Y-64242D01*
X85498Y-64260D01*
X85507Y-64279D01*
X85517Y-64317D01*
X85517Y-64345D01*
X85507Y-64382D01*
X85498Y-64401D01*
X85479Y-64420D01*
X85451Y-64429D01*
X85404Y-64429D01*
X85704Y-64429D02*
X85592Y-64429D01*
X85648Y-64429D02*
X85648Y-64232D01*
X85629Y-64260D01*
X85610Y-64279D01*
X85592Y-64289D01*
X78804Y-64079D02*
X78804Y-63882D01*
X78851Y-63882D01*
X78879Y-63892D01*
X78898Y-63910D01*
X78907Y-63929D01*
X78917Y-63967D01*
X78917Y-63995D01*
X78907Y-64032D01*
X78898Y-64051D01*
X78879Y-64070D01*
X78851Y-64079D01*
X78804Y-64079D01*
X78992Y-63901D02*
X79001Y-63892D01*
X79020Y-63882D01*
X79067Y-63882D01*
X79086Y-63892D01*
X79095Y-63901D01*
X79104Y-63920D01*
X79104Y-63939D01*
X79095Y-63967D01*
X78982Y-64079D01*
X79104Y-64079D01*
X80417Y-66679D02*
X80351Y-66585D01*
X80304Y-66679D02*
X80304Y-66482D01*
X80379Y-66482D01*
X80398Y-66492D01*
X80407Y-66501D01*
X80417Y-66520D01*
X80417Y-66548D01*
X80407Y-66567D01*
X80398Y-66576D01*
X80379Y-66585D01*
X80304Y-66585D01*
X80604Y-66679D02*
X80492Y-66679D01*
X80548Y-66679D02*
X80548Y-66482D01*
X80529Y-66510D01*
X80510Y-66529D01*
X80492Y-66539D01*
X85567Y-65779D02*
X85501Y-65685D01*
X85454Y-65779D02*
X85454Y-65582D01*
X85529Y-65582D01*
X85548Y-65592D01*
X85557Y-65601D01*
X85567Y-65620D01*
X85567Y-65648D01*
X85557Y-65667D01*
X85548Y-65676D01*
X85529Y-65685D01*
X85454Y-65685D01*
X85642Y-65601D02*
X85651Y-65592D01*
X85670Y-65582D01*
X85717Y-65582D01*
X85736Y-65592D01*
X85745Y-65601D01*
X85754Y-65620D01*
X85754Y-65639D01*
X85745Y-65667D01*
X85632Y-65779D01*
X85754Y-65779D01*
X78367Y-65479D02*
X78301Y-65385D01*
X78254Y-65479D02*
X78254Y-65282D01*
X78329Y-65282D01*
X78348Y-65292D01*
X78357Y-65301D01*
X78367Y-65320D01*
X78367Y-65348D01*
X78357Y-65367D01*
X78348Y-65376D01*
X78329Y-65385D01*
X78254Y-65385D01*
X78432Y-65282D02*
X78554Y-65282D01*
X78489Y-65357D01*
X78517Y-65357D01*
X78536Y-65367D01*
X78545Y-65376D01*
X78554Y-65395D01*
X78554Y-65442D01*
X78545Y-65460D01*
X78536Y-65470D01*
X78517Y-65479D01*
X78460Y-65479D01*
X78442Y-65470D01*
X78432Y-65460D01*
X80899Y-62732D02*
X80899Y-62892D01*
X80909Y-62910D01*
X80918Y-62920D01*
X80937Y-62929D01*
X80974Y-62929D01*
X80993Y-62920D01*
X81003Y-62910D01*
X81012Y-62892D01*
X81012Y-62732D01*
X81209Y-62929D02*
X81096Y-62929D01*
X81153Y-62929D02*
X81153Y-62732D01*
X81134Y-62760D01*
X81115Y-62779D01*
X81096Y-62789D01*
X77854Y-63879D02*
X77854Y-63682D01*
X77901Y-63682D01*
X77929Y-63692D01*
X77948Y-63710D01*
X77957Y-63729D01*
X77967Y-63767D01*
X77967Y-63795D01*
X77957Y-63832D01*
X77948Y-63851D01*
X77929Y-63870D01*
X77901Y-63879D01*
X77854Y-63879D01*
X78032Y-63682D02*
X78154Y-63682D01*
X78089Y-63757D01*
X78117Y-63757D01*
X78136Y-63767D01*
X78145Y-63776D01*
X78154Y-63795D01*
X78154Y-63842D01*
X78145Y-63860D01*
X78136Y-63870D01*
X78117Y-63879D01*
X78060Y-63879D01*
X78042Y-63870D01*
X78032Y-63860D01*
X74717Y-63879D02*
X74651Y-63785D01*
X74604Y-63879D02*
X74604Y-63682D01*
X74679Y-63682D01*
X74698Y-63692D01*
X74707Y-63701D01*
X74717Y-63720D01*
X74717Y-63748D01*
X74707Y-63767D01*
X74698Y-63776D01*
X74679Y-63785D01*
X74604Y-63785D01*
X74886Y-63748D02*
X74886Y-63879D01*
X74839Y-63673D02*
X74792Y-63814D01*
X74914Y-63814D01*
X78154Y-70029D02*
X78154Y-69832D01*
X78267Y-70029D02*
X78182Y-69917D01*
X78267Y-69832D02*
X78154Y-69945D01*
X78454Y-70029D02*
X78342Y-70029D01*
X78398Y-70029D02*
X78398Y-69832D01*
X78379Y-69860D01*
X78360Y-69879D01*
X78342Y-69889D01*
X71554Y-66629D02*
X71554Y-66432D01*
X71629Y-66432D01*
X71648Y-66442D01*
X71657Y-66451D01*
X71667Y-66470D01*
X71667Y-66498D01*
X71657Y-66517D01*
X71648Y-66526D01*
X71629Y-66535D01*
X71554Y-66535D01*
X71732Y-66432D02*
X71854Y-66432D01*
X71789Y-66507D01*
X71817Y-66507D01*
X71836Y-66517D01*
X71845Y-66526D01*
X71854Y-66545D01*
X71854Y-66592D01*
X71845Y-66610D01*
X71836Y-66620D01*
X71817Y-66629D01*
X71760Y-66629D01*
X71742Y-66620D01*
X71732Y-66610D01*
X85704Y-66379D02*
X85704Y-66182D01*
X85779Y-66182D01*
X85798Y-66192D01*
X85807Y-66201D01*
X85817Y-66220D01*
X85817Y-66248D01*
X85807Y-66267D01*
X85798Y-66276D01*
X85779Y-66285D01*
X85704Y-66285D01*
X85986Y-66248D02*
X85986Y-66379D01*
X85939Y-66173D02*
X85892Y-66314D01*
X86014Y-66314D01*
X83834Y-68132D02*
X83834Y-68273D01*
X83824Y-68301D01*
X83806Y-68320D01*
X83778Y-68329D01*
X83759Y-68329D01*
X84031Y-68329D02*
X83918Y-68329D01*
X83975Y-68329D02*
X83975Y-68132D01*
X83956Y-68160D01*
X83937Y-68179D01*
X83918Y-68189D01*
X84704Y-62479D02*
X84704Y-62282D01*
X84779Y-62282D01*
X84798Y-62292D01*
X84807Y-62301D01*
X84817Y-62320D01*
X84817Y-62348D01*
X84807Y-62367D01*
X84798Y-62376D01*
X84779Y-62385D01*
X84704Y-62385D01*
X84995Y-62282D02*
X84901Y-62282D01*
X84892Y-62376D01*
X84901Y-62367D01*
X84920Y-62357D01*
X84967Y-62357D01*
X84986Y-62367D01*
X84995Y-62376D01*
X85004Y-62395D01*
X85004Y-62442D01*
X84995Y-62460D01*
X84986Y-62470D01*
X84967Y-62479D01*
X84920Y-62479D01*
X84901Y-62470D01*
X84892Y-62460D01*
X75454Y-60179D02*
X75454Y-59982D01*
X75529Y-59982D01*
X75548Y-59992D01*
X75557Y-60001D01*
X75567Y-60020D01*
X75567Y-60048D01*
X75557Y-60067D01*
X75548Y-60076D01*
X75529Y-60085D01*
X75454Y-60085D01*
X75754Y-60179D02*
X75642Y-60179D01*
X75698Y-60179D02*
X75698Y-59982D01*
X75679Y-60010D01*
X75660Y-60029D01*
X75642Y-60039D01*
X72154Y-62879D02*
X72154Y-62682D01*
X72229Y-62682D01*
X72248Y-62692D01*
X72257Y-62701D01*
X72267Y-62720D01*
X72267Y-62748D01*
X72257Y-62767D01*
X72248Y-62776D01*
X72229Y-62785D01*
X72154Y-62785D01*
X72436Y-62682D02*
X72398Y-62682D01*
X72379Y-62692D01*
X72370Y-62701D01*
X72351Y-62729D01*
X72342Y-62767D01*
X72342Y-62842D01*
X72351Y-62860D01*
X72360Y-62870D01*
X72379Y-62879D01*
X72417Y-62879D01*
X72436Y-62870D01*
X72445Y-62860D01*
X72454Y-62842D01*
X72454Y-62795D01*
X72445Y-62776D01*
X72436Y-62767D01*
X72417Y-62757D01*
X72379Y-62757D01*
X72360Y-62767D01*
X72351Y-62776D01*
X72342Y-62795D01*
X74754Y-67229D02*
X74754Y-67032D01*
X74829Y-67032D01*
X74848Y-67042D01*
X74857Y-67051D01*
X74867Y-67070D01*
X74867Y-67098D01*
X74857Y-67117D01*
X74848Y-67126D01*
X74829Y-67135D01*
X74754Y-67135D01*
X74942Y-67051D02*
X74951Y-67042D01*
X74970Y-67032D01*
X75017Y-67032D01*
X75036Y-67042D01*
X75045Y-67051D01*
X75054Y-67070D01*
X75054Y-67089D01*
X75045Y-67117D01*
X74932Y-67229D01*
X75054Y-67229D01*
M02*
