G04 (created by PCBNEW (2013-mar-13)-testing) date Чтв 20 Фев 2014 18:11:17*
%MOIN*%
G04 Gerber Fmt 3.4, Leading zero omitted, Abs format*
%FSLAX34Y34*%
G01*
G70*
G90*
G04 APERTURE LIST*
%ADD10C,0.005906*%
%ADD11C,0.010000*%
%ADD12C,0.004000*%
%ADD13C,0.003900*%
%ADD14C,0.006000*%
%ADD15C,0.005000*%
%ADD16C,0.012000*%
%ADD17C,0.002600*%
%ADD18C,0.002000*%
%ADD19C,0.004300*%
%ADD20C,0.003000*%
G04 APERTURE END LIST*
G54D10*
G54D11*
X54353Y-70480D02*
X54601Y-70480D01*
X54467Y-70633D01*
X54525Y-70633D01*
X54563Y-70652D01*
X54582Y-70671D01*
X54601Y-70709D01*
X54601Y-70804D01*
X54582Y-70842D01*
X54563Y-70861D01*
X54525Y-70880D01*
X54410Y-70880D01*
X54372Y-70861D01*
X54353Y-70842D01*
X54772Y-70842D02*
X54791Y-70861D01*
X54772Y-70880D01*
X54753Y-70861D01*
X54772Y-70842D01*
X54772Y-70880D01*
X54925Y-70480D02*
X55172Y-70480D01*
X55039Y-70633D01*
X55096Y-70633D01*
X55134Y-70652D01*
X55153Y-70671D01*
X55172Y-70709D01*
X55172Y-70804D01*
X55153Y-70842D01*
X55134Y-70861D01*
X55096Y-70880D01*
X54982Y-70880D01*
X54944Y-70861D01*
X54925Y-70842D01*
X55305Y-70614D02*
X55401Y-70880D01*
X55496Y-70614D01*
X54645Y-71475D02*
X54607Y-71455D01*
X54550Y-71455D01*
X54492Y-71475D01*
X54454Y-71513D01*
X54435Y-71551D01*
X54416Y-71627D01*
X54416Y-71684D01*
X54435Y-71760D01*
X54454Y-71798D01*
X54492Y-71836D01*
X54550Y-71855D01*
X54588Y-71855D01*
X54645Y-71836D01*
X54664Y-71817D01*
X54664Y-71684D01*
X54588Y-71684D01*
X54835Y-71855D02*
X54835Y-71455D01*
X55064Y-71855D01*
X55064Y-71455D01*
X55254Y-71855D02*
X55254Y-71455D01*
X55350Y-71455D01*
X55407Y-71475D01*
X55445Y-71513D01*
X55464Y-71551D01*
X55483Y-71627D01*
X55483Y-71684D01*
X55464Y-71760D01*
X55445Y-71798D01*
X55407Y-71836D01*
X55350Y-71855D01*
X55254Y-71855D01*
X54633Y-72880D02*
X54500Y-72690D01*
X54404Y-72880D02*
X54404Y-72480D01*
X54557Y-72480D01*
X54595Y-72500D01*
X54614Y-72519D01*
X54633Y-72557D01*
X54633Y-72614D01*
X54614Y-72652D01*
X54595Y-72671D01*
X54557Y-72690D01*
X54404Y-72690D01*
X54766Y-72480D02*
X55033Y-72880D01*
X55033Y-72480D02*
X54766Y-72880D01*
X54420Y-73430D02*
X54648Y-73430D01*
X54534Y-73830D02*
X54534Y-73430D01*
X54744Y-73430D02*
X55010Y-73830D01*
X55010Y-73430D02*
X54744Y-73830D01*
G54D12*
X61405Y-71547D02*
X61391Y-71561D01*
X61348Y-71575D01*
X61320Y-71575D01*
X61277Y-71561D01*
X61248Y-71532D01*
X61234Y-71504D01*
X61220Y-71447D01*
X61220Y-71404D01*
X61234Y-71347D01*
X61248Y-71318D01*
X61277Y-71290D01*
X61320Y-71275D01*
X61348Y-71275D01*
X61391Y-71290D01*
X61405Y-71304D01*
X61520Y-71490D02*
X61662Y-71490D01*
X61491Y-71575D02*
X61591Y-71275D01*
X61691Y-71575D01*
X61791Y-71575D02*
X61791Y-71275D01*
X61962Y-71575D01*
X61962Y-71275D01*
X62248Y-71575D02*
X62105Y-71575D01*
X62105Y-71275D01*
X61390Y-74027D02*
X61375Y-74041D01*
X61332Y-74055D01*
X61304Y-74055D01*
X61261Y-74041D01*
X61232Y-74012D01*
X61218Y-73984D01*
X61204Y-73927D01*
X61204Y-73884D01*
X61218Y-73827D01*
X61232Y-73798D01*
X61261Y-73770D01*
X61304Y-73755D01*
X61332Y-73755D01*
X61375Y-73770D01*
X61390Y-73784D01*
X61504Y-73970D02*
X61647Y-73970D01*
X61475Y-74055D02*
X61575Y-73755D01*
X61675Y-74055D01*
X61775Y-74055D02*
X61775Y-73755D01*
X61947Y-74055D01*
X61947Y-73755D01*
X62090Y-74055D02*
X62090Y-73755D01*
X62090Y-73898D02*
X62261Y-73898D01*
X62261Y-74055D02*
X62261Y-73755D01*
G54D13*
X56490Y-70250D02*
G75*
G03X56490Y-70250I-50J0D01*
G74*
G01*
X56440Y-70700D02*
X56440Y-70300D01*
X56440Y-70300D02*
X57040Y-70300D01*
X57040Y-70300D02*
X57040Y-70700D01*
X57040Y-71100D02*
X57040Y-71500D01*
X57040Y-71500D02*
X56440Y-71500D01*
X56440Y-71500D02*
X56440Y-71100D01*
X56310Y-71550D02*
G75*
G03X56310Y-71550I-50J0D01*
G74*
G01*
X56260Y-71100D02*
X56260Y-71500D01*
X56260Y-71500D02*
X55660Y-71500D01*
X55660Y-71500D02*
X55660Y-71100D01*
X55660Y-70700D02*
X55660Y-70300D01*
X55660Y-70300D02*
X56260Y-70300D01*
X56260Y-70300D02*
X56260Y-70700D01*
X58660Y-71000D02*
G75*
G03X58660Y-71000I-50J0D01*
G74*
G01*
X58160Y-71000D02*
X58560Y-71000D01*
X58560Y-71000D02*
X58560Y-71600D01*
X58560Y-71600D02*
X58160Y-71600D01*
X57760Y-71600D02*
X57360Y-71600D01*
X57360Y-71600D02*
X57360Y-71000D01*
X57360Y-71000D02*
X57760Y-71000D01*
X60025Y-71600D02*
G75*
G03X60025Y-71600I-50J0D01*
G74*
G01*
X59975Y-71150D02*
X59975Y-71550D01*
X59975Y-71550D02*
X59375Y-71550D01*
X59375Y-71550D02*
X59375Y-71150D01*
X59375Y-70750D02*
X59375Y-70350D01*
X59375Y-70350D02*
X59975Y-70350D01*
X59975Y-70350D02*
X59975Y-70750D01*
G54D11*
X53250Y-74175D02*
X53250Y-70175D01*
X54250Y-74175D02*
X54250Y-70175D01*
X54250Y-70175D02*
X53250Y-70175D01*
X53250Y-74175D02*
X54250Y-74175D01*
G54D14*
X61240Y-71660D02*
X62240Y-71660D01*
X62240Y-71660D02*
X62240Y-73660D01*
X62240Y-73660D02*
X61240Y-73660D01*
X61240Y-73660D02*
X61240Y-71660D01*
G54D15*
X56460Y-71890D02*
X56410Y-71890D01*
X56410Y-71890D02*
X56410Y-73990D01*
X57910Y-73990D02*
X57910Y-71890D01*
X57910Y-71890D02*
X56460Y-71890D01*
X57360Y-71890D02*
X57360Y-72090D01*
X57360Y-72090D02*
X56960Y-72090D01*
X56960Y-72090D02*
X56960Y-71890D01*
X57910Y-73990D02*
X56410Y-73990D01*
G54D13*
X60500Y-71650D02*
G75*
G03X60500Y-71650I-50J0D01*
G74*
G01*
X60450Y-72100D02*
X60450Y-71700D01*
X60450Y-71700D02*
X61050Y-71700D01*
X61050Y-71700D02*
X61050Y-72100D01*
X61050Y-72500D02*
X61050Y-72900D01*
X61050Y-72900D02*
X60450Y-72900D01*
X60450Y-72900D02*
X60450Y-72500D01*
G54D14*
X60240Y-74180D02*
X59240Y-74180D01*
X59240Y-73180D02*
X60240Y-73180D01*
X59240Y-74180D02*
X59240Y-73180D01*
X60240Y-73180D02*
X60240Y-74180D01*
G54D16*
X62950Y-74150D02*
X62950Y-70150D01*
X62450Y-74150D02*
X65450Y-74150D01*
X65450Y-74150D02*
X65450Y-70150D01*
X65450Y-70150D02*
X62450Y-70150D01*
X62450Y-70150D02*
X62450Y-74150D01*
G54D17*
X58279Y-70432D02*
X58279Y-70304D01*
X58279Y-70304D02*
X58082Y-70304D01*
X58082Y-70432D02*
X58082Y-70304D01*
X58279Y-70432D02*
X58082Y-70432D01*
X58279Y-70677D02*
X58279Y-70618D01*
X58279Y-70618D02*
X58180Y-70618D01*
X58180Y-70677D02*
X58180Y-70618D01*
X58279Y-70677D02*
X58180Y-70677D01*
X58279Y-70482D02*
X58279Y-70423D01*
X58279Y-70423D02*
X58180Y-70423D01*
X58180Y-70482D02*
X58180Y-70423D01*
X58279Y-70482D02*
X58180Y-70482D01*
X58279Y-70628D02*
X58279Y-70472D01*
X58279Y-70472D02*
X58210Y-70472D01*
X58210Y-70628D02*
X58210Y-70472D01*
X58279Y-70628D02*
X58210Y-70628D01*
X58868Y-70432D02*
X58868Y-70304D01*
X58868Y-70304D02*
X58671Y-70304D01*
X58671Y-70432D02*
X58671Y-70304D01*
X58868Y-70432D02*
X58671Y-70432D01*
X58868Y-70796D02*
X58868Y-70668D01*
X58868Y-70668D02*
X58671Y-70668D01*
X58671Y-70796D02*
X58671Y-70668D01*
X58868Y-70796D02*
X58671Y-70796D01*
X58770Y-70482D02*
X58770Y-70423D01*
X58770Y-70423D02*
X58671Y-70423D01*
X58671Y-70482D02*
X58671Y-70423D01*
X58770Y-70482D02*
X58671Y-70482D01*
X58770Y-70677D02*
X58770Y-70618D01*
X58770Y-70618D02*
X58671Y-70618D01*
X58671Y-70677D02*
X58671Y-70618D01*
X58770Y-70677D02*
X58671Y-70677D01*
X58740Y-70628D02*
X58740Y-70472D01*
X58740Y-70472D02*
X58671Y-70472D01*
X58671Y-70628D02*
X58671Y-70472D01*
X58740Y-70628D02*
X58671Y-70628D01*
X58475Y-70589D02*
X58475Y-70511D01*
X58475Y-70511D02*
X58397Y-70511D01*
X58397Y-70589D02*
X58397Y-70511D01*
X58475Y-70589D02*
X58397Y-70589D01*
X58279Y-70786D02*
X58279Y-70668D01*
X58279Y-70668D02*
X58161Y-70668D01*
X58161Y-70786D02*
X58161Y-70668D01*
X58279Y-70786D02*
X58161Y-70786D01*
X58111Y-70796D02*
X58111Y-70707D01*
X58111Y-70707D02*
X58082Y-70707D01*
X58082Y-70796D02*
X58082Y-70707D01*
X58111Y-70796D02*
X58082Y-70796D01*
G54D12*
X58269Y-70324D02*
X58681Y-70324D01*
X58671Y-70776D02*
X58111Y-70776D01*
G54D18*
X58169Y-70727D02*
G75*
G03X58169Y-70727I-28J0D01*
G74*
G01*
G54D12*
X58082Y-70687D02*
G75*
G03X58082Y-70413I0J137D01*
G74*
G01*
X58868Y-70413D02*
G75*
G03X58868Y-70687I0J-137D01*
G74*
G01*
G54D16*
X60175Y-71175D02*
X60175Y-70175D01*
X60175Y-70175D02*
X62175Y-70175D01*
X62175Y-70175D02*
X62175Y-71175D01*
X62175Y-71175D02*
X60175Y-71175D01*
G54D12*
X56585Y-70989D02*
X56573Y-71001D01*
X56537Y-71013D01*
X56513Y-71013D01*
X56478Y-71001D01*
X56454Y-70977D01*
X56442Y-70953D01*
X56430Y-70905D01*
X56430Y-70870D01*
X56442Y-70822D01*
X56454Y-70798D01*
X56478Y-70775D01*
X56513Y-70763D01*
X56537Y-70763D01*
X56573Y-70775D01*
X56585Y-70786D01*
X56799Y-70846D02*
X56799Y-71013D01*
X56740Y-70751D02*
X56680Y-70929D01*
X56835Y-70929D01*
X56906Y-70763D02*
X57073Y-70763D01*
X56966Y-71013D01*
X57299Y-71013D02*
X57156Y-71013D01*
X57228Y-71013D02*
X57228Y-70763D01*
X57204Y-70798D01*
X57180Y-70822D01*
X57156Y-70834D01*
X55630Y-70989D02*
X55618Y-71001D01*
X55582Y-71013D01*
X55558Y-71013D01*
X55523Y-71001D01*
X55499Y-70977D01*
X55487Y-70953D01*
X55475Y-70905D01*
X55475Y-70870D01*
X55487Y-70822D01*
X55499Y-70798D01*
X55523Y-70775D01*
X55558Y-70763D01*
X55582Y-70763D01*
X55618Y-70775D01*
X55630Y-70786D01*
X55844Y-70846D02*
X55844Y-71013D01*
X55785Y-70751D02*
X55725Y-70929D01*
X55880Y-70929D01*
X55951Y-70763D02*
X56118Y-70763D01*
X56011Y-71013D01*
X56201Y-70786D02*
X56213Y-70775D01*
X56237Y-70763D01*
X56296Y-70763D01*
X56320Y-70775D01*
X56332Y-70786D01*
X56344Y-70810D01*
X56344Y-70834D01*
X56332Y-70870D01*
X56189Y-71013D01*
X56344Y-71013D01*
X58123Y-71679D02*
X58004Y-71763D01*
X58123Y-71822D02*
X57873Y-71822D01*
X57873Y-71727D01*
X57885Y-71703D01*
X57896Y-71691D01*
X57920Y-71679D01*
X57956Y-71679D01*
X57980Y-71691D01*
X57992Y-71703D01*
X58004Y-71727D01*
X58004Y-71822D01*
X57956Y-71465D02*
X58123Y-71465D01*
X57861Y-71525D02*
X58039Y-71584D01*
X58039Y-71429D01*
X57873Y-71358D02*
X57873Y-71191D01*
X58123Y-71298D01*
X58123Y-70965D02*
X58123Y-71108D01*
X58123Y-71036D02*
X57873Y-71036D01*
X57908Y-71060D01*
X57932Y-71084D01*
X57944Y-71108D01*
X59395Y-71063D02*
X59311Y-70944D01*
X59252Y-71063D02*
X59252Y-70813D01*
X59347Y-70813D01*
X59371Y-70825D01*
X59383Y-70836D01*
X59395Y-70860D01*
X59395Y-70896D01*
X59383Y-70920D01*
X59371Y-70932D01*
X59347Y-70944D01*
X59252Y-70944D01*
X59609Y-70896D02*
X59609Y-71063D01*
X59550Y-70801D02*
X59490Y-70979D01*
X59645Y-70979D01*
X59716Y-70813D02*
X59883Y-70813D01*
X59776Y-71063D01*
X59966Y-70836D02*
X59978Y-70825D01*
X60002Y-70813D01*
X60061Y-70813D01*
X60085Y-70825D01*
X60097Y-70836D01*
X60109Y-70860D01*
X60109Y-70884D01*
X60097Y-70920D01*
X59954Y-71063D01*
X60109Y-71063D01*
X57081Y-72803D02*
X57081Y-73005D01*
X57093Y-73029D01*
X57105Y-73041D01*
X57129Y-73053D01*
X57176Y-73053D01*
X57200Y-73041D01*
X57212Y-73029D01*
X57224Y-73005D01*
X57224Y-72803D01*
X57450Y-72886D02*
X57450Y-73053D01*
X57390Y-72791D02*
X57331Y-72969D01*
X57486Y-72969D01*
X57557Y-72803D02*
X57724Y-72803D01*
X57617Y-73053D01*
X57950Y-73053D02*
X57807Y-73053D01*
X57879Y-73053D02*
X57879Y-72803D01*
X57855Y-72838D01*
X57831Y-72862D01*
X57807Y-72874D01*
G54D19*
X60654Y-72389D02*
X60588Y-72295D01*
X60541Y-72389D02*
X60541Y-72192D01*
X60617Y-72192D01*
X60635Y-72201D01*
X60645Y-72210D01*
X60654Y-72229D01*
X60654Y-72257D01*
X60645Y-72276D01*
X60635Y-72285D01*
X60617Y-72295D01*
X60541Y-72295D01*
X60823Y-72257D02*
X60823Y-72389D01*
X60776Y-72182D02*
X60729Y-72323D01*
X60851Y-72323D01*
X60907Y-72192D02*
X61039Y-72192D01*
X60954Y-72389D01*
X61095Y-72192D02*
X61217Y-72192D01*
X61151Y-72267D01*
X61179Y-72267D01*
X61198Y-72276D01*
X61208Y-72285D01*
X61217Y-72304D01*
X61217Y-72351D01*
X61208Y-72370D01*
X61198Y-72379D01*
X61179Y-72389D01*
X61123Y-72389D01*
X61104Y-72379D01*
X61095Y-72370D01*
G54D16*
X65171Y-72592D02*
X64571Y-72592D01*
X64571Y-72364D01*
X64600Y-72307D01*
X64628Y-72278D01*
X64685Y-72250D01*
X64771Y-72250D01*
X64828Y-72278D01*
X64857Y-72307D01*
X64885Y-72364D01*
X64885Y-72592D01*
X65171Y-71678D02*
X65171Y-72021D01*
X65171Y-71850D02*
X64571Y-71850D01*
X64657Y-71907D01*
X64714Y-71964D01*
X64742Y-72021D01*
G54D19*
X58052Y-70663D02*
X58052Y-70413D01*
X58111Y-70413D01*
X58147Y-70425D01*
X58171Y-70448D01*
X58183Y-70472D01*
X58195Y-70520D01*
X58195Y-70555D01*
X58183Y-70603D01*
X58171Y-70627D01*
X58147Y-70651D01*
X58111Y-70663D01*
X58052Y-70663D01*
X58409Y-70496D02*
X58409Y-70663D01*
X58350Y-70401D02*
X58290Y-70579D01*
X58445Y-70579D01*
X58516Y-70413D02*
X58683Y-70413D01*
X58576Y-70663D01*
X58909Y-70663D02*
X58766Y-70663D01*
X58838Y-70663D02*
X58838Y-70413D01*
X58814Y-70448D01*
X58790Y-70472D01*
X58766Y-70484D01*
G54D20*
X60639Y-70510D02*
X60639Y-70725D01*
X60625Y-70767D01*
X60596Y-70796D01*
X60553Y-70810D01*
X60525Y-70810D01*
X60782Y-70810D02*
X60782Y-70510D01*
X60896Y-70510D01*
X60925Y-70525D01*
X60939Y-70539D01*
X60953Y-70567D01*
X60953Y-70610D01*
X60939Y-70639D01*
X60925Y-70653D01*
X60896Y-70667D01*
X60782Y-70667D01*
X61210Y-70610D02*
X61210Y-70810D01*
X61139Y-70496D02*
X61067Y-70710D01*
X61253Y-70710D01*
X61339Y-70510D02*
X61539Y-70510D01*
X61410Y-70810D01*
X61810Y-70810D02*
X61639Y-70810D01*
X61725Y-70810D02*
X61725Y-70510D01*
X61696Y-70553D01*
X61667Y-70582D01*
X61639Y-70596D01*
M02*
