G04 (created by PCBNEW (2013-07-07 BZR 4022)-stable) date 1/6/2014 9:11:52 PM*
%MOIN*%
G04 Gerber Fmt 3.4, Leading zero omitted, Abs format*
%FSLAX34Y34*%
G01*
G70*
G90*
G04 APERTURE LIST*
%ADD10C,0.00590551*%
%ADD11C,0.004*%
%ADD12C,0.0039*%
%ADD13C,0.0026*%
%ADD14C,0.002*%
%ADD15C,0.01*%
%ADD16C,0.006*%
%ADD17C,0.005*%
G04 APERTURE END LIST*
G54D10*
G54D11*
X77443Y-48685D02*
X77434Y-48695D01*
X77406Y-48704D01*
X77387Y-48704D01*
X77359Y-48695D01*
X77340Y-48676D01*
X77331Y-48657D01*
X77321Y-48620D01*
X77321Y-48592D01*
X77331Y-48554D01*
X77340Y-48535D01*
X77359Y-48517D01*
X77387Y-48507D01*
X77406Y-48507D01*
X77434Y-48517D01*
X77443Y-48526D01*
X77518Y-48648D02*
X77612Y-48648D01*
X77499Y-48704D02*
X77565Y-48507D01*
X77631Y-48704D01*
X77696Y-48704D02*
X77696Y-48507D01*
X77809Y-48704D01*
X77809Y-48507D01*
X77997Y-48704D02*
X77903Y-48704D01*
X77903Y-48507D01*
X77420Y-49710D02*
X77410Y-49720D01*
X77382Y-49729D01*
X77363Y-49729D01*
X77335Y-49720D01*
X77316Y-49701D01*
X77307Y-49682D01*
X77298Y-49645D01*
X77298Y-49617D01*
X77307Y-49579D01*
X77316Y-49560D01*
X77335Y-49542D01*
X77363Y-49532D01*
X77382Y-49532D01*
X77410Y-49542D01*
X77420Y-49551D01*
X77495Y-49673D02*
X77589Y-49673D01*
X77476Y-49729D02*
X77542Y-49532D01*
X77607Y-49729D01*
X77673Y-49729D02*
X77673Y-49532D01*
X77786Y-49729D01*
X77786Y-49532D01*
X77879Y-49729D02*
X77879Y-49532D01*
X77879Y-49626D02*
X77992Y-49626D01*
X77992Y-49729D02*
X77992Y-49532D01*
X71407Y-50687D02*
X71407Y-50574D01*
X71604Y-50630D02*
X71407Y-50630D01*
X71407Y-50527D02*
X71604Y-50396D01*
X71407Y-50396D02*
X71604Y-50527D01*
X71604Y-49608D02*
X71510Y-49673D01*
X71604Y-49720D02*
X71407Y-49720D01*
X71407Y-49645D01*
X71417Y-49626D01*
X71426Y-49617D01*
X71445Y-49608D01*
X71473Y-49608D01*
X71492Y-49617D01*
X71501Y-49626D01*
X71510Y-49645D01*
X71510Y-49720D01*
X71407Y-49542D02*
X71604Y-49411D01*
X71407Y-49411D02*
X71604Y-49542D01*
X71417Y-48632D02*
X71407Y-48651D01*
X71407Y-48679D01*
X71417Y-48707D01*
X71435Y-48726D01*
X71454Y-48735D01*
X71492Y-48745D01*
X71520Y-48745D01*
X71557Y-48735D01*
X71576Y-48726D01*
X71595Y-48707D01*
X71604Y-48679D01*
X71604Y-48660D01*
X71595Y-48632D01*
X71585Y-48623D01*
X71520Y-48623D01*
X71520Y-48660D01*
X71604Y-48538D02*
X71407Y-48538D01*
X71604Y-48426D01*
X71407Y-48426D01*
X71604Y-48332D02*
X71407Y-48332D01*
X71407Y-48285D01*
X71417Y-48257D01*
X71435Y-48238D01*
X71454Y-48229D01*
X71492Y-48219D01*
X71520Y-48219D01*
X71557Y-48229D01*
X71576Y-48238D01*
X71595Y-48257D01*
X71604Y-48285D01*
X71604Y-48332D01*
X71407Y-47441D02*
X71407Y-47535D01*
X71501Y-47544D01*
X71492Y-47535D01*
X71482Y-47516D01*
X71482Y-47469D01*
X71492Y-47450D01*
X71501Y-47441D01*
X71520Y-47431D01*
X71567Y-47431D01*
X71585Y-47441D01*
X71595Y-47450D01*
X71604Y-47469D01*
X71604Y-47516D01*
X71595Y-47535D01*
X71585Y-47544D01*
X71473Y-47366D02*
X71604Y-47319D01*
X71473Y-47272D01*
G54D12*
X74025Y-47050D02*
G75*
G03X74025Y-47050I-50J0D01*
G74*
G01*
X73975Y-47500D02*
X73975Y-47100D01*
X73975Y-47100D02*
X74575Y-47100D01*
X74575Y-47100D02*
X74575Y-47500D01*
X74575Y-47900D02*
X74575Y-48300D01*
X74575Y-48300D02*
X73975Y-48300D01*
X73975Y-48300D02*
X73975Y-47900D01*
X73800Y-48325D02*
G75*
G03X73800Y-48325I-50J0D01*
G74*
G01*
X73750Y-47875D02*
X73750Y-48275D01*
X73750Y-48275D02*
X73150Y-48275D01*
X73150Y-48275D02*
X73150Y-47875D01*
X73150Y-47475D02*
X73150Y-47075D01*
X73150Y-47075D02*
X73750Y-47075D01*
X73750Y-47075D02*
X73750Y-47475D01*
G54D13*
X75254Y-47232D02*
X75254Y-47104D01*
X75254Y-47104D02*
X75057Y-47104D01*
X75057Y-47232D02*
X75057Y-47104D01*
X75254Y-47232D02*
X75057Y-47232D01*
X75254Y-47477D02*
X75254Y-47418D01*
X75254Y-47418D02*
X75155Y-47418D01*
X75155Y-47477D02*
X75155Y-47418D01*
X75254Y-47477D02*
X75155Y-47477D01*
X75254Y-47282D02*
X75254Y-47223D01*
X75254Y-47223D02*
X75155Y-47223D01*
X75155Y-47282D02*
X75155Y-47223D01*
X75254Y-47282D02*
X75155Y-47282D01*
X75254Y-47428D02*
X75254Y-47272D01*
X75254Y-47272D02*
X75185Y-47272D01*
X75185Y-47428D02*
X75185Y-47272D01*
X75254Y-47428D02*
X75185Y-47428D01*
X75843Y-47232D02*
X75843Y-47104D01*
X75843Y-47104D02*
X75646Y-47104D01*
X75646Y-47232D02*
X75646Y-47104D01*
X75843Y-47232D02*
X75646Y-47232D01*
X75843Y-47596D02*
X75843Y-47468D01*
X75843Y-47468D02*
X75646Y-47468D01*
X75646Y-47596D02*
X75646Y-47468D01*
X75843Y-47596D02*
X75646Y-47596D01*
X75745Y-47282D02*
X75745Y-47223D01*
X75745Y-47223D02*
X75646Y-47223D01*
X75646Y-47282D02*
X75646Y-47223D01*
X75745Y-47282D02*
X75646Y-47282D01*
X75745Y-47477D02*
X75745Y-47418D01*
X75745Y-47418D02*
X75646Y-47418D01*
X75646Y-47477D02*
X75646Y-47418D01*
X75745Y-47477D02*
X75646Y-47477D01*
X75715Y-47428D02*
X75715Y-47272D01*
X75715Y-47272D02*
X75646Y-47272D01*
X75646Y-47428D02*
X75646Y-47272D01*
X75715Y-47428D02*
X75646Y-47428D01*
X75450Y-47389D02*
X75450Y-47311D01*
X75450Y-47311D02*
X75372Y-47311D01*
X75372Y-47389D02*
X75372Y-47311D01*
X75450Y-47389D02*
X75372Y-47389D01*
X75254Y-47586D02*
X75254Y-47468D01*
X75254Y-47468D02*
X75136Y-47468D01*
X75136Y-47586D02*
X75136Y-47468D01*
X75254Y-47586D02*
X75136Y-47586D01*
X75086Y-47596D02*
X75086Y-47507D01*
X75086Y-47507D02*
X75057Y-47507D01*
X75057Y-47596D02*
X75057Y-47507D01*
X75086Y-47596D02*
X75057Y-47596D01*
G54D11*
X75244Y-47124D02*
X75656Y-47124D01*
X75646Y-47576D02*
X75086Y-47576D01*
G54D14*
X75144Y-47527D02*
G75*
G03X75144Y-47527I-28J0D01*
G74*
G01*
G54D11*
X75057Y-47487D02*
G75*
G03X75057Y-47213I0J137D01*
G74*
G01*
X75843Y-47213D02*
G75*
G03X75843Y-47487I0J-137D01*
G74*
G01*
G54D12*
X76100Y-47800D02*
G75*
G03X76100Y-47800I-50J0D01*
G74*
G01*
X75600Y-47800D02*
X76000Y-47800D01*
X76000Y-47800D02*
X76000Y-48400D01*
X76000Y-48400D02*
X75600Y-48400D01*
X75200Y-48400D02*
X74800Y-48400D01*
X74800Y-48400D02*
X74800Y-47800D01*
X74800Y-47800D02*
X75200Y-47800D01*
X77225Y-48400D02*
G75*
G03X77225Y-48400I-50J0D01*
G74*
G01*
X77175Y-47950D02*
X77175Y-48350D01*
X77175Y-48350D02*
X76575Y-48350D01*
X76575Y-48350D02*
X76575Y-47950D01*
X76575Y-47550D02*
X76575Y-47150D01*
X76575Y-47150D02*
X77175Y-47150D01*
X77175Y-47150D02*
X77175Y-47550D01*
G54D15*
X70250Y-50975D02*
X70250Y-46975D01*
X71250Y-50975D02*
X71250Y-46975D01*
X71250Y-46975D02*
X70250Y-46975D01*
X70250Y-50975D02*
X71250Y-50975D01*
G54D16*
X78125Y-48150D02*
X79125Y-48150D01*
X79125Y-48150D02*
X79125Y-50150D01*
X79125Y-50150D02*
X78125Y-50150D01*
X78125Y-50150D02*
X78125Y-48150D01*
G54D17*
X73875Y-48650D02*
X73825Y-48650D01*
X73825Y-48650D02*
X73825Y-50750D01*
X75325Y-50750D02*
X75325Y-48650D01*
X75325Y-48650D02*
X73875Y-48650D01*
X74775Y-48650D02*
X74775Y-48850D01*
X74775Y-48850D02*
X74375Y-48850D01*
X74375Y-48850D02*
X74375Y-48650D01*
X75325Y-50750D02*
X73825Y-50750D01*
G54D11*
X74242Y-47760D02*
X74232Y-47770D01*
X74204Y-47779D01*
X74185Y-47779D01*
X74157Y-47770D01*
X74138Y-47751D01*
X74129Y-47732D01*
X74120Y-47695D01*
X74120Y-47667D01*
X74129Y-47629D01*
X74138Y-47610D01*
X74157Y-47592D01*
X74185Y-47582D01*
X74204Y-47582D01*
X74232Y-47592D01*
X74242Y-47601D01*
X74429Y-47779D02*
X74317Y-47779D01*
X74373Y-47779D02*
X74373Y-47582D01*
X74354Y-47610D01*
X74335Y-47629D01*
X74317Y-47639D01*
X73417Y-47735D02*
X73407Y-47745D01*
X73379Y-47754D01*
X73360Y-47754D01*
X73332Y-47745D01*
X73313Y-47726D01*
X73304Y-47707D01*
X73295Y-47670D01*
X73295Y-47642D01*
X73304Y-47604D01*
X73313Y-47585D01*
X73332Y-47567D01*
X73360Y-47557D01*
X73379Y-47557D01*
X73407Y-47567D01*
X73417Y-47576D01*
X73492Y-47576D02*
X73501Y-47567D01*
X73520Y-47557D01*
X73567Y-47557D01*
X73586Y-47567D01*
X73595Y-47576D01*
X73604Y-47595D01*
X73604Y-47614D01*
X73595Y-47642D01*
X73482Y-47754D01*
X73604Y-47754D01*
X75304Y-47429D02*
X75304Y-47232D01*
X75351Y-47232D01*
X75379Y-47242D01*
X75398Y-47260D01*
X75407Y-47279D01*
X75417Y-47317D01*
X75417Y-47345D01*
X75407Y-47382D01*
X75398Y-47401D01*
X75379Y-47420D01*
X75351Y-47429D01*
X75304Y-47429D01*
X75604Y-47429D02*
X75492Y-47429D01*
X75548Y-47429D02*
X75548Y-47232D01*
X75529Y-47260D01*
X75510Y-47279D01*
X75492Y-47289D01*
X75417Y-48179D02*
X75351Y-48085D01*
X75304Y-48179D02*
X75304Y-47982D01*
X75379Y-47982D01*
X75398Y-47992D01*
X75407Y-48001D01*
X75417Y-48020D01*
X75417Y-48048D01*
X75407Y-48067D01*
X75398Y-48076D01*
X75379Y-48085D01*
X75304Y-48085D01*
X75604Y-48179D02*
X75492Y-48179D01*
X75548Y-48179D02*
X75548Y-47982D01*
X75529Y-48010D01*
X75510Y-48029D01*
X75492Y-48039D01*
X76842Y-47829D02*
X76776Y-47735D01*
X76729Y-47829D02*
X76729Y-47632D01*
X76804Y-47632D01*
X76823Y-47642D01*
X76832Y-47651D01*
X76842Y-47670D01*
X76842Y-47698D01*
X76832Y-47717D01*
X76823Y-47726D01*
X76804Y-47735D01*
X76729Y-47735D01*
X76917Y-47651D02*
X76926Y-47642D01*
X76945Y-47632D01*
X76992Y-47632D01*
X77011Y-47642D01*
X77020Y-47651D01*
X77029Y-47670D01*
X77029Y-47689D01*
X77020Y-47717D01*
X76907Y-47829D01*
X77029Y-47829D01*
X71354Y-49079D02*
X71354Y-48882D01*
X71429Y-48882D01*
X71448Y-48892D01*
X71457Y-48901D01*
X71467Y-48920D01*
X71467Y-48948D01*
X71457Y-48967D01*
X71448Y-48976D01*
X71429Y-48985D01*
X71354Y-48985D01*
X71654Y-49079D02*
X71542Y-49079D01*
X71598Y-49079D02*
X71598Y-48882D01*
X71579Y-48910D01*
X71560Y-48929D01*
X71542Y-48939D01*
X77729Y-49279D02*
X77729Y-49082D01*
X77804Y-49082D01*
X77823Y-49092D01*
X77832Y-49101D01*
X77842Y-49120D01*
X77842Y-49148D01*
X77832Y-49167D01*
X77823Y-49176D01*
X77804Y-49185D01*
X77729Y-49185D01*
X77917Y-49101D02*
X77926Y-49092D01*
X77945Y-49082D01*
X77992Y-49082D01*
X78011Y-49092D01*
X78020Y-49101D01*
X78029Y-49120D01*
X78029Y-49139D01*
X78020Y-49167D01*
X77907Y-49279D01*
X78029Y-49279D01*
X74774Y-49582D02*
X74774Y-49742D01*
X74784Y-49760D01*
X74793Y-49770D01*
X74812Y-49779D01*
X74849Y-49779D01*
X74868Y-49770D01*
X74878Y-49760D01*
X74887Y-49742D01*
X74887Y-49582D01*
X75084Y-49779D02*
X74971Y-49779D01*
X75028Y-49779D02*
X75028Y-49582D01*
X75009Y-49610D01*
X74990Y-49629D01*
X74971Y-49639D01*
M02*
