G04 (created by PCBNEW (2013-07-07 BZR 4022)-stable) date 27/12/2013 08:41:32*
%MOIN*%
G04 Gerber Fmt 3.4, Leading zero omitted, Abs format*
%FSLAX34Y34*%
G01*
G70*
G90*
G04 APERTURE LIST*
%ADD10C,0.00590551*%
%ADD11R,0.035X0.055*%
%ADD12R,0.055X0.035*%
%ADD13R,0.0472X0.0472*%
%ADD14R,0.065X0.016*%
%ADD15R,0.06X0.06*%
%ADD16C,0.06*%
%ADD17R,0.02X0.1*%
%ADD18R,0.0787402X0.11*%
%ADD19R,0.03X0.06*%
%ADD20R,0.04X0.06*%
%ADD21R,0.06X0.08*%
%ADD22C,0.035*%
%ADD23C,0.01*%
%ADD24C,0.00984252*%
G04 APERTURE END LIST*
G54D10*
G54D11*
X81275Y-66350D03*
X82025Y-66350D03*
G54D12*
X83800Y-64625D03*
X83800Y-65375D03*
G54D11*
X83525Y-66200D03*
X84275Y-66200D03*
X80475Y-65500D03*
X81225Y-65500D03*
G54D12*
X83650Y-62425D03*
X83650Y-63175D03*
G54D11*
X84225Y-63850D03*
X83475Y-63850D03*
G54D13*
X85000Y-64363D03*
X85000Y-63537D03*
X78950Y-65363D03*
X78950Y-64537D03*
G54D11*
X81225Y-67200D03*
X80475Y-67200D03*
G54D12*
X85000Y-65725D03*
X85000Y-64975D03*
G54D11*
X78975Y-66100D03*
X79725Y-66100D03*
G54D14*
X79833Y-62722D03*
X79833Y-62978D03*
X79833Y-63234D03*
X79833Y-63490D03*
X82667Y-61954D03*
X79833Y-61954D03*
X79833Y-62210D03*
X79833Y-62466D03*
X82667Y-63746D03*
X82667Y-63490D03*
X82667Y-63234D03*
X82667Y-62978D03*
X82667Y-62722D03*
X82667Y-62466D03*
X79833Y-63746D03*
X82667Y-62210D03*
X82667Y-61698D03*
X82667Y-61443D03*
X82667Y-61187D03*
X79833Y-61187D03*
X79833Y-61443D03*
X79833Y-61698D03*
X79833Y-64002D03*
X79833Y-64257D03*
X79833Y-64513D03*
X82667Y-64513D03*
X82667Y-64257D03*
X82667Y-64002D03*
G54D13*
X76587Y-63800D03*
X77413Y-63800D03*
G54D11*
X75225Y-63800D03*
X75975Y-63800D03*
G54D15*
X81100Y-69900D03*
G54D16*
X80100Y-69900D03*
X79100Y-69900D03*
G54D15*
X70000Y-60984D03*
G54D16*
X71000Y-60984D03*
X70000Y-61984D03*
X71000Y-61984D03*
X70000Y-62984D03*
X71000Y-62984D03*
X70000Y-63984D03*
X71000Y-63984D03*
X70000Y-64984D03*
X71000Y-64984D03*
X70000Y-65984D03*
X71000Y-65984D03*
X70000Y-66984D03*
X71000Y-66984D03*
X70000Y-67984D03*
X71000Y-67984D03*
X70000Y-68984D03*
X71000Y-68984D03*
X70000Y-69984D03*
X71000Y-69984D03*
G54D15*
X86650Y-60984D03*
G54D16*
X87650Y-60984D03*
X86650Y-61984D03*
X87650Y-61984D03*
X86650Y-62984D03*
X87650Y-62984D03*
X86650Y-63984D03*
X87650Y-63984D03*
X86650Y-64984D03*
X87650Y-64984D03*
X86650Y-65984D03*
X87650Y-65984D03*
X86650Y-66984D03*
X87650Y-66984D03*
X86650Y-67984D03*
X87650Y-67984D03*
X86650Y-68984D03*
X87650Y-68984D03*
X86650Y-69984D03*
X87650Y-69984D03*
G54D17*
X83270Y-67350D03*
X83585Y-67350D03*
X83900Y-67350D03*
X84214Y-67350D03*
X84529Y-67350D03*
G54D18*
X82128Y-69631D03*
X85671Y-69631D03*
X82128Y-67465D03*
X85671Y-67465D03*
G54D15*
X85550Y-62400D03*
X73400Y-61850D03*
G54D16*
X73400Y-60850D03*
X74400Y-61850D03*
X74400Y-60850D03*
X75400Y-61850D03*
X75400Y-60850D03*
X76400Y-61850D03*
X76400Y-60850D03*
X77400Y-61850D03*
X77400Y-60850D03*
G54D15*
X72300Y-63550D03*
G54D19*
X75832Y-64900D03*
X75399Y-64900D03*
X74966Y-64900D03*
X74533Y-64900D03*
X74100Y-64900D03*
X73666Y-64900D03*
X73233Y-64900D03*
X72800Y-64900D03*
X72367Y-64900D03*
G54D20*
X71837Y-65136D03*
G54D21*
X71974Y-68983D03*
X78037Y-68983D03*
G54D15*
X77714Y-65054D03*
G54D22*
X78350Y-61300D03*
X73200Y-64250D03*
X86000Y-64750D03*
X85700Y-63600D03*
X77450Y-66950D03*
X74250Y-63950D03*
X75950Y-62900D03*
X77700Y-62900D03*
X74950Y-65500D03*
X74100Y-65500D03*
X74700Y-66650D03*
X78700Y-63300D03*
X76050Y-66300D03*
X77450Y-66350D03*
X77100Y-68200D03*
X78400Y-67600D03*
X81750Y-63700D03*
X80650Y-63650D03*
X72600Y-61750D03*
X78500Y-60250D03*
X81650Y-61550D03*
G54D23*
X75225Y-63800D02*
X75225Y-64350D01*
X75225Y-64350D02*
X75250Y-64350D01*
X73400Y-61850D02*
X73650Y-61850D01*
X75225Y-62975D02*
X75225Y-63800D01*
X74750Y-62500D02*
X75225Y-62975D01*
X74300Y-62500D02*
X74750Y-62500D01*
X73650Y-61850D02*
X74300Y-62500D01*
X75025Y-64350D02*
X74750Y-64350D01*
X75050Y-64350D02*
X75250Y-64350D01*
X75025Y-64350D02*
X75050Y-64350D01*
X74750Y-64350D02*
X74533Y-64566D01*
X74533Y-64566D02*
X74533Y-64900D01*
X76950Y-64850D02*
X76950Y-65300D01*
X76950Y-65300D02*
X77550Y-65900D01*
X77550Y-65900D02*
X78000Y-66350D01*
X78000Y-66350D02*
X78000Y-67900D01*
X78000Y-67900D02*
X78300Y-68200D01*
X78300Y-68200D02*
X78750Y-68200D01*
X78750Y-68200D02*
X79100Y-68550D01*
X79100Y-68550D02*
X79100Y-69900D01*
X75250Y-64350D02*
X76450Y-64350D01*
X76450Y-64350D02*
X76950Y-64850D01*
X78950Y-61954D02*
X78946Y-61954D01*
X78946Y-61954D02*
X78150Y-62750D01*
X75850Y-63300D02*
X74400Y-61850D01*
X77850Y-63300D02*
X75850Y-63300D01*
X78150Y-63000D02*
X77850Y-63300D01*
X78150Y-62750D02*
X78150Y-63000D01*
X79200Y-61954D02*
X78950Y-61954D01*
X79833Y-61954D02*
X79200Y-61954D01*
X79200Y-61954D02*
X79196Y-61954D01*
X79725Y-66100D02*
X79725Y-69525D01*
X79725Y-69525D02*
X80100Y-69900D01*
X79725Y-66100D02*
X79875Y-66100D01*
X79875Y-66100D02*
X80475Y-65500D01*
X82667Y-63234D02*
X83491Y-63234D01*
X83491Y-63234D02*
X83650Y-63075D01*
X79833Y-61954D02*
X81154Y-61954D01*
X81650Y-62450D02*
X81650Y-63234D01*
X81154Y-61954D02*
X81650Y-62450D01*
X80475Y-65500D02*
X80475Y-64375D01*
X81616Y-63234D02*
X81650Y-63234D01*
X81650Y-63234D02*
X82667Y-63234D01*
X80475Y-64375D02*
X81616Y-63234D01*
X78800Y-61500D02*
X78800Y-61100D01*
X78800Y-61500D02*
X77950Y-62350D01*
X77950Y-62350D02*
X77750Y-62350D01*
X74400Y-60850D02*
X74450Y-60850D01*
X76150Y-62350D02*
X77750Y-62350D01*
X75900Y-62100D02*
X76150Y-62350D01*
X75900Y-61600D02*
X75900Y-62100D01*
X75700Y-61400D02*
X75900Y-61600D01*
X75000Y-61400D02*
X75700Y-61400D01*
X74450Y-60850D02*
X75000Y-61400D01*
X86084Y-61550D02*
X86650Y-60984D01*
X83850Y-61550D02*
X86084Y-61550D01*
X83630Y-61330D02*
X83850Y-61550D01*
X83630Y-60830D02*
X83630Y-61330D01*
X83300Y-60500D02*
X83630Y-60830D01*
X81950Y-60500D02*
X83300Y-60500D01*
X81800Y-60650D02*
X81950Y-60500D01*
X79250Y-60650D02*
X81800Y-60650D01*
X78800Y-61100D02*
X79250Y-60650D01*
X74400Y-60850D02*
X74400Y-60900D01*
X79050Y-61550D02*
X79050Y-61150D01*
X78050Y-62550D02*
X78100Y-62500D01*
X75400Y-62100D02*
X75850Y-62550D01*
X75400Y-61850D02*
X75400Y-62100D01*
X78100Y-62500D02*
X79050Y-61550D01*
X75850Y-62550D02*
X78050Y-62550D01*
X87134Y-61500D02*
X87650Y-60984D01*
X86400Y-61500D02*
X87134Y-61500D01*
X86150Y-61750D02*
X86400Y-61500D01*
X83550Y-61750D02*
X86150Y-61750D01*
X83450Y-61650D02*
X83550Y-61750D01*
X83450Y-60950D02*
X83450Y-61650D01*
X83200Y-60700D02*
X83450Y-60950D01*
X82050Y-60700D02*
X83200Y-60700D01*
X81850Y-60900D02*
X82050Y-60700D01*
X79300Y-60900D02*
X81850Y-60900D01*
X79050Y-61150D02*
X79300Y-60900D01*
X71000Y-60984D02*
X72684Y-60984D01*
X75200Y-61650D02*
X75400Y-61850D01*
X74950Y-61650D02*
X75200Y-61650D01*
X74650Y-61350D02*
X74950Y-61650D01*
X73050Y-61350D02*
X74650Y-61350D01*
X72684Y-60984D02*
X73050Y-61350D01*
X75400Y-60850D02*
X75600Y-60850D01*
X75600Y-60850D02*
X76050Y-61300D01*
X78251Y-61300D02*
X78350Y-61300D01*
X76050Y-61300D02*
X78251Y-61300D01*
X70234Y-63984D02*
X70700Y-64450D01*
X70700Y-64450D02*
X71800Y-64450D01*
X71800Y-64450D02*
X72000Y-64250D01*
X72000Y-64250D02*
X73200Y-64250D01*
X70234Y-63984D02*
X70000Y-63984D01*
X86350Y-64400D02*
X86350Y-64350D01*
X86375Y-64375D02*
X86350Y-64400D01*
X86000Y-64750D02*
X86375Y-64375D01*
X86250Y-64150D02*
X86250Y-64300D01*
X85700Y-63600D02*
X86250Y-64150D01*
X86300Y-64300D02*
X86250Y-64250D01*
X86250Y-64250D02*
X86350Y-64350D01*
X86350Y-64350D02*
X86500Y-64500D01*
X86900Y-64500D02*
X87150Y-64750D01*
X87150Y-64750D02*
X87150Y-65484D01*
X87150Y-65484D02*
X87650Y-65984D01*
X86500Y-64500D02*
X86900Y-64500D01*
X75399Y-65999D02*
X75399Y-66549D01*
X75800Y-66950D02*
X77450Y-66950D01*
X75399Y-66549D02*
X75800Y-66950D01*
X71000Y-64984D02*
X71000Y-65300D01*
X71699Y-65999D02*
X75399Y-65999D01*
X75399Y-64900D02*
X75399Y-65999D01*
X71000Y-65300D02*
X71699Y-65999D01*
X71650Y-63000D02*
X71650Y-63719D01*
X70000Y-61984D02*
X70034Y-61984D01*
X71150Y-62500D02*
X71650Y-63000D01*
X70550Y-62500D02*
X71150Y-62500D01*
X70034Y-61984D02*
X70550Y-62500D01*
X73600Y-63850D02*
X73700Y-63950D01*
X72950Y-63850D02*
X73600Y-63850D01*
X72730Y-64069D02*
X72950Y-63850D01*
X72000Y-64069D02*
X72730Y-64069D01*
X71650Y-63719D02*
X72000Y-64069D01*
X73233Y-64900D02*
X73233Y-64666D01*
X73700Y-64200D02*
X73700Y-63950D01*
X73233Y-64666D02*
X73700Y-64200D01*
X73700Y-63950D02*
X73800Y-63950D01*
X74250Y-63950D02*
X73800Y-63950D01*
X75950Y-62900D02*
X77700Y-62900D01*
X74966Y-65262D02*
X74950Y-65500D01*
X74966Y-65200D02*
X74966Y-65262D01*
X74966Y-65150D02*
X74966Y-65200D01*
X74966Y-64900D02*
X74966Y-65150D01*
X74100Y-64900D02*
X74100Y-65150D01*
X74100Y-65150D02*
X74100Y-65200D01*
X74100Y-65200D02*
X74100Y-65262D01*
X74100Y-65262D02*
X74100Y-65500D01*
X71000Y-67984D02*
X73334Y-67984D01*
X74700Y-66668D02*
X74700Y-66650D01*
X73334Y-67984D02*
X74700Y-66668D01*
X78700Y-62900D02*
X79390Y-62210D01*
X79390Y-62210D02*
X79833Y-62210D01*
X78700Y-63300D02*
X78700Y-62900D01*
X84050Y-62050D02*
X83500Y-62050D01*
X85800Y-63100D02*
X86150Y-63450D01*
X86150Y-63450D02*
X86900Y-63450D01*
X87650Y-64984D02*
X87650Y-64950D01*
X81887Y-61187D02*
X79833Y-61187D01*
X85100Y-63100D02*
X84050Y-62050D01*
X85700Y-63100D02*
X85100Y-63100D01*
X87150Y-63700D02*
X86900Y-63450D01*
X87150Y-64450D02*
X87150Y-63700D01*
X87650Y-64950D02*
X87150Y-64450D01*
X85700Y-63100D02*
X85800Y-63100D01*
X82174Y-60900D02*
X81887Y-61187D01*
X83100Y-60900D02*
X82174Y-60900D01*
X83200Y-61000D02*
X83100Y-60900D01*
X83200Y-61750D02*
X83200Y-61000D01*
X83500Y-62050D02*
X83200Y-61750D01*
X77450Y-66350D02*
X76100Y-66350D01*
X76100Y-66350D02*
X76050Y-66300D01*
X77450Y-66350D02*
X77400Y-66400D01*
X78950Y-64537D02*
X78813Y-64537D01*
X77100Y-68200D02*
X77100Y-68150D01*
X78400Y-64950D02*
X78400Y-67600D01*
X78813Y-64537D02*
X78400Y-64950D01*
X79833Y-62722D02*
X80322Y-62722D01*
X81796Y-63746D02*
X82667Y-63746D01*
X81750Y-63700D02*
X81796Y-63746D01*
X80650Y-63050D02*
X80650Y-63650D01*
X80322Y-62722D02*
X80650Y-63050D01*
X73666Y-64900D02*
X73666Y-64583D01*
X72250Y-62050D02*
X72600Y-61750D01*
X72250Y-62300D02*
X72250Y-62050D01*
X72650Y-62700D02*
X72250Y-62300D01*
X74350Y-62700D02*
X72650Y-62700D01*
X74650Y-63000D02*
X74350Y-62700D01*
X74650Y-64050D02*
X74650Y-63000D01*
X74350Y-64350D02*
X74650Y-64050D01*
X73900Y-64350D02*
X74350Y-64350D01*
X73666Y-64583D02*
X73900Y-64350D01*
X82667Y-61698D02*
X81698Y-61598D01*
X74100Y-60150D02*
X73400Y-60850D01*
X78400Y-60150D02*
X74100Y-60150D01*
X78500Y-60250D02*
X78400Y-60150D01*
X81698Y-61598D02*
X81650Y-61550D01*
X85000Y-64975D02*
X85000Y-64363D01*
X85550Y-62400D02*
X85700Y-62550D01*
X85700Y-62550D02*
X86850Y-62550D01*
X86850Y-62550D02*
X86900Y-62600D01*
X86900Y-62600D02*
X86950Y-62600D01*
X86950Y-62600D02*
X87350Y-63000D01*
X87350Y-63000D02*
X87650Y-63000D01*
X87650Y-63000D02*
X87650Y-62984D01*
X81225Y-67200D02*
X81862Y-67200D01*
X81862Y-67200D02*
X82128Y-67465D01*
X82025Y-66350D02*
X82025Y-67362D01*
X82025Y-67362D02*
X82128Y-67465D01*
X85671Y-69631D02*
X82128Y-69631D01*
X85671Y-67465D02*
X85671Y-69631D01*
X82128Y-67465D02*
X82128Y-69631D01*
X70000Y-60984D02*
X70184Y-60984D01*
X72300Y-63250D02*
X72300Y-63550D01*
X71500Y-62450D02*
X72300Y-63250D01*
X71500Y-61750D02*
X71500Y-62450D01*
X71250Y-61500D02*
X71500Y-61750D01*
X70700Y-61500D02*
X71250Y-61500D01*
X70184Y-60984D02*
X70700Y-61500D01*
X78975Y-66100D02*
X78975Y-65388D01*
X78975Y-65388D02*
X78950Y-65363D01*
X82667Y-64002D02*
X83323Y-64002D01*
X83323Y-64002D02*
X83475Y-63850D01*
X82667Y-64257D02*
X82193Y-64257D01*
X82525Y-65375D02*
X83800Y-65375D01*
X82050Y-64900D02*
X82525Y-65375D01*
X82050Y-64400D02*
X82050Y-64900D01*
X82193Y-64257D02*
X82050Y-64400D01*
X83900Y-67350D02*
X83900Y-65475D01*
X83900Y-65475D02*
X83800Y-65375D01*
X76587Y-63800D02*
X75975Y-63800D01*
X83152Y-64998D02*
X84198Y-64998D01*
X84275Y-65075D02*
X84275Y-66200D01*
X84198Y-64998D02*
X84275Y-65075D01*
X83154Y-65000D02*
X83152Y-64998D01*
X83152Y-64998D02*
X82667Y-64513D01*
X84225Y-66200D02*
X84225Y-67339D01*
X84225Y-67339D02*
X84214Y-67350D01*
X84529Y-67350D02*
X84529Y-66970D01*
X85000Y-66500D02*
X85000Y-65725D01*
X84529Y-66970D02*
X85000Y-66500D01*
G54D10*
G36*
X73897Y-65781D02*
X71789Y-65781D01*
X71610Y-65603D01*
X71670Y-65603D01*
X72070Y-65603D01*
X72132Y-65578D01*
X72179Y-65531D01*
X72205Y-65469D01*
X72205Y-65403D01*
X72205Y-65367D01*
X72250Y-65367D01*
X72550Y-65367D01*
X72584Y-65353D01*
X72617Y-65367D01*
X72683Y-65367D01*
X72983Y-65367D01*
X73017Y-65353D01*
X73050Y-65367D01*
X73116Y-65367D01*
X73416Y-65367D01*
X73450Y-65353D01*
X73483Y-65367D01*
X73550Y-65367D01*
X73615Y-65367D01*
X73657Y-65325D01*
X73657Y-64909D01*
X73649Y-64909D01*
X73649Y-64890D01*
X73657Y-64890D01*
X73657Y-64882D01*
X73676Y-64882D01*
X73676Y-64890D01*
X73684Y-64890D01*
X73684Y-64909D01*
X73676Y-64909D01*
X73676Y-65325D01*
X73718Y-65367D01*
X73783Y-65367D01*
X73784Y-65367D01*
X73757Y-65431D01*
X73757Y-65567D01*
X73809Y-65693D01*
X73897Y-65781D01*
X73897Y-65781D01*
G37*
G54D24*
X73897Y-65781D02*
X71789Y-65781D01*
X71610Y-65603D01*
X71670Y-65603D01*
X72070Y-65603D01*
X72132Y-65578D01*
X72179Y-65531D01*
X72205Y-65469D01*
X72205Y-65403D01*
X72205Y-65367D01*
X72250Y-65367D01*
X72550Y-65367D01*
X72584Y-65353D01*
X72617Y-65367D01*
X72683Y-65367D01*
X72983Y-65367D01*
X73017Y-65353D01*
X73050Y-65367D01*
X73116Y-65367D01*
X73416Y-65367D01*
X73450Y-65353D01*
X73483Y-65367D01*
X73550Y-65367D01*
X73615Y-65367D01*
X73657Y-65325D01*
X73657Y-64909D01*
X73649Y-64909D01*
X73649Y-64890D01*
X73657Y-64890D01*
X73657Y-64882D01*
X73676Y-64882D01*
X73676Y-64890D01*
X73684Y-64890D01*
X73684Y-64909D01*
X73676Y-64909D01*
X73676Y-65325D01*
X73718Y-65367D01*
X73783Y-65367D01*
X73784Y-65367D01*
X73757Y-65431D01*
X73757Y-65567D01*
X73809Y-65693D01*
X73897Y-65781D01*
G54D10*
G36*
X75007Y-63361D02*
X74955Y-63383D01*
X74908Y-63430D01*
X74882Y-63491D01*
X74882Y-63558D01*
X74882Y-64108D01*
X74892Y-64132D01*
X74750Y-64132D01*
X74666Y-64149D01*
X74596Y-64196D01*
X74596Y-64196D01*
X74379Y-64413D01*
X74366Y-64432D01*
X74349Y-64432D01*
X74316Y-64446D01*
X74283Y-64432D01*
X74216Y-64432D01*
X73916Y-64432D01*
X73883Y-64446D01*
X73850Y-64432D01*
X73783Y-64432D01*
X73774Y-64432D01*
X73853Y-64353D01*
X73853Y-64353D01*
X73853Y-64353D01*
X73900Y-64283D01*
X73900Y-64283D01*
X73917Y-64200D01*
X73917Y-64200D01*
X73917Y-64167D01*
X73983Y-64167D01*
X74055Y-64240D01*
X74181Y-64292D01*
X74317Y-64292D01*
X74443Y-64240D01*
X74540Y-64144D01*
X74592Y-64018D01*
X74592Y-63882D01*
X74540Y-63756D01*
X74444Y-63659D01*
X74318Y-63607D01*
X74182Y-63607D01*
X74056Y-63659D01*
X73983Y-63732D01*
X73800Y-63732D01*
X73790Y-63732D01*
X73753Y-63696D01*
X73683Y-63649D01*
X73600Y-63632D01*
X72950Y-63632D01*
X72949Y-63632D01*
X72933Y-63635D01*
X72866Y-63649D01*
X72796Y-63696D01*
X72796Y-63696D01*
X72767Y-63725D01*
X72767Y-63216D01*
X72741Y-63155D01*
X72694Y-63108D01*
X72633Y-63082D01*
X72566Y-63082D01*
X72439Y-63082D01*
X71717Y-62359D01*
X71717Y-61750D01*
X71700Y-61666D01*
X71700Y-61666D01*
X71653Y-61596D01*
X71403Y-61346D01*
X71340Y-61304D01*
X71340Y-61304D01*
X71395Y-61249D01*
X71415Y-61201D01*
X72593Y-61201D01*
X72896Y-61503D01*
X72932Y-61527D01*
X72932Y-61527D01*
X72932Y-61583D01*
X72932Y-62183D01*
X72958Y-62244D01*
X73005Y-62291D01*
X73066Y-62317D01*
X73133Y-62317D01*
X73733Y-62317D01*
X73787Y-62294D01*
X74146Y-62653D01*
X74216Y-62700D01*
X74216Y-62700D01*
X74300Y-62717D01*
X74659Y-62717D01*
X75007Y-63065D01*
X75007Y-63361D01*
X75007Y-63361D01*
G37*
G54D24*
X75007Y-63361D02*
X74955Y-63383D01*
X74908Y-63430D01*
X74882Y-63491D01*
X74882Y-63558D01*
X74882Y-64108D01*
X74892Y-64132D01*
X74750Y-64132D01*
X74666Y-64149D01*
X74596Y-64196D01*
X74596Y-64196D01*
X74379Y-64413D01*
X74366Y-64432D01*
X74349Y-64432D01*
X74316Y-64446D01*
X74283Y-64432D01*
X74216Y-64432D01*
X73916Y-64432D01*
X73883Y-64446D01*
X73850Y-64432D01*
X73783Y-64432D01*
X73774Y-64432D01*
X73853Y-64353D01*
X73853Y-64353D01*
X73853Y-64353D01*
X73900Y-64283D01*
X73900Y-64283D01*
X73917Y-64200D01*
X73917Y-64200D01*
X73917Y-64167D01*
X73983Y-64167D01*
X74055Y-64240D01*
X74181Y-64292D01*
X74317Y-64292D01*
X74443Y-64240D01*
X74540Y-64144D01*
X74592Y-64018D01*
X74592Y-63882D01*
X74540Y-63756D01*
X74444Y-63659D01*
X74318Y-63607D01*
X74182Y-63607D01*
X74056Y-63659D01*
X73983Y-63732D01*
X73800Y-63732D01*
X73790Y-63732D01*
X73753Y-63696D01*
X73683Y-63649D01*
X73600Y-63632D01*
X72950Y-63632D01*
X72949Y-63632D01*
X72933Y-63635D01*
X72866Y-63649D01*
X72796Y-63696D01*
X72796Y-63696D01*
X72767Y-63725D01*
X72767Y-63216D01*
X72741Y-63155D01*
X72694Y-63108D01*
X72633Y-63082D01*
X72566Y-63082D01*
X72439Y-63082D01*
X71717Y-62359D01*
X71717Y-61750D01*
X71700Y-61666D01*
X71700Y-61666D01*
X71653Y-61596D01*
X71403Y-61346D01*
X71340Y-61304D01*
X71340Y-61304D01*
X71395Y-61249D01*
X71415Y-61201D01*
X72593Y-61201D01*
X72896Y-61503D01*
X72932Y-61527D01*
X72932Y-61527D01*
X72932Y-61583D01*
X72932Y-62183D01*
X72958Y-62244D01*
X73005Y-62291D01*
X73066Y-62317D01*
X73133Y-62317D01*
X73733Y-62317D01*
X73787Y-62294D01*
X74146Y-62653D01*
X74216Y-62700D01*
X74216Y-62700D01*
X74300Y-62717D01*
X74659Y-62717D01*
X75007Y-63065D01*
X75007Y-63361D01*
G54D10*
G36*
X78882Y-69484D02*
X78835Y-69503D01*
X78704Y-69634D01*
X78632Y-69806D01*
X78632Y-69992D01*
X78703Y-70164D01*
X78834Y-70295D01*
X78852Y-70303D01*
X76543Y-70303D01*
X76543Y-69128D01*
X76495Y-69011D01*
X76405Y-68922D01*
X76289Y-68874D01*
X76163Y-68873D01*
X76046Y-68922D01*
X75957Y-69011D01*
X75908Y-69127D01*
X75908Y-69254D01*
X75956Y-69370D01*
X76046Y-69460D01*
X76162Y-69508D01*
X76288Y-69508D01*
X76405Y-69460D01*
X76494Y-69371D01*
X76543Y-69254D01*
X76543Y-69128D01*
X76543Y-70303D01*
X75042Y-70303D01*
X75042Y-66582D01*
X74990Y-66456D01*
X74894Y-66359D01*
X74768Y-66307D01*
X74632Y-66307D01*
X74506Y-66359D01*
X74409Y-66455D01*
X74357Y-66581D01*
X74357Y-66697D01*
X73246Y-67766D01*
X71467Y-67766D01*
X71467Y-66891D01*
X71396Y-66719D01*
X71265Y-66588D01*
X71093Y-66516D01*
X70907Y-66516D01*
X70735Y-66587D01*
X70604Y-66718D01*
X70532Y-66890D01*
X70532Y-67076D01*
X70603Y-67248D01*
X70734Y-67379D01*
X70906Y-67451D01*
X71092Y-67451D01*
X71264Y-67380D01*
X71395Y-67249D01*
X71467Y-67077D01*
X71467Y-66891D01*
X71467Y-67766D01*
X71415Y-67766D01*
X71396Y-67719D01*
X71265Y-67588D01*
X71093Y-67516D01*
X70907Y-67516D01*
X70735Y-67587D01*
X70604Y-67718D01*
X70532Y-67890D01*
X70532Y-68076D01*
X70603Y-68248D01*
X70734Y-68379D01*
X70906Y-68451D01*
X71092Y-68451D01*
X71264Y-68380D01*
X71395Y-68249D01*
X71415Y-68201D01*
X73334Y-68201D01*
X73373Y-68193D01*
X73413Y-68186D01*
X73415Y-68185D01*
X73417Y-68184D01*
X73450Y-68162D01*
X73484Y-68140D01*
X74677Y-66992D01*
X74767Y-66992D01*
X74893Y-66940D01*
X74990Y-66844D01*
X75042Y-66718D01*
X75042Y-66582D01*
X75042Y-70303D01*
X73393Y-70303D01*
X73393Y-69128D01*
X73345Y-69011D01*
X73256Y-68922D01*
X73139Y-68874D01*
X73013Y-68873D01*
X72896Y-68922D01*
X72807Y-69011D01*
X72759Y-69127D01*
X72759Y-69254D01*
X72807Y-69370D01*
X72896Y-69460D01*
X73012Y-69508D01*
X73139Y-69508D01*
X73255Y-69460D01*
X73345Y-69371D01*
X73393Y-69254D01*
X73393Y-69128D01*
X73393Y-70303D01*
X72441Y-70303D01*
X72441Y-69350D01*
X72441Y-68550D01*
X72415Y-68489D01*
X72368Y-68442D01*
X72307Y-68416D01*
X72240Y-68416D01*
X71640Y-68416D01*
X71579Y-68441D01*
X71532Y-68488D01*
X71506Y-68550D01*
X71506Y-68616D01*
X71506Y-69416D01*
X71532Y-69478D01*
X71579Y-69525D01*
X71640Y-69551D01*
X71707Y-69551D01*
X72307Y-69551D01*
X72368Y-69525D01*
X72415Y-69478D01*
X72441Y-69417D01*
X72441Y-69350D01*
X72441Y-70303D01*
X71341Y-70303D01*
X71395Y-70249D01*
X71467Y-70077D01*
X71467Y-69891D01*
X71467Y-68891D01*
X71396Y-68719D01*
X71265Y-68588D01*
X71093Y-68516D01*
X70907Y-68516D01*
X70735Y-68587D01*
X70604Y-68718D01*
X70532Y-68890D01*
X70532Y-69076D01*
X70603Y-69248D01*
X70734Y-69379D01*
X70906Y-69451D01*
X71092Y-69451D01*
X71264Y-69380D01*
X71395Y-69249D01*
X71467Y-69077D01*
X71467Y-68891D01*
X71467Y-69891D01*
X71396Y-69719D01*
X71265Y-69588D01*
X71093Y-69516D01*
X70907Y-69516D01*
X70735Y-69587D01*
X70604Y-69718D01*
X70532Y-69890D01*
X70532Y-70076D01*
X70603Y-70248D01*
X70658Y-70303D01*
X70341Y-70303D01*
X70395Y-70249D01*
X70467Y-70077D01*
X70467Y-69891D01*
X70396Y-69719D01*
X70265Y-69588D01*
X70093Y-69516D01*
X69907Y-69516D01*
X69735Y-69587D01*
X69646Y-69676D01*
X69646Y-69291D01*
X69734Y-69379D01*
X69906Y-69451D01*
X70092Y-69451D01*
X70264Y-69380D01*
X70395Y-69249D01*
X70467Y-69077D01*
X70467Y-68891D01*
X70396Y-68719D01*
X70265Y-68588D01*
X70093Y-68516D01*
X69907Y-68516D01*
X69735Y-68587D01*
X69646Y-68676D01*
X69646Y-68291D01*
X69734Y-68379D01*
X69906Y-68451D01*
X70092Y-68451D01*
X70264Y-68380D01*
X70395Y-68249D01*
X70467Y-68077D01*
X70467Y-67891D01*
X70396Y-67719D01*
X70265Y-67588D01*
X70093Y-67516D01*
X69907Y-67516D01*
X69735Y-67587D01*
X69646Y-67676D01*
X69646Y-67291D01*
X69734Y-67379D01*
X69906Y-67451D01*
X70092Y-67451D01*
X70264Y-67380D01*
X70395Y-67249D01*
X70467Y-67077D01*
X70467Y-66891D01*
X70396Y-66719D01*
X70265Y-66588D01*
X70093Y-66516D01*
X69907Y-66516D01*
X69735Y-66587D01*
X69646Y-66676D01*
X69646Y-66291D01*
X69734Y-66379D01*
X69906Y-66451D01*
X70092Y-66451D01*
X70264Y-66380D01*
X70395Y-66249D01*
X70467Y-66077D01*
X70467Y-65891D01*
X70396Y-65719D01*
X70265Y-65588D01*
X70093Y-65516D01*
X69907Y-65516D01*
X69735Y-65587D01*
X69646Y-65676D01*
X69646Y-65291D01*
X69734Y-65379D01*
X69906Y-65451D01*
X70092Y-65451D01*
X70264Y-65380D01*
X70395Y-65249D01*
X70467Y-65077D01*
X70467Y-64891D01*
X70396Y-64719D01*
X70265Y-64588D01*
X70093Y-64516D01*
X69907Y-64516D01*
X69735Y-64587D01*
X69646Y-64676D01*
X69646Y-64291D01*
X69734Y-64379D01*
X69906Y-64451D01*
X70092Y-64451D01*
X70264Y-64380D01*
X70293Y-64351D01*
X70546Y-64603D01*
X70546Y-64603D01*
X70616Y-64650D01*
X70616Y-64650D01*
X70663Y-64659D01*
X70604Y-64718D01*
X70532Y-64890D01*
X70532Y-65076D01*
X70603Y-65248D01*
X70734Y-65379D01*
X70820Y-65415D01*
X70846Y-65453D01*
X70909Y-65516D01*
X70907Y-65516D01*
X70735Y-65587D01*
X70604Y-65718D01*
X70532Y-65890D01*
X70532Y-66076D01*
X70603Y-66248D01*
X70734Y-66379D01*
X70906Y-66451D01*
X71092Y-66451D01*
X71264Y-66380D01*
X71395Y-66249D01*
X71467Y-66077D01*
X71467Y-66074D01*
X71545Y-66152D01*
X71616Y-66199D01*
X71616Y-66199D01*
X71699Y-66216D01*
X75181Y-66216D01*
X75181Y-66549D01*
X75198Y-66632D01*
X75245Y-66702D01*
X75646Y-67103D01*
X75716Y-67150D01*
X75716Y-67150D01*
X75800Y-67167D01*
X77183Y-67167D01*
X77255Y-67240D01*
X77381Y-67292D01*
X77517Y-67292D01*
X77643Y-67240D01*
X77740Y-67144D01*
X77782Y-67041D01*
X77782Y-67900D01*
X77799Y-67983D01*
X77846Y-68053D01*
X78146Y-68353D01*
X78146Y-68353D01*
X78216Y-68400D01*
X78216Y-68400D01*
X78283Y-68414D01*
X78295Y-68416D01*
X77703Y-68416D01*
X77642Y-68441D01*
X77595Y-68488D01*
X77569Y-68550D01*
X77569Y-68616D01*
X77569Y-69416D01*
X77595Y-69478D01*
X77642Y-69525D01*
X77703Y-69551D01*
X77770Y-69551D01*
X78370Y-69551D01*
X78431Y-69525D01*
X78478Y-69478D01*
X78504Y-69417D01*
X78504Y-69350D01*
X78504Y-68550D01*
X78478Y-68489D01*
X78431Y-68442D01*
X78372Y-68417D01*
X78659Y-68417D01*
X78882Y-68640D01*
X78882Y-69484D01*
X78882Y-69484D01*
G37*
G54D24*
X78882Y-69484D02*
X78835Y-69503D01*
X78704Y-69634D01*
X78632Y-69806D01*
X78632Y-69992D01*
X78703Y-70164D01*
X78834Y-70295D01*
X78852Y-70303D01*
X76543Y-70303D01*
X76543Y-69128D01*
X76495Y-69011D01*
X76405Y-68922D01*
X76289Y-68874D01*
X76163Y-68873D01*
X76046Y-68922D01*
X75957Y-69011D01*
X75908Y-69127D01*
X75908Y-69254D01*
X75956Y-69370D01*
X76046Y-69460D01*
X76162Y-69508D01*
X76288Y-69508D01*
X76405Y-69460D01*
X76494Y-69371D01*
X76543Y-69254D01*
X76543Y-69128D01*
X76543Y-70303D01*
X75042Y-70303D01*
X75042Y-66582D01*
X74990Y-66456D01*
X74894Y-66359D01*
X74768Y-66307D01*
X74632Y-66307D01*
X74506Y-66359D01*
X74409Y-66455D01*
X74357Y-66581D01*
X74357Y-66697D01*
X73246Y-67766D01*
X71467Y-67766D01*
X71467Y-66891D01*
X71396Y-66719D01*
X71265Y-66588D01*
X71093Y-66516D01*
X70907Y-66516D01*
X70735Y-66587D01*
X70604Y-66718D01*
X70532Y-66890D01*
X70532Y-67076D01*
X70603Y-67248D01*
X70734Y-67379D01*
X70906Y-67451D01*
X71092Y-67451D01*
X71264Y-67380D01*
X71395Y-67249D01*
X71467Y-67077D01*
X71467Y-66891D01*
X71467Y-67766D01*
X71415Y-67766D01*
X71396Y-67719D01*
X71265Y-67588D01*
X71093Y-67516D01*
X70907Y-67516D01*
X70735Y-67587D01*
X70604Y-67718D01*
X70532Y-67890D01*
X70532Y-68076D01*
X70603Y-68248D01*
X70734Y-68379D01*
X70906Y-68451D01*
X71092Y-68451D01*
X71264Y-68380D01*
X71395Y-68249D01*
X71415Y-68201D01*
X73334Y-68201D01*
X73373Y-68193D01*
X73413Y-68186D01*
X73415Y-68185D01*
X73417Y-68184D01*
X73450Y-68162D01*
X73484Y-68140D01*
X74677Y-66992D01*
X74767Y-66992D01*
X74893Y-66940D01*
X74990Y-66844D01*
X75042Y-66718D01*
X75042Y-66582D01*
X75042Y-70303D01*
X73393Y-70303D01*
X73393Y-69128D01*
X73345Y-69011D01*
X73256Y-68922D01*
X73139Y-68874D01*
X73013Y-68873D01*
X72896Y-68922D01*
X72807Y-69011D01*
X72759Y-69127D01*
X72759Y-69254D01*
X72807Y-69370D01*
X72896Y-69460D01*
X73012Y-69508D01*
X73139Y-69508D01*
X73255Y-69460D01*
X73345Y-69371D01*
X73393Y-69254D01*
X73393Y-69128D01*
X73393Y-70303D01*
X72441Y-70303D01*
X72441Y-69350D01*
X72441Y-68550D01*
X72415Y-68489D01*
X72368Y-68442D01*
X72307Y-68416D01*
X72240Y-68416D01*
X71640Y-68416D01*
X71579Y-68441D01*
X71532Y-68488D01*
X71506Y-68550D01*
X71506Y-68616D01*
X71506Y-69416D01*
X71532Y-69478D01*
X71579Y-69525D01*
X71640Y-69551D01*
X71707Y-69551D01*
X72307Y-69551D01*
X72368Y-69525D01*
X72415Y-69478D01*
X72441Y-69417D01*
X72441Y-69350D01*
X72441Y-70303D01*
X71341Y-70303D01*
X71395Y-70249D01*
X71467Y-70077D01*
X71467Y-69891D01*
X71467Y-68891D01*
X71396Y-68719D01*
X71265Y-68588D01*
X71093Y-68516D01*
X70907Y-68516D01*
X70735Y-68587D01*
X70604Y-68718D01*
X70532Y-68890D01*
X70532Y-69076D01*
X70603Y-69248D01*
X70734Y-69379D01*
X70906Y-69451D01*
X71092Y-69451D01*
X71264Y-69380D01*
X71395Y-69249D01*
X71467Y-69077D01*
X71467Y-68891D01*
X71467Y-69891D01*
X71396Y-69719D01*
X71265Y-69588D01*
X71093Y-69516D01*
X70907Y-69516D01*
X70735Y-69587D01*
X70604Y-69718D01*
X70532Y-69890D01*
X70532Y-70076D01*
X70603Y-70248D01*
X70658Y-70303D01*
X70341Y-70303D01*
X70395Y-70249D01*
X70467Y-70077D01*
X70467Y-69891D01*
X70396Y-69719D01*
X70265Y-69588D01*
X70093Y-69516D01*
X69907Y-69516D01*
X69735Y-69587D01*
X69646Y-69676D01*
X69646Y-69291D01*
X69734Y-69379D01*
X69906Y-69451D01*
X70092Y-69451D01*
X70264Y-69380D01*
X70395Y-69249D01*
X70467Y-69077D01*
X70467Y-68891D01*
X70396Y-68719D01*
X70265Y-68588D01*
X70093Y-68516D01*
X69907Y-68516D01*
X69735Y-68587D01*
X69646Y-68676D01*
X69646Y-68291D01*
X69734Y-68379D01*
X69906Y-68451D01*
X70092Y-68451D01*
X70264Y-68380D01*
X70395Y-68249D01*
X70467Y-68077D01*
X70467Y-67891D01*
X70396Y-67719D01*
X70265Y-67588D01*
X70093Y-67516D01*
X69907Y-67516D01*
X69735Y-67587D01*
X69646Y-67676D01*
X69646Y-67291D01*
X69734Y-67379D01*
X69906Y-67451D01*
X70092Y-67451D01*
X70264Y-67380D01*
X70395Y-67249D01*
X70467Y-67077D01*
X70467Y-66891D01*
X70396Y-66719D01*
X70265Y-66588D01*
X70093Y-66516D01*
X69907Y-66516D01*
X69735Y-66587D01*
X69646Y-66676D01*
X69646Y-66291D01*
X69734Y-66379D01*
X69906Y-66451D01*
X70092Y-66451D01*
X70264Y-66380D01*
X70395Y-66249D01*
X70467Y-66077D01*
X70467Y-65891D01*
X70396Y-65719D01*
X70265Y-65588D01*
X70093Y-65516D01*
X69907Y-65516D01*
X69735Y-65587D01*
X69646Y-65676D01*
X69646Y-65291D01*
X69734Y-65379D01*
X69906Y-65451D01*
X70092Y-65451D01*
X70264Y-65380D01*
X70395Y-65249D01*
X70467Y-65077D01*
X70467Y-64891D01*
X70396Y-64719D01*
X70265Y-64588D01*
X70093Y-64516D01*
X69907Y-64516D01*
X69735Y-64587D01*
X69646Y-64676D01*
X69646Y-64291D01*
X69734Y-64379D01*
X69906Y-64451D01*
X70092Y-64451D01*
X70264Y-64380D01*
X70293Y-64351D01*
X70546Y-64603D01*
X70546Y-64603D01*
X70616Y-64650D01*
X70616Y-64650D01*
X70663Y-64659D01*
X70604Y-64718D01*
X70532Y-64890D01*
X70532Y-65076D01*
X70603Y-65248D01*
X70734Y-65379D01*
X70820Y-65415D01*
X70846Y-65453D01*
X70909Y-65516D01*
X70907Y-65516D01*
X70735Y-65587D01*
X70604Y-65718D01*
X70532Y-65890D01*
X70532Y-66076D01*
X70603Y-66248D01*
X70734Y-66379D01*
X70906Y-66451D01*
X71092Y-66451D01*
X71264Y-66380D01*
X71395Y-66249D01*
X71467Y-66077D01*
X71467Y-66074D01*
X71545Y-66152D01*
X71616Y-66199D01*
X71616Y-66199D01*
X71699Y-66216D01*
X75181Y-66216D01*
X75181Y-66549D01*
X75198Y-66632D01*
X75245Y-66702D01*
X75646Y-67103D01*
X75716Y-67150D01*
X75716Y-67150D01*
X75800Y-67167D01*
X77183Y-67167D01*
X77255Y-67240D01*
X77381Y-67292D01*
X77517Y-67292D01*
X77643Y-67240D01*
X77740Y-67144D01*
X77782Y-67041D01*
X77782Y-67900D01*
X77799Y-67983D01*
X77846Y-68053D01*
X78146Y-68353D01*
X78146Y-68353D01*
X78216Y-68400D01*
X78216Y-68400D01*
X78283Y-68414D01*
X78295Y-68416D01*
X77703Y-68416D01*
X77642Y-68441D01*
X77595Y-68488D01*
X77569Y-68550D01*
X77569Y-68616D01*
X77569Y-69416D01*
X77595Y-69478D01*
X77642Y-69525D01*
X77703Y-69551D01*
X77770Y-69551D01*
X78370Y-69551D01*
X78431Y-69525D01*
X78478Y-69478D01*
X78504Y-69417D01*
X78504Y-69350D01*
X78504Y-68550D01*
X78478Y-68489D01*
X78431Y-68442D01*
X78372Y-68417D01*
X78659Y-68417D01*
X78882Y-68640D01*
X78882Y-69484D01*
G54D10*
G36*
X81432Y-63109D02*
X80325Y-64217D01*
X80325Y-64143D01*
X80319Y-64129D01*
X80325Y-64115D01*
X80325Y-64048D01*
X80325Y-63888D01*
X80319Y-63874D01*
X80325Y-63859D01*
X80325Y-63792D01*
X80325Y-63632D01*
X80319Y-63618D01*
X80325Y-63603D01*
X80325Y-63536D01*
X80325Y-63376D01*
X80319Y-63362D01*
X80325Y-63347D01*
X80325Y-63280D01*
X80325Y-63120D01*
X80319Y-63106D01*
X80325Y-63091D01*
X80325Y-63024D01*
X80325Y-62864D01*
X80319Y-62850D01*
X80325Y-62835D01*
X80325Y-62773D01*
X80283Y-62731D01*
X80194Y-62731D01*
X80191Y-62730D01*
X80124Y-62730D01*
X79474Y-62730D01*
X79471Y-62731D01*
X79382Y-62731D01*
X79340Y-62773D01*
X79340Y-62835D01*
X79346Y-62849D01*
X79340Y-62864D01*
X79340Y-62931D01*
X79340Y-63091D01*
X79346Y-63105D01*
X79340Y-63120D01*
X79340Y-63187D01*
X79340Y-63347D01*
X79346Y-63361D01*
X79340Y-63376D01*
X79340Y-63443D01*
X79340Y-63603D01*
X79346Y-63617D01*
X79340Y-63632D01*
X79340Y-63699D01*
X79340Y-63859D01*
X79346Y-63873D01*
X79340Y-63888D01*
X79340Y-63955D01*
X79340Y-64115D01*
X79346Y-64129D01*
X79340Y-64143D01*
X79340Y-64210D01*
X79340Y-64237D01*
X79327Y-64206D01*
X79280Y-64159D01*
X79219Y-64133D01*
X79152Y-64133D01*
X79001Y-64133D01*
X78959Y-64175D01*
X78959Y-64527D01*
X78967Y-64527D01*
X78967Y-64546D01*
X78959Y-64546D01*
X78959Y-64898D01*
X79001Y-64940D01*
X79152Y-64940D01*
X79219Y-64940D01*
X79280Y-64914D01*
X79327Y-64867D01*
X79353Y-64806D01*
X79353Y-64656D01*
X79366Y-64687D01*
X79413Y-64734D01*
X79474Y-64760D01*
X79541Y-64760D01*
X80191Y-64760D01*
X80252Y-64734D01*
X80257Y-64729D01*
X80257Y-65061D01*
X80205Y-65083D01*
X80158Y-65130D01*
X80132Y-65191D01*
X80132Y-65258D01*
X80132Y-65535D01*
X79987Y-65680D01*
X79933Y-65657D01*
X79866Y-65657D01*
X79516Y-65657D01*
X79455Y-65683D01*
X79408Y-65730D01*
X79382Y-65791D01*
X79382Y-65858D01*
X79382Y-66408D01*
X79408Y-66469D01*
X79455Y-66516D01*
X79507Y-66538D01*
X79507Y-69525D01*
X79524Y-69608D01*
X79571Y-69678D01*
X79652Y-69759D01*
X79632Y-69806D01*
X79632Y-69992D01*
X79703Y-70164D01*
X79834Y-70295D01*
X79852Y-70303D01*
X79348Y-70303D01*
X79364Y-70296D01*
X79495Y-70165D01*
X79567Y-69993D01*
X79567Y-69807D01*
X79496Y-69635D01*
X79365Y-69504D01*
X79353Y-69499D01*
X79353Y-65565D01*
X79353Y-65093D01*
X79327Y-65032D01*
X79280Y-64985D01*
X79219Y-64959D01*
X79152Y-64959D01*
X78940Y-64959D01*
X78940Y-64898D01*
X78940Y-64546D01*
X78940Y-64527D01*
X78940Y-64175D01*
X78898Y-64133D01*
X78747Y-64133D01*
X78680Y-64133D01*
X78619Y-64159D01*
X78572Y-64206D01*
X78546Y-64267D01*
X78546Y-64485D01*
X78588Y-64527D01*
X78940Y-64527D01*
X78940Y-64546D01*
X78588Y-64546D01*
X78546Y-64588D01*
X78546Y-64806D01*
X78572Y-64867D01*
X78619Y-64914D01*
X78680Y-64940D01*
X78747Y-64940D01*
X78898Y-64940D01*
X78940Y-64898D01*
X78940Y-64959D01*
X78680Y-64959D01*
X78619Y-64985D01*
X78572Y-65032D01*
X78546Y-65093D01*
X78546Y-65160D01*
X78546Y-65632D01*
X78572Y-65693D01*
X78619Y-65740D01*
X78648Y-65753D01*
X78632Y-65791D01*
X78632Y-65858D01*
X78632Y-66408D01*
X78658Y-66469D01*
X78705Y-66516D01*
X78766Y-66542D01*
X78833Y-66542D01*
X79183Y-66542D01*
X79244Y-66516D01*
X79291Y-66469D01*
X79317Y-66408D01*
X79317Y-66341D01*
X79317Y-65791D01*
X79291Y-65730D01*
X79291Y-65730D01*
X79327Y-65693D01*
X79353Y-65632D01*
X79353Y-65565D01*
X79353Y-69499D01*
X79317Y-69484D01*
X79317Y-68550D01*
X79317Y-68549D01*
X79300Y-68466D01*
X79300Y-68466D01*
X79253Y-68396D01*
X79253Y-68396D01*
X78903Y-68046D01*
X78833Y-67999D01*
X78750Y-67982D01*
X78390Y-67982D01*
X78217Y-67809D01*
X78217Y-66350D01*
X78200Y-66266D01*
X78200Y-66266D01*
X78153Y-66196D01*
X77703Y-65746D01*
X77479Y-65521D01*
X78047Y-65521D01*
X78109Y-65496D01*
X78156Y-65449D01*
X78181Y-65387D01*
X78181Y-65321D01*
X78181Y-64721D01*
X78156Y-64659D01*
X78109Y-64612D01*
X78047Y-64587D01*
X77981Y-64586D01*
X77816Y-64586D01*
X77816Y-64002D01*
X77816Y-63851D01*
X77774Y-63809D01*
X77422Y-63809D01*
X77422Y-64161D01*
X77464Y-64203D01*
X77682Y-64203D01*
X77743Y-64177D01*
X77790Y-64130D01*
X77816Y-64069D01*
X77816Y-64002D01*
X77816Y-64586D01*
X77403Y-64586D01*
X77403Y-64161D01*
X77403Y-63809D01*
X77051Y-63809D01*
X77009Y-63851D01*
X77009Y-64002D01*
X77009Y-64069D01*
X77035Y-64130D01*
X77082Y-64177D01*
X77143Y-64203D01*
X77361Y-64203D01*
X77403Y-64161D01*
X77403Y-64586D01*
X77381Y-64586D01*
X77319Y-64612D01*
X77272Y-64659D01*
X77247Y-64720D01*
X77247Y-64787D01*
X77247Y-65289D01*
X77167Y-65209D01*
X77167Y-64850D01*
X77150Y-64766D01*
X77150Y-64766D01*
X77103Y-64696D01*
X76610Y-64203D01*
X76856Y-64203D01*
X76917Y-64177D01*
X76964Y-64130D01*
X76990Y-64069D01*
X76990Y-64002D01*
X76990Y-63530D01*
X76984Y-63517D01*
X77015Y-63517D01*
X77009Y-63530D01*
X77009Y-63597D01*
X77009Y-63748D01*
X77051Y-63790D01*
X77403Y-63790D01*
X77403Y-63782D01*
X77422Y-63782D01*
X77422Y-63790D01*
X77774Y-63790D01*
X77816Y-63748D01*
X77816Y-63597D01*
X77816Y-63530D01*
X77810Y-63517D01*
X77850Y-63517D01*
X77933Y-63500D01*
X77933Y-63500D01*
X78003Y-63453D01*
X78303Y-63153D01*
X78303Y-63153D01*
X78303Y-63153D01*
X78350Y-63083D01*
X78350Y-63083D01*
X78364Y-63016D01*
X78367Y-63000D01*
X78367Y-63000D01*
X78367Y-63000D01*
X78367Y-62840D01*
X79036Y-62171D01*
X79121Y-62171D01*
X78546Y-62746D01*
X78499Y-62816D01*
X78482Y-62900D01*
X78482Y-63033D01*
X78409Y-63105D01*
X78357Y-63231D01*
X78357Y-63367D01*
X78409Y-63493D01*
X78505Y-63590D01*
X78631Y-63642D01*
X78767Y-63642D01*
X78893Y-63590D01*
X78990Y-63494D01*
X79042Y-63368D01*
X79042Y-63232D01*
X78990Y-63106D01*
X78917Y-63033D01*
X78917Y-62990D01*
X79340Y-62566D01*
X79340Y-62579D01*
X79346Y-62594D01*
X79340Y-62608D01*
X79340Y-62670D01*
X79382Y-62712D01*
X79471Y-62712D01*
X79474Y-62713D01*
X79541Y-62713D01*
X80191Y-62713D01*
X80194Y-62712D01*
X80283Y-62712D01*
X80325Y-62670D01*
X80325Y-62608D01*
X80319Y-62594D01*
X80325Y-62579D01*
X80325Y-62512D01*
X80325Y-62352D01*
X80319Y-62338D01*
X80325Y-62323D01*
X80325Y-62256D01*
X80325Y-62171D01*
X81063Y-62171D01*
X81432Y-62540D01*
X81432Y-63109D01*
X81432Y-63109D01*
G37*
G54D24*
X81432Y-63109D02*
X80325Y-64217D01*
X80325Y-64143D01*
X80319Y-64129D01*
X80325Y-64115D01*
X80325Y-64048D01*
X80325Y-63888D01*
X80319Y-63874D01*
X80325Y-63859D01*
X80325Y-63792D01*
X80325Y-63632D01*
X80319Y-63618D01*
X80325Y-63603D01*
X80325Y-63536D01*
X80325Y-63376D01*
X80319Y-63362D01*
X80325Y-63347D01*
X80325Y-63280D01*
X80325Y-63120D01*
X80319Y-63106D01*
X80325Y-63091D01*
X80325Y-63024D01*
X80325Y-62864D01*
X80319Y-62850D01*
X80325Y-62835D01*
X80325Y-62773D01*
X80283Y-62731D01*
X80194Y-62731D01*
X80191Y-62730D01*
X80124Y-62730D01*
X79474Y-62730D01*
X79471Y-62731D01*
X79382Y-62731D01*
X79340Y-62773D01*
X79340Y-62835D01*
X79346Y-62849D01*
X79340Y-62864D01*
X79340Y-62931D01*
X79340Y-63091D01*
X79346Y-63105D01*
X79340Y-63120D01*
X79340Y-63187D01*
X79340Y-63347D01*
X79346Y-63361D01*
X79340Y-63376D01*
X79340Y-63443D01*
X79340Y-63603D01*
X79346Y-63617D01*
X79340Y-63632D01*
X79340Y-63699D01*
X79340Y-63859D01*
X79346Y-63873D01*
X79340Y-63888D01*
X79340Y-63955D01*
X79340Y-64115D01*
X79346Y-64129D01*
X79340Y-64143D01*
X79340Y-64210D01*
X79340Y-64237D01*
X79327Y-64206D01*
X79280Y-64159D01*
X79219Y-64133D01*
X79152Y-64133D01*
X79001Y-64133D01*
X78959Y-64175D01*
X78959Y-64527D01*
X78967Y-64527D01*
X78967Y-64546D01*
X78959Y-64546D01*
X78959Y-64898D01*
X79001Y-64940D01*
X79152Y-64940D01*
X79219Y-64940D01*
X79280Y-64914D01*
X79327Y-64867D01*
X79353Y-64806D01*
X79353Y-64656D01*
X79366Y-64687D01*
X79413Y-64734D01*
X79474Y-64760D01*
X79541Y-64760D01*
X80191Y-64760D01*
X80252Y-64734D01*
X80257Y-64729D01*
X80257Y-65061D01*
X80205Y-65083D01*
X80158Y-65130D01*
X80132Y-65191D01*
X80132Y-65258D01*
X80132Y-65535D01*
X79987Y-65680D01*
X79933Y-65657D01*
X79866Y-65657D01*
X79516Y-65657D01*
X79455Y-65683D01*
X79408Y-65730D01*
X79382Y-65791D01*
X79382Y-65858D01*
X79382Y-66408D01*
X79408Y-66469D01*
X79455Y-66516D01*
X79507Y-66538D01*
X79507Y-69525D01*
X79524Y-69608D01*
X79571Y-69678D01*
X79652Y-69759D01*
X79632Y-69806D01*
X79632Y-69992D01*
X79703Y-70164D01*
X79834Y-70295D01*
X79852Y-70303D01*
X79348Y-70303D01*
X79364Y-70296D01*
X79495Y-70165D01*
X79567Y-69993D01*
X79567Y-69807D01*
X79496Y-69635D01*
X79365Y-69504D01*
X79353Y-69499D01*
X79353Y-65565D01*
X79353Y-65093D01*
X79327Y-65032D01*
X79280Y-64985D01*
X79219Y-64959D01*
X79152Y-64959D01*
X78940Y-64959D01*
X78940Y-64898D01*
X78940Y-64546D01*
X78940Y-64527D01*
X78940Y-64175D01*
X78898Y-64133D01*
X78747Y-64133D01*
X78680Y-64133D01*
X78619Y-64159D01*
X78572Y-64206D01*
X78546Y-64267D01*
X78546Y-64485D01*
X78588Y-64527D01*
X78940Y-64527D01*
X78940Y-64546D01*
X78588Y-64546D01*
X78546Y-64588D01*
X78546Y-64806D01*
X78572Y-64867D01*
X78619Y-64914D01*
X78680Y-64940D01*
X78747Y-64940D01*
X78898Y-64940D01*
X78940Y-64898D01*
X78940Y-64959D01*
X78680Y-64959D01*
X78619Y-64985D01*
X78572Y-65032D01*
X78546Y-65093D01*
X78546Y-65160D01*
X78546Y-65632D01*
X78572Y-65693D01*
X78619Y-65740D01*
X78648Y-65753D01*
X78632Y-65791D01*
X78632Y-65858D01*
X78632Y-66408D01*
X78658Y-66469D01*
X78705Y-66516D01*
X78766Y-66542D01*
X78833Y-66542D01*
X79183Y-66542D01*
X79244Y-66516D01*
X79291Y-66469D01*
X79317Y-66408D01*
X79317Y-66341D01*
X79317Y-65791D01*
X79291Y-65730D01*
X79291Y-65730D01*
X79327Y-65693D01*
X79353Y-65632D01*
X79353Y-65565D01*
X79353Y-69499D01*
X79317Y-69484D01*
X79317Y-68550D01*
X79317Y-68549D01*
X79300Y-68466D01*
X79300Y-68466D01*
X79253Y-68396D01*
X79253Y-68396D01*
X78903Y-68046D01*
X78833Y-67999D01*
X78750Y-67982D01*
X78390Y-67982D01*
X78217Y-67809D01*
X78217Y-66350D01*
X78200Y-66266D01*
X78200Y-66266D01*
X78153Y-66196D01*
X77703Y-65746D01*
X77479Y-65521D01*
X78047Y-65521D01*
X78109Y-65496D01*
X78156Y-65449D01*
X78181Y-65387D01*
X78181Y-65321D01*
X78181Y-64721D01*
X78156Y-64659D01*
X78109Y-64612D01*
X78047Y-64587D01*
X77981Y-64586D01*
X77816Y-64586D01*
X77816Y-64002D01*
X77816Y-63851D01*
X77774Y-63809D01*
X77422Y-63809D01*
X77422Y-64161D01*
X77464Y-64203D01*
X77682Y-64203D01*
X77743Y-64177D01*
X77790Y-64130D01*
X77816Y-64069D01*
X77816Y-64002D01*
X77816Y-64586D01*
X77403Y-64586D01*
X77403Y-64161D01*
X77403Y-63809D01*
X77051Y-63809D01*
X77009Y-63851D01*
X77009Y-64002D01*
X77009Y-64069D01*
X77035Y-64130D01*
X77082Y-64177D01*
X77143Y-64203D01*
X77361Y-64203D01*
X77403Y-64161D01*
X77403Y-64586D01*
X77381Y-64586D01*
X77319Y-64612D01*
X77272Y-64659D01*
X77247Y-64720D01*
X77247Y-64787D01*
X77247Y-65289D01*
X77167Y-65209D01*
X77167Y-64850D01*
X77150Y-64766D01*
X77150Y-64766D01*
X77103Y-64696D01*
X76610Y-64203D01*
X76856Y-64203D01*
X76917Y-64177D01*
X76964Y-64130D01*
X76990Y-64069D01*
X76990Y-64002D01*
X76990Y-63530D01*
X76984Y-63517D01*
X77015Y-63517D01*
X77009Y-63530D01*
X77009Y-63597D01*
X77009Y-63748D01*
X77051Y-63790D01*
X77403Y-63790D01*
X77403Y-63782D01*
X77422Y-63782D01*
X77422Y-63790D01*
X77774Y-63790D01*
X77816Y-63748D01*
X77816Y-63597D01*
X77816Y-63530D01*
X77810Y-63517D01*
X77850Y-63517D01*
X77933Y-63500D01*
X77933Y-63500D01*
X78003Y-63453D01*
X78303Y-63153D01*
X78303Y-63153D01*
X78303Y-63153D01*
X78350Y-63083D01*
X78350Y-63083D01*
X78364Y-63016D01*
X78367Y-63000D01*
X78367Y-63000D01*
X78367Y-63000D01*
X78367Y-62840D01*
X79036Y-62171D01*
X79121Y-62171D01*
X78546Y-62746D01*
X78499Y-62816D01*
X78482Y-62900D01*
X78482Y-63033D01*
X78409Y-63105D01*
X78357Y-63231D01*
X78357Y-63367D01*
X78409Y-63493D01*
X78505Y-63590D01*
X78631Y-63642D01*
X78767Y-63642D01*
X78893Y-63590D01*
X78990Y-63494D01*
X79042Y-63368D01*
X79042Y-63232D01*
X78990Y-63106D01*
X78917Y-63033D01*
X78917Y-62990D01*
X79340Y-62566D01*
X79340Y-62579D01*
X79346Y-62594D01*
X79340Y-62608D01*
X79340Y-62670D01*
X79382Y-62712D01*
X79471Y-62712D01*
X79474Y-62713D01*
X79541Y-62713D01*
X80191Y-62713D01*
X80194Y-62712D01*
X80283Y-62712D01*
X80325Y-62670D01*
X80325Y-62608D01*
X80319Y-62594D01*
X80325Y-62579D01*
X80325Y-62512D01*
X80325Y-62352D01*
X80319Y-62338D01*
X80325Y-62323D01*
X80325Y-62256D01*
X80325Y-62171D01*
X81063Y-62171D01*
X81432Y-62540D01*
X81432Y-63109D01*
G54D10*
G36*
X88003Y-60676D02*
X87915Y-60588D01*
X87743Y-60516D01*
X87557Y-60516D01*
X87385Y-60587D01*
X87254Y-60718D01*
X87182Y-60890D01*
X87182Y-61076D01*
X87202Y-61124D01*
X87117Y-61209D01*
X87117Y-60650D01*
X87091Y-60589D01*
X87044Y-60542D01*
X86983Y-60516D01*
X86916Y-60516D01*
X86316Y-60516D01*
X86255Y-60542D01*
X86208Y-60589D01*
X86182Y-60650D01*
X86182Y-60717D01*
X86182Y-61144D01*
X85993Y-61332D01*
X84690Y-61332D01*
X84829Y-61305D01*
X84900Y-61275D01*
X84901Y-61275D01*
X85062Y-61167D01*
X85117Y-61113D01*
X85117Y-61112D01*
X85225Y-60951D01*
X85225Y-60950D01*
X85255Y-60879D01*
X85292Y-60688D01*
X85292Y-60688D01*
X85292Y-60688D01*
X85292Y-60688D01*
X85292Y-60650D01*
X85292Y-60611D01*
X85292Y-60611D01*
X85292Y-60611D01*
X85292Y-60611D01*
X85255Y-60420D01*
X85225Y-60349D01*
X85225Y-60348D01*
X85117Y-60187D01*
X85117Y-60186D01*
X85062Y-60132D01*
X84901Y-60024D01*
X84900Y-60024D01*
X84829Y-59994D01*
X84638Y-59956D01*
X84561Y-59956D01*
X84560Y-59957D01*
X84370Y-59994D01*
X84299Y-60024D01*
X84298Y-60024D01*
X84137Y-60132D01*
X84136Y-60132D01*
X84082Y-60187D01*
X83974Y-60348D01*
X83974Y-60349D01*
X83944Y-60420D01*
X83906Y-60611D01*
X83906Y-60650D01*
X83906Y-60688D01*
X83944Y-60879D01*
X83974Y-60950D01*
X83974Y-60951D01*
X84082Y-61112D01*
X84136Y-61167D01*
X84137Y-61167D01*
X84298Y-61275D01*
X84299Y-61275D01*
X84370Y-61305D01*
X84509Y-61332D01*
X83940Y-61332D01*
X83847Y-61239D01*
X83847Y-60830D01*
X83830Y-60746D01*
X83830Y-60746D01*
X83783Y-60676D01*
X83783Y-60676D01*
X83453Y-60346D01*
X83383Y-60299D01*
X83300Y-60282D01*
X81950Y-60282D01*
X81866Y-60299D01*
X81796Y-60346D01*
X81709Y-60432D01*
X79250Y-60432D01*
X79166Y-60449D01*
X79096Y-60496D01*
X78646Y-60946D01*
X78599Y-61016D01*
X78591Y-61057D01*
X78544Y-61009D01*
X78418Y-60957D01*
X78282Y-60957D01*
X78156Y-61009D01*
X78083Y-61082D01*
X77809Y-61082D01*
X77867Y-60943D01*
X77867Y-60757D01*
X77796Y-60585D01*
X77665Y-60454D01*
X77493Y-60382D01*
X77307Y-60382D01*
X77135Y-60453D01*
X77004Y-60584D01*
X76932Y-60756D01*
X76932Y-60942D01*
X76990Y-61082D01*
X76809Y-61082D01*
X76867Y-60943D01*
X76867Y-60757D01*
X76796Y-60585D01*
X76665Y-60454D01*
X76493Y-60382D01*
X76307Y-60382D01*
X76135Y-60453D01*
X76004Y-60584D01*
X75932Y-60756D01*
X75932Y-60875D01*
X75867Y-60810D01*
X75867Y-60757D01*
X75796Y-60585D01*
X75665Y-60454D01*
X75493Y-60382D01*
X75307Y-60382D01*
X75135Y-60453D01*
X75004Y-60584D01*
X74932Y-60756D01*
X74932Y-60942D01*
X74990Y-61083D01*
X74862Y-60955D01*
X74867Y-60943D01*
X74867Y-60757D01*
X74796Y-60585D01*
X74665Y-60454D01*
X74493Y-60382D01*
X74307Y-60382D01*
X74135Y-60453D01*
X74004Y-60584D01*
X73932Y-60756D01*
X73932Y-60942D01*
X74003Y-61114D01*
X74021Y-61132D01*
X73762Y-61132D01*
X73791Y-61122D01*
X73865Y-60951D01*
X73868Y-60765D01*
X73801Y-60592D01*
X73791Y-60577D01*
X73714Y-60549D01*
X73700Y-60563D01*
X73700Y-60535D01*
X73672Y-60458D01*
X73501Y-60384D01*
X73315Y-60381D01*
X73142Y-60448D01*
X73127Y-60458D01*
X73099Y-60535D01*
X73400Y-60836D01*
X73700Y-60535D01*
X73700Y-60563D01*
X73413Y-60850D01*
X73419Y-60855D01*
X73405Y-60869D01*
X73400Y-60863D01*
X73394Y-60869D01*
X73380Y-60855D01*
X73386Y-60850D01*
X73085Y-60549D01*
X73008Y-60577D01*
X72934Y-60748D01*
X72931Y-60923D01*
X72837Y-60830D01*
X72767Y-60783D01*
X72684Y-60766D01*
X71415Y-60766D01*
X71396Y-60719D01*
X71265Y-60588D01*
X71093Y-60516D01*
X70907Y-60516D01*
X70735Y-60587D01*
X70604Y-60718D01*
X70532Y-60890D01*
X70532Y-61025D01*
X70467Y-60960D01*
X70467Y-60650D01*
X70441Y-60589D01*
X70394Y-60542D01*
X70333Y-60516D01*
X70266Y-60516D01*
X69666Y-60516D01*
X69646Y-60524D01*
X69646Y-59946D01*
X88003Y-59946D01*
X88003Y-60676D01*
X88003Y-60676D01*
G37*
G54D24*
X88003Y-60676D02*
X87915Y-60588D01*
X87743Y-60516D01*
X87557Y-60516D01*
X87385Y-60587D01*
X87254Y-60718D01*
X87182Y-60890D01*
X87182Y-61076D01*
X87202Y-61124D01*
X87117Y-61209D01*
X87117Y-60650D01*
X87091Y-60589D01*
X87044Y-60542D01*
X86983Y-60516D01*
X86916Y-60516D01*
X86316Y-60516D01*
X86255Y-60542D01*
X86208Y-60589D01*
X86182Y-60650D01*
X86182Y-60717D01*
X86182Y-61144D01*
X85993Y-61332D01*
X84690Y-61332D01*
X84829Y-61305D01*
X84900Y-61275D01*
X84901Y-61275D01*
X85062Y-61167D01*
X85117Y-61113D01*
X85117Y-61112D01*
X85225Y-60951D01*
X85225Y-60950D01*
X85255Y-60879D01*
X85292Y-60688D01*
X85292Y-60688D01*
X85292Y-60688D01*
X85292Y-60688D01*
X85292Y-60650D01*
X85292Y-60611D01*
X85292Y-60611D01*
X85292Y-60611D01*
X85292Y-60611D01*
X85255Y-60420D01*
X85225Y-60349D01*
X85225Y-60348D01*
X85117Y-60187D01*
X85117Y-60186D01*
X85062Y-60132D01*
X84901Y-60024D01*
X84900Y-60024D01*
X84829Y-59994D01*
X84638Y-59956D01*
X84561Y-59956D01*
X84560Y-59957D01*
X84370Y-59994D01*
X84299Y-60024D01*
X84298Y-60024D01*
X84137Y-60132D01*
X84136Y-60132D01*
X84082Y-60187D01*
X83974Y-60348D01*
X83974Y-60349D01*
X83944Y-60420D01*
X83906Y-60611D01*
X83906Y-60650D01*
X83906Y-60688D01*
X83944Y-60879D01*
X83974Y-60950D01*
X83974Y-60951D01*
X84082Y-61112D01*
X84136Y-61167D01*
X84137Y-61167D01*
X84298Y-61275D01*
X84299Y-61275D01*
X84370Y-61305D01*
X84509Y-61332D01*
X83940Y-61332D01*
X83847Y-61239D01*
X83847Y-60830D01*
X83830Y-60746D01*
X83830Y-60746D01*
X83783Y-60676D01*
X83783Y-60676D01*
X83453Y-60346D01*
X83383Y-60299D01*
X83300Y-60282D01*
X81950Y-60282D01*
X81866Y-60299D01*
X81796Y-60346D01*
X81709Y-60432D01*
X79250Y-60432D01*
X79166Y-60449D01*
X79096Y-60496D01*
X78646Y-60946D01*
X78599Y-61016D01*
X78591Y-61057D01*
X78544Y-61009D01*
X78418Y-60957D01*
X78282Y-60957D01*
X78156Y-61009D01*
X78083Y-61082D01*
X77809Y-61082D01*
X77867Y-60943D01*
X77867Y-60757D01*
X77796Y-60585D01*
X77665Y-60454D01*
X77493Y-60382D01*
X77307Y-60382D01*
X77135Y-60453D01*
X77004Y-60584D01*
X76932Y-60756D01*
X76932Y-60942D01*
X76990Y-61082D01*
X76809Y-61082D01*
X76867Y-60943D01*
X76867Y-60757D01*
X76796Y-60585D01*
X76665Y-60454D01*
X76493Y-60382D01*
X76307Y-60382D01*
X76135Y-60453D01*
X76004Y-60584D01*
X75932Y-60756D01*
X75932Y-60875D01*
X75867Y-60810D01*
X75867Y-60757D01*
X75796Y-60585D01*
X75665Y-60454D01*
X75493Y-60382D01*
X75307Y-60382D01*
X75135Y-60453D01*
X75004Y-60584D01*
X74932Y-60756D01*
X74932Y-60942D01*
X74990Y-61083D01*
X74862Y-60955D01*
X74867Y-60943D01*
X74867Y-60757D01*
X74796Y-60585D01*
X74665Y-60454D01*
X74493Y-60382D01*
X74307Y-60382D01*
X74135Y-60453D01*
X74004Y-60584D01*
X73932Y-60756D01*
X73932Y-60942D01*
X74003Y-61114D01*
X74021Y-61132D01*
X73762Y-61132D01*
X73791Y-61122D01*
X73865Y-60951D01*
X73868Y-60765D01*
X73801Y-60592D01*
X73791Y-60577D01*
X73714Y-60549D01*
X73700Y-60563D01*
X73700Y-60535D01*
X73672Y-60458D01*
X73501Y-60384D01*
X73315Y-60381D01*
X73142Y-60448D01*
X73127Y-60458D01*
X73099Y-60535D01*
X73400Y-60836D01*
X73700Y-60535D01*
X73700Y-60563D01*
X73413Y-60850D01*
X73419Y-60855D01*
X73405Y-60869D01*
X73400Y-60863D01*
X73394Y-60869D01*
X73380Y-60855D01*
X73386Y-60850D01*
X73085Y-60549D01*
X73008Y-60577D01*
X72934Y-60748D01*
X72931Y-60923D01*
X72837Y-60830D01*
X72767Y-60783D01*
X72684Y-60766D01*
X71415Y-60766D01*
X71396Y-60719D01*
X71265Y-60588D01*
X71093Y-60516D01*
X70907Y-60516D01*
X70735Y-60587D01*
X70604Y-60718D01*
X70532Y-60890D01*
X70532Y-61025D01*
X70467Y-60960D01*
X70467Y-60650D01*
X70441Y-60589D01*
X70394Y-60542D01*
X70333Y-60516D01*
X70266Y-60516D01*
X69666Y-60516D01*
X69646Y-60524D01*
X69646Y-59946D01*
X88003Y-59946D01*
X88003Y-60676D01*
G54D10*
G36*
X88003Y-69697D02*
X87964Y-69683D01*
X87950Y-69697D01*
X87950Y-69669D01*
X87922Y-69592D01*
X87751Y-69518D01*
X87565Y-69515D01*
X87392Y-69582D01*
X87377Y-69592D01*
X87349Y-69669D01*
X87650Y-69970D01*
X87950Y-69669D01*
X87950Y-69697D01*
X87663Y-69984D01*
X87669Y-69989D01*
X87655Y-70003D01*
X87650Y-69997D01*
X87644Y-70003D01*
X87636Y-69995D01*
X87630Y-69989D01*
X87636Y-69984D01*
X87335Y-69683D01*
X87258Y-69711D01*
X87184Y-69882D01*
X87181Y-70068D01*
X87248Y-70241D01*
X87258Y-70256D01*
X87335Y-70284D01*
X87316Y-70303D01*
X87118Y-70303D01*
X86983Y-70303D01*
X86964Y-70284D01*
X87041Y-70256D01*
X87115Y-70085D01*
X87118Y-69899D01*
X87051Y-69726D01*
X87041Y-69711D01*
X86964Y-69683D01*
X86950Y-69697D01*
X86950Y-69669D01*
X86922Y-69592D01*
X86751Y-69518D01*
X86565Y-69515D01*
X86392Y-69582D01*
X86377Y-69592D01*
X86349Y-69669D01*
X86650Y-69970D01*
X86950Y-69669D01*
X86950Y-69697D01*
X86663Y-69984D01*
X86669Y-69989D01*
X86655Y-70003D01*
X86650Y-69997D01*
X86644Y-70003D01*
X86630Y-69989D01*
X86636Y-69984D01*
X86335Y-69683D01*
X86258Y-69711D01*
X86232Y-69771D01*
X86232Y-69197D01*
X86253Y-69248D01*
X86384Y-69379D01*
X86556Y-69451D01*
X86742Y-69451D01*
X86914Y-69380D01*
X87045Y-69249D01*
X87117Y-69077D01*
X87117Y-68891D01*
X87046Y-68719D01*
X86915Y-68588D01*
X86743Y-68516D01*
X86557Y-68516D01*
X86385Y-68587D01*
X86254Y-68718D01*
X86182Y-68890D01*
X86182Y-68961D01*
X86160Y-68939D01*
X86098Y-68913D01*
X86032Y-68913D01*
X85888Y-68913D01*
X85888Y-68183D01*
X86098Y-68183D01*
X86160Y-68157D01*
X86199Y-68118D01*
X86253Y-68248D01*
X86384Y-68379D01*
X86556Y-68451D01*
X86742Y-68451D01*
X86914Y-68380D01*
X87045Y-68249D01*
X87117Y-68077D01*
X87117Y-67891D01*
X87046Y-67719D01*
X86915Y-67588D01*
X86743Y-67516D01*
X86557Y-67516D01*
X86385Y-67587D01*
X86254Y-67718D01*
X86232Y-67770D01*
X86232Y-67197D01*
X86253Y-67248D01*
X86384Y-67379D01*
X86556Y-67451D01*
X86742Y-67451D01*
X86914Y-67380D01*
X87045Y-67249D01*
X87117Y-67077D01*
X87117Y-66891D01*
X87117Y-65891D01*
X87046Y-65719D01*
X86915Y-65588D01*
X86743Y-65516D01*
X86557Y-65516D01*
X86385Y-65587D01*
X86254Y-65718D01*
X86182Y-65890D01*
X86182Y-66076D01*
X86253Y-66248D01*
X86384Y-66379D01*
X86556Y-66451D01*
X86742Y-66451D01*
X86914Y-66380D01*
X87045Y-66249D01*
X87117Y-66077D01*
X87117Y-65891D01*
X87117Y-66891D01*
X87046Y-66719D01*
X86915Y-66588D01*
X86743Y-66516D01*
X86557Y-66516D01*
X86385Y-66587D01*
X86254Y-66718D01*
X86209Y-66826D01*
X86207Y-66821D01*
X86160Y-66773D01*
X86098Y-66748D01*
X86032Y-66748D01*
X85244Y-66748D01*
X85183Y-66773D01*
X85136Y-66820D01*
X85110Y-66882D01*
X85110Y-66948D01*
X85110Y-68048D01*
X85136Y-68110D01*
X85183Y-68157D01*
X85244Y-68183D01*
X85311Y-68183D01*
X85454Y-68183D01*
X85454Y-68913D01*
X85244Y-68913D01*
X85183Y-68939D01*
X85136Y-68986D01*
X85110Y-69047D01*
X85110Y-69114D01*
X85110Y-69413D01*
X85067Y-69413D01*
X85067Y-68387D01*
X85019Y-68270D01*
X84929Y-68181D01*
X84813Y-68132D01*
X84687Y-68132D01*
X84570Y-68180D01*
X84481Y-68270D01*
X84432Y-68386D01*
X84432Y-68512D01*
X84480Y-68629D01*
X84570Y-68718D01*
X84686Y-68767D01*
X84812Y-68767D01*
X84929Y-68719D01*
X85018Y-68629D01*
X85067Y-68513D01*
X85067Y-68387D01*
X85067Y-69413D01*
X83367Y-69413D01*
X83367Y-68387D01*
X83319Y-68270D01*
X83260Y-68211D01*
X83260Y-67975D01*
X83260Y-67359D01*
X83260Y-67340D01*
X83260Y-66724D01*
X83218Y-66682D01*
X83136Y-66682D01*
X83075Y-66708D01*
X83028Y-66755D01*
X83002Y-66816D01*
X83002Y-66883D01*
X83002Y-67298D01*
X83044Y-67340D01*
X83260Y-67340D01*
X83260Y-67359D01*
X83044Y-67359D01*
X83002Y-67401D01*
X83002Y-67816D01*
X83002Y-67883D01*
X83028Y-67944D01*
X83075Y-67991D01*
X83136Y-68017D01*
X83218Y-68017D01*
X83260Y-67975D01*
X83260Y-68211D01*
X83229Y-68181D01*
X83113Y-68132D01*
X82987Y-68132D01*
X82870Y-68180D01*
X82781Y-68270D01*
X82732Y-68386D01*
X82732Y-68512D01*
X82780Y-68629D01*
X82870Y-68718D01*
X82986Y-68767D01*
X83112Y-68767D01*
X83229Y-68719D01*
X83318Y-68629D01*
X83367Y-68513D01*
X83367Y-68387D01*
X83367Y-69413D01*
X82689Y-69413D01*
X82689Y-69047D01*
X82663Y-68986D01*
X82616Y-68939D01*
X82555Y-68913D01*
X82488Y-68913D01*
X82345Y-68913D01*
X82345Y-68183D01*
X82555Y-68183D01*
X82616Y-68157D01*
X82663Y-68110D01*
X82689Y-68049D01*
X82689Y-67982D01*
X82689Y-66882D01*
X82663Y-66821D01*
X82616Y-66773D01*
X82555Y-66748D01*
X82488Y-66748D01*
X82313Y-66748D01*
X82341Y-66719D01*
X82367Y-66658D01*
X82367Y-66591D01*
X82367Y-66041D01*
X82341Y-65980D01*
X82294Y-65933D01*
X82233Y-65907D01*
X82166Y-65907D01*
X81816Y-65907D01*
X81755Y-65933D01*
X81708Y-65980D01*
X81682Y-66041D01*
X81682Y-66108D01*
X81682Y-66658D01*
X81708Y-66719D01*
X81736Y-66748D01*
X81701Y-66748D01*
X81639Y-66773D01*
X81592Y-66820D01*
X81567Y-66882D01*
X81567Y-66891D01*
X81541Y-66830D01*
X81497Y-66786D01*
X81544Y-66766D01*
X81591Y-66719D01*
X81617Y-66658D01*
X81617Y-66591D01*
X81617Y-66108D01*
X81617Y-66041D01*
X81591Y-65980D01*
X81544Y-65933D01*
X81497Y-65913D01*
X81541Y-65869D01*
X81567Y-65808D01*
X81567Y-65741D01*
X81567Y-65258D01*
X81567Y-65191D01*
X81541Y-65130D01*
X81494Y-65083D01*
X81433Y-65057D01*
X81276Y-65057D01*
X81234Y-65099D01*
X81234Y-65490D01*
X81525Y-65490D01*
X81567Y-65448D01*
X81567Y-65258D01*
X81567Y-65741D01*
X81567Y-65551D01*
X81525Y-65509D01*
X81234Y-65509D01*
X81234Y-65517D01*
X81215Y-65517D01*
X81215Y-65509D01*
X81215Y-65490D01*
X81215Y-65099D01*
X81173Y-65057D01*
X81016Y-65057D01*
X80955Y-65083D01*
X80908Y-65130D01*
X80882Y-65191D01*
X80882Y-65258D01*
X80882Y-65448D01*
X80924Y-65490D01*
X81215Y-65490D01*
X81215Y-65509D01*
X80924Y-65509D01*
X80882Y-65551D01*
X80882Y-65741D01*
X80882Y-65808D01*
X80908Y-65869D01*
X80955Y-65916D01*
X81002Y-65936D01*
X80958Y-65980D01*
X80932Y-66041D01*
X80932Y-66108D01*
X80932Y-66298D01*
X80974Y-66340D01*
X81265Y-66340D01*
X81265Y-66332D01*
X81284Y-66332D01*
X81284Y-66340D01*
X81575Y-66340D01*
X81617Y-66298D01*
X81617Y-66108D01*
X81617Y-66591D01*
X81617Y-66401D01*
X81575Y-66359D01*
X81284Y-66359D01*
X81284Y-66367D01*
X81265Y-66367D01*
X81265Y-66359D01*
X80974Y-66359D01*
X80932Y-66401D01*
X80932Y-66591D01*
X80932Y-66658D01*
X80958Y-66719D01*
X81002Y-66763D01*
X80955Y-66783D01*
X80908Y-66830D01*
X80882Y-66891D01*
X80882Y-66958D01*
X80882Y-67508D01*
X80908Y-67569D01*
X80955Y-67616D01*
X81016Y-67642D01*
X81083Y-67642D01*
X81433Y-67642D01*
X81494Y-67616D01*
X81541Y-67569D01*
X81567Y-67508D01*
X81567Y-67507D01*
X81567Y-68048D01*
X81592Y-68110D01*
X81639Y-68157D01*
X81701Y-68183D01*
X81767Y-68183D01*
X81911Y-68183D01*
X81911Y-68913D01*
X81701Y-68913D01*
X81639Y-68939D01*
X81592Y-68986D01*
X81567Y-69047D01*
X81567Y-69114D01*
X81567Y-69567D01*
X81567Y-69566D01*
X81541Y-69505D01*
X81494Y-69458D01*
X81433Y-69432D01*
X81151Y-69432D01*
X81109Y-69474D01*
X81109Y-69890D01*
X81117Y-69890D01*
X81117Y-69909D01*
X81109Y-69909D01*
X81109Y-69917D01*
X81090Y-69917D01*
X81090Y-69909D01*
X81090Y-69890D01*
X81090Y-69474D01*
X81048Y-69432D01*
X80766Y-69432D01*
X80705Y-69458D01*
X80658Y-69505D01*
X80632Y-69566D01*
X80632Y-69633D01*
X80632Y-69848D01*
X80674Y-69890D01*
X81090Y-69890D01*
X81090Y-69909D01*
X80674Y-69909D01*
X80632Y-69951D01*
X80632Y-70166D01*
X80632Y-70233D01*
X80658Y-70294D01*
X80666Y-70303D01*
X80348Y-70303D01*
X80364Y-70296D01*
X80495Y-70165D01*
X80567Y-69993D01*
X80567Y-69807D01*
X80496Y-69635D01*
X80365Y-69504D01*
X80193Y-69432D01*
X80007Y-69432D01*
X79959Y-69452D01*
X79942Y-69434D01*
X79942Y-68727D01*
X80032Y-68862D01*
X80086Y-68917D01*
X80087Y-68917D01*
X80248Y-69025D01*
X80249Y-69025D01*
X80320Y-69055D01*
X80510Y-69092D01*
X80511Y-69093D01*
X80588Y-69093D01*
X80779Y-69055D01*
X80850Y-69025D01*
X80851Y-69025D01*
X81012Y-68917D01*
X81067Y-68863D01*
X81067Y-68862D01*
X81175Y-68701D01*
X81175Y-68700D01*
X81205Y-68629D01*
X81242Y-68438D01*
X81242Y-68438D01*
X81242Y-68438D01*
X81242Y-68438D01*
X81242Y-68400D01*
X81242Y-68361D01*
X81242Y-68361D01*
X81242Y-68361D01*
X81242Y-68361D01*
X81205Y-68170D01*
X81175Y-68099D01*
X81175Y-68098D01*
X81067Y-67937D01*
X81067Y-67936D01*
X81012Y-67882D01*
X80851Y-67774D01*
X80850Y-67774D01*
X80817Y-67760D01*
X80817Y-67441D01*
X80817Y-66958D01*
X80817Y-66891D01*
X80791Y-66830D01*
X80744Y-66783D01*
X80683Y-66757D01*
X80526Y-66757D01*
X80484Y-66799D01*
X80484Y-67190D01*
X80775Y-67190D01*
X80817Y-67148D01*
X80817Y-66958D01*
X80817Y-67441D01*
X80817Y-67251D01*
X80775Y-67209D01*
X80484Y-67209D01*
X80484Y-67600D01*
X80526Y-67642D01*
X80683Y-67642D01*
X80744Y-67616D01*
X80791Y-67569D01*
X80817Y-67508D01*
X80817Y-67441D01*
X80817Y-67760D01*
X80779Y-67744D01*
X80588Y-67706D01*
X80511Y-67706D01*
X80510Y-67707D01*
X80465Y-67716D01*
X80465Y-67600D01*
X80465Y-67209D01*
X80465Y-67190D01*
X80465Y-66799D01*
X80423Y-66757D01*
X80266Y-66757D01*
X80205Y-66783D01*
X80158Y-66830D01*
X80132Y-66891D01*
X80132Y-66958D01*
X80132Y-67148D01*
X80174Y-67190D01*
X80465Y-67190D01*
X80465Y-67209D01*
X80174Y-67209D01*
X80132Y-67251D01*
X80132Y-67441D01*
X80132Y-67508D01*
X80158Y-67569D01*
X80205Y-67616D01*
X80266Y-67642D01*
X80423Y-67642D01*
X80465Y-67600D01*
X80465Y-67716D01*
X80320Y-67744D01*
X80249Y-67774D01*
X80248Y-67774D01*
X80087Y-67882D01*
X80086Y-67882D01*
X80032Y-67937D01*
X79942Y-68072D01*
X79942Y-66538D01*
X79994Y-66516D01*
X80041Y-66469D01*
X80067Y-66408D01*
X80067Y-66341D01*
X80067Y-66214D01*
X80339Y-65942D01*
X80683Y-65942D01*
X80744Y-65916D01*
X80791Y-65869D01*
X80817Y-65808D01*
X80817Y-65741D01*
X80817Y-65191D01*
X80791Y-65130D01*
X80744Y-65083D01*
X80692Y-65061D01*
X80692Y-64465D01*
X81706Y-63451D01*
X82174Y-63451D01*
X82174Y-63603D01*
X82180Y-63618D01*
X82174Y-63632D01*
X82174Y-63694D01*
X82216Y-63736D01*
X82305Y-63736D01*
X82308Y-63737D01*
X82375Y-63737D01*
X82684Y-63737D01*
X82684Y-63754D01*
X82308Y-63754D01*
X82305Y-63755D01*
X82216Y-63755D01*
X82174Y-63797D01*
X82174Y-63859D01*
X82180Y-63873D01*
X82174Y-63888D01*
X82174Y-63955D01*
X82174Y-64043D01*
X82109Y-64056D01*
X82039Y-64103D01*
X82039Y-64103D01*
X81896Y-64246D01*
X81849Y-64316D01*
X81832Y-64400D01*
X81832Y-64900D01*
X81849Y-64983D01*
X81896Y-65053D01*
X82371Y-65528D01*
X82371Y-65528D01*
X82441Y-65575D01*
X82441Y-65575D01*
X82525Y-65592D01*
X83361Y-65592D01*
X83383Y-65644D01*
X83430Y-65691D01*
X83491Y-65717D01*
X83558Y-65717D01*
X83682Y-65717D01*
X83682Y-65757D01*
X83576Y-65757D01*
X83534Y-65799D01*
X83534Y-66190D01*
X83542Y-66190D01*
X83542Y-66209D01*
X83534Y-66209D01*
X83534Y-66600D01*
X83576Y-66642D01*
X83682Y-66642D01*
X83682Y-66682D01*
X83651Y-66682D01*
X83515Y-66682D01*
X83515Y-66600D01*
X83515Y-66209D01*
X83515Y-66190D01*
X83515Y-65799D01*
X83473Y-65757D01*
X83316Y-65757D01*
X83255Y-65783D01*
X83208Y-65830D01*
X83182Y-65891D01*
X83182Y-65958D01*
X83182Y-66148D01*
X83224Y-66190D01*
X83515Y-66190D01*
X83515Y-66209D01*
X83224Y-66209D01*
X83182Y-66251D01*
X83182Y-66441D01*
X83182Y-66508D01*
X83208Y-66569D01*
X83255Y-66616D01*
X83316Y-66642D01*
X83473Y-66642D01*
X83515Y-66600D01*
X83515Y-66682D01*
X83451Y-66682D01*
X83427Y-66692D01*
X83403Y-66682D01*
X83321Y-66682D01*
X83279Y-66724D01*
X83279Y-67340D01*
X83287Y-67340D01*
X83287Y-67359D01*
X83279Y-67359D01*
X83279Y-67975D01*
X83321Y-68017D01*
X83403Y-68017D01*
X83427Y-68007D01*
X83451Y-68017D01*
X83518Y-68017D01*
X83718Y-68017D01*
X83742Y-68007D01*
X83766Y-68017D01*
X83833Y-68017D01*
X84033Y-68017D01*
X84057Y-68007D01*
X84081Y-68017D01*
X84148Y-68017D01*
X84348Y-68017D01*
X84372Y-68007D01*
X84396Y-68017D01*
X84463Y-68017D01*
X84663Y-68017D01*
X84724Y-67991D01*
X84771Y-67944D01*
X84797Y-67883D01*
X84797Y-67816D01*
X84797Y-67010D01*
X85153Y-66653D01*
X85153Y-66653D01*
X85153Y-66653D01*
X85200Y-66583D01*
X85200Y-66583D01*
X85217Y-66500D01*
X85217Y-66500D01*
X85217Y-66067D01*
X85308Y-66067D01*
X85369Y-66041D01*
X85416Y-65994D01*
X85442Y-65933D01*
X85442Y-65866D01*
X85442Y-65516D01*
X85442Y-65116D01*
X85442Y-64766D01*
X85416Y-64705D01*
X85385Y-64674D01*
X85403Y-64632D01*
X85403Y-64565D01*
X85403Y-64093D01*
X85377Y-64032D01*
X85330Y-63985D01*
X85269Y-63959D01*
X85202Y-63959D01*
X84990Y-63959D01*
X84990Y-63898D01*
X84990Y-63546D01*
X84638Y-63546D01*
X84596Y-63588D01*
X84596Y-63806D01*
X84622Y-63867D01*
X84669Y-63914D01*
X84730Y-63940D01*
X84797Y-63940D01*
X84948Y-63940D01*
X84990Y-63898D01*
X84990Y-63959D01*
X84730Y-63959D01*
X84669Y-63985D01*
X84622Y-64032D01*
X84596Y-64093D01*
X84596Y-64160D01*
X84596Y-64632D01*
X84614Y-64674D01*
X84583Y-64705D01*
X84567Y-64743D01*
X84567Y-64091D01*
X84567Y-63608D01*
X84567Y-63541D01*
X84541Y-63480D01*
X84494Y-63433D01*
X84433Y-63407D01*
X84276Y-63407D01*
X84234Y-63449D01*
X84234Y-63840D01*
X84525Y-63840D01*
X84567Y-63798D01*
X84567Y-63608D01*
X84567Y-64091D01*
X84567Y-63901D01*
X84525Y-63859D01*
X84234Y-63859D01*
X84234Y-64250D01*
X84276Y-64292D01*
X84433Y-64292D01*
X84494Y-64266D01*
X84541Y-64219D01*
X84567Y-64158D01*
X84567Y-64091D01*
X84567Y-64743D01*
X84557Y-64766D01*
X84557Y-64833D01*
X84557Y-65183D01*
X84583Y-65244D01*
X84630Y-65291D01*
X84691Y-65317D01*
X84758Y-65317D01*
X85308Y-65317D01*
X85369Y-65291D01*
X85416Y-65244D01*
X85442Y-65183D01*
X85442Y-65116D01*
X85442Y-65516D01*
X85416Y-65455D01*
X85369Y-65408D01*
X85308Y-65382D01*
X85241Y-65382D01*
X84691Y-65382D01*
X84630Y-65408D01*
X84583Y-65455D01*
X84557Y-65516D01*
X84557Y-65583D01*
X84557Y-65795D01*
X84544Y-65783D01*
X84492Y-65761D01*
X84492Y-65075D01*
X84492Y-65074D01*
X84475Y-64991D01*
X84475Y-64991D01*
X84428Y-64921D01*
X84428Y-64921D01*
X84351Y-64844D01*
X84281Y-64797D01*
X84242Y-64789D01*
X84242Y-64416D01*
X84216Y-64355D01*
X84169Y-64308D01*
X84131Y-64292D01*
X84173Y-64292D01*
X84215Y-64250D01*
X84215Y-63859D01*
X83924Y-63859D01*
X83882Y-63901D01*
X83882Y-64091D01*
X83882Y-64158D01*
X83908Y-64219D01*
X83955Y-64266D01*
X83993Y-64282D01*
X83851Y-64282D01*
X83809Y-64324D01*
X83809Y-64615D01*
X84200Y-64615D01*
X84242Y-64573D01*
X84242Y-64416D01*
X84242Y-64789D01*
X84242Y-64789D01*
X84242Y-64676D01*
X84200Y-64634D01*
X83809Y-64634D01*
X83809Y-64642D01*
X83790Y-64642D01*
X83790Y-64634D01*
X83399Y-64634D01*
X83357Y-64676D01*
X83357Y-64780D01*
X83242Y-64780D01*
X83138Y-64676D01*
X83159Y-64626D01*
X83159Y-64559D01*
X83159Y-64399D01*
X83153Y-64385D01*
X83159Y-64370D01*
X83159Y-64303D01*
X83159Y-64220D01*
X83205Y-64266D01*
X83266Y-64292D01*
X83333Y-64292D01*
X83468Y-64292D01*
X83430Y-64308D01*
X83383Y-64355D01*
X83357Y-64416D01*
X83357Y-64573D01*
X83399Y-64615D01*
X83790Y-64615D01*
X83790Y-64324D01*
X83748Y-64282D01*
X83706Y-64282D01*
X83744Y-64266D01*
X83791Y-64219D01*
X83817Y-64158D01*
X83817Y-64091D01*
X83817Y-63541D01*
X83807Y-63517D01*
X83892Y-63517D01*
X83882Y-63541D01*
X83882Y-63608D01*
X83882Y-63798D01*
X83924Y-63840D01*
X84215Y-63840D01*
X84215Y-63449D01*
X84173Y-63407D01*
X84082Y-63407D01*
X84092Y-63383D01*
X84092Y-63316D01*
X84092Y-62966D01*
X84092Y-62633D01*
X84092Y-62476D01*
X84050Y-62434D01*
X83659Y-62434D01*
X83659Y-62725D01*
X83701Y-62767D01*
X83891Y-62767D01*
X83958Y-62767D01*
X84019Y-62741D01*
X84066Y-62694D01*
X84092Y-62633D01*
X84092Y-62966D01*
X84066Y-62905D01*
X84019Y-62858D01*
X83958Y-62832D01*
X83891Y-62832D01*
X83640Y-62832D01*
X83640Y-62725D01*
X83640Y-62434D01*
X83249Y-62434D01*
X83207Y-62476D01*
X83207Y-62633D01*
X83233Y-62694D01*
X83280Y-62741D01*
X83341Y-62767D01*
X83408Y-62767D01*
X83598Y-62767D01*
X83640Y-62725D01*
X83640Y-62832D01*
X83341Y-62832D01*
X83280Y-62858D01*
X83233Y-62905D01*
X83207Y-62966D01*
X83207Y-63016D01*
X83146Y-63016D01*
X83117Y-62987D01*
X83028Y-62987D01*
X83025Y-62986D01*
X82958Y-62986D01*
X82308Y-62986D01*
X82305Y-62987D01*
X82216Y-62987D01*
X82187Y-63016D01*
X81867Y-63016D01*
X81867Y-62450D01*
X81867Y-62449D01*
X81867Y-62449D01*
X81864Y-62433D01*
X81850Y-62366D01*
X81850Y-62366D01*
X81803Y-62296D01*
X81803Y-62296D01*
X81307Y-61800D01*
X81237Y-61753D01*
X81154Y-61736D01*
X80325Y-61736D01*
X80325Y-61584D01*
X80319Y-61570D01*
X80325Y-61556D01*
X80325Y-61489D01*
X80325Y-61404D01*
X81887Y-61404D01*
X81970Y-61387D01*
X81970Y-61387D01*
X82040Y-61340D01*
X82174Y-61206D01*
X82174Y-61300D01*
X82180Y-61314D01*
X82174Y-61329D01*
X82174Y-61396D01*
X82174Y-61556D01*
X82180Y-61570D01*
X82174Y-61584D01*
X82174Y-61646D01*
X82216Y-61688D01*
X82303Y-61688D01*
X82308Y-61690D01*
X82375Y-61690D01*
X82684Y-61690D01*
X82684Y-61707D01*
X82676Y-61707D01*
X82676Y-61748D01*
X82676Y-61903D01*
X82676Y-61944D01*
X82684Y-61944D01*
X82684Y-61962D01*
X82657Y-61962D01*
X82657Y-61944D01*
X82657Y-61903D01*
X82657Y-61748D01*
X82657Y-61707D01*
X82616Y-61707D01*
X82615Y-61706D01*
X82375Y-61706D01*
X82308Y-61706D01*
X82305Y-61707D01*
X82216Y-61707D01*
X82174Y-61749D01*
X82174Y-61811D01*
X82180Y-61826D01*
X82174Y-61840D01*
X82174Y-61902D01*
X82216Y-61944D01*
X82305Y-61944D01*
X82308Y-61945D01*
X82375Y-61945D01*
X82615Y-61945D01*
X82616Y-61944D01*
X82657Y-61944D01*
X82657Y-61962D01*
X82308Y-61962D01*
X82305Y-61963D01*
X82216Y-61963D01*
X82174Y-62005D01*
X82174Y-62067D01*
X82180Y-62081D01*
X82174Y-62096D01*
X82174Y-62163D01*
X82174Y-62323D01*
X82180Y-62337D01*
X82174Y-62352D01*
X82174Y-62419D01*
X82174Y-62579D01*
X82180Y-62593D01*
X82174Y-62608D01*
X82174Y-62675D01*
X82174Y-62835D01*
X82180Y-62850D01*
X82174Y-62864D01*
X82174Y-62926D01*
X82216Y-62968D01*
X82305Y-62968D01*
X82308Y-62969D01*
X82375Y-62969D01*
X83025Y-62969D01*
X83028Y-62968D01*
X83117Y-62968D01*
X83159Y-62926D01*
X83159Y-62864D01*
X83153Y-62850D01*
X83159Y-62835D01*
X83159Y-62768D01*
X83159Y-62608D01*
X83153Y-62594D01*
X83159Y-62579D01*
X83159Y-62512D01*
X83159Y-62352D01*
X83153Y-62338D01*
X83159Y-62323D01*
X83159Y-62256D01*
X83159Y-62096D01*
X83153Y-62082D01*
X83159Y-62067D01*
X83159Y-62016D01*
X83265Y-62122D01*
X83233Y-62155D01*
X83207Y-62216D01*
X83207Y-62373D01*
X83249Y-62415D01*
X83640Y-62415D01*
X83640Y-62407D01*
X83659Y-62407D01*
X83659Y-62415D01*
X84050Y-62415D01*
X84079Y-62386D01*
X84826Y-63133D01*
X84797Y-63133D01*
X84730Y-63133D01*
X84669Y-63159D01*
X84622Y-63206D01*
X84596Y-63267D01*
X84596Y-63485D01*
X84638Y-63527D01*
X84990Y-63527D01*
X84990Y-63519D01*
X85009Y-63519D01*
X85009Y-63527D01*
X85017Y-63527D01*
X85017Y-63546D01*
X85009Y-63546D01*
X85009Y-63898D01*
X85051Y-63940D01*
X85202Y-63940D01*
X85269Y-63940D01*
X85330Y-63914D01*
X85377Y-63867D01*
X85403Y-63806D01*
X85403Y-63778D01*
X85409Y-63793D01*
X85505Y-63890D01*
X85631Y-63942D01*
X85735Y-63942D01*
X86032Y-64240D01*
X86032Y-64250D01*
X86032Y-64300D01*
X86049Y-64383D01*
X86053Y-64389D01*
X86034Y-64407D01*
X85932Y-64407D01*
X85806Y-64459D01*
X85709Y-64555D01*
X85657Y-64681D01*
X85657Y-64817D01*
X85709Y-64943D01*
X85805Y-65040D01*
X85931Y-65092D01*
X86067Y-65092D01*
X86182Y-65044D01*
X86182Y-65076D01*
X86253Y-65248D01*
X86384Y-65379D01*
X86556Y-65451D01*
X86742Y-65451D01*
X86914Y-65380D01*
X86932Y-65362D01*
X86932Y-65484D01*
X86949Y-65567D01*
X86996Y-65637D01*
X87202Y-65843D01*
X87182Y-65890D01*
X87182Y-66076D01*
X87253Y-66248D01*
X87384Y-66379D01*
X87556Y-66451D01*
X87742Y-66451D01*
X87914Y-66380D01*
X88003Y-66291D01*
X88003Y-66676D01*
X87915Y-66588D01*
X87743Y-66516D01*
X87557Y-66516D01*
X87385Y-66587D01*
X87254Y-66718D01*
X87182Y-66890D01*
X87182Y-67076D01*
X87253Y-67248D01*
X87384Y-67379D01*
X87556Y-67451D01*
X87742Y-67451D01*
X87914Y-67380D01*
X88003Y-67291D01*
X88003Y-67676D01*
X87915Y-67588D01*
X87743Y-67516D01*
X87557Y-67516D01*
X87385Y-67587D01*
X87254Y-67718D01*
X87182Y-67890D01*
X87182Y-68076D01*
X87253Y-68248D01*
X87384Y-68379D01*
X87556Y-68451D01*
X87742Y-68451D01*
X87914Y-68380D01*
X88003Y-68291D01*
X88003Y-68676D01*
X87915Y-68588D01*
X87743Y-68516D01*
X87557Y-68516D01*
X87385Y-68587D01*
X87254Y-68718D01*
X87182Y-68890D01*
X87182Y-69076D01*
X87253Y-69248D01*
X87384Y-69379D01*
X87556Y-69451D01*
X87742Y-69451D01*
X87914Y-69380D01*
X88003Y-69291D01*
X88003Y-69697D01*
X88003Y-69697D01*
G37*
G54D24*
X88003Y-69697D02*
X87964Y-69683D01*
X87950Y-69697D01*
X87950Y-69669D01*
X87922Y-69592D01*
X87751Y-69518D01*
X87565Y-69515D01*
X87392Y-69582D01*
X87377Y-69592D01*
X87349Y-69669D01*
X87650Y-69970D01*
X87950Y-69669D01*
X87950Y-69697D01*
X87663Y-69984D01*
X87669Y-69989D01*
X87655Y-70003D01*
X87650Y-69997D01*
X87644Y-70003D01*
X87636Y-69995D01*
X87630Y-69989D01*
X87636Y-69984D01*
X87335Y-69683D01*
X87258Y-69711D01*
X87184Y-69882D01*
X87181Y-70068D01*
X87248Y-70241D01*
X87258Y-70256D01*
X87335Y-70284D01*
X87316Y-70303D01*
X87118Y-70303D01*
X86983Y-70303D01*
X86964Y-70284D01*
X87041Y-70256D01*
X87115Y-70085D01*
X87118Y-69899D01*
X87051Y-69726D01*
X87041Y-69711D01*
X86964Y-69683D01*
X86950Y-69697D01*
X86950Y-69669D01*
X86922Y-69592D01*
X86751Y-69518D01*
X86565Y-69515D01*
X86392Y-69582D01*
X86377Y-69592D01*
X86349Y-69669D01*
X86650Y-69970D01*
X86950Y-69669D01*
X86950Y-69697D01*
X86663Y-69984D01*
X86669Y-69989D01*
X86655Y-70003D01*
X86650Y-69997D01*
X86644Y-70003D01*
X86630Y-69989D01*
X86636Y-69984D01*
X86335Y-69683D01*
X86258Y-69711D01*
X86232Y-69771D01*
X86232Y-69197D01*
X86253Y-69248D01*
X86384Y-69379D01*
X86556Y-69451D01*
X86742Y-69451D01*
X86914Y-69380D01*
X87045Y-69249D01*
X87117Y-69077D01*
X87117Y-68891D01*
X87046Y-68719D01*
X86915Y-68588D01*
X86743Y-68516D01*
X86557Y-68516D01*
X86385Y-68587D01*
X86254Y-68718D01*
X86182Y-68890D01*
X86182Y-68961D01*
X86160Y-68939D01*
X86098Y-68913D01*
X86032Y-68913D01*
X85888Y-68913D01*
X85888Y-68183D01*
X86098Y-68183D01*
X86160Y-68157D01*
X86199Y-68118D01*
X86253Y-68248D01*
X86384Y-68379D01*
X86556Y-68451D01*
X86742Y-68451D01*
X86914Y-68380D01*
X87045Y-68249D01*
X87117Y-68077D01*
X87117Y-67891D01*
X87046Y-67719D01*
X86915Y-67588D01*
X86743Y-67516D01*
X86557Y-67516D01*
X86385Y-67587D01*
X86254Y-67718D01*
X86232Y-67770D01*
X86232Y-67197D01*
X86253Y-67248D01*
X86384Y-67379D01*
X86556Y-67451D01*
X86742Y-67451D01*
X86914Y-67380D01*
X87045Y-67249D01*
X87117Y-67077D01*
X87117Y-66891D01*
X87117Y-65891D01*
X87046Y-65719D01*
X86915Y-65588D01*
X86743Y-65516D01*
X86557Y-65516D01*
X86385Y-65587D01*
X86254Y-65718D01*
X86182Y-65890D01*
X86182Y-66076D01*
X86253Y-66248D01*
X86384Y-66379D01*
X86556Y-66451D01*
X86742Y-66451D01*
X86914Y-66380D01*
X87045Y-66249D01*
X87117Y-66077D01*
X87117Y-65891D01*
X87117Y-66891D01*
X87046Y-66719D01*
X86915Y-66588D01*
X86743Y-66516D01*
X86557Y-66516D01*
X86385Y-66587D01*
X86254Y-66718D01*
X86209Y-66826D01*
X86207Y-66821D01*
X86160Y-66773D01*
X86098Y-66748D01*
X86032Y-66748D01*
X85244Y-66748D01*
X85183Y-66773D01*
X85136Y-66820D01*
X85110Y-66882D01*
X85110Y-66948D01*
X85110Y-68048D01*
X85136Y-68110D01*
X85183Y-68157D01*
X85244Y-68183D01*
X85311Y-68183D01*
X85454Y-68183D01*
X85454Y-68913D01*
X85244Y-68913D01*
X85183Y-68939D01*
X85136Y-68986D01*
X85110Y-69047D01*
X85110Y-69114D01*
X85110Y-69413D01*
X85067Y-69413D01*
X85067Y-68387D01*
X85019Y-68270D01*
X84929Y-68181D01*
X84813Y-68132D01*
X84687Y-68132D01*
X84570Y-68180D01*
X84481Y-68270D01*
X84432Y-68386D01*
X84432Y-68512D01*
X84480Y-68629D01*
X84570Y-68718D01*
X84686Y-68767D01*
X84812Y-68767D01*
X84929Y-68719D01*
X85018Y-68629D01*
X85067Y-68513D01*
X85067Y-68387D01*
X85067Y-69413D01*
X83367Y-69413D01*
X83367Y-68387D01*
X83319Y-68270D01*
X83260Y-68211D01*
X83260Y-67975D01*
X83260Y-67359D01*
X83260Y-67340D01*
X83260Y-66724D01*
X83218Y-66682D01*
X83136Y-66682D01*
X83075Y-66708D01*
X83028Y-66755D01*
X83002Y-66816D01*
X83002Y-66883D01*
X83002Y-67298D01*
X83044Y-67340D01*
X83260Y-67340D01*
X83260Y-67359D01*
X83044Y-67359D01*
X83002Y-67401D01*
X83002Y-67816D01*
X83002Y-67883D01*
X83028Y-67944D01*
X83075Y-67991D01*
X83136Y-68017D01*
X83218Y-68017D01*
X83260Y-67975D01*
X83260Y-68211D01*
X83229Y-68181D01*
X83113Y-68132D01*
X82987Y-68132D01*
X82870Y-68180D01*
X82781Y-68270D01*
X82732Y-68386D01*
X82732Y-68512D01*
X82780Y-68629D01*
X82870Y-68718D01*
X82986Y-68767D01*
X83112Y-68767D01*
X83229Y-68719D01*
X83318Y-68629D01*
X83367Y-68513D01*
X83367Y-68387D01*
X83367Y-69413D01*
X82689Y-69413D01*
X82689Y-69047D01*
X82663Y-68986D01*
X82616Y-68939D01*
X82555Y-68913D01*
X82488Y-68913D01*
X82345Y-68913D01*
X82345Y-68183D01*
X82555Y-68183D01*
X82616Y-68157D01*
X82663Y-68110D01*
X82689Y-68049D01*
X82689Y-67982D01*
X82689Y-66882D01*
X82663Y-66821D01*
X82616Y-66773D01*
X82555Y-66748D01*
X82488Y-66748D01*
X82313Y-66748D01*
X82341Y-66719D01*
X82367Y-66658D01*
X82367Y-66591D01*
X82367Y-66041D01*
X82341Y-65980D01*
X82294Y-65933D01*
X82233Y-65907D01*
X82166Y-65907D01*
X81816Y-65907D01*
X81755Y-65933D01*
X81708Y-65980D01*
X81682Y-66041D01*
X81682Y-66108D01*
X81682Y-66658D01*
X81708Y-66719D01*
X81736Y-66748D01*
X81701Y-66748D01*
X81639Y-66773D01*
X81592Y-66820D01*
X81567Y-66882D01*
X81567Y-66891D01*
X81541Y-66830D01*
X81497Y-66786D01*
X81544Y-66766D01*
X81591Y-66719D01*
X81617Y-66658D01*
X81617Y-66591D01*
X81617Y-66108D01*
X81617Y-66041D01*
X81591Y-65980D01*
X81544Y-65933D01*
X81497Y-65913D01*
X81541Y-65869D01*
X81567Y-65808D01*
X81567Y-65741D01*
X81567Y-65258D01*
X81567Y-65191D01*
X81541Y-65130D01*
X81494Y-65083D01*
X81433Y-65057D01*
X81276Y-65057D01*
X81234Y-65099D01*
X81234Y-65490D01*
X81525Y-65490D01*
X81567Y-65448D01*
X81567Y-65258D01*
X81567Y-65741D01*
X81567Y-65551D01*
X81525Y-65509D01*
X81234Y-65509D01*
X81234Y-65517D01*
X81215Y-65517D01*
X81215Y-65509D01*
X81215Y-65490D01*
X81215Y-65099D01*
X81173Y-65057D01*
X81016Y-65057D01*
X80955Y-65083D01*
X80908Y-65130D01*
X80882Y-65191D01*
X80882Y-65258D01*
X80882Y-65448D01*
X80924Y-65490D01*
X81215Y-65490D01*
X81215Y-65509D01*
X80924Y-65509D01*
X80882Y-65551D01*
X80882Y-65741D01*
X80882Y-65808D01*
X80908Y-65869D01*
X80955Y-65916D01*
X81002Y-65936D01*
X80958Y-65980D01*
X80932Y-66041D01*
X80932Y-66108D01*
X80932Y-66298D01*
X80974Y-66340D01*
X81265Y-66340D01*
X81265Y-66332D01*
X81284Y-66332D01*
X81284Y-66340D01*
X81575Y-66340D01*
X81617Y-66298D01*
X81617Y-66108D01*
X81617Y-66591D01*
X81617Y-66401D01*
X81575Y-66359D01*
X81284Y-66359D01*
X81284Y-66367D01*
X81265Y-66367D01*
X81265Y-66359D01*
X80974Y-66359D01*
X80932Y-66401D01*
X80932Y-66591D01*
X80932Y-66658D01*
X80958Y-66719D01*
X81002Y-66763D01*
X80955Y-66783D01*
X80908Y-66830D01*
X80882Y-66891D01*
X80882Y-66958D01*
X80882Y-67508D01*
X80908Y-67569D01*
X80955Y-67616D01*
X81016Y-67642D01*
X81083Y-67642D01*
X81433Y-67642D01*
X81494Y-67616D01*
X81541Y-67569D01*
X81567Y-67508D01*
X81567Y-67507D01*
X81567Y-68048D01*
X81592Y-68110D01*
X81639Y-68157D01*
X81701Y-68183D01*
X81767Y-68183D01*
X81911Y-68183D01*
X81911Y-68913D01*
X81701Y-68913D01*
X81639Y-68939D01*
X81592Y-68986D01*
X81567Y-69047D01*
X81567Y-69114D01*
X81567Y-69567D01*
X81567Y-69566D01*
X81541Y-69505D01*
X81494Y-69458D01*
X81433Y-69432D01*
X81151Y-69432D01*
X81109Y-69474D01*
X81109Y-69890D01*
X81117Y-69890D01*
X81117Y-69909D01*
X81109Y-69909D01*
X81109Y-69917D01*
X81090Y-69917D01*
X81090Y-69909D01*
X81090Y-69890D01*
X81090Y-69474D01*
X81048Y-69432D01*
X80766Y-69432D01*
X80705Y-69458D01*
X80658Y-69505D01*
X80632Y-69566D01*
X80632Y-69633D01*
X80632Y-69848D01*
X80674Y-69890D01*
X81090Y-69890D01*
X81090Y-69909D01*
X80674Y-69909D01*
X80632Y-69951D01*
X80632Y-70166D01*
X80632Y-70233D01*
X80658Y-70294D01*
X80666Y-70303D01*
X80348Y-70303D01*
X80364Y-70296D01*
X80495Y-70165D01*
X80567Y-69993D01*
X80567Y-69807D01*
X80496Y-69635D01*
X80365Y-69504D01*
X80193Y-69432D01*
X80007Y-69432D01*
X79959Y-69452D01*
X79942Y-69434D01*
X79942Y-68727D01*
X80032Y-68862D01*
X80086Y-68917D01*
X80087Y-68917D01*
X80248Y-69025D01*
X80249Y-69025D01*
X80320Y-69055D01*
X80510Y-69092D01*
X80511Y-69093D01*
X80588Y-69093D01*
X80779Y-69055D01*
X80850Y-69025D01*
X80851Y-69025D01*
X81012Y-68917D01*
X81067Y-68863D01*
X81067Y-68862D01*
X81175Y-68701D01*
X81175Y-68700D01*
X81205Y-68629D01*
X81242Y-68438D01*
X81242Y-68438D01*
X81242Y-68438D01*
X81242Y-68438D01*
X81242Y-68400D01*
X81242Y-68361D01*
X81242Y-68361D01*
X81242Y-68361D01*
X81242Y-68361D01*
X81205Y-68170D01*
X81175Y-68099D01*
X81175Y-68098D01*
X81067Y-67937D01*
X81067Y-67936D01*
X81012Y-67882D01*
X80851Y-67774D01*
X80850Y-67774D01*
X80817Y-67760D01*
X80817Y-67441D01*
X80817Y-66958D01*
X80817Y-66891D01*
X80791Y-66830D01*
X80744Y-66783D01*
X80683Y-66757D01*
X80526Y-66757D01*
X80484Y-66799D01*
X80484Y-67190D01*
X80775Y-67190D01*
X80817Y-67148D01*
X80817Y-66958D01*
X80817Y-67441D01*
X80817Y-67251D01*
X80775Y-67209D01*
X80484Y-67209D01*
X80484Y-67600D01*
X80526Y-67642D01*
X80683Y-67642D01*
X80744Y-67616D01*
X80791Y-67569D01*
X80817Y-67508D01*
X80817Y-67441D01*
X80817Y-67760D01*
X80779Y-67744D01*
X80588Y-67706D01*
X80511Y-67706D01*
X80510Y-67707D01*
X80465Y-67716D01*
X80465Y-67600D01*
X80465Y-67209D01*
X80465Y-67190D01*
X80465Y-66799D01*
X80423Y-66757D01*
X80266Y-66757D01*
X80205Y-66783D01*
X80158Y-66830D01*
X80132Y-66891D01*
X80132Y-66958D01*
X80132Y-67148D01*
X80174Y-67190D01*
X80465Y-67190D01*
X80465Y-67209D01*
X80174Y-67209D01*
X80132Y-67251D01*
X80132Y-67441D01*
X80132Y-67508D01*
X80158Y-67569D01*
X80205Y-67616D01*
X80266Y-67642D01*
X80423Y-67642D01*
X80465Y-67600D01*
X80465Y-67716D01*
X80320Y-67744D01*
X80249Y-67774D01*
X80248Y-67774D01*
X80087Y-67882D01*
X80086Y-67882D01*
X80032Y-67937D01*
X79942Y-68072D01*
X79942Y-66538D01*
X79994Y-66516D01*
X80041Y-66469D01*
X80067Y-66408D01*
X80067Y-66341D01*
X80067Y-66214D01*
X80339Y-65942D01*
X80683Y-65942D01*
X80744Y-65916D01*
X80791Y-65869D01*
X80817Y-65808D01*
X80817Y-65741D01*
X80817Y-65191D01*
X80791Y-65130D01*
X80744Y-65083D01*
X80692Y-65061D01*
X80692Y-64465D01*
X81706Y-63451D01*
X82174Y-63451D01*
X82174Y-63603D01*
X82180Y-63618D01*
X82174Y-63632D01*
X82174Y-63694D01*
X82216Y-63736D01*
X82305Y-63736D01*
X82308Y-63737D01*
X82375Y-63737D01*
X82684Y-63737D01*
X82684Y-63754D01*
X82308Y-63754D01*
X82305Y-63755D01*
X82216Y-63755D01*
X82174Y-63797D01*
X82174Y-63859D01*
X82180Y-63873D01*
X82174Y-63888D01*
X82174Y-63955D01*
X82174Y-64043D01*
X82109Y-64056D01*
X82039Y-64103D01*
X82039Y-64103D01*
X81896Y-64246D01*
X81849Y-64316D01*
X81832Y-64400D01*
X81832Y-64900D01*
X81849Y-64983D01*
X81896Y-65053D01*
X82371Y-65528D01*
X82371Y-65528D01*
X82441Y-65575D01*
X82441Y-65575D01*
X82525Y-65592D01*
X83361Y-65592D01*
X83383Y-65644D01*
X83430Y-65691D01*
X83491Y-65717D01*
X83558Y-65717D01*
X83682Y-65717D01*
X83682Y-65757D01*
X83576Y-65757D01*
X83534Y-65799D01*
X83534Y-66190D01*
X83542Y-66190D01*
X83542Y-66209D01*
X83534Y-66209D01*
X83534Y-66600D01*
X83576Y-66642D01*
X83682Y-66642D01*
X83682Y-66682D01*
X83651Y-66682D01*
X83515Y-66682D01*
X83515Y-66600D01*
X83515Y-66209D01*
X83515Y-66190D01*
X83515Y-65799D01*
X83473Y-65757D01*
X83316Y-65757D01*
X83255Y-65783D01*
X83208Y-65830D01*
X83182Y-65891D01*
X83182Y-65958D01*
X83182Y-66148D01*
X83224Y-66190D01*
X83515Y-66190D01*
X83515Y-66209D01*
X83224Y-66209D01*
X83182Y-66251D01*
X83182Y-66441D01*
X83182Y-66508D01*
X83208Y-66569D01*
X83255Y-66616D01*
X83316Y-66642D01*
X83473Y-66642D01*
X83515Y-66600D01*
X83515Y-66682D01*
X83451Y-66682D01*
X83427Y-66692D01*
X83403Y-66682D01*
X83321Y-66682D01*
X83279Y-66724D01*
X83279Y-67340D01*
X83287Y-67340D01*
X83287Y-67359D01*
X83279Y-67359D01*
X83279Y-67975D01*
X83321Y-68017D01*
X83403Y-68017D01*
X83427Y-68007D01*
X83451Y-68017D01*
X83518Y-68017D01*
X83718Y-68017D01*
X83742Y-68007D01*
X83766Y-68017D01*
X83833Y-68017D01*
X84033Y-68017D01*
X84057Y-68007D01*
X84081Y-68017D01*
X84148Y-68017D01*
X84348Y-68017D01*
X84372Y-68007D01*
X84396Y-68017D01*
X84463Y-68017D01*
X84663Y-68017D01*
X84724Y-67991D01*
X84771Y-67944D01*
X84797Y-67883D01*
X84797Y-67816D01*
X84797Y-67010D01*
X85153Y-66653D01*
X85153Y-66653D01*
X85153Y-66653D01*
X85200Y-66583D01*
X85200Y-66583D01*
X85217Y-66500D01*
X85217Y-66500D01*
X85217Y-66067D01*
X85308Y-66067D01*
X85369Y-66041D01*
X85416Y-65994D01*
X85442Y-65933D01*
X85442Y-65866D01*
X85442Y-65516D01*
X85442Y-65116D01*
X85442Y-64766D01*
X85416Y-64705D01*
X85385Y-64674D01*
X85403Y-64632D01*
X85403Y-64565D01*
X85403Y-64093D01*
X85377Y-64032D01*
X85330Y-63985D01*
X85269Y-63959D01*
X85202Y-63959D01*
X84990Y-63959D01*
X84990Y-63898D01*
X84990Y-63546D01*
X84638Y-63546D01*
X84596Y-63588D01*
X84596Y-63806D01*
X84622Y-63867D01*
X84669Y-63914D01*
X84730Y-63940D01*
X84797Y-63940D01*
X84948Y-63940D01*
X84990Y-63898D01*
X84990Y-63959D01*
X84730Y-63959D01*
X84669Y-63985D01*
X84622Y-64032D01*
X84596Y-64093D01*
X84596Y-64160D01*
X84596Y-64632D01*
X84614Y-64674D01*
X84583Y-64705D01*
X84567Y-64743D01*
X84567Y-64091D01*
X84567Y-63608D01*
X84567Y-63541D01*
X84541Y-63480D01*
X84494Y-63433D01*
X84433Y-63407D01*
X84276Y-63407D01*
X84234Y-63449D01*
X84234Y-63840D01*
X84525Y-63840D01*
X84567Y-63798D01*
X84567Y-63608D01*
X84567Y-64091D01*
X84567Y-63901D01*
X84525Y-63859D01*
X84234Y-63859D01*
X84234Y-64250D01*
X84276Y-64292D01*
X84433Y-64292D01*
X84494Y-64266D01*
X84541Y-64219D01*
X84567Y-64158D01*
X84567Y-64091D01*
X84567Y-64743D01*
X84557Y-64766D01*
X84557Y-64833D01*
X84557Y-65183D01*
X84583Y-65244D01*
X84630Y-65291D01*
X84691Y-65317D01*
X84758Y-65317D01*
X85308Y-65317D01*
X85369Y-65291D01*
X85416Y-65244D01*
X85442Y-65183D01*
X85442Y-65116D01*
X85442Y-65516D01*
X85416Y-65455D01*
X85369Y-65408D01*
X85308Y-65382D01*
X85241Y-65382D01*
X84691Y-65382D01*
X84630Y-65408D01*
X84583Y-65455D01*
X84557Y-65516D01*
X84557Y-65583D01*
X84557Y-65795D01*
X84544Y-65783D01*
X84492Y-65761D01*
X84492Y-65075D01*
X84492Y-65074D01*
X84475Y-64991D01*
X84475Y-64991D01*
X84428Y-64921D01*
X84428Y-64921D01*
X84351Y-64844D01*
X84281Y-64797D01*
X84242Y-64789D01*
X84242Y-64416D01*
X84216Y-64355D01*
X84169Y-64308D01*
X84131Y-64292D01*
X84173Y-64292D01*
X84215Y-64250D01*
X84215Y-63859D01*
X83924Y-63859D01*
X83882Y-63901D01*
X83882Y-64091D01*
X83882Y-64158D01*
X83908Y-64219D01*
X83955Y-64266D01*
X83993Y-64282D01*
X83851Y-64282D01*
X83809Y-64324D01*
X83809Y-64615D01*
X84200Y-64615D01*
X84242Y-64573D01*
X84242Y-64416D01*
X84242Y-64789D01*
X84242Y-64789D01*
X84242Y-64676D01*
X84200Y-64634D01*
X83809Y-64634D01*
X83809Y-64642D01*
X83790Y-64642D01*
X83790Y-64634D01*
X83399Y-64634D01*
X83357Y-64676D01*
X83357Y-64780D01*
X83242Y-64780D01*
X83138Y-64676D01*
X83159Y-64626D01*
X83159Y-64559D01*
X83159Y-64399D01*
X83153Y-64385D01*
X83159Y-64370D01*
X83159Y-64303D01*
X83159Y-64220D01*
X83205Y-64266D01*
X83266Y-64292D01*
X83333Y-64292D01*
X83468Y-64292D01*
X83430Y-64308D01*
X83383Y-64355D01*
X83357Y-64416D01*
X83357Y-64573D01*
X83399Y-64615D01*
X83790Y-64615D01*
X83790Y-64324D01*
X83748Y-64282D01*
X83706Y-64282D01*
X83744Y-64266D01*
X83791Y-64219D01*
X83817Y-64158D01*
X83817Y-64091D01*
X83817Y-63541D01*
X83807Y-63517D01*
X83892Y-63517D01*
X83882Y-63541D01*
X83882Y-63608D01*
X83882Y-63798D01*
X83924Y-63840D01*
X84215Y-63840D01*
X84215Y-63449D01*
X84173Y-63407D01*
X84082Y-63407D01*
X84092Y-63383D01*
X84092Y-63316D01*
X84092Y-62966D01*
X84092Y-62633D01*
X84092Y-62476D01*
X84050Y-62434D01*
X83659Y-62434D01*
X83659Y-62725D01*
X83701Y-62767D01*
X83891Y-62767D01*
X83958Y-62767D01*
X84019Y-62741D01*
X84066Y-62694D01*
X84092Y-62633D01*
X84092Y-62966D01*
X84066Y-62905D01*
X84019Y-62858D01*
X83958Y-62832D01*
X83891Y-62832D01*
X83640Y-62832D01*
X83640Y-62725D01*
X83640Y-62434D01*
X83249Y-62434D01*
X83207Y-62476D01*
X83207Y-62633D01*
X83233Y-62694D01*
X83280Y-62741D01*
X83341Y-62767D01*
X83408Y-62767D01*
X83598Y-62767D01*
X83640Y-62725D01*
X83640Y-62832D01*
X83341Y-62832D01*
X83280Y-62858D01*
X83233Y-62905D01*
X83207Y-62966D01*
X83207Y-63016D01*
X83146Y-63016D01*
X83117Y-62987D01*
X83028Y-62987D01*
X83025Y-62986D01*
X82958Y-62986D01*
X82308Y-62986D01*
X82305Y-62987D01*
X82216Y-62987D01*
X82187Y-63016D01*
X81867Y-63016D01*
X81867Y-62450D01*
X81867Y-62449D01*
X81867Y-62449D01*
X81864Y-62433D01*
X81850Y-62366D01*
X81850Y-62366D01*
X81803Y-62296D01*
X81803Y-62296D01*
X81307Y-61800D01*
X81237Y-61753D01*
X81154Y-61736D01*
X80325Y-61736D01*
X80325Y-61584D01*
X80319Y-61570D01*
X80325Y-61556D01*
X80325Y-61489D01*
X80325Y-61404D01*
X81887Y-61404D01*
X81970Y-61387D01*
X81970Y-61387D01*
X82040Y-61340D01*
X82174Y-61206D01*
X82174Y-61300D01*
X82180Y-61314D01*
X82174Y-61329D01*
X82174Y-61396D01*
X82174Y-61556D01*
X82180Y-61570D01*
X82174Y-61584D01*
X82174Y-61646D01*
X82216Y-61688D01*
X82303Y-61688D01*
X82308Y-61690D01*
X82375Y-61690D01*
X82684Y-61690D01*
X82684Y-61707D01*
X82676Y-61707D01*
X82676Y-61748D01*
X82676Y-61903D01*
X82676Y-61944D01*
X82684Y-61944D01*
X82684Y-61962D01*
X82657Y-61962D01*
X82657Y-61944D01*
X82657Y-61903D01*
X82657Y-61748D01*
X82657Y-61707D01*
X82616Y-61707D01*
X82615Y-61706D01*
X82375Y-61706D01*
X82308Y-61706D01*
X82305Y-61707D01*
X82216Y-61707D01*
X82174Y-61749D01*
X82174Y-61811D01*
X82180Y-61826D01*
X82174Y-61840D01*
X82174Y-61902D01*
X82216Y-61944D01*
X82305Y-61944D01*
X82308Y-61945D01*
X82375Y-61945D01*
X82615Y-61945D01*
X82616Y-61944D01*
X82657Y-61944D01*
X82657Y-61962D01*
X82308Y-61962D01*
X82305Y-61963D01*
X82216Y-61963D01*
X82174Y-62005D01*
X82174Y-62067D01*
X82180Y-62081D01*
X82174Y-62096D01*
X82174Y-62163D01*
X82174Y-62323D01*
X82180Y-62337D01*
X82174Y-62352D01*
X82174Y-62419D01*
X82174Y-62579D01*
X82180Y-62593D01*
X82174Y-62608D01*
X82174Y-62675D01*
X82174Y-62835D01*
X82180Y-62850D01*
X82174Y-62864D01*
X82174Y-62926D01*
X82216Y-62968D01*
X82305Y-62968D01*
X82308Y-62969D01*
X82375Y-62969D01*
X83025Y-62969D01*
X83028Y-62968D01*
X83117Y-62968D01*
X83159Y-62926D01*
X83159Y-62864D01*
X83153Y-62850D01*
X83159Y-62835D01*
X83159Y-62768D01*
X83159Y-62608D01*
X83153Y-62594D01*
X83159Y-62579D01*
X83159Y-62512D01*
X83159Y-62352D01*
X83153Y-62338D01*
X83159Y-62323D01*
X83159Y-62256D01*
X83159Y-62096D01*
X83153Y-62082D01*
X83159Y-62067D01*
X83159Y-62016D01*
X83265Y-62122D01*
X83233Y-62155D01*
X83207Y-62216D01*
X83207Y-62373D01*
X83249Y-62415D01*
X83640Y-62415D01*
X83640Y-62407D01*
X83659Y-62407D01*
X83659Y-62415D01*
X84050Y-62415D01*
X84079Y-62386D01*
X84826Y-63133D01*
X84797Y-63133D01*
X84730Y-63133D01*
X84669Y-63159D01*
X84622Y-63206D01*
X84596Y-63267D01*
X84596Y-63485D01*
X84638Y-63527D01*
X84990Y-63527D01*
X84990Y-63519D01*
X85009Y-63519D01*
X85009Y-63527D01*
X85017Y-63527D01*
X85017Y-63546D01*
X85009Y-63546D01*
X85009Y-63898D01*
X85051Y-63940D01*
X85202Y-63940D01*
X85269Y-63940D01*
X85330Y-63914D01*
X85377Y-63867D01*
X85403Y-63806D01*
X85403Y-63778D01*
X85409Y-63793D01*
X85505Y-63890D01*
X85631Y-63942D01*
X85735Y-63942D01*
X86032Y-64240D01*
X86032Y-64250D01*
X86032Y-64300D01*
X86049Y-64383D01*
X86053Y-64389D01*
X86034Y-64407D01*
X85932Y-64407D01*
X85806Y-64459D01*
X85709Y-64555D01*
X85657Y-64681D01*
X85657Y-64817D01*
X85709Y-64943D01*
X85805Y-65040D01*
X85931Y-65092D01*
X86067Y-65092D01*
X86182Y-65044D01*
X86182Y-65076D01*
X86253Y-65248D01*
X86384Y-65379D01*
X86556Y-65451D01*
X86742Y-65451D01*
X86914Y-65380D01*
X86932Y-65362D01*
X86932Y-65484D01*
X86949Y-65567D01*
X86996Y-65637D01*
X87202Y-65843D01*
X87182Y-65890D01*
X87182Y-66076D01*
X87253Y-66248D01*
X87384Y-66379D01*
X87556Y-66451D01*
X87742Y-66451D01*
X87914Y-66380D01*
X88003Y-66291D01*
X88003Y-66676D01*
X87915Y-66588D01*
X87743Y-66516D01*
X87557Y-66516D01*
X87385Y-66587D01*
X87254Y-66718D01*
X87182Y-66890D01*
X87182Y-67076D01*
X87253Y-67248D01*
X87384Y-67379D01*
X87556Y-67451D01*
X87742Y-67451D01*
X87914Y-67380D01*
X88003Y-67291D01*
X88003Y-67676D01*
X87915Y-67588D01*
X87743Y-67516D01*
X87557Y-67516D01*
X87385Y-67587D01*
X87254Y-67718D01*
X87182Y-67890D01*
X87182Y-68076D01*
X87253Y-68248D01*
X87384Y-68379D01*
X87556Y-68451D01*
X87742Y-68451D01*
X87914Y-68380D01*
X88003Y-68291D01*
X88003Y-68676D01*
X87915Y-68588D01*
X87743Y-68516D01*
X87557Y-68516D01*
X87385Y-68587D01*
X87254Y-68718D01*
X87182Y-68890D01*
X87182Y-69076D01*
X87253Y-69248D01*
X87384Y-69379D01*
X87556Y-69451D01*
X87742Y-69451D01*
X87914Y-69380D01*
X88003Y-69291D01*
X88003Y-69697D01*
M02*
