M48
;DRILL file {Pcbnew (2013-07-07 BZR 4022)-stable} date 27/12/2013 08:41:39
;FORMAT={-:-/ absolute / inch / decimal}
FMAT,2
INCH,TZ
T1C0.025
T2C0.032
T3C0.040
%
G90
G05
M72
T1
X7.26Y-6.175
X7.32Y-6.425
X7.41Y-6.55
X7.425Y-6.395
X7.47Y-6.665
X7.495Y-6.55
X7.595Y-6.29
X7.605Y-6.63
X7.71Y-6.82
X7.745Y-6.635
X7.745Y-6.695
X7.77Y-6.29
X7.835Y-6.13
X7.84Y-6.76
X7.85Y-6.025
X7.87Y-6.33
X8.065Y-6.365
X8.165Y-6.155
X8.175Y-6.37
X8.57Y-6.36
X8.6Y-6.475
T2
X7.Y-6.0984
X8.665Y-6.0984
T3
X7.Y-6.1984
X7.Y-6.2984
X7.Y-6.3984
X7.Y-6.4984
X7.Y-6.5984
X7.Y-6.6984
X7.Y-6.7984
X7.Y-6.8984
X7.Y-6.9984
X7.1Y-6.0984
X7.1Y-6.1984
X7.1Y-6.2984
X7.1Y-6.3984
X7.1Y-6.4984
X7.1Y-6.5984
X7.1Y-6.6984
X7.1Y-6.7984
X7.1Y-6.8984
X7.1Y-6.9984
X7.23Y-6.355
X7.34Y-6.085
X7.34Y-6.185
X7.44Y-6.085
X7.44Y-6.185
X7.54Y-6.085
X7.54Y-6.185
X7.64Y-6.085
X7.64Y-6.185
X7.74Y-6.085
X7.74Y-6.185
X7.91Y-6.99
X8.01Y-6.99
X8.11Y-6.99
X8.555Y-6.24
X8.665Y-6.1984
X8.665Y-6.2984
X8.665Y-6.3984
X8.665Y-6.4984
X8.665Y-6.5984
X8.665Y-6.6984
X8.665Y-6.7984
X8.665Y-6.8984
X8.665Y-6.9984
X8.765Y-6.0984
X8.765Y-6.1984
X8.765Y-6.2984
X8.765Y-6.3984
X8.765Y-6.4984
X8.765Y-6.5984
X8.765Y-6.6984
X8.765Y-6.7984
X8.765Y-6.8984
X8.765Y-6.9984
T0
M30
