G04 (created by PCBNEW (2013-07-07 BZR 4022)-stable) date 27/12/2013 08:41:32*
%MOIN*%
G04 Gerber Fmt 3.4, Leading zero omitted, Abs format*
%FSLAX34Y34*%
G01*
G70*
G90*
G04 APERTURE LIST*
%ADD10C,0.00590551*%
%ADD11R,0.06X0.06*%
%ADD12C,0.06*%
%ADD13C,0.035*%
%ADD14C,0.01*%
%ADD15C,0.00984252*%
G04 APERTURE END LIST*
G54D10*
G54D11*
X81100Y-69900D03*
G54D12*
X80100Y-69900D03*
X79100Y-69900D03*
G54D11*
X70000Y-60984D03*
G54D12*
X71000Y-60984D03*
X70000Y-61984D03*
X71000Y-61984D03*
X70000Y-62984D03*
X71000Y-62984D03*
X70000Y-63984D03*
X71000Y-63984D03*
X70000Y-64984D03*
X71000Y-64984D03*
X70000Y-65984D03*
X71000Y-65984D03*
X70000Y-66984D03*
X71000Y-66984D03*
X70000Y-67984D03*
X71000Y-67984D03*
X70000Y-68984D03*
X71000Y-68984D03*
X70000Y-69984D03*
X71000Y-69984D03*
G54D11*
X86650Y-60984D03*
G54D12*
X87650Y-60984D03*
X86650Y-61984D03*
X87650Y-61984D03*
X86650Y-62984D03*
X87650Y-62984D03*
X86650Y-63984D03*
X87650Y-63984D03*
X86650Y-64984D03*
X87650Y-64984D03*
X86650Y-65984D03*
X87650Y-65984D03*
X86650Y-66984D03*
X87650Y-66984D03*
X86650Y-67984D03*
X87650Y-67984D03*
X86650Y-68984D03*
X87650Y-68984D03*
X86650Y-69984D03*
X87650Y-69984D03*
G54D11*
X85550Y-62400D03*
X73400Y-61850D03*
G54D12*
X73400Y-60850D03*
X74400Y-61850D03*
X74400Y-60850D03*
X75400Y-61850D03*
X75400Y-60850D03*
X76400Y-61850D03*
X76400Y-60850D03*
X77400Y-61850D03*
X77400Y-60850D03*
G54D11*
X72300Y-63550D03*
G54D13*
X78350Y-61300D03*
X73200Y-64250D03*
X86000Y-64750D03*
X85700Y-63600D03*
X77450Y-66950D03*
X74250Y-63950D03*
X75950Y-62900D03*
X77700Y-62900D03*
X74950Y-65500D03*
X74100Y-65500D03*
X74700Y-66650D03*
X78700Y-63300D03*
X76050Y-66300D03*
X77450Y-66350D03*
X77100Y-68200D03*
X78400Y-67600D03*
X81750Y-63700D03*
X80650Y-63650D03*
X72600Y-61750D03*
X78500Y-60250D03*
X81650Y-61550D03*
G54D14*
X70500Y-62250D02*
X70500Y-61650D01*
X73200Y-61350D02*
X73900Y-61350D01*
X74400Y-60850D02*
X73900Y-61350D01*
X70000Y-62750D02*
X70500Y-62250D01*
X70000Y-62750D02*
X70000Y-62984D01*
X72350Y-61350D02*
X73200Y-61350D01*
X72200Y-61500D02*
X72350Y-61350D01*
X70650Y-61500D02*
X72200Y-61500D01*
X70500Y-61650D02*
X70650Y-61500D01*
X78350Y-61300D02*
X78630Y-61300D01*
X86516Y-61850D02*
X86650Y-61984D01*
X85100Y-61850D02*
X86516Y-61850D01*
X85000Y-61950D02*
X85100Y-61850D01*
X81230Y-61950D02*
X85000Y-61950D01*
X80730Y-61450D02*
X81230Y-61950D01*
X78780Y-61450D02*
X80730Y-61450D01*
X78630Y-61300D02*
X78780Y-61450D01*
X75400Y-60850D02*
X75400Y-60950D01*
X74900Y-62400D02*
X73200Y-64250D01*
X74900Y-61450D02*
X74900Y-62400D01*
X75400Y-60950D02*
X74900Y-61450D01*
X85200Y-64700D02*
X85950Y-64700D01*
X83445Y-62950D02*
X85195Y-64700D01*
X85195Y-64700D02*
X85200Y-64700D01*
X75300Y-65550D02*
X75300Y-65400D01*
X78180Y-62950D02*
X81100Y-62950D01*
X77880Y-63250D02*
X78180Y-62950D01*
X77450Y-63250D02*
X77880Y-63250D01*
X75300Y-65400D02*
X77450Y-63250D01*
X81100Y-62950D02*
X83445Y-62950D01*
X85950Y-64700D02*
X86000Y-64750D01*
X70000Y-64984D02*
X70434Y-64984D01*
X75300Y-65700D02*
X75300Y-65550D01*
X75300Y-65550D02*
X75300Y-65533D01*
X75150Y-65850D02*
X75300Y-65700D01*
X75000Y-65850D02*
X75150Y-65850D01*
X74750Y-66100D02*
X75000Y-65850D01*
X73650Y-66100D02*
X74750Y-66100D01*
X72750Y-65200D02*
X73650Y-66100D01*
X71550Y-65200D02*
X72750Y-65200D01*
X71250Y-65500D02*
X71550Y-65200D01*
X70750Y-65500D02*
X71250Y-65500D01*
X70550Y-65300D02*
X70750Y-65500D01*
X70550Y-65100D02*
X70550Y-65300D01*
X70434Y-64984D02*
X70550Y-65100D01*
X77400Y-60850D02*
X77400Y-60869D01*
X85300Y-63600D02*
X85700Y-63600D01*
X83850Y-62150D02*
X85300Y-63600D01*
X81150Y-62150D02*
X83850Y-62150D01*
X80650Y-61650D02*
X81150Y-62150D01*
X78180Y-61650D02*
X80650Y-61650D01*
X77400Y-60869D02*
X78180Y-61650D01*
X77450Y-66950D02*
X86650Y-66984D01*
X76400Y-61850D02*
X76650Y-61850D01*
X85500Y-63850D02*
X85600Y-63950D01*
X85600Y-63950D02*
X85950Y-63950D01*
X85950Y-63950D02*
X86350Y-63550D01*
X83550Y-62350D02*
X83700Y-62350D01*
X86350Y-63550D02*
X87200Y-63550D01*
X87200Y-63550D02*
X87634Y-63984D01*
X87634Y-63984D02*
X87650Y-63984D01*
X78050Y-61850D02*
X80550Y-61850D01*
X81050Y-62350D02*
X83550Y-62350D01*
X80550Y-61850D02*
X81050Y-62350D01*
X83700Y-62350D02*
X85200Y-63850D01*
X85200Y-63850D02*
X85500Y-63850D01*
X77950Y-61850D02*
X78050Y-61850D01*
X77850Y-61750D02*
X77950Y-61850D01*
X77850Y-61600D02*
X77850Y-61750D01*
X77600Y-61350D02*
X77850Y-61600D01*
X77150Y-61350D02*
X77600Y-61350D01*
X76650Y-61850D02*
X77150Y-61350D01*
X76400Y-63400D02*
X75838Y-63961D01*
X75838Y-63961D02*
X74250Y-63950D01*
X76400Y-61850D02*
X76400Y-63400D01*
X74950Y-65500D02*
X74950Y-65450D01*
X77500Y-62900D02*
X77700Y-62900D01*
X74950Y-65450D02*
X77500Y-62900D01*
X86650Y-64984D02*
X86650Y-64800D01*
X86650Y-64800D02*
X86250Y-64400D01*
X86250Y-64400D02*
X85150Y-64400D01*
X85150Y-64400D02*
X83500Y-62750D01*
X83500Y-62750D02*
X77850Y-62750D01*
X77850Y-62750D02*
X77700Y-62900D01*
X70500Y-64100D02*
X70500Y-62550D01*
X74650Y-65500D02*
X74250Y-65900D01*
X74250Y-65900D02*
X73750Y-65900D01*
X73750Y-65900D02*
X72850Y-65000D01*
X72850Y-65000D02*
X71800Y-65000D01*
X71800Y-65000D02*
X71300Y-64500D01*
X71300Y-64500D02*
X70900Y-64500D01*
X70900Y-64500D02*
X70500Y-64100D01*
X74950Y-65500D02*
X74650Y-65500D01*
X70700Y-62284D02*
X71000Y-61984D01*
X70700Y-62350D02*
X70700Y-62284D01*
X70500Y-62550D02*
X70700Y-62350D01*
X75950Y-61550D02*
X75950Y-62900D01*
X76400Y-60850D02*
X76400Y-61100D01*
X76400Y-61100D02*
X75950Y-61550D01*
X74950Y-65500D02*
X75000Y-65500D01*
X77400Y-61850D02*
X77650Y-61850D01*
X86484Y-64150D02*
X86650Y-63984D01*
X85200Y-64150D02*
X86484Y-64150D01*
X83580Y-62530D02*
X85200Y-64150D01*
X80880Y-62530D02*
X83580Y-62530D01*
X80450Y-62100D02*
X80880Y-62530D01*
X77900Y-62100D02*
X80450Y-62100D01*
X77650Y-61850D02*
X77900Y-62100D01*
X77400Y-61850D02*
X77400Y-62200D01*
X75300Y-64300D02*
X74100Y-65500D01*
X75800Y-64300D02*
X75300Y-64300D01*
X76600Y-63500D02*
X75800Y-64300D01*
X76600Y-63000D02*
X76600Y-63500D01*
X77400Y-62200D02*
X76600Y-63000D01*
X71000Y-62984D02*
X71000Y-63350D01*
X73650Y-65500D02*
X74100Y-65500D01*
X72950Y-64800D02*
X73650Y-65500D01*
X71880Y-64800D02*
X72950Y-64800D01*
X71500Y-64419D02*
X71880Y-64800D01*
X71500Y-63700D02*
X71500Y-64419D01*
X71350Y-63550D02*
X71500Y-63700D01*
X71200Y-63550D02*
X71350Y-63550D01*
X71000Y-63350D02*
X71200Y-63550D01*
X74700Y-66650D02*
X74700Y-66600D01*
X78550Y-63450D02*
X78700Y-63300D01*
X77550Y-63450D02*
X78550Y-63450D01*
X75600Y-65400D02*
X77550Y-63450D01*
X75600Y-65700D02*
X75600Y-65400D01*
X74700Y-66600D02*
X75600Y-65700D01*
X86650Y-65984D02*
X86384Y-65984D01*
X78930Y-63150D02*
X83390Y-63150D01*
X78700Y-63300D02*
X78700Y-63280D01*
X78700Y-63280D02*
X78930Y-63150D01*
X83390Y-63150D02*
X84170Y-63929D01*
X85140Y-64900D02*
X84170Y-63929D01*
X85300Y-64900D02*
X85140Y-64900D01*
X86384Y-65984D02*
X85300Y-64900D01*
X70000Y-68000D02*
X70000Y-67984D01*
X70500Y-68500D02*
X74250Y-68500D01*
X70000Y-68000D02*
X70500Y-68500D01*
X74900Y-68500D02*
X74250Y-68500D01*
X75600Y-67800D02*
X74900Y-68500D01*
X75600Y-66750D02*
X75600Y-67800D01*
X76050Y-66300D02*
X75600Y-66750D01*
X78200Y-66750D02*
X77850Y-66750D01*
X86350Y-66500D02*
X86100Y-66750D01*
X86100Y-66750D02*
X78200Y-66750D01*
X87650Y-64984D02*
X87150Y-65484D01*
X87150Y-66250D02*
X87150Y-65484D01*
X86900Y-66500D02*
X87150Y-66250D01*
X86900Y-66500D02*
X86350Y-66500D01*
X77850Y-66750D02*
X77450Y-66350D01*
X77800Y-68200D02*
X77100Y-68200D01*
X78400Y-67600D02*
X77800Y-68200D01*
X80700Y-63700D02*
X81750Y-63700D01*
X80650Y-63650D02*
X80700Y-63700D01*
X80250Y-60250D02*
X78500Y-60250D01*
X81650Y-61550D02*
X80250Y-60250D01*
G54D10*
G36*
X88003Y-63676D02*
X87915Y-63588D01*
X87743Y-63516D01*
X87557Y-63516D01*
X87498Y-63541D01*
X87353Y-63396D01*
X87283Y-63349D01*
X87200Y-63332D01*
X86962Y-63332D01*
X87045Y-63249D01*
X87117Y-63077D01*
X87117Y-62891D01*
X87046Y-62719D01*
X86915Y-62588D01*
X86743Y-62516D01*
X86557Y-62516D01*
X86385Y-62587D01*
X86254Y-62718D01*
X86182Y-62890D01*
X86182Y-63076D01*
X86253Y-63248D01*
X86339Y-63334D01*
X86266Y-63349D01*
X86196Y-63396D01*
X86196Y-63396D01*
X86196Y-63396D01*
X86042Y-63550D01*
X86042Y-63532D01*
X85990Y-63406D01*
X85894Y-63309D01*
X85768Y-63257D01*
X85632Y-63257D01*
X85506Y-63309D01*
X85433Y-63382D01*
X85390Y-63382D01*
X84174Y-62167D01*
X85000Y-62167D01*
X85082Y-62150D01*
X85082Y-62733D01*
X85108Y-62794D01*
X85155Y-62841D01*
X85216Y-62867D01*
X85283Y-62867D01*
X85883Y-62867D01*
X85944Y-62841D01*
X85991Y-62794D01*
X86017Y-62733D01*
X86017Y-62666D01*
X86017Y-62067D01*
X86182Y-62067D01*
X86182Y-62076D01*
X86253Y-62248D01*
X86384Y-62379D01*
X86556Y-62451D01*
X86742Y-62451D01*
X86914Y-62380D01*
X87045Y-62249D01*
X87117Y-62077D01*
X87117Y-61891D01*
X87117Y-61891D01*
X87117Y-61250D01*
X87117Y-60650D01*
X87091Y-60589D01*
X87044Y-60542D01*
X86983Y-60516D01*
X86916Y-60516D01*
X86316Y-60516D01*
X86255Y-60542D01*
X86208Y-60589D01*
X86182Y-60650D01*
X86182Y-60717D01*
X86182Y-61317D01*
X86208Y-61378D01*
X86255Y-61425D01*
X86316Y-61451D01*
X86383Y-61451D01*
X86983Y-61451D01*
X87044Y-61425D01*
X87091Y-61378D01*
X87117Y-61317D01*
X87117Y-61250D01*
X87117Y-61891D01*
X87046Y-61719D01*
X86915Y-61588D01*
X86743Y-61516D01*
X86557Y-61516D01*
X86385Y-61587D01*
X86340Y-61632D01*
X85292Y-61632D01*
X85292Y-60688D01*
X85292Y-60650D01*
X85292Y-60611D01*
X85292Y-60611D01*
X85292Y-60611D01*
X85292Y-60611D01*
X85255Y-60420D01*
X85225Y-60349D01*
X85225Y-60348D01*
X85117Y-60187D01*
X85117Y-60186D01*
X85062Y-60132D01*
X84901Y-60024D01*
X84900Y-60024D01*
X84829Y-59994D01*
X84638Y-59956D01*
X84561Y-59956D01*
X84560Y-59957D01*
X84370Y-59994D01*
X84299Y-60024D01*
X84298Y-60024D01*
X84137Y-60132D01*
X84136Y-60132D01*
X84082Y-60187D01*
X83974Y-60348D01*
X83974Y-60349D01*
X83944Y-60420D01*
X83906Y-60611D01*
X83906Y-60650D01*
X83906Y-60688D01*
X83944Y-60879D01*
X83974Y-60950D01*
X83974Y-60951D01*
X84082Y-61112D01*
X84136Y-61167D01*
X84137Y-61167D01*
X84298Y-61275D01*
X84299Y-61275D01*
X84370Y-61305D01*
X84560Y-61342D01*
X84561Y-61343D01*
X84638Y-61343D01*
X84829Y-61305D01*
X84900Y-61275D01*
X84901Y-61275D01*
X85062Y-61167D01*
X85117Y-61113D01*
X85117Y-61112D01*
X85225Y-60951D01*
X85225Y-60950D01*
X85255Y-60879D01*
X85292Y-60688D01*
X85292Y-60688D01*
X85292Y-60688D01*
X85292Y-60688D01*
X85292Y-61632D01*
X85100Y-61632D01*
X85016Y-61649D01*
X84946Y-61696D01*
X84909Y-61732D01*
X81320Y-61732D01*
X80883Y-61296D01*
X80813Y-61249D01*
X80730Y-61232D01*
X78870Y-61232D01*
X78783Y-61146D01*
X78713Y-61099D01*
X78630Y-61082D01*
X78616Y-61082D01*
X78544Y-61009D01*
X78418Y-60957D01*
X78282Y-60957D01*
X78156Y-61009D01*
X78059Y-61105D01*
X78025Y-61188D01*
X77841Y-61004D01*
X77867Y-60943D01*
X77867Y-60757D01*
X77796Y-60585D01*
X77665Y-60454D01*
X77493Y-60382D01*
X77307Y-60382D01*
X77135Y-60453D01*
X77004Y-60584D01*
X76932Y-60756D01*
X76932Y-60942D01*
X77003Y-61114D01*
X77049Y-61160D01*
X77049Y-61160D01*
X76996Y-61196D01*
X76701Y-61490D01*
X76665Y-61454D01*
X76493Y-61382D01*
X76424Y-61382D01*
X76489Y-61317D01*
X76492Y-61317D01*
X76664Y-61246D01*
X76795Y-61115D01*
X76867Y-60943D01*
X76867Y-60757D01*
X76796Y-60585D01*
X76665Y-60454D01*
X76493Y-60382D01*
X76307Y-60382D01*
X76135Y-60453D01*
X76004Y-60584D01*
X75932Y-60756D01*
X75932Y-60942D01*
X76003Y-61114D01*
X76040Y-61151D01*
X75796Y-61396D01*
X75749Y-61466D01*
X75737Y-61526D01*
X75665Y-61454D01*
X75493Y-61382D01*
X75307Y-61382D01*
X75251Y-61405D01*
X75340Y-61317D01*
X75492Y-61317D01*
X75664Y-61246D01*
X75795Y-61115D01*
X75867Y-60943D01*
X75867Y-60757D01*
X75796Y-60585D01*
X75665Y-60454D01*
X75493Y-60382D01*
X75307Y-60382D01*
X75135Y-60453D01*
X75004Y-60584D01*
X74932Y-60756D01*
X74932Y-60942D01*
X74981Y-61061D01*
X74746Y-61296D01*
X74699Y-61366D01*
X74682Y-61450D01*
X74682Y-61471D01*
X74665Y-61454D01*
X74493Y-61382D01*
X74307Y-61382D01*
X74135Y-61453D01*
X74004Y-61584D01*
X73932Y-61756D01*
X73932Y-61942D01*
X74003Y-62114D01*
X74134Y-62245D01*
X74306Y-62317D01*
X74492Y-62317D01*
X74664Y-62246D01*
X74682Y-62228D01*
X74682Y-62316D01*
X73219Y-63907D01*
X73132Y-63907D01*
X73006Y-63959D01*
X72909Y-64055D01*
X72857Y-64181D01*
X72857Y-64317D01*
X72909Y-64443D01*
X73005Y-64540D01*
X73131Y-64592D01*
X73267Y-64592D01*
X73393Y-64540D01*
X73490Y-64444D01*
X73542Y-64318D01*
X73542Y-64198D01*
X75060Y-62547D01*
X75090Y-62498D01*
X75100Y-62483D01*
X75101Y-62481D01*
X75104Y-62475D01*
X75113Y-62420D01*
X75117Y-62400D01*
X75117Y-62394D01*
X75117Y-62391D01*
X75117Y-62389D01*
X75117Y-62228D01*
X75134Y-62245D01*
X75306Y-62317D01*
X75492Y-62317D01*
X75664Y-62246D01*
X75732Y-62178D01*
X75732Y-62633D01*
X75659Y-62705D01*
X75607Y-62831D01*
X75607Y-62967D01*
X75659Y-63093D01*
X75755Y-63190D01*
X75881Y-63242D01*
X76017Y-63242D01*
X76143Y-63190D01*
X76182Y-63151D01*
X76182Y-63309D01*
X75749Y-63743D01*
X74518Y-63734D01*
X74444Y-63659D01*
X74318Y-63607D01*
X74182Y-63607D01*
X74056Y-63659D01*
X73959Y-63755D01*
X73907Y-63881D01*
X73907Y-64017D01*
X73959Y-64143D01*
X74055Y-64240D01*
X74181Y-64292D01*
X74317Y-64292D01*
X74443Y-64240D01*
X74514Y-64169D01*
X75119Y-64173D01*
X74134Y-65157D01*
X74032Y-65157D01*
X73906Y-65209D01*
X73833Y-65282D01*
X73740Y-65282D01*
X73103Y-64646D01*
X73033Y-64599D01*
X72950Y-64582D01*
X72767Y-64582D01*
X72767Y-63816D01*
X72767Y-63216D01*
X72741Y-63155D01*
X72694Y-63108D01*
X72633Y-63082D01*
X72566Y-63082D01*
X71966Y-63082D01*
X71905Y-63108D01*
X71858Y-63155D01*
X71832Y-63216D01*
X71832Y-63283D01*
X71832Y-63883D01*
X71858Y-63944D01*
X71905Y-63991D01*
X71966Y-64017D01*
X72033Y-64017D01*
X72633Y-64017D01*
X72694Y-63991D01*
X72741Y-63944D01*
X72767Y-63883D01*
X72767Y-63816D01*
X72767Y-64582D01*
X71970Y-64582D01*
X71717Y-64329D01*
X71717Y-63700D01*
X71700Y-63616D01*
X71700Y-63616D01*
X71653Y-63546D01*
X71503Y-63396D01*
X71433Y-63349D01*
X71350Y-63332D01*
X71312Y-63332D01*
X71395Y-63249D01*
X71467Y-63077D01*
X71467Y-62891D01*
X71396Y-62719D01*
X71265Y-62588D01*
X71093Y-62516D01*
X70907Y-62516D01*
X70793Y-62563D01*
X70853Y-62503D01*
X70892Y-62445D01*
X70906Y-62451D01*
X71092Y-62451D01*
X71264Y-62380D01*
X71395Y-62249D01*
X71467Y-62077D01*
X71467Y-61891D01*
X71396Y-61719D01*
X71394Y-61717D01*
X72200Y-61717D01*
X72283Y-61700D01*
X72283Y-61700D01*
X72353Y-61653D01*
X72440Y-61567D01*
X72932Y-61567D01*
X72932Y-61583D01*
X72932Y-62183D01*
X72958Y-62244D01*
X73005Y-62291D01*
X73066Y-62317D01*
X73133Y-62317D01*
X73733Y-62317D01*
X73794Y-62291D01*
X73841Y-62244D01*
X73867Y-62183D01*
X73867Y-62116D01*
X73867Y-61567D01*
X73900Y-61567D01*
X73983Y-61550D01*
X73983Y-61550D01*
X74053Y-61503D01*
X74259Y-61297D01*
X74306Y-61317D01*
X74492Y-61317D01*
X74664Y-61246D01*
X74795Y-61115D01*
X74867Y-60943D01*
X74867Y-60757D01*
X74796Y-60585D01*
X74665Y-60454D01*
X74493Y-60382D01*
X74307Y-60382D01*
X74135Y-60453D01*
X74004Y-60584D01*
X73932Y-60756D01*
X73932Y-60942D01*
X73952Y-60990D01*
X73809Y-61132D01*
X73762Y-61132D01*
X73791Y-61122D01*
X73865Y-60951D01*
X73868Y-60765D01*
X73801Y-60592D01*
X73791Y-60577D01*
X73714Y-60549D01*
X73700Y-60563D01*
X73700Y-60535D01*
X73672Y-60458D01*
X73501Y-60384D01*
X73315Y-60381D01*
X73142Y-60448D01*
X73127Y-60458D01*
X73099Y-60535D01*
X73400Y-60836D01*
X73700Y-60535D01*
X73700Y-60563D01*
X73413Y-60850D01*
X73419Y-60855D01*
X73405Y-60869D01*
X73400Y-60863D01*
X73394Y-60869D01*
X73380Y-60855D01*
X73386Y-60850D01*
X73085Y-60549D01*
X73008Y-60577D01*
X72934Y-60748D01*
X72931Y-60934D01*
X72998Y-61107D01*
X73008Y-61122D01*
X73037Y-61132D01*
X72350Y-61132D01*
X72266Y-61149D01*
X72196Y-61196D01*
X72109Y-61282D01*
X71362Y-61282D01*
X71395Y-61249D01*
X71467Y-61077D01*
X71467Y-60891D01*
X71396Y-60719D01*
X71265Y-60588D01*
X71093Y-60516D01*
X70907Y-60516D01*
X70735Y-60587D01*
X70604Y-60718D01*
X70532Y-60890D01*
X70532Y-61076D01*
X70603Y-61248D01*
X70639Y-61284D01*
X70566Y-61299D01*
X70496Y-61346D01*
X70346Y-61496D01*
X70299Y-61566D01*
X70290Y-61613D01*
X70265Y-61588D01*
X70093Y-61516D01*
X69907Y-61516D01*
X69735Y-61587D01*
X69646Y-61676D01*
X69646Y-61443D01*
X69666Y-61451D01*
X69733Y-61451D01*
X70333Y-61451D01*
X70394Y-61425D01*
X70441Y-61378D01*
X70467Y-61317D01*
X70467Y-61250D01*
X70467Y-60650D01*
X70441Y-60589D01*
X70394Y-60542D01*
X70333Y-60516D01*
X70266Y-60516D01*
X69666Y-60516D01*
X69646Y-60524D01*
X69646Y-59946D01*
X88003Y-59946D01*
X88003Y-60676D01*
X87915Y-60588D01*
X87743Y-60516D01*
X87557Y-60516D01*
X87385Y-60587D01*
X87254Y-60718D01*
X87182Y-60890D01*
X87182Y-61076D01*
X87253Y-61248D01*
X87384Y-61379D01*
X87556Y-61451D01*
X87742Y-61451D01*
X87914Y-61380D01*
X88003Y-61291D01*
X88003Y-61676D01*
X87915Y-61588D01*
X87743Y-61516D01*
X87557Y-61516D01*
X87385Y-61587D01*
X87254Y-61718D01*
X87182Y-61890D01*
X87182Y-62076D01*
X87253Y-62248D01*
X87384Y-62379D01*
X87556Y-62451D01*
X87742Y-62451D01*
X87914Y-62380D01*
X88003Y-62291D01*
X88003Y-62676D01*
X87915Y-62588D01*
X87743Y-62516D01*
X87557Y-62516D01*
X87385Y-62587D01*
X87254Y-62718D01*
X87182Y-62890D01*
X87182Y-63076D01*
X87253Y-63248D01*
X87384Y-63379D01*
X87556Y-63451D01*
X87742Y-63451D01*
X87914Y-63380D01*
X88003Y-63291D01*
X88003Y-63676D01*
X88003Y-63676D01*
G37*
G54D15*
X88003Y-63676D02*
X87915Y-63588D01*
X87743Y-63516D01*
X87557Y-63516D01*
X87498Y-63541D01*
X87353Y-63396D01*
X87283Y-63349D01*
X87200Y-63332D01*
X86962Y-63332D01*
X87045Y-63249D01*
X87117Y-63077D01*
X87117Y-62891D01*
X87046Y-62719D01*
X86915Y-62588D01*
X86743Y-62516D01*
X86557Y-62516D01*
X86385Y-62587D01*
X86254Y-62718D01*
X86182Y-62890D01*
X86182Y-63076D01*
X86253Y-63248D01*
X86339Y-63334D01*
X86266Y-63349D01*
X86196Y-63396D01*
X86196Y-63396D01*
X86196Y-63396D01*
X86042Y-63550D01*
X86042Y-63532D01*
X85990Y-63406D01*
X85894Y-63309D01*
X85768Y-63257D01*
X85632Y-63257D01*
X85506Y-63309D01*
X85433Y-63382D01*
X85390Y-63382D01*
X84174Y-62167D01*
X85000Y-62167D01*
X85082Y-62150D01*
X85082Y-62733D01*
X85108Y-62794D01*
X85155Y-62841D01*
X85216Y-62867D01*
X85283Y-62867D01*
X85883Y-62867D01*
X85944Y-62841D01*
X85991Y-62794D01*
X86017Y-62733D01*
X86017Y-62666D01*
X86017Y-62067D01*
X86182Y-62067D01*
X86182Y-62076D01*
X86253Y-62248D01*
X86384Y-62379D01*
X86556Y-62451D01*
X86742Y-62451D01*
X86914Y-62380D01*
X87045Y-62249D01*
X87117Y-62077D01*
X87117Y-61891D01*
X87117Y-61891D01*
X87117Y-61250D01*
X87117Y-60650D01*
X87091Y-60589D01*
X87044Y-60542D01*
X86983Y-60516D01*
X86916Y-60516D01*
X86316Y-60516D01*
X86255Y-60542D01*
X86208Y-60589D01*
X86182Y-60650D01*
X86182Y-60717D01*
X86182Y-61317D01*
X86208Y-61378D01*
X86255Y-61425D01*
X86316Y-61451D01*
X86383Y-61451D01*
X86983Y-61451D01*
X87044Y-61425D01*
X87091Y-61378D01*
X87117Y-61317D01*
X87117Y-61250D01*
X87117Y-61891D01*
X87046Y-61719D01*
X86915Y-61588D01*
X86743Y-61516D01*
X86557Y-61516D01*
X86385Y-61587D01*
X86340Y-61632D01*
X85292Y-61632D01*
X85292Y-60688D01*
X85292Y-60650D01*
X85292Y-60611D01*
X85292Y-60611D01*
X85292Y-60611D01*
X85292Y-60611D01*
X85255Y-60420D01*
X85225Y-60349D01*
X85225Y-60348D01*
X85117Y-60187D01*
X85117Y-60186D01*
X85062Y-60132D01*
X84901Y-60024D01*
X84900Y-60024D01*
X84829Y-59994D01*
X84638Y-59956D01*
X84561Y-59956D01*
X84560Y-59957D01*
X84370Y-59994D01*
X84299Y-60024D01*
X84298Y-60024D01*
X84137Y-60132D01*
X84136Y-60132D01*
X84082Y-60187D01*
X83974Y-60348D01*
X83974Y-60349D01*
X83944Y-60420D01*
X83906Y-60611D01*
X83906Y-60650D01*
X83906Y-60688D01*
X83944Y-60879D01*
X83974Y-60950D01*
X83974Y-60951D01*
X84082Y-61112D01*
X84136Y-61167D01*
X84137Y-61167D01*
X84298Y-61275D01*
X84299Y-61275D01*
X84370Y-61305D01*
X84560Y-61342D01*
X84561Y-61343D01*
X84638Y-61343D01*
X84829Y-61305D01*
X84900Y-61275D01*
X84901Y-61275D01*
X85062Y-61167D01*
X85117Y-61113D01*
X85117Y-61112D01*
X85225Y-60951D01*
X85225Y-60950D01*
X85255Y-60879D01*
X85292Y-60688D01*
X85292Y-60688D01*
X85292Y-60688D01*
X85292Y-60688D01*
X85292Y-61632D01*
X85100Y-61632D01*
X85016Y-61649D01*
X84946Y-61696D01*
X84909Y-61732D01*
X81320Y-61732D01*
X80883Y-61296D01*
X80813Y-61249D01*
X80730Y-61232D01*
X78870Y-61232D01*
X78783Y-61146D01*
X78713Y-61099D01*
X78630Y-61082D01*
X78616Y-61082D01*
X78544Y-61009D01*
X78418Y-60957D01*
X78282Y-60957D01*
X78156Y-61009D01*
X78059Y-61105D01*
X78025Y-61188D01*
X77841Y-61004D01*
X77867Y-60943D01*
X77867Y-60757D01*
X77796Y-60585D01*
X77665Y-60454D01*
X77493Y-60382D01*
X77307Y-60382D01*
X77135Y-60453D01*
X77004Y-60584D01*
X76932Y-60756D01*
X76932Y-60942D01*
X77003Y-61114D01*
X77049Y-61160D01*
X77049Y-61160D01*
X76996Y-61196D01*
X76701Y-61490D01*
X76665Y-61454D01*
X76493Y-61382D01*
X76424Y-61382D01*
X76489Y-61317D01*
X76492Y-61317D01*
X76664Y-61246D01*
X76795Y-61115D01*
X76867Y-60943D01*
X76867Y-60757D01*
X76796Y-60585D01*
X76665Y-60454D01*
X76493Y-60382D01*
X76307Y-60382D01*
X76135Y-60453D01*
X76004Y-60584D01*
X75932Y-60756D01*
X75932Y-60942D01*
X76003Y-61114D01*
X76040Y-61151D01*
X75796Y-61396D01*
X75749Y-61466D01*
X75737Y-61526D01*
X75665Y-61454D01*
X75493Y-61382D01*
X75307Y-61382D01*
X75251Y-61405D01*
X75340Y-61317D01*
X75492Y-61317D01*
X75664Y-61246D01*
X75795Y-61115D01*
X75867Y-60943D01*
X75867Y-60757D01*
X75796Y-60585D01*
X75665Y-60454D01*
X75493Y-60382D01*
X75307Y-60382D01*
X75135Y-60453D01*
X75004Y-60584D01*
X74932Y-60756D01*
X74932Y-60942D01*
X74981Y-61061D01*
X74746Y-61296D01*
X74699Y-61366D01*
X74682Y-61450D01*
X74682Y-61471D01*
X74665Y-61454D01*
X74493Y-61382D01*
X74307Y-61382D01*
X74135Y-61453D01*
X74004Y-61584D01*
X73932Y-61756D01*
X73932Y-61942D01*
X74003Y-62114D01*
X74134Y-62245D01*
X74306Y-62317D01*
X74492Y-62317D01*
X74664Y-62246D01*
X74682Y-62228D01*
X74682Y-62316D01*
X73219Y-63907D01*
X73132Y-63907D01*
X73006Y-63959D01*
X72909Y-64055D01*
X72857Y-64181D01*
X72857Y-64317D01*
X72909Y-64443D01*
X73005Y-64540D01*
X73131Y-64592D01*
X73267Y-64592D01*
X73393Y-64540D01*
X73490Y-64444D01*
X73542Y-64318D01*
X73542Y-64198D01*
X75060Y-62547D01*
X75090Y-62498D01*
X75100Y-62483D01*
X75101Y-62481D01*
X75104Y-62475D01*
X75113Y-62420D01*
X75117Y-62400D01*
X75117Y-62394D01*
X75117Y-62391D01*
X75117Y-62389D01*
X75117Y-62228D01*
X75134Y-62245D01*
X75306Y-62317D01*
X75492Y-62317D01*
X75664Y-62246D01*
X75732Y-62178D01*
X75732Y-62633D01*
X75659Y-62705D01*
X75607Y-62831D01*
X75607Y-62967D01*
X75659Y-63093D01*
X75755Y-63190D01*
X75881Y-63242D01*
X76017Y-63242D01*
X76143Y-63190D01*
X76182Y-63151D01*
X76182Y-63309D01*
X75749Y-63743D01*
X74518Y-63734D01*
X74444Y-63659D01*
X74318Y-63607D01*
X74182Y-63607D01*
X74056Y-63659D01*
X73959Y-63755D01*
X73907Y-63881D01*
X73907Y-64017D01*
X73959Y-64143D01*
X74055Y-64240D01*
X74181Y-64292D01*
X74317Y-64292D01*
X74443Y-64240D01*
X74514Y-64169D01*
X75119Y-64173D01*
X74134Y-65157D01*
X74032Y-65157D01*
X73906Y-65209D01*
X73833Y-65282D01*
X73740Y-65282D01*
X73103Y-64646D01*
X73033Y-64599D01*
X72950Y-64582D01*
X72767Y-64582D01*
X72767Y-63816D01*
X72767Y-63216D01*
X72741Y-63155D01*
X72694Y-63108D01*
X72633Y-63082D01*
X72566Y-63082D01*
X71966Y-63082D01*
X71905Y-63108D01*
X71858Y-63155D01*
X71832Y-63216D01*
X71832Y-63283D01*
X71832Y-63883D01*
X71858Y-63944D01*
X71905Y-63991D01*
X71966Y-64017D01*
X72033Y-64017D01*
X72633Y-64017D01*
X72694Y-63991D01*
X72741Y-63944D01*
X72767Y-63883D01*
X72767Y-63816D01*
X72767Y-64582D01*
X71970Y-64582D01*
X71717Y-64329D01*
X71717Y-63700D01*
X71700Y-63616D01*
X71700Y-63616D01*
X71653Y-63546D01*
X71503Y-63396D01*
X71433Y-63349D01*
X71350Y-63332D01*
X71312Y-63332D01*
X71395Y-63249D01*
X71467Y-63077D01*
X71467Y-62891D01*
X71396Y-62719D01*
X71265Y-62588D01*
X71093Y-62516D01*
X70907Y-62516D01*
X70793Y-62563D01*
X70853Y-62503D01*
X70892Y-62445D01*
X70906Y-62451D01*
X71092Y-62451D01*
X71264Y-62380D01*
X71395Y-62249D01*
X71467Y-62077D01*
X71467Y-61891D01*
X71396Y-61719D01*
X71394Y-61717D01*
X72200Y-61717D01*
X72283Y-61700D01*
X72283Y-61700D01*
X72353Y-61653D01*
X72440Y-61567D01*
X72932Y-61567D01*
X72932Y-61583D01*
X72932Y-62183D01*
X72958Y-62244D01*
X73005Y-62291D01*
X73066Y-62317D01*
X73133Y-62317D01*
X73733Y-62317D01*
X73794Y-62291D01*
X73841Y-62244D01*
X73867Y-62183D01*
X73867Y-62116D01*
X73867Y-61567D01*
X73900Y-61567D01*
X73983Y-61550D01*
X73983Y-61550D01*
X74053Y-61503D01*
X74259Y-61297D01*
X74306Y-61317D01*
X74492Y-61317D01*
X74664Y-61246D01*
X74795Y-61115D01*
X74867Y-60943D01*
X74867Y-60757D01*
X74796Y-60585D01*
X74665Y-60454D01*
X74493Y-60382D01*
X74307Y-60382D01*
X74135Y-60453D01*
X74004Y-60584D01*
X73932Y-60756D01*
X73932Y-60942D01*
X73952Y-60990D01*
X73809Y-61132D01*
X73762Y-61132D01*
X73791Y-61122D01*
X73865Y-60951D01*
X73868Y-60765D01*
X73801Y-60592D01*
X73791Y-60577D01*
X73714Y-60549D01*
X73700Y-60563D01*
X73700Y-60535D01*
X73672Y-60458D01*
X73501Y-60384D01*
X73315Y-60381D01*
X73142Y-60448D01*
X73127Y-60458D01*
X73099Y-60535D01*
X73400Y-60836D01*
X73700Y-60535D01*
X73700Y-60563D01*
X73413Y-60850D01*
X73419Y-60855D01*
X73405Y-60869D01*
X73400Y-60863D01*
X73394Y-60869D01*
X73380Y-60855D01*
X73386Y-60850D01*
X73085Y-60549D01*
X73008Y-60577D01*
X72934Y-60748D01*
X72931Y-60934D01*
X72998Y-61107D01*
X73008Y-61122D01*
X73037Y-61132D01*
X72350Y-61132D01*
X72266Y-61149D01*
X72196Y-61196D01*
X72109Y-61282D01*
X71362Y-61282D01*
X71395Y-61249D01*
X71467Y-61077D01*
X71467Y-60891D01*
X71396Y-60719D01*
X71265Y-60588D01*
X71093Y-60516D01*
X70907Y-60516D01*
X70735Y-60587D01*
X70604Y-60718D01*
X70532Y-60890D01*
X70532Y-61076D01*
X70603Y-61248D01*
X70639Y-61284D01*
X70566Y-61299D01*
X70496Y-61346D01*
X70346Y-61496D01*
X70299Y-61566D01*
X70290Y-61613D01*
X70265Y-61588D01*
X70093Y-61516D01*
X69907Y-61516D01*
X69735Y-61587D01*
X69646Y-61676D01*
X69646Y-61443D01*
X69666Y-61451D01*
X69733Y-61451D01*
X70333Y-61451D01*
X70394Y-61425D01*
X70441Y-61378D01*
X70467Y-61317D01*
X70467Y-61250D01*
X70467Y-60650D01*
X70441Y-60589D01*
X70394Y-60542D01*
X70333Y-60516D01*
X70266Y-60516D01*
X69666Y-60516D01*
X69646Y-60524D01*
X69646Y-59946D01*
X88003Y-59946D01*
X88003Y-60676D01*
X87915Y-60588D01*
X87743Y-60516D01*
X87557Y-60516D01*
X87385Y-60587D01*
X87254Y-60718D01*
X87182Y-60890D01*
X87182Y-61076D01*
X87253Y-61248D01*
X87384Y-61379D01*
X87556Y-61451D01*
X87742Y-61451D01*
X87914Y-61380D01*
X88003Y-61291D01*
X88003Y-61676D01*
X87915Y-61588D01*
X87743Y-61516D01*
X87557Y-61516D01*
X87385Y-61587D01*
X87254Y-61718D01*
X87182Y-61890D01*
X87182Y-62076D01*
X87253Y-62248D01*
X87384Y-62379D01*
X87556Y-62451D01*
X87742Y-62451D01*
X87914Y-62380D01*
X88003Y-62291D01*
X88003Y-62676D01*
X87915Y-62588D01*
X87743Y-62516D01*
X87557Y-62516D01*
X87385Y-62587D01*
X87254Y-62718D01*
X87182Y-62890D01*
X87182Y-63076D01*
X87253Y-63248D01*
X87384Y-63379D01*
X87556Y-63451D01*
X87742Y-63451D01*
X87914Y-63380D01*
X88003Y-63291D01*
X88003Y-63676D01*
G54D10*
G36*
X88003Y-69697D02*
X87964Y-69683D01*
X87950Y-69697D01*
X87950Y-69669D01*
X87922Y-69592D01*
X87751Y-69518D01*
X87565Y-69515D01*
X87392Y-69582D01*
X87377Y-69592D01*
X87349Y-69669D01*
X87650Y-69970D01*
X87950Y-69669D01*
X87950Y-69697D01*
X87663Y-69984D01*
X87669Y-69989D01*
X87655Y-70003D01*
X87650Y-69997D01*
X87644Y-70003D01*
X87636Y-69995D01*
X87630Y-69989D01*
X87636Y-69984D01*
X87335Y-69683D01*
X87258Y-69711D01*
X87184Y-69882D01*
X87181Y-70068D01*
X87248Y-70241D01*
X87258Y-70256D01*
X87335Y-70284D01*
X87316Y-70303D01*
X87118Y-70303D01*
X86983Y-70303D01*
X86964Y-70284D01*
X87041Y-70256D01*
X87115Y-70085D01*
X87118Y-69899D01*
X87117Y-69895D01*
X87117Y-68891D01*
X87117Y-67891D01*
X87046Y-67719D01*
X86915Y-67588D01*
X86743Y-67516D01*
X86557Y-67516D01*
X86385Y-67587D01*
X86254Y-67718D01*
X86182Y-67890D01*
X86182Y-68076D01*
X86253Y-68248D01*
X86384Y-68379D01*
X86556Y-68451D01*
X86742Y-68451D01*
X86914Y-68380D01*
X87045Y-68249D01*
X87117Y-68077D01*
X87117Y-67891D01*
X87117Y-68891D01*
X87046Y-68719D01*
X86915Y-68588D01*
X86743Y-68516D01*
X86557Y-68516D01*
X86385Y-68587D01*
X86254Y-68718D01*
X86182Y-68890D01*
X86182Y-69076D01*
X86253Y-69248D01*
X86384Y-69379D01*
X86556Y-69451D01*
X86742Y-69451D01*
X86914Y-69380D01*
X87045Y-69249D01*
X87117Y-69077D01*
X87117Y-68891D01*
X87117Y-69895D01*
X87051Y-69726D01*
X87041Y-69711D01*
X86964Y-69683D01*
X86950Y-69697D01*
X86950Y-69669D01*
X86922Y-69592D01*
X86751Y-69518D01*
X86565Y-69515D01*
X86392Y-69582D01*
X86377Y-69592D01*
X86349Y-69669D01*
X86650Y-69970D01*
X86950Y-69669D01*
X86950Y-69697D01*
X86663Y-69984D01*
X86669Y-69989D01*
X86655Y-70003D01*
X86650Y-69997D01*
X86644Y-70003D01*
X86636Y-69995D01*
X86630Y-69989D01*
X86636Y-69984D01*
X86335Y-69683D01*
X86258Y-69711D01*
X86184Y-69882D01*
X86181Y-70068D01*
X86248Y-70241D01*
X86258Y-70256D01*
X86335Y-70284D01*
X86316Y-70303D01*
X85067Y-70303D01*
X85067Y-68387D01*
X85019Y-68270D01*
X84929Y-68181D01*
X84813Y-68132D01*
X84687Y-68132D01*
X84570Y-68180D01*
X84481Y-68270D01*
X84432Y-68386D01*
X84432Y-68512D01*
X84480Y-68629D01*
X84570Y-68718D01*
X84686Y-68767D01*
X84812Y-68767D01*
X84929Y-68719D01*
X85018Y-68629D01*
X85067Y-68513D01*
X85067Y-68387D01*
X85067Y-70303D01*
X83367Y-70303D01*
X83367Y-68387D01*
X83319Y-68270D01*
X83229Y-68181D01*
X83113Y-68132D01*
X82987Y-68132D01*
X82870Y-68180D01*
X82781Y-68270D01*
X82732Y-68386D01*
X82732Y-68512D01*
X82780Y-68629D01*
X82870Y-68718D01*
X82986Y-68767D01*
X83112Y-68767D01*
X83229Y-68719D01*
X83318Y-68629D01*
X83367Y-68513D01*
X83367Y-68387D01*
X83367Y-70303D01*
X81533Y-70303D01*
X81541Y-70294D01*
X81567Y-70233D01*
X81567Y-70166D01*
X81567Y-69633D01*
X81567Y-69566D01*
X81541Y-69505D01*
X81494Y-69458D01*
X81433Y-69432D01*
X81242Y-69432D01*
X81242Y-68438D01*
X81242Y-68400D01*
X81242Y-68361D01*
X81242Y-68361D01*
X81242Y-68361D01*
X81242Y-68361D01*
X81205Y-68170D01*
X81175Y-68099D01*
X81175Y-68098D01*
X81067Y-67937D01*
X81067Y-67936D01*
X81012Y-67882D01*
X80851Y-67774D01*
X80850Y-67774D01*
X80779Y-67744D01*
X80588Y-67706D01*
X80511Y-67706D01*
X80510Y-67707D01*
X80320Y-67744D01*
X80249Y-67774D01*
X80248Y-67774D01*
X80087Y-67882D01*
X80086Y-67882D01*
X80032Y-67937D01*
X79924Y-68098D01*
X79924Y-68099D01*
X79894Y-68170D01*
X79856Y-68361D01*
X79856Y-68400D01*
X79856Y-68438D01*
X79894Y-68629D01*
X79924Y-68700D01*
X79924Y-68701D01*
X80032Y-68862D01*
X80086Y-68917D01*
X80087Y-68917D01*
X80248Y-69025D01*
X80249Y-69025D01*
X80320Y-69055D01*
X80510Y-69092D01*
X80511Y-69093D01*
X80588Y-69093D01*
X80779Y-69055D01*
X80850Y-69025D01*
X80851Y-69025D01*
X81012Y-68917D01*
X81067Y-68863D01*
X81067Y-68862D01*
X81175Y-68701D01*
X81175Y-68700D01*
X81205Y-68629D01*
X81242Y-68438D01*
X81242Y-68438D01*
X81242Y-68438D01*
X81242Y-68438D01*
X81242Y-69432D01*
X81151Y-69432D01*
X81109Y-69474D01*
X81109Y-69890D01*
X81525Y-69890D01*
X81567Y-69848D01*
X81567Y-69633D01*
X81567Y-70166D01*
X81567Y-69951D01*
X81525Y-69909D01*
X81109Y-69909D01*
X81109Y-69917D01*
X81090Y-69917D01*
X81090Y-69909D01*
X81090Y-69890D01*
X81090Y-69474D01*
X81048Y-69432D01*
X80766Y-69432D01*
X80705Y-69458D01*
X80658Y-69505D01*
X80632Y-69566D01*
X80632Y-69633D01*
X80632Y-69848D01*
X80674Y-69890D01*
X81090Y-69890D01*
X81090Y-69909D01*
X80674Y-69909D01*
X80632Y-69951D01*
X80632Y-70166D01*
X80632Y-70233D01*
X80658Y-70294D01*
X80666Y-70303D01*
X80348Y-70303D01*
X80364Y-70296D01*
X80495Y-70165D01*
X80567Y-69993D01*
X80567Y-69807D01*
X80496Y-69635D01*
X80365Y-69504D01*
X80193Y-69432D01*
X80007Y-69432D01*
X79835Y-69503D01*
X79704Y-69634D01*
X79632Y-69806D01*
X79632Y-69992D01*
X79703Y-70164D01*
X79834Y-70295D01*
X79852Y-70303D01*
X79348Y-70303D01*
X79364Y-70296D01*
X79495Y-70165D01*
X79567Y-69993D01*
X79567Y-69807D01*
X79496Y-69635D01*
X79365Y-69504D01*
X79193Y-69432D01*
X79007Y-69432D01*
X78835Y-69503D01*
X78704Y-69634D01*
X78632Y-69806D01*
X78632Y-69992D01*
X78703Y-70164D01*
X78834Y-70295D01*
X78852Y-70303D01*
X76543Y-70303D01*
X76543Y-69128D01*
X76495Y-69011D01*
X76405Y-68922D01*
X76289Y-68874D01*
X76163Y-68873D01*
X76046Y-68922D01*
X75957Y-69011D01*
X75908Y-69127D01*
X75908Y-69254D01*
X75956Y-69370D01*
X76046Y-69460D01*
X76162Y-69508D01*
X76288Y-69508D01*
X76405Y-69460D01*
X76494Y-69371D01*
X76543Y-69254D01*
X76543Y-69128D01*
X76543Y-70303D01*
X73393Y-70303D01*
X73393Y-69128D01*
X73345Y-69011D01*
X73256Y-68922D01*
X73139Y-68874D01*
X73013Y-68873D01*
X72896Y-68922D01*
X72807Y-69011D01*
X72759Y-69127D01*
X72759Y-69254D01*
X72807Y-69370D01*
X72896Y-69460D01*
X73012Y-69508D01*
X73139Y-69508D01*
X73255Y-69460D01*
X73345Y-69371D01*
X73393Y-69254D01*
X73393Y-69128D01*
X73393Y-70303D01*
X71341Y-70303D01*
X71395Y-70249D01*
X71467Y-70077D01*
X71467Y-69891D01*
X71396Y-69719D01*
X71265Y-69588D01*
X71093Y-69516D01*
X70907Y-69516D01*
X70735Y-69587D01*
X70604Y-69718D01*
X70532Y-69890D01*
X70532Y-70076D01*
X70603Y-70248D01*
X70658Y-70303D01*
X70341Y-70303D01*
X70395Y-70249D01*
X70467Y-70077D01*
X70467Y-69891D01*
X70396Y-69719D01*
X70265Y-69588D01*
X70093Y-69516D01*
X69907Y-69516D01*
X69735Y-69587D01*
X69646Y-69676D01*
X69646Y-69291D01*
X69734Y-69379D01*
X69906Y-69451D01*
X70092Y-69451D01*
X70264Y-69380D01*
X70395Y-69249D01*
X70467Y-69077D01*
X70467Y-68891D01*
X70396Y-68719D01*
X70265Y-68588D01*
X70093Y-68516D01*
X69907Y-68516D01*
X69735Y-68587D01*
X69646Y-68676D01*
X69646Y-68291D01*
X69734Y-68379D01*
X69906Y-68451D01*
X70092Y-68451D01*
X70129Y-68436D01*
X70346Y-68653D01*
X70416Y-68700D01*
X70416Y-68700D01*
X70500Y-68717D01*
X70605Y-68717D01*
X70604Y-68718D01*
X70532Y-68890D01*
X70532Y-69076D01*
X70603Y-69248D01*
X70734Y-69379D01*
X70906Y-69451D01*
X71092Y-69451D01*
X71264Y-69380D01*
X71395Y-69249D01*
X71467Y-69077D01*
X71467Y-68891D01*
X71396Y-68719D01*
X71394Y-68717D01*
X74250Y-68717D01*
X74900Y-68717D01*
X74983Y-68700D01*
X74983Y-68700D01*
X75053Y-68653D01*
X75753Y-67953D01*
X75753Y-67953D01*
X75753Y-67953D01*
X75800Y-67883D01*
X75800Y-67883D01*
X75814Y-67816D01*
X75817Y-67800D01*
X75817Y-67800D01*
X75817Y-67800D01*
X75817Y-66840D01*
X76015Y-66642D01*
X76117Y-66642D01*
X76243Y-66590D01*
X76340Y-66494D01*
X76392Y-66368D01*
X76392Y-66232D01*
X76340Y-66106D01*
X76244Y-66009D01*
X76118Y-65957D01*
X75982Y-65957D01*
X75856Y-66009D01*
X75759Y-66105D01*
X75707Y-66231D01*
X75707Y-66335D01*
X75446Y-66596D01*
X75399Y-66666D01*
X75382Y-66750D01*
X75382Y-67709D01*
X74809Y-68282D01*
X74250Y-68282D01*
X71362Y-68282D01*
X71395Y-68249D01*
X71467Y-68077D01*
X71467Y-67891D01*
X71467Y-66891D01*
X71396Y-66719D01*
X71265Y-66588D01*
X71093Y-66516D01*
X70907Y-66516D01*
X70735Y-66587D01*
X70604Y-66718D01*
X70532Y-66890D01*
X70532Y-67076D01*
X70603Y-67248D01*
X70734Y-67379D01*
X70906Y-67451D01*
X71092Y-67451D01*
X71264Y-67380D01*
X71395Y-67249D01*
X71467Y-67077D01*
X71467Y-66891D01*
X71467Y-67891D01*
X71396Y-67719D01*
X71265Y-67588D01*
X71093Y-67516D01*
X70907Y-67516D01*
X70735Y-67587D01*
X70604Y-67718D01*
X70532Y-67890D01*
X70532Y-68076D01*
X70603Y-68248D01*
X70637Y-68282D01*
X70590Y-68282D01*
X70443Y-68135D01*
X70467Y-68077D01*
X70467Y-67891D01*
X70396Y-67719D01*
X70265Y-67588D01*
X70093Y-67516D01*
X69907Y-67516D01*
X69735Y-67587D01*
X69646Y-67676D01*
X69646Y-67291D01*
X69734Y-67379D01*
X69906Y-67451D01*
X70092Y-67451D01*
X70264Y-67380D01*
X70395Y-67249D01*
X70467Y-67077D01*
X70467Y-66891D01*
X70396Y-66719D01*
X70265Y-66588D01*
X70093Y-66516D01*
X69907Y-66516D01*
X69735Y-66587D01*
X69646Y-66676D01*
X69646Y-66291D01*
X69734Y-66379D01*
X69906Y-66451D01*
X70092Y-66451D01*
X70264Y-66380D01*
X70395Y-66249D01*
X70467Y-66077D01*
X70467Y-65891D01*
X70396Y-65719D01*
X70265Y-65588D01*
X70093Y-65516D01*
X69907Y-65516D01*
X69735Y-65587D01*
X69646Y-65676D01*
X69646Y-65291D01*
X69734Y-65379D01*
X69906Y-65451D01*
X70092Y-65451D01*
X70264Y-65380D01*
X70334Y-65310D01*
X70349Y-65383D01*
X70396Y-65453D01*
X70596Y-65653D01*
X70640Y-65682D01*
X70604Y-65718D01*
X70532Y-65890D01*
X70532Y-66076D01*
X70603Y-66248D01*
X70734Y-66379D01*
X70906Y-66451D01*
X71092Y-66451D01*
X71264Y-66380D01*
X71395Y-66249D01*
X71467Y-66077D01*
X71467Y-65891D01*
X71396Y-65719D01*
X71359Y-65682D01*
X71403Y-65653D01*
X71640Y-65417D01*
X72659Y-65417D01*
X73496Y-66253D01*
X73566Y-66300D01*
X73566Y-66300D01*
X73650Y-66317D01*
X74608Y-66317D01*
X74506Y-66359D01*
X74409Y-66455D01*
X74357Y-66581D01*
X74357Y-66717D01*
X74409Y-66843D01*
X74505Y-66940D01*
X74631Y-66992D01*
X74767Y-66992D01*
X74893Y-66940D01*
X74990Y-66844D01*
X75042Y-66718D01*
X75042Y-66582D01*
X75037Y-66570D01*
X75753Y-65853D01*
X75800Y-65783D01*
X75800Y-65783D01*
X75817Y-65700D01*
X75817Y-65490D01*
X77640Y-63667D01*
X78550Y-63667D01*
X78633Y-63650D01*
X78633Y-63650D01*
X78645Y-63642D01*
X78645Y-63642D01*
X78767Y-63642D01*
X78893Y-63590D01*
X78990Y-63494D01*
X79042Y-63368D01*
X79042Y-63367D01*
X83300Y-63367D01*
X84016Y-64083D01*
X84016Y-64083D01*
X84987Y-65053D01*
X85057Y-65100D01*
X85057Y-65100D01*
X85140Y-65117D01*
X85209Y-65117D01*
X86192Y-66099D01*
X86253Y-66248D01*
X86298Y-66292D01*
X86266Y-66299D01*
X86196Y-66346D01*
X86009Y-66532D01*
X78200Y-66532D01*
X77940Y-66532D01*
X77792Y-66384D01*
X77792Y-66282D01*
X77740Y-66156D01*
X77644Y-66059D01*
X77518Y-66007D01*
X77382Y-66007D01*
X77256Y-66059D01*
X77159Y-66155D01*
X77107Y-66281D01*
X77107Y-66417D01*
X77159Y-66543D01*
X77255Y-66640D01*
X77279Y-66649D01*
X77256Y-66659D01*
X77159Y-66755D01*
X77107Y-66881D01*
X77107Y-67017D01*
X77159Y-67143D01*
X77255Y-67240D01*
X77381Y-67292D01*
X77517Y-67292D01*
X77643Y-67240D01*
X77715Y-67168D01*
X86232Y-67197D01*
X86253Y-67248D01*
X86384Y-67379D01*
X86556Y-67451D01*
X86742Y-67451D01*
X86914Y-67380D01*
X87045Y-67249D01*
X87117Y-67077D01*
X87117Y-66891D01*
X87046Y-66719D01*
X87009Y-66682D01*
X87053Y-66653D01*
X87303Y-66403D01*
X87345Y-66340D01*
X87384Y-66379D01*
X87556Y-66451D01*
X87742Y-66451D01*
X87914Y-66380D01*
X88003Y-66291D01*
X88003Y-66676D01*
X87915Y-66588D01*
X87743Y-66516D01*
X87557Y-66516D01*
X87385Y-66587D01*
X87254Y-66718D01*
X87182Y-66890D01*
X87182Y-67076D01*
X87253Y-67248D01*
X87384Y-67379D01*
X87556Y-67451D01*
X87742Y-67451D01*
X87914Y-67380D01*
X88003Y-67291D01*
X88003Y-67676D01*
X87915Y-67588D01*
X87743Y-67516D01*
X87557Y-67516D01*
X87385Y-67587D01*
X87254Y-67718D01*
X87182Y-67890D01*
X87182Y-68076D01*
X87253Y-68248D01*
X87384Y-68379D01*
X87556Y-68451D01*
X87742Y-68451D01*
X87914Y-68380D01*
X88003Y-68291D01*
X88003Y-68676D01*
X87915Y-68588D01*
X87743Y-68516D01*
X87557Y-68516D01*
X87385Y-68587D01*
X87254Y-68718D01*
X87182Y-68890D01*
X87182Y-69076D01*
X87253Y-69248D01*
X87384Y-69379D01*
X87556Y-69451D01*
X87742Y-69451D01*
X87914Y-69380D01*
X88003Y-69291D01*
X88003Y-69697D01*
X88003Y-69697D01*
G37*
G54D15*
X88003Y-69697D02*
X87964Y-69683D01*
X87950Y-69697D01*
X87950Y-69669D01*
X87922Y-69592D01*
X87751Y-69518D01*
X87565Y-69515D01*
X87392Y-69582D01*
X87377Y-69592D01*
X87349Y-69669D01*
X87650Y-69970D01*
X87950Y-69669D01*
X87950Y-69697D01*
X87663Y-69984D01*
X87669Y-69989D01*
X87655Y-70003D01*
X87650Y-69997D01*
X87644Y-70003D01*
X87636Y-69995D01*
X87630Y-69989D01*
X87636Y-69984D01*
X87335Y-69683D01*
X87258Y-69711D01*
X87184Y-69882D01*
X87181Y-70068D01*
X87248Y-70241D01*
X87258Y-70256D01*
X87335Y-70284D01*
X87316Y-70303D01*
X87118Y-70303D01*
X86983Y-70303D01*
X86964Y-70284D01*
X87041Y-70256D01*
X87115Y-70085D01*
X87118Y-69899D01*
X87117Y-69895D01*
X87117Y-68891D01*
X87117Y-67891D01*
X87046Y-67719D01*
X86915Y-67588D01*
X86743Y-67516D01*
X86557Y-67516D01*
X86385Y-67587D01*
X86254Y-67718D01*
X86182Y-67890D01*
X86182Y-68076D01*
X86253Y-68248D01*
X86384Y-68379D01*
X86556Y-68451D01*
X86742Y-68451D01*
X86914Y-68380D01*
X87045Y-68249D01*
X87117Y-68077D01*
X87117Y-67891D01*
X87117Y-68891D01*
X87046Y-68719D01*
X86915Y-68588D01*
X86743Y-68516D01*
X86557Y-68516D01*
X86385Y-68587D01*
X86254Y-68718D01*
X86182Y-68890D01*
X86182Y-69076D01*
X86253Y-69248D01*
X86384Y-69379D01*
X86556Y-69451D01*
X86742Y-69451D01*
X86914Y-69380D01*
X87045Y-69249D01*
X87117Y-69077D01*
X87117Y-68891D01*
X87117Y-69895D01*
X87051Y-69726D01*
X87041Y-69711D01*
X86964Y-69683D01*
X86950Y-69697D01*
X86950Y-69669D01*
X86922Y-69592D01*
X86751Y-69518D01*
X86565Y-69515D01*
X86392Y-69582D01*
X86377Y-69592D01*
X86349Y-69669D01*
X86650Y-69970D01*
X86950Y-69669D01*
X86950Y-69697D01*
X86663Y-69984D01*
X86669Y-69989D01*
X86655Y-70003D01*
X86650Y-69997D01*
X86644Y-70003D01*
X86636Y-69995D01*
X86630Y-69989D01*
X86636Y-69984D01*
X86335Y-69683D01*
X86258Y-69711D01*
X86184Y-69882D01*
X86181Y-70068D01*
X86248Y-70241D01*
X86258Y-70256D01*
X86335Y-70284D01*
X86316Y-70303D01*
X85067Y-70303D01*
X85067Y-68387D01*
X85019Y-68270D01*
X84929Y-68181D01*
X84813Y-68132D01*
X84687Y-68132D01*
X84570Y-68180D01*
X84481Y-68270D01*
X84432Y-68386D01*
X84432Y-68512D01*
X84480Y-68629D01*
X84570Y-68718D01*
X84686Y-68767D01*
X84812Y-68767D01*
X84929Y-68719D01*
X85018Y-68629D01*
X85067Y-68513D01*
X85067Y-68387D01*
X85067Y-70303D01*
X83367Y-70303D01*
X83367Y-68387D01*
X83319Y-68270D01*
X83229Y-68181D01*
X83113Y-68132D01*
X82987Y-68132D01*
X82870Y-68180D01*
X82781Y-68270D01*
X82732Y-68386D01*
X82732Y-68512D01*
X82780Y-68629D01*
X82870Y-68718D01*
X82986Y-68767D01*
X83112Y-68767D01*
X83229Y-68719D01*
X83318Y-68629D01*
X83367Y-68513D01*
X83367Y-68387D01*
X83367Y-70303D01*
X81533Y-70303D01*
X81541Y-70294D01*
X81567Y-70233D01*
X81567Y-70166D01*
X81567Y-69633D01*
X81567Y-69566D01*
X81541Y-69505D01*
X81494Y-69458D01*
X81433Y-69432D01*
X81242Y-69432D01*
X81242Y-68438D01*
X81242Y-68400D01*
X81242Y-68361D01*
X81242Y-68361D01*
X81242Y-68361D01*
X81242Y-68361D01*
X81205Y-68170D01*
X81175Y-68099D01*
X81175Y-68098D01*
X81067Y-67937D01*
X81067Y-67936D01*
X81012Y-67882D01*
X80851Y-67774D01*
X80850Y-67774D01*
X80779Y-67744D01*
X80588Y-67706D01*
X80511Y-67706D01*
X80510Y-67707D01*
X80320Y-67744D01*
X80249Y-67774D01*
X80248Y-67774D01*
X80087Y-67882D01*
X80086Y-67882D01*
X80032Y-67937D01*
X79924Y-68098D01*
X79924Y-68099D01*
X79894Y-68170D01*
X79856Y-68361D01*
X79856Y-68400D01*
X79856Y-68438D01*
X79894Y-68629D01*
X79924Y-68700D01*
X79924Y-68701D01*
X80032Y-68862D01*
X80086Y-68917D01*
X80087Y-68917D01*
X80248Y-69025D01*
X80249Y-69025D01*
X80320Y-69055D01*
X80510Y-69092D01*
X80511Y-69093D01*
X80588Y-69093D01*
X80779Y-69055D01*
X80850Y-69025D01*
X80851Y-69025D01*
X81012Y-68917D01*
X81067Y-68863D01*
X81067Y-68862D01*
X81175Y-68701D01*
X81175Y-68700D01*
X81205Y-68629D01*
X81242Y-68438D01*
X81242Y-68438D01*
X81242Y-68438D01*
X81242Y-68438D01*
X81242Y-69432D01*
X81151Y-69432D01*
X81109Y-69474D01*
X81109Y-69890D01*
X81525Y-69890D01*
X81567Y-69848D01*
X81567Y-69633D01*
X81567Y-70166D01*
X81567Y-69951D01*
X81525Y-69909D01*
X81109Y-69909D01*
X81109Y-69917D01*
X81090Y-69917D01*
X81090Y-69909D01*
X81090Y-69890D01*
X81090Y-69474D01*
X81048Y-69432D01*
X80766Y-69432D01*
X80705Y-69458D01*
X80658Y-69505D01*
X80632Y-69566D01*
X80632Y-69633D01*
X80632Y-69848D01*
X80674Y-69890D01*
X81090Y-69890D01*
X81090Y-69909D01*
X80674Y-69909D01*
X80632Y-69951D01*
X80632Y-70166D01*
X80632Y-70233D01*
X80658Y-70294D01*
X80666Y-70303D01*
X80348Y-70303D01*
X80364Y-70296D01*
X80495Y-70165D01*
X80567Y-69993D01*
X80567Y-69807D01*
X80496Y-69635D01*
X80365Y-69504D01*
X80193Y-69432D01*
X80007Y-69432D01*
X79835Y-69503D01*
X79704Y-69634D01*
X79632Y-69806D01*
X79632Y-69992D01*
X79703Y-70164D01*
X79834Y-70295D01*
X79852Y-70303D01*
X79348Y-70303D01*
X79364Y-70296D01*
X79495Y-70165D01*
X79567Y-69993D01*
X79567Y-69807D01*
X79496Y-69635D01*
X79365Y-69504D01*
X79193Y-69432D01*
X79007Y-69432D01*
X78835Y-69503D01*
X78704Y-69634D01*
X78632Y-69806D01*
X78632Y-69992D01*
X78703Y-70164D01*
X78834Y-70295D01*
X78852Y-70303D01*
X76543Y-70303D01*
X76543Y-69128D01*
X76495Y-69011D01*
X76405Y-68922D01*
X76289Y-68874D01*
X76163Y-68873D01*
X76046Y-68922D01*
X75957Y-69011D01*
X75908Y-69127D01*
X75908Y-69254D01*
X75956Y-69370D01*
X76046Y-69460D01*
X76162Y-69508D01*
X76288Y-69508D01*
X76405Y-69460D01*
X76494Y-69371D01*
X76543Y-69254D01*
X76543Y-69128D01*
X76543Y-70303D01*
X73393Y-70303D01*
X73393Y-69128D01*
X73345Y-69011D01*
X73256Y-68922D01*
X73139Y-68874D01*
X73013Y-68873D01*
X72896Y-68922D01*
X72807Y-69011D01*
X72759Y-69127D01*
X72759Y-69254D01*
X72807Y-69370D01*
X72896Y-69460D01*
X73012Y-69508D01*
X73139Y-69508D01*
X73255Y-69460D01*
X73345Y-69371D01*
X73393Y-69254D01*
X73393Y-69128D01*
X73393Y-70303D01*
X71341Y-70303D01*
X71395Y-70249D01*
X71467Y-70077D01*
X71467Y-69891D01*
X71396Y-69719D01*
X71265Y-69588D01*
X71093Y-69516D01*
X70907Y-69516D01*
X70735Y-69587D01*
X70604Y-69718D01*
X70532Y-69890D01*
X70532Y-70076D01*
X70603Y-70248D01*
X70658Y-70303D01*
X70341Y-70303D01*
X70395Y-70249D01*
X70467Y-70077D01*
X70467Y-69891D01*
X70396Y-69719D01*
X70265Y-69588D01*
X70093Y-69516D01*
X69907Y-69516D01*
X69735Y-69587D01*
X69646Y-69676D01*
X69646Y-69291D01*
X69734Y-69379D01*
X69906Y-69451D01*
X70092Y-69451D01*
X70264Y-69380D01*
X70395Y-69249D01*
X70467Y-69077D01*
X70467Y-68891D01*
X70396Y-68719D01*
X70265Y-68588D01*
X70093Y-68516D01*
X69907Y-68516D01*
X69735Y-68587D01*
X69646Y-68676D01*
X69646Y-68291D01*
X69734Y-68379D01*
X69906Y-68451D01*
X70092Y-68451D01*
X70129Y-68436D01*
X70346Y-68653D01*
X70416Y-68700D01*
X70416Y-68700D01*
X70500Y-68717D01*
X70605Y-68717D01*
X70604Y-68718D01*
X70532Y-68890D01*
X70532Y-69076D01*
X70603Y-69248D01*
X70734Y-69379D01*
X70906Y-69451D01*
X71092Y-69451D01*
X71264Y-69380D01*
X71395Y-69249D01*
X71467Y-69077D01*
X71467Y-68891D01*
X71396Y-68719D01*
X71394Y-68717D01*
X74250Y-68717D01*
X74900Y-68717D01*
X74983Y-68700D01*
X74983Y-68700D01*
X75053Y-68653D01*
X75753Y-67953D01*
X75753Y-67953D01*
X75753Y-67953D01*
X75800Y-67883D01*
X75800Y-67883D01*
X75814Y-67816D01*
X75817Y-67800D01*
X75817Y-67800D01*
X75817Y-67800D01*
X75817Y-66840D01*
X76015Y-66642D01*
X76117Y-66642D01*
X76243Y-66590D01*
X76340Y-66494D01*
X76392Y-66368D01*
X76392Y-66232D01*
X76340Y-66106D01*
X76244Y-66009D01*
X76118Y-65957D01*
X75982Y-65957D01*
X75856Y-66009D01*
X75759Y-66105D01*
X75707Y-66231D01*
X75707Y-66335D01*
X75446Y-66596D01*
X75399Y-66666D01*
X75382Y-66750D01*
X75382Y-67709D01*
X74809Y-68282D01*
X74250Y-68282D01*
X71362Y-68282D01*
X71395Y-68249D01*
X71467Y-68077D01*
X71467Y-67891D01*
X71467Y-66891D01*
X71396Y-66719D01*
X71265Y-66588D01*
X71093Y-66516D01*
X70907Y-66516D01*
X70735Y-66587D01*
X70604Y-66718D01*
X70532Y-66890D01*
X70532Y-67076D01*
X70603Y-67248D01*
X70734Y-67379D01*
X70906Y-67451D01*
X71092Y-67451D01*
X71264Y-67380D01*
X71395Y-67249D01*
X71467Y-67077D01*
X71467Y-66891D01*
X71467Y-67891D01*
X71396Y-67719D01*
X71265Y-67588D01*
X71093Y-67516D01*
X70907Y-67516D01*
X70735Y-67587D01*
X70604Y-67718D01*
X70532Y-67890D01*
X70532Y-68076D01*
X70603Y-68248D01*
X70637Y-68282D01*
X70590Y-68282D01*
X70443Y-68135D01*
X70467Y-68077D01*
X70467Y-67891D01*
X70396Y-67719D01*
X70265Y-67588D01*
X70093Y-67516D01*
X69907Y-67516D01*
X69735Y-67587D01*
X69646Y-67676D01*
X69646Y-67291D01*
X69734Y-67379D01*
X69906Y-67451D01*
X70092Y-67451D01*
X70264Y-67380D01*
X70395Y-67249D01*
X70467Y-67077D01*
X70467Y-66891D01*
X70396Y-66719D01*
X70265Y-66588D01*
X70093Y-66516D01*
X69907Y-66516D01*
X69735Y-66587D01*
X69646Y-66676D01*
X69646Y-66291D01*
X69734Y-66379D01*
X69906Y-66451D01*
X70092Y-66451D01*
X70264Y-66380D01*
X70395Y-66249D01*
X70467Y-66077D01*
X70467Y-65891D01*
X70396Y-65719D01*
X70265Y-65588D01*
X70093Y-65516D01*
X69907Y-65516D01*
X69735Y-65587D01*
X69646Y-65676D01*
X69646Y-65291D01*
X69734Y-65379D01*
X69906Y-65451D01*
X70092Y-65451D01*
X70264Y-65380D01*
X70334Y-65310D01*
X70349Y-65383D01*
X70396Y-65453D01*
X70596Y-65653D01*
X70640Y-65682D01*
X70604Y-65718D01*
X70532Y-65890D01*
X70532Y-66076D01*
X70603Y-66248D01*
X70734Y-66379D01*
X70906Y-66451D01*
X71092Y-66451D01*
X71264Y-66380D01*
X71395Y-66249D01*
X71467Y-66077D01*
X71467Y-65891D01*
X71396Y-65719D01*
X71359Y-65682D01*
X71403Y-65653D01*
X71640Y-65417D01*
X72659Y-65417D01*
X73496Y-66253D01*
X73566Y-66300D01*
X73566Y-66300D01*
X73650Y-66317D01*
X74608Y-66317D01*
X74506Y-66359D01*
X74409Y-66455D01*
X74357Y-66581D01*
X74357Y-66717D01*
X74409Y-66843D01*
X74505Y-66940D01*
X74631Y-66992D01*
X74767Y-66992D01*
X74893Y-66940D01*
X74990Y-66844D01*
X75042Y-66718D01*
X75042Y-66582D01*
X75037Y-66570D01*
X75753Y-65853D01*
X75800Y-65783D01*
X75800Y-65783D01*
X75817Y-65700D01*
X75817Y-65490D01*
X77640Y-63667D01*
X78550Y-63667D01*
X78633Y-63650D01*
X78633Y-63650D01*
X78645Y-63642D01*
X78645Y-63642D01*
X78767Y-63642D01*
X78893Y-63590D01*
X78990Y-63494D01*
X79042Y-63368D01*
X79042Y-63367D01*
X83300Y-63367D01*
X84016Y-64083D01*
X84016Y-64083D01*
X84987Y-65053D01*
X85057Y-65100D01*
X85057Y-65100D01*
X85140Y-65117D01*
X85209Y-65117D01*
X86192Y-66099D01*
X86253Y-66248D01*
X86298Y-66292D01*
X86266Y-66299D01*
X86196Y-66346D01*
X86009Y-66532D01*
X78200Y-66532D01*
X77940Y-66532D01*
X77792Y-66384D01*
X77792Y-66282D01*
X77740Y-66156D01*
X77644Y-66059D01*
X77518Y-66007D01*
X77382Y-66007D01*
X77256Y-66059D01*
X77159Y-66155D01*
X77107Y-66281D01*
X77107Y-66417D01*
X77159Y-66543D01*
X77255Y-66640D01*
X77279Y-66649D01*
X77256Y-66659D01*
X77159Y-66755D01*
X77107Y-66881D01*
X77107Y-67017D01*
X77159Y-67143D01*
X77255Y-67240D01*
X77381Y-67292D01*
X77517Y-67292D01*
X77643Y-67240D01*
X77715Y-67168D01*
X86232Y-67197D01*
X86253Y-67248D01*
X86384Y-67379D01*
X86556Y-67451D01*
X86742Y-67451D01*
X86914Y-67380D01*
X87045Y-67249D01*
X87117Y-67077D01*
X87117Y-66891D01*
X87046Y-66719D01*
X87009Y-66682D01*
X87053Y-66653D01*
X87303Y-66403D01*
X87345Y-66340D01*
X87384Y-66379D01*
X87556Y-66451D01*
X87742Y-66451D01*
X87914Y-66380D01*
X88003Y-66291D01*
X88003Y-66676D01*
X87915Y-66588D01*
X87743Y-66516D01*
X87557Y-66516D01*
X87385Y-66587D01*
X87254Y-66718D01*
X87182Y-66890D01*
X87182Y-67076D01*
X87253Y-67248D01*
X87384Y-67379D01*
X87556Y-67451D01*
X87742Y-67451D01*
X87914Y-67380D01*
X88003Y-67291D01*
X88003Y-67676D01*
X87915Y-67588D01*
X87743Y-67516D01*
X87557Y-67516D01*
X87385Y-67587D01*
X87254Y-67718D01*
X87182Y-67890D01*
X87182Y-68076D01*
X87253Y-68248D01*
X87384Y-68379D01*
X87556Y-68451D01*
X87742Y-68451D01*
X87914Y-68380D01*
X88003Y-68291D01*
X88003Y-68676D01*
X87915Y-68588D01*
X87743Y-68516D01*
X87557Y-68516D01*
X87385Y-68587D01*
X87254Y-68718D01*
X87182Y-68890D01*
X87182Y-69076D01*
X87253Y-69248D01*
X87384Y-69379D01*
X87556Y-69451D01*
X87742Y-69451D01*
X87914Y-69380D01*
X88003Y-69291D01*
X88003Y-69697D01*
M02*
