G04 (created by PCBNEW (2013-mar-13)-testing) date Птн 21 Фев 2014 13:06:26*
%MOIN*%
G04 Gerber Fmt 3.4, Leading zero omitted, Abs format*
%FSLAX34Y34*%
G01*
G70*
G90*
G04 APERTURE LIST*
%ADD10C,0.005906*%
%ADD11C,0.004925*%
%ADD12C,0.007874*%
%ADD13C,0.004000*%
%ADD14C,0.003900*%
%ADD15C,0.005900*%
%ADD16C,0.006000*%
%ADD17C,0.002600*%
%ADD18C,0.002000*%
%ADD19C,0.005000*%
%ADD20C,0.012000*%
%ADD21C,0.004300*%
%ADD22C,0.003500*%
G04 APERTURE END LIST*
G54D10*
G54D11*
X84925Y-61775D02*
X84925Y-61475D01*
X85040Y-61475D01*
X85068Y-61490D01*
X85082Y-61504D01*
X85097Y-61532D01*
X85097Y-61575D01*
X85082Y-61604D01*
X85068Y-61618D01*
X85040Y-61632D01*
X84925Y-61632D01*
X85325Y-61618D02*
X85368Y-61632D01*
X85382Y-61647D01*
X85397Y-61675D01*
X85397Y-61718D01*
X85382Y-61747D01*
X85368Y-61761D01*
X85340Y-61775D01*
X85225Y-61775D01*
X85225Y-61475D01*
X85325Y-61475D01*
X85354Y-61490D01*
X85368Y-61504D01*
X85382Y-61532D01*
X85382Y-61561D01*
X85368Y-61590D01*
X85354Y-61604D01*
X85325Y-61618D01*
X85225Y-61618D01*
X85682Y-61775D02*
X85511Y-61775D01*
X85597Y-61775D02*
X85597Y-61475D01*
X85568Y-61518D01*
X85540Y-61547D01*
X85511Y-61561D01*
X85797Y-61504D02*
X85811Y-61490D01*
X85840Y-61475D01*
X85911Y-61475D01*
X85940Y-61490D01*
X85954Y-61504D01*
X85968Y-61532D01*
X85968Y-61561D01*
X85954Y-61604D01*
X85782Y-61775D01*
X85968Y-61775D01*
X86000Y-60375D02*
X86000Y-60075D01*
X86114Y-60075D01*
X86142Y-60090D01*
X86157Y-60104D01*
X86171Y-60132D01*
X86171Y-60175D01*
X86157Y-60204D01*
X86142Y-60218D01*
X86114Y-60232D01*
X86000Y-60232D01*
X86300Y-60218D02*
X86400Y-60218D01*
X86442Y-60375D02*
X86300Y-60375D01*
X86300Y-60075D01*
X86442Y-60075D01*
X86728Y-60375D02*
X86557Y-60375D01*
X86642Y-60375D02*
X86642Y-60075D01*
X86614Y-60118D01*
X86585Y-60147D01*
X86557Y-60161D01*
X86828Y-60075D02*
X87014Y-60075D01*
X86914Y-60190D01*
X86957Y-60190D01*
X86985Y-60204D01*
X87000Y-60218D01*
X87014Y-60247D01*
X87014Y-60318D01*
X87000Y-60347D01*
X86985Y-60361D01*
X86957Y-60375D01*
X86871Y-60375D01*
X86842Y-60361D01*
X86828Y-60347D01*
G54D12*
X76750Y-63300D02*
X76800Y-63300D01*
X76600Y-63450D02*
X76600Y-63100D01*
X76400Y-63300D02*
X76750Y-63300D01*
X77250Y-63300D02*
X77550Y-63300D01*
X78450Y-65250D02*
X78450Y-65650D01*
X78300Y-65450D02*
X78600Y-65450D01*
X78800Y-64100D02*
X79050Y-64100D01*
X85350Y-66700D02*
X85150Y-66700D01*
X85650Y-65250D02*
X85650Y-64950D01*
X85500Y-65100D02*
X85800Y-65100D01*
G54D11*
X72107Y-62467D02*
X72092Y-62481D01*
X72050Y-62495D01*
X72021Y-62495D01*
X71978Y-62481D01*
X71950Y-62452D01*
X71935Y-62424D01*
X71921Y-62367D01*
X71921Y-62324D01*
X71935Y-62267D01*
X71950Y-62238D01*
X71978Y-62210D01*
X72021Y-62195D01*
X72050Y-62195D01*
X72092Y-62210D01*
X72107Y-62224D01*
X72221Y-62481D02*
X72264Y-62495D01*
X72335Y-62495D01*
X72364Y-62481D01*
X72378Y-62467D01*
X72392Y-62438D01*
X72392Y-62410D01*
X72378Y-62381D01*
X72364Y-62367D01*
X72335Y-62352D01*
X72278Y-62338D01*
X72250Y-62324D01*
X72235Y-62310D01*
X72221Y-62281D01*
X72221Y-62252D01*
X72235Y-62224D01*
X72250Y-62210D01*
X72278Y-62195D01*
X72350Y-62195D01*
X72392Y-62210D01*
X72678Y-62495D02*
X72507Y-62495D01*
X72592Y-62495D02*
X72592Y-62195D01*
X72564Y-62238D01*
X72535Y-62267D01*
X72507Y-62281D01*
X76889Y-62639D02*
X76877Y-62651D01*
X76841Y-62663D01*
X76817Y-62663D01*
X76782Y-62651D01*
X76758Y-62627D01*
X76746Y-62603D01*
X76734Y-62555D01*
X76734Y-62520D01*
X76746Y-62472D01*
X76758Y-62448D01*
X76782Y-62425D01*
X76817Y-62413D01*
X76841Y-62413D01*
X76877Y-62425D01*
X76889Y-62436D01*
X76984Y-62651D02*
X77020Y-62663D01*
X77079Y-62663D01*
X77103Y-62651D01*
X77115Y-62639D01*
X77127Y-62615D01*
X77127Y-62591D01*
X77115Y-62567D01*
X77103Y-62555D01*
X77079Y-62544D01*
X77032Y-62532D01*
X77008Y-62520D01*
X76996Y-62508D01*
X76984Y-62484D01*
X76984Y-62460D01*
X76996Y-62436D01*
X77008Y-62425D01*
X77032Y-62413D01*
X77091Y-62413D01*
X77127Y-62425D01*
X77222Y-62436D02*
X77234Y-62425D01*
X77258Y-62413D01*
X77317Y-62413D01*
X77341Y-62425D01*
X77353Y-62436D01*
X77365Y-62460D01*
X77365Y-62484D01*
X77353Y-62520D01*
X77210Y-62663D01*
X77365Y-62663D01*
X78889Y-60139D02*
X78877Y-60151D01*
X78841Y-60163D01*
X78817Y-60163D01*
X78782Y-60151D01*
X78758Y-60127D01*
X78746Y-60103D01*
X78734Y-60055D01*
X78734Y-60020D01*
X78746Y-59972D01*
X78758Y-59948D01*
X78782Y-59925D01*
X78817Y-59913D01*
X78841Y-59913D01*
X78877Y-59925D01*
X78889Y-59936D01*
X78984Y-60151D02*
X79020Y-60163D01*
X79079Y-60163D01*
X79103Y-60151D01*
X79115Y-60139D01*
X79127Y-60115D01*
X79127Y-60091D01*
X79115Y-60067D01*
X79103Y-60055D01*
X79079Y-60044D01*
X79032Y-60032D01*
X79008Y-60020D01*
X78996Y-60008D01*
X78984Y-59984D01*
X78984Y-59960D01*
X78996Y-59936D01*
X79008Y-59925D01*
X79032Y-59913D01*
X79091Y-59913D01*
X79127Y-59925D01*
X79341Y-59996D02*
X79341Y-60163D01*
X79282Y-59901D02*
X79222Y-60079D01*
X79377Y-60079D01*
X76839Y-60139D02*
X76827Y-60151D01*
X76791Y-60163D01*
X76767Y-60163D01*
X76732Y-60151D01*
X76708Y-60127D01*
X76696Y-60103D01*
X76684Y-60055D01*
X76684Y-60020D01*
X76696Y-59972D01*
X76708Y-59948D01*
X76732Y-59925D01*
X76767Y-59913D01*
X76791Y-59913D01*
X76827Y-59925D01*
X76839Y-59936D01*
X76934Y-60151D02*
X76970Y-60163D01*
X77029Y-60163D01*
X77053Y-60151D01*
X77065Y-60139D01*
X77077Y-60115D01*
X77077Y-60091D01*
X77065Y-60067D01*
X77053Y-60055D01*
X77029Y-60044D01*
X76982Y-60032D01*
X76958Y-60020D01*
X76946Y-60008D01*
X76934Y-59984D01*
X76934Y-59960D01*
X76946Y-59936D01*
X76958Y-59925D01*
X76982Y-59913D01*
X77041Y-59913D01*
X77077Y-59925D01*
X77160Y-59913D02*
X77315Y-59913D01*
X77232Y-60008D01*
X77267Y-60008D01*
X77291Y-60020D01*
X77303Y-60032D01*
X77315Y-60055D01*
X77315Y-60115D01*
X77303Y-60139D01*
X77291Y-60151D01*
X77267Y-60163D01*
X77196Y-60163D01*
X77172Y-60151D01*
X77160Y-60139D01*
X75839Y-60139D02*
X75827Y-60151D01*
X75791Y-60163D01*
X75767Y-60163D01*
X75732Y-60151D01*
X75708Y-60127D01*
X75696Y-60103D01*
X75684Y-60055D01*
X75684Y-60020D01*
X75696Y-59972D01*
X75708Y-59948D01*
X75732Y-59925D01*
X75767Y-59913D01*
X75791Y-59913D01*
X75827Y-59925D01*
X75839Y-59936D01*
X75934Y-60151D02*
X75970Y-60163D01*
X76029Y-60163D01*
X76053Y-60151D01*
X76065Y-60139D01*
X76077Y-60115D01*
X76077Y-60091D01*
X76065Y-60067D01*
X76053Y-60055D01*
X76029Y-60044D01*
X75982Y-60032D01*
X75958Y-60020D01*
X75946Y-60008D01*
X75934Y-59984D01*
X75934Y-59960D01*
X75946Y-59936D01*
X75958Y-59925D01*
X75982Y-59913D01*
X76041Y-59913D01*
X76077Y-59925D01*
X76315Y-60163D02*
X76172Y-60163D01*
X76244Y-60163D02*
X76244Y-59913D01*
X76220Y-59948D01*
X76196Y-59972D01*
X76172Y-59984D01*
X76014Y-62413D02*
X75895Y-62413D01*
X75883Y-62532D01*
X75895Y-62520D01*
X75919Y-62508D01*
X75978Y-62508D01*
X76002Y-62520D01*
X76014Y-62532D01*
X76026Y-62555D01*
X76026Y-62615D01*
X76014Y-62639D01*
X76002Y-62651D01*
X75978Y-62663D01*
X75919Y-62663D01*
X75895Y-62651D01*
X75883Y-62639D01*
X76109Y-62496D02*
X76169Y-62663D01*
X76228Y-62496D01*
X73662Y-61663D02*
X73817Y-61663D01*
X73734Y-61758D01*
X73770Y-61758D01*
X73793Y-61770D01*
X73805Y-61782D01*
X73817Y-61805D01*
X73817Y-61865D01*
X73805Y-61889D01*
X73793Y-61901D01*
X73770Y-61913D01*
X73698Y-61913D01*
X73674Y-61901D01*
X73662Y-61889D01*
X73924Y-61889D02*
X73936Y-61901D01*
X73924Y-61913D01*
X73912Y-61901D01*
X73924Y-61889D01*
X73924Y-61913D01*
X74020Y-61663D02*
X74174Y-61663D01*
X74091Y-61758D01*
X74127Y-61758D01*
X74150Y-61770D01*
X74162Y-61782D01*
X74174Y-61805D01*
X74174Y-61865D01*
X74162Y-61889D01*
X74150Y-61901D01*
X74127Y-61913D01*
X74055Y-61913D01*
X74031Y-61901D01*
X74020Y-61889D01*
X74258Y-61746D02*
X74317Y-61913D01*
X74377Y-61746D01*
X70628Y-60385D02*
X70628Y-60085D01*
X70742Y-60085D01*
X70771Y-60100D01*
X70785Y-60114D01*
X70800Y-60142D01*
X70800Y-60185D01*
X70785Y-60214D01*
X70771Y-60228D01*
X70742Y-60242D01*
X70628Y-60242D01*
X71028Y-60228D02*
X71071Y-60242D01*
X71085Y-60257D01*
X71100Y-60285D01*
X71100Y-60328D01*
X71085Y-60357D01*
X71071Y-60371D01*
X71042Y-60385D01*
X70928Y-60385D01*
X70928Y-60085D01*
X71028Y-60085D01*
X71057Y-60100D01*
X71071Y-60114D01*
X71085Y-60142D01*
X71085Y-60171D01*
X71071Y-60200D01*
X71057Y-60214D01*
X71028Y-60228D01*
X70928Y-60228D01*
X71200Y-60085D02*
X71400Y-60085D01*
X71271Y-60385D01*
X69603Y-60360D02*
X69603Y-60060D01*
X69717Y-60060D01*
X69746Y-60075D01*
X69760Y-60089D01*
X69775Y-60117D01*
X69775Y-60160D01*
X69760Y-60189D01*
X69746Y-60203D01*
X69717Y-60217D01*
X69603Y-60217D01*
X70003Y-60203D02*
X70046Y-60217D01*
X70060Y-60232D01*
X70075Y-60260D01*
X70075Y-60303D01*
X70060Y-60332D01*
X70046Y-60346D01*
X70017Y-60360D01*
X69903Y-60360D01*
X69903Y-60060D01*
X70003Y-60060D01*
X70032Y-60075D01*
X70046Y-60089D01*
X70060Y-60117D01*
X70060Y-60146D01*
X70046Y-60175D01*
X70032Y-60189D01*
X70003Y-60203D01*
X69903Y-60203D01*
X70332Y-60060D02*
X70275Y-60060D01*
X70246Y-60075D01*
X70232Y-60089D01*
X70203Y-60132D01*
X70189Y-60189D01*
X70189Y-60303D01*
X70203Y-60332D01*
X70217Y-60346D01*
X70246Y-60360D01*
X70303Y-60360D01*
X70332Y-60346D01*
X70346Y-60332D01*
X70360Y-60303D01*
X70360Y-60232D01*
X70346Y-60203D01*
X70332Y-60189D01*
X70303Y-60175D01*
X70246Y-60175D01*
X70217Y-60189D01*
X70203Y-60203D01*
X70189Y-60232D01*
X73809Y-60695D02*
X73785Y-60683D01*
X73750Y-60683D01*
X73714Y-60695D01*
X73690Y-60718D01*
X73678Y-60742D01*
X73666Y-60790D01*
X73666Y-60825D01*
X73678Y-60873D01*
X73690Y-60897D01*
X73714Y-60921D01*
X73750Y-60933D01*
X73773Y-60933D01*
X73809Y-60921D01*
X73821Y-60909D01*
X73821Y-60825D01*
X73773Y-60825D01*
X73928Y-60933D02*
X73928Y-60683D01*
X74071Y-60933D01*
X74071Y-60683D01*
X74190Y-60933D02*
X74190Y-60683D01*
X74250Y-60683D01*
X74285Y-60695D01*
X74309Y-60718D01*
X74321Y-60742D01*
X74333Y-60790D01*
X74333Y-60825D01*
X74321Y-60873D01*
X74309Y-60897D01*
X74285Y-60921D01*
X74250Y-60933D01*
X74190Y-60933D01*
X87140Y-60375D02*
X87140Y-60075D01*
X87254Y-60075D01*
X87282Y-60090D01*
X87297Y-60104D01*
X87311Y-60132D01*
X87311Y-60175D01*
X87297Y-60204D01*
X87282Y-60218D01*
X87254Y-60232D01*
X87140Y-60232D01*
X87440Y-60218D02*
X87540Y-60218D01*
X87582Y-60375D02*
X87440Y-60375D01*
X87440Y-60075D01*
X87582Y-60075D01*
X87868Y-60375D02*
X87697Y-60375D01*
X87782Y-60375D02*
X87782Y-60075D01*
X87754Y-60118D01*
X87725Y-60147D01*
X87697Y-60161D01*
X88125Y-60175D02*
X88125Y-60375D01*
X88054Y-60061D02*
X87982Y-60275D01*
X88168Y-60275D01*
G54D13*
X78741Y-69038D02*
X78896Y-69038D01*
X78813Y-69133D01*
X78848Y-69133D01*
X78872Y-69145D01*
X78884Y-69157D01*
X78896Y-69180D01*
X78896Y-69240D01*
X78884Y-69264D01*
X78872Y-69276D01*
X78848Y-69288D01*
X78777Y-69288D01*
X78753Y-69276D01*
X78741Y-69264D01*
X79003Y-69264D02*
X79015Y-69276D01*
X79003Y-69288D01*
X78991Y-69276D01*
X79003Y-69264D01*
X79003Y-69288D01*
X79098Y-69038D02*
X79253Y-69038D01*
X79170Y-69133D01*
X79205Y-69133D01*
X79229Y-69145D01*
X79241Y-69157D01*
X79253Y-69180D01*
X79253Y-69240D01*
X79241Y-69264D01*
X79229Y-69276D01*
X79205Y-69288D01*
X79134Y-69288D01*
X79110Y-69276D01*
X79098Y-69264D01*
X79336Y-69121D02*
X79396Y-69288D01*
X79455Y-69121D01*
X80051Y-69038D02*
X79932Y-69038D01*
X79920Y-69157D01*
X79932Y-69145D01*
X79955Y-69133D01*
X80015Y-69133D01*
X80039Y-69145D01*
X80051Y-69157D01*
X80063Y-69180D01*
X80063Y-69240D01*
X80051Y-69264D01*
X80039Y-69276D01*
X80015Y-69288D01*
X79955Y-69288D01*
X79932Y-69276D01*
X79920Y-69264D01*
X80146Y-69121D02*
X80205Y-69288D01*
X80265Y-69121D01*
X80872Y-69050D02*
X80848Y-69038D01*
X80813Y-69038D01*
X80777Y-69050D01*
X80753Y-69073D01*
X80741Y-69097D01*
X80729Y-69145D01*
X80729Y-69180D01*
X80741Y-69228D01*
X80753Y-69252D01*
X80777Y-69276D01*
X80813Y-69288D01*
X80836Y-69288D01*
X80872Y-69276D01*
X80884Y-69264D01*
X80884Y-69180D01*
X80836Y-69180D01*
X80991Y-69288D02*
X80991Y-69038D01*
X81134Y-69288D01*
X81134Y-69038D01*
X81253Y-69288D02*
X81253Y-69038D01*
X81313Y-69038D01*
X81348Y-69050D01*
X81372Y-69073D01*
X81384Y-69097D01*
X81396Y-69145D01*
X81396Y-69180D01*
X81384Y-69228D01*
X81372Y-69252D01*
X81348Y-69276D01*
X81313Y-69288D01*
X81253Y-69288D01*
X83721Y-68675D02*
X83578Y-68675D01*
X83564Y-68818D01*
X83578Y-68804D01*
X83607Y-68790D01*
X83678Y-68790D01*
X83707Y-68804D01*
X83721Y-68818D01*
X83735Y-68847D01*
X83735Y-68918D01*
X83721Y-68947D01*
X83707Y-68961D01*
X83678Y-68975D01*
X83607Y-68975D01*
X83578Y-68961D01*
X83564Y-68947D01*
X83864Y-68975D02*
X83864Y-68675D01*
X83978Y-68675D01*
X84007Y-68690D01*
X84021Y-68704D01*
X84035Y-68732D01*
X84035Y-68775D01*
X84021Y-68804D01*
X84007Y-68818D01*
X83978Y-68832D01*
X83864Y-68832D01*
X82392Y-69321D02*
X82621Y-69321D01*
X82735Y-69135D02*
X82921Y-69135D01*
X82821Y-69250D01*
X82864Y-69250D01*
X82892Y-69264D01*
X82907Y-69278D01*
X82921Y-69307D01*
X82921Y-69378D01*
X82907Y-69407D01*
X82892Y-69421D01*
X82864Y-69435D01*
X82778Y-69435D01*
X82750Y-69421D01*
X82735Y-69407D01*
X83178Y-69235D02*
X83178Y-69435D01*
X83107Y-69121D02*
X83035Y-69335D01*
X83221Y-69335D01*
X83392Y-69135D02*
X83421Y-69135D01*
X83450Y-69150D01*
X83464Y-69164D01*
X83478Y-69192D01*
X83492Y-69250D01*
X83492Y-69321D01*
X83478Y-69378D01*
X83464Y-69407D01*
X83450Y-69421D01*
X83421Y-69435D01*
X83392Y-69435D01*
X83364Y-69421D01*
X83350Y-69407D01*
X83335Y-69378D01*
X83321Y-69321D01*
X83321Y-69250D01*
X83335Y-69192D01*
X83350Y-69164D01*
X83364Y-69150D01*
X83392Y-69135D01*
X83678Y-69135D02*
X83707Y-69135D01*
X83735Y-69150D01*
X83750Y-69164D01*
X83764Y-69192D01*
X83778Y-69250D01*
X83778Y-69321D01*
X83764Y-69378D01*
X83750Y-69407D01*
X83735Y-69421D01*
X83707Y-69435D01*
X83678Y-69435D01*
X83650Y-69421D01*
X83635Y-69407D01*
X83621Y-69378D01*
X83607Y-69321D01*
X83607Y-69250D01*
X83621Y-69192D01*
X83635Y-69164D01*
X83650Y-69150D01*
X83678Y-69135D01*
X83964Y-69135D02*
X83992Y-69135D01*
X84021Y-69150D01*
X84035Y-69164D01*
X84050Y-69192D01*
X84064Y-69250D01*
X84064Y-69321D01*
X84050Y-69378D01*
X84035Y-69407D01*
X84021Y-69421D01*
X83992Y-69435D01*
X83964Y-69435D01*
X83935Y-69421D01*
X83921Y-69407D01*
X83907Y-69378D01*
X83892Y-69321D01*
X83892Y-69250D01*
X83907Y-69192D01*
X83921Y-69164D01*
X83935Y-69150D01*
X83964Y-69135D01*
X84178Y-69164D02*
X84192Y-69150D01*
X84221Y-69135D01*
X84292Y-69135D01*
X84321Y-69150D01*
X84335Y-69164D01*
X84350Y-69192D01*
X84350Y-69221D01*
X84335Y-69264D01*
X84164Y-69435D01*
X84350Y-69435D01*
X84535Y-69135D02*
X84564Y-69135D01*
X84592Y-69150D01*
X84607Y-69164D01*
X84621Y-69192D01*
X84635Y-69250D01*
X84635Y-69321D01*
X84621Y-69378D01*
X84607Y-69407D01*
X84592Y-69421D01*
X84564Y-69435D01*
X84535Y-69435D01*
X84507Y-69421D01*
X84492Y-69407D01*
X84478Y-69378D01*
X84464Y-69321D01*
X84464Y-69250D01*
X84478Y-69192D01*
X84492Y-69164D01*
X84507Y-69150D01*
X84535Y-69135D01*
X84764Y-69435D02*
X84764Y-69135D01*
X84878Y-69135D01*
X84907Y-69150D01*
X84921Y-69164D01*
X84935Y-69192D01*
X84935Y-69235D01*
X84921Y-69264D01*
X84907Y-69278D01*
X84878Y-69292D01*
X84764Y-69292D01*
X85221Y-69435D02*
X85050Y-69435D01*
X85135Y-69435D02*
X85135Y-69135D01*
X85107Y-69178D01*
X85078Y-69207D01*
X85050Y-69221D01*
X73028Y-68285D02*
X73028Y-67985D01*
X73128Y-68200D01*
X73228Y-67985D01*
X73228Y-68285D01*
X73371Y-68285D02*
X73371Y-67985D01*
X73685Y-68257D02*
X73671Y-68271D01*
X73628Y-68285D01*
X73600Y-68285D01*
X73557Y-68271D01*
X73528Y-68242D01*
X73514Y-68214D01*
X73500Y-68157D01*
X73500Y-68114D01*
X73514Y-68057D01*
X73528Y-68028D01*
X73557Y-68000D01*
X73600Y-67985D01*
X73628Y-67985D01*
X73671Y-68000D01*
X73685Y-68014D01*
X73985Y-68285D02*
X73885Y-68142D01*
X73814Y-68285D02*
X73814Y-67985D01*
X73928Y-67985D01*
X73957Y-68000D01*
X73971Y-68014D01*
X73985Y-68042D01*
X73985Y-68085D01*
X73971Y-68114D01*
X73957Y-68128D01*
X73928Y-68142D01*
X73814Y-68142D01*
X74171Y-67985D02*
X74228Y-67985D01*
X74257Y-68000D01*
X74285Y-68028D01*
X74300Y-68085D01*
X74300Y-68185D01*
X74285Y-68242D01*
X74257Y-68271D01*
X74228Y-68285D01*
X74171Y-68285D01*
X74142Y-68271D01*
X74114Y-68242D01*
X74100Y-68185D01*
X74100Y-68085D01*
X74114Y-68028D01*
X74142Y-68000D01*
X74171Y-67985D01*
X74428Y-68171D02*
X74657Y-68171D01*
X74785Y-68271D02*
X74828Y-68285D01*
X74900Y-68285D01*
X74928Y-68271D01*
X74942Y-68257D01*
X74957Y-68228D01*
X74957Y-68200D01*
X74942Y-68171D01*
X74928Y-68157D01*
X74900Y-68142D01*
X74842Y-68128D01*
X74814Y-68114D01*
X74800Y-68100D01*
X74785Y-68071D01*
X74785Y-68042D01*
X74800Y-68014D01*
X74814Y-68000D01*
X74842Y-67985D01*
X74914Y-67985D01*
X74957Y-68000D01*
X75085Y-68285D02*
X75085Y-67985D01*
X75157Y-67985D01*
X75200Y-68000D01*
X75228Y-68028D01*
X75242Y-68057D01*
X75257Y-68114D01*
X75257Y-68157D01*
X75242Y-68214D01*
X75228Y-68242D01*
X75200Y-68271D01*
X75157Y-68285D01*
X75085Y-68285D01*
X75557Y-68257D02*
X75542Y-68271D01*
X75500Y-68285D01*
X75471Y-68285D01*
X75428Y-68271D01*
X75400Y-68242D01*
X75385Y-68214D01*
X75371Y-68157D01*
X75371Y-68114D01*
X75385Y-68057D01*
X75400Y-68028D01*
X75428Y-68000D01*
X75471Y-67985D01*
X75500Y-67985D01*
X75542Y-68000D01*
X75557Y-68014D01*
X75671Y-68200D02*
X75814Y-68200D01*
X75642Y-68285D02*
X75742Y-67985D01*
X75842Y-68285D01*
X76114Y-68285D02*
X76014Y-68142D01*
X75942Y-68285D02*
X75942Y-67985D01*
X76057Y-67985D01*
X76085Y-68000D01*
X76100Y-68014D01*
X76114Y-68042D01*
X76114Y-68085D01*
X76100Y-68114D01*
X76085Y-68128D01*
X76057Y-68142D01*
X75942Y-68142D01*
X76242Y-68285D02*
X76242Y-67985D01*
X76314Y-67985D01*
X76357Y-68000D01*
X76385Y-68028D01*
X76400Y-68057D01*
X76414Y-68114D01*
X76414Y-68157D01*
X76400Y-68214D01*
X76385Y-68242D01*
X76357Y-68271D01*
X76314Y-68285D01*
X76242Y-68285D01*
X76542Y-68171D02*
X76771Y-68171D01*
X73492Y-68631D02*
X73721Y-68631D01*
X73835Y-68445D02*
X74021Y-68445D01*
X73921Y-68560D01*
X73964Y-68560D01*
X73992Y-68574D01*
X74007Y-68588D01*
X74021Y-68617D01*
X74021Y-68688D01*
X74007Y-68717D01*
X73992Y-68731D01*
X73964Y-68745D01*
X73878Y-68745D01*
X73850Y-68731D01*
X73835Y-68717D01*
X74121Y-68445D02*
X74307Y-68445D01*
X74207Y-68560D01*
X74250Y-68560D01*
X74278Y-68574D01*
X74292Y-68588D01*
X74307Y-68617D01*
X74307Y-68688D01*
X74292Y-68717D01*
X74278Y-68731D01*
X74250Y-68745D01*
X74164Y-68745D01*
X74135Y-68731D01*
X74121Y-68717D01*
X74492Y-68445D02*
X74521Y-68445D01*
X74550Y-68460D01*
X74564Y-68474D01*
X74578Y-68502D01*
X74592Y-68560D01*
X74592Y-68631D01*
X74578Y-68688D01*
X74564Y-68717D01*
X74550Y-68731D01*
X74521Y-68745D01*
X74492Y-68745D01*
X74464Y-68731D01*
X74450Y-68717D01*
X74435Y-68688D01*
X74421Y-68631D01*
X74421Y-68560D01*
X74435Y-68502D01*
X74450Y-68474D01*
X74464Y-68460D01*
X74492Y-68445D01*
X74778Y-68445D02*
X74807Y-68445D01*
X74835Y-68460D01*
X74850Y-68474D01*
X74864Y-68502D01*
X74878Y-68560D01*
X74878Y-68631D01*
X74864Y-68688D01*
X74850Y-68717D01*
X74835Y-68731D01*
X74807Y-68745D01*
X74778Y-68745D01*
X74750Y-68731D01*
X74735Y-68717D01*
X74721Y-68688D01*
X74707Y-68631D01*
X74707Y-68560D01*
X74721Y-68502D01*
X74735Y-68474D01*
X74750Y-68460D01*
X74778Y-68445D01*
X75064Y-68445D02*
X75092Y-68445D01*
X75121Y-68460D01*
X75135Y-68474D01*
X75150Y-68502D01*
X75164Y-68560D01*
X75164Y-68631D01*
X75150Y-68688D01*
X75135Y-68717D01*
X75121Y-68731D01*
X75092Y-68745D01*
X75064Y-68745D01*
X75035Y-68731D01*
X75021Y-68717D01*
X75007Y-68688D01*
X74992Y-68631D01*
X74992Y-68560D01*
X75007Y-68502D01*
X75021Y-68474D01*
X75035Y-68460D01*
X75064Y-68445D01*
X75421Y-68445D02*
X75364Y-68445D01*
X75335Y-68460D01*
X75321Y-68474D01*
X75292Y-68517D01*
X75278Y-68574D01*
X75278Y-68688D01*
X75292Y-68717D01*
X75307Y-68731D01*
X75335Y-68745D01*
X75392Y-68745D01*
X75421Y-68731D01*
X75435Y-68717D01*
X75450Y-68688D01*
X75450Y-68617D01*
X75435Y-68588D01*
X75421Y-68574D01*
X75392Y-68560D01*
X75335Y-68560D01*
X75307Y-68574D01*
X75292Y-68588D01*
X75278Y-68617D01*
X75635Y-68445D02*
X75664Y-68445D01*
X75692Y-68460D01*
X75707Y-68474D01*
X75721Y-68502D01*
X75735Y-68560D01*
X75735Y-68631D01*
X75721Y-68688D01*
X75707Y-68717D01*
X75692Y-68731D01*
X75664Y-68745D01*
X75635Y-68745D01*
X75607Y-68731D01*
X75592Y-68717D01*
X75578Y-68688D01*
X75564Y-68631D01*
X75564Y-68560D01*
X75578Y-68502D01*
X75592Y-68474D01*
X75607Y-68460D01*
X75635Y-68445D01*
X75864Y-68745D02*
X75864Y-68445D01*
X75978Y-68445D01*
X76007Y-68460D01*
X76021Y-68474D01*
X76035Y-68502D01*
X76035Y-68545D01*
X76021Y-68574D01*
X76007Y-68588D01*
X75978Y-68602D01*
X75864Y-68602D01*
X76321Y-68745D02*
X76150Y-68745D01*
X76235Y-68745D02*
X76235Y-68445D01*
X76207Y-68488D01*
X76178Y-68517D01*
X76150Y-68531D01*
G54D14*
X81050Y-66700D02*
G75*
G03X81050Y-66700I-50J0D01*
G74*
G01*
X81450Y-66700D02*
X81050Y-66700D01*
X81050Y-66700D02*
X81050Y-66100D01*
X81050Y-66100D02*
X81450Y-66100D01*
X81850Y-66100D02*
X82250Y-66100D01*
X82250Y-66100D02*
X82250Y-66700D01*
X82250Y-66700D02*
X81850Y-66700D01*
X83100Y-66550D02*
G75*
G03X83100Y-66550I-50J0D01*
G74*
G01*
X83050Y-66100D02*
X83050Y-66500D01*
X83050Y-66500D02*
X82450Y-66500D01*
X82450Y-66500D02*
X82450Y-66100D01*
X82450Y-65700D02*
X82450Y-65300D01*
X82450Y-65300D02*
X83050Y-65300D01*
X83050Y-65300D02*
X83050Y-65700D01*
X83200Y-66500D02*
G75*
G03X83200Y-66500I-50J0D01*
G74*
G01*
X83600Y-66500D02*
X83200Y-66500D01*
X83200Y-66500D02*
X83200Y-65900D01*
X83200Y-65900D02*
X83600Y-65900D01*
X84000Y-65900D02*
X84400Y-65900D01*
X84400Y-65900D02*
X84400Y-66500D01*
X84400Y-66500D02*
X84000Y-66500D01*
X80800Y-65000D02*
G75*
G03X80800Y-65000I-50J0D01*
G74*
G01*
X80300Y-65000D02*
X80700Y-65000D01*
X80700Y-65000D02*
X80700Y-65600D01*
X80700Y-65600D02*
X80300Y-65600D01*
X79900Y-65600D02*
X79500Y-65600D01*
X79500Y-65600D02*
X79500Y-65000D01*
X79500Y-65000D02*
X79900Y-65000D01*
X79475Y-64775D02*
G75*
G03X79475Y-64775I-50J0D01*
G74*
G01*
X79875Y-64775D02*
X79475Y-64775D01*
X79475Y-64775D02*
X79475Y-64175D01*
X79475Y-64175D02*
X79875Y-64175D01*
X80275Y-64175D02*
X80675Y-64175D01*
X80675Y-64175D02*
X80675Y-64775D01*
X80675Y-64775D02*
X80275Y-64775D01*
X81050Y-65900D02*
G75*
G03X81050Y-65900I-50J0D01*
G74*
G01*
X81450Y-65900D02*
X81050Y-65900D01*
X81050Y-65900D02*
X81050Y-65300D01*
X81050Y-65300D02*
X81450Y-65300D01*
X81850Y-65300D02*
X82250Y-65300D01*
X82250Y-65300D02*
X82250Y-65900D01*
X82250Y-65900D02*
X81850Y-65900D01*
X81550Y-66900D02*
G75*
G03X81550Y-66900I-50J0D01*
G74*
G01*
X81050Y-66900D02*
X81450Y-66900D01*
X81450Y-66900D02*
X81450Y-67500D01*
X81450Y-67500D02*
X81050Y-67500D01*
X80650Y-67500D02*
X80250Y-67500D01*
X80250Y-67500D02*
X80250Y-66900D01*
X80250Y-66900D02*
X80650Y-66900D01*
X85350Y-66550D02*
G75*
G03X85350Y-66550I-50J0D01*
G74*
G01*
X85300Y-66100D02*
X85300Y-66500D01*
X85300Y-66500D02*
X84700Y-66500D01*
X84700Y-66500D02*
X84700Y-66100D01*
X84700Y-65700D02*
X84700Y-65300D01*
X84700Y-65300D02*
X85300Y-65300D01*
X85300Y-65300D02*
X85300Y-65700D01*
X78750Y-66400D02*
G75*
G03X78750Y-66400I-50J0D01*
G74*
G01*
X79150Y-66400D02*
X78750Y-66400D01*
X78750Y-66400D02*
X78750Y-65800D01*
X78750Y-65800D02*
X79150Y-65800D01*
X79550Y-65800D02*
X79950Y-65800D01*
X79950Y-65800D02*
X79950Y-66400D01*
X79950Y-66400D02*
X79550Y-66400D01*
G54D15*
X83756Y-65147D02*
X81944Y-65147D01*
X81944Y-61053D02*
X83756Y-61053D01*
X83756Y-61053D02*
X83756Y-65147D01*
X81944Y-65147D02*
X81944Y-61053D01*
X82357Y-61352D02*
G75*
G03X82357Y-61352I-111J0D01*
G74*
G01*
G54D14*
X75000Y-64100D02*
G75*
G03X75000Y-64100I-50J0D01*
G74*
G01*
X75400Y-64100D02*
X75000Y-64100D01*
X75000Y-64100D02*
X75000Y-63500D01*
X75000Y-63500D02*
X75400Y-63500D01*
X75800Y-63500D02*
X76200Y-63500D01*
X76200Y-63500D02*
X76200Y-64100D01*
X76200Y-64100D02*
X75800Y-64100D01*
G54D16*
X81600Y-69400D02*
X81600Y-70400D01*
X81600Y-70400D02*
X78600Y-70400D01*
X78600Y-70400D02*
X78600Y-69400D01*
X78600Y-69400D02*
X81600Y-69400D01*
X80600Y-70400D02*
X80600Y-69400D01*
X86050Y-62900D02*
X85050Y-62900D01*
X85050Y-61900D02*
X86050Y-61900D01*
X85050Y-62900D02*
X85050Y-61900D01*
X86050Y-61900D02*
X86050Y-62900D01*
X72800Y-63600D02*
X71800Y-63600D01*
X71800Y-62600D02*
X72800Y-62600D01*
X71800Y-63600D02*
X71800Y-62600D01*
X72800Y-62600D02*
X72800Y-63600D01*
G54D14*
X79425Y-66675D02*
G75*
G03X79425Y-66675I-50J0D01*
G74*
G01*
X78925Y-66675D02*
X79325Y-66675D01*
X79325Y-66675D02*
X79325Y-67275D01*
X79325Y-67275D02*
X78925Y-67275D01*
X78525Y-67275D02*
X78125Y-67275D01*
X78125Y-67275D02*
X78125Y-66675D01*
X78125Y-66675D02*
X78525Y-66675D01*
X78475Y-64700D02*
G75*
G03X78475Y-64700I-50J0D01*
G74*
G01*
X78425Y-64250D02*
X78425Y-64650D01*
X78425Y-64650D02*
X77825Y-64650D01*
X77825Y-64650D02*
X77825Y-64250D01*
X77825Y-63850D02*
X77825Y-63450D01*
X77825Y-63450D02*
X78425Y-63450D01*
X78425Y-63450D02*
X78425Y-63850D01*
G54D16*
X81000Y-68875D02*
X80000Y-68875D01*
X80000Y-67875D02*
X81000Y-67875D01*
X80000Y-68875D02*
X80000Y-67875D01*
X81000Y-67875D02*
X81000Y-68875D01*
X85475Y-60950D02*
X84475Y-60950D01*
X84475Y-59950D02*
X85475Y-59950D01*
X84475Y-60950D02*
X84475Y-59950D01*
X85475Y-59950D02*
X85475Y-60950D01*
G54D17*
X85632Y-66196D02*
X85504Y-66196D01*
X85504Y-66196D02*
X85504Y-66393D01*
X85632Y-66393D02*
X85504Y-66393D01*
X85632Y-66196D02*
X85632Y-66393D01*
X85877Y-66196D02*
X85818Y-66196D01*
X85818Y-66196D02*
X85818Y-66295D01*
X85877Y-66295D02*
X85818Y-66295D01*
X85877Y-66196D02*
X85877Y-66295D01*
X85682Y-66196D02*
X85623Y-66196D01*
X85623Y-66196D02*
X85623Y-66295D01*
X85682Y-66295D02*
X85623Y-66295D01*
X85682Y-66196D02*
X85682Y-66295D01*
X85828Y-66196D02*
X85672Y-66196D01*
X85672Y-66196D02*
X85672Y-66265D01*
X85828Y-66265D02*
X85672Y-66265D01*
X85828Y-66196D02*
X85828Y-66265D01*
X85632Y-65607D02*
X85504Y-65607D01*
X85504Y-65607D02*
X85504Y-65804D01*
X85632Y-65804D02*
X85504Y-65804D01*
X85632Y-65607D02*
X85632Y-65804D01*
X85996Y-65607D02*
X85868Y-65607D01*
X85868Y-65607D02*
X85868Y-65804D01*
X85996Y-65804D02*
X85868Y-65804D01*
X85996Y-65607D02*
X85996Y-65804D01*
X85682Y-65705D02*
X85623Y-65705D01*
X85623Y-65705D02*
X85623Y-65804D01*
X85682Y-65804D02*
X85623Y-65804D01*
X85682Y-65705D02*
X85682Y-65804D01*
X85877Y-65705D02*
X85818Y-65705D01*
X85818Y-65705D02*
X85818Y-65804D01*
X85877Y-65804D02*
X85818Y-65804D01*
X85877Y-65705D02*
X85877Y-65804D01*
X85828Y-65735D02*
X85672Y-65735D01*
X85672Y-65735D02*
X85672Y-65804D01*
X85828Y-65804D02*
X85672Y-65804D01*
X85828Y-65735D02*
X85828Y-65804D01*
X85789Y-66000D02*
X85711Y-66000D01*
X85711Y-66000D02*
X85711Y-66078D01*
X85789Y-66078D02*
X85711Y-66078D01*
X85789Y-66000D02*
X85789Y-66078D01*
X85986Y-66196D02*
X85868Y-66196D01*
X85868Y-66196D02*
X85868Y-66314D01*
X85986Y-66314D02*
X85868Y-66314D01*
X85986Y-66196D02*
X85986Y-66314D01*
X85996Y-66364D02*
X85907Y-66364D01*
X85907Y-66364D02*
X85907Y-66393D01*
X85996Y-66393D02*
X85907Y-66393D01*
X85996Y-66364D02*
X85996Y-66393D01*
G54D13*
X85524Y-66206D02*
X85524Y-65794D01*
X85976Y-65804D02*
X85976Y-66364D01*
G54D18*
X85955Y-66334D02*
G75*
G03X85955Y-66334I-28J0D01*
G74*
G01*
G54D13*
X85887Y-66393D02*
G75*
G03X85613Y-66393I-137J0D01*
G74*
G01*
X85613Y-65607D02*
G75*
G03X85887Y-65607I137J0D01*
G74*
G01*
G54D17*
X79068Y-64754D02*
X79196Y-64754D01*
X79196Y-64754D02*
X79196Y-64557D01*
X79068Y-64557D02*
X79196Y-64557D01*
X79068Y-64754D02*
X79068Y-64557D01*
X78823Y-64754D02*
X78882Y-64754D01*
X78882Y-64754D02*
X78882Y-64655D01*
X78823Y-64655D02*
X78882Y-64655D01*
X78823Y-64754D02*
X78823Y-64655D01*
X79018Y-64754D02*
X79077Y-64754D01*
X79077Y-64754D02*
X79077Y-64655D01*
X79018Y-64655D02*
X79077Y-64655D01*
X79018Y-64754D02*
X79018Y-64655D01*
X78872Y-64754D02*
X79028Y-64754D01*
X79028Y-64754D02*
X79028Y-64685D01*
X78872Y-64685D02*
X79028Y-64685D01*
X78872Y-64754D02*
X78872Y-64685D01*
X79068Y-65343D02*
X79196Y-65343D01*
X79196Y-65343D02*
X79196Y-65146D01*
X79068Y-65146D02*
X79196Y-65146D01*
X79068Y-65343D02*
X79068Y-65146D01*
X78704Y-65343D02*
X78832Y-65343D01*
X78832Y-65343D02*
X78832Y-65146D01*
X78704Y-65146D02*
X78832Y-65146D01*
X78704Y-65343D02*
X78704Y-65146D01*
X79018Y-65245D02*
X79077Y-65245D01*
X79077Y-65245D02*
X79077Y-65146D01*
X79018Y-65146D02*
X79077Y-65146D01*
X79018Y-65245D02*
X79018Y-65146D01*
X78823Y-65245D02*
X78882Y-65245D01*
X78882Y-65245D02*
X78882Y-65146D01*
X78823Y-65146D02*
X78882Y-65146D01*
X78823Y-65245D02*
X78823Y-65146D01*
X78872Y-65215D02*
X79028Y-65215D01*
X79028Y-65215D02*
X79028Y-65146D01*
X78872Y-65146D02*
X79028Y-65146D01*
X78872Y-65215D02*
X78872Y-65146D01*
X78911Y-64950D02*
X78989Y-64950D01*
X78989Y-64950D02*
X78989Y-64872D01*
X78911Y-64872D02*
X78989Y-64872D01*
X78911Y-64950D02*
X78911Y-64872D01*
X78714Y-64754D02*
X78832Y-64754D01*
X78832Y-64754D02*
X78832Y-64636D01*
X78714Y-64636D02*
X78832Y-64636D01*
X78714Y-64754D02*
X78714Y-64636D01*
X78704Y-64586D02*
X78793Y-64586D01*
X78793Y-64586D02*
X78793Y-64557D01*
X78704Y-64557D02*
X78793Y-64557D01*
X78704Y-64586D02*
X78704Y-64557D01*
G54D13*
X79176Y-64744D02*
X79176Y-65156D01*
X78724Y-65146D02*
X78724Y-64586D01*
G54D18*
X78801Y-64616D02*
G75*
G03X78801Y-64616I-28J0D01*
G74*
G01*
G54D13*
X78813Y-64557D02*
G75*
G03X79087Y-64557I137J0D01*
G74*
G01*
X79087Y-65343D02*
G75*
G03X78813Y-65343I-137J0D01*
G74*
G01*
G54D17*
X77196Y-63918D02*
X77196Y-64046D01*
X77196Y-64046D02*
X77393Y-64046D01*
X77393Y-63918D02*
X77393Y-64046D01*
X77196Y-63918D02*
X77393Y-63918D01*
X77196Y-63673D02*
X77196Y-63732D01*
X77196Y-63732D02*
X77295Y-63732D01*
X77295Y-63673D02*
X77295Y-63732D01*
X77196Y-63673D02*
X77295Y-63673D01*
X77196Y-63868D02*
X77196Y-63927D01*
X77196Y-63927D02*
X77295Y-63927D01*
X77295Y-63868D02*
X77295Y-63927D01*
X77196Y-63868D02*
X77295Y-63868D01*
X77196Y-63722D02*
X77196Y-63878D01*
X77196Y-63878D02*
X77265Y-63878D01*
X77265Y-63722D02*
X77265Y-63878D01*
X77196Y-63722D02*
X77265Y-63722D01*
X76607Y-63918D02*
X76607Y-64046D01*
X76607Y-64046D02*
X76804Y-64046D01*
X76804Y-63918D02*
X76804Y-64046D01*
X76607Y-63918D02*
X76804Y-63918D01*
X76607Y-63554D02*
X76607Y-63682D01*
X76607Y-63682D02*
X76804Y-63682D01*
X76804Y-63554D02*
X76804Y-63682D01*
X76607Y-63554D02*
X76804Y-63554D01*
X76705Y-63868D02*
X76705Y-63927D01*
X76705Y-63927D02*
X76804Y-63927D01*
X76804Y-63868D02*
X76804Y-63927D01*
X76705Y-63868D02*
X76804Y-63868D01*
X76705Y-63673D02*
X76705Y-63732D01*
X76705Y-63732D02*
X76804Y-63732D01*
X76804Y-63673D02*
X76804Y-63732D01*
X76705Y-63673D02*
X76804Y-63673D01*
X76735Y-63722D02*
X76735Y-63878D01*
X76735Y-63878D02*
X76804Y-63878D01*
X76804Y-63722D02*
X76804Y-63878D01*
X76735Y-63722D02*
X76804Y-63722D01*
X77000Y-63761D02*
X77000Y-63839D01*
X77000Y-63839D02*
X77078Y-63839D01*
X77078Y-63761D02*
X77078Y-63839D01*
X77000Y-63761D02*
X77078Y-63761D01*
X77196Y-63564D02*
X77196Y-63682D01*
X77196Y-63682D02*
X77314Y-63682D01*
X77314Y-63564D02*
X77314Y-63682D01*
X77196Y-63564D02*
X77314Y-63564D01*
X77364Y-63554D02*
X77364Y-63643D01*
X77364Y-63643D02*
X77393Y-63643D01*
X77393Y-63554D02*
X77393Y-63643D01*
X77364Y-63554D02*
X77393Y-63554D01*
G54D13*
X77206Y-64026D02*
X76794Y-64026D01*
X76804Y-63574D02*
X77364Y-63574D01*
G54D18*
X77362Y-63623D02*
G75*
G03X77362Y-63623I-28J0D01*
G74*
G01*
G54D13*
X77393Y-63663D02*
G75*
G03X77393Y-63937I0J-137D01*
G74*
G01*
X76607Y-63937D02*
G75*
G03X76607Y-63663I0J137D01*
G74*
G01*
G54D19*
X85400Y-70800D02*
X85400Y-70221D01*
X82400Y-70800D02*
X82400Y-70221D01*
X84700Y-67200D02*
X85200Y-67200D01*
X85400Y-68095D02*
X85400Y-69040D01*
X82400Y-70800D02*
X85400Y-70800D01*
X82400Y-68095D02*
X82400Y-69040D01*
X82600Y-67200D02*
X83073Y-67200D01*
X76950Y-70790D02*
X75200Y-70390D01*
X72050Y-70390D02*
X75220Y-70390D01*
X72050Y-64890D02*
X72050Y-70390D01*
X77950Y-70790D02*
X76953Y-70790D01*
X77400Y-64890D02*
X77400Y-65340D01*
X77400Y-65340D02*
X77950Y-65340D01*
X72050Y-64890D02*
X77400Y-64890D01*
X77950Y-65340D02*
X77950Y-70790D01*
G54D20*
X74560Y-60300D02*
X79560Y-60300D01*
X79560Y-60300D02*
X79560Y-62300D01*
X79560Y-62300D02*
X74560Y-62300D01*
X74560Y-62300D02*
X74560Y-60300D01*
G54D14*
X69516Y-70421D02*
X71484Y-70421D01*
X71484Y-70421D02*
X71484Y-60480D01*
X71484Y-60480D02*
X69516Y-60480D01*
X69516Y-60480D02*
X69516Y-70421D01*
X86166Y-70421D02*
X88134Y-70421D01*
X88134Y-70421D02*
X88134Y-60480D01*
X88134Y-60480D02*
X86166Y-60480D01*
X86166Y-60480D02*
X86166Y-70421D01*
G54D13*
X81739Y-66679D02*
X81751Y-66691D01*
X81763Y-66727D01*
X81763Y-66751D01*
X81751Y-66786D01*
X81727Y-66810D01*
X81703Y-66822D01*
X81655Y-66834D01*
X81620Y-66834D01*
X81572Y-66822D01*
X81548Y-66810D01*
X81525Y-66786D01*
X81513Y-66751D01*
X81513Y-66727D01*
X81525Y-66691D01*
X81536Y-66679D01*
X81513Y-66596D02*
X81513Y-66441D01*
X81608Y-66525D01*
X81608Y-66489D01*
X81620Y-66465D01*
X81632Y-66453D01*
X81655Y-66441D01*
X81715Y-66441D01*
X81739Y-66453D01*
X81751Y-66465D01*
X81763Y-66489D01*
X81763Y-66560D01*
X81751Y-66584D01*
X81739Y-66596D01*
X81513Y-66215D02*
X81513Y-66334D01*
X81632Y-66346D01*
X81620Y-66334D01*
X81608Y-66310D01*
X81608Y-66251D01*
X81620Y-66227D01*
X81632Y-66215D01*
X81655Y-66203D01*
X81715Y-66203D01*
X81739Y-66215D01*
X81751Y-66227D01*
X81763Y-66251D01*
X81763Y-66310D01*
X81751Y-66334D01*
X81739Y-66346D01*
X81763Y-65965D02*
X81763Y-66108D01*
X81763Y-66036D02*
X81513Y-66036D01*
X81548Y-66060D01*
X81572Y-66084D01*
X81584Y-66108D01*
X82470Y-65989D02*
X82458Y-66001D01*
X82422Y-66013D01*
X82398Y-66013D01*
X82363Y-66001D01*
X82339Y-65977D01*
X82327Y-65953D01*
X82315Y-65905D01*
X82315Y-65870D01*
X82327Y-65822D01*
X82339Y-65798D01*
X82363Y-65775D01*
X82398Y-65763D01*
X82422Y-65763D01*
X82458Y-65775D01*
X82470Y-65786D01*
X82553Y-65763D02*
X82708Y-65763D01*
X82625Y-65858D01*
X82660Y-65858D01*
X82684Y-65870D01*
X82696Y-65882D01*
X82708Y-65905D01*
X82708Y-65965D01*
X82696Y-65989D01*
X82684Y-66001D01*
X82660Y-66013D01*
X82589Y-66013D01*
X82565Y-66001D01*
X82553Y-65989D01*
X82934Y-65763D02*
X82815Y-65763D01*
X82803Y-65882D01*
X82815Y-65870D01*
X82839Y-65858D01*
X82898Y-65858D01*
X82922Y-65870D01*
X82934Y-65882D01*
X82946Y-65905D01*
X82946Y-65965D01*
X82934Y-65989D01*
X82922Y-66001D01*
X82898Y-66013D01*
X82839Y-66013D01*
X82815Y-66001D01*
X82803Y-65989D01*
X83041Y-65786D02*
X83053Y-65775D01*
X83077Y-65763D01*
X83136Y-65763D01*
X83160Y-65775D01*
X83172Y-65786D01*
X83184Y-65810D01*
X83184Y-65834D01*
X83172Y-65870D01*
X83029Y-66013D01*
X83184Y-66013D01*
X83889Y-66479D02*
X83901Y-66491D01*
X83913Y-66527D01*
X83913Y-66551D01*
X83901Y-66586D01*
X83877Y-66610D01*
X83853Y-66622D01*
X83805Y-66634D01*
X83770Y-66634D01*
X83722Y-66622D01*
X83698Y-66610D01*
X83675Y-66586D01*
X83663Y-66551D01*
X83663Y-66527D01*
X83675Y-66491D01*
X83686Y-66479D01*
X83663Y-66396D02*
X83663Y-66241D01*
X83758Y-66325D01*
X83758Y-66289D01*
X83770Y-66265D01*
X83782Y-66253D01*
X83805Y-66241D01*
X83865Y-66241D01*
X83889Y-66253D01*
X83901Y-66265D01*
X83913Y-66289D01*
X83913Y-66360D01*
X83901Y-66384D01*
X83889Y-66396D01*
X83663Y-66015D02*
X83663Y-66134D01*
X83782Y-66146D01*
X83770Y-66134D01*
X83758Y-66110D01*
X83758Y-66051D01*
X83770Y-66027D01*
X83782Y-66015D01*
X83805Y-66003D01*
X83865Y-66003D01*
X83889Y-66015D01*
X83901Y-66027D01*
X83913Y-66051D01*
X83913Y-66110D01*
X83901Y-66134D01*
X83889Y-66146D01*
X83663Y-65920D02*
X83663Y-65765D01*
X83758Y-65848D01*
X83758Y-65813D01*
X83770Y-65789D01*
X83782Y-65777D01*
X83805Y-65765D01*
X83865Y-65765D01*
X83889Y-65777D01*
X83901Y-65789D01*
X83913Y-65813D01*
X83913Y-65884D01*
X83901Y-65908D01*
X83889Y-65920D01*
X80189Y-65639D02*
X80201Y-65651D01*
X80213Y-65687D01*
X80213Y-65711D01*
X80201Y-65746D01*
X80177Y-65770D01*
X80153Y-65782D01*
X80105Y-65794D01*
X80070Y-65794D01*
X80022Y-65782D01*
X79998Y-65770D01*
X79975Y-65746D01*
X79963Y-65711D01*
X79963Y-65687D01*
X79975Y-65651D01*
X79986Y-65639D01*
X79963Y-65556D02*
X79963Y-65401D01*
X80058Y-65485D01*
X80058Y-65449D01*
X80070Y-65425D01*
X80082Y-65413D01*
X80105Y-65401D01*
X80165Y-65401D01*
X80189Y-65413D01*
X80201Y-65425D01*
X80213Y-65449D01*
X80213Y-65520D01*
X80201Y-65544D01*
X80189Y-65556D01*
X79963Y-65175D02*
X79963Y-65294D01*
X80082Y-65306D01*
X80070Y-65294D01*
X80058Y-65270D01*
X80058Y-65211D01*
X80070Y-65187D01*
X80082Y-65175D01*
X80105Y-65163D01*
X80165Y-65163D01*
X80189Y-65175D01*
X80201Y-65187D01*
X80213Y-65211D01*
X80213Y-65270D01*
X80201Y-65294D01*
X80189Y-65306D01*
X80046Y-64949D02*
X80213Y-64949D01*
X79951Y-65008D02*
X80129Y-65068D01*
X80129Y-64913D01*
X80189Y-64679D02*
X80201Y-64691D01*
X80213Y-64727D01*
X80213Y-64751D01*
X80201Y-64786D01*
X80177Y-64810D01*
X80153Y-64822D01*
X80105Y-64834D01*
X80070Y-64834D01*
X80022Y-64822D01*
X79998Y-64810D01*
X79975Y-64786D01*
X79963Y-64751D01*
X79963Y-64727D01*
X79975Y-64691D01*
X79986Y-64679D01*
X79963Y-64596D02*
X79963Y-64441D01*
X80058Y-64525D01*
X80058Y-64489D01*
X80070Y-64465D01*
X80082Y-64453D01*
X80105Y-64441D01*
X80165Y-64441D01*
X80189Y-64453D01*
X80201Y-64465D01*
X80213Y-64489D01*
X80213Y-64560D01*
X80201Y-64584D01*
X80189Y-64596D01*
X79963Y-64215D02*
X79963Y-64334D01*
X80082Y-64346D01*
X80070Y-64334D01*
X80058Y-64310D01*
X80058Y-64251D01*
X80070Y-64227D01*
X80082Y-64215D01*
X80105Y-64203D01*
X80165Y-64203D01*
X80189Y-64215D01*
X80201Y-64227D01*
X80213Y-64251D01*
X80213Y-64310D01*
X80201Y-64334D01*
X80189Y-64346D01*
X79963Y-63977D02*
X79963Y-64096D01*
X80082Y-64108D01*
X80070Y-64096D01*
X80058Y-64072D01*
X80058Y-64013D01*
X80070Y-63989D01*
X80082Y-63977D01*
X80105Y-63965D01*
X80165Y-63965D01*
X80189Y-63977D01*
X80201Y-63989D01*
X80213Y-64013D01*
X80213Y-64072D01*
X80201Y-64096D01*
X80189Y-64108D01*
X81749Y-65779D02*
X81761Y-65791D01*
X81773Y-65827D01*
X81773Y-65851D01*
X81761Y-65886D01*
X81737Y-65910D01*
X81713Y-65922D01*
X81665Y-65934D01*
X81630Y-65934D01*
X81582Y-65922D01*
X81558Y-65910D01*
X81535Y-65886D01*
X81523Y-65851D01*
X81523Y-65827D01*
X81535Y-65791D01*
X81546Y-65779D01*
X81523Y-65696D02*
X81523Y-65541D01*
X81618Y-65625D01*
X81618Y-65589D01*
X81630Y-65565D01*
X81642Y-65553D01*
X81665Y-65541D01*
X81725Y-65541D01*
X81749Y-65553D01*
X81761Y-65565D01*
X81773Y-65589D01*
X81773Y-65660D01*
X81761Y-65684D01*
X81749Y-65696D01*
X81523Y-65315D02*
X81523Y-65434D01*
X81642Y-65446D01*
X81630Y-65434D01*
X81618Y-65410D01*
X81618Y-65351D01*
X81630Y-65327D01*
X81642Y-65315D01*
X81665Y-65303D01*
X81725Y-65303D01*
X81749Y-65315D01*
X81761Y-65327D01*
X81773Y-65351D01*
X81773Y-65410D01*
X81761Y-65434D01*
X81749Y-65446D01*
X81523Y-65089D02*
X81523Y-65136D01*
X81535Y-65160D01*
X81546Y-65172D01*
X81582Y-65196D01*
X81630Y-65208D01*
X81725Y-65208D01*
X81749Y-65196D01*
X81761Y-65184D01*
X81773Y-65160D01*
X81773Y-65113D01*
X81761Y-65089D01*
X81749Y-65077D01*
X81725Y-65065D01*
X81665Y-65065D01*
X81642Y-65077D01*
X81630Y-65089D01*
X81618Y-65113D01*
X81618Y-65160D01*
X81630Y-65184D01*
X81642Y-65196D01*
X81665Y-65208D01*
X81013Y-67479D02*
X80894Y-67563D01*
X81013Y-67622D02*
X80763Y-67622D01*
X80763Y-67527D01*
X80775Y-67503D01*
X80786Y-67491D01*
X80810Y-67479D01*
X80846Y-67479D01*
X80870Y-67491D01*
X80882Y-67503D01*
X80894Y-67527D01*
X80894Y-67622D01*
X80763Y-67396D02*
X80763Y-67241D01*
X80858Y-67325D01*
X80858Y-67289D01*
X80870Y-67265D01*
X80882Y-67253D01*
X80905Y-67241D01*
X80965Y-67241D01*
X80989Y-67253D01*
X81001Y-67265D01*
X81013Y-67289D01*
X81013Y-67360D01*
X81001Y-67384D01*
X80989Y-67396D01*
X80763Y-67015D02*
X80763Y-67134D01*
X80882Y-67146D01*
X80870Y-67134D01*
X80858Y-67110D01*
X80858Y-67051D01*
X80870Y-67027D01*
X80882Y-67015D01*
X80905Y-67003D01*
X80965Y-67003D01*
X80989Y-67015D01*
X81001Y-67027D01*
X81013Y-67051D01*
X81013Y-67110D01*
X81001Y-67134D01*
X80989Y-67146D01*
X81013Y-66765D02*
X81013Y-66908D01*
X81013Y-66836D02*
X80763Y-66836D01*
X80798Y-66860D01*
X80822Y-66884D01*
X80834Y-66908D01*
X84520Y-66033D02*
X84436Y-65914D01*
X84377Y-66033D02*
X84377Y-65783D01*
X84472Y-65783D01*
X84496Y-65795D01*
X84508Y-65806D01*
X84520Y-65830D01*
X84520Y-65866D01*
X84508Y-65890D01*
X84496Y-65902D01*
X84472Y-65914D01*
X84377Y-65914D01*
X84603Y-65783D02*
X84758Y-65783D01*
X84675Y-65878D01*
X84710Y-65878D01*
X84734Y-65890D01*
X84746Y-65902D01*
X84758Y-65925D01*
X84758Y-65985D01*
X84746Y-66009D01*
X84734Y-66021D01*
X84710Y-66033D01*
X84639Y-66033D01*
X84615Y-66021D01*
X84603Y-66009D01*
X84984Y-65783D02*
X84865Y-65783D01*
X84853Y-65902D01*
X84865Y-65890D01*
X84889Y-65878D01*
X84948Y-65878D01*
X84972Y-65890D01*
X84984Y-65902D01*
X84996Y-65925D01*
X84996Y-65985D01*
X84984Y-66009D01*
X84972Y-66021D01*
X84948Y-66033D01*
X84889Y-66033D01*
X84865Y-66021D01*
X84853Y-66009D01*
X85091Y-65806D02*
X85103Y-65795D01*
X85127Y-65783D01*
X85186Y-65783D01*
X85210Y-65795D01*
X85222Y-65806D01*
X85234Y-65830D01*
X85234Y-65854D01*
X85222Y-65890D01*
X85079Y-66033D01*
X85234Y-66033D01*
X79463Y-66379D02*
X79344Y-66463D01*
X79463Y-66522D02*
X79213Y-66522D01*
X79213Y-66427D01*
X79225Y-66403D01*
X79236Y-66391D01*
X79260Y-66379D01*
X79296Y-66379D01*
X79320Y-66391D01*
X79332Y-66403D01*
X79344Y-66427D01*
X79344Y-66522D01*
X79213Y-66296D02*
X79213Y-66141D01*
X79308Y-66225D01*
X79308Y-66189D01*
X79320Y-66165D01*
X79332Y-66153D01*
X79355Y-66141D01*
X79415Y-66141D01*
X79439Y-66153D01*
X79451Y-66165D01*
X79463Y-66189D01*
X79463Y-66260D01*
X79451Y-66284D01*
X79439Y-66296D01*
X79213Y-65915D02*
X79213Y-66034D01*
X79332Y-66046D01*
X79320Y-66034D01*
X79308Y-66010D01*
X79308Y-65951D01*
X79320Y-65927D01*
X79332Y-65915D01*
X79355Y-65903D01*
X79415Y-65903D01*
X79439Y-65915D01*
X79451Y-65927D01*
X79463Y-65951D01*
X79463Y-66010D01*
X79451Y-66034D01*
X79439Y-66046D01*
X79213Y-65820D02*
X79213Y-65665D01*
X79308Y-65748D01*
X79308Y-65713D01*
X79320Y-65689D01*
X79332Y-65677D01*
X79355Y-65665D01*
X79415Y-65665D01*
X79439Y-65677D01*
X79451Y-65689D01*
X79463Y-65713D01*
X79463Y-65784D01*
X79451Y-65808D01*
X79439Y-65820D01*
X82135Y-62935D02*
X82135Y-63178D01*
X82150Y-63207D01*
X82164Y-63221D01*
X82192Y-63235D01*
X82250Y-63235D01*
X82278Y-63221D01*
X82292Y-63207D01*
X82307Y-63178D01*
X82307Y-62935D01*
X82421Y-62935D02*
X82607Y-62935D01*
X82507Y-63050D01*
X82550Y-63050D01*
X82578Y-63064D01*
X82592Y-63078D01*
X82607Y-63107D01*
X82607Y-63178D01*
X82592Y-63207D01*
X82578Y-63221D01*
X82550Y-63235D01*
X82464Y-63235D01*
X82435Y-63221D01*
X82421Y-63207D01*
X82878Y-62935D02*
X82735Y-62935D01*
X82721Y-63078D01*
X82735Y-63064D01*
X82764Y-63050D01*
X82835Y-63050D01*
X82864Y-63064D01*
X82878Y-63078D01*
X82892Y-63107D01*
X82892Y-63178D01*
X82878Y-63207D01*
X82864Y-63221D01*
X82835Y-63235D01*
X82764Y-63235D01*
X82735Y-63221D01*
X82721Y-63207D01*
X83178Y-63235D02*
X83007Y-63235D01*
X83092Y-63235D02*
X83092Y-62935D01*
X83064Y-62978D01*
X83035Y-63007D01*
X83007Y-63021D01*
X75713Y-64079D02*
X75594Y-64163D01*
X75713Y-64222D02*
X75463Y-64222D01*
X75463Y-64127D01*
X75475Y-64103D01*
X75486Y-64091D01*
X75510Y-64079D01*
X75546Y-64079D01*
X75570Y-64091D01*
X75582Y-64103D01*
X75594Y-64127D01*
X75594Y-64222D01*
X75463Y-63996D02*
X75463Y-63841D01*
X75558Y-63925D01*
X75558Y-63889D01*
X75570Y-63865D01*
X75582Y-63853D01*
X75605Y-63841D01*
X75665Y-63841D01*
X75689Y-63853D01*
X75701Y-63865D01*
X75713Y-63889D01*
X75713Y-63960D01*
X75701Y-63984D01*
X75689Y-63996D01*
X75463Y-63615D02*
X75463Y-63734D01*
X75582Y-63746D01*
X75570Y-63734D01*
X75558Y-63710D01*
X75558Y-63651D01*
X75570Y-63627D01*
X75582Y-63615D01*
X75605Y-63603D01*
X75665Y-63603D01*
X75689Y-63615D01*
X75701Y-63627D01*
X75713Y-63651D01*
X75713Y-63710D01*
X75701Y-63734D01*
X75689Y-63746D01*
X75546Y-63389D02*
X75713Y-63389D01*
X75451Y-63448D02*
X75629Y-63508D01*
X75629Y-63353D01*
G54D21*
X78814Y-67379D02*
X78826Y-67391D01*
X78838Y-67427D01*
X78838Y-67451D01*
X78826Y-67486D01*
X78802Y-67510D01*
X78778Y-67522D01*
X78730Y-67534D01*
X78695Y-67534D01*
X78647Y-67522D01*
X78623Y-67510D01*
X78600Y-67486D01*
X78588Y-67451D01*
X78588Y-67427D01*
X78600Y-67391D01*
X78611Y-67379D01*
X78588Y-67296D02*
X78588Y-67141D01*
X78683Y-67225D01*
X78683Y-67189D01*
X78695Y-67165D01*
X78707Y-67153D01*
X78730Y-67141D01*
X78790Y-67141D01*
X78814Y-67153D01*
X78826Y-67165D01*
X78838Y-67189D01*
X78838Y-67260D01*
X78826Y-67284D01*
X78814Y-67296D01*
X78588Y-66915D02*
X78588Y-67034D01*
X78707Y-67046D01*
X78695Y-67034D01*
X78683Y-67010D01*
X78683Y-66951D01*
X78695Y-66927D01*
X78707Y-66915D01*
X78730Y-66903D01*
X78790Y-66903D01*
X78814Y-66915D01*
X78826Y-66927D01*
X78838Y-66951D01*
X78838Y-67010D01*
X78826Y-67034D01*
X78814Y-67046D01*
X78588Y-66820D02*
X78588Y-66653D01*
X78838Y-66760D01*
X77860Y-64129D02*
X77848Y-64141D01*
X77812Y-64153D01*
X77788Y-64153D01*
X77753Y-64141D01*
X77729Y-64117D01*
X77717Y-64093D01*
X77705Y-64045D01*
X77705Y-64010D01*
X77717Y-63962D01*
X77729Y-63938D01*
X77753Y-63915D01*
X77788Y-63903D01*
X77812Y-63903D01*
X77848Y-63915D01*
X77860Y-63926D01*
X77943Y-63903D02*
X78098Y-63903D01*
X78015Y-63998D01*
X78050Y-63998D01*
X78074Y-64010D01*
X78086Y-64022D01*
X78098Y-64045D01*
X78098Y-64105D01*
X78086Y-64129D01*
X78074Y-64141D01*
X78050Y-64153D01*
X77979Y-64153D01*
X77955Y-64141D01*
X77943Y-64129D01*
X78324Y-63903D02*
X78205Y-63903D01*
X78193Y-64022D01*
X78205Y-64010D01*
X78229Y-63998D01*
X78288Y-63998D01*
X78312Y-64010D01*
X78324Y-64022D01*
X78336Y-64045D01*
X78336Y-64105D01*
X78324Y-64129D01*
X78312Y-64141D01*
X78288Y-64153D01*
X78229Y-64153D01*
X78205Y-64141D01*
X78193Y-64129D01*
X78479Y-64010D02*
X78455Y-63998D01*
X78443Y-63986D01*
X78431Y-63962D01*
X78431Y-63950D01*
X78443Y-63926D01*
X78455Y-63915D01*
X78479Y-63903D01*
X78526Y-63903D01*
X78550Y-63915D01*
X78562Y-63926D01*
X78574Y-63950D01*
X78574Y-63962D01*
X78562Y-63986D01*
X78550Y-63998D01*
X78526Y-64010D01*
X78479Y-64010D01*
X78455Y-64022D01*
X78443Y-64034D01*
X78431Y-64057D01*
X78431Y-64105D01*
X78443Y-64129D01*
X78455Y-64141D01*
X78479Y-64153D01*
X78526Y-64153D01*
X78550Y-64141D01*
X78562Y-64129D01*
X78574Y-64105D01*
X78574Y-64057D01*
X78562Y-64034D01*
X78550Y-64022D01*
X78526Y-64010D01*
X85317Y-66133D02*
X85317Y-65883D01*
X85376Y-65883D01*
X85412Y-65895D01*
X85436Y-65918D01*
X85448Y-65942D01*
X85460Y-65990D01*
X85460Y-66025D01*
X85448Y-66073D01*
X85436Y-66097D01*
X85412Y-66121D01*
X85376Y-66133D01*
X85317Y-66133D01*
X85543Y-65883D02*
X85698Y-65883D01*
X85615Y-65978D01*
X85650Y-65978D01*
X85674Y-65990D01*
X85686Y-66002D01*
X85698Y-66025D01*
X85698Y-66085D01*
X85686Y-66109D01*
X85674Y-66121D01*
X85650Y-66133D01*
X85579Y-66133D01*
X85555Y-66121D01*
X85543Y-66109D01*
X85924Y-65883D02*
X85805Y-65883D01*
X85793Y-66002D01*
X85805Y-65990D01*
X85829Y-65978D01*
X85888Y-65978D01*
X85912Y-65990D01*
X85924Y-66002D01*
X85936Y-66025D01*
X85936Y-66085D01*
X85924Y-66109D01*
X85912Y-66121D01*
X85888Y-66133D01*
X85829Y-66133D01*
X85805Y-66121D01*
X85793Y-66109D01*
X86174Y-66133D02*
X86031Y-66133D01*
X86103Y-66133D02*
X86103Y-65883D01*
X86079Y-65918D01*
X86055Y-65942D01*
X86031Y-65954D01*
X78537Y-65073D02*
X78537Y-64823D01*
X78596Y-64823D01*
X78632Y-64835D01*
X78656Y-64858D01*
X78668Y-64882D01*
X78680Y-64930D01*
X78680Y-64965D01*
X78668Y-65013D01*
X78656Y-65037D01*
X78632Y-65061D01*
X78596Y-65073D01*
X78537Y-65073D01*
X78763Y-64823D02*
X78918Y-64823D01*
X78835Y-64918D01*
X78870Y-64918D01*
X78894Y-64930D01*
X78906Y-64942D01*
X78918Y-64965D01*
X78918Y-65025D01*
X78906Y-65049D01*
X78894Y-65061D01*
X78870Y-65073D01*
X78799Y-65073D01*
X78775Y-65061D01*
X78763Y-65049D01*
X79144Y-64823D02*
X79025Y-64823D01*
X79013Y-64942D01*
X79025Y-64930D01*
X79049Y-64918D01*
X79108Y-64918D01*
X79132Y-64930D01*
X79144Y-64942D01*
X79156Y-64965D01*
X79156Y-65025D01*
X79144Y-65049D01*
X79132Y-65061D01*
X79108Y-65073D01*
X79049Y-65073D01*
X79025Y-65061D01*
X79013Y-65049D01*
X79251Y-64846D02*
X79263Y-64835D01*
X79287Y-64823D01*
X79346Y-64823D01*
X79370Y-64835D01*
X79382Y-64846D01*
X79394Y-64870D01*
X79394Y-64894D01*
X79382Y-64930D01*
X79239Y-65073D01*
X79394Y-65073D01*
X77113Y-64222D02*
X76863Y-64222D01*
X76863Y-64163D01*
X76875Y-64127D01*
X76898Y-64103D01*
X76922Y-64091D01*
X76970Y-64079D01*
X77005Y-64079D01*
X77053Y-64091D01*
X77077Y-64103D01*
X77101Y-64127D01*
X77113Y-64163D01*
X77113Y-64222D01*
X76863Y-63996D02*
X76863Y-63841D01*
X76958Y-63925D01*
X76958Y-63889D01*
X76970Y-63865D01*
X76982Y-63853D01*
X77005Y-63841D01*
X77065Y-63841D01*
X77089Y-63853D01*
X77101Y-63865D01*
X77113Y-63889D01*
X77113Y-63960D01*
X77101Y-63984D01*
X77089Y-63996D01*
X76863Y-63615D02*
X76863Y-63734D01*
X76982Y-63746D01*
X76970Y-63734D01*
X76958Y-63710D01*
X76958Y-63651D01*
X76970Y-63627D01*
X76982Y-63615D01*
X77005Y-63603D01*
X77065Y-63603D01*
X77089Y-63615D01*
X77101Y-63627D01*
X77113Y-63651D01*
X77113Y-63710D01*
X77101Y-63734D01*
X77089Y-63746D01*
X76863Y-63520D02*
X76863Y-63365D01*
X76958Y-63448D01*
X76958Y-63413D01*
X76970Y-63389D01*
X76982Y-63377D01*
X77005Y-63365D01*
X77065Y-63365D01*
X77089Y-63377D01*
X77101Y-63389D01*
X77113Y-63413D01*
X77113Y-63484D01*
X77101Y-63508D01*
X77089Y-63520D01*
G54D22*
X83598Y-68283D02*
X83598Y-68461D01*
X83586Y-68497D01*
X83562Y-68521D01*
X83527Y-68533D01*
X83503Y-68533D01*
X83693Y-68283D02*
X83848Y-68283D01*
X83765Y-68378D01*
X83800Y-68378D01*
X83824Y-68390D01*
X83836Y-68402D01*
X83848Y-68425D01*
X83848Y-68485D01*
X83836Y-68509D01*
X83824Y-68521D01*
X83800Y-68533D01*
X83729Y-68533D01*
X83705Y-68521D01*
X83693Y-68509D01*
X84074Y-68283D02*
X83955Y-68283D01*
X83943Y-68402D01*
X83955Y-68390D01*
X83979Y-68378D01*
X84039Y-68378D01*
X84062Y-68390D01*
X84074Y-68402D01*
X84086Y-68425D01*
X84086Y-68485D01*
X84074Y-68509D01*
X84062Y-68521D01*
X84039Y-68533D01*
X83979Y-68533D01*
X83955Y-68521D01*
X83943Y-68509D01*
X84324Y-68533D02*
X84181Y-68533D01*
X84253Y-68533D02*
X84253Y-68283D01*
X84229Y-68318D01*
X84205Y-68342D01*
X84181Y-68354D01*
G54D13*
X74477Y-67253D02*
X74477Y-67003D01*
X74572Y-67003D01*
X74596Y-67015D01*
X74608Y-67026D01*
X74620Y-67050D01*
X74620Y-67086D01*
X74608Y-67110D01*
X74596Y-67122D01*
X74572Y-67134D01*
X74477Y-67134D01*
X74703Y-67003D02*
X74858Y-67003D01*
X74775Y-67098D01*
X74810Y-67098D01*
X74834Y-67110D01*
X74846Y-67122D01*
X74858Y-67145D01*
X74858Y-67205D01*
X74846Y-67229D01*
X74834Y-67241D01*
X74810Y-67253D01*
X74739Y-67253D01*
X74715Y-67241D01*
X74703Y-67229D01*
X75084Y-67003D02*
X74965Y-67003D01*
X74953Y-67122D01*
X74965Y-67110D01*
X74989Y-67098D01*
X75048Y-67098D01*
X75072Y-67110D01*
X75084Y-67122D01*
X75096Y-67145D01*
X75096Y-67205D01*
X75084Y-67229D01*
X75072Y-67241D01*
X75048Y-67253D01*
X74989Y-67253D01*
X74965Y-67241D01*
X74953Y-67229D01*
X75191Y-67026D02*
X75203Y-67015D01*
X75227Y-67003D01*
X75286Y-67003D01*
X75310Y-67015D01*
X75322Y-67026D01*
X75334Y-67050D01*
X75334Y-67074D01*
X75322Y-67110D01*
X75179Y-67253D01*
X75334Y-67253D01*
M02*
