G04 (created by PCBNEW (2013-07-07 BZR 4022)-stable) date 02/12/2013 08:18:55*
%MOIN*%
G04 Gerber Fmt 3.4, Leading zero omitted, Abs format*
%FSLAX34Y34*%
G01*
G70*
G90*
G04 APERTURE LIST*
%ADD10C,0.00590551*%
%ADD11C,0.005*%
%ADD12C,0.01*%
%ADD13C,0.0045*%
%ADD14C,0.012*%
G04 APERTURE END LIST*
G54D10*
G54D11*
X38263Y-49424D02*
X38294Y-49409D01*
X38339Y-49409D01*
X38385Y-49424D01*
X38416Y-49455D01*
X38431Y-49485D01*
X38446Y-49546D01*
X38446Y-49592D01*
X38431Y-49653D01*
X38416Y-49683D01*
X38385Y-49714D01*
X38339Y-49729D01*
X38309Y-49729D01*
X38263Y-49714D01*
X38248Y-49699D01*
X38248Y-49592D01*
X38309Y-49592D01*
X38111Y-49729D02*
X38111Y-49409D01*
X37928Y-49729D01*
X37928Y-49409D01*
X37776Y-49729D02*
X37776Y-49409D01*
X37699Y-49409D01*
X37654Y-49424D01*
X37623Y-49455D01*
X37608Y-49485D01*
X37593Y-49546D01*
X37593Y-49592D01*
X37608Y-49653D01*
X37623Y-49683D01*
X37654Y-49714D01*
X37699Y-49729D01*
X37776Y-49729D01*
X36084Y-49409D02*
X36237Y-49409D01*
X36252Y-49561D01*
X36237Y-49546D01*
X36206Y-49531D01*
X36130Y-49531D01*
X36099Y-49546D01*
X36084Y-49561D01*
X36069Y-49592D01*
X36069Y-49668D01*
X36084Y-49699D01*
X36099Y-49714D01*
X36130Y-49729D01*
X36206Y-49729D01*
X36237Y-49714D01*
X36252Y-49699D01*
X35978Y-49409D02*
X35871Y-49729D01*
X35764Y-49409D01*
X34225Y-49409D02*
X34027Y-49409D01*
X34134Y-49531D01*
X34088Y-49531D01*
X34058Y-49546D01*
X34042Y-49561D01*
X34027Y-49592D01*
X34027Y-49668D01*
X34042Y-49699D01*
X34058Y-49714D01*
X34088Y-49729D01*
X34180Y-49729D01*
X34210Y-49714D01*
X34225Y-49699D01*
X33936Y-49409D02*
X33829Y-49729D01*
X33722Y-49409D01*
X34493Y-51824D02*
X34524Y-51809D01*
X34570Y-51809D01*
X34615Y-51824D01*
X34646Y-51855D01*
X34661Y-51885D01*
X34676Y-51946D01*
X34676Y-51992D01*
X34661Y-52053D01*
X34646Y-52083D01*
X34615Y-52114D01*
X34570Y-52129D01*
X34539Y-52129D01*
X34493Y-52114D01*
X34478Y-52099D01*
X34478Y-51992D01*
X34539Y-51992D01*
X34341Y-52129D02*
X34341Y-51809D01*
X34158Y-52129D01*
X34158Y-51809D01*
X34006Y-52129D02*
X34006Y-51809D01*
X33929Y-51809D01*
X33884Y-51824D01*
X33853Y-51855D01*
X33838Y-51885D01*
X33823Y-51946D01*
X33823Y-51992D01*
X33838Y-52053D01*
X33853Y-52083D01*
X33884Y-52114D01*
X33929Y-52129D01*
X34006Y-52129D01*
X34310Y-52805D02*
X34463Y-52805D01*
X34478Y-52957D01*
X34463Y-52942D01*
X34432Y-52927D01*
X34356Y-52927D01*
X34326Y-52942D01*
X34310Y-52957D01*
X34295Y-52988D01*
X34295Y-53064D01*
X34310Y-53095D01*
X34326Y-53110D01*
X34356Y-53125D01*
X34432Y-53125D01*
X34463Y-53110D01*
X34478Y-53095D01*
X34204Y-52805D02*
X34097Y-53125D01*
X33990Y-52805D01*
X34493Y-53801D02*
X34295Y-53801D01*
X34402Y-53923D01*
X34356Y-53923D01*
X34326Y-53938D01*
X34310Y-53953D01*
X34295Y-53984D01*
X34295Y-54060D01*
X34310Y-54091D01*
X34326Y-54106D01*
X34356Y-54121D01*
X34448Y-54121D01*
X34478Y-54106D01*
X34493Y-54091D01*
X34204Y-53801D02*
X34097Y-54121D01*
X33990Y-53801D01*
X34653Y-55117D02*
X34653Y-54797D01*
X34531Y-54797D01*
X34501Y-54812D01*
X34486Y-54828D01*
X34470Y-54858D01*
X34470Y-54904D01*
X34486Y-54934D01*
X34501Y-54949D01*
X34531Y-54965D01*
X34653Y-54965D01*
X34333Y-55117D02*
X34333Y-54797D01*
X34333Y-54949D02*
X34150Y-54949D01*
X34150Y-55117D02*
X34150Y-54797D01*
X33937Y-54797D02*
X33907Y-54797D01*
X33876Y-54812D01*
X33861Y-54828D01*
X33846Y-54858D01*
X33830Y-54919D01*
X33830Y-54995D01*
X33846Y-55056D01*
X33861Y-55087D01*
X33876Y-55102D01*
X33907Y-55117D01*
X33937Y-55117D01*
X33968Y-55102D01*
X33983Y-55087D01*
X33998Y-55056D01*
X34013Y-54995D01*
X34013Y-54919D01*
X33998Y-54858D01*
X33983Y-54828D01*
X33968Y-54812D01*
X33937Y-54797D01*
X34798Y-56113D02*
X34798Y-55793D01*
X34676Y-55793D01*
X34646Y-55808D01*
X34630Y-55824D01*
X34615Y-55854D01*
X34615Y-55900D01*
X34630Y-55930D01*
X34646Y-55945D01*
X34676Y-55961D01*
X34798Y-55961D01*
X34295Y-56083D02*
X34310Y-56098D01*
X34356Y-56113D01*
X34387Y-56113D01*
X34432Y-56098D01*
X34463Y-56067D01*
X34478Y-56037D01*
X34493Y-55976D01*
X34493Y-55930D01*
X34478Y-55869D01*
X34463Y-55839D01*
X34432Y-55808D01*
X34387Y-55793D01*
X34356Y-55793D01*
X34310Y-55808D01*
X34295Y-55824D01*
X33990Y-56113D02*
X34173Y-56113D01*
X34082Y-56113D02*
X34082Y-55793D01*
X34112Y-55839D01*
X34143Y-55869D01*
X34173Y-55884D01*
X33716Y-55900D02*
X33716Y-56113D01*
X33792Y-55778D02*
X33869Y-56006D01*
X33670Y-56006D01*
X34630Y-57109D02*
X34630Y-56789D01*
X34509Y-56789D01*
X34478Y-56804D01*
X34463Y-56820D01*
X34448Y-56850D01*
X34448Y-56896D01*
X34463Y-56926D01*
X34478Y-56941D01*
X34509Y-56957D01*
X34630Y-56957D01*
X34310Y-56941D02*
X34204Y-56941D01*
X34158Y-57109D02*
X34310Y-57109D01*
X34310Y-56789D01*
X34158Y-56789D01*
X33884Y-56789D02*
X33945Y-56789D01*
X33975Y-56804D01*
X33990Y-56820D01*
X34021Y-56865D01*
X34036Y-56926D01*
X34036Y-57048D01*
X34021Y-57079D01*
X34006Y-57094D01*
X33975Y-57109D01*
X33914Y-57109D01*
X33884Y-57094D01*
X33869Y-57079D01*
X33853Y-57048D01*
X33853Y-56972D01*
X33869Y-56941D01*
X33884Y-56926D01*
X33914Y-56911D01*
X33975Y-56911D01*
X34006Y-56926D01*
X34021Y-56941D01*
X34036Y-56972D01*
X34630Y-58105D02*
X34630Y-57785D01*
X34509Y-57785D01*
X34478Y-57800D01*
X34463Y-57816D01*
X34448Y-57846D01*
X34448Y-57892D01*
X34463Y-57922D01*
X34478Y-57937D01*
X34509Y-57953D01*
X34630Y-57953D01*
X34310Y-57937D02*
X34204Y-57937D01*
X34158Y-58105D02*
X34310Y-58105D01*
X34310Y-57785D01*
X34158Y-57785D01*
X33884Y-57892D02*
X33884Y-58105D01*
X33960Y-57770D02*
X34036Y-57998D01*
X33838Y-57998D01*
X34630Y-59101D02*
X34630Y-58781D01*
X34509Y-58781D01*
X34478Y-58796D01*
X34463Y-58812D01*
X34448Y-58842D01*
X34448Y-58888D01*
X34463Y-58918D01*
X34478Y-58933D01*
X34509Y-58949D01*
X34630Y-58949D01*
X34310Y-58933D02*
X34204Y-58933D01*
X34158Y-59101D02*
X34310Y-59101D01*
X34310Y-58781D01*
X34158Y-58781D01*
X34036Y-58812D02*
X34021Y-58796D01*
X33990Y-58781D01*
X33914Y-58781D01*
X33884Y-58796D01*
X33869Y-58812D01*
X33853Y-58842D01*
X33853Y-58872D01*
X33869Y-58918D01*
X34051Y-59101D01*
X33853Y-59101D01*
X34630Y-60097D02*
X34630Y-59777D01*
X34509Y-59777D01*
X34478Y-59792D01*
X34463Y-59808D01*
X34448Y-59838D01*
X34448Y-59884D01*
X34463Y-59914D01*
X34478Y-59929D01*
X34509Y-59945D01*
X34630Y-59945D01*
X34310Y-59929D02*
X34204Y-59929D01*
X34158Y-60097D02*
X34310Y-60097D01*
X34310Y-59777D01*
X34158Y-59777D01*
X33960Y-59777D02*
X33930Y-59777D01*
X33899Y-59792D01*
X33884Y-59808D01*
X33869Y-59838D01*
X33853Y-59899D01*
X33853Y-59975D01*
X33869Y-60036D01*
X33884Y-60067D01*
X33899Y-60082D01*
X33930Y-60097D01*
X33960Y-60097D01*
X33990Y-60082D01*
X34006Y-60067D01*
X34021Y-60036D01*
X34036Y-59975D01*
X34036Y-59899D01*
X34021Y-59838D01*
X34006Y-59808D01*
X33990Y-59792D01*
X33960Y-59777D01*
X34646Y-61093D02*
X34646Y-60773D01*
X34524Y-60773D01*
X34493Y-60788D01*
X34478Y-60804D01*
X34463Y-60834D01*
X34463Y-60880D01*
X34478Y-60910D01*
X34493Y-60925D01*
X34524Y-60941D01*
X34646Y-60941D01*
X34219Y-60925D02*
X34173Y-60941D01*
X34158Y-60956D01*
X34143Y-60986D01*
X34143Y-61032D01*
X34158Y-61063D01*
X34173Y-61078D01*
X34204Y-61093D01*
X34326Y-61093D01*
X34326Y-60773D01*
X34219Y-60773D01*
X34189Y-60788D01*
X34173Y-60804D01*
X34158Y-60834D01*
X34158Y-60864D01*
X34173Y-60895D01*
X34189Y-60910D01*
X34219Y-60925D01*
X34326Y-60925D01*
X33960Y-60910D02*
X33990Y-60895D01*
X34006Y-60880D01*
X34021Y-60849D01*
X34021Y-60834D01*
X34006Y-60804D01*
X33990Y-60788D01*
X33960Y-60773D01*
X33899Y-60773D01*
X33869Y-60788D01*
X33853Y-60804D01*
X33838Y-60834D01*
X33838Y-60849D01*
X33853Y-60880D01*
X33869Y-60895D01*
X33899Y-60910D01*
X33960Y-60910D01*
X33990Y-60925D01*
X34006Y-60941D01*
X34021Y-60971D01*
X34021Y-61032D01*
X34006Y-61063D01*
X33990Y-61078D01*
X33960Y-61093D01*
X33899Y-61093D01*
X33869Y-61078D01*
X33853Y-61063D01*
X33838Y-61032D01*
X33838Y-60971D01*
X33853Y-60941D01*
X33869Y-60925D01*
X33899Y-60910D01*
X37500Y-51824D02*
X37530Y-51809D01*
X37576Y-51809D01*
X37621Y-51824D01*
X37652Y-51855D01*
X37667Y-51885D01*
X37682Y-51946D01*
X37682Y-51992D01*
X37667Y-52053D01*
X37652Y-52083D01*
X37621Y-52114D01*
X37576Y-52129D01*
X37545Y-52129D01*
X37500Y-52114D01*
X37484Y-52099D01*
X37484Y-51992D01*
X37545Y-51992D01*
X37347Y-52129D02*
X37347Y-51809D01*
X37164Y-52129D01*
X37164Y-51809D01*
X37012Y-52129D02*
X37012Y-51809D01*
X36936Y-51809D01*
X36890Y-51824D01*
X36860Y-51855D01*
X36844Y-51885D01*
X36829Y-51946D01*
X36829Y-51992D01*
X36844Y-52053D01*
X36860Y-52083D01*
X36890Y-52114D01*
X36936Y-52129D01*
X37012Y-52129D01*
X37560Y-52805D02*
X37713Y-52805D01*
X37728Y-52957D01*
X37713Y-52942D01*
X37682Y-52927D01*
X37606Y-52927D01*
X37576Y-52942D01*
X37560Y-52957D01*
X37545Y-52988D01*
X37545Y-53064D01*
X37560Y-53095D01*
X37576Y-53110D01*
X37606Y-53125D01*
X37682Y-53125D01*
X37713Y-53110D01*
X37728Y-53095D01*
X37454Y-52805D02*
X37347Y-53125D01*
X37240Y-52805D01*
X37743Y-53801D02*
X37545Y-53801D01*
X37652Y-53923D01*
X37606Y-53923D01*
X37576Y-53938D01*
X37560Y-53953D01*
X37545Y-53984D01*
X37545Y-54060D01*
X37560Y-54091D01*
X37576Y-54106D01*
X37606Y-54121D01*
X37698Y-54121D01*
X37728Y-54106D01*
X37743Y-54091D01*
X37454Y-53801D02*
X37347Y-54121D01*
X37240Y-53801D01*
X37903Y-55117D02*
X37903Y-54797D01*
X37781Y-54797D01*
X37751Y-54812D01*
X37736Y-54828D01*
X37720Y-54858D01*
X37720Y-54904D01*
X37736Y-54934D01*
X37751Y-54949D01*
X37781Y-54965D01*
X37903Y-54965D01*
X37583Y-55117D02*
X37583Y-54797D01*
X37583Y-54949D02*
X37400Y-54949D01*
X37400Y-55117D02*
X37400Y-54797D01*
X37080Y-55117D02*
X37263Y-55117D01*
X37172Y-55117D02*
X37172Y-54797D01*
X37202Y-54843D01*
X37233Y-54873D01*
X37263Y-54888D01*
X38048Y-56113D02*
X38048Y-55793D01*
X37926Y-55793D01*
X37896Y-55808D01*
X37880Y-55824D01*
X37865Y-55854D01*
X37865Y-55900D01*
X37880Y-55930D01*
X37896Y-55945D01*
X37926Y-55961D01*
X38048Y-55961D01*
X37545Y-56083D02*
X37560Y-56098D01*
X37606Y-56113D01*
X37637Y-56113D01*
X37682Y-56098D01*
X37713Y-56067D01*
X37728Y-56037D01*
X37743Y-55976D01*
X37743Y-55930D01*
X37728Y-55869D01*
X37713Y-55839D01*
X37682Y-55808D01*
X37637Y-55793D01*
X37606Y-55793D01*
X37560Y-55808D01*
X37545Y-55824D01*
X37240Y-56113D02*
X37423Y-56113D01*
X37332Y-56113D02*
X37332Y-55793D01*
X37362Y-55839D01*
X37393Y-55869D01*
X37423Y-55884D01*
X36951Y-55793D02*
X37103Y-55793D01*
X37119Y-55945D01*
X37103Y-55930D01*
X37073Y-55915D01*
X36997Y-55915D01*
X36966Y-55930D01*
X36951Y-55945D01*
X36936Y-55976D01*
X36936Y-56052D01*
X36951Y-56083D01*
X36966Y-56098D01*
X36997Y-56113D01*
X37073Y-56113D01*
X37103Y-56098D01*
X37119Y-56083D01*
X38033Y-57109D02*
X38033Y-56789D01*
X37911Y-56789D01*
X37880Y-56804D01*
X37865Y-56820D01*
X37850Y-56850D01*
X37850Y-56896D01*
X37865Y-56926D01*
X37880Y-56941D01*
X37911Y-56957D01*
X38033Y-56957D01*
X37713Y-56941D02*
X37606Y-56941D01*
X37560Y-57109D02*
X37713Y-57109D01*
X37713Y-56789D01*
X37560Y-56789D01*
X37256Y-57109D02*
X37439Y-57109D01*
X37347Y-57109D02*
X37347Y-56789D01*
X37378Y-56835D01*
X37408Y-56865D01*
X37439Y-56880D01*
X37149Y-56789D02*
X36951Y-56789D01*
X37058Y-56911D01*
X37012Y-56911D01*
X36981Y-56926D01*
X36966Y-56941D01*
X36951Y-56972D01*
X36951Y-57048D01*
X36966Y-57079D01*
X36981Y-57094D01*
X37012Y-57109D01*
X37103Y-57109D01*
X37134Y-57094D01*
X37149Y-57079D01*
X37880Y-58105D02*
X37880Y-57785D01*
X37759Y-57785D01*
X37728Y-57800D01*
X37713Y-57816D01*
X37698Y-57846D01*
X37698Y-57892D01*
X37713Y-57922D01*
X37728Y-57937D01*
X37759Y-57953D01*
X37880Y-57953D01*
X37560Y-57937D02*
X37454Y-57937D01*
X37408Y-58105D02*
X37560Y-58105D01*
X37560Y-57785D01*
X37408Y-57785D01*
X37119Y-57785D02*
X37271Y-57785D01*
X37286Y-57937D01*
X37271Y-57922D01*
X37240Y-57907D01*
X37164Y-57907D01*
X37134Y-57922D01*
X37119Y-57937D01*
X37103Y-57968D01*
X37103Y-58044D01*
X37119Y-58075D01*
X37134Y-58090D01*
X37164Y-58105D01*
X37240Y-58105D01*
X37271Y-58090D01*
X37286Y-58075D01*
X37880Y-59101D02*
X37880Y-58781D01*
X37759Y-58781D01*
X37728Y-58796D01*
X37713Y-58812D01*
X37698Y-58842D01*
X37698Y-58888D01*
X37713Y-58918D01*
X37728Y-58933D01*
X37759Y-58949D01*
X37880Y-58949D01*
X37560Y-58933D02*
X37454Y-58933D01*
X37408Y-59101D02*
X37560Y-59101D01*
X37560Y-58781D01*
X37408Y-58781D01*
X37301Y-58781D02*
X37103Y-58781D01*
X37210Y-58903D01*
X37164Y-58903D01*
X37134Y-58918D01*
X37119Y-58933D01*
X37103Y-58964D01*
X37103Y-59040D01*
X37119Y-59071D01*
X37134Y-59086D01*
X37164Y-59101D01*
X37256Y-59101D01*
X37286Y-59086D01*
X37301Y-59071D01*
X37515Y-60097D02*
X37515Y-59777D01*
X37393Y-59777D01*
X37362Y-59792D01*
X37347Y-59808D01*
X37332Y-59838D01*
X37332Y-59884D01*
X37347Y-59914D01*
X37362Y-59929D01*
X37393Y-59945D01*
X37515Y-59945D01*
X37195Y-59929D02*
X37088Y-59929D01*
X37042Y-60097D02*
X37195Y-60097D01*
X37195Y-59777D01*
X37042Y-59777D01*
X36738Y-60097D02*
X36920Y-60097D01*
X36829Y-60097D02*
X36829Y-59777D01*
X36860Y-59823D01*
X36890Y-59853D01*
X36920Y-59868D01*
X38261Y-61093D02*
X38261Y-60773D01*
X38139Y-60773D01*
X38109Y-60788D01*
X38094Y-60804D01*
X38079Y-60834D01*
X38079Y-60880D01*
X38094Y-60910D01*
X38109Y-60925D01*
X38139Y-60941D01*
X38261Y-60941D01*
X37835Y-60925D02*
X37789Y-60941D01*
X37774Y-60956D01*
X37759Y-60986D01*
X37759Y-61032D01*
X37774Y-61063D01*
X37789Y-61078D01*
X37819Y-61093D01*
X37941Y-61093D01*
X37941Y-60773D01*
X37835Y-60773D01*
X37804Y-60788D01*
X37789Y-60804D01*
X37774Y-60834D01*
X37774Y-60864D01*
X37789Y-60895D01*
X37804Y-60910D01*
X37835Y-60925D01*
X37941Y-60925D01*
X37606Y-61093D02*
X37545Y-61093D01*
X37515Y-61078D01*
X37499Y-61063D01*
X37469Y-61017D01*
X37454Y-60956D01*
X37454Y-60834D01*
X37469Y-60804D01*
X37484Y-60788D01*
X37515Y-60773D01*
X37576Y-60773D01*
X37606Y-60788D01*
X37621Y-60804D01*
X37637Y-60834D01*
X37637Y-60910D01*
X37621Y-60941D01*
X37606Y-60956D01*
X37576Y-60971D01*
X37515Y-60971D01*
X37484Y-60956D01*
X37469Y-60941D01*
X37454Y-60910D01*
G54D12*
X43083Y-52202D02*
X43083Y-51702D01*
X42964Y-51702D01*
X42892Y-51726D01*
X42845Y-51773D01*
X42821Y-51821D01*
X42797Y-51916D01*
X42797Y-51988D01*
X42821Y-52083D01*
X42845Y-52130D01*
X42892Y-52178D01*
X42964Y-52202D01*
X43083Y-52202D01*
X42607Y-52059D02*
X42369Y-52059D01*
X42654Y-52202D02*
X42488Y-51702D01*
X42321Y-52202D01*
X42154Y-51940D02*
X41988Y-51940D01*
X41916Y-52202D02*
X42154Y-52202D01*
X42154Y-51702D01*
X41916Y-51702D01*
X41416Y-52154D02*
X41440Y-52178D01*
X41511Y-52202D01*
X41559Y-52202D01*
X41630Y-52178D01*
X41678Y-52130D01*
X41702Y-52083D01*
X41726Y-51988D01*
X41726Y-51916D01*
X41702Y-51821D01*
X41678Y-51773D01*
X41630Y-51726D01*
X41559Y-51702D01*
X41511Y-51702D01*
X41440Y-51726D01*
X41416Y-51750D01*
X41202Y-51702D02*
X41202Y-52107D01*
X41178Y-52154D01*
X41154Y-52178D01*
X41107Y-52202D01*
X41011Y-52202D01*
X40964Y-52178D01*
X40940Y-52154D01*
X40916Y-52107D01*
X40916Y-51702D01*
X39111Y-49619D02*
X38711Y-49619D01*
X39111Y-49790D02*
X38902Y-49790D01*
X38864Y-49771D01*
X38845Y-49733D01*
X38845Y-49676D01*
X38864Y-49638D01*
X38883Y-49619D01*
X38845Y-49923D02*
X38845Y-50076D01*
X38711Y-49980D02*
X39054Y-49980D01*
X39092Y-50000D01*
X39111Y-50038D01*
X39111Y-50076D01*
X38845Y-50152D02*
X38845Y-50304D01*
X38711Y-50209D02*
X39054Y-50209D01*
X39092Y-50228D01*
X39111Y-50266D01*
X39111Y-50304D01*
X38845Y-50438D02*
X39245Y-50438D01*
X38864Y-50438D02*
X38845Y-50476D01*
X38845Y-50552D01*
X38864Y-50590D01*
X38883Y-50609D01*
X38921Y-50628D01*
X39035Y-50628D01*
X39073Y-50609D01*
X39092Y-50590D01*
X39111Y-50552D01*
X39111Y-50476D01*
X39092Y-50438D01*
X39092Y-50780D02*
X39111Y-50819D01*
X39111Y-50895D01*
X39092Y-50933D01*
X39054Y-50952D01*
X39035Y-50952D01*
X38997Y-50933D01*
X38978Y-50895D01*
X38978Y-50838D01*
X38959Y-50800D01*
X38921Y-50780D01*
X38902Y-50780D01*
X38864Y-50800D01*
X38845Y-50838D01*
X38845Y-50895D01*
X38864Y-50933D01*
X39073Y-51123D02*
X39092Y-51142D01*
X39111Y-51123D01*
X39092Y-51104D01*
X39073Y-51123D01*
X39111Y-51123D01*
X38864Y-51123D02*
X38883Y-51142D01*
X38902Y-51123D01*
X38883Y-51104D01*
X38864Y-51123D01*
X38902Y-51123D01*
X38692Y-51600D02*
X39207Y-51257D01*
X38692Y-52019D02*
X39207Y-51676D01*
X39092Y-52323D02*
X39111Y-52285D01*
X39111Y-52209D01*
X39092Y-52171D01*
X39073Y-52152D01*
X39035Y-52133D01*
X38921Y-52133D01*
X38883Y-52152D01*
X38864Y-52171D01*
X38845Y-52209D01*
X38845Y-52285D01*
X38864Y-52323D01*
X39111Y-52552D02*
X39092Y-52514D01*
X39073Y-52495D01*
X39035Y-52476D01*
X38921Y-52476D01*
X38883Y-52495D01*
X38864Y-52514D01*
X38845Y-52552D01*
X38845Y-52609D01*
X38864Y-52647D01*
X38883Y-52666D01*
X38921Y-52685D01*
X39035Y-52685D01*
X39073Y-52666D01*
X39092Y-52647D01*
X39111Y-52609D01*
X39111Y-52552D01*
X39111Y-53028D02*
X38711Y-53028D01*
X39092Y-53028D02*
X39111Y-52990D01*
X39111Y-52914D01*
X39092Y-52876D01*
X39073Y-52857D01*
X39035Y-52838D01*
X38921Y-52838D01*
X38883Y-52857D01*
X38864Y-52876D01*
X38845Y-52914D01*
X38845Y-52990D01*
X38864Y-53028D01*
X39092Y-53371D02*
X39111Y-53333D01*
X39111Y-53257D01*
X39092Y-53219D01*
X39054Y-53200D01*
X38902Y-53200D01*
X38864Y-53219D01*
X38845Y-53257D01*
X38845Y-53333D01*
X38864Y-53371D01*
X38902Y-53390D01*
X38940Y-53390D01*
X38978Y-53200D01*
X39073Y-53561D02*
X39092Y-53580D01*
X39111Y-53561D01*
X39092Y-53542D01*
X39073Y-53561D01*
X39111Y-53561D01*
X38845Y-53923D02*
X39169Y-53923D01*
X39207Y-53904D01*
X39226Y-53885D01*
X39245Y-53847D01*
X39245Y-53790D01*
X39226Y-53752D01*
X39092Y-53923D02*
X39111Y-53885D01*
X39111Y-53809D01*
X39092Y-53771D01*
X39073Y-53752D01*
X39035Y-53733D01*
X38921Y-53733D01*
X38883Y-53752D01*
X38864Y-53771D01*
X38845Y-53809D01*
X38845Y-53885D01*
X38864Y-53923D01*
X39111Y-54171D02*
X39092Y-54133D01*
X39073Y-54114D01*
X39035Y-54095D01*
X38921Y-54095D01*
X38883Y-54114D01*
X38864Y-54133D01*
X38845Y-54171D01*
X38845Y-54228D01*
X38864Y-54266D01*
X38883Y-54285D01*
X38921Y-54304D01*
X39035Y-54304D01*
X39073Y-54285D01*
X39092Y-54266D01*
X39111Y-54228D01*
X39111Y-54171D01*
X39111Y-54533D02*
X39092Y-54495D01*
X39073Y-54476D01*
X39035Y-54457D01*
X38921Y-54457D01*
X38883Y-54476D01*
X38864Y-54495D01*
X38845Y-54533D01*
X38845Y-54590D01*
X38864Y-54628D01*
X38883Y-54647D01*
X38921Y-54666D01*
X39035Y-54666D01*
X39073Y-54647D01*
X39092Y-54628D01*
X39111Y-54590D01*
X39111Y-54533D01*
X38845Y-55009D02*
X39169Y-55009D01*
X39207Y-54990D01*
X39226Y-54971D01*
X39245Y-54933D01*
X39245Y-54876D01*
X39226Y-54838D01*
X39092Y-55009D02*
X39111Y-54971D01*
X39111Y-54895D01*
X39092Y-54857D01*
X39073Y-54838D01*
X39035Y-54819D01*
X38921Y-54819D01*
X38883Y-54838D01*
X38864Y-54857D01*
X38845Y-54895D01*
X38845Y-54971D01*
X38864Y-55009D01*
X39111Y-55257D02*
X39092Y-55219D01*
X39054Y-55200D01*
X38711Y-55200D01*
X39092Y-55561D02*
X39111Y-55523D01*
X39111Y-55447D01*
X39092Y-55409D01*
X39054Y-55390D01*
X38902Y-55390D01*
X38864Y-55409D01*
X38845Y-55447D01*
X38845Y-55523D01*
X38864Y-55561D01*
X38902Y-55580D01*
X38940Y-55580D01*
X38978Y-55390D01*
X39073Y-55752D02*
X39092Y-55771D01*
X39111Y-55752D01*
X39092Y-55733D01*
X39073Y-55752D01*
X39111Y-55752D01*
X39092Y-56114D02*
X39111Y-56076D01*
X39111Y-56000D01*
X39092Y-55961D01*
X39073Y-55942D01*
X39035Y-55923D01*
X38921Y-55923D01*
X38883Y-55942D01*
X38864Y-55961D01*
X38845Y-56000D01*
X38845Y-56076D01*
X38864Y-56114D01*
X39111Y-56342D02*
X39092Y-56304D01*
X39073Y-56285D01*
X39035Y-56266D01*
X38921Y-56266D01*
X38883Y-56285D01*
X38864Y-56304D01*
X38845Y-56342D01*
X38845Y-56399D01*
X38864Y-56438D01*
X38883Y-56457D01*
X38921Y-56476D01*
X39035Y-56476D01*
X39073Y-56457D01*
X39092Y-56438D01*
X39111Y-56399D01*
X39111Y-56342D01*
X39111Y-56647D02*
X38845Y-56647D01*
X38883Y-56647D02*
X38864Y-56666D01*
X38845Y-56704D01*
X38845Y-56761D01*
X38864Y-56799D01*
X38902Y-56819D01*
X39111Y-56819D01*
X38902Y-56819D02*
X38864Y-56838D01*
X38845Y-56876D01*
X38845Y-56933D01*
X38864Y-56971D01*
X38902Y-56990D01*
X39111Y-56990D01*
X38692Y-57466D02*
X39207Y-57123D01*
X38845Y-57600D02*
X39245Y-57600D01*
X38864Y-57600D02*
X38845Y-57638D01*
X38845Y-57714D01*
X38864Y-57752D01*
X38883Y-57771D01*
X38921Y-57790D01*
X39035Y-57790D01*
X39073Y-57771D01*
X39092Y-57752D01*
X39111Y-57714D01*
X39111Y-57638D01*
X39092Y-57600D01*
X38692Y-58247D02*
X39207Y-57904D01*
X39111Y-58552D02*
X38711Y-58552D01*
X39092Y-58552D02*
X39111Y-58514D01*
X39111Y-58438D01*
X39092Y-58400D01*
X39073Y-58380D01*
X39035Y-58361D01*
X38921Y-58361D01*
X38883Y-58380D01*
X38864Y-58400D01*
X38845Y-58438D01*
X38845Y-58514D01*
X38864Y-58552D01*
X39111Y-58914D02*
X38902Y-58914D01*
X38864Y-58895D01*
X38845Y-58857D01*
X38845Y-58780D01*
X38864Y-58742D01*
X39092Y-58914D02*
X39111Y-58876D01*
X39111Y-58780D01*
X39092Y-58742D01*
X39054Y-58723D01*
X39016Y-58723D01*
X38978Y-58742D01*
X38959Y-58780D01*
X38959Y-58876D01*
X38940Y-58914D01*
X39092Y-59257D02*
X39111Y-59219D01*
X39111Y-59142D01*
X39092Y-59104D01*
X39054Y-59085D01*
X38902Y-59085D01*
X38864Y-59104D01*
X38845Y-59142D01*
X38845Y-59219D01*
X38864Y-59257D01*
X38902Y-59276D01*
X38940Y-59276D01*
X38978Y-59085D01*
X39092Y-59619D02*
X39111Y-59580D01*
X39111Y-59504D01*
X39092Y-59466D01*
X39073Y-59447D01*
X39035Y-59428D01*
X38921Y-59428D01*
X38883Y-59447D01*
X38864Y-59466D01*
X38845Y-59504D01*
X38845Y-59580D01*
X38864Y-59619D01*
X38845Y-59961D02*
X39111Y-59961D01*
X38845Y-59790D02*
X39054Y-59790D01*
X39092Y-59809D01*
X39111Y-59847D01*
X39111Y-59904D01*
X39092Y-59942D01*
X39073Y-59961D01*
X38692Y-60438D02*
X39207Y-60095D01*
X39505Y-51523D02*
X39505Y-51676D01*
X39771Y-51580D02*
X39429Y-51580D01*
X39390Y-51600D01*
X39371Y-51638D01*
X39371Y-51676D01*
X39771Y-51866D02*
X39752Y-51828D01*
X39733Y-51809D01*
X39695Y-51790D01*
X39581Y-51790D01*
X39543Y-51809D01*
X39524Y-51828D01*
X39505Y-51866D01*
X39505Y-51923D01*
X39524Y-51961D01*
X39543Y-51980D01*
X39581Y-52000D01*
X39695Y-52000D01*
X39733Y-51980D01*
X39752Y-51961D01*
X39771Y-51923D01*
X39771Y-51866D01*
X39771Y-52171D02*
X39505Y-52171D01*
X39581Y-52171D02*
X39543Y-52190D01*
X39524Y-52209D01*
X39505Y-52247D01*
X39505Y-52285D01*
X39771Y-52723D02*
X39505Y-52723D01*
X39581Y-52723D02*
X39543Y-52742D01*
X39524Y-52761D01*
X39505Y-52800D01*
X39505Y-52838D01*
X39505Y-53142D02*
X39771Y-53142D01*
X39505Y-52971D02*
X39714Y-52971D01*
X39752Y-52990D01*
X39771Y-53028D01*
X39771Y-53085D01*
X39752Y-53123D01*
X39733Y-53142D01*
X39752Y-53314D02*
X39771Y-53352D01*
X39771Y-53428D01*
X39752Y-53466D01*
X39714Y-53485D01*
X39695Y-53485D01*
X39657Y-53466D01*
X39638Y-53428D01*
X39638Y-53371D01*
X39619Y-53333D01*
X39581Y-53314D01*
X39562Y-53314D01*
X39524Y-53333D01*
X39505Y-53371D01*
X39505Y-53428D01*
X39524Y-53466D01*
X39752Y-53809D02*
X39771Y-53771D01*
X39771Y-53695D01*
X39752Y-53657D01*
X39714Y-53638D01*
X39562Y-53638D01*
X39524Y-53657D01*
X39505Y-53695D01*
X39505Y-53771D01*
X39524Y-53809D01*
X39562Y-53828D01*
X39600Y-53828D01*
X39638Y-53638D01*
X39505Y-53942D02*
X39505Y-54095D01*
X39771Y-54000D02*
X39429Y-54000D01*
X39390Y-54019D01*
X39371Y-54057D01*
X39371Y-54095D01*
X39771Y-54228D02*
X39505Y-54228D01*
X39371Y-54228D02*
X39390Y-54209D01*
X39410Y-54228D01*
X39390Y-54247D01*
X39371Y-54228D01*
X39410Y-54228D01*
X39733Y-54419D02*
X39752Y-54438D01*
X39771Y-54419D01*
X39752Y-54400D01*
X39733Y-54419D01*
X39771Y-54419D01*
X39752Y-54780D02*
X39771Y-54742D01*
X39771Y-54666D01*
X39752Y-54628D01*
X39733Y-54609D01*
X39695Y-54590D01*
X39581Y-54590D01*
X39543Y-54609D01*
X39524Y-54628D01*
X39505Y-54666D01*
X39505Y-54742D01*
X39524Y-54780D01*
X39771Y-55009D02*
X39752Y-54971D01*
X39733Y-54952D01*
X39695Y-54933D01*
X39581Y-54933D01*
X39543Y-54952D01*
X39524Y-54971D01*
X39505Y-55009D01*
X39505Y-55066D01*
X39524Y-55104D01*
X39543Y-55123D01*
X39581Y-55142D01*
X39695Y-55142D01*
X39733Y-55123D01*
X39752Y-55104D01*
X39771Y-55066D01*
X39771Y-55009D01*
X39771Y-55314D02*
X39505Y-55314D01*
X39543Y-55314D02*
X39524Y-55333D01*
X39505Y-55371D01*
X39505Y-55428D01*
X39524Y-55466D01*
X39562Y-55485D01*
X39771Y-55485D01*
X39562Y-55485D02*
X39524Y-55504D01*
X39505Y-55542D01*
X39505Y-55600D01*
X39524Y-55638D01*
X39562Y-55657D01*
X39771Y-55657D01*
X39771Y-56457D02*
X39505Y-56457D01*
X39581Y-56457D02*
X39543Y-56476D01*
X39524Y-56495D01*
X39505Y-56533D01*
X39505Y-56571D01*
X39752Y-56857D02*
X39771Y-56819D01*
X39771Y-56742D01*
X39752Y-56704D01*
X39714Y-56685D01*
X39562Y-56685D01*
X39524Y-56704D01*
X39505Y-56742D01*
X39505Y-56819D01*
X39524Y-56857D01*
X39562Y-56876D01*
X39600Y-56876D01*
X39638Y-56685D01*
X39505Y-57009D02*
X39771Y-57104D01*
X39505Y-57199D01*
X39371Y-57733D02*
X39371Y-57771D01*
X39390Y-57809D01*
X39410Y-57828D01*
X39448Y-57847D01*
X39524Y-57866D01*
X39619Y-57866D01*
X39695Y-57847D01*
X39733Y-57828D01*
X39752Y-57809D01*
X39771Y-57771D01*
X39771Y-57733D01*
X39752Y-57695D01*
X39733Y-57676D01*
X39695Y-57657D01*
X39619Y-57638D01*
X39524Y-57638D01*
X39448Y-57657D01*
X39410Y-57676D01*
X39390Y-57695D01*
X39371Y-57733D01*
X39733Y-58038D02*
X39752Y-58057D01*
X39771Y-58038D01*
X39752Y-58019D01*
X39733Y-58038D01*
X39771Y-58038D01*
X39410Y-58209D02*
X39390Y-58228D01*
X39371Y-58266D01*
X39371Y-58361D01*
X39390Y-58399D01*
X39410Y-58419D01*
X39448Y-58438D01*
X39486Y-58438D01*
X39543Y-58419D01*
X39771Y-58190D01*
X39771Y-58438D01*
G54D13*
X47509Y-53088D02*
X47509Y-53488D01*
X47700Y-53088D02*
X47700Y-53488D01*
X47928Y-53088D01*
X47928Y-53488D01*
X48233Y-53488D02*
X48233Y-53202D01*
X48214Y-53145D01*
X48176Y-53107D01*
X48119Y-53088D01*
X48080Y-53088D01*
X48423Y-53240D02*
X48728Y-53240D01*
X48995Y-53488D02*
X49033Y-53488D01*
X49071Y-53469D01*
X49090Y-53450D01*
X49109Y-53411D01*
X49128Y-53335D01*
X49128Y-53240D01*
X49109Y-53164D01*
X49090Y-53126D01*
X49071Y-53107D01*
X49033Y-53088D01*
X48995Y-53088D01*
X48957Y-53107D01*
X48938Y-53126D01*
X48919Y-53164D01*
X48900Y-53240D01*
X48900Y-53335D01*
X48919Y-53411D01*
X48938Y-53450D01*
X48957Y-53469D01*
X48995Y-53488D01*
X49471Y-53354D02*
X49471Y-53088D01*
X49376Y-53507D02*
X49280Y-53221D01*
X49528Y-53221D01*
X47509Y-51088D02*
X47509Y-51488D01*
X47700Y-51088D02*
X47700Y-51488D01*
X47928Y-51088D01*
X47928Y-51488D01*
X48233Y-51488D02*
X48233Y-51202D01*
X48214Y-51145D01*
X48176Y-51107D01*
X48119Y-51088D01*
X48080Y-51088D01*
X48423Y-51240D02*
X48728Y-51240D01*
X48995Y-51488D02*
X49033Y-51488D01*
X49071Y-51469D01*
X49090Y-51450D01*
X49109Y-51411D01*
X49128Y-51335D01*
X49128Y-51240D01*
X49109Y-51164D01*
X49090Y-51126D01*
X49071Y-51107D01*
X49033Y-51088D01*
X48995Y-51088D01*
X48957Y-51107D01*
X48938Y-51126D01*
X48919Y-51164D01*
X48900Y-51240D01*
X48900Y-51335D01*
X48919Y-51411D01*
X48938Y-51450D01*
X48957Y-51469D01*
X48995Y-51488D01*
X49490Y-51488D02*
X49300Y-51488D01*
X49280Y-51297D01*
X49300Y-51316D01*
X49338Y-51335D01*
X49433Y-51335D01*
X49471Y-51316D01*
X49490Y-51297D01*
X49509Y-51259D01*
X49509Y-51164D01*
X49490Y-51126D01*
X49471Y-51107D01*
X49433Y-51088D01*
X49338Y-51088D01*
X49300Y-51107D01*
X49280Y-51126D01*
X47509Y-49088D02*
X47509Y-49488D01*
X47700Y-49088D02*
X47700Y-49488D01*
X47928Y-49088D01*
X47928Y-49488D01*
X48233Y-49488D02*
X48233Y-49202D01*
X48214Y-49145D01*
X48176Y-49107D01*
X48119Y-49088D01*
X48080Y-49088D01*
X48423Y-49240D02*
X48728Y-49240D01*
X48995Y-49488D02*
X49033Y-49488D01*
X49071Y-49469D01*
X49090Y-49450D01*
X49109Y-49411D01*
X49128Y-49335D01*
X49128Y-49240D01*
X49109Y-49164D01*
X49090Y-49126D01*
X49071Y-49107D01*
X49033Y-49088D01*
X48995Y-49088D01*
X48957Y-49107D01*
X48938Y-49126D01*
X48919Y-49164D01*
X48900Y-49240D01*
X48900Y-49335D01*
X48919Y-49411D01*
X48938Y-49450D01*
X48957Y-49469D01*
X48995Y-49488D01*
X49471Y-49488D02*
X49395Y-49488D01*
X49357Y-49469D01*
X49338Y-49450D01*
X49300Y-49392D01*
X49280Y-49316D01*
X49280Y-49164D01*
X49300Y-49126D01*
X49319Y-49107D01*
X49357Y-49088D01*
X49433Y-49088D01*
X49471Y-49107D01*
X49490Y-49126D01*
X49509Y-49164D01*
X49509Y-49259D01*
X49490Y-49297D01*
X49471Y-49316D01*
X49433Y-49335D01*
X49357Y-49335D01*
X49319Y-49316D01*
X49300Y-49297D01*
X49280Y-49259D01*
X47509Y-57088D02*
X47509Y-57488D01*
X47700Y-57088D02*
X47700Y-57488D01*
X47928Y-57088D01*
X47928Y-57488D01*
X48233Y-57488D02*
X48233Y-57202D01*
X48214Y-57145D01*
X48176Y-57107D01*
X48119Y-57088D01*
X48080Y-57088D01*
X48423Y-57240D02*
X48728Y-57240D01*
X48995Y-57488D02*
X49033Y-57488D01*
X49071Y-57469D01*
X49090Y-57450D01*
X49109Y-57411D01*
X49128Y-57335D01*
X49128Y-57240D01*
X49109Y-57164D01*
X49090Y-57126D01*
X49071Y-57107D01*
X49033Y-57088D01*
X48995Y-57088D01*
X48957Y-57107D01*
X48938Y-57126D01*
X48919Y-57164D01*
X48900Y-57240D01*
X48900Y-57335D01*
X48919Y-57411D01*
X48938Y-57450D01*
X48957Y-57469D01*
X48995Y-57488D01*
X49261Y-57488D02*
X49509Y-57488D01*
X49376Y-57335D01*
X49433Y-57335D01*
X49471Y-57316D01*
X49490Y-57297D01*
X49509Y-57259D01*
X49509Y-57164D01*
X49490Y-57126D01*
X49471Y-57107D01*
X49433Y-57088D01*
X49319Y-57088D01*
X49280Y-57107D01*
X49261Y-57126D01*
X47950Y-55088D02*
X47950Y-55354D01*
X47950Y-55488D02*
X47930Y-55469D01*
X47950Y-55450D01*
X47969Y-55469D01*
X47950Y-55488D01*
X47950Y-55450D01*
X48350Y-55469D02*
X48311Y-55488D01*
X48254Y-55488D01*
X48197Y-55469D01*
X48159Y-55430D01*
X48140Y-55392D01*
X48121Y-55316D01*
X48121Y-55259D01*
X48140Y-55183D01*
X48159Y-55145D01*
X48197Y-55107D01*
X48254Y-55088D01*
X48292Y-55088D01*
X48350Y-55107D01*
X48369Y-55126D01*
X48369Y-55259D01*
X48292Y-55259D01*
X48540Y-55088D02*
X48540Y-55488D01*
X48769Y-55088D01*
X48769Y-55488D01*
X48959Y-55088D02*
X48959Y-55488D01*
X49054Y-55488D01*
X49111Y-55469D01*
X49150Y-55430D01*
X49169Y-55392D01*
X49188Y-55316D01*
X49188Y-55259D01*
X49169Y-55183D01*
X49150Y-55145D01*
X49111Y-55107D01*
X49054Y-55088D01*
X48959Y-55088D01*
X49569Y-55088D02*
X49340Y-55088D01*
X49454Y-55088D02*
X49454Y-55488D01*
X49416Y-55430D01*
X49378Y-55392D01*
X49340Y-55373D01*
X47509Y-59088D02*
X47509Y-59488D01*
X47700Y-59088D02*
X47700Y-59488D01*
X47928Y-59088D01*
X47928Y-59488D01*
X48233Y-59488D02*
X48233Y-59202D01*
X48214Y-59145D01*
X48176Y-59107D01*
X48119Y-59088D01*
X48080Y-59088D01*
X48423Y-59240D02*
X48728Y-59240D01*
X48995Y-59488D02*
X49033Y-59488D01*
X49071Y-59469D01*
X49090Y-59450D01*
X49109Y-59411D01*
X49128Y-59335D01*
X49128Y-59240D01*
X49109Y-59164D01*
X49090Y-59126D01*
X49071Y-59107D01*
X49033Y-59088D01*
X48995Y-59088D01*
X48957Y-59107D01*
X48938Y-59126D01*
X48919Y-59164D01*
X48900Y-59240D01*
X48900Y-59335D01*
X48919Y-59411D01*
X48938Y-59450D01*
X48957Y-59469D01*
X48995Y-59488D01*
X49280Y-59450D02*
X49300Y-59469D01*
X49338Y-59488D01*
X49433Y-59488D01*
X49471Y-59469D01*
X49490Y-59450D01*
X49509Y-59411D01*
X49509Y-59373D01*
X49490Y-59316D01*
X49261Y-59088D01*
X49509Y-59088D01*
X46259Y-60088D02*
X46259Y-60488D01*
X46450Y-60088D02*
X46450Y-60488D01*
X46678Y-60088D01*
X46678Y-60488D01*
X46983Y-60488D02*
X46983Y-60202D01*
X46964Y-60145D01*
X46926Y-60107D01*
X46869Y-60088D01*
X46830Y-60088D01*
X47173Y-60240D02*
X47478Y-60240D01*
X47745Y-60488D02*
X47783Y-60488D01*
X47821Y-60469D01*
X47840Y-60450D01*
X47859Y-60411D01*
X47878Y-60335D01*
X47878Y-60240D01*
X47859Y-60164D01*
X47840Y-60126D01*
X47821Y-60107D01*
X47783Y-60088D01*
X47745Y-60088D01*
X47707Y-60107D01*
X47688Y-60126D01*
X47669Y-60164D01*
X47650Y-60240D01*
X47650Y-60335D01*
X47669Y-60411D01*
X47688Y-60450D01*
X47707Y-60469D01*
X47745Y-60488D01*
X48259Y-60088D02*
X48030Y-60088D01*
X48145Y-60088D02*
X48145Y-60488D01*
X48107Y-60430D01*
X48069Y-60392D01*
X48030Y-60373D01*
G54D14*
X45550Y-50500D02*
X46550Y-50500D01*
X46550Y-50500D02*
X46550Y-48500D01*
X46550Y-48500D02*
X45550Y-48500D01*
X45550Y-48500D02*
X45550Y-50500D01*
X45700Y-52500D02*
X46700Y-52500D01*
X46700Y-52500D02*
X46700Y-50500D01*
X46700Y-50500D02*
X45700Y-50500D01*
X45700Y-50500D02*
X45700Y-52500D01*
X45300Y-54500D02*
X46300Y-54500D01*
X46300Y-54500D02*
X46300Y-52500D01*
X46300Y-52500D02*
X45300Y-52500D01*
X45300Y-52500D02*
X45300Y-54500D01*
X46300Y-54500D02*
X45300Y-54500D01*
X45300Y-54500D02*
X45300Y-56500D01*
X45300Y-56500D02*
X46300Y-56500D01*
X46300Y-56500D02*
X46300Y-54500D01*
X46300Y-56500D02*
X45300Y-56500D01*
X45300Y-56500D02*
X45300Y-58500D01*
X45300Y-58500D02*
X46300Y-58500D01*
X46300Y-58500D02*
X46300Y-56500D01*
X46950Y-58500D02*
X45950Y-58500D01*
X45950Y-58500D02*
X45950Y-60500D01*
X45950Y-60500D02*
X46950Y-60500D01*
X46950Y-60500D02*
X46950Y-58500D01*
X41500Y-48500D02*
X41500Y-47500D01*
X41500Y-47500D02*
X39500Y-47500D01*
X39500Y-47500D02*
X39500Y-48500D01*
X39500Y-48500D02*
X41500Y-48500D01*
X45750Y-48500D02*
X44750Y-48500D01*
X44750Y-48500D02*
X44750Y-50500D01*
X44750Y-50500D02*
X45750Y-50500D01*
X45750Y-50500D02*
X45750Y-48500D01*
G54D11*
X46921Y-49278D02*
X46621Y-49278D01*
X46621Y-49350D01*
X46635Y-49392D01*
X46664Y-49421D01*
X46692Y-49435D01*
X46750Y-49450D01*
X46792Y-49450D01*
X46850Y-49435D01*
X46878Y-49421D01*
X46907Y-49392D01*
X46921Y-49350D01*
X46921Y-49278D01*
X46621Y-49550D02*
X46621Y-49735D01*
X46735Y-49635D01*
X46735Y-49678D01*
X46750Y-49707D01*
X46764Y-49721D01*
X46792Y-49735D01*
X46864Y-49735D01*
X46892Y-49721D01*
X46907Y-49707D01*
X46921Y-49678D01*
X46921Y-49592D01*
X46907Y-49564D01*
X46892Y-49550D01*
X47071Y-51278D02*
X46771Y-51278D01*
X46771Y-51350D01*
X46785Y-51392D01*
X46814Y-51421D01*
X46842Y-51435D01*
X46900Y-51450D01*
X46942Y-51450D01*
X47000Y-51435D01*
X47028Y-51421D01*
X47057Y-51392D01*
X47071Y-51350D01*
X47071Y-51278D01*
X46771Y-51707D02*
X46771Y-51650D01*
X46785Y-51621D01*
X46800Y-51607D01*
X46842Y-51578D01*
X46900Y-51564D01*
X47014Y-51564D01*
X47042Y-51578D01*
X47057Y-51592D01*
X47071Y-51621D01*
X47071Y-51678D01*
X47057Y-51707D01*
X47042Y-51721D01*
X47014Y-51735D01*
X46942Y-51735D01*
X46914Y-51721D01*
X46900Y-51707D01*
X46885Y-51678D01*
X46885Y-51621D01*
X46900Y-51592D01*
X46914Y-51578D01*
X46942Y-51564D01*
X46771Y-53178D02*
X46471Y-53178D01*
X46471Y-53250D01*
X46485Y-53292D01*
X46514Y-53321D01*
X46542Y-53335D01*
X46600Y-53350D01*
X46642Y-53350D01*
X46700Y-53335D01*
X46728Y-53321D01*
X46757Y-53292D01*
X46771Y-53250D01*
X46771Y-53178D01*
X46571Y-53607D02*
X46771Y-53607D01*
X46457Y-53535D02*
X46671Y-53464D01*
X46671Y-53650D01*
X46771Y-55528D02*
X46471Y-55528D01*
X46471Y-55600D01*
X46485Y-55642D01*
X46514Y-55671D01*
X46542Y-55685D01*
X46600Y-55700D01*
X46642Y-55700D01*
X46700Y-55685D01*
X46728Y-55671D01*
X46757Y-55642D01*
X46771Y-55600D01*
X46771Y-55528D01*
X46471Y-55800D02*
X46471Y-56000D01*
X46771Y-55871D01*
X46671Y-57278D02*
X46371Y-57278D01*
X46371Y-57350D01*
X46385Y-57392D01*
X46414Y-57421D01*
X46442Y-57435D01*
X46500Y-57450D01*
X46542Y-57450D01*
X46600Y-57435D01*
X46628Y-57421D01*
X46657Y-57392D01*
X46671Y-57350D01*
X46671Y-57278D01*
X46371Y-57721D02*
X46371Y-57578D01*
X46514Y-57564D01*
X46500Y-57578D01*
X46485Y-57607D01*
X46485Y-57678D01*
X46500Y-57707D01*
X46514Y-57721D01*
X46542Y-57735D01*
X46614Y-57735D01*
X46642Y-57721D01*
X46657Y-57707D01*
X46671Y-57678D01*
X46671Y-57607D01*
X46657Y-57578D01*
X46642Y-57564D01*
X47321Y-59278D02*
X47021Y-59278D01*
X47021Y-59350D01*
X47035Y-59392D01*
X47064Y-59421D01*
X47092Y-59435D01*
X47150Y-59450D01*
X47192Y-59450D01*
X47250Y-59435D01*
X47278Y-59421D01*
X47307Y-59392D01*
X47321Y-59350D01*
X47321Y-59278D01*
X47150Y-59621D02*
X47135Y-59592D01*
X47121Y-59578D01*
X47092Y-59564D01*
X47078Y-59564D01*
X47050Y-59578D01*
X47035Y-59592D01*
X47021Y-59621D01*
X47021Y-59678D01*
X47035Y-59707D01*
X47050Y-59721D01*
X47078Y-59735D01*
X47092Y-59735D01*
X47121Y-59721D01*
X47135Y-59707D01*
X47150Y-59678D01*
X47150Y-59621D01*
X47164Y-59592D01*
X47178Y-59578D01*
X47207Y-59564D01*
X47264Y-59564D01*
X47292Y-59578D01*
X47307Y-59592D01*
X47321Y-59621D01*
X47321Y-59678D01*
X47307Y-59707D01*
X47292Y-59721D01*
X47264Y-59735D01*
X47207Y-59735D01*
X47178Y-59721D01*
X47164Y-59707D01*
X47150Y-59678D01*
X42050Y-47871D02*
X42150Y-47728D01*
X42221Y-47871D02*
X42221Y-47571D01*
X42107Y-47571D01*
X42078Y-47585D01*
X42064Y-47600D01*
X42050Y-47628D01*
X42050Y-47671D01*
X42064Y-47700D01*
X42078Y-47714D01*
X42107Y-47728D01*
X42221Y-47728D01*
X41935Y-47600D02*
X41921Y-47585D01*
X41892Y-47571D01*
X41821Y-47571D01*
X41792Y-47585D01*
X41778Y-47600D01*
X41764Y-47628D01*
X41764Y-47657D01*
X41778Y-47700D01*
X41950Y-47871D01*
X41764Y-47871D01*
X44221Y-49450D02*
X44078Y-49350D01*
X44221Y-49278D02*
X43921Y-49278D01*
X43921Y-49392D01*
X43935Y-49421D01*
X43950Y-49435D01*
X43978Y-49450D01*
X44021Y-49450D01*
X44050Y-49435D01*
X44064Y-49421D01*
X44078Y-49392D01*
X44078Y-49278D01*
X43921Y-49550D02*
X43921Y-49735D01*
X44035Y-49635D01*
X44035Y-49678D01*
X44050Y-49707D01*
X44064Y-49721D01*
X44092Y-49735D01*
X44164Y-49735D01*
X44192Y-49721D01*
X44207Y-49707D01*
X44221Y-49678D01*
X44221Y-49592D01*
X44207Y-49564D01*
X44192Y-49550D01*
M02*
