G04 (created by PCBNEW (2013-07-07 BZR 4022)-stable) date 03/12/2013 12:33:29*
%MOIN*%
G04 Gerber Fmt 3.4, Leading zero omitted, Abs format*
%FSLAX34Y34*%
G01*
G70*
G90*
G04 APERTURE LIST*
%ADD10C,0.00590551*%
%ADD11R,0.06X0.06*%
%ADD12C,0.06*%
%ADD13C,0.011811*%
%ADD14C,0.00984252*%
G04 APERTURE END LIST*
G54D10*
G54D11*
X90450Y-26300D03*
G54D12*
X90450Y-25300D03*
X91450Y-26300D03*
X91450Y-25300D03*
X92450Y-26300D03*
X92450Y-25300D03*
X93450Y-26300D03*
X93450Y-25300D03*
X94450Y-26300D03*
X94450Y-25300D03*
G54D11*
X87750Y-21250D03*
G54D12*
X86750Y-21250D03*
X85750Y-21250D03*
X84750Y-21250D03*
G54D11*
X94275Y-21200D03*
X93200Y-21200D03*
G54D13*
X90470Y-26320D02*
X90450Y-26300D01*
G54D10*
G36*
X95032Y-27272D02*
X95009Y-27245D01*
X94995Y-27232D01*
X94980Y-27218D01*
X94978Y-27216D01*
X94978Y-27216D01*
X94978Y-27216D01*
X94917Y-27168D01*
X94917Y-26254D01*
X94917Y-25254D01*
X94899Y-25164D01*
X94864Y-25079D01*
X94813Y-25003D01*
X94749Y-24938D01*
X94742Y-24933D01*
X94742Y-21484D01*
X94742Y-20883D01*
X94735Y-20851D01*
X94723Y-20821D01*
X94705Y-20793D01*
X94682Y-20770D01*
X94654Y-20752D01*
X94624Y-20739D01*
X94592Y-20732D01*
X94559Y-20732D01*
X93958Y-20732D01*
X93926Y-20739D01*
X93896Y-20751D01*
X93868Y-20769D01*
X93845Y-20792D01*
X93827Y-20820D01*
X93814Y-20850D01*
X93807Y-20882D01*
X93807Y-20915D01*
X93807Y-21516D01*
X93814Y-21548D01*
X93826Y-21578D01*
X93844Y-21606D01*
X93867Y-21629D01*
X93895Y-21647D01*
X93925Y-21660D01*
X93957Y-21667D01*
X93990Y-21667D01*
X94591Y-21667D01*
X94623Y-21660D01*
X94653Y-21648D01*
X94681Y-21630D01*
X94704Y-21607D01*
X94722Y-21579D01*
X94735Y-21549D01*
X94742Y-21517D01*
X94742Y-21484D01*
X94742Y-24933D01*
X94673Y-24886D01*
X94588Y-24851D01*
X94499Y-24832D01*
X94407Y-24832D01*
X94317Y-24849D01*
X94232Y-24883D01*
X94155Y-24934D01*
X94090Y-24998D01*
X94038Y-25073D01*
X94002Y-25158D01*
X93983Y-25247D01*
X93982Y-25339D01*
X93998Y-25429D01*
X94032Y-25514D01*
X94081Y-25591D01*
X94145Y-25657D01*
X94220Y-25709D01*
X94304Y-25746D01*
X94394Y-25766D01*
X94486Y-25768D01*
X94576Y-25752D01*
X94661Y-25719D01*
X94739Y-25670D01*
X94805Y-25606D01*
X94858Y-25531D01*
X94895Y-25448D01*
X94915Y-25358D01*
X94917Y-25254D01*
X94917Y-26254D01*
X94899Y-26164D01*
X94864Y-26079D01*
X94813Y-26003D01*
X94749Y-25938D01*
X94673Y-25886D01*
X94588Y-25851D01*
X94499Y-25832D01*
X94407Y-25832D01*
X94317Y-25849D01*
X94232Y-25883D01*
X94155Y-25934D01*
X94090Y-25998D01*
X94038Y-26073D01*
X94002Y-26158D01*
X93983Y-26247D01*
X93982Y-26339D01*
X93998Y-26429D01*
X94032Y-26514D01*
X94081Y-26591D01*
X94145Y-26657D01*
X94220Y-26709D01*
X94304Y-26746D01*
X94394Y-26766D01*
X94486Y-26768D01*
X94576Y-26752D01*
X94661Y-26719D01*
X94739Y-26670D01*
X94805Y-26606D01*
X94858Y-26531D01*
X94895Y-26448D01*
X94915Y-26358D01*
X94917Y-26254D01*
X94917Y-27168D01*
X94901Y-27156D01*
X94885Y-27146D01*
X94868Y-27135D01*
X94865Y-27133D01*
X94865Y-27133D01*
X94778Y-27089D01*
X94760Y-27082D01*
X94742Y-27075D01*
X94739Y-27074D01*
X94645Y-27048D01*
X94625Y-27044D01*
X94606Y-27041D01*
X94603Y-27040D01*
X94603Y-27040D01*
X94506Y-27033D01*
X94486Y-27033D01*
X94466Y-27033D01*
X94463Y-27034D01*
X94366Y-27045D01*
X94347Y-27050D01*
X94328Y-27054D01*
X94325Y-27054D01*
X94232Y-27085D01*
X94214Y-27093D01*
X94196Y-27100D01*
X94193Y-27102D01*
X94193Y-27102D01*
X94193Y-27102D01*
X94108Y-27149D01*
X94092Y-27160D01*
X94076Y-27171D01*
X94073Y-27173D01*
X93999Y-27237D01*
X93985Y-27251D01*
X93971Y-27265D01*
X93970Y-27267D01*
X93919Y-27331D01*
X93919Y-26309D01*
X93917Y-26282D01*
X93917Y-25254D01*
X93899Y-25164D01*
X93864Y-25079D01*
X93813Y-25003D01*
X93749Y-24938D01*
X93673Y-24886D01*
X93667Y-24884D01*
X93667Y-21484D01*
X93667Y-20883D01*
X93660Y-20851D01*
X93648Y-20821D01*
X93630Y-20793D01*
X93607Y-20770D01*
X93579Y-20752D01*
X93549Y-20739D01*
X93517Y-20732D01*
X93484Y-20732D01*
X92883Y-20732D01*
X92851Y-20739D01*
X92821Y-20751D01*
X92793Y-20769D01*
X92770Y-20792D01*
X92752Y-20820D01*
X92739Y-20850D01*
X92732Y-20882D01*
X92732Y-20915D01*
X92732Y-21516D01*
X92739Y-21548D01*
X92751Y-21578D01*
X92769Y-21606D01*
X92792Y-21629D01*
X92820Y-21647D01*
X92850Y-21660D01*
X92882Y-21667D01*
X92915Y-21667D01*
X93516Y-21667D01*
X93548Y-21660D01*
X93578Y-21648D01*
X93606Y-21630D01*
X93629Y-21607D01*
X93647Y-21579D01*
X93660Y-21549D01*
X93667Y-21517D01*
X93667Y-21484D01*
X93667Y-24884D01*
X93588Y-24851D01*
X93499Y-24832D01*
X93407Y-24832D01*
X93317Y-24849D01*
X93232Y-24883D01*
X93155Y-24934D01*
X93090Y-24998D01*
X93038Y-25073D01*
X93002Y-25158D01*
X92983Y-25247D01*
X92982Y-25339D01*
X92998Y-25429D01*
X93032Y-25514D01*
X93081Y-25591D01*
X93145Y-25657D01*
X93220Y-25709D01*
X93304Y-25746D01*
X93394Y-25766D01*
X93486Y-25768D01*
X93576Y-25752D01*
X93661Y-25719D01*
X93739Y-25670D01*
X93805Y-25606D01*
X93858Y-25531D01*
X93895Y-25448D01*
X93915Y-25358D01*
X93917Y-25254D01*
X93917Y-26282D01*
X93912Y-26218D01*
X93887Y-26130D01*
X93846Y-26048D01*
X93835Y-26032D01*
X93759Y-26004D01*
X93745Y-26018D01*
X93745Y-25990D01*
X93717Y-25914D01*
X93637Y-25869D01*
X93550Y-25841D01*
X93459Y-25830D01*
X93368Y-25837D01*
X93280Y-25862D01*
X93198Y-25903D01*
X93182Y-25914D01*
X93154Y-25990D01*
X93450Y-26286D01*
X93745Y-25990D01*
X93745Y-26018D01*
X93463Y-26300D01*
X93759Y-26595D01*
X93835Y-26567D01*
X93880Y-26487D01*
X93908Y-26400D01*
X93919Y-26309D01*
X93919Y-27331D01*
X93909Y-27344D01*
X93898Y-27360D01*
X93887Y-27377D01*
X93886Y-27379D01*
X93841Y-27466D01*
X93834Y-27484D01*
X93827Y-27503D01*
X93826Y-27506D01*
X93799Y-27599D01*
X93795Y-27619D01*
X93791Y-27638D01*
X93791Y-27641D01*
X93783Y-27738D01*
X93783Y-27758D01*
X93783Y-27778D01*
X93784Y-27781D01*
X93794Y-27878D01*
X93799Y-27897D01*
X93802Y-27916D01*
X93803Y-27919D01*
X93833Y-28012D01*
X93841Y-28030D01*
X93848Y-28048D01*
X93849Y-28051D01*
X93897Y-28137D01*
X93908Y-28153D01*
X93919Y-28169D01*
X93920Y-28172D01*
X93983Y-28246D01*
X93997Y-28260D01*
X94011Y-28274D01*
X94013Y-28276D01*
X94013Y-28276D01*
X94021Y-28282D01*
X93745Y-28282D01*
X93745Y-26609D01*
X93450Y-26313D01*
X93436Y-26327D01*
X93436Y-26300D01*
X93140Y-26004D01*
X93064Y-26032D01*
X93019Y-26112D01*
X92991Y-26199D01*
X92980Y-26290D01*
X92987Y-26381D01*
X93012Y-26469D01*
X93053Y-26551D01*
X93064Y-26567D01*
X93140Y-26595D01*
X93436Y-26300D01*
X93436Y-26327D01*
X93154Y-26609D01*
X93182Y-26685D01*
X93262Y-26730D01*
X93349Y-26758D01*
X93440Y-26769D01*
X93531Y-26762D01*
X93619Y-26737D01*
X93701Y-26696D01*
X93717Y-26685D01*
X93745Y-26609D01*
X93745Y-28282D01*
X92917Y-28282D01*
X92917Y-26254D01*
X92917Y-25254D01*
X92899Y-25164D01*
X92864Y-25079D01*
X92813Y-25003D01*
X92749Y-24938D01*
X92673Y-24886D01*
X92588Y-24851D01*
X92499Y-24832D01*
X92407Y-24832D01*
X92317Y-24849D01*
X92232Y-24883D01*
X92155Y-24934D01*
X92090Y-24998D01*
X92038Y-25073D01*
X92002Y-25158D01*
X91983Y-25247D01*
X91982Y-25339D01*
X91998Y-25429D01*
X92032Y-25514D01*
X92081Y-25591D01*
X92145Y-25657D01*
X92220Y-25709D01*
X92304Y-25746D01*
X92394Y-25766D01*
X92486Y-25768D01*
X92576Y-25752D01*
X92661Y-25719D01*
X92739Y-25670D01*
X92805Y-25606D01*
X92858Y-25531D01*
X92895Y-25448D01*
X92915Y-25358D01*
X92917Y-25254D01*
X92917Y-26254D01*
X92899Y-26164D01*
X92864Y-26079D01*
X92813Y-26003D01*
X92749Y-25938D01*
X92673Y-25886D01*
X92588Y-25851D01*
X92499Y-25832D01*
X92407Y-25832D01*
X92317Y-25849D01*
X92232Y-25883D01*
X92155Y-25934D01*
X92090Y-25998D01*
X92038Y-26073D01*
X92002Y-26158D01*
X91983Y-26247D01*
X91982Y-26339D01*
X91998Y-26429D01*
X92032Y-26514D01*
X92081Y-26591D01*
X92145Y-26657D01*
X92220Y-26709D01*
X92304Y-26746D01*
X92394Y-26766D01*
X92486Y-26768D01*
X92576Y-26752D01*
X92661Y-26719D01*
X92739Y-26670D01*
X92805Y-26606D01*
X92858Y-26531D01*
X92895Y-26448D01*
X92915Y-26358D01*
X92917Y-26254D01*
X92917Y-28282D01*
X91917Y-28282D01*
X91917Y-26254D01*
X91917Y-25254D01*
X91899Y-25164D01*
X91864Y-25079D01*
X91813Y-25003D01*
X91749Y-24938D01*
X91673Y-24886D01*
X91588Y-24851D01*
X91499Y-24832D01*
X91407Y-24832D01*
X91317Y-24849D01*
X91232Y-24883D01*
X91155Y-24934D01*
X91090Y-24998D01*
X91038Y-25073D01*
X91002Y-25158D01*
X90983Y-25247D01*
X90982Y-25339D01*
X90998Y-25429D01*
X91032Y-25514D01*
X91081Y-25591D01*
X91145Y-25657D01*
X91220Y-25709D01*
X91304Y-25746D01*
X91394Y-25766D01*
X91486Y-25768D01*
X91576Y-25752D01*
X91661Y-25719D01*
X91739Y-25670D01*
X91805Y-25606D01*
X91858Y-25531D01*
X91895Y-25448D01*
X91915Y-25358D01*
X91917Y-25254D01*
X91917Y-26254D01*
X91899Y-26164D01*
X91864Y-26079D01*
X91813Y-26003D01*
X91749Y-25938D01*
X91673Y-25886D01*
X91588Y-25851D01*
X91499Y-25832D01*
X91407Y-25832D01*
X91317Y-25849D01*
X91232Y-25883D01*
X91155Y-25934D01*
X91090Y-25998D01*
X91038Y-26073D01*
X91002Y-26158D01*
X90983Y-26247D01*
X90982Y-26339D01*
X90998Y-26429D01*
X91032Y-26514D01*
X91081Y-26591D01*
X91145Y-26657D01*
X91220Y-26709D01*
X91304Y-26746D01*
X91394Y-26766D01*
X91486Y-26768D01*
X91576Y-26752D01*
X91661Y-26719D01*
X91739Y-26670D01*
X91805Y-26606D01*
X91858Y-26531D01*
X91895Y-26448D01*
X91915Y-26358D01*
X91917Y-26254D01*
X91917Y-28282D01*
X90917Y-28282D01*
X90917Y-26584D01*
X90917Y-26054D01*
X90917Y-25254D01*
X90899Y-25164D01*
X90864Y-25079D01*
X90813Y-25003D01*
X90749Y-24938D01*
X90673Y-24886D01*
X90588Y-24851D01*
X90499Y-24832D01*
X90407Y-24832D01*
X90317Y-24849D01*
X90232Y-24883D01*
X90155Y-24934D01*
X90090Y-24998D01*
X90038Y-25073D01*
X90002Y-25158D01*
X89983Y-25247D01*
X89982Y-25339D01*
X89998Y-25429D01*
X90032Y-25514D01*
X90081Y-25591D01*
X90145Y-25657D01*
X90220Y-25709D01*
X90304Y-25746D01*
X90394Y-25766D01*
X90486Y-25768D01*
X90576Y-25752D01*
X90661Y-25719D01*
X90739Y-25670D01*
X90805Y-25606D01*
X90858Y-25531D01*
X90895Y-25448D01*
X90915Y-25358D01*
X90917Y-25254D01*
X90917Y-26054D01*
X90917Y-25983D01*
X90910Y-25951D01*
X90898Y-25921D01*
X90880Y-25893D01*
X90857Y-25870D01*
X90829Y-25852D01*
X90799Y-25839D01*
X90767Y-25832D01*
X90734Y-25832D01*
X90133Y-25832D01*
X90101Y-25839D01*
X90071Y-25851D01*
X90043Y-25869D01*
X90020Y-25892D01*
X90002Y-25920D01*
X89989Y-25950D01*
X89982Y-25982D01*
X89982Y-26015D01*
X89982Y-26616D01*
X89989Y-26648D01*
X90001Y-26678D01*
X90019Y-26706D01*
X90042Y-26729D01*
X90070Y-26747D01*
X90100Y-26760D01*
X90132Y-26767D01*
X90165Y-26767D01*
X90766Y-26767D01*
X90798Y-26760D01*
X90828Y-26748D01*
X90856Y-26730D01*
X90879Y-26707D01*
X90897Y-26679D01*
X90910Y-26649D01*
X90917Y-26617D01*
X90917Y-26584D01*
X90917Y-28282D01*
X88256Y-28282D01*
X88256Y-21531D01*
X88256Y-20929D01*
X88248Y-20889D01*
X88233Y-20852D01*
X88210Y-20818D01*
X88182Y-20789D01*
X88148Y-20767D01*
X88111Y-20751D01*
X88071Y-20743D01*
X88031Y-20743D01*
X87429Y-20743D01*
X87389Y-20751D01*
X87352Y-20766D01*
X87318Y-20789D01*
X87289Y-20817D01*
X87267Y-20851D01*
X87251Y-20888D01*
X87243Y-20928D01*
X87243Y-20968D01*
X87243Y-21132D01*
X87237Y-21102D01*
X87199Y-21010D01*
X87144Y-20928D01*
X87074Y-20857D01*
X86992Y-20802D01*
X86900Y-20763D01*
X86803Y-20743D01*
X86703Y-20742D01*
X86606Y-20761D01*
X86514Y-20798D01*
X86430Y-20853D01*
X86359Y-20922D01*
X86303Y-21004D01*
X86264Y-21096D01*
X86249Y-21165D01*
X86237Y-21102D01*
X86199Y-21010D01*
X86144Y-20928D01*
X86074Y-20857D01*
X85992Y-20802D01*
X85900Y-20763D01*
X85803Y-20743D01*
X85703Y-20742D01*
X85606Y-20761D01*
X85514Y-20798D01*
X85430Y-20853D01*
X85359Y-20922D01*
X85303Y-21004D01*
X85264Y-21096D01*
X85249Y-21165D01*
X85237Y-21102D01*
X85199Y-21010D01*
X85144Y-20928D01*
X85074Y-20857D01*
X84992Y-20802D01*
X84900Y-20763D01*
X84803Y-20743D01*
X84703Y-20742D01*
X84606Y-20761D01*
X84514Y-20798D01*
X84430Y-20853D01*
X84359Y-20922D01*
X84303Y-21004D01*
X84264Y-21096D01*
X84244Y-21193D01*
X84242Y-21292D01*
X84260Y-21390D01*
X84297Y-21482D01*
X84350Y-21566D01*
X84420Y-21637D01*
X84501Y-21694D01*
X84592Y-21734D01*
X84689Y-21755D01*
X84789Y-21757D01*
X84886Y-21740D01*
X84979Y-21704D01*
X85063Y-21651D01*
X85135Y-21582D01*
X85192Y-21501D01*
X85233Y-21410D01*
X85250Y-21334D01*
X85260Y-21390D01*
X85297Y-21482D01*
X85350Y-21566D01*
X85420Y-21637D01*
X85501Y-21694D01*
X85592Y-21734D01*
X85689Y-21755D01*
X85789Y-21757D01*
X85886Y-21740D01*
X85979Y-21704D01*
X86063Y-21651D01*
X86135Y-21582D01*
X86192Y-21501D01*
X86233Y-21410D01*
X86250Y-21334D01*
X86260Y-21390D01*
X86297Y-21482D01*
X86350Y-21566D01*
X86420Y-21637D01*
X86501Y-21694D01*
X86592Y-21734D01*
X86689Y-21755D01*
X86789Y-21757D01*
X86886Y-21740D01*
X86979Y-21704D01*
X87063Y-21651D01*
X87135Y-21582D01*
X87192Y-21501D01*
X87233Y-21410D01*
X87243Y-21366D01*
X87243Y-21570D01*
X87251Y-21610D01*
X87266Y-21647D01*
X87289Y-21681D01*
X87317Y-21710D01*
X87351Y-21732D01*
X87388Y-21748D01*
X87428Y-21756D01*
X87468Y-21756D01*
X88070Y-21756D01*
X88110Y-21748D01*
X88147Y-21733D01*
X88181Y-21710D01*
X88210Y-21682D01*
X88232Y-21648D01*
X88248Y-21611D01*
X88256Y-21571D01*
X88256Y-21531D01*
X88256Y-28282D01*
X84977Y-28282D01*
X84993Y-28269D01*
X85007Y-28255D01*
X85021Y-28242D01*
X85023Y-28239D01*
X85023Y-28239D01*
X85023Y-28239D01*
X85023Y-28239D01*
X85084Y-28164D01*
X85095Y-28147D01*
X85106Y-28131D01*
X85108Y-28128D01*
X85108Y-28128D01*
X85154Y-28042D01*
X85161Y-28024D01*
X85169Y-28006D01*
X85170Y-28003D01*
X85198Y-27909D01*
X85202Y-27890D01*
X85206Y-27871D01*
X85206Y-27868D01*
X85216Y-27771D01*
X85216Y-27760D01*
X85217Y-27749D01*
X85217Y-27746D01*
X85217Y-27733D01*
X85215Y-27722D01*
X85215Y-27711D01*
X85215Y-27708D01*
X85203Y-27611D01*
X85198Y-27592D01*
X85194Y-27573D01*
X85193Y-27570D01*
X85193Y-27570D01*
X85162Y-27478D01*
X85154Y-27460D01*
X85147Y-27441D01*
X85145Y-27439D01*
X85145Y-27439D01*
X85097Y-27354D01*
X85086Y-27338D01*
X85075Y-27322D01*
X85073Y-27319D01*
X85009Y-27245D01*
X84995Y-27232D01*
X84980Y-27218D01*
X84978Y-27216D01*
X84978Y-27216D01*
X84978Y-27216D01*
X84901Y-27156D01*
X84885Y-27146D01*
X84868Y-27135D01*
X84865Y-27133D01*
X84865Y-27133D01*
X84778Y-27089D01*
X84760Y-27082D01*
X84742Y-27075D01*
X84739Y-27074D01*
X84645Y-27048D01*
X84625Y-27044D01*
X84606Y-27041D01*
X84603Y-27040D01*
X84603Y-27040D01*
X84506Y-27033D01*
X84486Y-27033D01*
X84466Y-27033D01*
X84463Y-27034D01*
X84366Y-27045D01*
X84347Y-27050D01*
X84328Y-27054D01*
X84325Y-27054D01*
X84232Y-27085D01*
X84214Y-27093D01*
X84196Y-27100D01*
X84193Y-27102D01*
X84193Y-27102D01*
X84193Y-27102D01*
X84108Y-27149D01*
X84092Y-27160D01*
X84076Y-27171D01*
X84073Y-27173D01*
X83999Y-27237D01*
X83985Y-27251D01*
X83971Y-27265D01*
X83970Y-27267D01*
X83909Y-27344D01*
X83898Y-27360D01*
X83887Y-27377D01*
X83886Y-27379D01*
X83841Y-27466D01*
X83834Y-27484D01*
X83827Y-27503D01*
X83826Y-27506D01*
X83799Y-27599D01*
X83795Y-27619D01*
X83791Y-27638D01*
X83791Y-27641D01*
X83783Y-27738D01*
X83783Y-27758D01*
X83783Y-27778D01*
X83784Y-27781D01*
X83794Y-27878D01*
X83799Y-27897D01*
X83802Y-27916D01*
X83803Y-27919D01*
X83833Y-28012D01*
X83841Y-28030D01*
X83848Y-28048D01*
X83849Y-28051D01*
X83897Y-28137D01*
X83908Y-28153D01*
X83919Y-28169D01*
X83920Y-28172D01*
X83983Y-28246D01*
X83997Y-28260D01*
X84011Y-28274D01*
X84013Y-28276D01*
X84013Y-28276D01*
X84021Y-28282D01*
X83217Y-28282D01*
X83217Y-20717D01*
X89522Y-20717D01*
X89506Y-20730D01*
X89492Y-20744D01*
X89478Y-20757D01*
X89476Y-20760D01*
X89415Y-20835D01*
X89404Y-20852D01*
X89393Y-20868D01*
X89391Y-20871D01*
X89345Y-20957D01*
X89338Y-20975D01*
X89330Y-20993D01*
X89329Y-20996D01*
X89301Y-21090D01*
X89297Y-21109D01*
X89293Y-21128D01*
X89293Y-21131D01*
X89283Y-21228D01*
X89283Y-21239D01*
X89282Y-21250D01*
X89282Y-21253D01*
X89282Y-21266D01*
X89284Y-21277D01*
X89284Y-21288D01*
X89284Y-21291D01*
X89296Y-21388D01*
X89301Y-21407D01*
X89305Y-21426D01*
X89306Y-21429D01*
X89337Y-21521D01*
X89345Y-21539D01*
X89352Y-21558D01*
X89354Y-21560D01*
X89402Y-21645D01*
X89413Y-21661D01*
X89424Y-21677D01*
X89426Y-21680D01*
X89426Y-21680D01*
X89426Y-21680D01*
X89426Y-21680D01*
X89490Y-21754D01*
X89504Y-21767D01*
X89519Y-21781D01*
X89521Y-21783D01*
X89598Y-21843D01*
X89614Y-21853D01*
X89631Y-21864D01*
X89634Y-21866D01*
X89634Y-21866D01*
X89634Y-21866D01*
X89634Y-21866D01*
X89721Y-21910D01*
X89739Y-21917D01*
X89757Y-21924D01*
X89760Y-21925D01*
X89760Y-21925D01*
X89854Y-21951D01*
X89874Y-21955D01*
X89893Y-21958D01*
X89896Y-21959D01*
X89896Y-21959D01*
X89993Y-21966D01*
X90013Y-21966D01*
X90033Y-21966D01*
X90036Y-21965D01*
X90036Y-21965D01*
X90133Y-21954D01*
X90152Y-21949D01*
X90171Y-21945D01*
X90174Y-21945D01*
X90267Y-21914D01*
X90285Y-21906D01*
X90303Y-21899D01*
X90306Y-21897D01*
X90306Y-21897D01*
X90391Y-21850D01*
X90407Y-21839D01*
X90423Y-21828D01*
X90426Y-21826D01*
X90426Y-21826D01*
X90426Y-21826D01*
X90426Y-21826D01*
X90500Y-21762D01*
X90514Y-21748D01*
X90528Y-21734D01*
X90529Y-21732D01*
X90590Y-21655D01*
X90601Y-21639D01*
X90612Y-21622D01*
X90613Y-21620D01*
X90613Y-21620D01*
X90658Y-21533D01*
X90665Y-21515D01*
X90672Y-21496D01*
X90673Y-21493D01*
X90700Y-21400D01*
X90704Y-21380D01*
X90708Y-21361D01*
X90708Y-21358D01*
X90708Y-21358D01*
X90716Y-21261D01*
X90716Y-21241D01*
X90716Y-21221D01*
X90715Y-21218D01*
X90715Y-21218D01*
X90705Y-21121D01*
X90700Y-21102D01*
X90697Y-21083D01*
X90696Y-21080D01*
X90666Y-20987D01*
X90658Y-20969D01*
X90651Y-20951D01*
X90650Y-20948D01*
X90650Y-20948D01*
X90602Y-20862D01*
X90591Y-20846D01*
X90580Y-20830D01*
X90579Y-20827D01*
X90579Y-20827D01*
X90516Y-20753D01*
X90502Y-20739D01*
X90488Y-20725D01*
X90486Y-20723D01*
X90478Y-20717D01*
X95032Y-20717D01*
X95032Y-27272D01*
X95032Y-27272D01*
G37*
G54D14*
X95032Y-27272D02*
X95009Y-27245D01*
X94995Y-27232D01*
X94980Y-27218D01*
X94978Y-27216D01*
X94978Y-27216D01*
X94978Y-27216D01*
X94917Y-27168D01*
X94917Y-26254D01*
X94917Y-25254D01*
X94899Y-25164D01*
X94864Y-25079D01*
X94813Y-25003D01*
X94749Y-24938D01*
X94742Y-24933D01*
X94742Y-21484D01*
X94742Y-20883D01*
X94735Y-20851D01*
X94723Y-20821D01*
X94705Y-20793D01*
X94682Y-20770D01*
X94654Y-20752D01*
X94624Y-20739D01*
X94592Y-20732D01*
X94559Y-20732D01*
X93958Y-20732D01*
X93926Y-20739D01*
X93896Y-20751D01*
X93868Y-20769D01*
X93845Y-20792D01*
X93827Y-20820D01*
X93814Y-20850D01*
X93807Y-20882D01*
X93807Y-20915D01*
X93807Y-21516D01*
X93814Y-21548D01*
X93826Y-21578D01*
X93844Y-21606D01*
X93867Y-21629D01*
X93895Y-21647D01*
X93925Y-21660D01*
X93957Y-21667D01*
X93990Y-21667D01*
X94591Y-21667D01*
X94623Y-21660D01*
X94653Y-21648D01*
X94681Y-21630D01*
X94704Y-21607D01*
X94722Y-21579D01*
X94735Y-21549D01*
X94742Y-21517D01*
X94742Y-21484D01*
X94742Y-24933D01*
X94673Y-24886D01*
X94588Y-24851D01*
X94499Y-24832D01*
X94407Y-24832D01*
X94317Y-24849D01*
X94232Y-24883D01*
X94155Y-24934D01*
X94090Y-24998D01*
X94038Y-25073D01*
X94002Y-25158D01*
X93983Y-25247D01*
X93982Y-25339D01*
X93998Y-25429D01*
X94032Y-25514D01*
X94081Y-25591D01*
X94145Y-25657D01*
X94220Y-25709D01*
X94304Y-25746D01*
X94394Y-25766D01*
X94486Y-25768D01*
X94576Y-25752D01*
X94661Y-25719D01*
X94739Y-25670D01*
X94805Y-25606D01*
X94858Y-25531D01*
X94895Y-25448D01*
X94915Y-25358D01*
X94917Y-25254D01*
X94917Y-26254D01*
X94899Y-26164D01*
X94864Y-26079D01*
X94813Y-26003D01*
X94749Y-25938D01*
X94673Y-25886D01*
X94588Y-25851D01*
X94499Y-25832D01*
X94407Y-25832D01*
X94317Y-25849D01*
X94232Y-25883D01*
X94155Y-25934D01*
X94090Y-25998D01*
X94038Y-26073D01*
X94002Y-26158D01*
X93983Y-26247D01*
X93982Y-26339D01*
X93998Y-26429D01*
X94032Y-26514D01*
X94081Y-26591D01*
X94145Y-26657D01*
X94220Y-26709D01*
X94304Y-26746D01*
X94394Y-26766D01*
X94486Y-26768D01*
X94576Y-26752D01*
X94661Y-26719D01*
X94739Y-26670D01*
X94805Y-26606D01*
X94858Y-26531D01*
X94895Y-26448D01*
X94915Y-26358D01*
X94917Y-26254D01*
X94917Y-27168D01*
X94901Y-27156D01*
X94885Y-27146D01*
X94868Y-27135D01*
X94865Y-27133D01*
X94865Y-27133D01*
X94778Y-27089D01*
X94760Y-27082D01*
X94742Y-27075D01*
X94739Y-27074D01*
X94645Y-27048D01*
X94625Y-27044D01*
X94606Y-27041D01*
X94603Y-27040D01*
X94603Y-27040D01*
X94506Y-27033D01*
X94486Y-27033D01*
X94466Y-27033D01*
X94463Y-27034D01*
X94366Y-27045D01*
X94347Y-27050D01*
X94328Y-27054D01*
X94325Y-27054D01*
X94232Y-27085D01*
X94214Y-27093D01*
X94196Y-27100D01*
X94193Y-27102D01*
X94193Y-27102D01*
X94193Y-27102D01*
X94108Y-27149D01*
X94092Y-27160D01*
X94076Y-27171D01*
X94073Y-27173D01*
X93999Y-27237D01*
X93985Y-27251D01*
X93971Y-27265D01*
X93970Y-27267D01*
X93919Y-27331D01*
X93919Y-26309D01*
X93917Y-26282D01*
X93917Y-25254D01*
X93899Y-25164D01*
X93864Y-25079D01*
X93813Y-25003D01*
X93749Y-24938D01*
X93673Y-24886D01*
X93667Y-24884D01*
X93667Y-21484D01*
X93667Y-20883D01*
X93660Y-20851D01*
X93648Y-20821D01*
X93630Y-20793D01*
X93607Y-20770D01*
X93579Y-20752D01*
X93549Y-20739D01*
X93517Y-20732D01*
X93484Y-20732D01*
X92883Y-20732D01*
X92851Y-20739D01*
X92821Y-20751D01*
X92793Y-20769D01*
X92770Y-20792D01*
X92752Y-20820D01*
X92739Y-20850D01*
X92732Y-20882D01*
X92732Y-20915D01*
X92732Y-21516D01*
X92739Y-21548D01*
X92751Y-21578D01*
X92769Y-21606D01*
X92792Y-21629D01*
X92820Y-21647D01*
X92850Y-21660D01*
X92882Y-21667D01*
X92915Y-21667D01*
X93516Y-21667D01*
X93548Y-21660D01*
X93578Y-21648D01*
X93606Y-21630D01*
X93629Y-21607D01*
X93647Y-21579D01*
X93660Y-21549D01*
X93667Y-21517D01*
X93667Y-21484D01*
X93667Y-24884D01*
X93588Y-24851D01*
X93499Y-24832D01*
X93407Y-24832D01*
X93317Y-24849D01*
X93232Y-24883D01*
X93155Y-24934D01*
X93090Y-24998D01*
X93038Y-25073D01*
X93002Y-25158D01*
X92983Y-25247D01*
X92982Y-25339D01*
X92998Y-25429D01*
X93032Y-25514D01*
X93081Y-25591D01*
X93145Y-25657D01*
X93220Y-25709D01*
X93304Y-25746D01*
X93394Y-25766D01*
X93486Y-25768D01*
X93576Y-25752D01*
X93661Y-25719D01*
X93739Y-25670D01*
X93805Y-25606D01*
X93858Y-25531D01*
X93895Y-25448D01*
X93915Y-25358D01*
X93917Y-25254D01*
X93917Y-26282D01*
X93912Y-26218D01*
X93887Y-26130D01*
X93846Y-26048D01*
X93835Y-26032D01*
X93759Y-26004D01*
X93745Y-26018D01*
X93745Y-25990D01*
X93717Y-25914D01*
X93637Y-25869D01*
X93550Y-25841D01*
X93459Y-25830D01*
X93368Y-25837D01*
X93280Y-25862D01*
X93198Y-25903D01*
X93182Y-25914D01*
X93154Y-25990D01*
X93450Y-26286D01*
X93745Y-25990D01*
X93745Y-26018D01*
X93463Y-26300D01*
X93759Y-26595D01*
X93835Y-26567D01*
X93880Y-26487D01*
X93908Y-26400D01*
X93919Y-26309D01*
X93919Y-27331D01*
X93909Y-27344D01*
X93898Y-27360D01*
X93887Y-27377D01*
X93886Y-27379D01*
X93841Y-27466D01*
X93834Y-27484D01*
X93827Y-27503D01*
X93826Y-27506D01*
X93799Y-27599D01*
X93795Y-27619D01*
X93791Y-27638D01*
X93791Y-27641D01*
X93783Y-27738D01*
X93783Y-27758D01*
X93783Y-27778D01*
X93784Y-27781D01*
X93794Y-27878D01*
X93799Y-27897D01*
X93802Y-27916D01*
X93803Y-27919D01*
X93833Y-28012D01*
X93841Y-28030D01*
X93848Y-28048D01*
X93849Y-28051D01*
X93897Y-28137D01*
X93908Y-28153D01*
X93919Y-28169D01*
X93920Y-28172D01*
X93983Y-28246D01*
X93997Y-28260D01*
X94011Y-28274D01*
X94013Y-28276D01*
X94013Y-28276D01*
X94021Y-28282D01*
X93745Y-28282D01*
X93745Y-26609D01*
X93450Y-26313D01*
X93436Y-26327D01*
X93436Y-26300D01*
X93140Y-26004D01*
X93064Y-26032D01*
X93019Y-26112D01*
X92991Y-26199D01*
X92980Y-26290D01*
X92987Y-26381D01*
X93012Y-26469D01*
X93053Y-26551D01*
X93064Y-26567D01*
X93140Y-26595D01*
X93436Y-26300D01*
X93436Y-26327D01*
X93154Y-26609D01*
X93182Y-26685D01*
X93262Y-26730D01*
X93349Y-26758D01*
X93440Y-26769D01*
X93531Y-26762D01*
X93619Y-26737D01*
X93701Y-26696D01*
X93717Y-26685D01*
X93745Y-26609D01*
X93745Y-28282D01*
X92917Y-28282D01*
X92917Y-26254D01*
X92917Y-25254D01*
X92899Y-25164D01*
X92864Y-25079D01*
X92813Y-25003D01*
X92749Y-24938D01*
X92673Y-24886D01*
X92588Y-24851D01*
X92499Y-24832D01*
X92407Y-24832D01*
X92317Y-24849D01*
X92232Y-24883D01*
X92155Y-24934D01*
X92090Y-24998D01*
X92038Y-25073D01*
X92002Y-25158D01*
X91983Y-25247D01*
X91982Y-25339D01*
X91998Y-25429D01*
X92032Y-25514D01*
X92081Y-25591D01*
X92145Y-25657D01*
X92220Y-25709D01*
X92304Y-25746D01*
X92394Y-25766D01*
X92486Y-25768D01*
X92576Y-25752D01*
X92661Y-25719D01*
X92739Y-25670D01*
X92805Y-25606D01*
X92858Y-25531D01*
X92895Y-25448D01*
X92915Y-25358D01*
X92917Y-25254D01*
X92917Y-26254D01*
X92899Y-26164D01*
X92864Y-26079D01*
X92813Y-26003D01*
X92749Y-25938D01*
X92673Y-25886D01*
X92588Y-25851D01*
X92499Y-25832D01*
X92407Y-25832D01*
X92317Y-25849D01*
X92232Y-25883D01*
X92155Y-25934D01*
X92090Y-25998D01*
X92038Y-26073D01*
X92002Y-26158D01*
X91983Y-26247D01*
X91982Y-26339D01*
X91998Y-26429D01*
X92032Y-26514D01*
X92081Y-26591D01*
X92145Y-26657D01*
X92220Y-26709D01*
X92304Y-26746D01*
X92394Y-26766D01*
X92486Y-26768D01*
X92576Y-26752D01*
X92661Y-26719D01*
X92739Y-26670D01*
X92805Y-26606D01*
X92858Y-26531D01*
X92895Y-26448D01*
X92915Y-26358D01*
X92917Y-26254D01*
X92917Y-28282D01*
X91917Y-28282D01*
X91917Y-26254D01*
X91917Y-25254D01*
X91899Y-25164D01*
X91864Y-25079D01*
X91813Y-25003D01*
X91749Y-24938D01*
X91673Y-24886D01*
X91588Y-24851D01*
X91499Y-24832D01*
X91407Y-24832D01*
X91317Y-24849D01*
X91232Y-24883D01*
X91155Y-24934D01*
X91090Y-24998D01*
X91038Y-25073D01*
X91002Y-25158D01*
X90983Y-25247D01*
X90982Y-25339D01*
X90998Y-25429D01*
X91032Y-25514D01*
X91081Y-25591D01*
X91145Y-25657D01*
X91220Y-25709D01*
X91304Y-25746D01*
X91394Y-25766D01*
X91486Y-25768D01*
X91576Y-25752D01*
X91661Y-25719D01*
X91739Y-25670D01*
X91805Y-25606D01*
X91858Y-25531D01*
X91895Y-25448D01*
X91915Y-25358D01*
X91917Y-25254D01*
X91917Y-26254D01*
X91899Y-26164D01*
X91864Y-26079D01*
X91813Y-26003D01*
X91749Y-25938D01*
X91673Y-25886D01*
X91588Y-25851D01*
X91499Y-25832D01*
X91407Y-25832D01*
X91317Y-25849D01*
X91232Y-25883D01*
X91155Y-25934D01*
X91090Y-25998D01*
X91038Y-26073D01*
X91002Y-26158D01*
X90983Y-26247D01*
X90982Y-26339D01*
X90998Y-26429D01*
X91032Y-26514D01*
X91081Y-26591D01*
X91145Y-26657D01*
X91220Y-26709D01*
X91304Y-26746D01*
X91394Y-26766D01*
X91486Y-26768D01*
X91576Y-26752D01*
X91661Y-26719D01*
X91739Y-26670D01*
X91805Y-26606D01*
X91858Y-26531D01*
X91895Y-26448D01*
X91915Y-26358D01*
X91917Y-26254D01*
X91917Y-28282D01*
X90917Y-28282D01*
X90917Y-26584D01*
X90917Y-26054D01*
X90917Y-25254D01*
X90899Y-25164D01*
X90864Y-25079D01*
X90813Y-25003D01*
X90749Y-24938D01*
X90673Y-24886D01*
X90588Y-24851D01*
X90499Y-24832D01*
X90407Y-24832D01*
X90317Y-24849D01*
X90232Y-24883D01*
X90155Y-24934D01*
X90090Y-24998D01*
X90038Y-25073D01*
X90002Y-25158D01*
X89983Y-25247D01*
X89982Y-25339D01*
X89998Y-25429D01*
X90032Y-25514D01*
X90081Y-25591D01*
X90145Y-25657D01*
X90220Y-25709D01*
X90304Y-25746D01*
X90394Y-25766D01*
X90486Y-25768D01*
X90576Y-25752D01*
X90661Y-25719D01*
X90739Y-25670D01*
X90805Y-25606D01*
X90858Y-25531D01*
X90895Y-25448D01*
X90915Y-25358D01*
X90917Y-25254D01*
X90917Y-26054D01*
X90917Y-25983D01*
X90910Y-25951D01*
X90898Y-25921D01*
X90880Y-25893D01*
X90857Y-25870D01*
X90829Y-25852D01*
X90799Y-25839D01*
X90767Y-25832D01*
X90734Y-25832D01*
X90133Y-25832D01*
X90101Y-25839D01*
X90071Y-25851D01*
X90043Y-25869D01*
X90020Y-25892D01*
X90002Y-25920D01*
X89989Y-25950D01*
X89982Y-25982D01*
X89982Y-26015D01*
X89982Y-26616D01*
X89989Y-26648D01*
X90001Y-26678D01*
X90019Y-26706D01*
X90042Y-26729D01*
X90070Y-26747D01*
X90100Y-26760D01*
X90132Y-26767D01*
X90165Y-26767D01*
X90766Y-26767D01*
X90798Y-26760D01*
X90828Y-26748D01*
X90856Y-26730D01*
X90879Y-26707D01*
X90897Y-26679D01*
X90910Y-26649D01*
X90917Y-26617D01*
X90917Y-26584D01*
X90917Y-28282D01*
X88256Y-28282D01*
X88256Y-21531D01*
X88256Y-20929D01*
X88248Y-20889D01*
X88233Y-20852D01*
X88210Y-20818D01*
X88182Y-20789D01*
X88148Y-20767D01*
X88111Y-20751D01*
X88071Y-20743D01*
X88031Y-20743D01*
X87429Y-20743D01*
X87389Y-20751D01*
X87352Y-20766D01*
X87318Y-20789D01*
X87289Y-20817D01*
X87267Y-20851D01*
X87251Y-20888D01*
X87243Y-20928D01*
X87243Y-20968D01*
X87243Y-21132D01*
X87237Y-21102D01*
X87199Y-21010D01*
X87144Y-20928D01*
X87074Y-20857D01*
X86992Y-20802D01*
X86900Y-20763D01*
X86803Y-20743D01*
X86703Y-20742D01*
X86606Y-20761D01*
X86514Y-20798D01*
X86430Y-20853D01*
X86359Y-20922D01*
X86303Y-21004D01*
X86264Y-21096D01*
X86249Y-21165D01*
X86237Y-21102D01*
X86199Y-21010D01*
X86144Y-20928D01*
X86074Y-20857D01*
X85992Y-20802D01*
X85900Y-20763D01*
X85803Y-20743D01*
X85703Y-20742D01*
X85606Y-20761D01*
X85514Y-20798D01*
X85430Y-20853D01*
X85359Y-20922D01*
X85303Y-21004D01*
X85264Y-21096D01*
X85249Y-21165D01*
X85237Y-21102D01*
X85199Y-21010D01*
X85144Y-20928D01*
X85074Y-20857D01*
X84992Y-20802D01*
X84900Y-20763D01*
X84803Y-20743D01*
X84703Y-20742D01*
X84606Y-20761D01*
X84514Y-20798D01*
X84430Y-20853D01*
X84359Y-20922D01*
X84303Y-21004D01*
X84264Y-21096D01*
X84244Y-21193D01*
X84242Y-21292D01*
X84260Y-21390D01*
X84297Y-21482D01*
X84350Y-21566D01*
X84420Y-21637D01*
X84501Y-21694D01*
X84592Y-21734D01*
X84689Y-21755D01*
X84789Y-21757D01*
X84886Y-21740D01*
X84979Y-21704D01*
X85063Y-21651D01*
X85135Y-21582D01*
X85192Y-21501D01*
X85233Y-21410D01*
X85250Y-21334D01*
X85260Y-21390D01*
X85297Y-21482D01*
X85350Y-21566D01*
X85420Y-21637D01*
X85501Y-21694D01*
X85592Y-21734D01*
X85689Y-21755D01*
X85789Y-21757D01*
X85886Y-21740D01*
X85979Y-21704D01*
X86063Y-21651D01*
X86135Y-21582D01*
X86192Y-21501D01*
X86233Y-21410D01*
X86250Y-21334D01*
X86260Y-21390D01*
X86297Y-21482D01*
X86350Y-21566D01*
X86420Y-21637D01*
X86501Y-21694D01*
X86592Y-21734D01*
X86689Y-21755D01*
X86789Y-21757D01*
X86886Y-21740D01*
X86979Y-21704D01*
X87063Y-21651D01*
X87135Y-21582D01*
X87192Y-21501D01*
X87233Y-21410D01*
X87243Y-21366D01*
X87243Y-21570D01*
X87251Y-21610D01*
X87266Y-21647D01*
X87289Y-21681D01*
X87317Y-21710D01*
X87351Y-21732D01*
X87388Y-21748D01*
X87428Y-21756D01*
X87468Y-21756D01*
X88070Y-21756D01*
X88110Y-21748D01*
X88147Y-21733D01*
X88181Y-21710D01*
X88210Y-21682D01*
X88232Y-21648D01*
X88248Y-21611D01*
X88256Y-21571D01*
X88256Y-21531D01*
X88256Y-28282D01*
X84977Y-28282D01*
X84993Y-28269D01*
X85007Y-28255D01*
X85021Y-28242D01*
X85023Y-28239D01*
X85023Y-28239D01*
X85023Y-28239D01*
X85023Y-28239D01*
X85084Y-28164D01*
X85095Y-28147D01*
X85106Y-28131D01*
X85108Y-28128D01*
X85108Y-28128D01*
X85154Y-28042D01*
X85161Y-28024D01*
X85169Y-28006D01*
X85170Y-28003D01*
X85198Y-27909D01*
X85202Y-27890D01*
X85206Y-27871D01*
X85206Y-27868D01*
X85216Y-27771D01*
X85216Y-27760D01*
X85217Y-27749D01*
X85217Y-27746D01*
X85217Y-27733D01*
X85215Y-27722D01*
X85215Y-27711D01*
X85215Y-27708D01*
X85203Y-27611D01*
X85198Y-27592D01*
X85194Y-27573D01*
X85193Y-27570D01*
X85193Y-27570D01*
X85162Y-27478D01*
X85154Y-27460D01*
X85147Y-27441D01*
X85145Y-27439D01*
X85145Y-27439D01*
X85097Y-27354D01*
X85086Y-27338D01*
X85075Y-27322D01*
X85073Y-27319D01*
X85009Y-27245D01*
X84995Y-27232D01*
X84980Y-27218D01*
X84978Y-27216D01*
X84978Y-27216D01*
X84978Y-27216D01*
X84901Y-27156D01*
X84885Y-27146D01*
X84868Y-27135D01*
X84865Y-27133D01*
X84865Y-27133D01*
X84778Y-27089D01*
X84760Y-27082D01*
X84742Y-27075D01*
X84739Y-27074D01*
X84645Y-27048D01*
X84625Y-27044D01*
X84606Y-27041D01*
X84603Y-27040D01*
X84603Y-27040D01*
X84506Y-27033D01*
X84486Y-27033D01*
X84466Y-27033D01*
X84463Y-27034D01*
X84366Y-27045D01*
X84347Y-27050D01*
X84328Y-27054D01*
X84325Y-27054D01*
X84232Y-27085D01*
X84214Y-27093D01*
X84196Y-27100D01*
X84193Y-27102D01*
X84193Y-27102D01*
X84193Y-27102D01*
X84108Y-27149D01*
X84092Y-27160D01*
X84076Y-27171D01*
X84073Y-27173D01*
X83999Y-27237D01*
X83985Y-27251D01*
X83971Y-27265D01*
X83970Y-27267D01*
X83909Y-27344D01*
X83898Y-27360D01*
X83887Y-27377D01*
X83886Y-27379D01*
X83841Y-27466D01*
X83834Y-27484D01*
X83827Y-27503D01*
X83826Y-27506D01*
X83799Y-27599D01*
X83795Y-27619D01*
X83791Y-27638D01*
X83791Y-27641D01*
X83783Y-27738D01*
X83783Y-27758D01*
X83783Y-27778D01*
X83784Y-27781D01*
X83794Y-27878D01*
X83799Y-27897D01*
X83802Y-27916D01*
X83803Y-27919D01*
X83833Y-28012D01*
X83841Y-28030D01*
X83848Y-28048D01*
X83849Y-28051D01*
X83897Y-28137D01*
X83908Y-28153D01*
X83919Y-28169D01*
X83920Y-28172D01*
X83983Y-28246D01*
X83997Y-28260D01*
X84011Y-28274D01*
X84013Y-28276D01*
X84013Y-28276D01*
X84021Y-28282D01*
X83217Y-28282D01*
X83217Y-20717D01*
X89522Y-20717D01*
X89506Y-20730D01*
X89492Y-20744D01*
X89478Y-20757D01*
X89476Y-20760D01*
X89415Y-20835D01*
X89404Y-20852D01*
X89393Y-20868D01*
X89391Y-20871D01*
X89345Y-20957D01*
X89338Y-20975D01*
X89330Y-20993D01*
X89329Y-20996D01*
X89301Y-21090D01*
X89297Y-21109D01*
X89293Y-21128D01*
X89293Y-21131D01*
X89283Y-21228D01*
X89283Y-21239D01*
X89282Y-21250D01*
X89282Y-21253D01*
X89282Y-21266D01*
X89284Y-21277D01*
X89284Y-21288D01*
X89284Y-21291D01*
X89296Y-21388D01*
X89301Y-21407D01*
X89305Y-21426D01*
X89306Y-21429D01*
X89337Y-21521D01*
X89345Y-21539D01*
X89352Y-21558D01*
X89354Y-21560D01*
X89402Y-21645D01*
X89413Y-21661D01*
X89424Y-21677D01*
X89426Y-21680D01*
X89426Y-21680D01*
X89426Y-21680D01*
X89426Y-21680D01*
X89490Y-21754D01*
X89504Y-21767D01*
X89519Y-21781D01*
X89521Y-21783D01*
X89598Y-21843D01*
X89614Y-21853D01*
X89631Y-21864D01*
X89634Y-21866D01*
X89634Y-21866D01*
X89634Y-21866D01*
X89634Y-21866D01*
X89721Y-21910D01*
X89739Y-21917D01*
X89757Y-21924D01*
X89760Y-21925D01*
X89760Y-21925D01*
X89854Y-21951D01*
X89874Y-21955D01*
X89893Y-21958D01*
X89896Y-21959D01*
X89896Y-21959D01*
X89993Y-21966D01*
X90013Y-21966D01*
X90033Y-21966D01*
X90036Y-21965D01*
X90036Y-21965D01*
X90133Y-21954D01*
X90152Y-21949D01*
X90171Y-21945D01*
X90174Y-21945D01*
X90267Y-21914D01*
X90285Y-21906D01*
X90303Y-21899D01*
X90306Y-21897D01*
X90306Y-21897D01*
X90391Y-21850D01*
X90407Y-21839D01*
X90423Y-21828D01*
X90426Y-21826D01*
X90426Y-21826D01*
X90426Y-21826D01*
X90426Y-21826D01*
X90500Y-21762D01*
X90514Y-21748D01*
X90528Y-21734D01*
X90529Y-21732D01*
X90590Y-21655D01*
X90601Y-21639D01*
X90612Y-21622D01*
X90613Y-21620D01*
X90613Y-21620D01*
X90658Y-21533D01*
X90665Y-21515D01*
X90672Y-21496D01*
X90673Y-21493D01*
X90700Y-21400D01*
X90704Y-21380D01*
X90708Y-21361D01*
X90708Y-21358D01*
X90708Y-21358D01*
X90716Y-21261D01*
X90716Y-21241D01*
X90716Y-21221D01*
X90715Y-21218D01*
X90715Y-21218D01*
X90705Y-21121D01*
X90700Y-21102D01*
X90697Y-21083D01*
X90696Y-21080D01*
X90666Y-20987D01*
X90658Y-20969D01*
X90651Y-20951D01*
X90650Y-20948D01*
X90650Y-20948D01*
X90602Y-20862D01*
X90591Y-20846D01*
X90580Y-20830D01*
X90579Y-20827D01*
X90579Y-20827D01*
X90516Y-20753D01*
X90502Y-20739D01*
X90488Y-20725D01*
X90486Y-20723D01*
X90478Y-20717D01*
X95032Y-20717D01*
X95032Y-27272D01*
M02*
