G04 (created by PCBNEW (2013-07-07 BZR 4022)-stable) date 02/12/2013 08:18:55*
%MOIN*%
G04 Gerber Fmt 3.4, Leading zero omitted, Abs format*
%FSLAX34Y34*%
G01*
G70*
G90*
G04 APERTURE LIST*
%ADD10C,0.00590551*%
%ADD11R,0.04X0.065*%
%ADD12R,0.075X0.055*%
%ADD13R,0.08X0.08*%
%ADD14C,0.08*%
%ADD15R,0.12X0.12*%
%ADD16C,0.12*%
%ADD17R,0.07X0.058*%
%ADD18R,0.055X0.075*%
%ADD19R,0.0672X0.0672*%
%ADD20R,0.075X0.075*%
%ADD21C,0.075*%
G04 APERTURE END LIST*
G54D10*
G54D11*
X41675Y-54475D03*
X41675Y-52375D03*
X41175Y-54475D03*
X40675Y-54475D03*
X40175Y-54475D03*
X41175Y-52375D03*
X40675Y-52375D03*
X40175Y-52375D03*
X44175Y-58475D03*
X44175Y-56375D03*
X43675Y-58475D03*
X43175Y-58475D03*
X42675Y-58475D03*
X43675Y-56375D03*
X43175Y-56375D03*
X42675Y-56375D03*
X41675Y-57475D03*
X41675Y-55375D03*
X41175Y-57475D03*
X40675Y-57475D03*
X40175Y-57475D03*
X41175Y-55375D03*
X40675Y-55375D03*
X40175Y-55375D03*
X44175Y-55475D03*
X44175Y-53375D03*
X43675Y-55475D03*
X43175Y-55475D03*
X42675Y-55475D03*
X43675Y-53375D03*
X43175Y-53375D03*
X42675Y-53375D03*
X41675Y-51475D03*
X41675Y-49375D03*
X41175Y-51475D03*
X40675Y-51475D03*
X40175Y-51475D03*
X41175Y-49375D03*
X40675Y-49375D03*
X40175Y-49375D03*
X44175Y-52475D03*
X44175Y-50375D03*
X43675Y-52475D03*
X43175Y-52475D03*
X42675Y-52475D03*
X43675Y-50375D03*
X43175Y-50375D03*
X42675Y-50375D03*
G54D12*
X39425Y-58300D03*
X39425Y-57550D03*
X39425Y-56800D03*
X39425Y-56050D03*
X39425Y-53550D03*
X39425Y-52800D03*
X39425Y-55300D03*
X39425Y-54550D03*
X39475Y-50350D03*
X39475Y-49600D03*
X39425Y-51800D03*
X39425Y-51050D03*
G54D13*
X31450Y-52034D03*
G54D14*
X32450Y-52034D03*
X31450Y-53034D03*
X32450Y-53034D03*
X31450Y-54034D03*
X32450Y-54034D03*
X31450Y-55034D03*
X32450Y-55034D03*
X31450Y-56034D03*
X32450Y-56034D03*
X31450Y-57034D03*
X32450Y-57034D03*
X31450Y-58034D03*
X32450Y-58034D03*
X31450Y-59034D03*
X32450Y-59034D03*
X31450Y-60034D03*
X32450Y-60034D03*
X31450Y-61034D03*
X32450Y-61034D03*
G54D15*
X49000Y-56500D03*
G54D16*
X49000Y-54500D03*
X49000Y-52500D03*
G54D15*
X49000Y-60500D03*
G54D16*
X49000Y-58500D03*
G54D15*
X49000Y-50500D03*
G54D16*
X49000Y-48500D03*
G54D13*
X35300Y-52034D03*
G54D14*
X36300Y-52034D03*
X35300Y-53034D03*
X36300Y-53034D03*
X35300Y-54034D03*
X36300Y-54034D03*
X35300Y-55034D03*
X36300Y-55034D03*
X35300Y-56034D03*
X36300Y-56034D03*
X35300Y-57034D03*
X36300Y-57034D03*
X35300Y-58034D03*
X36300Y-58034D03*
X35300Y-59034D03*
X36300Y-59034D03*
X35300Y-60034D03*
X36300Y-60034D03*
X35300Y-61034D03*
X36300Y-61034D03*
G54D15*
X38000Y-48750D03*
G54D16*
X36000Y-48750D03*
X34000Y-48750D03*
G54D17*
X41740Y-59840D03*
X41740Y-58550D03*
G54D18*
X38875Y-60500D03*
X39625Y-60500D03*
G54D19*
X40750Y-60763D03*
X40750Y-59937D03*
G54D20*
X46050Y-50000D03*
G54D21*
X46050Y-49000D03*
G54D20*
X46200Y-52000D03*
G54D21*
X46200Y-51000D03*
G54D20*
X45800Y-54000D03*
G54D21*
X45800Y-53000D03*
G54D20*
X45800Y-55000D03*
G54D21*
X45800Y-56000D03*
G54D20*
X45800Y-57000D03*
G54D21*
X45800Y-58000D03*
G54D20*
X46450Y-59000D03*
G54D21*
X46450Y-60000D03*
G54D20*
X41000Y-48000D03*
G54D21*
X40000Y-48000D03*
G54D20*
X45250Y-49000D03*
G54D21*
X45250Y-50000D03*
G54D12*
X38050Y-52275D03*
X38050Y-53025D03*
X38150Y-53825D03*
X38150Y-54575D03*
X38350Y-55125D03*
X38350Y-55875D03*
X38500Y-56425D03*
X38500Y-57175D03*
X38550Y-57775D03*
X38550Y-58525D03*
X38800Y-59075D03*
X38800Y-59825D03*
M02*
