G04 (created by PCBNEW (2013-07-07 BZR 4022)-stable) date 11/28/2013 9:42:38 AM*
%MOIN*%
G04 Gerber Fmt 3.4, Leading zero omitted, Abs format*
%FSLAX34Y34*%
G01*
G70*
G90*
G04 APERTURE LIST*
%ADD10C,0.00590551*%
%ADD11R,0.06X0.06*%
%ADD12C,0.06*%
%ADD13C,0.11811*%
%ADD14R,0.055X0.055*%
%ADD15C,0.055*%
G04 APERTURE END LIST*
G54D10*
G54D11*
X64000Y-58250D03*
G54D12*
X65000Y-58250D03*
X64000Y-59250D03*
X65000Y-59250D03*
X64000Y-60250D03*
X65000Y-60250D03*
X64000Y-61250D03*
X65000Y-61250D03*
X64000Y-62250D03*
X65000Y-62250D03*
X64000Y-63250D03*
X65000Y-63250D03*
X64000Y-64250D03*
X65000Y-64250D03*
X64000Y-65250D03*
X65000Y-65250D03*
X64000Y-66250D03*
X65000Y-66250D03*
X64000Y-67250D03*
X65000Y-67250D03*
G54D11*
X51500Y-54500D03*
G54D12*
X52500Y-54500D03*
X53500Y-54500D03*
G54D11*
X36250Y-50250D03*
G54D12*
X36250Y-51250D03*
X36250Y-52250D03*
X36250Y-53250D03*
X36250Y-54250D03*
X36250Y-55250D03*
G54D13*
X36500Y-48000D03*
X64500Y-48000D03*
X36500Y-66750D03*
G54D11*
X62500Y-64400D03*
X64000Y-55750D03*
X36250Y-59000D03*
G54D12*
X36250Y-60000D03*
X36250Y-61000D03*
X36250Y-62000D03*
X36250Y-63000D03*
X36250Y-64000D03*
G54D14*
X52500Y-52750D03*
G54D15*
X53500Y-52750D03*
M02*
