G04 (created by PCBNEW (2013-07-07 BZR 4022)-stable) date 07/12/2013 21:30:00*
%MOIN*%
G04 Gerber Fmt 3.4, Leading zero omitted, Abs format*
%FSLAX34Y34*%
G01*
G70*
G90*
G04 APERTURE LIST*
%ADD10C,0.00393701*%
%ADD11R,0.06X0.06*%
%ADD12C,0.06*%
%ADD13C,0.035*%
%ADD14C,0.011811*%
%ADD15C,0.019685*%
%ADD16C,0.00984252*%
G04 APERTURE END LIST*
G54D10*
G54D11*
X34150Y-18550D03*
G54D12*
X34150Y-17550D03*
X35150Y-18550D03*
X35150Y-17550D03*
X36150Y-18550D03*
X36150Y-17550D03*
X37150Y-18550D03*
X37150Y-17550D03*
G54D11*
X38950Y-8900D03*
G54D12*
X39950Y-8900D03*
G54D11*
X36950Y-8900D03*
G54D12*
X37950Y-8900D03*
G54D11*
X27165Y-12417D03*
G54D12*
X27165Y-11417D03*
G54D13*
X35620Y-13040D03*
X39540Y-16220D03*
X35720Y-16340D03*
X29700Y-14650D03*
X40300Y-17000D03*
X34880Y-14480D03*
X30550Y-17600D03*
X36250Y-14250D03*
X28750Y-19050D03*
X38050Y-13050D03*
X36476Y-13050D03*
G54D14*
X36960Y-14380D02*
X35620Y-13040D01*
X37700Y-14380D02*
X36960Y-14380D01*
X39540Y-16220D02*
X37700Y-14380D01*
X35660Y-18040D02*
X35150Y-18550D01*
X35660Y-16400D02*
X35660Y-18040D01*
X35720Y-16340D02*
X35660Y-16400D01*
G54D15*
X34150Y-17550D02*
X33750Y-17550D01*
X27467Y-12417D02*
X27165Y-12417D01*
X27467Y-12417D02*
X29700Y-14650D01*
X29700Y-17850D02*
X29700Y-14650D01*
X30150Y-18300D02*
X29700Y-17850D01*
X33000Y-18300D02*
X30150Y-18300D01*
X33750Y-17550D02*
X33000Y-18300D01*
X36950Y-8900D02*
X36950Y-8800D01*
X38450Y-8400D02*
X38950Y-8900D01*
X37350Y-8400D02*
X38450Y-8400D01*
X36950Y-8800D02*
X37350Y-8400D01*
X38950Y-8900D02*
X38950Y-13900D01*
X40300Y-15250D02*
X40300Y-17000D01*
X38950Y-13900D02*
X40300Y-15250D01*
G54D14*
X34150Y-18550D02*
X34660Y-18040D01*
X34660Y-14700D02*
X34880Y-14480D01*
X34660Y-18040D02*
X34660Y-14700D01*
X30550Y-17600D02*
X34250Y-13900D01*
X34250Y-13900D02*
X35900Y-13900D01*
X35900Y-13900D02*
X36250Y-14250D01*
X35150Y-17550D02*
X35150Y-17850D01*
X34600Y-19050D02*
X28750Y-19050D01*
X34650Y-19000D02*
X34600Y-19050D01*
X34650Y-18950D02*
X34650Y-19000D01*
X34650Y-18350D02*
X34650Y-18950D01*
X35150Y-17850D02*
X34650Y-18350D01*
X38050Y-13050D02*
X36476Y-13050D01*
G54D10*
G36*
X27915Y-9448D02*
X27888Y-9584D01*
X27810Y-9700D01*
X27695Y-9777D01*
X27558Y-9804D01*
X27423Y-9777D01*
X27306Y-9700D01*
X27230Y-9585D01*
X27203Y-9448D01*
X27230Y-9312D01*
X27306Y-9197D01*
X27423Y-9119D01*
X27558Y-9092D01*
X27695Y-9120D01*
X27810Y-9196D01*
X27888Y-9313D01*
X27915Y-9448D01*
X27915Y-9448D01*
G37*
G54D16*
X27915Y-9448D02*
X27888Y-9584D01*
X27810Y-9700D01*
X27695Y-9777D01*
X27558Y-9804D01*
X27423Y-9777D01*
X27306Y-9700D01*
X27230Y-9585D01*
X27203Y-9448D01*
X27230Y-9312D01*
X27306Y-9197D01*
X27423Y-9119D01*
X27558Y-9092D01*
X27695Y-9120D01*
X27810Y-9196D01*
X27888Y-9313D01*
X27915Y-9448D01*
G54D10*
G36*
X35433Y-17946D02*
X35281Y-18098D01*
X35243Y-18082D01*
X35237Y-18082D01*
X35310Y-18010D01*
X35310Y-18010D01*
X35329Y-17981D01*
X35414Y-17946D01*
X35433Y-17927D01*
X35433Y-17946D01*
X35433Y-17946D01*
G37*
G54D16*
X35433Y-17946D02*
X35281Y-18098D01*
X35243Y-18082D01*
X35237Y-18082D01*
X35310Y-18010D01*
X35310Y-18010D01*
X35329Y-17981D01*
X35414Y-17946D01*
X35433Y-17927D01*
X35433Y-17946D01*
G54D10*
G36*
X39849Y-18110D02*
X39823Y-18238D01*
X39750Y-18347D01*
X39642Y-18419D01*
X39513Y-18445D01*
X39385Y-18420D01*
X39276Y-18346D01*
X39204Y-18238D01*
X39178Y-18110D01*
X39204Y-17981D01*
X39276Y-17873D01*
X39385Y-17800D01*
X39513Y-17774D01*
X39642Y-17800D01*
X39750Y-17872D01*
X39823Y-17982D01*
X39849Y-18110D01*
X39849Y-18110D01*
G37*
G54D16*
X39849Y-18110D02*
X39823Y-18238D01*
X39750Y-18347D01*
X39642Y-18419D01*
X39513Y-18445D01*
X39385Y-18420D01*
X39276Y-18346D01*
X39204Y-18238D01*
X39178Y-18110D01*
X39204Y-17981D01*
X39276Y-17873D01*
X39385Y-17800D01*
X39513Y-17774D01*
X39642Y-17800D01*
X39750Y-17872D01*
X39823Y-17982D01*
X39849Y-18110D01*
G54D10*
G36*
X40748Y-19094D02*
X40283Y-19094D01*
X40283Y-18152D01*
X40283Y-18110D01*
X40283Y-18068D01*
X40283Y-18067D01*
X40283Y-18067D01*
X40241Y-17854D01*
X40208Y-17776D01*
X40208Y-17775D01*
X40088Y-17596D01*
X40088Y-17595D01*
X40028Y-17535D01*
X39882Y-17438D01*
X39882Y-16152D01*
X39830Y-16026D01*
X39734Y-15929D01*
X39608Y-15877D01*
X39517Y-15877D01*
X38392Y-14752D01*
X38392Y-12982D01*
X38340Y-12856D01*
X38244Y-12759D01*
X38118Y-12707D01*
X37982Y-12707D01*
X37856Y-12759D01*
X37792Y-12823D01*
X36734Y-12823D01*
X36671Y-12759D01*
X36545Y-12707D01*
X36409Y-12707D01*
X36283Y-12759D01*
X36186Y-12855D01*
X36134Y-12981D01*
X36134Y-13117D01*
X36186Y-13243D01*
X36282Y-13340D01*
X36408Y-13392D01*
X36544Y-13392D01*
X36670Y-13340D01*
X36734Y-13276D01*
X37792Y-13276D01*
X37855Y-13340D01*
X37981Y-13392D01*
X38117Y-13392D01*
X38243Y-13340D01*
X38340Y-13244D01*
X38392Y-13118D01*
X38392Y-12982D01*
X38392Y-14752D01*
X37860Y-14219D01*
X37786Y-14170D01*
X37700Y-14153D01*
X37053Y-14153D01*
X35962Y-13062D01*
X35962Y-12972D01*
X35910Y-12846D01*
X35814Y-12749D01*
X35688Y-12697D01*
X35552Y-12697D01*
X35426Y-12749D01*
X35329Y-12845D01*
X35277Y-12971D01*
X35277Y-13107D01*
X35329Y-13233D01*
X35425Y-13330D01*
X35551Y-13382D01*
X35642Y-13382D01*
X35941Y-13681D01*
X35900Y-13673D01*
X34250Y-13673D01*
X34163Y-13690D01*
X34089Y-13739D01*
X30572Y-17257D01*
X30482Y-17257D01*
X30356Y-17309D01*
X30259Y-17405D01*
X30207Y-17531D01*
X30207Y-17667D01*
X30259Y-17793D01*
X30355Y-17890D01*
X30481Y-17942D01*
X30617Y-17942D01*
X30743Y-17890D01*
X30840Y-17794D01*
X30892Y-17668D01*
X30892Y-17577D01*
X34343Y-14126D01*
X35806Y-14126D01*
X35907Y-14227D01*
X35907Y-14317D01*
X35959Y-14443D01*
X36055Y-14540D01*
X36181Y-14592D01*
X36317Y-14592D01*
X36443Y-14540D01*
X36540Y-14444D01*
X36588Y-14328D01*
X36799Y-14540D01*
X36799Y-14540D01*
X36873Y-14589D01*
X36960Y-14606D01*
X37606Y-14606D01*
X39197Y-16197D01*
X39197Y-16287D01*
X39249Y-16413D01*
X39345Y-16510D01*
X39471Y-16562D01*
X39607Y-16562D01*
X39733Y-16510D01*
X39830Y-16414D01*
X39882Y-16288D01*
X39882Y-16152D01*
X39882Y-17438D01*
X39847Y-17415D01*
X39769Y-17382D01*
X39768Y-17382D01*
X39556Y-17340D01*
X39555Y-17340D01*
X39471Y-17340D01*
X39258Y-17382D01*
X39179Y-17415D01*
X39179Y-17415D01*
X38999Y-17535D01*
X38999Y-17535D01*
X38939Y-17595D01*
X38818Y-17776D01*
X38786Y-17854D01*
X38786Y-17855D01*
X38743Y-18067D01*
X38743Y-18067D01*
X38743Y-18068D01*
X38743Y-18110D01*
X38743Y-18152D01*
X38743Y-18152D01*
X38743Y-18152D01*
X38786Y-18364D01*
X38786Y-18365D01*
X38818Y-18443D01*
X38939Y-18624D01*
X38999Y-18684D01*
X38999Y-18684D01*
X39179Y-18804D01*
X39179Y-18805D01*
X39258Y-18837D01*
X39471Y-18880D01*
X39555Y-18880D01*
X39556Y-18880D01*
X39768Y-18837D01*
X39769Y-18837D01*
X39847Y-18805D01*
X40028Y-18684D01*
X40088Y-18624D01*
X40088Y-18624D01*
X40208Y-18444D01*
X40208Y-18444D01*
X40241Y-18365D01*
X40283Y-18152D01*
X40283Y-18152D01*
X40283Y-18152D01*
X40283Y-19094D01*
X37617Y-19094D01*
X37617Y-18457D01*
X37617Y-17457D01*
X37546Y-17285D01*
X37415Y-17154D01*
X37243Y-17082D01*
X37057Y-17082D01*
X36885Y-17153D01*
X36754Y-17284D01*
X36682Y-17456D01*
X36682Y-17642D01*
X36753Y-17814D01*
X36884Y-17945D01*
X37056Y-18017D01*
X37242Y-18017D01*
X37414Y-17946D01*
X37545Y-17815D01*
X37617Y-17643D01*
X37617Y-17457D01*
X37617Y-18457D01*
X37546Y-18285D01*
X37415Y-18154D01*
X37243Y-18082D01*
X37057Y-18082D01*
X36885Y-18153D01*
X36754Y-18284D01*
X36682Y-18456D01*
X36682Y-18642D01*
X36753Y-18814D01*
X36884Y-18945D01*
X37056Y-19017D01*
X37242Y-19017D01*
X37414Y-18946D01*
X37545Y-18815D01*
X37617Y-18643D01*
X37617Y-18457D01*
X37617Y-19094D01*
X36617Y-19094D01*
X36617Y-18457D01*
X36546Y-18285D01*
X36415Y-18154D01*
X36243Y-18082D01*
X36057Y-18082D01*
X35885Y-18153D01*
X35754Y-18284D01*
X35682Y-18456D01*
X35682Y-18642D01*
X35753Y-18814D01*
X35884Y-18945D01*
X36056Y-19017D01*
X36242Y-19017D01*
X36414Y-18946D01*
X36545Y-18815D01*
X36617Y-18643D01*
X36617Y-18457D01*
X36617Y-19094D01*
X34853Y-19094D01*
X34859Y-19086D01*
X34876Y-19000D01*
X34876Y-19000D01*
X34876Y-18950D01*
X34876Y-18937D01*
X34884Y-18945D01*
X35056Y-19017D01*
X35242Y-19017D01*
X35414Y-18946D01*
X35545Y-18815D01*
X35617Y-18643D01*
X35617Y-18457D01*
X35601Y-18418D01*
X35820Y-18200D01*
X35820Y-18200D01*
X35869Y-18126D01*
X35886Y-18040D01*
X35886Y-18040D01*
X35886Y-17946D01*
X36056Y-18017D01*
X36242Y-18017D01*
X36414Y-17946D01*
X36545Y-17815D01*
X36617Y-17643D01*
X36617Y-17457D01*
X36546Y-17285D01*
X36415Y-17154D01*
X36243Y-17082D01*
X36057Y-17082D01*
X35886Y-17153D01*
X35886Y-16641D01*
X35913Y-16630D01*
X36010Y-16534D01*
X36062Y-16408D01*
X36062Y-16272D01*
X36010Y-16146D01*
X35914Y-16049D01*
X35788Y-15997D01*
X35652Y-15997D01*
X35526Y-16049D01*
X35429Y-16145D01*
X35377Y-16271D01*
X35377Y-16407D01*
X35429Y-16533D01*
X35433Y-16537D01*
X35433Y-17172D01*
X35415Y-17154D01*
X35243Y-17082D01*
X35057Y-17082D01*
X34886Y-17153D01*
X34886Y-14822D01*
X34947Y-14822D01*
X35073Y-14770D01*
X35170Y-14674D01*
X35222Y-14548D01*
X35222Y-14412D01*
X35170Y-14286D01*
X35074Y-14189D01*
X34948Y-14137D01*
X34812Y-14137D01*
X34686Y-14189D01*
X34589Y-14285D01*
X34537Y-14411D01*
X34537Y-14502D01*
X34499Y-14539D01*
X34450Y-14613D01*
X34433Y-14700D01*
X34433Y-17172D01*
X34415Y-17154D01*
X34243Y-17082D01*
X34057Y-17082D01*
X33885Y-17153D01*
X33754Y-17284D01*
X33750Y-17284D01*
X33648Y-17304D01*
X33562Y-17362D01*
X33562Y-17362D01*
X33562Y-17362D01*
X32889Y-18034D01*
X30260Y-18034D01*
X29965Y-17739D01*
X29965Y-14868D01*
X29990Y-14844D01*
X30042Y-14718D01*
X30042Y-14582D01*
X29990Y-14456D01*
X29894Y-14359D01*
X29768Y-14307D01*
X29733Y-14307D01*
X28309Y-12883D01*
X28309Y-9487D01*
X28309Y-9448D01*
X28309Y-9410D01*
X28309Y-9410D01*
X28309Y-9410D01*
X28266Y-9197D01*
X28237Y-9126D01*
X28236Y-9125D01*
X28116Y-8946D01*
X28116Y-8945D01*
X28062Y-8891D01*
X27881Y-8770D01*
X27810Y-8741D01*
X27809Y-8741D01*
X27598Y-8699D01*
X27597Y-8698D01*
X27520Y-8698D01*
X27307Y-8741D01*
X27236Y-8770D01*
X27235Y-8771D01*
X27056Y-8891D01*
X27055Y-8891D01*
X27001Y-8945D01*
X26880Y-9126D01*
X26851Y-9197D01*
X26851Y-9198D01*
X26809Y-9410D01*
X26809Y-9410D01*
X26809Y-9410D01*
X26809Y-9448D01*
X26809Y-9487D01*
X26809Y-9487D01*
X26809Y-9487D01*
X26851Y-9699D01*
X26851Y-9700D01*
X26880Y-9771D01*
X27001Y-9951D01*
X27055Y-10006D01*
X27056Y-10006D01*
X27235Y-10126D01*
X27236Y-10126D01*
X27307Y-10156D01*
X27520Y-10198D01*
X27597Y-10198D01*
X27598Y-10198D01*
X27809Y-10156D01*
X27810Y-10156D01*
X27881Y-10126D01*
X28062Y-10006D01*
X28116Y-9952D01*
X28116Y-9951D01*
X28236Y-9772D01*
X28237Y-9771D01*
X28266Y-9700D01*
X28309Y-9487D01*
X28309Y-9487D01*
X28309Y-9487D01*
X28309Y-12883D01*
X27655Y-12229D01*
X27632Y-12214D01*
X27632Y-11324D01*
X27561Y-11152D01*
X27430Y-11021D01*
X27258Y-10950D01*
X27072Y-10949D01*
X26900Y-11020D01*
X26769Y-11152D01*
X26698Y-11323D01*
X26697Y-11509D01*
X26768Y-11681D01*
X26900Y-11813D01*
X27071Y-11884D01*
X27257Y-11884D01*
X27429Y-11813D01*
X27561Y-11682D01*
X27632Y-11510D01*
X27632Y-11324D01*
X27632Y-12214D01*
X27632Y-12214D01*
X27632Y-12214D01*
X27632Y-12084D01*
X27607Y-12022D01*
X27560Y-11975D01*
X27498Y-11950D01*
X27432Y-11949D01*
X26832Y-11949D01*
X26770Y-11975D01*
X26723Y-12022D01*
X26698Y-12083D01*
X26698Y-12150D01*
X26698Y-12750D01*
X26723Y-12811D01*
X26770Y-12859D01*
X26831Y-12884D01*
X26898Y-12884D01*
X27498Y-12884D01*
X27541Y-12867D01*
X29357Y-14683D01*
X29357Y-14717D01*
X29409Y-14843D01*
X29434Y-14868D01*
X29434Y-17850D01*
X29454Y-17951D01*
X29512Y-18037D01*
X29962Y-18487D01*
X30048Y-18545D01*
X30048Y-18545D01*
X30150Y-18565D01*
X33000Y-18565D01*
X33101Y-18545D01*
X33101Y-18545D01*
X33187Y-18487D01*
X33807Y-17868D01*
X33884Y-17945D01*
X34056Y-18017D01*
X34242Y-18017D01*
X34414Y-17946D01*
X34433Y-17927D01*
X34433Y-17946D01*
X34297Y-18082D01*
X33816Y-18082D01*
X33755Y-18108D01*
X33708Y-18155D01*
X33682Y-18216D01*
X33682Y-18283D01*
X33682Y-18823D01*
X29007Y-18823D01*
X28944Y-18759D01*
X28818Y-18707D01*
X28682Y-18707D01*
X28556Y-18759D01*
X28459Y-18855D01*
X28407Y-18981D01*
X28407Y-19094D01*
X26574Y-19094D01*
X26574Y-8464D01*
X36548Y-8464D01*
X36508Y-8505D01*
X36482Y-8566D01*
X36482Y-8633D01*
X36482Y-9233D01*
X36508Y-9294D01*
X36555Y-9341D01*
X36616Y-9367D01*
X36683Y-9367D01*
X37283Y-9367D01*
X37344Y-9341D01*
X37391Y-9294D01*
X37417Y-9233D01*
X37417Y-9166D01*
X37417Y-8708D01*
X37460Y-8665D01*
X37541Y-8665D01*
X37482Y-8806D01*
X37482Y-8992D01*
X37553Y-9164D01*
X37684Y-9295D01*
X37856Y-9367D01*
X38042Y-9367D01*
X38214Y-9296D01*
X38345Y-9165D01*
X38417Y-8993D01*
X38417Y-8807D01*
X38372Y-8698D01*
X38482Y-8808D01*
X38482Y-9233D01*
X38508Y-9294D01*
X38555Y-9341D01*
X38616Y-9367D01*
X38683Y-9367D01*
X38684Y-9367D01*
X38684Y-13900D01*
X38704Y-14001D01*
X38762Y-14087D01*
X40034Y-15360D01*
X40034Y-16781D01*
X40009Y-16805D01*
X39957Y-16931D01*
X39957Y-17067D01*
X40009Y-17193D01*
X40105Y-17290D01*
X40231Y-17342D01*
X40367Y-17342D01*
X40493Y-17290D01*
X40590Y-17194D01*
X40642Y-17068D01*
X40642Y-16932D01*
X40590Y-16806D01*
X40565Y-16781D01*
X40565Y-15250D01*
X40545Y-15148D01*
X40545Y-15148D01*
X40487Y-15062D01*
X39215Y-13789D01*
X39215Y-9367D01*
X39283Y-9367D01*
X39344Y-9341D01*
X39391Y-9294D01*
X39417Y-9233D01*
X39417Y-9166D01*
X39417Y-8566D01*
X39391Y-8505D01*
X39351Y-8464D01*
X39780Y-8464D01*
X39685Y-8503D01*
X39554Y-8634D01*
X39482Y-8806D01*
X39482Y-8992D01*
X39553Y-9164D01*
X39684Y-9295D01*
X39856Y-9367D01*
X40042Y-9367D01*
X40214Y-9296D01*
X40345Y-9165D01*
X40417Y-8993D01*
X40417Y-8807D01*
X40346Y-8635D01*
X40215Y-8504D01*
X40119Y-8464D01*
X40748Y-8464D01*
X40748Y-19094D01*
X40748Y-19094D01*
G37*
G54D16*
X40748Y-19094D02*
X40283Y-19094D01*
X40283Y-18152D01*
X40283Y-18110D01*
X40283Y-18068D01*
X40283Y-18067D01*
X40283Y-18067D01*
X40241Y-17854D01*
X40208Y-17776D01*
X40208Y-17775D01*
X40088Y-17596D01*
X40088Y-17595D01*
X40028Y-17535D01*
X39882Y-17438D01*
X39882Y-16152D01*
X39830Y-16026D01*
X39734Y-15929D01*
X39608Y-15877D01*
X39517Y-15877D01*
X38392Y-14752D01*
X38392Y-12982D01*
X38340Y-12856D01*
X38244Y-12759D01*
X38118Y-12707D01*
X37982Y-12707D01*
X37856Y-12759D01*
X37792Y-12823D01*
X36734Y-12823D01*
X36671Y-12759D01*
X36545Y-12707D01*
X36409Y-12707D01*
X36283Y-12759D01*
X36186Y-12855D01*
X36134Y-12981D01*
X36134Y-13117D01*
X36186Y-13243D01*
X36282Y-13340D01*
X36408Y-13392D01*
X36544Y-13392D01*
X36670Y-13340D01*
X36734Y-13276D01*
X37792Y-13276D01*
X37855Y-13340D01*
X37981Y-13392D01*
X38117Y-13392D01*
X38243Y-13340D01*
X38340Y-13244D01*
X38392Y-13118D01*
X38392Y-12982D01*
X38392Y-14752D01*
X37860Y-14219D01*
X37786Y-14170D01*
X37700Y-14153D01*
X37053Y-14153D01*
X35962Y-13062D01*
X35962Y-12972D01*
X35910Y-12846D01*
X35814Y-12749D01*
X35688Y-12697D01*
X35552Y-12697D01*
X35426Y-12749D01*
X35329Y-12845D01*
X35277Y-12971D01*
X35277Y-13107D01*
X35329Y-13233D01*
X35425Y-13330D01*
X35551Y-13382D01*
X35642Y-13382D01*
X35941Y-13681D01*
X35900Y-13673D01*
X34250Y-13673D01*
X34163Y-13690D01*
X34089Y-13739D01*
X30572Y-17257D01*
X30482Y-17257D01*
X30356Y-17309D01*
X30259Y-17405D01*
X30207Y-17531D01*
X30207Y-17667D01*
X30259Y-17793D01*
X30355Y-17890D01*
X30481Y-17942D01*
X30617Y-17942D01*
X30743Y-17890D01*
X30840Y-17794D01*
X30892Y-17668D01*
X30892Y-17577D01*
X34343Y-14126D01*
X35806Y-14126D01*
X35907Y-14227D01*
X35907Y-14317D01*
X35959Y-14443D01*
X36055Y-14540D01*
X36181Y-14592D01*
X36317Y-14592D01*
X36443Y-14540D01*
X36540Y-14444D01*
X36588Y-14328D01*
X36799Y-14540D01*
X36799Y-14540D01*
X36873Y-14589D01*
X36960Y-14606D01*
X37606Y-14606D01*
X39197Y-16197D01*
X39197Y-16287D01*
X39249Y-16413D01*
X39345Y-16510D01*
X39471Y-16562D01*
X39607Y-16562D01*
X39733Y-16510D01*
X39830Y-16414D01*
X39882Y-16288D01*
X39882Y-16152D01*
X39882Y-17438D01*
X39847Y-17415D01*
X39769Y-17382D01*
X39768Y-17382D01*
X39556Y-17340D01*
X39555Y-17340D01*
X39471Y-17340D01*
X39258Y-17382D01*
X39179Y-17415D01*
X39179Y-17415D01*
X38999Y-17535D01*
X38999Y-17535D01*
X38939Y-17595D01*
X38818Y-17776D01*
X38786Y-17854D01*
X38786Y-17855D01*
X38743Y-18067D01*
X38743Y-18067D01*
X38743Y-18068D01*
X38743Y-18110D01*
X38743Y-18152D01*
X38743Y-18152D01*
X38743Y-18152D01*
X38786Y-18364D01*
X38786Y-18365D01*
X38818Y-18443D01*
X38939Y-18624D01*
X38999Y-18684D01*
X38999Y-18684D01*
X39179Y-18804D01*
X39179Y-18805D01*
X39258Y-18837D01*
X39471Y-18880D01*
X39555Y-18880D01*
X39556Y-18880D01*
X39768Y-18837D01*
X39769Y-18837D01*
X39847Y-18805D01*
X40028Y-18684D01*
X40088Y-18624D01*
X40088Y-18624D01*
X40208Y-18444D01*
X40208Y-18444D01*
X40241Y-18365D01*
X40283Y-18152D01*
X40283Y-18152D01*
X40283Y-18152D01*
X40283Y-19094D01*
X37617Y-19094D01*
X37617Y-18457D01*
X37617Y-17457D01*
X37546Y-17285D01*
X37415Y-17154D01*
X37243Y-17082D01*
X37057Y-17082D01*
X36885Y-17153D01*
X36754Y-17284D01*
X36682Y-17456D01*
X36682Y-17642D01*
X36753Y-17814D01*
X36884Y-17945D01*
X37056Y-18017D01*
X37242Y-18017D01*
X37414Y-17946D01*
X37545Y-17815D01*
X37617Y-17643D01*
X37617Y-17457D01*
X37617Y-18457D01*
X37546Y-18285D01*
X37415Y-18154D01*
X37243Y-18082D01*
X37057Y-18082D01*
X36885Y-18153D01*
X36754Y-18284D01*
X36682Y-18456D01*
X36682Y-18642D01*
X36753Y-18814D01*
X36884Y-18945D01*
X37056Y-19017D01*
X37242Y-19017D01*
X37414Y-18946D01*
X37545Y-18815D01*
X37617Y-18643D01*
X37617Y-18457D01*
X37617Y-19094D01*
X36617Y-19094D01*
X36617Y-18457D01*
X36546Y-18285D01*
X36415Y-18154D01*
X36243Y-18082D01*
X36057Y-18082D01*
X35885Y-18153D01*
X35754Y-18284D01*
X35682Y-18456D01*
X35682Y-18642D01*
X35753Y-18814D01*
X35884Y-18945D01*
X36056Y-19017D01*
X36242Y-19017D01*
X36414Y-18946D01*
X36545Y-18815D01*
X36617Y-18643D01*
X36617Y-18457D01*
X36617Y-19094D01*
X34853Y-19094D01*
X34859Y-19086D01*
X34876Y-19000D01*
X34876Y-19000D01*
X34876Y-18950D01*
X34876Y-18937D01*
X34884Y-18945D01*
X35056Y-19017D01*
X35242Y-19017D01*
X35414Y-18946D01*
X35545Y-18815D01*
X35617Y-18643D01*
X35617Y-18457D01*
X35601Y-18418D01*
X35820Y-18200D01*
X35820Y-18200D01*
X35869Y-18126D01*
X35886Y-18040D01*
X35886Y-18040D01*
X35886Y-17946D01*
X36056Y-18017D01*
X36242Y-18017D01*
X36414Y-17946D01*
X36545Y-17815D01*
X36617Y-17643D01*
X36617Y-17457D01*
X36546Y-17285D01*
X36415Y-17154D01*
X36243Y-17082D01*
X36057Y-17082D01*
X35886Y-17153D01*
X35886Y-16641D01*
X35913Y-16630D01*
X36010Y-16534D01*
X36062Y-16408D01*
X36062Y-16272D01*
X36010Y-16146D01*
X35914Y-16049D01*
X35788Y-15997D01*
X35652Y-15997D01*
X35526Y-16049D01*
X35429Y-16145D01*
X35377Y-16271D01*
X35377Y-16407D01*
X35429Y-16533D01*
X35433Y-16537D01*
X35433Y-17172D01*
X35415Y-17154D01*
X35243Y-17082D01*
X35057Y-17082D01*
X34886Y-17153D01*
X34886Y-14822D01*
X34947Y-14822D01*
X35073Y-14770D01*
X35170Y-14674D01*
X35222Y-14548D01*
X35222Y-14412D01*
X35170Y-14286D01*
X35074Y-14189D01*
X34948Y-14137D01*
X34812Y-14137D01*
X34686Y-14189D01*
X34589Y-14285D01*
X34537Y-14411D01*
X34537Y-14502D01*
X34499Y-14539D01*
X34450Y-14613D01*
X34433Y-14700D01*
X34433Y-17172D01*
X34415Y-17154D01*
X34243Y-17082D01*
X34057Y-17082D01*
X33885Y-17153D01*
X33754Y-17284D01*
X33750Y-17284D01*
X33648Y-17304D01*
X33562Y-17362D01*
X33562Y-17362D01*
X33562Y-17362D01*
X32889Y-18034D01*
X30260Y-18034D01*
X29965Y-17739D01*
X29965Y-14868D01*
X29990Y-14844D01*
X30042Y-14718D01*
X30042Y-14582D01*
X29990Y-14456D01*
X29894Y-14359D01*
X29768Y-14307D01*
X29733Y-14307D01*
X28309Y-12883D01*
X28309Y-9487D01*
X28309Y-9448D01*
X28309Y-9410D01*
X28309Y-9410D01*
X28309Y-9410D01*
X28266Y-9197D01*
X28237Y-9126D01*
X28236Y-9125D01*
X28116Y-8946D01*
X28116Y-8945D01*
X28062Y-8891D01*
X27881Y-8770D01*
X27810Y-8741D01*
X27809Y-8741D01*
X27598Y-8699D01*
X27597Y-8698D01*
X27520Y-8698D01*
X27307Y-8741D01*
X27236Y-8770D01*
X27235Y-8771D01*
X27056Y-8891D01*
X27055Y-8891D01*
X27001Y-8945D01*
X26880Y-9126D01*
X26851Y-9197D01*
X26851Y-9198D01*
X26809Y-9410D01*
X26809Y-9410D01*
X26809Y-9410D01*
X26809Y-9448D01*
X26809Y-9487D01*
X26809Y-9487D01*
X26809Y-9487D01*
X26851Y-9699D01*
X26851Y-9700D01*
X26880Y-9771D01*
X27001Y-9951D01*
X27055Y-10006D01*
X27056Y-10006D01*
X27235Y-10126D01*
X27236Y-10126D01*
X27307Y-10156D01*
X27520Y-10198D01*
X27597Y-10198D01*
X27598Y-10198D01*
X27809Y-10156D01*
X27810Y-10156D01*
X27881Y-10126D01*
X28062Y-10006D01*
X28116Y-9952D01*
X28116Y-9951D01*
X28236Y-9772D01*
X28237Y-9771D01*
X28266Y-9700D01*
X28309Y-9487D01*
X28309Y-9487D01*
X28309Y-9487D01*
X28309Y-12883D01*
X27655Y-12229D01*
X27632Y-12214D01*
X27632Y-11324D01*
X27561Y-11152D01*
X27430Y-11021D01*
X27258Y-10950D01*
X27072Y-10949D01*
X26900Y-11020D01*
X26769Y-11152D01*
X26698Y-11323D01*
X26697Y-11509D01*
X26768Y-11681D01*
X26900Y-11813D01*
X27071Y-11884D01*
X27257Y-11884D01*
X27429Y-11813D01*
X27561Y-11682D01*
X27632Y-11510D01*
X27632Y-11324D01*
X27632Y-12214D01*
X27632Y-12214D01*
X27632Y-12214D01*
X27632Y-12084D01*
X27607Y-12022D01*
X27560Y-11975D01*
X27498Y-11950D01*
X27432Y-11949D01*
X26832Y-11949D01*
X26770Y-11975D01*
X26723Y-12022D01*
X26698Y-12083D01*
X26698Y-12150D01*
X26698Y-12750D01*
X26723Y-12811D01*
X26770Y-12859D01*
X26831Y-12884D01*
X26898Y-12884D01*
X27498Y-12884D01*
X27541Y-12867D01*
X29357Y-14683D01*
X29357Y-14717D01*
X29409Y-14843D01*
X29434Y-14868D01*
X29434Y-17850D01*
X29454Y-17951D01*
X29512Y-18037D01*
X29962Y-18487D01*
X30048Y-18545D01*
X30048Y-18545D01*
X30150Y-18565D01*
X33000Y-18565D01*
X33101Y-18545D01*
X33101Y-18545D01*
X33187Y-18487D01*
X33807Y-17868D01*
X33884Y-17945D01*
X34056Y-18017D01*
X34242Y-18017D01*
X34414Y-17946D01*
X34433Y-17927D01*
X34433Y-17946D01*
X34297Y-18082D01*
X33816Y-18082D01*
X33755Y-18108D01*
X33708Y-18155D01*
X33682Y-18216D01*
X33682Y-18283D01*
X33682Y-18823D01*
X29007Y-18823D01*
X28944Y-18759D01*
X28818Y-18707D01*
X28682Y-18707D01*
X28556Y-18759D01*
X28459Y-18855D01*
X28407Y-18981D01*
X28407Y-19094D01*
X26574Y-19094D01*
X26574Y-8464D01*
X36548Y-8464D01*
X36508Y-8505D01*
X36482Y-8566D01*
X36482Y-8633D01*
X36482Y-9233D01*
X36508Y-9294D01*
X36555Y-9341D01*
X36616Y-9367D01*
X36683Y-9367D01*
X37283Y-9367D01*
X37344Y-9341D01*
X37391Y-9294D01*
X37417Y-9233D01*
X37417Y-9166D01*
X37417Y-8708D01*
X37460Y-8665D01*
X37541Y-8665D01*
X37482Y-8806D01*
X37482Y-8992D01*
X37553Y-9164D01*
X37684Y-9295D01*
X37856Y-9367D01*
X38042Y-9367D01*
X38214Y-9296D01*
X38345Y-9165D01*
X38417Y-8993D01*
X38417Y-8807D01*
X38372Y-8698D01*
X38482Y-8808D01*
X38482Y-9233D01*
X38508Y-9294D01*
X38555Y-9341D01*
X38616Y-9367D01*
X38683Y-9367D01*
X38684Y-9367D01*
X38684Y-13900D01*
X38704Y-14001D01*
X38762Y-14087D01*
X40034Y-15360D01*
X40034Y-16781D01*
X40009Y-16805D01*
X39957Y-16931D01*
X39957Y-17067D01*
X40009Y-17193D01*
X40105Y-17290D01*
X40231Y-17342D01*
X40367Y-17342D01*
X40493Y-17290D01*
X40590Y-17194D01*
X40642Y-17068D01*
X40642Y-16932D01*
X40590Y-16806D01*
X40565Y-16781D01*
X40565Y-15250D01*
X40545Y-15148D01*
X40545Y-15148D01*
X40487Y-15062D01*
X39215Y-13789D01*
X39215Y-9367D01*
X39283Y-9367D01*
X39344Y-9341D01*
X39391Y-9294D01*
X39417Y-9233D01*
X39417Y-9166D01*
X39417Y-8566D01*
X39391Y-8505D01*
X39351Y-8464D01*
X39780Y-8464D01*
X39685Y-8503D01*
X39554Y-8634D01*
X39482Y-8806D01*
X39482Y-8992D01*
X39553Y-9164D01*
X39684Y-9295D01*
X39856Y-9367D01*
X40042Y-9367D01*
X40214Y-9296D01*
X40345Y-9165D01*
X40417Y-8993D01*
X40417Y-8807D01*
X40346Y-8635D01*
X40215Y-8504D01*
X40119Y-8464D01*
X40748Y-8464D01*
X40748Y-19094D01*
M02*
