G04 (created by PCBNEW (2013-07-07 BZR 4022)-stable) date 07/12/2013 21:30:00*
%MOIN*%
G04 Gerber Fmt 3.4, Leading zero omitted, Abs format*
%FSLAX34Y34*%
G01*
G70*
G90*
G04 APERTURE LIST*
%ADD10C,0.00393701*%
%ADD11R,0.0579X0.0165*%
%ADD12R,0.0276X0.063*%
%ADD13R,0.0276X0.0827*%
%ADD14R,0.0787X0.1083*%
%ADD15R,0.06X0.08*%
%ADD16R,0.08X0.06*%
%ADD17R,0.035X0.055*%
%ADD18R,0.2165X0.0787*%
%ADD19R,0.06X0.06*%
%ADD20C,0.06*%
%ADD21R,0.0709X0.0629*%
%ADD22R,0.1417X0.063*%
%ADD23R,0.1024X0.063*%
%ADD24C,0.035*%
%ADD25C,0.019685*%
%ADD26C,0.011811*%
%ADD27C,0.00984252*%
G04 APERTURE END LIST*
G54D10*
G54D11*
X35512Y-14438D03*
X35512Y-14694D03*
X35512Y-14950D03*
X35512Y-15206D03*
X37714Y-13674D03*
X35512Y-13670D03*
X35512Y-13926D03*
X35512Y-14182D03*
X37716Y-15462D03*
X37716Y-15206D03*
X37716Y-14950D03*
X37716Y-14694D03*
X37716Y-14438D03*
X37716Y-14182D03*
X35512Y-15462D03*
X37714Y-13926D03*
X35512Y-13414D03*
X35512Y-15718D03*
X37716Y-15718D03*
X37716Y-13414D03*
G54D12*
X29724Y-11751D03*
G54D13*
X29133Y-11849D03*
G54D12*
X28542Y-11751D03*
G54D14*
X29133Y-12794D03*
G54D15*
X40170Y-16220D03*
X38870Y-16220D03*
G54D16*
X31700Y-17550D03*
X31700Y-18850D03*
G54D15*
X30700Y-13700D03*
X32000Y-13700D03*
X33050Y-13700D03*
X34350Y-13700D03*
G54D16*
X32850Y-9200D03*
X32850Y-10500D03*
X32750Y-17550D03*
X32750Y-18850D03*
X33800Y-11400D03*
X33800Y-12700D03*
X35150Y-10450D03*
X35150Y-9150D03*
X33400Y-16350D03*
X33400Y-15050D03*
X34850Y-12700D03*
X34850Y-11400D03*
G54D15*
X38950Y-14800D03*
X40250Y-14800D03*
X38950Y-13750D03*
X40250Y-13750D03*
X38950Y-12200D03*
X40250Y-12200D03*
X36650Y-12200D03*
X37950Y-12200D03*
X40250Y-11150D03*
X38950Y-11150D03*
X40250Y-10100D03*
X38950Y-10100D03*
X37950Y-10100D03*
X36650Y-10100D03*
X37950Y-11150D03*
X36650Y-11150D03*
G54D17*
X27925Y-14650D03*
X28675Y-14650D03*
X31575Y-14650D03*
X30825Y-14650D03*
G54D18*
X27900Y-16100D03*
X31600Y-16100D03*
G54D19*
X34150Y-18550D03*
G54D20*
X34150Y-17550D03*
X35150Y-18550D03*
X35150Y-17550D03*
X36150Y-18550D03*
X36150Y-17550D03*
X37150Y-18550D03*
X37150Y-17550D03*
G54D19*
X38950Y-8900D03*
G54D20*
X39950Y-8900D03*
G54D19*
X36950Y-8900D03*
G54D20*
X37950Y-8900D03*
G54D19*
X27165Y-12417D03*
G54D20*
X27165Y-11417D03*
G54D21*
X34000Y-9291D03*
X34000Y-10409D03*
G54D22*
X29231Y-9842D03*
X31397Y-9842D03*
G54D23*
X32409Y-12150D03*
X30991Y-12150D03*
G54D15*
X26900Y-18350D03*
X28200Y-18350D03*
X29300Y-18350D03*
X30600Y-18350D03*
G54D24*
X35620Y-13040D03*
X39540Y-16220D03*
X35720Y-16340D03*
X29700Y-14650D03*
X40300Y-17000D03*
X34880Y-14480D03*
X30550Y-17600D03*
X36250Y-14250D03*
X28750Y-19050D03*
X38050Y-13050D03*
X36476Y-13050D03*
G54D25*
X28542Y-11751D02*
X27991Y-11751D01*
X27991Y-11751D02*
X27657Y-11417D01*
X27165Y-11417D02*
X27657Y-11417D01*
X27657Y-11417D02*
X29231Y-9842D01*
X33050Y-13700D02*
X33050Y-13050D01*
X30700Y-13700D02*
X30700Y-13150D01*
X33400Y-12700D02*
X33800Y-12700D01*
X33050Y-13050D02*
X33400Y-12700D01*
X30800Y-13050D02*
X33050Y-13050D01*
X30700Y-13150D02*
X30800Y-13050D01*
X31700Y-17550D02*
X31100Y-17550D01*
X30200Y-13700D02*
X30700Y-13700D01*
X29800Y-14100D02*
X30200Y-13700D01*
X26900Y-14100D02*
X29800Y-14100D01*
X26600Y-14400D02*
X26900Y-14100D01*
X26600Y-16900D02*
X26600Y-14400D01*
X26900Y-17200D02*
X26600Y-16900D01*
X30750Y-17200D02*
X26900Y-17200D01*
X31100Y-17550D02*
X30750Y-17200D01*
G54D26*
X40170Y-16220D02*
X39540Y-16220D01*
X35512Y-13147D02*
X35512Y-13414D01*
X35620Y-13040D02*
X35512Y-13147D01*
G54D25*
X32750Y-17550D02*
X31700Y-17550D01*
G54D26*
X34950Y-12700D02*
X34950Y-13250D01*
G54D25*
X33800Y-12700D02*
X34950Y-12700D01*
G54D26*
X34950Y-13250D02*
X35114Y-13414D01*
X35114Y-13414D02*
X35512Y-13414D01*
X35512Y-15206D02*
X35906Y-15206D01*
X35980Y-16080D02*
X35720Y-16340D01*
X35980Y-15280D02*
X35980Y-16080D01*
X35906Y-15206D02*
X35980Y-15280D01*
X35512Y-15206D02*
X34656Y-15206D01*
X32000Y-14150D02*
X32000Y-13700D01*
X32300Y-14450D02*
X32000Y-14150D01*
X33900Y-14450D02*
X32300Y-14450D01*
X34656Y-15206D02*
X33900Y-14450D01*
X34880Y-14480D02*
X34655Y-14705D01*
X35512Y-14950D02*
X34900Y-14950D01*
X34350Y-14400D02*
X34350Y-13700D01*
X34900Y-14950D02*
X34655Y-14705D01*
X34655Y-14705D02*
X34350Y-14400D01*
X26900Y-18350D02*
X26900Y-18200D01*
X26900Y-18200D02*
X27400Y-17700D01*
X27400Y-17700D02*
X30450Y-17700D01*
X30450Y-17700D02*
X30550Y-17600D01*
X36250Y-14250D02*
X36182Y-14182D01*
X36182Y-14182D02*
X35512Y-14182D01*
X28750Y-19050D02*
X28750Y-18400D01*
X28750Y-18400D02*
X28750Y-18350D01*
X28750Y-18350D02*
X28750Y-18400D01*
X28750Y-18400D02*
X28750Y-18350D01*
G54D25*
X28200Y-18350D02*
X28750Y-18350D01*
X28750Y-18350D02*
X29300Y-18350D01*
G54D26*
X32750Y-18850D02*
X33310Y-18850D01*
X35580Y-19120D02*
X36150Y-18550D01*
X33580Y-19120D02*
X35580Y-19120D01*
X33310Y-18850D02*
X33580Y-19120D01*
X37716Y-15206D02*
X37253Y-15206D01*
X36660Y-18040D02*
X36150Y-18550D01*
X36660Y-15800D02*
X36660Y-18040D01*
X37253Y-15206D02*
X36660Y-15800D01*
X37716Y-15462D02*
X37317Y-15462D01*
X37150Y-15630D02*
X37150Y-17550D01*
X37317Y-15462D02*
X37150Y-15630D01*
X37716Y-15462D02*
X38102Y-15462D01*
X38460Y-16220D02*
X38870Y-16220D01*
X38300Y-16060D02*
X38460Y-16220D01*
X38300Y-15660D02*
X38300Y-16060D01*
X38102Y-15462D02*
X38300Y-15660D01*
X37716Y-15718D02*
X37716Y-17983D01*
X37716Y-17983D02*
X37150Y-18550D01*
X31700Y-18850D02*
X31700Y-18800D01*
X35600Y-18100D02*
X36150Y-17550D01*
X33750Y-18100D02*
X35600Y-18100D01*
X33500Y-18350D02*
X33750Y-18100D01*
X32150Y-18350D02*
X33500Y-18350D01*
X31700Y-18800D02*
X32150Y-18350D01*
X37716Y-14950D02*
X37229Y-14950D01*
X36440Y-17260D02*
X36150Y-17550D01*
X36440Y-15740D02*
X36440Y-17260D01*
X37229Y-14950D02*
X36440Y-15740D01*
G54D25*
X33400Y-16350D02*
X33310Y-16350D01*
X27900Y-16660D02*
X27900Y-16100D01*
X28090Y-16850D02*
X27900Y-16660D01*
X32810Y-16850D02*
X28090Y-16850D01*
X33310Y-16350D02*
X32810Y-16850D01*
X27925Y-14650D02*
X27925Y-16075D01*
X27925Y-16075D02*
X27900Y-16100D01*
G54D26*
X35512Y-15718D02*
X34031Y-15718D01*
X34031Y-15718D02*
X33400Y-16350D01*
G54D25*
X31600Y-16100D02*
X31600Y-14675D01*
X31600Y-14675D02*
X31575Y-14650D01*
X33400Y-15050D02*
X32570Y-15050D01*
X32170Y-14650D02*
X31575Y-14650D01*
X32570Y-15050D02*
X32170Y-14650D01*
G54D26*
X35512Y-15462D02*
X33812Y-15462D01*
X33812Y-15462D02*
X33400Y-15050D01*
G54D25*
X40250Y-10100D02*
X40250Y-11150D01*
X39950Y-8900D02*
X40250Y-9200D01*
X40250Y-9200D02*
X40250Y-10100D01*
G54D26*
X37716Y-14438D02*
X38138Y-14438D01*
X40250Y-15400D02*
X40250Y-14800D01*
X40150Y-15500D02*
X40250Y-15400D01*
X38500Y-15500D02*
X40150Y-15500D01*
X38250Y-15250D02*
X38500Y-15500D01*
X38250Y-14550D02*
X38250Y-15250D01*
X38138Y-14438D02*
X38250Y-14550D01*
X37950Y-12200D02*
X37950Y-12700D01*
X37288Y-14438D02*
X37716Y-14438D01*
X37200Y-14350D02*
X37288Y-14438D01*
X37200Y-13100D02*
X37200Y-14350D01*
X37300Y-13000D02*
X37200Y-13100D01*
X37650Y-13000D02*
X37300Y-13000D01*
X37950Y-12700D02*
X37650Y-13000D01*
G54D25*
X38950Y-11150D02*
X38950Y-12200D01*
X37950Y-8900D02*
X37950Y-10100D01*
X37950Y-10100D02*
X37950Y-11150D01*
X32850Y-9200D02*
X33909Y-9200D01*
X33909Y-9200D02*
X34000Y-9291D01*
G54D26*
X37716Y-14182D02*
X38282Y-14182D01*
X38500Y-14800D02*
X38950Y-14800D01*
X38450Y-14750D02*
X38500Y-14800D01*
X38450Y-14350D02*
X38450Y-14750D01*
X38282Y-14182D02*
X38450Y-14350D01*
X37714Y-13926D02*
X38223Y-13926D01*
X38400Y-13750D02*
X38950Y-13750D01*
X38223Y-13926D02*
X38400Y-13750D01*
X40250Y-13750D02*
X40250Y-13050D01*
X40250Y-13050D02*
X40250Y-12200D01*
X37714Y-13674D02*
X38125Y-13674D01*
X38500Y-13050D02*
X40250Y-13050D01*
X38300Y-13250D02*
X38500Y-13050D01*
X38300Y-13500D02*
X38300Y-13250D01*
X38125Y-13674D02*
X38300Y-13500D01*
G54D25*
X36650Y-11150D02*
X36650Y-12200D01*
X32409Y-12150D02*
X32409Y-11400D01*
X32400Y-11450D02*
X32400Y-11400D01*
X32400Y-11409D02*
X32400Y-11450D01*
X32409Y-11400D02*
X32400Y-11409D01*
X29724Y-11751D02*
X30048Y-11751D01*
X30400Y-11400D02*
X32400Y-11400D01*
X32400Y-11400D02*
X32650Y-11400D01*
X30048Y-11751D02*
X30400Y-11400D01*
X32800Y-11400D02*
X32650Y-11400D01*
X33800Y-11400D02*
X32800Y-11400D01*
X32850Y-11350D02*
X32850Y-10500D01*
X32800Y-11400D02*
X32850Y-11350D01*
G54D26*
X37716Y-13414D02*
X37716Y-13383D01*
X38050Y-13050D02*
X37716Y-13383D01*
X36476Y-13926D02*
X36476Y-13050D01*
X36476Y-13050D02*
X36450Y-13050D01*
X35150Y-10450D02*
X35550Y-10450D01*
X35550Y-10450D02*
X36100Y-11000D01*
X36100Y-11000D02*
X36100Y-12700D01*
X36100Y-12700D02*
X36450Y-13050D01*
X37716Y-14694D02*
X37244Y-14694D01*
X36476Y-13926D02*
X36400Y-13926D01*
X36400Y-13926D02*
X35512Y-13926D01*
X37244Y-14694D02*
X36476Y-13926D01*
G54D10*
G36*
X31571Y-14207D02*
X31366Y-14207D01*
X31305Y-14233D01*
X31258Y-14280D01*
X31232Y-14341D01*
X31232Y-14408D01*
X31232Y-14958D01*
X31258Y-15019D01*
X31305Y-15066D01*
X31334Y-15078D01*
X31334Y-15539D01*
X31167Y-15539D01*
X31167Y-14891D01*
X31167Y-14701D01*
X31125Y-14659D01*
X30834Y-14659D01*
X30834Y-15050D01*
X30876Y-15092D01*
X31033Y-15092D01*
X31094Y-15066D01*
X31141Y-15019D01*
X31167Y-14958D01*
X31167Y-14891D01*
X31167Y-15539D01*
X30815Y-15539D01*
X30815Y-15050D01*
X30815Y-14659D01*
X30524Y-14659D01*
X30482Y-14701D01*
X30482Y-14891D01*
X30482Y-14958D01*
X30508Y-15019D01*
X30555Y-15066D01*
X30616Y-15092D01*
X30773Y-15092D01*
X30815Y-15050D01*
X30815Y-15539D01*
X30484Y-15539D01*
X30422Y-15564D01*
X30375Y-15611D01*
X30350Y-15673D01*
X30350Y-15739D01*
X30350Y-16526D01*
X30373Y-16584D01*
X29125Y-16584D01*
X29149Y-16526D01*
X29149Y-16460D01*
X29149Y-15673D01*
X29124Y-15611D01*
X29077Y-15564D01*
X29017Y-15539D01*
X29017Y-14891D01*
X29017Y-14701D01*
X28975Y-14659D01*
X28684Y-14659D01*
X28684Y-15050D01*
X28726Y-15092D01*
X28883Y-15092D01*
X28944Y-15066D01*
X28991Y-15019D01*
X29017Y-14958D01*
X29017Y-14891D01*
X29017Y-15539D01*
X29015Y-15539D01*
X28949Y-15539D01*
X28665Y-15539D01*
X28665Y-15050D01*
X28665Y-14659D01*
X28374Y-14659D01*
X28332Y-14701D01*
X28332Y-14891D01*
X28332Y-14958D01*
X28358Y-15019D01*
X28405Y-15066D01*
X28466Y-15092D01*
X28623Y-15092D01*
X28665Y-15050D01*
X28665Y-15539D01*
X28190Y-15539D01*
X28190Y-15068D01*
X28194Y-15066D01*
X28241Y-15019D01*
X28267Y-14958D01*
X28267Y-14891D01*
X28267Y-14365D01*
X28332Y-14365D01*
X28332Y-14408D01*
X28332Y-14598D01*
X28374Y-14640D01*
X28665Y-14640D01*
X28665Y-14632D01*
X28684Y-14632D01*
X28684Y-14640D01*
X28975Y-14640D01*
X29017Y-14598D01*
X29017Y-14408D01*
X29017Y-14365D01*
X29800Y-14365D01*
X29901Y-14345D01*
X29901Y-14345D01*
X29987Y-14287D01*
X30232Y-14043D01*
X30232Y-14133D01*
X30258Y-14194D01*
X30305Y-14241D01*
X30366Y-14267D01*
X30433Y-14267D01*
X30520Y-14267D01*
X30508Y-14280D01*
X30482Y-14341D01*
X30482Y-14408D01*
X30482Y-14598D01*
X30524Y-14640D01*
X30815Y-14640D01*
X30815Y-14632D01*
X30834Y-14632D01*
X30834Y-14640D01*
X31125Y-14640D01*
X31167Y-14598D01*
X31167Y-14408D01*
X31167Y-14341D01*
X31141Y-14280D01*
X31099Y-14237D01*
X31141Y-14194D01*
X31167Y-14133D01*
X31167Y-14066D01*
X31167Y-13315D01*
X31532Y-13315D01*
X31532Y-13333D01*
X31532Y-14133D01*
X31558Y-14194D01*
X31571Y-14207D01*
X31571Y-14207D01*
G37*
G54D27*
X31571Y-14207D02*
X31366Y-14207D01*
X31305Y-14233D01*
X31258Y-14280D01*
X31232Y-14341D01*
X31232Y-14408D01*
X31232Y-14958D01*
X31258Y-15019D01*
X31305Y-15066D01*
X31334Y-15078D01*
X31334Y-15539D01*
X31167Y-15539D01*
X31167Y-14891D01*
X31167Y-14701D01*
X31125Y-14659D01*
X30834Y-14659D01*
X30834Y-15050D01*
X30876Y-15092D01*
X31033Y-15092D01*
X31094Y-15066D01*
X31141Y-15019D01*
X31167Y-14958D01*
X31167Y-14891D01*
X31167Y-15539D01*
X30815Y-15539D01*
X30815Y-15050D01*
X30815Y-14659D01*
X30524Y-14659D01*
X30482Y-14701D01*
X30482Y-14891D01*
X30482Y-14958D01*
X30508Y-15019D01*
X30555Y-15066D01*
X30616Y-15092D01*
X30773Y-15092D01*
X30815Y-15050D01*
X30815Y-15539D01*
X30484Y-15539D01*
X30422Y-15564D01*
X30375Y-15611D01*
X30350Y-15673D01*
X30350Y-15739D01*
X30350Y-16526D01*
X30373Y-16584D01*
X29125Y-16584D01*
X29149Y-16526D01*
X29149Y-16460D01*
X29149Y-15673D01*
X29124Y-15611D01*
X29077Y-15564D01*
X29017Y-15539D01*
X29017Y-14891D01*
X29017Y-14701D01*
X28975Y-14659D01*
X28684Y-14659D01*
X28684Y-15050D01*
X28726Y-15092D01*
X28883Y-15092D01*
X28944Y-15066D01*
X28991Y-15019D01*
X29017Y-14958D01*
X29017Y-14891D01*
X29017Y-15539D01*
X29015Y-15539D01*
X28949Y-15539D01*
X28665Y-15539D01*
X28665Y-15050D01*
X28665Y-14659D01*
X28374Y-14659D01*
X28332Y-14701D01*
X28332Y-14891D01*
X28332Y-14958D01*
X28358Y-15019D01*
X28405Y-15066D01*
X28466Y-15092D01*
X28623Y-15092D01*
X28665Y-15050D01*
X28665Y-15539D01*
X28190Y-15539D01*
X28190Y-15068D01*
X28194Y-15066D01*
X28241Y-15019D01*
X28267Y-14958D01*
X28267Y-14891D01*
X28267Y-14365D01*
X28332Y-14365D01*
X28332Y-14408D01*
X28332Y-14598D01*
X28374Y-14640D01*
X28665Y-14640D01*
X28665Y-14632D01*
X28684Y-14632D01*
X28684Y-14640D01*
X28975Y-14640D01*
X29017Y-14598D01*
X29017Y-14408D01*
X29017Y-14365D01*
X29800Y-14365D01*
X29901Y-14345D01*
X29901Y-14345D01*
X29987Y-14287D01*
X30232Y-14043D01*
X30232Y-14133D01*
X30258Y-14194D01*
X30305Y-14241D01*
X30366Y-14267D01*
X30433Y-14267D01*
X30520Y-14267D01*
X30508Y-14280D01*
X30482Y-14341D01*
X30482Y-14408D01*
X30482Y-14598D01*
X30524Y-14640D01*
X30815Y-14640D01*
X30815Y-14632D01*
X30834Y-14632D01*
X30834Y-14640D01*
X31125Y-14640D01*
X31167Y-14598D01*
X31167Y-14408D01*
X31167Y-14341D01*
X31141Y-14280D01*
X31099Y-14237D01*
X31141Y-14194D01*
X31167Y-14133D01*
X31167Y-14066D01*
X31167Y-13315D01*
X31532Y-13315D01*
X31532Y-13333D01*
X31532Y-14133D01*
X31558Y-14194D01*
X31571Y-14207D01*
G54D10*
G36*
X37044Y-14814D02*
X36279Y-15579D01*
X36230Y-15653D01*
X36213Y-15740D01*
X36213Y-17082D01*
X36057Y-17082D01*
X35885Y-17153D01*
X35754Y-17284D01*
X35682Y-17456D01*
X35682Y-17642D01*
X35698Y-17681D01*
X35506Y-17873D01*
X35487Y-17873D01*
X35545Y-17815D01*
X35617Y-17643D01*
X35617Y-17457D01*
X35546Y-17285D01*
X35415Y-17154D01*
X35243Y-17082D01*
X35057Y-17082D01*
X34885Y-17153D01*
X34754Y-17284D01*
X34682Y-17456D01*
X34682Y-17642D01*
X34753Y-17814D01*
X34812Y-17873D01*
X34618Y-17873D01*
X34487Y-17873D01*
X34464Y-17850D01*
X34541Y-17822D01*
X34615Y-17651D01*
X34618Y-17465D01*
X34551Y-17292D01*
X34541Y-17277D01*
X34464Y-17249D01*
X34450Y-17263D01*
X34450Y-17235D01*
X34422Y-17158D01*
X34251Y-17084D01*
X34065Y-17081D01*
X33892Y-17148D01*
X33877Y-17158D01*
X33849Y-17235D01*
X34150Y-17536D01*
X34450Y-17235D01*
X34450Y-17263D01*
X34163Y-17550D01*
X34169Y-17555D01*
X34155Y-17569D01*
X34150Y-17563D01*
X34144Y-17569D01*
X34136Y-17561D01*
X34130Y-17555D01*
X34136Y-17550D01*
X33835Y-17249D01*
X33758Y-17277D01*
X33684Y-17448D01*
X33681Y-17634D01*
X33748Y-17807D01*
X33758Y-17822D01*
X33835Y-17850D01*
X33812Y-17873D01*
X33750Y-17873D01*
X33677Y-17887D01*
X33663Y-17890D01*
X33589Y-17939D01*
X33406Y-18123D01*
X32150Y-18123D01*
X32063Y-18140D01*
X31989Y-18189D01*
X31797Y-18382D01*
X31266Y-18382D01*
X31205Y-18408D01*
X31158Y-18455D01*
X31132Y-18516D01*
X31132Y-18583D01*
X31132Y-19094D01*
X31067Y-19094D01*
X31067Y-18716D01*
X31067Y-18401D01*
X31025Y-18359D01*
X30609Y-18359D01*
X30609Y-18875D01*
X30651Y-18917D01*
X30933Y-18917D01*
X30994Y-18891D01*
X31041Y-18844D01*
X31067Y-18783D01*
X31067Y-18716D01*
X31067Y-19094D01*
X30590Y-19094D01*
X30590Y-18875D01*
X30590Y-18359D01*
X30174Y-18359D01*
X30132Y-18401D01*
X30132Y-18716D01*
X30132Y-18783D01*
X30158Y-18844D01*
X30205Y-18891D01*
X30266Y-18917D01*
X30548Y-18917D01*
X30590Y-18875D01*
X30590Y-19094D01*
X29092Y-19094D01*
X29092Y-18982D01*
X29065Y-18917D01*
X29633Y-18917D01*
X29694Y-18891D01*
X29741Y-18844D01*
X29767Y-18783D01*
X29767Y-18716D01*
X29767Y-17926D01*
X30132Y-17926D01*
X30132Y-17983D01*
X30132Y-18298D01*
X30174Y-18340D01*
X30590Y-18340D01*
X30590Y-18332D01*
X30609Y-18332D01*
X30609Y-18340D01*
X31025Y-18340D01*
X31067Y-18298D01*
X31067Y-17983D01*
X31067Y-17916D01*
X31041Y-17855D01*
X30994Y-17808D01*
X30933Y-17782D01*
X30844Y-17782D01*
X30877Y-17703D01*
X30912Y-17737D01*
X30912Y-17737D01*
X30998Y-17795D01*
X30998Y-17795D01*
X31099Y-17815D01*
X31100Y-17815D01*
X31132Y-17815D01*
X31132Y-17883D01*
X31158Y-17944D01*
X31205Y-17991D01*
X31266Y-18017D01*
X31333Y-18017D01*
X32133Y-18017D01*
X32194Y-17991D01*
X32225Y-17961D01*
X32255Y-17991D01*
X32316Y-18017D01*
X32383Y-18017D01*
X33183Y-18017D01*
X33244Y-17991D01*
X33291Y-17944D01*
X33317Y-17883D01*
X33317Y-17816D01*
X33317Y-17216D01*
X33291Y-17155D01*
X33244Y-17108D01*
X33183Y-17082D01*
X33116Y-17082D01*
X32930Y-17082D01*
X32997Y-17037D01*
X33218Y-16817D01*
X33833Y-16817D01*
X33894Y-16791D01*
X33941Y-16744D01*
X33967Y-16683D01*
X33967Y-16616D01*
X33967Y-16102D01*
X34124Y-15945D01*
X35132Y-15945D01*
X35189Y-15968D01*
X35255Y-15968D01*
X35753Y-15968D01*
X35753Y-15986D01*
X35742Y-15997D01*
X35652Y-15997D01*
X35526Y-16049D01*
X35429Y-16145D01*
X35377Y-16271D01*
X35377Y-16407D01*
X35429Y-16533D01*
X35525Y-16630D01*
X35651Y-16682D01*
X35787Y-16682D01*
X35913Y-16630D01*
X36010Y-16534D01*
X36062Y-16408D01*
X36062Y-16317D01*
X36140Y-16240D01*
X36140Y-16240D01*
X36172Y-16191D01*
X36189Y-16166D01*
X36189Y-16166D01*
X36206Y-16080D01*
X36206Y-16080D01*
X36206Y-15280D01*
X36189Y-15193D01*
X36140Y-15119D01*
X36067Y-15046D01*
X35993Y-14997D01*
X35969Y-14992D01*
X35969Y-14992D01*
X35969Y-14835D01*
X35963Y-14822D01*
X35968Y-14810D01*
X35969Y-14744D01*
X35969Y-14579D01*
X35963Y-14566D01*
X35968Y-14554D01*
X35969Y-14488D01*
X35969Y-14453D01*
X36055Y-14540D01*
X36181Y-14592D01*
X36317Y-14592D01*
X36443Y-14540D01*
X36540Y-14444D01*
X36579Y-14349D01*
X37044Y-14814D01*
X37044Y-14814D01*
G37*
G54D27*
X37044Y-14814D02*
X36279Y-15579D01*
X36230Y-15653D01*
X36213Y-15740D01*
X36213Y-17082D01*
X36057Y-17082D01*
X35885Y-17153D01*
X35754Y-17284D01*
X35682Y-17456D01*
X35682Y-17642D01*
X35698Y-17681D01*
X35506Y-17873D01*
X35487Y-17873D01*
X35545Y-17815D01*
X35617Y-17643D01*
X35617Y-17457D01*
X35546Y-17285D01*
X35415Y-17154D01*
X35243Y-17082D01*
X35057Y-17082D01*
X34885Y-17153D01*
X34754Y-17284D01*
X34682Y-17456D01*
X34682Y-17642D01*
X34753Y-17814D01*
X34812Y-17873D01*
X34618Y-17873D01*
X34487Y-17873D01*
X34464Y-17850D01*
X34541Y-17822D01*
X34615Y-17651D01*
X34618Y-17465D01*
X34551Y-17292D01*
X34541Y-17277D01*
X34464Y-17249D01*
X34450Y-17263D01*
X34450Y-17235D01*
X34422Y-17158D01*
X34251Y-17084D01*
X34065Y-17081D01*
X33892Y-17148D01*
X33877Y-17158D01*
X33849Y-17235D01*
X34150Y-17536D01*
X34450Y-17235D01*
X34450Y-17263D01*
X34163Y-17550D01*
X34169Y-17555D01*
X34155Y-17569D01*
X34150Y-17563D01*
X34144Y-17569D01*
X34136Y-17561D01*
X34130Y-17555D01*
X34136Y-17550D01*
X33835Y-17249D01*
X33758Y-17277D01*
X33684Y-17448D01*
X33681Y-17634D01*
X33748Y-17807D01*
X33758Y-17822D01*
X33835Y-17850D01*
X33812Y-17873D01*
X33750Y-17873D01*
X33677Y-17887D01*
X33663Y-17890D01*
X33589Y-17939D01*
X33406Y-18123D01*
X32150Y-18123D01*
X32063Y-18140D01*
X31989Y-18189D01*
X31797Y-18382D01*
X31266Y-18382D01*
X31205Y-18408D01*
X31158Y-18455D01*
X31132Y-18516D01*
X31132Y-18583D01*
X31132Y-19094D01*
X31067Y-19094D01*
X31067Y-18716D01*
X31067Y-18401D01*
X31025Y-18359D01*
X30609Y-18359D01*
X30609Y-18875D01*
X30651Y-18917D01*
X30933Y-18917D01*
X30994Y-18891D01*
X31041Y-18844D01*
X31067Y-18783D01*
X31067Y-18716D01*
X31067Y-19094D01*
X30590Y-19094D01*
X30590Y-18875D01*
X30590Y-18359D01*
X30174Y-18359D01*
X30132Y-18401D01*
X30132Y-18716D01*
X30132Y-18783D01*
X30158Y-18844D01*
X30205Y-18891D01*
X30266Y-18917D01*
X30548Y-18917D01*
X30590Y-18875D01*
X30590Y-19094D01*
X29092Y-19094D01*
X29092Y-18982D01*
X29065Y-18917D01*
X29633Y-18917D01*
X29694Y-18891D01*
X29741Y-18844D01*
X29767Y-18783D01*
X29767Y-18716D01*
X29767Y-17926D01*
X30132Y-17926D01*
X30132Y-17983D01*
X30132Y-18298D01*
X30174Y-18340D01*
X30590Y-18340D01*
X30590Y-18332D01*
X30609Y-18332D01*
X30609Y-18340D01*
X31025Y-18340D01*
X31067Y-18298D01*
X31067Y-17983D01*
X31067Y-17916D01*
X31041Y-17855D01*
X30994Y-17808D01*
X30933Y-17782D01*
X30844Y-17782D01*
X30877Y-17703D01*
X30912Y-17737D01*
X30912Y-17737D01*
X30998Y-17795D01*
X30998Y-17795D01*
X31099Y-17815D01*
X31100Y-17815D01*
X31132Y-17815D01*
X31132Y-17883D01*
X31158Y-17944D01*
X31205Y-17991D01*
X31266Y-18017D01*
X31333Y-18017D01*
X32133Y-18017D01*
X32194Y-17991D01*
X32225Y-17961D01*
X32255Y-17991D01*
X32316Y-18017D01*
X32383Y-18017D01*
X33183Y-18017D01*
X33244Y-17991D01*
X33291Y-17944D01*
X33317Y-17883D01*
X33317Y-17816D01*
X33317Y-17216D01*
X33291Y-17155D01*
X33244Y-17108D01*
X33183Y-17082D01*
X33116Y-17082D01*
X32930Y-17082D01*
X32997Y-17037D01*
X33218Y-16817D01*
X33833Y-16817D01*
X33894Y-16791D01*
X33941Y-16744D01*
X33967Y-16683D01*
X33967Y-16616D01*
X33967Y-16102D01*
X34124Y-15945D01*
X35132Y-15945D01*
X35189Y-15968D01*
X35255Y-15968D01*
X35753Y-15968D01*
X35753Y-15986D01*
X35742Y-15997D01*
X35652Y-15997D01*
X35526Y-16049D01*
X35429Y-16145D01*
X35377Y-16271D01*
X35377Y-16407D01*
X35429Y-16533D01*
X35525Y-16630D01*
X35651Y-16682D01*
X35787Y-16682D01*
X35913Y-16630D01*
X36010Y-16534D01*
X36062Y-16408D01*
X36062Y-16317D01*
X36140Y-16240D01*
X36140Y-16240D01*
X36172Y-16191D01*
X36189Y-16166D01*
X36189Y-16166D01*
X36206Y-16080D01*
X36206Y-16080D01*
X36206Y-15280D01*
X36189Y-15193D01*
X36140Y-15119D01*
X36067Y-15046D01*
X35993Y-14997D01*
X35969Y-14992D01*
X35969Y-14992D01*
X35969Y-14835D01*
X35963Y-14822D01*
X35968Y-14810D01*
X35969Y-14744D01*
X35969Y-14579D01*
X35963Y-14566D01*
X35968Y-14554D01*
X35969Y-14488D01*
X35969Y-14453D01*
X36055Y-14540D01*
X36181Y-14592D01*
X36317Y-14592D01*
X36443Y-14540D01*
X36540Y-14444D01*
X36579Y-14349D01*
X37044Y-14814D01*
G54D10*
G36*
X37780Y-8464D02*
X37685Y-8503D01*
X37554Y-8634D01*
X37482Y-8806D01*
X37482Y-8992D01*
X37553Y-9164D01*
X37684Y-9295D01*
X37684Y-9532D01*
X37616Y-9532D01*
X37555Y-9558D01*
X37508Y-9605D01*
X37482Y-9666D01*
X37482Y-9733D01*
X37482Y-10533D01*
X37508Y-10594D01*
X37538Y-10625D01*
X37508Y-10655D01*
X37482Y-10716D01*
X37482Y-10783D01*
X37482Y-11583D01*
X37508Y-11644D01*
X37538Y-11675D01*
X37508Y-11705D01*
X37482Y-11766D01*
X37482Y-11833D01*
X37482Y-12633D01*
X37508Y-12694D01*
X37555Y-12741D01*
X37578Y-12751D01*
X37556Y-12773D01*
X37417Y-12773D01*
X37417Y-9166D01*
X37417Y-8951D01*
X37375Y-8909D01*
X36959Y-8909D01*
X36959Y-9325D01*
X37001Y-9367D01*
X37283Y-9367D01*
X37344Y-9341D01*
X37391Y-9294D01*
X37417Y-9233D01*
X37417Y-9166D01*
X37417Y-12773D01*
X37300Y-12773D01*
X37213Y-12790D01*
X37139Y-12839D01*
X37039Y-12939D01*
X36990Y-13013D01*
X36973Y-13100D01*
X36973Y-14103D01*
X36703Y-13833D01*
X36703Y-13307D01*
X36766Y-13244D01*
X36819Y-13118D01*
X36819Y-12982D01*
X36767Y-12856D01*
X36678Y-12767D01*
X36983Y-12767D01*
X37044Y-12741D01*
X37091Y-12694D01*
X37117Y-12633D01*
X37117Y-12566D01*
X37117Y-11766D01*
X37091Y-11705D01*
X37061Y-11674D01*
X37091Y-11644D01*
X37117Y-11583D01*
X37117Y-11516D01*
X37117Y-10716D01*
X37091Y-10655D01*
X37061Y-10624D01*
X37091Y-10594D01*
X37117Y-10533D01*
X37117Y-10466D01*
X37117Y-9733D01*
X37117Y-9666D01*
X37091Y-9605D01*
X37044Y-9558D01*
X36983Y-9532D01*
X36940Y-9532D01*
X36940Y-9325D01*
X36940Y-8909D01*
X36524Y-8909D01*
X36482Y-8951D01*
X36482Y-9166D01*
X36482Y-9233D01*
X36508Y-9294D01*
X36555Y-9341D01*
X36616Y-9367D01*
X36898Y-9367D01*
X36940Y-9325D01*
X36940Y-9532D01*
X36701Y-9532D01*
X36659Y-9574D01*
X36659Y-10090D01*
X37075Y-10090D01*
X37117Y-10048D01*
X37117Y-9733D01*
X37117Y-10466D01*
X37117Y-10151D01*
X37075Y-10109D01*
X36659Y-10109D01*
X36659Y-10117D01*
X36640Y-10117D01*
X36640Y-10109D01*
X36640Y-10090D01*
X36640Y-9574D01*
X36598Y-9532D01*
X36316Y-9532D01*
X36255Y-9558D01*
X36208Y-9605D01*
X36182Y-9666D01*
X36182Y-9733D01*
X36182Y-10048D01*
X36224Y-10090D01*
X36640Y-10090D01*
X36640Y-10109D01*
X36224Y-10109D01*
X36182Y-10151D01*
X36182Y-10466D01*
X36182Y-10533D01*
X36208Y-10594D01*
X36238Y-10625D01*
X36208Y-10655D01*
X36182Y-10716D01*
X36182Y-10762D01*
X35717Y-10297D01*
X35717Y-10116D01*
X35717Y-9483D01*
X35717Y-8816D01*
X35691Y-8755D01*
X35644Y-8708D01*
X35583Y-8682D01*
X35516Y-8682D01*
X35201Y-8682D01*
X35159Y-8724D01*
X35159Y-9140D01*
X35675Y-9140D01*
X35717Y-9098D01*
X35717Y-8816D01*
X35717Y-9483D01*
X35717Y-9201D01*
X35675Y-9159D01*
X35159Y-9159D01*
X35159Y-9575D01*
X35201Y-9617D01*
X35516Y-9617D01*
X35583Y-9617D01*
X35644Y-9591D01*
X35691Y-9544D01*
X35717Y-9483D01*
X35717Y-10116D01*
X35691Y-10055D01*
X35644Y-10008D01*
X35583Y-9982D01*
X35516Y-9982D01*
X35140Y-9982D01*
X35140Y-9575D01*
X35140Y-9159D01*
X35140Y-9140D01*
X35140Y-8724D01*
X35098Y-8682D01*
X34783Y-8682D01*
X34716Y-8682D01*
X34655Y-8708D01*
X34608Y-8755D01*
X34582Y-8816D01*
X34582Y-9098D01*
X34624Y-9140D01*
X35140Y-9140D01*
X35140Y-9159D01*
X34624Y-9159D01*
X34582Y-9201D01*
X34582Y-9483D01*
X34608Y-9544D01*
X34655Y-9591D01*
X34716Y-9617D01*
X34783Y-9617D01*
X35098Y-9617D01*
X35140Y-9575D01*
X35140Y-9982D01*
X34716Y-9982D01*
X34655Y-10008D01*
X34608Y-10055D01*
X34582Y-10116D01*
X34582Y-10183D01*
X34582Y-10783D01*
X34608Y-10844D01*
X34655Y-10891D01*
X34716Y-10917D01*
X34783Y-10917D01*
X35583Y-10917D01*
X35644Y-10891D01*
X35658Y-10878D01*
X35873Y-11093D01*
X35873Y-12700D01*
X35890Y-12786D01*
X35939Y-12860D01*
X36134Y-13054D01*
X36134Y-13117D01*
X36186Y-13243D01*
X36250Y-13307D01*
X36250Y-13700D01*
X35946Y-13700D01*
X35927Y-13680D01*
X35843Y-13680D01*
X35835Y-13677D01*
X35768Y-13677D01*
X35189Y-13677D01*
X35180Y-13680D01*
X35097Y-13680D01*
X35055Y-13722D01*
X35055Y-13786D01*
X35060Y-13798D01*
X35055Y-13811D01*
X35055Y-13877D01*
X35055Y-14042D01*
X35060Y-14054D01*
X35055Y-14067D01*
X35055Y-14133D01*
X35055Y-14182D01*
X34948Y-14137D01*
X34815Y-14137D01*
X34817Y-14133D01*
X34817Y-14066D01*
X34817Y-13437D01*
X34954Y-13575D01*
X34954Y-13575D01*
X35028Y-13624D01*
X35068Y-13631D01*
X35097Y-13661D01*
X35180Y-13661D01*
X35189Y-13664D01*
X35255Y-13664D01*
X35834Y-13664D01*
X35843Y-13661D01*
X35927Y-13661D01*
X35968Y-13619D01*
X35969Y-13555D01*
X35963Y-13542D01*
X35968Y-13530D01*
X35969Y-13464D01*
X35969Y-13299D01*
X35943Y-13237D01*
X35918Y-13212D01*
X35962Y-13108D01*
X35962Y-12972D01*
X35910Y-12846D01*
X35814Y-12749D01*
X35688Y-12697D01*
X35552Y-12697D01*
X35426Y-12749D01*
X35417Y-12758D01*
X35417Y-12366D01*
X35417Y-11733D01*
X35417Y-11066D01*
X35391Y-11005D01*
X35344Y-10958D01*
X35283Y-10932D01*
X35216Y-10932D01*
X34901Y-10932D01*
X34859Y-10974D01*
X34859Y-11390D01*
X35375Y-11390D01*
X35417Y-11348D01*
X35417Y-11066D01*
X35417Y-11733D01*
X35417Y-11451D01*
X35375Y-11409D01*
X34859Y-11409D01*
X34859Y-11825D01*
X34901Y-11867D01*
X35216Y-11867D01*
X35283Y-11867D01*
X35344Y-11841D01*
X35391Y-11794D01*
X35417Y-11733D01*
X35417Y-12366D01*
X35391Y-12305D01*
X35344Y-12258D01*
X35283Y-12232D01*
X35216Y-12232D01*
X34840Y-12232D01*
X34840Y-11825D01*
X34840Y-11409D01*
X34832Y-11409D01*
X34832Y-11390D01*
X34840Y-11390D01*
X34840Y-10974D01*
X34798Y-10932D01*
X34521Y-10932D01*
X34521Y-10756D01*
X34521Y-10061D01*
X34521Y-9572D01*
X34521Y-8943D01*
X34496Y-8881D01*
X34449Y-8834D01*
X34387Y-8809D01*
X34321Y-8809D01*
X33612Y-8809D01*
X33550Y-8834D01*
X33503Y-8881D01*
X33481Y-8934D01*
X33417Y-8934D01*
X33417Y-8866D01*
X33391Y-8805D01*
X33344Y-8758D01*
X33283Y-8732D01*
X33216Y-8732D01*
X32416Y-8732D01*
X32355Y-8758D01*
X32308Y-8805D01*
X32282Y-8866D01*
X32282Y-8933D01*
X32282Y-9533D01*
X32308Y-9594D01*
X32355Y-9641D01*
X32416Y-9667D01*
X32483Y-9667D01*
X33283Y-9667D01*
X33344Y-9641D01*
X33391Y-9594D01*
X33417Y-9533D01*
X33417Y-9466D01*
X33417Y-9465D01*
X33478Y-9465D01*
X33478Y-9638D01*
X33503Y-9700D01*
X33550Y-9747D01*
X33612Y-9772D01*
X33678Y-9772D01*
X34387Y-9772D01*
X34449Y-9747D01*
X34496Y-9700D01*
X34521Y-9638D01*
X34521Y-9572D01*
X34521Y-10061D01*
X34496Y-9999D01*
X34449Y-9952D01*
X34387Y-9927D01*
X34321Y-9927D01*
X34051Y-9927D01*
X34009Y-9969D01*
X34009Y-10399D01*
X34479Y-10399D01*
X34521Y-10357D01*
X34521Y-10061D01*
X34521Y-10756D01*
X34521Y-10460D01*
X34479Y-10418D01*
X34009Y-10418D01*
X34009Y-10848D01*
X34051Y-10890D01*
X34321Y-10890D01*
X34387Y-10890D01*
X34449Y-10865D01*
X34496Y-10818D01*
X34521Y-10756D01*
X34521Y-10932D01*
X34483Y-10932D01*
X34416Y-10932D01*
X34355Y-10958D01*
X34325Y-10988D01*
X34294Y-10958D01*
X34233Y-10932D01*
X34166Y-10932D01*
X33990Y-10932D01*
X33990Y-10848D01*
X33990Y-10418D01*
X33990Y-10399D01*
X33990Y-9969D01*
X33948Y-9927D01*
X33678Y-9927D01*
X33612Y-9927D01*
X33550Y-9952D01*
X33503Y-9999D01*
X33478Y-10061D01*
X33478Y-10357D01*
X33520Y-10399D01*
X33990Y-10399D01*
X33990Y-10418D01*
X33520Y-10418D01*
X33478Y-10460D01*
X33478Y-10756D01*
X33503Y-10818D01*
X33550Y-10865D01*
X33612Y-10890D01*
X33678Y-10890D01*
X33948Y-10890D01*
X33990Y-10848D01*
X33990Y-10932D01*
X33366Y-10932D01*
X33344Y-10941D01*
X33391Y-10894D01*
X33417Y-10833D01*
X33417Y-10766D01*
X33417Y-10166D01*
X33391Y-10105D01*
X33344Y-10058D01*
X33283Y-10032D01*
X33216Y-10032D01*
X32416Y-10032D01*
X32355Y-10058D01*
X32308Y-10105D01*
X32282Y-10166D01*
X32282Y-10233D01*
X32282Y-10833D01*
X32308Y-10894D01*
X32355Y-10941D01*
X32416Y-10967D01*
X32483Y-10967D01*
X32584Y-10967D01*
X32584Y-11134D01*
X32409Y-11134D01*
X32400Y-11134D01*
X32273Y-11134D01*
X32273Y-10124D01*
X32273Y-9560D01*
X32273Y-9494D01*
X32248Y-9432D01*
X32201Y-9385D01*
X32139Y-9360D01*
X31449Y-9360D01*
X31407Y-9402D01*
X31407Y-9832D01*
X32231Y-9832D01*
X32273Y-9790D01*
X32273Y-9560D01*
X32273Y-10124D01*
X32273Y-9894D01*
X32231Y-9852D01*
X31407Y-9852D01*
X31407Y-10283D01*
X31449Y-10324D01*
X32139Y-10324D01*
X32201Y-10299D01*
X32248Y-10252D01*
X32273Y-10190D01*
X32273Y-10124D01*
X32273Y-11134D01*
X31388Y-11134D01*
X31388Y-10283D01*
X31388Y-9852D01*
X31388Y-9832D01*
X31388Y-9402D01*
X31346Y-9360D01*
X30656Y-9360D01*
X30594Y-9385D01*
X30547Y-9432D01*
X30522Y-9494D01*
X30522Y-9560D01*
X30522Y-9790D01*
X30563Y-9832D01*
X31388Y-9832D01*
X31388Y-9852D01*
X30563Y-9852D01*
X30522Y-9894D01*
X30522Y-10124D01*
X30522Y-10190D01*
X30547Y-10252D01*
X30594Y-10299D01*
X30656Y-10324D01*
X31346Y-10324D01*
X31388Y-10283D01*
X31388Y-11134D01*
X30400Y-11134D01*
X30298Y-11154D01*
X30212Y-11212D01*
X30107Y-11316D01*
X30107Y-10124D01*
X30107Y-9494D01*
X30082Y-9432D01*
X30035Y-9385D01*
X29973Y-9360D01*
X29907Y-9360D01*
X28490Y-9360D01*
X28428Y-9385D01*
X28381Y-9432D01*
X28356Y-9494D01*
X28356Y-9560D01*
X28356Y-10190D01*
X28381Y-10252D01*
X28413Y-10284D01*
X28309Y-10389D01*
X28309Y-9487D01*
X28309Y-9448D01*
X28309Y-9410D01*
X28309Y-9410D01*
X28309Y-9410D01*
X28266Y-9197D01*
X28237Y-9126D01*
X28236Y-9125D01*
X28116Y-8946D01*
X28116Y-8945D01*
X28062Y-8891D01*
X27881Y-8770D01*
X27810Y-8741D01*
X27809Y-8741D01*
X27598Y-8699D01*
X27597Y-8698D01*
X27520Y-8698D01*
X27307Y-8741D01*
X27236Y-8770D01*
X27235Y-8771D01*
X27056Y-8891D01*
X27055Y-8891D01*
X27001Y-8945D01*
X26880Y-9126D01*
X26851Y-9197D01*
X26851Y-9198D01*
X26809Y-9410D01*
X26809Y-9410D01*
X26809Y-9410D01*
X26809Y-9448D01*
X26809Y-9487D01*
X26809Y-9487D01*
X26809Y-9487D01*
X26851Y-9699D01*
X26851Y-9700D01*
X26880Y-9771D01*
X27001Y-9951D01*
X27055Y-10006D01*
X27056Y-10006D01*
X27235Y-10126D01*
X27236Y-10126D01*
X27307Y-10156D01*
X27520Y-10198D01*
X27597Y-10198D01*
X27598Y-10198D01*
X27809Y-10156D01*
X27810Y-10156D01*
X27881Y-10126D01*
X28062Y-10006D01*
X28116Y-9952D01*
X28116Y-9951D01*
X28236Y-9772D01*
X28237Y-9771D01*
X28266Y-9700D01*
X28309Y-9487D01*
X28309Y-9487D01*
X28309Y-9487D01*
X28309Y-10389D01*
X27553Y-11144D01*
X27430Y-11021D01*
X27258Y-10950D01*
X27072Y-10949D01*
X26900Y-11020D01*
X26769Y-11152D01*
X26698Y-11323D01*
X26697Y-11509D01*
X26768Y-11681D01*
X26900Y-11813D01*
X27071Y-11884D01*
X27257Y-11884D01*
X27429Y-11813D01*
X27553Y-11689D01*
X27803Y-11939D01*
X27803Y-11939D01*
X27861Y-11978D01*
X27889Y-11997D01*
X27889Y-11997D01*
X27991Y-12017D01*
X27991Y-12017D01*
X28237Y-12017D01*
X28237Y-12099D01*
X28262Y-12161D01*
X28309Y-12208D01*
X28371Y-12234D01*
X28437Y-12234D01*
X28573Y-12234D01*
X28573Y-12286D01*
X28573Y-12743D01*
X28614Y-12784D01*
X29124Y-12784D01*
X29124Y-12388D01*
X29124Y-12127D01*
X29124Y-11859D01*
X29116Y-11859D01*
X29116Y-11839D01*
X29124Y-11839D01*
X29124Y-11310D01*
X29082Y-11268D01*
X28962Y-11268D01*
X28901Y-11294D01*
X28854Y-11341D01*
X28838Y-11379D01*
X28822Y-11342D01*
X28775Y-11294D01*
X28714Y-11269D01*
X28647Y-11269D01*
X28371Y-11269D01*
X28310Y-11294D01*
X28263Y-11341D01*
X28237Y-11403D01*
X28237Y-11469D01*
X28237Y-11485D01*
X28101Y-11485D01*
X28032Y-11417D01*
X29125Y-10324D01*
X29973Y-10324D01*
X30035Y-10299D01*
X30082Y-10252D01*
X30107Y-10190D01*
X30107Y-10124D01*
X30107Y-11316D01*
X30027Y-11396D01*
X30004Y-11342D01*
X29957Y-11294D01*
X29896Y-11269D01*
X29829Y-11269D01*
X29553Y-11269D01*
X29492Y-11294D01*
X29445Y-11341D01*
X29429Y-11379D01*
X29413Y-11341D01*
X29366Y-11294D01*
X29304Y-11268D01*
X29185Y-11268D01*
X29143Y-11310D01*
X29143Y-11839D01*
X29151Y-11839D01*
X29151Y-11859D01*
X29143Y-11859D01*
X29143Y-12127D01*
X29143Y-12388D01*
X29143Y-12784D01*
X29652Y-12784D01*
X29694Y-12743D01*
X29694Y-12286D01*
X29694Y-12234D01*
X29895Y-12234D01*
X29957Y-12208D01*
X30004Y-12161D01*
X30030Y-12100D01*
X30030Y-12033D01*
X30030Y-12017D01*
X30048Y-12017D01*
X30149Y-11997D01*
X30149Y-11997D01*
X30236Y-11939D01*
X30311Y-11864D01*
X30311Y-11868D01*
X30311Y-12098D01*
X30353Y-12140D01*
X30981Y-12140D01*
X30981Y-11709D01*
X30939Y-11667D01*
X30508Y-11667D01*
X30510Y-11665D01*
X32143Y-11665D01*
X32143Y-11667D01*
X31863Y-11667D01*
X31802Y-11693D01*
X31755Y-11740D01*
X31729Y-11801D01*
X31729Y-11868D01*
X31729Y-12498D01*
X31755Y-12559D01*
X31802Y-12606D01*
X31863Y-12632D01*
X31930Y-12632D01*
X32954Y-12632D01*
X33015Y-12606D01*
X33062Y-12559D01*
X33088Y-12498D01*
X33088Y-12431D01*
X33088Y-11801D01*
X33062Y-11740D01*
X33015Y-11693D01*
X32954Y-11667D01*
X32887Y-11667D01*
X32674Y-11667D01*
X32674Y-11665D01*
X32800Y-11665D01*
X33232Y-11665D01*
X33232Y-11733D01*
X33258Y-11794D01*
X33305Y-11841D01*
X33366Y-11867D01*
X33433Y-11867D01*
X34233Y-11867D01*
X34294Y-11841D01*
X34325Y-11811D01*
X34355Y-11841D01*
X34416Y-11867D01*
X34483Y-11867D01*
X34798Y-11867D01*
X34840Y-11825D01*
X34840Y-12232D01*
X34416Y-12232D01*
X34355Y-12258D01*
X34324Y-12288D01*
X34294Y-12258D01*
X34233Y-12232D01*
X34166Y-12232D01*
X33366Y-12232D01*
X33305Y-12258D01*
X33258Y-12305D01*
X33232Y-12366D01*
X33232Y-12433D01*
X33232Y-12498D01*
X33212Y-12512D01*
X33212Y-12512D01*
X33212Y-12512D01*
X32939Y-12784D01*
X31670Y-12784D01*
X31670Y-12431D01*
X31670Y-11868D01*
X31670Y-11801D01*
X31644Y-11740D01*
X31597Y-11693D01*
X31536Y-11667D01*
X31042Y-11667D01*
X31000Y-11709D01*
X31000Y-12140D01*
X31628Y-12140D01*
X31670Y-12098D01*
X31670Y-11868D01*
X31670Y-12431D01*
X31670Y-12201D01*
X31628Y-12159D01*
X31000Y-12159D01*
X31000Y-12590D01*
X31042Y-12632D01*
X31536Y-12632D01*
X31597Y-12606D01*
X31644Y-12559D01*
X31670Y-12498D01*
X31670Y-12431D01*
X31670Y-12784D01*
X30981Y-12784D01*
X30981Y-12590D01*
X30981Y-12159D01*
X30353Y-12159D01*
X30311Y-12201D01*
X30311Y-12431D01*
X30311Y-12498D01*
X30337Y-12559D01*
X30384Y-12606D01*
X30445Y-12632D01*
X30939Y-12632D01*
X30981Y-12590D01*
X30981Y-12784D01*
X30800Y-12784D01*
X30698Y-12804D01*
X30612Y-12862D01*
X30512Y-12962D01*
X30454Y-13048D01*
X30437Y-13132D01*
X30366Y-13132D01*
X30305Y-13158D01*
X30258Y-13205D01*
X30232Y-13266D01*
X30232Y-13333D01*
X30232Y-13434D01*
X30200Y-13434D01*
X30098Y-13454D01*
X30012Y-13512D01*
X30012Y-13512D01*
X30012Y-13512D01*
X29694Y-13829D01*
X29694Y-13303D01*
X29694Y-12846D01*
X29652Y-12804D01*
X29143Y-12804D01*
X29143Y-13461D01*
X29185Y-13503D01*
X29560Y-13503D01*
X29622Y-13478D01*
X29669Y-13431D01*
X29694Y-13369D01*
X29694Y-13303D01*
X29694Y-13829D01*
X29689Y-13834D01*
X29124Y-13834D01*
X29124Y-13461D01*
X29124Y-12804D01*
X28614Y-12804D01*
X28573Y-12846D01*
X28573Y-13303D01*
X28573Y-13369D01*
X28598Y-13431D01*
X28645Y-13478D01*
X28707Y-13503D01*
X29082Y-13503D01*
X29124Y-13461D01*
X29124Y-13834D01*
X27632Y-13834D01*
X27632Y-12750D01*
X27632Y-12084D01*
X27607Y-12022D01*
X27560Y-11975D01*
X27498Y-11950D01*
X27432Y-11949D01*
X27217Y-11950D01*
X27175Y-11991D01*
X27175Y-12407D01*
X27590Y-12407D01*
X27632Y-12365D01*
X27632Y-12084D01*
X27632Y-12750D01*
X27632Y-12468D01*
X27590Y-12427D01*
X27175Y-12427D01*
X27175Y-12842D01*
X27217Y-12884D01*
X27432Y-12884D01*
X27498Y-12884D01*
X27560Y-12859D01*
X27607Y-12811D01*
X27632Y-12750D01*
X27632Y-13834D01*
X27155Y-13834D01*
X27155Y-12842D01*
X27155Y-12427D01*
X27155Y-12407D01*
X27155Y-11991D01*
X27113Y-11950D01*
X26898Y-11949D01*
X26831Y-11950D01*
X26770Y-11975D01*
X26723Y-12022D01*
X26698Y-12084D01*
X26698Y-12365D01*
X26739Y-12407D01*
X27155Y-12407D01*
X27155Y-12427D01*
X26739Y-12427D01*
X26698Y-12468D01*
X26698Y-12750D01*
X26723Y-12811D01*
X26770Y-12859D01*
X26831Y-12884D01*
X26898Y-12884D01*
X27113Y-12884D01*
X27155Y-12842D01*
X27155Y-13834D01*
X26900Y-13834D01*
X26798Y-13854D01*
X26769Y-13873D01*
X26712Y-13912D01*
X26574Y-14049D01*
X26574Y-8464D01*
X36548Y-8464D01*
X36508Y-8505D01*
X36482Y-8566D01*
X36482Y-8633D01*
X36482Y-8848D01*
X36524Y-8890D01*
X36940Y-8890D01*
X36940Y-8882D01*
X36959Y-8882D01*
X36959Y-8890D01*
X37375Y-8890D01*
X37417Y-8848D01*
X37417Y-8633D01*
X37417Y-8566D01*
X37391Y-8505D01*
X37351Y-8464D01*
X37780Y-8464D01*
X37780Y-8464D01*
G37*
G54D27*
X37780Y-8464D02*
X37685Y-8503D01*
X37554Y-8634D01*
X37482Y-8806D01*
X37482Y-8992D01*
X37553Y-9164D01*
X37684Y-9295D01*
X37684Y-9532D01*
X37616Y-9532D01*
X37555Y-9558D01*
X37508Y-9605D01*
X37482Y-9666D01*
X37482Y-9733D01*
X37482Y-10533D01*
X37508Y-10594D01*
X37538Y-10625D01*
X37508Y-10655D01*
X37482Y-10716D01*
X37482Y-10783D01*
X37482Y-11583D01*
X37508Y-11644D01*
X37538Y-11675D01*
X37508Y-11705D01*
X37482Y-11766D01*
X37482Y-11833D01*
X37482Y-12633D01*
X37508Y-12694D01*
X37555Y-12741D01*
X37578Y-12751D01*
X37556Y-12773D01*
X37417Y-12773D01*
X37417Y-9166D01*
X37417Y-8951D01*
X37375Y-8909D01*
X36959Y-8909D01*
X36959Y-9325D01*
X37001Y-9367D01*
X37283Y-9367D01*
X37344Y-9341D01*
X37391Y-9294D01*
X37417Y-9233D01*
X37417Y-9166D01*
X37417Y-12773D01*
X37300Y-12773D01*
X37213Y-12790D01*
X37139Y-12839D01*
X37039Y-12939D01*
X36990Y-13013D01*
X36973Y-13100D01*
X36973Y-14103D01*
X36703Y-13833D01*
X36703Y-13307D01*
X36766Y-13244D01*
X36819Y-13118D01*
X36819Y-12982D01*
X36767Y-12856D01*
X36678Y-12767D01*
X36983Y-12767D01*
X37044Y-12741D01*
X37091Y-12694D01*
X37117Y-12633D01*
X37117Y-12566D01*
X37117Y-11766D01*
X37091Y-11705D01*
X37061Y-11674D01*
X37091Y-11644D01*
X37117Y-11583D01*
X37117Y-11516D01*
X37117Y-10716D01*
X37091Y-10655D01*
X37061Y-10624D01*
X37091Y-10594D01*
X37117Y-10533D01*
X37117Y-10466D01*
X37117Y-9733D01*
X37117Y-9666D01*
X37091Y-9605D01*
X37044Y-9558D01*
X36983Y-9532D01*
X36940Y-9532D01*
X36940Y-9325D01*
X36940Y-8909D01*
X36524Y-8909D01*
X36482Y-8951D01*
X36482Y-9166D01*
X36482Y-9233D01*
X36508Y-9294D01*
X36555Y-9341D01*
X36616Y-9367D01*
X36898Y-9367D01*
X36940Y-9325D01*
X36940Y-9532D01*
X36701Y-9532D01*
X36659Y-9574D01*
X36659Y-10090D01*
X37075Y-10090D01*
X37117Y-10048D01*
X37117Y-9733D01*
X37117Y-10466D01*
X37117Y-10151D01*
X37075Y-10109D01*
X36659Y-10109D01*
X36659Y-10117D01*
X36640Y-10117D01*
X36640Y-10109D01*
X36640Y-10090D01*
X36640Y-9574D01*
X36598Y-9532D01*
X36316Y-9532D01*
X36255Y-9558D01*
X36208Y-9605D01*
X36182Y-9666D01*
X36182Y-9733D01*
X36182Y-10048D01*
X36224Y-10090D01*
X36640Y-10090D01*
X36640Y-10109D01*
X36224Y-10109D01*
X36182Y-10151D01*
X36182Y-10466D01*
X36182Y-10533D01*
X36208Y-10594D01*
X36238Y-10625D01*
X36208Y-10655D01*
X36182Y-10716D01*
X36182Y-10762D01*
X35717Y-10297D01*
X35717Y-10116D01*
X35717Y-9483D01*
X35717Y-8816D01*
X35691Y-8755D01*
X35644Y-8708D01*
X35583Y-8682D01*
X35516Y-8682D01*
X35201Y-8682D01*
X35159Y-8724D01*
X35159Y-9140D01*
X35675Y-9140D01*
X35717Y-9098D01*
X35717Y-8816D01*
X35717Y-9483D01*
X35717Y-9201D01*
X35675Y-9159D01*
X35159Y-9159D01*
X35159Y-9575D01*
X35201Y-9617D01*
X35516Y-9617D01*
X35583Y-9617D01*
X35644Y-9591D01*
X35691Y-9544D01*
X35717Y-9483D01*
X35717Y-10116D01*
X35691Y-10055D01*
X35644Y-10008D01*
X35583Y-9982D01*
X35516Y-9982D01*
X35140Y-9982D01*
X35140Y-9575D01*
X35140Y-9159D01*
X35140Y-9140D01*
X35140Y-8724D01*
X35098Y-8682D01*
X34783Y-8682D01*
X34716Y-8682D01*
X34655Y-8708D01*
X34608Y-8755D01*
X34582Y-8816D01*
X34582Y-9098D01*
X34624Y-9140D01*
X35140Y-9140D01*
X35140Y-9159D01*
X34624Y-9159D01*
X34582Y-9201D01*
X34582Y-9483D01*
X34608Y-9544D01*
X34655Y-9591D01*
X34716Y-9617D01*
X34783Y-9617D01*
X35098Y-9617D01*
X35140Y-9575D01*
X35140Y-9982D01*
X34716Y-9982D01*
X34655Y-10008D01*
X34608Y-10055D01*
X34582Y-10116D01*
X34582Y-10183D01*
X34582Y-10783D01*
X34608Y-10844D01*
X34655Y-10891D01*
X34716Y-10917D01*
X34783Y-10917D01*
X35583Y-10917D01*
X35644Y-10891D01*
X35658Y-10878D01*
X35873Y-11093D01*
X35873Y-12700D01*
X35890Y-12786D01*
X35939Y-12860D01*
X36134Y-13054D01*
X36134Y-13117D01*
X36186Y-13243D01*
X36250Y-13307D01*
X36250Y-13700D01*
X35946Y-13700D01*
X35927Y-13680D01*
X35843Y-13680D01*
X35835Y-13677D01*
X35768Y-13677D01*
X35189Y-13677D01*
X35180Y-13680D01*
X35097Y-13680D01*
X35055Y-13722D01*
X35055Y-13786D01*
X35060Y-13798D01*
X35055Y-13811D01*
X35055Y-13877D01*
X35055Y-14042D01*
X35060Y-14054D01*
X35055Y-14067D01*
X35055Y-14133D01*
X35055Y-14182D01*
X34948Y-14137D01*
X34815Y-14137D01*
X34817Y-14133D01*
X34817Y-14066D01*
X34817Y-13437D01*
X34954Y-13575D01*
X34954Y-13575D01*
X35028Y-13624D01*
X35068Y-13631D01*
X35097Y-13661D01*
X35180Y-13661D01*
X35189Y-13664D01*
X35255Y-13664D01*
X35834Y-13664D01*
X35843Y-13661D01*
X35927Y-13661D01*
X35968Y-13619D01*
X35969Y-13555D01*
X35963Y-13542D01*
X35968Y-13530D01*
X35969Y-13464D01*
X35969Y-13299D01*
X35943Y-13237D01*
X35918Y-13212D01*
X35962Y-13108D01*
X35962Y-12972D01*
X35910Y-12846D01*
X35814Y-12749D01*
X35688Y-12697D01*
X35552Y-12697D01*
X35426Y-12749D01*
X35417Y-12758D01*
X35417Y-12366D01*
X35417Y-11733D01*
X35417Y-11066D01*
X35391Y-11005D01*
X35344Y-10958D01*
X35283Y-10932D01*
X35216Y-10932D01*
X34901Y-10932D01*
X34859Y-10974D01*
X34859Y-11390D01*
X35375Y-11390D01*
X35417Y-11348D01*
X35417Y-11066D01*
X35417Y-11733D01*
X35417Y-11451D01*
X35375Y-11409D01*
X34859Y-11409D01*
X34859Y-11825D01*
X34901Y-11867D01*
X35216Y-11867D01*
X35283Y-11867D01*
X35344Y-11841D01*
X35391Y-11794D01*
X35417Y-11733D01*
X35417Y-12366D01*
X35391Y-12305D01*
X35344Y-12258D01*
X35283Y-12232D01*
X35216Y-12232D01*
X34840Y-12232D01*
X34840Y-11825D01*
X34840Y-11409D01*
X34832Y-11409D01*
X34832Y-11390D01*
X34840Y-11390D01*
X34840Y-10974D01*
X34798Y-10932D01*
X34521Y-10932D01*
X34521Y-10756D01*
X34521Y-10061D01*
X34521Y-9572D01*
X34521Y-8943D01*
X34496Y-8881D01*
X34449Y-8834D01*
X34387Y-8809D01*
X34321Y-8809D01*
X33612Y-8809D01*
X33550Y-8834D01*
X33503Y-8881D01*
X33481Y-8934D01*
X33417Y-8934D01*
X33417Y-8866D01*
X33391Y-8805D01*
X33344Y-8758D01*
X33283Y-8732D01*
X33216Y-8732D01*
X32416Y-8732D01*
X32355Y-8758D01*
X32308Y-8805D01*
X32282Y-8866D01*
X32282Y-8933D01*
X32282Y-9533D01*
X32308Y-9594D01*
X32355Y-9641D01*
X32416Y-9667D01*
X32483Y-9667D01*
X33283Y-9667D01*
X33344Y-9641D01*
X33391Y-9594D01*
X33417Y-9533D01*
X33417Y-9466D01*
X33417Y-9465D01*
X33478Y-9465D01*
X33478Y-9638D01*
X33503Y-9700D01*
X33550Y-9747D01*
X33612Y-9772D01*
X33678Y-9772D01*
X34387Y-9772D01*
X34449Y-9747D01*
X34496Y-9700D01*
X34521Y-9638D01*
X34521Y-9572D01*
X34521Y-10061D01*
X34496Y-9999D01*
X34449Y-9952D01*
X34387Y-9927D01*
X34321Y-9927D01*
X34051Y-9927D01*
X34009Y-9969D01*
X34009Y-10399D01*
X34479Y-10399D01*
X34521Y-10357D01*
X34521Y-10061D01*
X34521Y-10756D01*
X34521Y-10460D01*
X34479Y-10418D01*
X34009Y-10418D01*
X34009Y-10848D01*
X34051Y-10890D01*
X34321Y-10890D01*
X34387Y-10890D01*
X34449Y-10865D01*
X34496Y-10818D01*
X34521Y-10756D01*
X34521Y-10932D01*
X34483Y-10932D01*
X34416Y-10932D01*
X34355Y-10958D01*
X34325Y-10988D01*
X34294Y-10958D01*
X34233Y-10932D01*
X34166Y-10932D01*
X33990Y-10932D01*
X33990Y-10848D01*
X33990Y-10418D01*
X33990Y-10399D01*
X33990Y-9969D01*
X33948Y-9927D01*
X33678Y-9927D01*
X33612Y-9927D01*
X33550Y-9952D01*
X33503Y-9999D01*
X33478Y-10061D01*
X33478Y-10357D01*
X33520Y-10399D01*
X33990Y-10399D01*
X33990Y-10418D01*
X33520Y-10418D01*
X33478Y-10460D01*
X33478Y-10756D01*
X33503Y-10818D01*
X33550Y-10865D01*
X33612Y-10890D01*
X33678Y-10890D01*
X33948Y-10890D01*
X33990Y-10848D01*
X33990Y-10932D01*
X33366Y-10932D01*
X33344Y-10941D01*
X33391Y-10894D01*
X33417Y-10833D01*
X33417Y-10766D01*
X33417Y-10166D01*
X33391Y-10105D01*
X33344Y-10058D01*
X33283Y-10032D01*
X33216Y-10032D01*
X32416Y-10032D01*
X32355Y-10058D01*
X32308Y-10105D01*
X32282Y-10166D01*
X32282Y-10233D01*
X32282Y-10833D01*
X32308Y-10894D01*
X32355Y-10941D01*
X32416Y-10967D01*
X32483Y-10967D01*
X32584Y-10967D01*
X32584Y-11134D01*
X32409Y-11134D01*
X32400Y-11134D01*
X32273Y-11134D01*
X32273Y-10124D01*
X32273Y-9560D01*
X32273Y-9494D01*
X32248Y-9432D01*
X32201Y-9385D01*
X32139Y-9360D01*
X31449Y-9360D01*
X31407Y-9402D01*
X31407Y-9832D01*
X32231Y-9832D01*
X32273Y-9790D01*
X32273Y-9560D01*
X32273Y-10124D01*
X32273Y-9894D01*
X32231Y-9852D01*
X31407Y-9852D01*
X31407Y-10283D01*
X31449Y-10324D01*
X32139Y-10324D01*
X32201Y-10299D01*
X32248Y-10252D01*
X32273Y-10190D01*
X32273Y-10124D01*
X32273Y-11134D01*
X31388Y-11134D01*
X31388Y-10283D01*
X31388Y-9852D01*
X31388Y-9832D01*
X31388Y-9402D01*
X31346Y-9360D01*
X30656Y-9360D01*
X30594Y-9385D01*
X30547Y-9432D01*
X30522Y-9494D01*
X30522Y-9560D01*
X30522Y-9790D01*
X30563Y-9832D01*
X31388Y-9832D01*
X31388Y-9852D01*
X30563Y-9852D01*
X30522Y-9894D01*
X30522Y-10124D01*
X30522Y-10190D01*
X30547Y-10252D01*
X30594Y-10299D01*
X30656Y-10324D01*
X31346Y-10324D01*
X31388Y-10283D01*
X31388Y-11134D01*
X30400Y-11134D01*
X30298Y-11154D01*
X30212Y-11212D01*
X30107Y-11316D01*
X30107Y-10124D01*
X30107Y-9494D01*
X30082Y-9432D01*
X30035Y-9385D01*
X29973Y-9360D01*
X29907Y-9360D01*
X28490Y-9360D01*
X28428Y-9385D01*
X28381Y-9432D01*
X28356Y-9494D01*
X28356Y-9560D01*
X28356Y-10190D01*
X28381Y-10252D01*
X28413Y-10284D01*
X28309Y-10389D01*
X28309Y-9487D01*
X28309Y-9448D01*
X28309Y-9410D01*
X28309Y-9410D01*
X28309Y-9410D01*
X28266Y-9197D01*
X28237Y-9126D01*
X28236Y-9125D01*
X28116Y-8946D01*
X28116Y-8945D01*
X28062Y-8891D01*
X27881Y-8770D01*
X27810Y-8741D01*
X27809Y-8741D01*
X27598Y-8699D01*
X27597Y-8698D01*
X27520Y-8698D01*
X27307Y-8741D01*
X27236Y-8770D01*
X27235Y-8771D01*
X27056Y-8891D01*
X27055Y-8891D01*
X27001Y-8945D01*
X26880Y-9126D01*
X26851Y-9197D01*
X26851Y-9198D01*
X26809Y-9410D01*
X26809Y-9410D01*
X26809Y-9410D01*
X26809Y-9448D01*
X26809Y-9487D01*
X26809Y-9487D01*
X26809Y-9487D01*
X26851Y-9699D01*
X26851Y-9700D01*
X26880Y-9771D01*
X27001Y-9951D01*
X27055Y-10006D01*
X27056Y-10006D01*
X27235Y-10126D01*
X27236Y-10126D01*
X27307Y-10156D01*
X27520Y-10198D01*
X27597Y-10198D01*
X27598Y-10198D01*
X27809Y-10156D01*
X27810Y-10156D01*
X27881Y-10126D01*
X28062Y-10006D01*
X28116Y-9952D01*
X28116Y-9951D01*
X28236Y-9772D01*
X28237Y-9771D01*
X28266Y-9700D01*
X28309Y-9487D01*
X28309Y-9487D01*
X28309Y-9487D01*
X28309Y-10389D01*
X27553Y-11144D01*
X27430Y-11021D01*
X27258Y-10950D01*
X27072Y-10949D01*
X26900Y-11020D01*
X26769Y-11152D01*
X26698Y-11323D01*
X26697Y-11509D01*
X26768Y-11681D01*
X26900Y-11813D01*
X27071Y-11884D01*
X27257Y-11884D01*
X27429Y-11813D01*
X27553Y-11689D01*
X27803Y-11939D01*
X27803Y-11939D01*
X27861Y-11978D01*
X27889Y-11997D01*
X27889Y-11997D01*
X27991Y-12017D01*
X27991Y-12017D01*
X28237Y-12017D01*
X28237Y-12099D01*
X28262Y-12161D01*
X28309Y-12208D01*
X28371Y-12234D01*
X28437Y-12234D01*
X28573Y-12234D01*
X28573Y-12286D01*
X28573Y-12743D01*
X28614Y-12784D01*
X29124Y-12784D01*
X29124Y-12388D01*
X29124Y-12127D01*
X29124Y-11859D01*
X29116Y-11859D01*
X29116Y-11839D01*
X29124Y-11839D01*
X29124Y-11310D01*
X29082Y-11268D01*
X28962Y-11268D01*
X28901Y-11294D01*
X28854Y-11341D01*
X28838Y-11379D01*
X28822Y-11342D01*
X28775Y-11294D01*
X28714Y-11269D01*
X28647Y-11269D01*
X28371Y-11269D01*
X28310Y-11294D01*
X28263Y-11341D01*
X28237Y-11403D01*
X28237Y-11469D01*
X28237Y-11485D01*
X28101Y-11485D01*
X28032Y-11417D01*
X29125Y-10324D01*
X29973Y-10324D01*
X30035Y-10299D01*
X30082Y-10252D01*
X30107Y-10190D01*
X30107Y-10124D01*
X30107Y-11316D01*
X30027Y-11396D01*
X30004Y-11342D01*
X29957Y-11294D01*
X29896Y-11269D01*
X29829Y-11269D01*
X29553Y-11269D01*
X29492Y-11294D01*
X29445Y-11341D01*
X29429Y-11379D01*
X29413Y-11341D01*
X29366Y-11294D01*
X29304Y-11268D01*
X29185Y-11268D01*
X29143Y-11310D01*
X29143Y-11839D01*
X29151Y-11839D01*
X29151Y-11859D01*
X29143Y-11859D01*
X29143Y-12127D01*
X29143Y-12388D01*
X29143Y-12784D01*
X29652Y-12784D01*
X29694Y-12743D01*
X29694Y-12286D01*
X29694Y-12234D01*
X29895Y-12234D01*
X29957Y-12208D01*
X30004Y-12161D01*
X30030Y-12100D01*
X30030Y-12033D01*
X30030Y-12017D01*
X30048Y-12017D01*
X30149Y-11997D01*
X30149Y-11997D01*
X30236Y-11939D01*
X30311Y-11864D01*
X30311Y-11868D01*
X30311Y-12098D01*
X30353Y-12140D01*
X30981Y-12140D01*
X30981Y-11709D01*
X30939Y-11667D01*
X30508Y-11667D01*
X30510Y-11665D01*
X32143Y-11665D01*
X32143Y-11667D01*
X31863Y-11667D01*
X31802Y-11693D01*
X31755Y-11740D01*
X31729Y-11801D01*
X31729Y-11868D01*
X31729Y-12498D01*
X31755Y-12559D01*
X31802Y-12606D01*
X31863Y-12632D01*
X31930Y-12632D01*
X32954Y-12632D01*
X33015Y-12606D01*
X33062Y-12559D01*
X33088Y-12498D01*
X33088Y-12431D01*
X33088Y-11801D01*
X33062Y-11740D01*
X33015Y-11693D01*
X32954Y-11667D01*
X32887Y-11667D01*
X32674Y-11667D01*
X32674Y-11665D01*
X32800Y-11665D01*
X33232Y-11665D01*
X33232Y-11733D01*
X33258Y-11794D01*
X33305Y-11841D01*
X33366Y-11867D01*
X33433Y-11867D01*
X34233Y-11867D01*
X34294Y-11841D01*
X34325Y-11811D01*
X34355Y-11841D01*
X34416Y-11867D01*
X34483Y-11867D01*
X34798Y-11867D01*
X34840Y-11825D01*
X34840Y-12232D01*
X34416Y-12232D01*
X34355Y-12258D01*
X34324Y-12288D01*
X34294Y-12258D01*
X34233Y-12232D01*
X34166Y-12232D01*
X33366Y-12232D01*
X33305Y-12258D01*
X33258Y-12305D01*
X33232Y-12366D01*
X33232Y-12433D01*
X33232Y-12498D01*
X33212Y-12512D01*
X33212Y-12512D01*
X33212Y-12512D01*
X32939Y-12784D01*
X31670Y-12784D01*
X31670Y-12431D01*
X31670Y-11868D01*
X31670Y-11801D01*
X31644Y-11740D01*
X31597Y-11693D01*
X31536Y-11667D01*
X31042Y-11667D01*
X31000Y-11709D01*
X31000Y-12140D01*
X31628Y-12140D01*
X31670Y-12098D01*
X31670Y-11868D01*
X31670Y-12431D01*
X31670Y-12201D01*
X31628Y-12159D01*
X31000Y-12159D01*
X31000Y-12590D01*
X31042Y-12632D01*
X31536Y-12632D01*
X31597Y-12606D01*
X31644Y-12559D01*
X31670Y-12498D01*
X31670Y-12431D01*
X31670Y-12784D01*
X30981Y-12784D01*
X30981Y-12590D01*
X30981Y-12159D01*
X30353Y-12159D01*
X30311Y-12201D01*
X30311Y-12431D01*
X30311Y-12498D01*
X30337Y-12559D01*
X30384Y-12606D01*
X30445Y-12632D01*
X30939Y-12632D01*
X30981Y-12590D01*
X30981Y-12784D01*
X30800Y-12784D01*
X30698Y-12804D01*
X30612Y-12862D01*
X30512Y-12962D01*
X30454Y-13048D01*
X30437Y-13132D01*
X30366Y-13132D01*
X30305Y-13158D01*
X30258Y-13205D01*
X30232Y-13266D01*
X30232Y-13333D01*
X30232Y-13434D01*
X30200Y-13434D01*
X30098Y-13454D01*
X30012Y-13512D01*
X30012Y-13512D01*
X30012Y-13512D01*
X29694Y-13829D01*
X29694Y-13303D01*
X29694Y-12846D01*
X29652Y-12804D01*
X29143Y-12804D01*
X29143Y-13461D01*
X29185Y-13503D01*
X29560Y-13503D01*
X29622Y-13478D01*
X29669Y-13431D01*
X29694Y-13369D01*
X29694Y-13303D01*
X29694Y-13829D01*
X29689Y-13834D01*
X29124Y-13834D01*
X29124Y-13461D01*
X29124Y-12804D01*
X28614Y-12804D01*
X28573Y-12846D01*
X28573Y-13303D01*
X28573Y-13369D01*
X28598Y-13431D01*
X28645Y-13478D01*
X28707Y-13503D01*
X29082Y-13503D01*
X29124Y-13461D01*
X29124Y-13834D01*
X27632Y-13834D01*
X27632Y-12750D01*
X27632Y-12084D01*
X27607Y-12022D01*
X27560Y-11975D01*
X27498Y-11950D01*
X27432Y-11949D01*
X27217Y-11950D01*
X27175Y-11991D01*
X27175Y-12407D01*
X27590Y-12407D01*
X27632Y-12365D01*
X27632Y-12084D01*
X27632Y-12750D01*
X27632Y-12468D01*
X27590Y-12427D01*
X27175Y-12427D01*
X27175Y-12842D01*
X27217Y-12884D01*
X27432Y-12884D01*
X27498Y-12884D01*
X27560Y-12859D01*
X27607Y-12811D01*
X27632Y-12750D01*
X27632Y-13834D01*
X27155Y-13834D01*
X27155Y-12842D01*
X27155Y-12427D01*
X27155Y-12407D01*
X27155Y-11991D01*
X27113Y-11950D01*
X26898Y-11949D01*
X26831Y-11950D01*
X26770Y-11975D01*
X26723Y-12022D01*
X26698Y-12084D01*
X26698Y-12365D01*
X26739Y-12407D01*
X27155Y-12407D01*
X27155Y-12427D01*
X26739Y-12427D01*
X26698Y-12468D01*
X26698Y-12750D01*
X26723Y-12811D01*
X26770Y-12859D01*
X26831Y-12884D01*
X26898Y-12884D01*
X27113Y-12884D01*
X27155Y-12842D01*
X27155Y-13834D01*
X26900Y-13834D01*
X26798Y-13854D01*
X26769Y-13873D01*
X26712Y-13912D01*
X26574Y-14049D01*
X26574Y-8464D01*
X36548Y-8464D01*
X36508Y-8505D01*
X36482Y-8566D01*
X36482Y-8633D01*
X36482Y-8848D01*
X36524Y-8890D01*
X36940Y-8890D01*
X36940Y-8882D01*
X36959Y-8882D01*
X36959Y-8890D01*
X37375Y-8890D01*
X37417Y-8848D01*
X37417Y-8633D01*
X37417Y-8566D01*
X37391Y-8505D01*
X37351Y-8464D01*
X37780Y-8464D01*
G54D10*
G36*
X40023Y-12823D02*
X39417Y-12823D01*
X39417Y-12566D01*
X39417Y-11766D01*
X39391Y-11705D01*
X39361Y-11674D01*
X39391Y-11644D01*
X39417Y-11583D01*
X39417Y-11516D01*
X39417Y-10716D01*
X39391Y-10655D01*
X39361Y-10624D01*
X39391Y-10594D01*
X39417Y-10533D01*
X39417Y-10466D01*
X39417Y-9733D01*
X39417Y-9166D01*
X39417Y-8951D01*
X39375Y-8909D01*
X38959Y-8909D01*
X38959Y-9325D01*
X39001Y-9367D01*
X39283Y-9367D01*
X39344Y-9341D01*
X39391Y-9294D01*
X39417Y-9233D01*
X39417Y-9166D01*
X39417Y-9733D01*
X39417Y-9666D01*
X39391Y-9605D01*
X39344Y-9558D01*
X39283Y-9532D01*
X39001Y-9532D01*
X38959Y-9574D01*
X38959Y-10090D01*
X39375Y-10090D01*
X39417Y-10048D01*
X39417Y-9733D01*
X39417Y-10466D01*
X39417Y-10151D01*
X39375Y-10109D01*
X38959Y-10109D01*
X38959Y-10117D01*
X38940Y-10117D01*
X38940Y-10109D01*
X38940Y-10090D01*
X38940Y-9574D01*
X38940Y-9325D01*
X38940Y-8909D01*
X38524Y-8909D01*
X38482Y-8951D01*
X38482Y-9166D01*
X38482Y-9233D01*
X38508Y-9294D01*
X38555Y-9341D01*
X38616Y-9367D01*
X38898Y-9367D01*
X38940Y-9325D01*
X38940Y-9574D01*
X38898Y-9532D01*
X38616Y-9532D01*
X38555Y-9558D01*
X38508Y-9605D01*
X38482Y-9666D01*
X38482Y-9733D01*
X38482Y-10048D01*
X38524Y-10090D01*
X38940Y-10090D01*
X38940Y-10109D01*
X38524Y-10109D01*
X38482Y-10151D01*
X38482Y-10466D01*
X38482Y-10533D01*
X38508Y-10594D01*
X38538Y-10625D01*
X38508Y-10655D01*
X38482Y-10716D01*
X38482Y-10783D01*
X38482Y-11583D01*
X38508Y-11644D01*
X38538Y-11675D01*
X38508Y-11705D01*
X38482Y-11766D01*
X38482Y-11833D01*
X38482Y-12633D01*
X38508Y-12694D01*
X38555Y-12741D01*
X38616Y-12767D01*
X38683Y-12767D01*
X39283Y-12767D01*
X39344Y-12741D01*
X39391Y-12694D01*
X39417Y-12633D01*
X39417Y-12566D01*
X39417Y-12823D01*
X38500Y-12823D01*
X38413Y-12840D01*
X38351Y-12882D01*
X38340Y-12856D01*
X38251Y-12767D01*
X38283Y-12767D01*
X38344Y-12741D01*
X38391Y-12694D01*
X38417Y-12633D01*
X38417Y-12566D01*
X38417Y-11766D01*
X38391Y-11705D01*
X38361Y-11674D01*
X38391Y-11644D01*
X38417Y-11583D01*
X38417Y-11516D01*
X38417Y-10716D01*
X38391Y-10655D01*
X38361Y-10624D01*
X38391Y-10594D01*
X38417Y-10533D01*
X38417Y-10466D01*
X38417Y-9666D01*
X38391Y-9605D01*
X38344Y-9558D01*
X38283Y-9532D01*
X38216Y-9532D01*
X38215Y-9532D01*
X38215Y-9295D01*
X38345Y-9165D01*
X38417Y-8993D01*
X38417Y-8807D01*
X38346Y-8635D01*
X38215Y-8504D01*
X38119Y-8464D01*
X38548Y-8464D01*
X38508Y-8505D01*
X38482Y-8566D01*
X38482Y-8633D01*
X38482Y-8848D01*
X38524Y-8890D01*
X38940Y-8890D01*
X38940Y-8882D01*
X38959Y-8882D01*
X38959Y-8890D01*
X39375Y-8890D01*
X39417Y-8848D01*
X39417Y-8633D01*
X39417Y-8566D01*
X39391Y-8505D01*
X39351Y-8464D01*
X39780Y-8464D01*
X39685Y-8503D01*
X39554Y-8634D01*
X39482Y-8806D01*
X39482Y-8992D01*
X39553Y-9164D01*
X39684Y-9295D01*
X39856Y-9367D01*
X39984Y-9367D01*
X39984Y-9532D01*
X39916Y-9532D01*
X39855Y-9558D01*
X39808Y-9605D01*
X39782Y-9666D01*
X39782Y-9733D01*
X39782Y-10533D01*
X39808Y-10594D01*
X39838Y-10625D01*
X39808Y-10655D01*
X39782Y-10716D01*
X39782Y-10783D01*
X39782Y-11583D01*
X39808Y-11644D01*
X39838Y-11675D01*
X39808Y-11705D01*
X39782Y-11766D01*
X39782Y-11833D01*
X39782Y-12633D01*
X39808Y-12694D01*
X39855Y-12741D01*
X39916Y-12767D01*
X39983Y-12767D01*
X40023Y-12767D01*
X40023Y-12823D01*
X40023Y-12823D01*
G37*
G54D27*
X40023Y-12823D02*
X39417Y-12823D01*
X39417Y-12566D01*
X39417Y-11766D01*
X39391Y-11705D01*
X39361Y-11674D01*
X39391Y-11644D01*
X39417Y-11583D01*
X39417Y-11516D01*
X39417Y-10716D01*
X39391Y-10655D01*
X39361Y-10624D01*
X39391Y-10594D01*
X39417Y-10533D01*
X39417Y-10466D01*
X39417Y-9733D01*
X39417Y-9166D01*
X39417Y-8951D01*
X39375Y-8909D01*
X38959Y-8909D01*
X38959Y-9325D01*
X39001Y-9367D01*
X39283Y-9367D01*
X39344Y-9341D01*
X39391Y-9294D01*
X39417Y-9233D01*
X39417Y-9166D01*
X39417Y-9733D01*
X39417Y-9666D01*
X39391Y-9605D01*
X39344Y-9558D01*
X39283Y-9532D01*
X39001Y-9532D01*
X38959Y-9574D01*
X38959Y-10090D01*
X39375Y-10090D01*
X39417Y-10048D01*
X39417Y-9733D01*
X39417Y-10466D01*
X39417Y-10151D01*
X39375Y-10109D01*
X38959Y-10109D01*
X38959Y-10117D01*
X38940Y-10117D01*
X38940Y-10109D01*
X38940Y-10090D01*
X38940Y-9574D01*
X38940Y-9325D01*
X38940Y-8909D01*
X38524Y-8909D01*
X38482Y-8951D01*
X38482Y-9166D01*
X38482Y-9233D01*
X38508Y-9294D01*
X38555Y-9341D01*
X38616Y-9367D01*
X38898Y-9367D01*
X38940Y-9325D01*
X38940Y-9574D01*
X38898Y-9532D01*
X38616Y-9532D01*
X38555Y-9558D01*
X38508Y-9605D01*
X38482Y-9666D01*
X38482Y-9733D01*
X38482Y-10048D01*
X38524Y-10090D01*
X38940Y-10090D01*
X38940Y-10109D01*
X38524Y-10109D01*
X38482Y-10151D01*
X38482Y-10466D01*
X38482Y-10533D01*
X38508Y-10594D01*
X38538Y-10625D01*
X38508Y-10655D01*
X38482Y-10716D01*
X38482Y-10783D01*
X38482Y-11583D01*
X38508Y-11644D01*
X38538Y-11675D01*
X38508Y-11705D01*
X38482Y-11766D01*
X38482Y-11833D01*
X38482Y-12633D01*
X38508Y-12694D01*
X38555Y-12741D01*
X38616Y-12767D01*
X38683Y-12767D01*
X39283Y-12767D01*
X39344Y-12741D01*
X39391Y-12694D01*
X39417Y-12633D01*
X39417Y-12566D01*
X39417Y-12823D01*
X38500Y-12823D01*
X38413Y-12840D01*
X38351Y-12882D01*
X38340Y-12856D01*
X38251Y-12767D01*
X38283Y-12767D01*
X38344Y-12741D01*
X38391Y-12694D01*
X38417Y-12633D01*
X38417Y-12566D01*
X38417Y-11766D01*
X38391Y-11705D01*
X38361Y-11674D01*
X38391Y-11644D01*
X38417Y-11583D01*
X38417Y-11516D01*
X38417Y-10716D01*
X38391Y-10655D01*
X38361Y-10624D01*
X38391Y-10594D01*
X38417Y-10533D01*
X38417Y-10466D01*
X38417Y-9666D01*
X38391Y-9605D01*
X38344Y-9558D01*
X38283Y-9532D01*
X38216Y-9532D01*
X38215Y-9532D01*
X38215Y-9295D01*
X38345Y-9165D01*
X38417Y-8993D01*
X38417Y-8807D01*
X38346Y-8635D01*
X38215Y-8504D01*
X38119Y-8464D01*
X38548Y-8464D01*
X38508Y-8505D01*
X38482Y-8566D01*
X38482Y-8633D01*
X38482Y-8848D01*
X38524Y-8890D01*
X38940Y-8890D01*
X38940Y-8882D01*
X38959Y-8882D01*
X38959Y-8890D01*
X39375Y-8890D01*
X39417Y-8848D01*
X39417Y-8633D01*
X39417Y-8566D01*
X39391Y-8505D01*
X39351Y-8464D01*
X39780Y-8464D01*
X39685Y-8503D01*
X39554Y-8634D01*
X39482Y-8806D01*
X39482Y-8992D01*
X39553Y-9164D01*
X39684Y-9295D01*
X39856Y-9367D01*
X39984Y-9367D01*
X39984Y-9532D01*
X39916Y-9532D01*
X39855Y-9558D01*
X39808Y-9605D01*
X39782Y-9666D01*
X39782Y-9733D01*
X39782Y-10533D01*
X39808Y-10594D01*
X39838Y-10625D01*
X39808Y-10655D01*
X39782Y-10716D01*
X39782Y-10783D01*
X39782Y-11583D01*
X39808Y-11644D01*
X39838Y-11675D01*
X39808Y-11705D01*
X39782Y-11766D01*
X39782Y-11833D01*
X39782Y-12633D01*
X39808Y-12694D01*
X39855Y-12741D01*
X39916Y-12767D01*
X39983Y-12767D01*
X40023Y-12767D01*
X40023Y-12823D01*
G54D10*
G36*
X40748Y-19094D02*
X40283Y-19094D01*
X40283Y-18152D01*
X40283Y-18110D01*
X40283Y-18068D01*
X40283Y-18067D01*
X40283Y-18067D01*
X40241Y-17854D01*
X40208Y-17776D01*
X40208Y-17775D01*
X40088Y-17596D01*
X40088Y-17595D01*
X40028Y-17535D01*
X39847Y-17415D01*
X39769Y-17382D01*
X39768Y-17382D01*
X39556Y-17340D01*
X39555Y-17340D01*
X39471Y-17340D01*
X39258Y-17382D01*
X39179Y-17415D01*
X39179Y-17415D01*
X38999Y-17535D01*
X38999Y-17535D01*
X38939Y-17595D01*
X38818Y-17776D01*
X38786Y-17854D01*
X38786Y-17855D01*
X38743Y-18067D01*
X38743Y-18067D01*
X38743Y-18068D01*
X38743Y-18110D01*
X38743Y-18152D01*
X38743Y-18152D01*
X38743Y-18152D01*
X38786Y-18364D01*
X38786Y-18365D01*
X38818Y-18443D01*
X38939Y-18624D01*
X38999Y-18684D01*
X38999Y-18684D01*
X39179Y-18804D01*
X39179Y-18805D01*
X39258Y-18837D01*
X39471Y-18880D01*
X39555Y-18880D01*
X39556Y-18880D01*
X39768Y-18837D01*
X39769Y-18837D01*
X39847Y-18805D01*
X40028Y-18684D01*
X40088Y-18624D01*
X40088Y-18624D01*
X40208Y-18444D01*
X40208Y-18444D01*
X40241Y-18365D01*
X40283Y-18152D01*
X40283Y-18152D01*
X40283Y-18152D01*
X40283Y-19094D01*
X35925Y-19094D01*
X36018Y-19001D01*
X36056Y-19017D01*
X36242Y-19017D01*
X36414Y-18946D01*
X36545Y-18815D01*
X36617Y-18643D01*
X36617Y-18457D01*
X36601Y-18418D01*
X36820Y-18200D01*
X36820Y-18200D01*
X36869Y-18126D01*
X36886Y-18040D01*
X36886Y-18040D01*
X36886Y-17946D01*
X37056Y-18017D01*
X37242Y-18017D01*
X37414Y-17946D01*
X37489Y-17871D01*
X37489Y-17890D01*
X37281Y-18098D01*
X37243Y-18082D01*
X37057Y-18082D01*
X36885Y-18153D01*
X36754Y-18284D01*
X36682Y-18456D01*
X36682Y-18642D01*
X36753Y-18814D01*
X36884Y-18945D01*
X37056Y-19017D01*
X37242Y-19017D01*
X37414Y-18946D01*
X37545Y-18815D01*
X37617Y-18643D01*
X37617Y-18457D01*
X37601Y-18418D01*
X37876Y-18143D01*
X37876Y-18143D01*
X37925Y-18070D01*
X37942Y-17983D01*
X37942Y-17983D01*
X37942Y-15968D01*
X38038Y-15968D01*
X38073Y-15954D01*
X38073Y-16060D01*
X38090Y-16146D01*
X38139Y-16220D01*
X38299Y-16380D01*
X38299Y-16380D01*
X38373Y-16429D01*
X38402Y-16434D01*
X38402Y-16653D01*
X38428Y-16714D01*
X38475Y-16761D01*
X38536Y-16787D01*
X38603Y-16787D01*
X39203Y-16787D01*
X39264Y-16761D01*
X39311Y-16714D01*
X39337Y-16653D01*
X39337Y-16586D01*
X39337Y-16501D01*
X39345Y-16510D01*
X39471Y-16562D01*
X39607Y-16562D01*
X39702Y-16523D01*
X39702Y-16653D01*
X39728Y-16714D01*
X39775Y-16761D01*
X39836Y-16787D01*
X39903Y-16787D01*
X40503Y-16787D01*
X40564Y-16761D01*
X40611Y-16714D01*
X40637Y-16653D01*
X40637Y-16586D01*
X40637Y-15786D01*
X40611Y-15725D01*
X40564Y-15678D01*
X40503Y-15652D01*
X40436Y-15652D01*
X40317Y-15652D01*
X40410Y-15560D01*
X40410Y-15560D01*
X40459Y-15486D01*
X40476Y-15400D01*
X40476Y-15400D01*
X40476Y-15367D01*
X40583Y-15367D01*
X40644Y-15341D01*
X40691Y-15294D01*
X40717Y-15233D01*
X40717Y-15166D01*
X40717Y-14366D01*
X40691Y-14305D01*
X40661Y-14274D01*
X40691Y-14244D01*
X40717Y-14183D01*
X40717Y-14116D01*
X40717Y-13316D01*
X40691Y-13255D01*
X40644Y-13208D01*
X40583Y-13182D01*
X40516Y-13182D01*
X40476Y-13182D01*
X40476Y-13050D01*
X40476Y-12767D01*
X40583Y-12767D01*
X40644Y-12741D01*
X40691Y-12694D01*
X40717Y-12633D01*
X40717Y-12566D01*
X40717Y-11766D01*
X40691Y-11705D01*
X40661Y-11674D01*
X40691Y-11644D01*
X40717Y-11583D01*
X40717Y-11516D01*
X40717Y-10716D01*
X40691Y-10655D01*
X40661Y-10624D01*
X40691Y-10594D01*
X40717Y-10533D01*
X40717Y-10466D01*
X40717Y-9666D01*
X40691Y-9605D01*
X40644Y-9558D01*
X40583Y-9532D01*
X40516Y-9532D01*
X40515Y-9532D01*
X40515Y-9200D01*
X40515Y-9199D01*
X40495Y-9098D01*
X40495Y-9098D01*
X40476Y-9069D01*
X40437Y-9012D01*
X40437Y-9012D01*
X40417Y-8991D01*
X40417Y-8807D01*
X40346Y-8635D01*
X40215Y-8504D01*
X40119Y-8464D01*
X40748Y-8464D01*
X40748Y-19094D01*
X40748Y-19094D01*
G37*
G54D27*
X40748Y-19094D02*
X40283Y-19094D01*
X40283Y-18152D01*
X40283Y-18110D01*
X40283Y-18068D01*
X40283Y-18067D01*
X40283Y-18067D01*
X40241Y-17854D01*
X40208Y-17776D01*
X40208Y-17775D01*
X40088Y-17596D01*
X40088Y-17595D01*
X40028Y-17535D01*
X39847Y-17415D01*
X39769Y-17382D01*
X39768Y-17382D01*
X39556Y-17340D01*
X39555Y-17340D01*
X39471Y-17340D01*
X39258Y-17382D01*
X39179Y-17415D01*
X39179Y-17415D01*
X38999Y-17535D01*
X38999Y-17535D01*
X38939Y-17595D01*
X38818Y-17776D01*
X38786Y-17854D01*
X38786Y-17855D01*
X38743Y-18067D01*
X38743Y-18067D01*
X38743Y-18068D01*
X38743Y-18110D01*
X38743Y-18152D01*
X38743Y-18152D01*
X38743Y-18152D01*
X38786Y-18364D01*
X38786Y-18365D01*
X38818Y-18443D01*
X38939Y-18624D01*
X38999Y-18684D01*
X38999Y-18684D01*
X39179Y-18804D01*
X39179Y-18805D01*
X39258Y-18837D01*
X39471Y-18880D01*
X39555Y-18880D01*
X39556Y-18880D01*
X39768Y-18837D01*
X39769Y-18837D01*
X39847Y-18805D01*
X40028Y-18684D01*
X40088Y-18624D01*
X40088Y-18624D01*
X40208Y-18444D01*
X40208Y-18444D01*
X40241Y-18365D01*
X40283Y-18152D01*
X40283Y-18152D01*
X40283Y-18152D01*
X40283Y-19094D01*
X35925Y-19094D01*
X36018Y-19001D01*
X36056Y-19017D01*
X36242Y-19017D01*
X36414Y-18946D01*
X36545Y-18815D01*
X36617Y-18643D01*
X36617Y-18457D01*
X36601Y-18418D01*
X36820Y-18200D01*
X36820Y-18200D01*
X36869Y-18126D01*
X36886Y-18040D01*
X36886Y-18040D01*
X36886Y-17946D01*
X37056Y-18017D01*
X37242Y-18017D01*
X37414Y-17946D01*
X37489Y-17871D01*
X37489Y-17890D01*
X37281Y-18098D01*
X37243Y-18082D01*
X37057Y-18082D01*
X36885Y-18153D01*
X36754Y-18284D01*
X36682Y-18456D01*
X36682Y-18642D01*
X36753Y-18814D01*
X36884Y-18945D01*
X37056Y-19017D01*
X37242Y-19017D01*
X37414Y-18946D01*
X37545Y-18815D01*
X37617Y-18643D01*
X37617Y-18457D01*
X37601Y-18418D01*
X37876Y-18143D01*
X37876Y-18143D01*
X37925Y-18070D01*
X37942Y-17983D01*
X37942Y-17983D01*
X37942Y-15968D01*
X38038Y-15968D01*
X38073Y-15954D01*
X38073Y-16060D01*
X38090Y-16146D01*
X38139Y-16220D01*
X38299Y-16380D01*
X38299Y-16380D01*
X38373Y-16429D01*
X38402Y-16434D01*
X38402Y-16653D01*
X38428Y-16714D01*
X38475Y-16761D01*
X38536Y-16787D01*
X38603Y-16787D01*
X39203Y-16787D01*
X39264Y-16761D01*
X39311Y-16714D01*
X39337Y-16653D01*
X39337Y-16586D01*
X39337Y-16501D01*
X39345Y-16510D01*
X39471Y-16562D01*
X39607Y-16562D01*
X39702Y-16523D01*
X39702Y-16653D01*
X39728Y-16714D01*
X39775Y-16761D01*
X39836Y-16787D01*
X39903Y-16787D01*
X40503Y-16787D01*
X40564Y-16761D01*
X40611Y-16714D01*
X40637Y-16653D01*
X40637Y-16586D01*
X40637Y-15786D01*
X40611Y-15725D01*
X40564Y-15678D01*
X40503Y-15652D01*
X40436Y-15652D01*
X40317Y-15652D01*
X40410Y-15560D01*
X40410Y-15560D01*
X40459Y-15486D01*
X40476Y-15400D01*
X40476Y-15400D01*
X40476Y-15367D01*
X40583Y-15367D01*
X40644Y-15341D01*
X40691Y-15294D01*
X40717Y-15233D01*
X40717Y-15166D01*
X40717Y-14366D01*
X40691Y-14305D01*
X40661Y-14274D01*
X40691Y-14244D01*
X40717Y-14183D01*
X40717Y-14116D01*
X40717Y-13316D01*
X40691Y-13255D01*
X40644Y-13208D01*
X40583Y-13182D01*
X40516Y-13182D01*
X40476Y-13182D01*
X40476Y-13050D01*
X40476Y-12767D01*
X40583Y-12767D01*
X40644Y-12741D01*
X40691Y-12694D01*
X40717Y-12633D01*
X40717Y-12566D01*
X40717Y-11766D01*
X40691Y-11705D01*
X40661Y-11674D01*
X40691Y-11644D01*
X40717Y-11583D01*
X40717Y-11516D01*
X40717Y-10716D01*
X40691Y-10655D01*
X40661Y-10624D01*
X40691Y-10594D01*
X40717Y-10533D01*
X40717Y-10466D01*
X40717Y-9666D01*
X40691Y-9605D01*
X40644Y-9558D01*
X40583Y-9532D01*
X40516Y-9532D01*
X40515Y-9532D01*
X40515Y-9200D01*
X40515Y-9199D01*
X40495Y-9098D01*
X40495Y-9098D01*
X40476Y-9069D01*
X40437Y-9012D01*
X40437Y-9012D01*
X40417Y-8991D01*
X40417Y-8807D01*
X40346Y-8635D01*
X40215Y-8504D01*
X40119Y-8464D01*
X40748Y-8464D01*
X40748Y-19094D01*
M02*
