M48
;DRILL file {Pcbnew (2013-07-07 BZR 4022)-stable} date 02/12/2013 08:18:58
;FORMAT={-:-/ absolute / inch / decimal}
FMAT,2
INCH,TZ
T1C0.020
T2C0.032
T3C0.040
T4C0.045
T5C0.060
%
G90
G05
M72
T1
X3.15Y-4.95
X3.15Y-5.05
X3.2Y-5.
X3.25Y-4.95
X3.3Y-4.9
X3.3Y-5.075
X3.325Y-5.125
X3.325Y-5.225
X3.345Y-6.085
X3.35Y-5.025
X3.35Y-5.175
X3.375Y-4.775
X3.4Y-5.
X3.45Y-4.775
X3.5Y-4.825
X3.5Y-4.9
X3.55Y-4.775
X3.55Y-5.1
X3.6Y-5.05
X3.6Y-5.125
X3.625Y-4.775
X3.65Y-5.
X3.65Y-5.1
X3.7Y-4.95
X3.7Y-5.05
X3.7Y-5.15
X3.73Y-5.65
X3.75Y-5.
X3.75Y-5.1
X3.755Y-5.45
X3.785Y-5.695
X3.79Y-5.81
X3.79Y-5.935
X3.8Y-5.05
X3.835Y-6.025
X3.85Y-5.
X3.85Y-6.1
X3.9325Y-5.2225
X3.9725Y-5.5125
X4.0225Y-5.3225
X4.0375Y-5.0275
X4.0375Y-5.6125
X4.0925Y-5.3575
X4.1025Y-5.6575
X4.1075Y-5.0525
X4.1825Y-5.0475
X4.1825Y-5.3175
X4.1825Y-5.6225
X4.2875Y-5.1075
X4.2875Y-5.4125
X4.2925Y-5.7075
X4.3625Y-5.4125
X4.3675Y-5.1075
X4.3725Y-5.7125
X4.4425Y-5.4075
X4.4525Y-5.7075
X4.65Y-5.425
X4.65Y-5.525
X4.65Y-5.675
X4.65Y-6.1
X4.675Y-5.025
X4.7Y-5.225
X4.7Y-5.375
X4.7Y-5.475
X4.7Y-5.725
X4.7Y-6.075
X4.725Y-4.975
X4.725Y-5.875
X4.75Y-5.175
X4.75Y-5.425
X4.75Y-5.525
X4.75Y-5.675
X4.75Y-6.1
X4.775Y-5.025
X4.775Y-5.925
X4.8Y-5.375
X4.8Y-5.475
X4.8Y-5.725
X4.8Y-5.875
X4.8Y-6.075
X4.825Y-5.525
X4.825Y-5.925
X4.9Y-5.35
X4.9Y-5.55
X4.925Y-5.95
T2
X3.145Y-5.2034
X3.53Y-5.2034
X4.Y-4.8
X4.1Y-4.8
X4.525Y-4.9
X4.525Y-5.
X4.58Y-5.3
X4.58Y-5.4
X4.58Y-5.5
X4.58Y-5.6
X4.58Y-5.7
X4.58Y-5.8
X4.605Y-4.9
X4.605Y-5.
X4.62Y-5.1
X4.62Y-5.2
X4.645Y-5.9
X4.645Y-6.
T3
X3.145Y-5.3034
X3.145Y-5.4034
X3.145Y-5.5034
X3.145Y-5.6034
X3.145Y-5.7034
X3.145Y-5.8034
X3.145Y-5.9034
X3.145Y-6.0034
X3.145Y-6.1034
X3.245Y-5.2034
X3.245Y-5.3034
X3.245Y-5.4034
X3.245Y-5.5034
X3.245Y-5.6034
X3.245Y-5.7034
X3.245Y-5.8034
X3.245Y-5.9034
X3.245Y-6.0034
X3.245Y-6.1034
X3.53Y-5.3034
X3.53Y-5.4034
X3.53Y-5.5034
X3.53Y-5.6034
X3.53Y-5.7034
X3.53Y-5.8034
X3.53Y-5.9034
X3.53Y-6.0034
X3.53Y-6.1034
X3.63Y-5.2034
X3.63Y-5.3034
X3.63Y-5.4034
X3.63Y-5.5034
X3.63Y-5.6034
X3.63Y-5.7034
X3.63Y-5.8034
X3.63Y-5.9034
X3.63Y-6.0034
X3.63Y-6.1034
T4
X3.95Y-4.875
X3.95Y-5.975
X4.Y-5.9
X4.025Y-4.875
X4.025Y-5.825
X4.075Y-5.9
X4.1Y-4.875
X4.1Y-5.825
X4.15Y-6.1
X4.175Y-4.875
X4.2Y-6.05
X4.25Y-4.975
X4.25Y-5.95
X4.325Y-5.925
X4.4Y-5.925
X4.425Y-5.1
X4.45Y-4.9
X4.45Y-5.
X4.475Y-5.95
X4.5Y-4.825
X4.5Y-6.025
X4.5Y-6.1
X4.55Y-4.775
X4.575Y-6.025
X4.575Y-6.1
X4.6Y-4.825
X4.65Y-4.775
X4.7Y-4.825
X4.75Y-4.775
X4.8Y-4.825
X4.825Y-4.775
T5
X3.4Y-4.875
X3.6Y-4.875
X3.8Y-4.875
X4.9Y-4.85
X4.9Y-5.05
X4.9Y-5.25
X4.9Y-5.45
X4.9Y-5.65
X4.9Y-5.85
X4.9Y-6.05
T0
M30
